<?xml version="1.0" encoding="utf-8" standalone="no"?>
<!DOCTYPE svg PUBLIC "-//W3C//DTD SVG 1.1//EN"
  "http://www.w3.org/Graphics/SVG/1.1/DTD/svg11.dtd">
<!-- Created with matplotlib (https://matplotlib.org/) -->
<svg height="288pt" version="1.1" viewBox="0 0 432 288" width="432pt" xmlns="http://www.w3.org/2000/svg" xmlns:xlink="http://www.w3.org/1999/xlink">
 <defs>
  <style type="text/css">
*{stroke-linecap:butt;stroke-linejoin:round;}
  </style>
 </defs>
 <g id="figure_1">
  <g id="patch_1">
   <path d="M 0 288 
L 432 288 
L 432 0 
L 0 0 
z
" style="fill:#ffffff;"/>
  </g>
  <g id="axes_1">
   <g id="patch_2">
    <path d="M 54 252 
L 388.8 252 
L 388.8 34.56 
L 54 34.56 
z
" style="fill:#ffffff;"/>
   </g>
   <g id="matplotlib.axis_1">
    <g id="xtick_1">
     <g id="line2d_1">
      <defs>
       <path d="M 0 0 
L 0 3.5 
" id="m5d1a6f32e4" style="stroke:#000000;stroke-width:0.8;"/>
      </defs>
      <g>
       <use style="stroke:#000000;stroke-width:0.8;" x="91.982791" xlink:href="#m5d1a6f32e4" y="252"/>
      </g>
     </g>
     <g id="text_1">
      <!-- $\mathdefault{10^{-9}}$ -->
      <defs>
       <path d="M 12.40625 8.296875 
L 28.515625 8.296875 
L 28.515625 63.921875 
L 10.984375 60.40625 
L 10.984375 69.390625 
L 28.421875 72.90625 
L 38.28125 72.90625 
L 38.28125 8.296875 
L 54.390625 8.296875 
L 54.390625 0 
L 12.40625 0 
z
" id="DejaVuSans-49"/>
       <path d="M 31.78125 66.40625 
Q 24.171875 66.40625 20.328125 58.90625 
Q 16.5 51.421875 16.5 36.375 
Q 16.5 21.390625 20.328125 13.890625 
Q 24.171875 6.390625 31.78125 6.390625 
Q 39.453125 6.390625 43.28125 13.890625 
Q 47.125 21.390625 47.125 36.375 
Q 47.125 51.421875 43.28125 58.90625 
Q 39.453125 66.40625 31.78125 66.40625 
z
M 31.78125 74.21875 
Q 44.046875 74.21875 50.515625 64.515625 
Q 56.984375 54.828125 56.984375 36.375 
Q 56.984375 17.96875 50.515625 8.265625 
Q 44.046875 -1.421875 31.78125 -1.421875 
Q 19.53125 -1.421875 13.0625 8.265625 
Q 6.59375 17.96875 6.59375 36.375 
Q 6.59375 54.828125 13.0625 64.515625 
Q 19.53125 74.21875 31.78125 74.21875 
z
" id="DejaVuSans-48"/>
       <path d="M 10.59375 35.5 
L 73.1875 35.5 
L 73.1875 27.203125 
L 10.59375 27.203125 
z
" id="DejaVuSans-8722"/>
       <path d="M 10.984375 1.515625 
L 10.984375 10.5 
Q 14.703125 8.734375 18.5 7.8125 
Q 22.3125 6.890625 25.984375 6.890625 
Q 35.75 6.890625 40.890625 13.453125 
Q 46.046875 20.015625 46.78125 33.40625 
Q 43.953125 29.203125 39.59375 26.953125 
Q 35.25 24.703125 29.984375 24.703125 
Q 19.046875 24.703125 12.671875 31.3125 
Q 6.296875 37.9375 6.296875 49.421875 
Q 6.296875 60.640625 12.9375 67.421875 
Q 19.578125 74.21875 30.609375 74.21875 
Q 43.265625 74.21875 49.921875 64.515625 
Q 56.59375 54.828125 56.59375 36.375 
Q 56.59375 19.140625 48.40625 8.859375 
Q 40.234375 -1.421875 26.421875 -1.421875 
Q 22.703125 -1.421875 18.890625 -0.6875 
Q 15.09375 0.046875 10.984375 1.515625 
z
M 30.609375 32.421875 
Q 37.25 32.421875 41.125 36.953125 
Q 45.015625 41.5 45.015625 49.421875 
Q 45.015625 57.28125 41.125 61.84375 
Q 37.25 66.40625 30.609375 66.40625 
Q 23.96875 66.40625 20.09375 61.84375 
Q 16.21875 57.28125 16.21875 49.421875 
Q 16.21875 41.5 20.09375 36.953125 
Q 23.96875 32.421875 30.609375 32.421875 
z
" id="DejaVuSans-57"/>
      </defs>
      <g transform="translate(77.882791 268.118125)scale(0.12 -0.12)">
       <use transform="translate(0 0.765625)" xlink:href="#DejaVuSans-49"/>
       <use transform="translate(63.623047 0.765625)" xlink:href="#DejaVuSans-48"/>
       <use transform="translate(128.203125 39.046875)scale(0.7)" xlink:href="#DejaVuSans-8722"/>
       <use transform="translate(186.855469 39.046875)scale(0.7)" xlink:href="#DejaVuSans-57"/>
      </g>
     </g>
    </g>
    <g id="xtick_2">
     <g id="line2d_2">
      <g>
       <use style="stroke:#000000;stroke-width:0.8;" x="131.611379" xlink:href="#m5d1a6f32e4" y="252"/>
      </g>
     </g>
     <g id="text_2">
      <!-- $\mathdefault{10^{-7}}$ -->
      <defs>
       <path d="M 8.203125 72.90625 
L 55.078125 72.90625 
L 55.078125 68.703125 
L 28.609375 0 
L 18.3125 0 
L 43.21875 64.59375 
L 8.203125 64.59375 
z
" id="DejaVuSans-55"/>
      </defs>
      <g transform="translate(117.511379 268.118125)scale(0.12 -0.12)">
       <use transform="translate(0 0.684375)" xlink:href="#DejaVuSans-49"/>
       <use transform="translate(63.623047 0.684375)" xlink:href="#DejaVuSans-48"/>
       <use transform="translate(128.203125 38.965625)scale(0.7)" xlink:href="#DejaVuSans-8722"/>
       <use transform="translate(186.855469 38.965625)scale(0.7)" xlink:href="#DejaVuSans-55"/>
      </g>
     </g>
    </g>
    <g id="xtick_3">
     <g id="line2d_3">
      <g>
       <use style="stroke:#000000;stroke-width:0.8;" x="171.239968" xlink:href="#m5d1a6f32e4" y="252"/>
      </g>
     </g>
     <g id="text_3">
      <!-- $\mathdefault{10^{-5}}$ -->
      <defs>
       <path d="M 10.796875 72.90625 
L 49.515625 72.90625 
L 49.515625 64.59375 
L 19.828125 64.59375 
L 19.828125 46.734375 
Q 21.96875 47.46875 24.109375 47.828125 
Q 26.265625 48.1875 28.421875 48.1875 
Q 40.625 48.1875 47.75 41.5 
Q 54.890625 34.8125 54.890625 23.390625 
Q 54.890625 11.625 47.5625 5.09375 
Q 40.234375 -1.421875 26.90625 -1.421875 
Q 22.3125 -1.421875 17.546875 -0.640625 
Q 12.796875 0.140625 7.71875 1.703125 
L 7.71875 11.625 
Q 12.109375 9.234375 16.796875 8.0625 
Q 21.484375 6.890625 26.703125 6.890625 
Q 35.15625 6.890625 40.078125 11.328125 
Q 45.015625 15.765625 45.015625 23.390625 
Q 45.015625 31 40.078125 35.4375 
Q 35.15625 39.890625 26.703125 39.890625 
Q 22.75 39.890625 18.8125 39.015625 
Q 14.890625 38.140625 10.796875 36.28125 
z
" id="DejaVuSans-53"/>
      </defs>
      <g transform="translate(157.139968 268.118125)scale(0.12 -0.12)">
       <use transform="translate(0 0.684375)" xlink:href="#DejaVuSans-49"/>
       <use transform="translate(63.623047 0.684375)" xlink:href="#DejaVuSans-48"/>
       <use transform="translate(128.203125 38.965625)scale(0.7)" xlink:href="#DejaVuSans-8722"/>
       <use transform="translate(186.855469 38.965625)scale(0.7)" xlink:href="#DejaVuSans-53"/>
      </g>
     </g>
    </g>
    <g id="xtick_4">
     <g id="line2d_4">
      <g>
       <use style="stroke:#000000;stroke-width:0.8;" x="210.868557" xlink:href="#m5d1a6f32e4" y="252"/>
      </g>
     </g>
     <g id="text_4">
      <!-- $\mathdefault{10^{-3}}$ -->
      <defs>
       <path d="M 40.578125 39.3125 
Q 47.65625 37.796875 51.625 33 
Q 55.609375 28.21875 55.609375 21.1875 
Q 55.609375 10.40625 48.1875 4.484375 
Q 40.765625 -1.421875 27.09375 -1.421875 
Q 22.515625 -1.421875 17.65625 -0.515625 
Q 12.796875 0.390625 7.625 2.203125 
L 7.625 11.71875 
Q 11.71875 9.328125 16.59375 8.109375 
Q 21.484375 6.890625 26.8125 6.890625 
Q 36.078125 6.890625 40.9375 10.546875 
Q 45.796875 14.203125 45.796875 21.1875 
Q 45.796875 27.640625 41.28125 31.265625 
Q 36.765625 34.90625 28.71875 34.90625 
L 20.21875 34.90625 
L 20.21875 43.015625 
L 29.109375 43.015625 
Q 36.375 43.015625 40.234375 45.921875 
Q 44.09375 48.828125 44.09375 54.296875 
Q 44.09375 59.90625 40.109375 62.90625 
Q 36.140625 65.921875 28.71875 65.921875 
Q 24.65625 65.921875 20.015625 65.03125 
Q 15.375 64.15625 9.8125 62.3125 
L 9.8125 71.09375 
Q 15.4375 72.65625 20.34375 73.4375 
Q 25.25 74.21875 29.59375 74.21875 
Q 40.828125 74.21875 47.359375 69.109375 
Q 53.90625 64.015625 53.90625 55.328125 
Q 53.90625 49.265625 50.4375 45.09375 
Q 46.96875 40.921875 40.578125 39.3125 
z
" id="DejaVuSans-51"/>
      </defs>
      <g transform="translate(196.768557 268.118125)scale(0.12 -0.12)">
       <use transform="translate(0 0.765625)" xlink:href="#DejaVuSans-49"/>
       <use transform="translate(63.623047 0.765625)" xlink:href="#DejaVuSans-48"/>
       <use transform="translate(128.203125 39.046875)scale(0.7)" xlink:href="#DejaVuSans-8722"/>
       <use transform="translate(186.855469 39.046875)scale(0.7)" xlink:href="#DejaVuSans-51"/>
      </g>
     </g>
    </g>
    <g id="xtick_5">
     <g id="line2d_5">
      <g>
       <use style="stroke:#000000;stroke-width:0.8;" x="250.497146" xlink:href="#m5d1a6f32e4" y="252"/>
      </g>
     </g>
     <g id="text_5">
      <!-- $\mathdefault{10^{-1}}$ -->
      <g transform="translate(236.397146 268.118125)scale(0.12 -0.12)">
       <use transform="translate(0 0.684375)" xlink:href="#DejaVuSans-49"/>
       <use transform="translate(63.623047 0.684375)" xlink:href="#DejaVuSans-48"/>
       <use transform="translate(128.203125 38.965625)scale(0.7)" xlink:href="#DejaVuSans-8722"/>
       <use transform="translate(186.855469 38.965625)scale(0.7)" xlink:href="#DejaVuSans-49"/>
      </g>
     </g>
    </g>
    <g id="xtick_6">
     <g id="line2d_6">
      <g>
       <use style="stroke:#000000;stroke-width:0.8;" x="290.125735" xlink:href="#m5d1a6f32e4" y="252"/>
      </g>
     </g>
     <g id="text_6">
      <!-- $\mathdefault{10^{1}}$ -->
      <g transform="translate(279.565735 268.118125)scale(0.12 -0.12)">
       <use transform="translate(0 0.684375)" xlink:href="#DejaVuSans-49"/>
       <use transform="translate(63.623047 0.684375)" xlink:href="#DejaVuSans-48"/>
       <use transform="translate(128.203125 38.965625)scale(0.7)" xlink:href="#DejaVuSans-49"/>
      </g>
     </g>
    </g>
    <g id="xtick_7">
     <g id="line2d_7">
      <g>
       <use style="stroke:#000000;stroke-width:0.8;" x="329.754324" xlink:href="#m5d1a6f32e4" y="252"/>
      </g>
     </g>
     <g id="text_7">
      <!-- $\mathdefault{10^{3}}$ -->
      <g transform="translate(319.194324 268.118125)scale(0.12 -0.12)">
       <use transform="translate(0 0.765625)" xlink:href="#DejaVuSans-49"/>
       <use transform="translate(63.623047 0.765625)" xlink:href="#DejaVuSans-48"/>
       <use transform="translate(128.203125 39.046875)scale(0.7)" xlink:href="#DejaVuSans-51"/>
      </g>
     </g>
    </g>
    <g id="xtick_8">
     <g id="line2d_8">
      <g>
       <use style="stroke:#000000;stroke-width:0.8;" x="369.382913" xlink:href="#m5d1a6f32e4" y="252"/>
      </g>
     </g>
     <g id="text_8">
      <!-- $\mathdefault{10^{5}}$ -->
      <g transform="translate(358.822913 268.118125)scale(0.12 -0.12)">
       <use transform="translate(0 0.684375)" xlink:href="#DejaVuSans-49"/>
       <use transform="translate(63.623047 0.684375)" xlink:href="#DejaVuSans-48"/>
       <use transform="translate(128.203125 38.965625)scale(0.7)" xlink:href="#DejaVuSans-53"/>
      </g>
     </g>
    </g>
    <g id="text_9">
     <!-- $\lambda$ -->
     <defs>
      <path d="M 36.71875 67.4375 
L 48.828125 0 
L 39.3125 0 
L 31.84375 40.4375 
L 5.125 0 
L -4.390625 0 
L 29.734375 52.4375 
L 28.03125 62.109375 
Q 26.953125 68.265625 21.734375 68.265625 
L 17.046875 68.265625 
L 18.5 75.984375 
L 24.21875 75.875 
Q 35.203125 75.734375 36.71875 67.4375 
z
" id="DejaVuSans-Oblique-955"/>
     </defs>
     <g transform="translate(217.8 283.731875)scale(0.12 -0.12)">
      <use transform="translate(0 0.015625)" xlink:href="#DejaVuSans-Oblique-955"/>
     </g>
    </g>
   </g>
   <g id="matplotlib.axis_2">
    <g id="ytick_1">
     <g id="line2d_9">
      <defs>
       <path d="M 0 0 
L -3.5 0 
" id="m10c9af6da6" style="stroke:#000000;stroke-width:0.8;"/>
      </defs>
      <g>
       <use style="stroke:#000000;stroke-width:0.8;" x="54" xlink:href="#m10c9af6da6" y="234.847683"/>
      </g>
     </g>
     <g id="text_10">
      <!-- $\mathdefault{10^{-13}}$ -->
      <g transform="translate(13.52 239.406745)scale(0.12 -0.12)">
       <use transform="translate(0 0.765625)" xlink:href="#DejaVuSans-49"/>
       <use transform="translate(63.623047 0.765625)" xlink:href="#DejaVuSans-48"/>
       <use transform="translate(128.203125 39.046875)scale(0.7)" xlink:href="#DejaVuSans-8722"/>
       <use transform="translate(186.855469 39.046875)scale(0.7)" xlink:href="#DejaVuSans-49"/>
       <use transform="translate(231.391602 39.046875)scale(0.7)" xlink:href="#DejaVuSans-51"/>
      </g>
     </g>
    </g>
    <g id="ytick_2">
     <g id="line2d_10">
      <g>
       <use style="stroke:#000000;stroke-width:0.8;" x="54" xlink:href="#m10c9af6da6" y="201.597598"/>
      </g>
     </g>
     <g id="text_11">
      <!-- $\mathdefault{10^{-11}}$ -->
      <g transform="translate(13.52 206.15666)scale(0.12 -0.12)">
       <use transform="translate(0 0.684375)" xlink:href="#DejaVuSans-49"/>
       <use transform="translate(63.623047 0.684375)" xlink:href="#DejaVuSans-48"/>
       <use transform="translate(128.203125 38.965625)scale(0.7)" xlink:href="#DejaVuSans-8722"/>
       <use transform="translate(186.855469 38.965625)scale(0.7)" xlink:href="#DejaVuSans-49"/>
       <use transform="translate(231.391602 38.965625)scale(0.7)" xlink:href="#DejaVuSans-49"/>
      </g>
     </g>
    </g>
    <g id="ytick_3">
     <g id="line2d_11">
      <g>
       <use style="stroke:#000000;stroke-width:0.8;" x="54" xlink:href="#m10c9af6da6" y="168.347513"/>
      </g>
     </g>
     <g id="text_12">
      <!-- $\mathdefault{10^{-9}}$ -->
      <g transform="translate(18.8 172.906575)scale(0.12 -0.12)">
       <use transform="translate(0 0.765625)" xlink:href="#DejaVuSans-49"/>
       <use transform="translate(63.623047 0.765625)" xlink:href="#DejaVuSans-48"/>
       <use transform="translate(128.203125 39.046875)scale(0.7)" xlink:href="#DejaVuSans-8722"/>
       <use transform="translate(186.855469 39.046875)scale(0.7)" xlink:href="#DejaVuSans-57"/>
      </g>
     </g>
    </g>
    <g id="ytick_4">
     <g id="line2d_12">
      <g>
       <use style="stroke:#000000;stroke-width:0.8;" x="54" xlink:href="#m10c9af6da6" y="135.097428"/>
      </g>
     </g>
     <g id="text_13">
      <!-- $\mathdefault{10^{-7}}$ -->
      <g transform="translate(18.8 139.656491)scale(0.12 -0.12)">
       <use transform="translate(0 0.684375)" xlink:href="#DejaVuSans-49"/>
       <use transform="translate(63.623047 0.684375)" xlink:href="#DejaVuSans-48"/>
       <use transform="translate(128.203125 38.965625)scale(0.7)" xlink:href="#DejaVuSans-8722"/>
       <use transform="translate(186.855469 38.965625)scale(0.7)" xlink:href="#DejaVuSans-55"/>
      </g>
     </g>
    </g>
    <g id="ytick_5">
     <g id="line2d_13">
      <g>
       <use style="stroke:#000000;stroke-width:0.8;" x="54" xlink:href="#m10c9af6da6" y="101.847343"/>
      </g>
     </g>
     <g id="text_14">
      <!-- $\mathdefault{10^{-5}}$ -->
      <g transform="translate(18.8 106.406406)scale(0.12 -0.12)">
       <use transform="translate(0 0.684375)" xlink:href="#DejaVuSans-49"/>
       <use transform="translate(63.623047 0.684375)" xlink:href="#DejaVuSans-48"/>
       <use transform="translate(128.203125 38.965625)scale(0.7)" xlink:href="#DejaVuSans-8722"/>
       <use transform="translate(186.855469 38.965625)scale(0.7)" xlink:href="#DejaVuSans-53"/>
      </g>
     </g>
    </g>
    <g id="ytick_6">
     <g id="line2d_14">
      <g>
       <use style="stroke:#000000;stroke-width:0.8;" x="54" xlink:href="#m10c9af6da6" y="68.597258"/>
      </g>
     </g>
     <g id="text_15">
      <!-- $\mathdefault{10^{-3}}$ -->
      <g transform="translate(18.8 73.156321)scale(0.12 -0.12)">
       <use transform="translate(0 0.765625)" xlink:href="#DejaVuSans-49"/>
       <use transform="translate(63.623047 0.765625)" xlink:href="#DejaVuSans-48"/>
       <use transform="translate(128.203125 39.046875)scale(0.7)" xlink:href="#DejaVuSans-8722"/>
       <use transform="translate(186.855469 39.046875)scale(0.7)" xlink:href="#DejaVuSans-51"/>
      </g>
     </g>
    </g>
    <g id="ytick_7">
     <g id="line2d_15">
      <g>
       <use style="stroke:#000000;stroke-width:0.8;" x="54" xlink:href="#m10c9af6da6" y="35.347173"/>
      </g>
     </g>
     <g id="text_16">
      <!-- $\mathdefault{10^{-1}}$ -->
      <g transform="translate(18.8 39.906236)scale(0.12 -0.12)">
       <use transform="translate(0 0.684375)" xlink:href="#DejaVuSans-49"/>
       <use transform="translate(63.623047 0.684375)" xlink:href="#DejaVuSans-48"/>
       <use transform="translate(128.203125 38.965625)scale(0.7)" xlink:href="#DejaVuSans-8722"/>
       <use transform="translate(186.855469 38.965625)scale(0.7)" xlink:href="#DejaVuSans-49"/>
      </g>
     </g>
    </g>
    <g id="text_17">
     <!-- GCV($\lambda$) -->
     <defs>
      <path d="M 59.515625 10.40625 
L 59.515625 29.984375 
L 43.40625 29.984375 
L 43.40625 38.09375 
L 69.28125 38.09375 
L 69.28125 6.78125 
Q 63.578125 2.734375 56.6875 0.65625 
Q 49.8125 -1.421875 42 -1.421875 
Q 24.90625 -1.421875 15.25 8.5625 
Q 5.609375 18.5625 5.609375 36.375 
Q 5.609375 54.25 15.25 64.234375 
Q 24.90625 74.21875 42 74.21875 
Q 49.125 74.21875 55.546875 72.453125 
Q 61.96875 70.703125 67.390625 67.28125 
L 67.390625 56.78125 
Q 61.921875 61.421875 55.765625 63.765625 
Q 49.609375 66.109375 42.828125 66.109375 
Q 29.4375 66.109375 22.71875 58.640625 
Q 16.015625 51.171875 16.015625 36.375 
Q 16.015625 21.625 22.71875 14.15625 
Q 29.4375 6.6875 42.828125 6.6875 
Q 48.046875 6.6875 52.140625 7.59375 
Q 56.25 8.5 59.515625 10.40625 
z
" id="DejaVuSans-71"/>
      <path d="M 64.40625 67.28125 
L 64.40625 56.890625 
Q 59.421875 61.53125 53.78125 63.8125 
Q 48.140625 66.109375 41.796875 66.109375 
Q 29.296875 66.109375 22.65625 58.46875 
Q 16.015625 50.828125 16.015625 36.375 
Q 16.015625 21.96875 22.65625 14.328125 
Q 29.296875 6.6875 41.796875 6.6875 
Q 48.140625 6.6875 53.78125 8.984375 
Q 59.421875 11.28125 64.40625 15.921875 
L 64.40625 5.609375 
Q 59.234375 2.09375 53.4375 0.328125 
Q 47.65625 -1.421875 41.21875 -1.421875 
Q 24.65625 -1.421875 15.125 8.703125 
Q 5.609375 18.84375 5.609375 36.375 
Q 5.609375 53.953125 15.125 64.078125 
Q 24.65625 74.21875 41.21875 74.21875 
Q 47.75 74.21875 53.53125 72.484375 
Q 59.328125 70.75 64.40625 67.28125 
z
" id="DejaVuSans-67"/>
      <path d="M 28.609375 0 
L 0.78125 72.90625 
L 11.078125 72.90625 
L 34.1875 11.53125 
L 57.328125 72.90625 
L 67.578125 72.90625 
L 39.796875 0 
z
" id="DejaVuSans-86"/>
      <path d="M 31 75.875 
Q 24.46875 64.65625 21.28125 53.65625 
Q 18.109375 42.671875 18.109375 31.390625 
Q 18.109375 20.125 21.3125 9.0625 
Q 24.515625 -2 31 -13.1875 
L 23.1875 -13.1875 
Q 15.875 -1.703125 12.234375 9.375 
Q 8.59375 20.453125 8.59375 31.390625 
Q 8.59375 42.28125 12.203125 53.3125 
Q 15.828125 64.359375 23.1875 75.875 
z
" id="DejaVuSans-40"/>
      <path d="M 8.015625 75.875 
L 15.828125 75.875 
Q 23.140625 64.359375 26.78125 53.3125 
Q 30.421875 42.28125 30.421875 31.390625 
Q 30.421875 20.453125 26.78125 9.375 
Q 23.140625 -1.703125 15.828125 -13.1875 
L 8.015625 -13.1875 
Q 14.5 -2 17.703125 9.0625 
Q 20.90625 20.125 20.90625 31.390625 
Q 20.90625 42.671875 17.703125 53.65625 
Q 14.5 64.65625 8.015625 75.875 
z
" id="DejaVuSans-41"/>
     </defs>
     <g transform="translate(7.024375 164.46)rotate(-90)scale(0.12 -0.12)">
      <use transform="translate(0 0.015625)" xlink:href="#DejaVuSans-71"/>
      <use transform="translate(77.490234 0.015625)" xlink:href="#DejaVuSans-67"/>
      <use transform="translate(147.314453 0.015625)" xlink:href="#DejaVuSans-86"/>
      <use transform="translate(215.722656 0.015625)" xlink:href="#DejaVuSans-40"/>
      <use transform="translate(254.736328 0.015625)" xlink:href="#DejaVuSans-Oblique-955"/>
      <use transform="translate(313.916016 0.015625)" xlink:href="#DejaVuSans-41"/>
     </g>
    </g>
   </g>
   <g id="line2d_16">
    <path clip-path="url(#p3e31a12f86)" d="M 362.348554 63.29618 
L 358.121101 67.983285 
L 355.84971 70.22453 
L 352.269619 73.413174 
L 350.307758 74.967785 
L 350.111075 75.202536 
L 348.850625 76.121307 
L 348.626957 76.392639 
L 348.10293 76.702649 
L 347.864299 76.993054 
L 347.339396 77.289263 
L 347.084583 77.599256 
L 346.557541 77.882573 
L 346.285102 78.212643 
L 345.754706 78.483799 
L 345.462934 78.834377 
L 344.92799 79.093948 
L 344.614858 79.465356 
L 344.074154 79.713783 
L 343.737244 80.106184 
L 343.18953 80.343779 
L 342.825933 80.757098 
L 342.269917 80.984047 
L 341.876115 81.417867 
L 341.310397 81.634246 
L 340.882083 82.087685 
L 340.305112 82.293468 
L 339.836946 82.765012 
L 339.246971 82.960073 
L 338.732235 83.447368 
L 338.127223 83.631492 
L 337.557314 84.131091 
L 336.934829 84.303995 
L 336.2985 84.811054 
L 335.655509 84.972414 
L 334.93767 85.480366 
L 333.980551 85.770458 
L 333.79936 85.85801 
L 333.797996 85.792317 
L 331.788773 87.449494 
L 331.760861 87.413453 
L 329.975015 88.546685 
L 329.91917 88.533465 
L 328.099171 89.464415 
L 328.012937 89.466848 
L 326.123795 90.223573 
L 326.002552 90.234859 
L 324.645357 90.701402 
L 323.880657 91.671074 
L 323.872005 91.617488 
L 322.460529 94.007746 
L 321.427853 95.50005 
L 318.156544 100.488143 
L 314.585401 105.991881 
L 314.333623 106.316462 
L 308.807587 114.403997 
L 307.939433 115.351769 
L 300.153992 122.92482 
L 296.693315 124.514367 
L 292.382251 125.583494 
L 288.729171 125.911901 
L 288.04592 126.224666 
L 286.809579 127.740826 
L 283.695702 131.524702 
L 283.311215 131.810991 
L 279.890962 135.513276 
L 279.85351 135.622732 
L 279.435093 136.078587 
L 279.031649 136.445181 
L 276.641871 138.770092 
L 276.603309 138.730745 
L 276.442786 138.816282 
L 275.043033 140.121172 
L 273.253232 141.39143 
L 273.073082 141.561014 
L 271.32682 142.533278 
L 271.230233 142.654122 
L 268.616652 144.45003 
L 264.509163 146.295444 
L 263.062036 146.809091 
L 262.979528 146.89284 
L 257.848351 147.799672 
L 257.126194 147.826658 
L 256.722579 147.953828 
L 255.461072 148.572801 
L 255.312346 148.502538 
L 255.307332 148.576502 
L 255.303877 148.649073 
L 255.270001 148.59092 
L 255.140844 148.773243 
L 254.570792 148.837248 
L 254.493536 148.93737 
L 253.70161 149.123768 
L 252.992792 149.267591 
L 252.374907 149.516889 
L 252.160939 149.438034 
L 251.705005 149.572057 
L 251.231982 149.713962 
L 250.546679 149.918216 
L 249.863883 150.01282 
L 249.732248 150.115746 
L 249.110584 150.124841 
L 248.026363 150.460461 
L 247.892266 150.263429 
L 247.78229 150.352816 
L 247.245029 150.392978 
L 246.69115 150.563379 
L 246.588402 150.435056 
L 246.148404 150.651917 
L 246.147906 150.578878 
L 245.956367 150.612861 
L 245.759864 150.71392 
L 245.230407 150.71402 
L 244.948716 150.680703 
L 244.584612 150.805336 
L 244.405632 150.757907 
L 244.004161 150.881875 
L 243.036554 150.776329 
L 243.022006 150.852198 
L 242.877181 150.941162 
L 242.868726 150.868256 
L 242.79742 150.803067 
L 242.517337 150.982039 
L 242.494256 150.910838 
L 242.16196 151.092317 
L 240.975078 150.979279 
L 240.913541 151.058974 
L 240.011926 150.99048 
L 239.686131 151.090306 
L 239.682064 151.015999 
L 239.568842 150.950173 
L 239.336049 151.190577 
L 238.967477 151.140271 
L 238.694756 151.229496 
L 237.567593 151.141283 
L 237.566387 151.215963 
L 237.380606 151.297878 
L 237.235806 151.229514 
L 237.201397 151.305004 
L 236.897696 151.389433 
L 236.08106 151.20688 
L 235.797867 151.443043 
L 235.492935 151.382633 
L 235.146505 151.467346 
L 234.650324 151.26113 
L 234.057791 151.278265 
L 232.985107 151.237372 
L 232.807103 151.245155 
L 232.699823 151.178023 
L 231.452282 151.350895 
L 230.448063 151.152074 
L 230.360382 151.081823 
L 229.73288 151.171015 
L 229.3744 151.111493 
L 229.173534 151.191102 
L 229.009935 151.118121 
L 229.006115 151.194385 
L 228.92554 151.271159 
L 228.036221 151.281858 
L 227.781571 151.359505 
L 227.772454 151.284202 
L 227.745254 151.359886 
L 227.576286 151.286408 
L 227.008267 151.294 
L 226.696491 151.001428 
L 226.587008 151.23563 
L 226.317707 151.24502 
L 225.992532 151.249052 
L 225.368819 151.255814 
L 225.327814 151.180145 
L 225.289309 151.256745 
L 225.154433 151.18324 
L 224.697697 151.340025 
L 224.468549 151.341967 
L 224.380891 151.417912 
L 224.379944 151.342522 
L 224.186264 151.194515 
L 224.180086 151.270823 
L 223.72695 151.352962 
L 223.721735 151.277249 
L 223.584118 151.203502 
L 223.167919 151.282249 
L 222.161912 151.153184 
L 221.935479 151.08201 
L 220.194305 151.176138 
L 220.159226 151.099875 
L 219.608864 151.257751 
L 219.132934 151.262193 
L 218.847449 151.339433 
L 218.233223 151.271692 
L 218.231029 151.347923 
L 217.796584 151.504326 
L 217.58296 151.431428 
L 215.006725 151.592915 
L 214.870371 151.443094 
L 213.822117 151.300347 
L 213.010866 151.531011 
L 212.873802 151.456688 
L 210.557353 151.246511 
L 209.549745 151.403609 
L 209.309858 151.328093 
L 207.853144 151.331477 
L 207.810449 151.255116 
L 207.250243 151.182792 
L 206.550792 151.263381 
L 205.986868 151.111916 
L 205.431516 151.193379 
L 205.428273 151.116031 
L 205.208778 150.966939 
L 204.955052 151.053082 
L 204.44418 150.839664 
L 204.325095 150.767466 
L 204.056408 150.863042 
L 203.597809 150.734211 
L 203.322557 150.910922 
L 203.320653 150.831481 
L 203.247397 150.756262 
L 202.663709 150.948637 
L 202.171617 150.741765 
L 202.12666 150.825533 
L 202.047205 150.751198 
L 201.836253 150.923073 
L 201.804448 150.84503 
L 201.723608 150.929755 
L 201.688336 151.011154 
L 201.46122 151.101749 
L 201.183405 151.042615 
L 200.738489 151.071763 
L 200.588118 150.842839 
L 200.297048 150.944265 
L 200.129706 150.794915 
L 199.802285 150.821658 
L 199.749067 150.745468 
L 198.943672 151.115745 
L 198.435654 150.902371 
L 198.319987 151.069016 
L 198.114261 150.998079 
L 197.809158 151.090289 
L 197.773289 151.012468 
L 197.697772 151.09562 
L 197.094121 150.889432 
L 196.752489 150.749987 
L 196.716387 150.835056 
L 196.665054 150.757431 
L 196.569032 150.848274 
L 195.959019 150.975528 
L 195.944982 150.89471 
L 195.878745 150.980983 
L 195.64902 150.995616 
L 195.397187 151.087703 
L 195.007242 150.941661 
L 194.99805 151.023872 
L 194.758906 151.195468 
L 194.39049 151.048309 
L 194.264445 150.890257 
L 194.138495 150.562899 
L 194.033733 150.316641 
L 193.84455 150.586281 
L 193.826568 150.503886 
L 193.715516 150.347597 
L 193.699127 150.43546 
L 193.688832 150.521987 
L 193.585507 150.451054 
L 193.353051 150.230427 
L 193.183811 150.090432 
L 192.522168 150.692809 
L 192.361355 150.623082 
L 192.359659 150.70842 
L 192.247764 150.968186 
L 192.186132 150.89106 
L 192.100509 150.98365 
L 192.039756 150.906253 
L 191.763068 150.511568 
L 191.636898 150.439513 
L 191.414163 150.636051 
L 191.401617 150.722941 
L 191.304416 150.647148 
L 191.260737 150.735747 
L 191.179169 150.655676 
L 190.930589 150.596653 
L 190.86934 150.689299 
L 190.849898 150.60461 
L 190.823458 150.520041 
L 190.586846 150.625545 
L 189.760885 150.52363 
L 189.239389 150.129319 
L 189.040471 150.240365 
L 189.02076 150.152593 
L 188.824323 149.902619 
L 188.808938 149.812826 
L 188.674238 149.926333 
L 188.625931 149.842314 
L 188.593048 149.755052 
L 188.53634 149.856023 
L 188.512476 149.951631 
L 188.44566 149.775958 
L 188.39995 149.874804 
L 188.295228 149.799778 
L 188.286368 149.89413 
L 188.28522 149.986582 
L 188.095866 150.103337 
L 188.051334 150.017481 
L 188.010364 149.931433 
L 187.390665 150.288332 
L 187.313088 150.387672 
L 187.236449 150.306072 
L 186.73239 150.095992 
L 186.25333 149.799048 
L 186.208595 149.522386 
L 185.979628 149.678256 
L 185.954282 149.588324 
L 185.813669 149.332315 
L 185.80426 149.433398 
L 185.519536 149.218198 
L 184.99037 149.169615 
L 184.923039 148.984646 
L 184.794614 148.921861 
L 184.603595 149.284583 
L 184.40799 149.437636 
L 184.167312 149.295889 
L 184.089585 149.110743 
L 183.521643 149.458767 
L 183.47873 149.263574 
L 182.818847 149.124755 
L 182.659501 149.060089 
L 182.637844 149.172163 
L 181.616601 149.824529 
L 181.533625 149.739089 
L 181.442796 149.963002 
L 181.41242 149.866129 
L 180.915042 149.546231 
L 180.898948 149.65539 
L 180.299112 149.606925 
L 180.036679 149.47447 
L 179.851475 149.637182 
L 179.834449 149.534074 
L 179.527281 149.728465 
L 179.491347 149.630296 
L 179.349633 149.564544 
L 179.224101 149.707134 
L 179.129841 149.513479 
L 179.109657 149.408654 
L 178.938054 149.676406 
L 178.676071 149.637147 
L 178.47873 149.796304 
L 178.384777 149.709627 
L 178.209976 149.861221 
L 178.195658 149.756001 
L 178.090459 149.679314 
L 178.055586 149.800546 
L 177.977048 149.713825 
L 177.78203 149.559275 
L 177.38731 149.802176 
L 177.317194 149.712607 
L 177.220705 149.850926 
L 177.220298 149.738661 
L 177.110937 149.545341 
L 176.918817 149.267287 
L 176.835986 149.183776 
L 176.679672 149.364551 
L 176.397998 149.24463 
L 176.357485 149.379989 
L 176.29574 149.293203 
L 176.276529 149.183297 
L 175.770993 149.084626 
L 175.592151 149.051291 
L 175.35108 149.415137 
L 175.319867 149.30776 
L 175.241867 149.22234 
L 175.174762 149.378599 
L 175.150258 149.266496 
L 174.883438 149.143355 
L 174.647301 149.379824 
L 174.414624 149.359437 
L 174.347087 149.136093 
L 174.326421 149.274288 
L 174.2484 149.183028 
L 174.13238 149.363039 
L 174.092815 149.253448 
L 173.856441 149.117784 
L 173.277779 149.034198 
L 173.257498 148.909601 
L 172.959448 148.796138 
L 172.568101 149.26447 
L 172.534716 149.006153 
L 172.3326 148.837409 
L 172.190186 149.063048 
L 172.103515 148.97426 
L 171.655993 149.766003 
L 171.596418 149.664491 
L 171.540731 149.559434 
L 171.50048 149.721343 
L 171.410375 149.638725 
L 171.343912 149.54017 
L 171.251887 149.872119 
L 171.192566 149.768216 
L 171.158311 149.649426 
L 170.930289 149.917534 
L 170.878141 149.810906 
L 170.747089 149.752021 
L 170.694994 149.924204 
L 170.478859 149.625851 
L 170.042762 148.543083 
L 169.673419 148.476388 
L 169.642588 148.658033 
L 169.221921 148.619687 
L 168.827306 148.414628 
L 168.743426 148.810263 
L 168.733146 148.65063 
L 168.609951 148.398915 
L 168.58328 148.588548 
L 168.565604 148.4302 
L 168.425283 148.356844 
L 167.88853 149.062229 
L 167.731473 149.4956 
L 167.704763 149.176946 
L 167.618022 149.233334 
L 167.364605 149.245025 
L 167.348606 148.909229 
L 167.317951 149.107683 
L 167.167004 149.047757 
L 167.122449 148.543759 
L 166.852302 148.935707 
L 166.829353 148.771659 
L 166.484147 148.490645 
L 166.407127 148.176905 
L 166.114485 148.063637 
L 165.870184 147.687493 
L 165.839778 147.92481 
L 165.590471 147.965939 
L 165.477263 147.871703 
L 165.451633 148.108178 
L 165.026808 148.318772 
L 164.993172 147.920595 
L 164.679317 147.557893 
L 164.612452 146.921153 
L 164.451109 146.845596 
L 164.327494 146.474318 
L 164.253088 146.301087 
L 163.814808 147.031149 
L 163.529471 147.092579 
L 163.395122 146.979823 
L 162.884675 147.024561 
L 162.799266 146.847784 
L 162.550426 146.853234 
L 162.538459 146.581704 
L 162.502956 146.910285 
L 162.24601 146.94996 
L 162.216868 146.695663 
L 162.028104 147.22497 
L 161.91989 146.772758 
L 161.560816 146.930455 
L 161.312106 146.302303 
L 161.077792 147.249104 
L 160.564751 147.590617 
L 160.559209 147.273187 
L 159.947244 147.385198 
L 159.903775 148.112809 
L 159.610078 147.820729 
L 159.588888 147.500359 
L 159.562664 147.88204 
L 158.810778 148.145272 
L 158.690863 147.93226 
L 157.87899 147.821347 
L 157.744201 146.297982 
L 157.621738 146.005884 
L 157.610947 145.547234 
L 157.118856 145.237411 
L 156.751351 146.243682 
L 156.621294 145.915356 
L 156.526356 144.977961 
L 156.356704 144.65231 
L 156.354096 144.066686 
L 156.018342 143.947085 
L 155.909329 143.46543 
L 155.880659 144.14911 
L 155.856879 143.542056 
L 155.405071 143.529825 
L 155.162543 142.452567 
L 155.058133 143.350497 
L 154.382256 143.624571 
L 153.309356 143.631899 
L 152.953619 143.301868 
L 152.781221 144.438098 
L 152.631566 143.789274 
L 152.250875 143.435929 
L 151.733713 143.219036 
L 151.427462 142.607897 
L 150.224891 143.285447 
L 149.590423 143.013489 
L 147.808105 142.867718 
L 147.193503 140.197837 
L 146.059654 139.809772 
L 145.19873 138.60998 
L 144.80658 136.040518 
L 144.344784 140.02576 
L 143.389459 134.232087 
L 137.977117 137.293671 
L 137.912615 143.252991 
L 135.971418 140.628144 
L 130.949732 154.648259 
L 130.443499 149.604411 
L 129.15962 141.695029 
M 69.218182 242.116364 
" style="fill:none;stroke:#1f77b4;stroke-dasharray:7.5,2.5;stroke-dashoffset:0;stroke-width:2.5;"/>
   </g>
   <g id="line2d_17">
    <defs>
     <path d="M -6 6 
L 6 -6 
M -6 -6 
L 6 6 
" id="m0ba9d25f21" style="stroke:#000000;"/>
    </defs>
    <g clip-path="url(#p3e31a12f86)">
     <use style="stroke:#000000;" x="218.544063" xlink:href="#m0ba9d25f21" y="151.267317"/>
    </g>
   </g>
   <g id="line2d_18">
    <defs>
     <path d="M -3 3 
L 3 3 
L 3 -3 
L -3 -3 
z
" id="m6296db8343" style="stroke:#0000ff;stroke-linejoin:miter;"/>
    </defs>
    <g clip-path="url(#p3e31a12f86)">
     <use style="fill:#0000ff;stroke:#0000ff;stroke-linejoin:miter;" x="69.218182" xlink:href="#m6296db8343" y="242.116364"/>
    </g>
   </g>
   <g id="line2d_19">
    <defs>
     <path d="M 0 3 
C 0.795609 3 1.55874 2.683901 2.12132 2.12132 
C 2.683901 1.55874 3 0.795609 3 0 
C 3 -0.795609 2.683901 -1.55874 2.12132 -2.12132 
C 1.55874 -2.683901 0.795609 -3 0 -3 
C -0.795609 -3 -1.55874 -2.683901 -2.12132 -2.12132 
C -2.683901 -1.55874 -3 -0.795609 -3 0 
C -3 0.795609 -2.683901 1.55874 -2.12132 2.12132 
C -1.55874 2.683901 -0.795609 3 0 3 
z
" id="me15611ed8c" style="stroke:#ff0000;"/>
    </defs>
    <g clip-path="url(#p3e31a12f86)">
     <use style="fill:#ff0000;stroke:#ff0000;" x="273.362748" xlink:href="#me15611ed8c" y="98.640154"/>
    </g>
   </g>
   <g id="line2d_20">
    <path clip-path="url(#p3e31a12f86)" d="M 373.581818 44.443636 
L 373.22456 44.806053 
L 373.21465 44.752761 
L 371.569097 46.620397 
L 369.99928 48.205083 
L 368.474585 49.54939 
L 366.969713 50.686358 
L 365.462181 51.642798 
L 363.92994 52.44158 
L 362.34949 53.102623 
L 360.69347 53.643534 
L 358.927291 54.079947 
L 357.003503 54.425729 
L 354.851412 54.693112 
L 352.662606 54.872899 
L 352.658854 54.810642 
L 352.608496 54.94579 
L 352.555312 55.0597 
L 352.537973 55.008321 
L 350.31695 56.983765 
L 347.904844 58.76079 
L 345.273436 60.273933 
L 341.953545 61.644575 
L 341.634097 61.59869 
L 341.495632 61.856705 
L 341.485734 61.80375 
L 332.02183 75.286534 
L 330.083169 77.690828 
L 329.989328 77.851563 
L 326.259274 82.171535 
L 322.684393 85.14994 
L 321.392397 85.899072 
L 316.51628 88.021973 
L 315.111106 89.761441 
L 314.212185 90.669473 
L 311.496107 93.6956 
L 309.283816 95.744666 
L 308.48296 96.675497 
L 306.91551 97.922954 
L 306.461719 98.490043 
L 304.409509 100.06957 
L 303.740578 100.885486 
L 303.164988 101.356243 
L 301.875413 102.058006 
L 301.861419 102.008147 
L 301.217865 102.919929 
L 299.522158 104.628932 
L 299.51108 104.571369 
L 299.50009 104.65005 
L 298.050409 105.821308 
L 296.386572 107.692278 
L 295.077367 108.581188 
L 294.702848 108.695176 
L 292.951834 110.343528 
L 292.904489 110.322697 
L 292.339617 110.841115 
L 291.735704 111.374565 
L 291.729928 111.45055 
L 289.938755 113.605908 
L 287.149453 116.631404 
L 286.394046 117.609657 
L 283.95798 120.500339 
L 282.029762 122.084927 
L 279.683113 124.252696 
L 279.653709 124.204699 
L 279.610865 124.299402 
L 274.539185 127.464711 
L 274.026375 127.569195 
L 272.661387 128.384335 
L 272.217321 128.860908 
L 272.005549 129.074065 
L 271.575562 129.405685 
L 268.547372 131.775967 
L 267.866791 132.544195 
L 267.368816 132.635956 
L 267.129901 132.864475 
L 267.037748 132.858472 
L 266.165287 133.482867 
L 264.301393 135.311093 
L 264.160539 135.132034 
L 263.368852 135.767037 
L 263.033068 135.983771 
L 260.191705 137.54215 
L 260.066942 137.673122 
L 256.232227 140.758266 
L 255.998125 140.919378 
L 255.716132 141.166609 
L 255.700361 141.102095 
L 255.454711 141.221763 
L 255.442759 141.156174 
L 254.464687 141.927587 
L 254.323967 141.881724 
L 253.912548 142.311129 
L 252.906851 142.786451 
L 252.874941 142.659109 
L 252.810993 142.786171 
L 252.229309 143.361166 
L 252.190769 143.312638 
L 252.086221 143.311879 
L 251.775607 143.671884 
L 251.726451 143.62124 
L 251.614983 143.6077 
L 251.294521 143.836814 
L 251.276329 143.770693 
L 251.263679 143.701143 
L 251.239284 143.789974 
L 251.145815 143.910291 
L 250.455322 144.200302 
L 250.434737 144.059946 
L 250.349432 144.193534 
L 250.181073 144.3048 
L 250.112841 144.273554 
L 250.109287 144.353313 
L 249.822678 144.688795 
L 249.53242 144.866596 
L 249.473385 144.826306 
L 248.985734 145.185049 
L 248.716655 145.255534 
L 248.476365 145.505554 
L 248.373249 145.468385 
L 248.364758 145.547457 
L 247.815115 145.729699 
L 247.806834 145.657664 
L 247.683665 145.799883 
L 247.4944 145.828942 
L 247.296833 146.011386 
L 247.258492 145.955414 
L 247.245303 145.885539 
L 246.960799 145.883041 
L 246.533809 146.116959 
L 245.672634 146.749713 
L 245.657574 146.831064 
L 245.191656 146.898646 
L 245.13634 146.988061 
L 245.115766 146.916452 
L 244.900078 146.894012 
L 244.865408 146.979641 
L 244.829291 146.917581 
L 244.700807 146.820049 
L 244.636752 146.925883 
L 244.466045 147.00144 
L 244.179631 147.122329 
L 243.864565 146.947191 
L 243.382842 147.379247 
L 242.635138 147.58515 
L 242.085882 148.106331 
L 242.060164 148.034894 
L 241.418923 148.01179 
L 241.236623 148.123284 
L 240.619864 148.113788 
L 240.533352 148.216177 
L 240.244316 148.295818 
L 240.20078 148.383946 
L 240.120004 148.328025 
L 239.46313 148.188594 
L 239.295288 148.389752 
L 239.206806 148.335112 
L 238.853827 148.504 
L 238.46862 148.520474 
L 237.798793 148.722364 
L 237.426691 148.538741 
L 237.238111 148.489915 
L 237.058119 148.676808 
L 236.865476 148.625478 
L 236.170077 149.024042 
L 236.042313 148.960113 
L 235.432938 149.067244 
L 235.427882 149.146285 
L 233.046373 149.372169 
L 232.793553 149.47562 
L 232.355946 149.361769 
L 232.023863 149.53716 
L 232.023386 149.458919 
L 231.661071 149.478785 
L 231.642758 149.557986 
L 231.568014 149.40601 
L 231.545764 149.328586 
L 230.830466 149.307507 
L 230.68131 149.401715 
L 230.093555 149.45303 
L 230.011738 149.300951 
L 229.966917 149.385084 
L 229.014478 149.53652 
L 227.917788 149.297893 
L 227.768355 149.470635 
L 227.712143 149.394919 
L 227.66863 149.317655 
L 227.63787 149.401092 
L 227.494576 149.572464 
L 226.742903 149.700111 
L 226.661584 149.625439 
L 226.422683 149.559361 
L 226.301595 149.645307 
L 225.917439 149.583542 
L 225.616172 149.676744 
L 225.473298 149.6029 
L 224.708883 149.573225 
L 224.614417 149.895283 
L 224.606488 149.816469 
L 224.551061 149.659649 
L 224.137266 149.759546 
L 223.327579 149.795393 
L 223.166906 149.879199 
L 223.1507 149.800062 
L 221.788856 149.60746 
L 221.417145 149.779798 
L 221.254903 149.628702 
L 221.218351 149.468156 
L 220.680892 149.510922 
L 220.627278 149.677022 
L 220.518042 149.60335 
L 219.119275 149.825018 
L 219.085637 149.745324 
L 218.42007 149.76621 
L 216.750441 149.968704 
L 216.745042 149.888387 
L 215.986658 149.756261 
L 215.527562 150.009748 
L 214.338933 149.867794 
L 213.960288 149.810182 
L 211.771826 150.15615 
L 211.593847 150.076936 
L 211.422444 150.157666 
L 211.026694 150.07954 
L 210.76288 150.160657 
L 210.480286 150.083289 
L 209.470511 149.930867 
L 209.319366 149.852566 
L 208.588467 149.941907 
L 206.310713 149.669515 
L 206.240492 149.756607 
L 206.112957 149.681642 
L 205.821258 149.768654 
L 205.807741 149.686297 
L 205.760076 149.43704 
L 205.676883 149.60928 
L 205.592818 149.696034 
L 204.813973 149.878009 
L 204.734705 149.797354 
L 204.299219 149.723589 
L 202.546352 149.915049 
L 201.945773 149.839257 
L 201.376038 149.843347 
L 200.736331 149.782724 
L 200.232227 149.634329 
L 199.771715 149.483368 
L 199.120224 149.58844 
L 198.236854 149.315539 
L 197.534373 149.645429 
L 197.161857 149.603937 
L 196.906963 149.62499 
L 196.896117 149.540627 
L 196.407932 149.426063 
L 196.331064 149.519589 
L 195.760779 149.50551 
L 195.503378 149.626939 
L 194.460491 149.424289 
L 194.442762 149.338675 
L 194.208777 149.465703 
L 193.474547 149.648629 
L 193.059695 149.540658 
L 192.51596 149.882242 
L 191.188821 149.767198 
L 190.920806 149.880411 
L 190.231989 149.671367 
L 189.731355 149.711898 
L 189.711281 149.532542 
L 189.685654 149.626486 
L 189.326476 149.580692 
L 188.977529 149.796348 
L 187.367888 149.252908 
L 187.365293 149.347958 
L 187.277275 149.54674 
L 187.183466 149.374091 
L 186.762341 149.356878 
L 186.671551 149.559491 
L 186.65759 149.372984 
L 186.628425 149.282517 
L 186.417825 149.411811 
L 186.41681 149.316695 
L 186.387631 149.2266 
L 186.205346 149.452926 
L 186.170167 149.552663 
L 186.002424 149.669774 
L 185.981045 149.578618 
L 185.974593 149.484838 
L 185.793528 149.414867 
L 185.749151 149.515923 
L 185.708907 149.425863 
L 185.407238 149.55588 
L 185.165957 149.392146 
L 185.10898 149.205875 
L 185.088472 149.305962 
L 184.721174 149.541965 
L 184.718899 149.446276 
L 184.454602 149.290195 
L 184.017436 149.26007 
L 183.850924 149.382813 
L 183.545017 149.24863 
L 183.181019 149.417385 
L 183.020299 149.345413 
L 183.003703 149.446588 
L 182.707516 149.586871 
L 182.283181 149.456316 
L 181.996487 149.301771 
L 181.879072 149.219191 
L 181.549167 149.166777 
L 181.448807 149.280574 
L 181.034571 149.131711 
L 180.701197 149.274906 
L 180.494486 149.10071 
L 179.943559 149.277882 
L 179.929442 149.177178 
L 179.569869 148.93193 
L 179.497238 148.630092 
L 179.495414 148.737861 
L 179.34808 148.980665 
L 179.247986 148.8953 
L 179.15226 149.019619 
L 178.754638 148.880676 
L 178.698646 148.783981 
L 178.403484 148.942725 
L 178.26259 148.753485 
L 178.189935 148.982216 
L 177.914454 148.924126 
L 177.75179 149.270782 
L 176.70143 148.171449 
L 176.361923 148.375844 
L 176.285617 148.053871 
L 175.733422 148.604818 
L 174.969865 148.633092 
L 174.943992 148.526442 
L 174.51419 148.80272 
L 174.509883 148.687425 
L 174.11648 148.512349 
L 173.994552 148.329608 
L 173.99204 148.207982 
L 173.865758 148.147996 
L 173.587196 148.405975 
L 173.370947 148.384307 
L 173.239417 148.568005 
L 173.089808 148.510771 
L 173.044878 148.654121 
L 173.001518 148.549005 
L 172.984606 148.43164 
L 172.931738 148.57947 
L 172.918199 148.460424 
L 172.861158 148.359923 
L 172.860848 148.486178 
L 172.820726 148.628446 
L 172.618386 148.337456 
L 172.531233 148.121812 
L 172.404241 148.440323 
L 172.335971 148.344597 
L 172.15483 148.299899 
L 172.141741 148.044031 
L 172.018928 147.976965 
L 171.984375 148.127389 
L 171.841496 148.064949 
L 171.834947 148.20121 
L 171.751006 147.97562 
L 171.634764 147.627739 
L 171.219459 148.128777 
L 171.096832 148.061736 
L 170.804069 148.099364 
L 170.704363 148.294449 
L 170.669416 148.176428 
L 170.588162 147.804415 
L 170.413437 147.779792 
L 170.319472 147.556462 
L 169.632053 146.680185 
L 169.601314 146.540577 
L 169.574273 146.724019 
L 169.380206 146.545074 
L 169.346216 146.735497 
L 169.31781 146.424774 
L 168.992243 146.171227 
L 168.954678 145.853687 
L 168.922016 145.883848 
L 168.553348 145.13714 
L 168.417218 145.466215 
L 168.074701 145.619343 
L 167.973488 145.526163 
L 167.636956 145.671032 
L 167.401862 145.504759 
L 167.332871 144.951585 
L 167.044377 145.03714 
L 166.97572 145.107142 
L 166.953723 144.692726 
L 166.791831 144.641366 
L 166.762285 144.446173 
L 166.50926 145.163412 
L 166.312141 145.143736 
L 166.217442 144.790657 
L 165.475425 146.26754 
L 165.35973 145.934899 
L 165.170268 145.432964 
L 164.921374 146.176537 
L 164.864623 146.002344 
L 164.552151 146.094382 
L 164.348691 146.542213 
L 164.152019 146.264646 
L 164.130468 146.040836 
L 164.070366 146.351337 
L 163.973963 146.207813 
L 163.733963 146.212552 
L 163.679988 145.49041 
L 163.443294 145.485671 
L 163.429654 145.22651 
L 163.426057 145.505719 
L 163.215455 145.476172 
L 163.186703 145.784341 
L 163.162679 145.538011 
L 162.968282 145.213837 
L 162.837646 144.791667 
L 162.670456 145.30598 
L 162.533056 144.882353 
L 162.161345 144.736361 
L 162.11715 144.471167 
L 161.76165 144.615011 
L 161.721075 145.000713 
L 161.631561 144.787546 
L 161.57234 145.196976 
L 161.421879 145.063972 
L 161.409596 144.740689 
L 161.214309 144.654313 
L 161.197597 145.024438 
L 160.934227 145.70746 
L 160.499122 145.941918 
L 160.369921 145.413628 
L 160.268665 145.186293 
L 160.262252 145.560605 
L 160.234296 145.233032 
L 160.140368 144.986002 
L 159.953304 145.613562 
L 159.471676 145.113065 
L 158.464461 146.840738 
L 158.448449 146.465795 
L 157.954355 146.692937 
L 157.897348 146.35003 
L 157.572726 146.367192 
L 157.395394 146.166478 
L 157.386905 146.622344 
L 157.082304 145.669484 
L 156.675284 145.754271 
L 156.622642 145.324026 
L 156.215793 145.388689 
L 156.014972 145.132872 
L 155.822444 145.952978 
L 155.814862 145.418793 
L 155.438106 145.388045 
L 155.254299 146.212984 
L 155.20383 145.719787 
L 154.851973 145.638641 
L 154.62979 145.350376 
L 153.954041 145.029366 
L 153.362479 144.471522 
L 153.181474 145.479595 
L 152.636186 145.554836 
L 152.4482 145.063082 
L 152.192191 142.827889 
L 151.315693 143.188238 
L 150.748357 142.989436 
L 150.452717 142.297422 
L 149.584971 142.437531 
L 149.346012 144.073918 
L 148.056325 144.852115 
L 147.16454 144.880228 
L 146.550682 144.316778 
L 146.521365 142.662915 
L 146.101671 145.029952 
L 145.90465 143.643671 
L 145.082935 143.022541 
L 144.458547 141.812893 
L 142.729203 141.973797 
L 140.141297 142.994871 
L 139.72209 139.522971 
L 139.709568 133.688339 
L 133.300255 134.422765 
L 133.300255 134.422765 
" style="fill:none;stroke:#ff7f0e;stroke-dasharray:2500,2.5;stroke-dashoffset:0;stroke-width:2.5;"/>
   </g>
   <g id="line2d_21">
    <g clip-path="url(#p3e31a12f86)">
     <use style="stroke:#000000;" x="218.434716" xlink:href="#m0ba9d25f21" y="149.846545"/>
    </g>
   </g>
   <g id="line2d_22">
    <g clip-path="url(#p3e31a12f86)">
     <use style="fill:#0000ff;stroke:#0000ff;stroke-linejoin:miter;" x="210.76288" xlink:href="#m6296db8343" y="150.160657"/>
    </g>
   </g>
   <g id="line2d_23">
    <g clip-path="url(#p3e31a12f86)">
     <use style="fill:#ff0000;stroke:#ff0000;" x="254.804372" xlink:href="#me15611ed8c" y="84.711922"/>
    </g>
   </g>
   <g id="patch_3">
    <path d="M 54 252 
L 54 34.56 
" style="fill:none;stroke:#000000;stroke-linecap:square;stroke-linejoin:miter;stroke-width:0.8;"/>
   </g>
   <g id="patch_4">
    <path d="M 388.8 252 
L 388.8 34.56 
" style="fill:none;stroke:#000000;stroke-linecap:square;stroke-linejoin:miter;stroke-width:0.8;"/>
   </g>
   <g id="patch_5">
    <path d="M 54 252 
L 388.8 252 
" style="fill:none;stroke:#000000;stroke-linecap:square;stroke-linejoin:miter;stroke-width:0.8;"/>
   </g>
   <g id="patch_6">
    <path d="M 54 34.56 
L 388.8 34.56 
" style="fill:none;stroke:#000000;stroke-linecap:square;stroke-linejoin:miter;stroke-width:0.8;"/>
   </g>
   <g id="text_18">
    <!-- GCV function for $\ell_1$ trend filter ($\sigma = 0.0001$) -->
    <defs>
     <path id="DejaVuSans-32"/>
     <path d="M 37.109375 75.984375 
L 37.109375 68.5 
L 28.515625 68.5 
Q 23.6875 68.5 21.796875 66.546875 
Q 19.921875 64.59375 19.921875 59.515625 
L 19.921875 54.6875 
L 34.71875 54.6875 
L 34.71875 47.703125 
L 19.921875 47.703125 
L 19.921875 0 
L 10.890625 0 
L 10.890625 47.703125 
L 2.296875 47.703125 
L 2.296875 54.6875 
L 10.890625 54.6875 
L 10.890625 58.5 
Q 10.890625 67.625 15.140625 71.796875 
Q 19.390625 75.984375 28.609375 75.984375 
z
" id="DejaVuSans-102"/>
     <path d="M 8.5 21.578125 
L 8.5 54.6875 
L 17.484375 54.6875 
L 17.484375 21.921875 
Q 17.484375 14.15625 20.5 10.265625 
Q 23.53125 6.390625 29.59375 6.390625 
Q 36.859375 6.390625 41.078125 11.03125 
Q 45.3125 15.671875 45.3125 23.6875 
L 45.3125 54.6875 
L 54.296875 54.6875 
L 54.296875 0 
L 45.3125 0 
L 45.3125 8.40625 
Q 42.046875 3.421875 37.71875 1 
Q 33.40625 -1.421875 27.6875 -1.421875 
Q 18.265625 -1.421875 13.375 4.4375 
Q 8.5 10.296875 8.5 21.578125 
z
M 31.109375 56 
z
" id="DejaVuSans-117"/>
     <path d="M 54.890625 33.015625 
L 54.890625 0 
L 45.90625 0 
L 45.90625 32.71875 
Q 45.90625 40.484375 42.875 44.328125 
Q 39.84375 48.1875 33.796875 48.1875 
Q 26.515625 48.1875 22.3125 43.546875 
Q 18.109375 38.921875 18.109375 30.90625 
L 18.109375 0 
L 9.078125 0 
L 9.078125 54.6875 
L 18.109375 54.6875 
L 18.109375 46.1875 
Q 21.34375 51.125 25.703125 53.5625 
Q 30.078125 56 35.796875 56 
Q 45.21875 56 50.046875 50.171875 
Q 54.890625 44.34375 54.890625 33.015625 
z
" id="DejaVuSans-110"/>
     <path d="M 48.78125 52.59375 
L 48.78125 44.1875 
Q 44.96875 46.296875 41.140625 47.34375 
Q 37.3125 48.390625 33.40625 48.390625 
Q 24.65625 48.390625 19.8125 42.84375 
Q 14.984375 37.3125 14.984375 27.296875 
Q 14.984375 17.28125 19.8125 11.734375 
Q 24.65625 6.203125 33.40625 6.203125 
Q 37.3125 6.203125 41.140625 7.25 
Q 44.96875 8.296875 48.78125 10.40625 
L 48.78125 2.09375 
Q 45.015625 0.34375 40.984375 -0.53125 
Q 36.96875 -1.421875 32.421875 -1.421875 
Q 20.0625 -1.421875 12.78125 6.34375 
Q 5.515625 14.109375 5.515625 27.296875 
Q 5.515625 40.671875 12.859375 48.328125 
Q 20.21875 56 33.015625 56 
Q 37.15625 56 41.109375 55.140625 
Q 45.0625 54.296875 48.78125 52.59375 
z
" id="DejaVuSans-99"/>
     <path d="M 18.3125 70.21875 
L 18.3125 54.6875 
L 36.8125 54.6875 
L 36.8125 47.703125 
L 18.3125 47.703125 
L 18.3125 18.015625 
Q 18.3125 11.328125 20.140625 9.421875 
Q 21.96875 7.515625 27.59375 7.515625 
L 36.8125 7.515625 
L 36.8125 0 
L 27.59375 0 
Q 17.1875 0 13.234375 3.875 
Q 9.28125 7.765625 9.28125 18.015625 
L 9.28125 47.703125 
L 2.6875 47.703125 
L 2.6875 54.6875 
L 9.28125 54.6875 
L 9.28125 70.21875 
z
" id="DejaVuSans-116"/>
     <path d="M 9.421875 54.6875 
L 18.40625 54.6875 
L 18.40625 0 
L 9.421875 0 
z
M 9.421875 75.984375 
L 18.40625 75.984375 
L 18.40625 64.59375 
L 9.421875 64.59375 
z
" id="DejaVuSans-105"/>
     <path d="M 30.609375 48.390625 
Q 23.390625 48.390625 19.1875 42.75 
Q 14.984375 37.109375 14.984375 27.296875 
Q 14.984375 17.484375 19.15625 11.84375 
Q 23.34375 6.203125 30.609375 6.203125 
Q 37.796875 6.203125 41.984375 11.859375 
Q 46.1875 17.53125 46.1875 27.296875 
Q 46.1875 37.015625 41.984375 42.703125 
Q 37.796875 48.390625 30.609375 48.390625 
z
M 30.609375 56 
Q 42.328125 56 49.015625 48.375 
Q 55.71875 40.765625 55.71875 27.296875 
Q 55.71875 13.875 49.015625 6.21875 
Q 42.328125 -1.421875 30.609375 -1.421875 
Q 18.84375 -1.421875 12.171875 6.21875 
Q 5.515625 13.875 5.515625 27.296875 
Q 5.515625 40.765625 12.171875 48.375 
Q 18.84375 56 30.609375 56 
z
" id="DejaVuSans-111"/>
     <path d="M 41.109375 46.296875 
Q 39.59375 47.171875 37.8125 47.578125 
Q 36.03125 48 33.890625 48 
Q 26.265625 48 22.1875 43.046875 
Q 18.109375 38.09375 18.109375 28.8125 
L 18.109375 0 
L 9.078125 0 
L 9.078125 54.6875 
L 18.109375 54.6875 
L 18.109375 46.1875 
Q 20.953125 51.171875 25.484375 53.578125 
Q 30.03125 56 36.53125 56 
Q 37.453125 56 38.578125 55.875 
Q 39.703125 55.765625 41.0625 55.515625 
z
" id="DejaVuSans-114"/>
     <path d="M 14.84375 13.09375 
Q 16.84375 3.328125 21.09375 3.328125 
Q 23.921875 3.328125 27.59375 8.9375 
L 34.078125 8.9375 
Q 31.15625 3.953125 27.734375 1.375 
Q 24.03125 -1.421875 20.609375 -1.421875 
Q 12.984375 -1.421875 9.90625 5.375 
L 6.25 0 
L -1.375 0 
Q 3.90625 7.171875 7.8125 13.875 
Q 7.328125 17.671875 7.328125 21.828125 
Q 7.328125 29.25 8.84375 36.671875 
Q 14.546875 64.546875 19.625 70.265625 
Q 23.140625 74.21875 29.15625 74.21875 
Q 35.25 74.21875 35.25 65.765625 
Q 35.203125 61.96875 34.328125 57.421875 
Q 30.8125 38.8125 14.84375 13.09375 
z
M 14.796875 25.875 
Q 23.921875 42.875 26.703125 56.453125 
Q 28.171875 63.625 28.171875 65.484375 
Q 28.171875 68.84375 26.953125 68.84375 
Q 21.625 64.59375 16.890625 39.3125 
Q 15.578125 32.234375 14.796875 25.875 
z
" id="DejaVuSans-Oblique-8467"/>
     <path d="M 56.203125 29.59375 
L 56.203125 25.203125 
L 14.890625 25.203125 
Q 15.484375 15.921875 20.484375 11.0625 
Q 25.484375 6.203125 34.421875 6.203125 
Q 39.59375 6.203125 44.453125 7.46875 
Q 49.3125 8.734375 54.109375 11.28125 
L 54.109375 2.78125 
Q 49.265625 0.734375 44.1875 -0.34375 
Q 39.109375 -1.421875 33.890625 -1.421875 
Q 20.796875 -1.421875 13.15625 6.1875 
Q 5.515625 13.8125 5.515625 26.8125 
Q 5.515625 40.234375 12.765625 48.109375 
Q 20.015625 56 32.328125 56 
Q 43.359375 56 49.78125 48.890625 
Q 56.203125 41.796875 56.203125 29.59375 
z
M 47.21875 32.234375 
Q 47.125 39.59375 43.09375 43.984375 
Q 39.0625 48.390625 32.421875 48.390625 
Q 24.90625 48.390625 20.390625 44.140625 
Q 15.875 39.890625 15.1875 32.171875 
z
" id="DejaVuSans-101"/>
     <path d="M 45.40625 46.390625 
L 45.40625 75.984375 
L 54.390625 75.984375 
L 54.390625 0 
L 45.40625 0 
L 45.40625 8.203125 
Q 42.578125 3.328125 38.25 0.953125 
Q 33.9375 -1.421875 27.875 -1.421875 
Q 17.96875 -1.421875 11.734375 6.484375 
Q 5.515625 14.40625 5.515625 27.296875 
Q 5.515625 40.1875 11.734375 48.09375 
Q 17.96875 56 27.875 56 
Q 33.9375 56 38.25 53.625 
Q 42.578125 51.265625 45.40625 46.390625 
z
M 14.796875 27.296875 
Q 14.796875 17.390625 18.875 11.75 
Q 22.953125 6.109375 30.078125 6.109375 
Q 37.203125 6.109375 41.296875 11.75 
Q 45.40625 17.390625 45.40625 27.296875 
Q 45.40625 37.203125 41.296875 42.84375 
Q 37.203125 48.484375 30.078125 48.484375 
Q 22.953125 48.484375 18.875 42.84375 
Q 14.796875 37.203125 14.796875 27.296875 
z
" id="DejaVuSans-100"/>
     <path d="M 9.421875 75.984375 
L 18.40625 75.984375 
L 18.40625 0 
L 9.421875 0 
z
" id="DejaVuSans-108"/>
     <path d="M 34.671875 47.5625 
Q 27.25 47.5625 22.21875 42.1875 
Q 16.890625 36.578125 15.140625 27.296875 
Q 13.1875 17.484375 16.3125 11.8125 
Q 19.390625 6.203125 26.65625 6.203125 
Q 33.84375 6.203125 39.109375 11.859375 
Q 44.4375 17.53125 46.34375 27.296875 
Q 48.046875 36.234375 45.015625 42.1875 
Q 42.1875 47.5625 34.671875 47.5625 
z
M 36.078125 54.734375 
L 65.921875 54.6875 
L 64.15625 45.703125 
L 54.109375 45.703125 
Q 57.90625 38.09375 55.859375 27.296875 
Q 53.21875 13.875 45.0625 6.25 
Q 36.859375 -1.421875 25.140625 -1.421875 
Q 13.375 -1.421875 8.203125 6.25 
Q 3.03125 13.875 5.671875 27.296875 
Q 8.25 40.765625 16.40625 48.390625 
Q 23.1875 54.734375 36.078125 54.734375 
z
" id="DejaVuSans-Oblique-963"/>
     <path d="M 10.59375 45.40625 
L 73.1875 45.40625 
L 73.1875 37.203125 
L 10.59375 37.203125 
z
M 10.59375 25.484375 
L 73.1875 25.484375 
L 73.1875 17.1875 
L 10.59375 17.1875 
z
" id="DejaVuSans-61"/>
     <path d="M 10.6875 12.40625 
L 21 12.40625 
L 21 0 
L 10.6875 0 
z
" id="DejaVuSans-46"/>
    </defs>
    <g transform="translate(91.98 28.56)scale(0.12 -0.12)">
     <use transform="translate(0 0.015625)" xlink:href="#DejaVuSans-71"/>
     <use transform="translate(77.490234 0.015625)" xlink:href="#DejaVuSans-67"/>
     <use transform="translate(147.314453 0.015625)" xlink:href="#DejaVuSans-86"/>
     <use transform="translate(215.722656 0.015625)" xlink:href="#DejaVuSans-32"/>
     <use transform="translate(247.509766 0.015625)" xlink:href="#DejaVuSans-102"/>
     <use transform="translate(282.714844 0.015625)" xlink:href="#DejaVuSans-117"/>
     <use transform="translate(346.09375 0.015625)" xlink:href="#DejaVuSans-110"/>
     <use transform="translate(409.472656 0.015625)" xlink:href="#DejaVuSans-99"/>
     <use transform="translate(464.453125 0.015625)" xlink:href="#DejaVuSans-116"/>
     <use transform="translate(503.662109 0.015625)" xlink:href="#DejaVuSans-105"/>
     <use transform="translate(531.445312 0.015625)" xlink:href="#DejaVuSans-111"/>
     <use transform="translate(592.626953 0.015625)" xlink:href="#DejaVuSans-110"/>
     <use transform="translate(656.005859 0.015625)" xlink:href="#DejaVuSans-32"/>
     <use transform="translate(687.792969 0.015625)" xlink:href="#DejaVuSans-102"/>
     <use transform="translate(722.998047 0.015625)" xlink:href="#DejaVuSans-111"/>
     <use transform="translate(784.179688 0.015625)" xlink:href="#DejaVuSans-114"/>
     <use transform="translate(825.292969 0.015625)" xlink:href="#DejaVuSans-32"/>
     <use transform="translate(857.080078 0.015625)" xlink:href="#DejaVuSans-Oblique-8467"/>
     <use transform="translate(898.388672 -16.390625)scale(0.7)" xlink:href="#DejaVuSans-49"/>
     <use transform="translate(945.65918 0.015625)" xlink:href="#DejaVuSans-32"/>
     <use transform="translate(977.446289 0.015625)" xlink:href="#DejaVuSans-116"/>
     <use transform="translate(1016.655273 0.015625)" xlink:href="#DejaVuSans-114"/>
     <use transform="translate(1057.768555 0.015625)" xlink:href="#DejaVuSans-101"/>
     <use transform="translate(1119.291992 0.015625)" xlink:href="#DejaVuSans-110"/>
     <use transform="translate(1182.670898 0.015625)" xlink:href="#DejaVuSans-100"/>
     <use transform="translate(1246.147461 0.015625)" xlink:href="#DejaVuSans-32"/>
     <use transform="translate(1277.93457 0.015625)" xlink:href="#DejaVuSans-102"/>
     <use transform="translate(1313.139648 0.015625)" xlink:href="#DejaVuSans-105"/>
     <use transform="translate(1340.922852 0.015625)" xlink:href="#DejaVuSans-108"/>
     <use transform="translate(1368.706055 0.015625)" xlink:href="#DejaVuSans-116"/>
     <use transform="translate(1407.915039 0.015625)" xlink:href="#DejaVuSans-101"/>
     <use transform="translate(1469.438477 0.015625)" xlink:href="#DejaVuSans-114"/>
     <use transform="translate(1510.551758 0.015625)" xlink:href="#DejaVuSans-32"/>
     <use transform="translate(1542.338867 0.015625)" xlink:href="#DejaVuSans-40"/>
     <use transform="translate(1581.352539 0.015625)" xlink:href="#DejaVuSans-Oblique-963"/>
     <use transform="translate(1664.213867 0.015625)" xlink:href="#DejaVuSans-61"/>
     <use transform="translate(1767.485352 0.015625)" xlink:href="#DejaVuSans-48"/>
     <use transform="translate(1831.108398 0.015625)" xlink:href="#DejaVuSans-46"/>
     <use transform="translate(1862.895508 0.015625)" xlink:href="#DejaVuSans-48"/>
     <use transform="translate(1926.518555 0.015625)" xlink:href="#DejaVuSans-48"/>
     <use transform="translate(1990.141602 0.015625)" xlink:href="#DejaVuSans-48"/>
     <use transform="translate(2053.764648 0.015625)" xlink:href="#DejaVuSans-49"/>
     <use transform="translate(2117.387695 0.015625)" xlink:href="#DejaVuSans-41"/>
    </g>
   </g>
   <g id="legend_1">
    <g id="line2d_24">
     <path d="M 273.36 216.890625 
L 321.36 216.890625 
" style="fill:none;stroke:#1f77b4;stroke-dasharray:7.5,2.5;stroke-dashoffset:0;stroke-width:2.5;"/>
    </g>
    <g id="line2d_25"/>
    <g id="text_19">
     <!-- state $x_1$ -->
     <defs>
      <path d="M 44.28125 53.078125 
L 44.28125 44.578125 
Q 40.484375 46.53125 36.375 47.5 
Q 32.28125 48.484375 27.875 48.484375 
Q 21.1875 48.484375 17.84375 46.4375 
Q 14.5 44.390625 14.5 40.28125 
Q 14.5 37.15625 16.890625 35.375 
Q 19.28125 33.59375 26.515625 31.984375 
L 29.59375 31.296875 
Q 39.15625 29.25 43.1875 25.515625 
Q 47.21875 21.78125 47.21875 15.09375 
Q 47.21875 7.46875 41.1875 3.015625 
Q 35.15625 -1.421875 24.609375 -1.421875 
Q 20.21875 -1.421875 15.453125 -0.5625 
Q 10.6875 0.296875 5.421875 2 
L 5.421875 11.28125 
Q 10.40625 8.6875 15.234375 7.390625 
Q 20.0625 6.109375 24.8125 6.109375 
Q 31.15625 6.109375 34.5625 8.28125 
Q 37.984375 10.453125 37.984375 14.40625 
Q 37.984375 18.0625 35.515625 20.015625 
Q 33.0625 21.96875 24.703125 23.78125 
L 21.578125 24.515625 
Q 13.234375 26.265625 9.515625 29.90625 
Q 5.8125 33.546875 5.8125 39.890625 
Q 5.8125 47.609375 11.28125 51.796875 
Q 16.75 56 26.8125 56 
Q 31.78125 56 36.171875 55.265625 
Q 40.578125 54.546875 44.28125 53.078125 
z
" id="DejaVuSans-115"/>
      <path d="M 34.28125 27.484375 
Q 23.390625 27.484375 19.1875 25 
Q 14.984375 22.515625 14.984375 16.5 
Q 14.984375 11.71875 18.140625 8.90625 
Q 21.296875 6.109375 26.703125 6.109375 
Q 34.1875 6.109375 38.703125 11.40625 
Q 43.21875 16.703125 43.21875 25.484375 
L 43.21875 27.484375 
z
M 52.203125 31.203125 
L 52.203125 0 
L 43.21875 0 
L 43.21875 8.296875 
Q 40.140625 3.328125 35.546875 0.953125 
Q 30.953125 -1.421875 24.3125 -1.421875 
Q 15.921875 -1.421875 10.953125 3.296875 
Q 6 8.015625 6 15.921875 
Q 6 25.140625 12.171875 29.828125 
Q 18.359375 34.515625 30.609375 34.515625 
L 43.21875 34.515625 
L 43.21875 35.40625 
Q 43.21875 41.609375 39.140625 45 
Q 35.0625 48.390625 27.6875 48.390625 
Q 23 48.390625 18.546875 47.265625 
Q 14.109375 46.140625 10.015625 43.890625 
L 10.015625 52.203125 
Q 14.9375 54.109375 19.578125 55.046875 
Q 24.21875 56 28.609375 56 
Q 40.484375 56 46.34375 49.84375 
Q 52.203125 43.703125 52.203125 31.203125 
z
" id="DejaVuSans-97"/>
      <path d="M 60.015625 54.6875 
L 34.90625 27.875 
L 50.296875 0 
L 39.984375 0 
L 28.421875 21.6875 
L 8.296875 0 
L -2.59375 0 
L 24.3125 28.8125 
L 10.015625 54.6875 
L 20.3125 54.6875 
L 30.8125 34.90625 
L 49.125 54.6875 
z
" id="DejaVuSans-Oblique-120"/>
     </defs>
     <g transform="translate(330.96 221.090625)scale(0.12 -0.12)">
      <use transform="translate(0 0.78125)" xlink:href="#DejaVuSans-115"/>
      <use transform="translate(52.099609 0.78125)" xlink:href="#DejaVuSans-116"/>
      <use transform="translate(91.308594 0.78125)" xlink:href="#DejaVuSans-97"/>
      <use transform="translate(152.587891 0.78125)" xlink:href="#DejaVuSans-116"/>
      <use transform="translate(191.796875 0.78125)" xlink:href="#DejaVuSans-101"/>
      <use transform="translate(253.320312 0.78125)" xlink:href="#DejaVuSans-32"/>
      <use transform="translate(285.107422 0.78125)" xlink:href="#DejaVuSans-Oblique-120"/>
      <use transform="translate(344.287109 -15.625)scale(0.7)" xlink:href="#DejaVuSans-49"/>
     </g>
    </g>
    <g id="line2d_26">
     <path d="M 273.36 234.504375 
L 321.36 234.504375 
" style="fill:none;stroke:#ff7f0e;stroke-dasharray:2500,2.5;stroke-dashoffset:0;stroke-width:2.5;"/>
    </g>
    <g id="line2d_27"/>
    <g id="text_20">
     <!-- state $x_2$ -->
     <defs>
      <path d="M 19.1875 8.296875 
L 53.609375 8.296875 
L 53.609375 0 
L 7.328125 0 
L 7.328125 8.296875 
Q 12.9375 14.109375 22.625 23.890625 
Q 32.328125 33.6875 34.8125 36.53125 
Q 39.546875 41.84375 41.421875 45.53125 
Q 43.3125 49.21875 43.3125 52.78125 
Q 43.3125 58.59375 39.234375 62.25 
Q 35.15625 65.921875 28.609375 65.921875 
Q 23.96875 65.921875 18.8125 64.3125 
Q 13.671875 62.703125 7.8125 59.421875 
L 7.8125 69.390625 
Q 13.765625 71.78125 18.9375 73 
Q 24.125 74.21875 28.421875 74.21875 
Q 39.75 74.21875 46.484375 68.546875 
Q 53.21875 62.890625 53.21875 53.421875 
Q 53.21875 48.921875 51.53125 44.890625 
Q 49.859375 40.875 45.40625 35.40625 
Q 44.1875 33.984375 37.640625 27.21875 
Q 31.109375 20.453125 19.1875 8.296875 
z
" id="DejaVuSans-50"/>
     </defs>
     <g transform="translate(330.96 238.704375)scale(0.12 -0.12)">
      <use transform="translate(0 0.78125)" xlink:href="#DejaVuSans-115"/>
      <use transform="translate(52.099609 0.78125)" xlink:href="#DejaVuSans-116"/>
      <use transform="translate(91.308594 0.78125)" xlink:href="#DejaVuSans-97"/>
      <use transform="translate(152.587891 0.78125)" xlink:href="#DejaVuSans-116"/>
      <use transform="translate(191.796875 0.78125)" xlink:href="#DejaVuSans-101"/>
      <use transform="translate(253.320312 0.78125)" xlink:href="#DejaVuSans-32"/>
      <use transform="translate(285.107422 0.78125)" xlink:href="#DejaVuSans-Oblique-120"/>
      <use transform="translate(344.287109 -15.625)scale(0.7)" xlink:href="#DejaVuSans-50"/>
     </g>
    </g>
   </g>
  </g>
 </g>
 <defs>
  <clipPath id="p3e31a12f86">
   <rect height="217.44" width="334.8" x="54" y="34.56"/>
  </clipPath>
 </defs>
</svg>
