<?xml version="1.0" encoding="utf-8" standalone="no"?>
<!DOCTYPE svg PUBLIC "-//W3C//DTD SVG 1.1//EN"
  "http://www.w3.org/Graphics/SVG/1.1/DTD/svg11.dtd">
<!-- Created with matplotlib (https://matplotlib.org/) -->
<svg height="288pt" version="1.1" viewBox="0 0 432 288" width="432pt" xmlns="http://www.w3.org/2000/svg" xmlns:xlink="http://www.w3.org/1999/xlink">
 <defs>
  <style type="text/css">
*{stroke-linecap:butt;stroke-linejoin:round;}
  </style>
 </defs>
 <g id="figure_1">
  <g id="patch_1">
   <path d="M 0 288 
L 432 288 
L 432 0 
L 0 0 
z
" style="fill:#ffffff;"/>
  </g>
  <g id="axes_1">
   <g id="patch_2">
    <path d="M 54 252 
L 388.8 252 
L 388.8 34.56 
L 54 34.56 
z
" style="fill:#ffffff;"/>
   </g>
   <g id="matplotlib.axis_1">
    <g id="xtick_1">
     <g id="line2d_1">
      <defs>
       <path d="M 0 0 
L 0 3.5 
" id="m0b44dac261" style="stroke:#000000;stroke-width:0.8;"/>
      </defs>
      <g>
       <use style="stroke:#000000;stroke-width:0.8;" x="91.843688" xlink:href="#m0b44dac261" y="252"/>
      </g>
     </g>
     <g id="text_1">
      <!-- $\mathdefault{10^{-5}}$ -->
      <defs>
       <path d="M 12.40625 8.296875 
L 28.515625 8.296875 
L 28.515625 63.921875 
L 10.984375 60.40625 
L 10.984375 69.390625 
L 28.421875 72.90625 
L 38.28125 72.90625 
L 38.28125 8.296875 
L 54.390625 8.296875 
L 54.390625 0 
L 12.40625 0 
z
" id="DejaVuSans-49"/>
       <path d="M 31.78125 66.40625 
Q 24.171875 66.40625 20.328125 58.90625 
Q 16.5 51.421875 16.5 36.375 
Q 16.5 21.390625 20.328125 13.890625 
Q 24.171875 6.390625 31.78125 6.390625 
Q 39.453125 6.390625 43.28125 13.890625 
Q 47.125 21.390625 47.125 36.375 
Q 47.125 51.421875 43.28125 58.90625 
Q 39.453125 66.40625 31.78125 66.40625 
z
M 31.78125 74.21875 
Q 44.046875 74.21875 50.515625 64.515625 
Q 56.984375 54.828125 56.984375 36.375 
Q 56.984375 17.96875 50.515625 8.265625 
Q 44.046875 -1.421875 31.78125 -1.421875 
Q 19.53125 -1.421875 13.0625 8.265625 
Q 6.59375 17.96875 6.59375 36.375 
Q 6.59375 54.828125 13.0625 64.515625 
Q 19.53125 74.21875 31.78125 74.21875 
z
" id="DejaVuSans-48"/>
       <path d="M 10.59375 35.5 
L 73.1875 35.5 
L 73.1875 27.203125 
L 10.59375 27.203125 
z
" id="DejaVuSans-8722"/>
       <path d="M 10.796875 72.90625 
L 49.515625 72.90625 
L 49.515625 64.59375 
L 19.828125 64.59375 
L 19.828125 46.734375 
Q 21.96875 47.46875 24.109375 47.828125 
Q 26.265625 48.1875 28.421875 48.1875 
Q 40.625 48.1875 47.75 41.5 
Q 54.890625 34.8125 54.890625 23.390625 
Q 54.890625 11.625 47.5625 5.09375 
Q 40.234375 -1.421875 26.90625 -1.421875 
Q 22.3125 -1.421875 17.546875 -0.640625 
Q 12.796875 0.140625 7.71875 1.703125 
L 7.71875 11.625 
Q 12.109375 9.234375 16.796875 8.0625 
Q 21.484375 6.890625 26.703125 6.890625 
Q 35.15625 6.890625 40.078125 11.328125 
Q 45.015625 15.765625 45.015625 23.390625 
Q 45.015625 31 40.078125 35.4375 
Q 35.15625 39.890625 26.703125 39.890625 
Q 22.75 39.890625 18.8125 39.015625 
Q 14.890625 38.140625 10.796875 36.28125 
z
" id="DejaVuSans-53"/>
      </defs>
      <g transform="translate(77.743688 268.118125)scale(0.12 -0.12)">
       <use transform="translate(0 0.684375)" xlink:href="#DejaVuSans-49"/>
       <use transform="translate(63.623047 0.684375)" xlink:href="#DejaVuSans-48"/>
       <use transform="translate(128.203125 38.965625)scale(0.7)" xlink:href="#DejaVuSans-8722"/>
       <use transform="translate(186.855469 38.965625)scale(0.7)" xlink:href="#DejaVuSans-53"/>
      </g>
     </g>
    </g>
    <g id="xtick_2">
     <g id="line2d_2">
      <g>
       <use style="stroke:#000000;stroke-width:0.8;" x="147.022886" xlink:href="#m0b44dac261" y="252"/>
      </g>
     </g>
     <g id="text_2">
      <!-- $\mathdefault{10^{-3}}$ -->
      <defs>
       <path d="M 40.578125 39.3125 
Q 47.65625 37.796875 51.625 33 
Q 55.609375 28.21875 55.609375 21.1875 
Q 55.609375 10.40625 48.1875 4.484375 
Q 40.765625 -1.421875 27.09375 -1.421875 
Q 22.515625 -1.421875 17.65625 -0.515625 
Q 12.796875 0.390625 7.625 2.203125 
L 7.625 11.71875 
Q 11.71875 9.328125 16.59375 8.109375 
Q 21.484375 6.890625 26.8125 6.890625 
Q 36.078125 6.890625 40.9375 10.546875 
Q 45.796875 14.203125 45.796875 21.1875 
Q 45.796875 27.640625 41.28125 31.265625 
Q 36.765625 34.90625 28.71875 34.90625 
L 20.21875 34.90625 
L 20.21875 43.015625 
L 29.109375 43.015625 
Q 36.375 43.015625 40.234375 45.921875 
Q 44.09375 48.828125 44.09375 54.296875 
Q 44.09375 59.90625 40.109375 62.90625 
Q 36.140625 65.921875 28.71875 65.921875 
Q 24.65625 65.921875 20.015625 65.03125 
Q 15.375 64.15625 9.8125 62.3125 
L 9.8125 71.09375 
Q 15.4375 72.65625 20.34375 73.4375 
Q 25.25 74.21875 29.59375 74.21875 
Q 40.828125 74.21875 47.359375 69.109375 
Q 53.90625 64.015625 53.90625 55.328125 
Q 53.90625 49.265625 50.4375 45.09375 
Q 46.96875 40.921875 40.578125 39.3125 
z
" id="DejaVuSans-51"/>
      </defs>
      <g transform="translate(132.922886 268.118125)scale(0.12 -0.12)">
       <use transform="translate(0 0.765625)" xlink:href="#DejaVuSans-49"/>
       <use transform="translate(63.623047 0.765625)" xlink:href="#DejaVuSans-48"/>
       <use transform="translate(128.203125 39.046875)scale(0.7)" xlink:href="#DejaVuSans-8722"/>
       <use transform="translate(186.855469 39.046875)scale(0.7)" xlink:href="#DejaVuSans-51"/>
      </g>
     </g>
    </g>
    <g id="xtick_3">
     <g id="line2d_3">
      <g>
       <use style="stroke:#000000;stroke-width:0.8;" x="202.202084" xlink:href="#m0b44dac261" y="252"/>
      </g>
     </g>
     <g id="text_3">
      <!-- $\mathdefault{10^{-1}}$ -->
      <g transform="translate(188.102084 268.118125)scale(0.12 -0.12)">
       <use transform="translate(0 0.684375)" xlink:href="#DejaVuSans-49"/>
       <use transform="translate(63.623047 0.684375)" xlink:href="#DejaVuSans-48"/>
       <use transform="translate(128.203125 38.965625)scale(0.7)" xlink:href="#DejaVuSans-8722"/>
       <use transform="translate(186.855469 38.965625)scale(0.7)" xlink:href="#DejaVuSans-49"/>
      </g>
     </g>
    </g>
    <g id="xtick_4">
     <g id="line2d_4">
      <g>
       <use style="stroke:#000000;stroke-width:0.8;" x="257.381283" xlink:href="#m0b44dac261" y="252"/>
      </g>
     </g>
     <g id="text_4">
      <!-- $\mathdefault{10^{1}}$ -->
      <g transform="translate(246.821283 268.118125)scale(0.12 -0.12)">
       <use transform="translate(0 0.684375)" xlink:href="#DejaVuSans-49"/>
       <use transform="translate(63.623047 0.684375)" xlink:href="#DejaVuSans-48"/>
       <use transform="translate(128.203125 38.965625)scale(0.7)" xlink:href="#DejaVuSans-49"/>
      </g>
     </g>
    </g>
    <g id="xtick_5">
     <g id="line2d_5">
      <g>
       <use style="stroke:#000000;stroke-width:0.8;" x="312.560481" xlink:href="#m0b44dac261" y="252"/>
      </g>
     </g>
     <g id="text_5">
      <!-- $\mathdefault{10^{3}}$ -->
      <g transform="translate(302.000481 268.118125)scale(0.12 -0.12)">
       <use transform="translate(0 0.765625)" xlink:href="#DejaVuSans-49"/>
       <use transform="translate(63.623047 0.765625)" xlink:href="#DejaVuSans-48"/>
       <use transform="translate(128.203125 39.046875)scale(0.7)" xlink:href="#DejaVuSans-51"/>
      </g>
     </g>
    </g>
    <g id="xtick_6">
     <g id="line2d_6">
      <g>
       <use style="stroke:#000000;stroke-width:0.8;" x="367.739679" xlink:href="#m0b44dac261" y="252"/>
      </g>
     </g>
     <g id="text_6">
      <!-- $\mathdefault{10^{5}}$ -->
      <g transform="translate(357.179679 268.118125)scale(0.12 -0.12)">
       <use transform="translate(0 0.684375)" xlink:href="#DejaVuSans-49"/>
       <use transform="translate(63.623047 0.684375)" xlink:href="#DejaVuSans-48"/>
       <use transform="translate(128.203125 38.965625)scale(0.7)" xlink:href="#DejaVuSans-53"/>
      </g>
     </g>
    </g>
    <g id="text_7">
     <!-- $\lambda$ -->
     <defs>
      <path d="M 36.71875 67.4375 
L 48.828125 0 
L 39.3125 0 
L 31.84375 40.4375 
L 5.125 0 
L -4.390625 0 
L 29.734375 52.4375 
L 28.03125 62.109375 
Q 26.953125 68.265625 21.734375 68.265625 
L 17.046875 68.265625 
L 18.5 75.984375 
L 24.21875 75.875 
Q 35.203125 75.734375 36.71875 67.4375 
z
" id="DejaVuSans-Oblique-955"/>
     </defs>
     <g transform="translate(217.8 283.731875)scale(0.12 -0.12)">
      <use transform="translate(0 0.015625)" xlink:href="#DejaVuSans-Oblique-955"/>
     </g>
    </g>
   </g>
   <g id="matplotlib.axis_2">
    <g id="ytick_1">
     <g id="line2d_7">
      <defs>
       <path d="M 0 0 
L -3.5 0 
" id="m627056794e" style="stroke:#000000;stroke-width:0.8;"/>
      </defs>
      <g>
       <use style="stroke:#000000;stroke-width:0.8;" x="54" xlink:href="#m627056794e" y="195.737705"/>
      </g>
     </g>
     <g id="text_8">
      <!-- $\mathdefault{10^{-4}}$ -->
      <defs>
       <path d="M 37.796875 64.3125 
L 12.890625 25.390625 
L 37.796875 25.390625 
z
M 35.203125 72.90625 
L 47.609375 72.90625 
L 47.609375 25.390625 
L 58.015625 25.390625 
L 58.015625 17.1875 
L 47.609375 17.1875 
L 47.609375 0 
L 37.796875 0 
L 37.796875 17.1875 
L 4.890625 17.1875 
L 4.890625 26.703125 
z
" id="DejaVuSans-52"/>
      </defs>
      <g transform="translate(18.8 200.296767)scale(0.12 -0.12)">
       <use transform="translate(0 0.684375)" xlink:href="#DejaVuSans-49"/>
       <use transform="translate(63.623047 0.684375)" xlink:href="#DejaVuSans-48"/>
       <use transform="translate(128.203125 38.965625)scale(0.7)" xlink:href="#DejaVuSans-8722"/>
       <use transform="translate(186.855469 38.965625)scale(0.7)" xlink:href="#DejaVuSans-52"/>
      </g>
     </g>
    </g>
    <g id="ytick_2">
     <g id="line2d_8">
      <g>
       <use style="stroke:#000000;stroke-width:0.8;" x="54" xlink:href="#m627056794e" y="134.107537"/>
      </g>
     </g>
     <g id="text_9">
      <!-- $\mathdefault{10^{-3}}$ -->
      <g transform="translate(18.8 138.666599)scale(0.12 -0.12)">
       <use transform="translate(0 0.765625)" xlink:href="#DejaVuSans-49"/>
       <use transform="translate(63.623047 0.765625)" xlink:href="#DejaVuSans-48"/>
       <use transform="translate(128.203125 39.046875)scale(0.7)" xlink:href="#DejaVuSans-8722"/>
       <use transform="translate(186.855469 39.046875)scale(0.7)" xlink:href="#DejaVuSans-51"/>
      </g>
     </g>
    </g>
    <g id="ytick_3">
     <g id="line2d_9">
      <g>
       <use style="stroke:#000000;stroke-width:0.8;" x="54" xlink:href="#m627056794e" y="72.477368"/>
      </g>
     </g>
     <g id="text_10">
      <!-- $\mathdefault{10^{-2}}$ -->
      <defs>
       <path d="M 19.1875 8.296875 
L 53.609375 8.296875 
L 53.609375 0 
L 7.328125 0 
L 7.328125 8.296875 
Q 12.9375 14.109375 22.625 23.890625 
Q 32.328125 33.6875 34.8125 36.53125 
Q 39.546875 41.84375 41.421875 45.53125 
Q 43.3125 49.21875 43.3125 52.78125 
Q 43.3125 58.59375 39.234375 62.25 
Q 35.15625 65.921875 28.609375 65.921875 
Q 23.96875 65.921875 18.8125 64.3125 
Q 13.671875 62.703125 7.8125 59.421875 
L 7.8125 69.390625 
Q 13.765625 71.78125 18.9375 73 
Q 24.125 74.21875 28.421875 74.21875 
Q 39.75 74.21875 46.484375 68.546875 
Q 53.21875 62.890625 53.21875 53.421875 
Q 53.21875 48.921875 51.53125 44.890625 
Q 49.859375 40.875 45.40625 35.40625 
Q 44.1875 33.984375 37.640625 27.21875 
Q 31.109375 20.453125 19.1875 8.296875 
z
" id="DejaVuSans-50"/>
      </defs>
      <g transform="translate(18.8 77.036431)scale(0.12 -0.12)">
       <use transform="translate(0 0.765625)" xlink:href="#DejaVuSans-49"/>
       <use transform="translate(63.623047 0.765625)" xlink:href="#DejaVuSans-48"/>
       <use transform="translate(128.203125 39.046875)scale(0.7)" xlink:href="#DejaVuSans-8722"/>
       <use transform="translate(186.855469 39.046875)scale(0.7)" xlink:href="#DejaVuSans-50"/>
      </g>
     </g>
    </g>
    <g id="ytick_4">
     <g id="line2d_10">
      <defs>
       <path d="M 0 0 
L -2 0 
" id="m213d930f94" style="stroke:#000000;stroke-width:0.6;"/>
      </defs>
      <g>
       <use style="stroke:#000000;stroke-width:0.6;" x="54" xlink:href="#m213d930f94" y="238.815343"/>
      </g>
     </g>
    </g>
    <g id="ytick_5">
     <g id="line2d_11">
      <g>
       <use style="stroke:#000000;stroke-width:0.6;" x="54" xlink:href="#m213d930f94" y="227.96281"/>
      </g>
     </g>
    </g>
    <g id="ytick_6">
     <g id="line2d_12">
      <g>
       <use style="stroke:#000000;stroke-width:0.6;" x="54" xlink:href="#m213d930f94" y="220.262814"/>
      </g>
     </g>
    </g>
    <g id="ytick_7">
     <g id="line2d_13">
      <g>
       <use style="stroke:#000000;stroke-width:0.6;" x="54" xlink:href="#m213d930f94" y="214.290234"/>
      </g>
     </g>
    </g>
    <g id="ytick_8">
     <g id="line2d_14">
      <g>
       <use style="stroke:#000000;stroke-width:0.6;" x="54" xlink:href="#m213d930f94" y="209.41028"/>
      </g>
     </g>
    </g>
    <g id="ytick_9">
     <g id="line2d_15">
      <g>
       <use style="stroke:#000000;stroke-width:0.6;" x="54" xlink:href="#m213d930f94" y="205.284338"/>
      </g>
     </g>
    </g>
    <g id="ytick_10">
     <g id="line2d_16">
      <g>
       <use style="stroke:#000000;stroke-width:0.6;" x="54" xlink:href="#m213d930f94" y="201.710285"/>
      </g>
     </g>
    </g>
    <g id="ytick_11">
     <g id="line2d_17">
      <g>
       <use style="stroke:#000000;stroke-width:0.6;" x="54" xlink:href="#m213d930f94" y="198.557746"/>
      </g>
     </g>
    </g>
    <g id="ytick_12">
     <g id="line2d_18">
      <g>
       <use style="stroke:#000000;stroke-width:0.6;" x="54" xlink:href="#m213d930f94" y="177.185175"/>
      </g>
     </g>
    </g>
    <g id="ytick_13">
     <g id="line2d_19">
      <g>
       <use style="stroke:#000000;stroke-width:0.6;" x="54" xlink:href="#m213d930f94" y="166.332641"/>
      </g>
     </g>
    </g>
    <g id="ytick_14">
     <g id="line2d_20">
      <g>
       <use style="stroke:#000000;stroke-width:0.6;" x="54" xlink:href="#m213d930f94" y="158.632646"/>
      </g>
     </g>
    </g>
    <g id="ytick_15">
     <g id="line2d_21">
      <g>
       <use style="stroke:#000000;stroke-width:0.6;" x="54" xlink:href="#m213d930f94" y="152.660066"/>
      </g>
     </g>
    </g>
    <g id="ytick_16">
     <g id="line2d_22">
      <g>
       <use style="stroke:#000000;stroke-width:0.6;" x="54" xlink:href="#m213d930f94" y="147.780112"/>
      </g>
     </g>
    </g>
    <g id="ytick_17">
     <g id="line2d_23">
      <g>
       <use style="stroke:#000000;stroke-width:0.6;" x="54" xlink:href="#m213d930f94" y="143.65417"/>
      </g>
     </g>
    </g>
    <g id="ytick_18">
     <g id="line2d_24">
      <g>
       <use style="stroke:#000000;stroke-width:0.6;" x="54" xlink:href="#m213d930f94" y="140.080117"/>
      </g>
     </g>
    </g>
    <g id="ytick_19">
     <g id="line2d_25">
      <g>
       <use style="stroke:#000000;stroke-width:0.6;" x="54" xlink:href="#m213d930f94" y="136.927578"/>
      </g>
     </g>
    </g>
    <g id="ytick_20">
     <g id="line2d_26">
      <g>
       <use style="stroke:#000000;stroke-width:0.6;" x="54" xlink:href="#m213d930f94" y="115.555007"/>
      </g>
     </g>
    </g>
    <g id="ytick_21">
     <g id="line2d_27">
      <g>
       <use style="stroke:#000000;stroke-width:0.6;" x="54" xlink:href="#m213d930f94" y="104.702473"/>
      </g>
     </g>
    </g>
    <g id="ytick_22">
     <g id="line2d_28">
      <g>
       <use style="stroke:#000000;stroke-width:0.6;" x="54" xlink:href="#m213d930f94" y="97.002478"/>
      </g>
     </g>
    </g>
    <g id="ytick_23">
     <g id="line2d_29">
      <g>
       <use style="stroke:#000000;stroke-width:0.6;" x="54" xlink:href="#m213d930f94" y="91.029898"/>
      </g>
     </g>
    </g>
    <g id="ytick_24">
     <g id="line2d_30">
      <g>
       <use style="stroke:#000000;stroke-width:0.6;" x="54" xlink:href="#m213d930f94" y="86.149944"/>
      </g>
     </g>
    </g>
    <g id="ytick_25">
     <g id="line2d_31">
      <g>
       <use style="stroke:#000000;stroke-width:0.6;" x="54" xlink:href="#m213d930f94" y="82.024002"/>
      </g>
     </g>
    </g>
    <g id="ytick_26">
     <g id="line2d_32">
      <g>
       <use style="stroke:#000000;stroke-width:0.6;" x="54" xlink:href="#m213d930f94" y="78.449949"/>
      </g>
     </g>
    </g>
    <g id="ytick_27">
     <g id="line2d_33">
      <g>
       <use style="stroke:#000000;stroke-width:0.6;" x="54" xlink:href="#m213d930f94" y="75.29741"/>
      </g>
     </g>
    </g>
    <g id="ytick_28">
     <g id="line2d_34">
      <g>
       <use style="stroke:#000000;stroke-width:0.6;" x="54" xlink:href="#m213d930f94" y="53.924839"/>
      </g>
     </g>
    </g>
    <g id="ytick_29">
     <g id="line2d_35">
      <g>
       <use style="stroke:#000000;stroke-width:0.6;" x="54" xlink:href="#m213d930f94" y="43.072305"/>
      </g>
     </g>
    </g>
    <g id="ytick_30">
     <g id="line2d_36">
      <g>
       <use style="stroke:#000000;stroke-width:0.6;" x="54" xlink:href="#m213d930f94" y="35.37231"/>
      </g>
     </g>
    </g>
    <g id="text_11">
     <!-- GCV($\lambda$) -->
     <defs>
      <path d="M 59.515625 10.40625 
L 59.515625 29.984375 
L 43.40625 29.984375 
L 43.40625 38.09375 
L 69.28125 38.09375 
L 69.28125 6.78125 
Q 63.578125 2.734375 56.6875 0.65625 
Q 49.8125 -1.421875 42 -1.421875 
Q 24.90625 -1.421875 15.25 8.5625 
Q 5.609375 18.5625 5.609375 36.375 
Q 5.609375 54.25 15.25 64.234375 
Q 24.90625 74.21875 42 74.21875 
Q 49.125 74.21875 55.546875 72.453125 
Q 61.96875 70.703125 67.390625 67.28125 
L 67.390625 56.78125 
Q 61.921875 61.421875 55.765625 63.765625 
Q 49.609375 66.109375 42.828125 66.109375 
Q 29.4375 66.109375 22.71875 58.640625 
Q 16.015625 51.171875 16.015625 36.375 
Q 16.015625 21.625 22.71875 14.15625 
Q 29.4375 6.6875 42.828125 6.6875 
Q 48.046875 6.6875 52.140625 7.59375 
Q 56.25 8.5 59.515625 10.40625 
z
" id="DejaVuSans-71"/>
      <path d="M 64.40625 67.28125 
L 64.40625 56.890625 
Q 59.421875 61.53125 53.78125 63.8125 
Q 48.140625 66.109375 41.796875 66.109375 
Q 29.296875 66.109375 22.65625 58.46875 
Q 16.015625 50.828125 16.015625 36.375 
Q 16.015625 21.96875 22.65625 14.328125 
Q 29.296875 6.6875 41.796875 6.6875 
Q 48.140625 6.6875 53.78125 8.984375 
Q 59.421875 11.28125 64.40625 15.921875 
L 64.40625 5.609375 
Q 59.234375 2.09375 53.4375 0.328125 
Q 47.65625 -1.421875 41.21875 -1.421875 
Q 24.65625 -1.421875 15.125 8.703125 
Q 5.609375 18.84375 5.609375 36.375 
Q 5.609375 53.953125 15.125 64.078125 
Q 24.65625 74.21875 41.21875 74.21875 
Q 47.75 74.21875 53.53125 72.484375 
Q 59.328125 70.75 64.40625 67.28125 
z
" id="DejaVuSans-67"/>
      <path d="M 28.609375 0 
L 0.78125 72.90625 
L 11.078125 72.90625 
L 34.1875 11.53125 
L 57.328125 72.90625 
L 67.578125 72.90625 
L 39.796875 0 
z
" id="DejaVuSans-86"/>
      <path d="M 31 75.875 
Q 24.46875 64.65625 21.28125 53.65625 
Q 18.109375 42.671875 18.109375 31.390625 
Q 18.109375 20.125 21.3125 9.0625 
Q 24.515625 -2 31 -13.1875 
L 23.1875 -13.1875 
Q 15.875 -1.703125 12.234375 9.375 
Q 8.59375 20.453125 8.59375 31.390625 
Q 8.59375 42.28125 12.203125 53.3125 
Q 15.828125 64.359375 23.1875 75.875 
z
" id="DejaVuSans-40"/>
      <path d="M 8.015625 75.875 
L 15.828125 75.875 
Q 23.140625 64.359375 26.78125 53.3125 
Q 30.421875 42.28125 30.421875 31.390625 
Q 30.421875 20.453125 26.78125 9.375 
Q 23.140625 -1.703125 15.828125 -13.1875 
L 8.015625 -13.1875 
Q 14.5 -2 17.703125 9.0625 
Q 20.90625 20.125 20.90625 31.390625 
Q 20.90625 42.671875 17.703125 53.65625 
Q 14.5 64.65625 8.015625 75.875 
z
" id="DejaVuSans-41"/>
     </defs>
     <g transform="translate(12.304375 164.46)rotate(-90)scale(0.12 -0.12)">
      <use transform="translate(0 0.015625)" xlink:href="#DejaVuSans-71"/>
      <use transform="translate(77.490234 0.015625)" xlink:href="#DejaVuSans-67"/>
      <use transform="translate(147.314453 0.015625)" xlink:href="#DejaVuSans-86"/>
      <use transform="translate(215.722656 0.015625)" xlink:href="#DejaVuSans-40"/>
      <use transform="translate(254.736328 0.015625)" xlink:href="#DejaVuSans-Oblique-955"/>
      <use transform="translate(313.916016 0.015625)" xlink:href="#DejaVuSans-41"/>
     </g>
    </g>
   </g>
   <g id="line2d_37">
    <path clip-path="url(#p4db4ca6098)" d="M 357.854187 112.557126 
L 357.500467 113.381394 
L 357.493529 113.160548 
L 356.248442 117.061115 
L 356.218055 116.931964 
L 355.068188 120.357884 
L 355.017255 120.307082 
L 352.867621 126.075682 
L 352.781451 126.154578 
L 350.813741 130.94782 
L 350.697163 131.133491 
L 348.702496 135.522925 
L 345.794345 141.371012 
L 340.904098 150.031461 
L 340.166279 151.043108 
L 339.888723 151.670492 
L 339.150397 152.626983 
L 338.854229 153.287694 
L 338.112099 154.194105 
L 337.795841 154.886514 
L 337.049169 155.744977 
L 336.71111 156.467132 
L 335.958183 157.280302 
L 335.596305 158.029835 
L 334.835925 158.79962 
L 334.447859 159.573686 
L 333.677104 160.302783 
L 333.259989 161.097899 
L 332.476904 161.787883 
L 332.027309 162.599875 
L 331.230123 163.251927 
L 330.743928 164.075824 
L 329.932364 164.690314 
L 329.404653 165.520383 
L 328.575112 166.099107 
L 327.999768 166.928595 
L 327.148324 167.47302 
L 326.517653 168.294057 
L 325.641711 168.804912 
L 324.945994 169.608566 
L 324.043104 170.086557 
L 323.26989 170.862882 
L 322.337534 171.308872 
L 321.470552 172.047016 
L 320.328964 172.509414 
L 320.32498 172.267343 
L 320.075637 172.807563 
L 318.875247 173.896121 
L 318.861044 173.672159 
L 317.406509 175.304699 
L 317.381718 175.09639 
L 316.041174 176.653973 
L 315.98166 176.480026 
L 314.760648 177.532131 
L 314.681154 177.372252 
L 313.465443 178.300005 
L 313.365229 178.150294 
L 312.156831 178.968936 
L 312.034998 178.826076 
L 310.826165 179.553608 
L 310.681432 179.414833 
L 309.464472 180.065802 
L 309.295107 179.928785 
L 308.063505 180.514701 
L 307.867264 180.377465 
L 306.902716 180.919382 
L 304.475958 184.038294 
L 304.08616 184.214054 
L 303.61202 184.901092 
L 300.568583 187.488823 
L 300.045051 187.552468 
L 297.339889 188.864624 
L 297.178847 189.179159 
L 296.240466 189.305042 
L 295.177195 189.885263 
L 295.176361 190.136226 
L 295.170276 189.887643 
L 291.097435 190.700589 
L 289.743491 191.385246 
L 289.177568 191.210356 
L 289.079519 190.972358 
L 283.496979 191.240328 
L 278.789922 191.919217 
L 278.027453 191.686086 
L 276.523719 191.465931 
L 268.32438 191.803248 
L 265.990616 191.56027 
L 265.044601 191.328199 
L 264.166458 191.59816 
L 263.35089 191.358666 
L 262.914999 191.616939 
L 262.336826 191.122922 
L 262.246078 191.380868 
L 261.999234 191.637803 
L 261.957729 191.384754 
L 261.603754 191.642743 
L 261.558745 191.389785 
L 261.19735 191.647732 
L 261.148743 191.394868 
L 260.951884 191.651123 
L 259.923336 191.418866 
L 259.9212 191.673189 
L 259.81523 191.421581 
L 258.879329 191.683007 
L 258.758623 191.431463 
L 258.188245 191.689674 
L 257.04568 191.197171 
L 256.868415 191.708397 
L 256.760909 191.45727 
L 256.222333 191.714216 
L 255.26809 191.464165 
L 255.02418 190.956841 
L 254.729981 191.215786 
L 254.402401 190.977093 
L 254.183648 191.235438 
L 254.129484 190.979687 
L 253.911403 191.23805 
L 252.860457 191.497074 
L 252.759233 190.988065 
L 252.302154 191.246179 
L 252.24278 190.73418 
L 251.998411 190.500407 
L 251.977843 190.760211 
L 251.564116 191.022797 
L 251.460465 190.76871 
L 251.244585 191.028858 
L 250.773495 190.79121 
L 250.254678 191.054054 
L 250.123882 190.801522 
L 249.73078 191.075211 
L 249.697615 190.560186 
L 249.553989 190.823029 
L 248.977858 191.09344 
L 248.976071 190.835606 
L 248.748912 191.102378 
L 248.654694 190.85052 
L 248.403369 191.36991 
L 248.205942 191.119028 
L 247.592874 191.379904 
L 247.184062 190.883931 
L 247.08664 191.145388 
L 246.186278 191.407639 
L 246.158094 191.151367 
L 245.796967 190.919454 
L 245.696782 191.178995 
L 245.345008 191.437679 
L 245.06402 191.187721 
L 244.464655 191.447263 
L 243.946954 190.951884 
L 243.874138 191.212004 
L 242.582543 191.474068 
L 242.114478 191.230638 
L 241.981032 190.985564 
L 241.808868 191.248362 
L 241.683924 190.739409 
L 241.614242 191.260532 
L 241.49639 191.017192 
L 240.887812 191.542411 
L 240.264465 191.300667 
L 240.009237 191.049177 
L 239.924711 190.798784 
L 239.851457 191.064472 
L 239.594702 191.32832 
L 239.35882 191.092672 
L 238.478528 190.910686 
L 237.933849 191.211791 
L 237.779806 191.479468 
L 237.355212 191.007762 
L 237.325061 191.269646 
L 237.315519 191.011359 
L 237.249703 190.758068 
L 236.751839 191.315199 
L 236.475656 191.078393 
L 236.221538 191.354273 
L 235.825627 191.124835 
L 235.794006 191.386015 
L 234.963163 191.176356 
L 234.523566 190.946422 
L 234.363683 191.215358 
L 233.98126 190.982789 
L 233.874803 190.468304 
L 233.811752 190.737242 
L 233.555554 191.016504 
L 232.925542 191.564201 
L 232.611508 191.059364 
L 232.443973 190.545538 
L 232.330325 190.815675 
L 232.24207 190.561186 
L 231.989963 191.105465 
L 231.438038 191.389773 
L 231.232675 191.655694 
L 230.456892 191.169023 
L 230.285051 190.65833 
L 229.530632 191.481509 
L 228.155248 191.267595 
L 228.103206 191.010175 
L 227.919644 190.762681 
L 227.712331 191.041878 
L 227.305365 191.318607 
L 227.20713 190.79769 
L 227.180344 191.061619 
L 227.056075 191.326965 
L 226.649442 191.597109 
L 225.541681 191.371843 
L 225.036133 191.900402 
L 224.967048 191.642437 
L 224.677118 191.394117 
L 224.669679 191.132655 
L 224.566436 191.398612 
L 224.15002 191.67527 
L 224.135082 191.415525 
L 224.080736 191.677388 
L 223.580928 191.430483 
L 223.576162 191.16884 
L 223.309028 190.91478 
L 223.205918 190.391456 
L 223.046366 190.666139 
L 223.007369 190.13576 
L 222.623531 190.689902 
L 221.188574 190.991239 
L 220.882406 190.734289 
L 220.814717 190.4703 
L 220.535304 190.210147 
L 220.529771 190.477267 
L 220.411089 190.216487 
L 220.406413 190.483594 
L 220.022737 190.758001 
L 219.805412 190.497221 
L 219.748492 190.233477 
L 219.375621 189.986645 
L 219.223415 190.263342 
L 219.138629 189.999904 
L 219.043118 190.270881 
L 218.587755 190.548286 
L 218.559076 190.814565 
L 218.483296 190.551013 
L 217.89317 190.300027 
L 217.683459 190.571622 
L 217.597307 190.039251 
L 217.577491 190.308446 
L 217.476762 190.577939 
L 216.633471 190.861164 
L 216.588769 190.597891 
L 216.57195 190.863994 
L 216.287379 190.607813 
L 216.190607 190.077595 
L 216.088647 189.815615 
L 215.626269 190.108852 
L 215.61706 190.377469 
L 215.108264 190.659374 
L 214.811622 190.413373 
L 214.709203 190.152302 
L 214.518185 190.432481 
L 214.083538 190.723956 
L 213.537678 190.486522 
L 212.997132 189.717963 
L 212.594771 190.555483 
L 212.368533 190.04571 
L 212.148764 189.540866 
L 211.81681 189.865055 
L 211.689213 190.154921 
L 211.627148 189.896305 
L 211.282541 189.69137 
L 211.227566 189.971693 
L 211.182967 189.70573 
L 211.068068 189.450721 
L 210.985267 189.737583 
L 210.787988 189.222243 
L 210.590506 189.530079 
L 210.449428 189.003874 
L 210.409718 188.733265 
L 210.09539 188.239195 
L 210.040008 189.088723 
L 209.627163 189.438967 
L 209.356302 188.656585 
L 209.334578 188.940254 
L 208.558815 189.624004 
L 208.553504 189.899915 
L 208.534048 189.628205 
L 208.365953 189.382082 
L 208.244636 189.676579 
L 207.790255 190.006658 
L 207.311631 188.726673 
L 206.936512 189.648136 
L 206.749768 189.95534 
L 206.58716 189.706423 
L 206.471528 189.99811 
L 206.031402 189.77879 
L 205.74495 189.26328 
L 205.731158 189.545076 
L 205.674375 188.996799 
L 205.441383 189.872511 
L 205.083672 189.086529 
L 204.56969 189.44407 
L 204.287421 189.208159 
L 204.194643 189.782255 
L 203.89327 189.262995 
L 203.630379 188.742382 
L 203.524581 189.044645 
L 203.12978 189.387867 
L 203.097883 188.826781 
L 202.709738 188.607301 
L 202.644439 188.903302 
L 202.442328 188.651798 
L 202.403056 188.37144 
L 202.362826 188.665051 
L 202.207223 188.974568 
L 202.050568 188.713783 
L 202.039038 189.001028 
L 201.900644 189.305331 
L 201.872088 188.740761 
L 201.764226 188.75908 
L 201.683589 189.058824 
L 201.643315 188.78065 
L 201.459943 188.533538 
L 201.455192 188.821298 
L 200.869091 188.095014 
L 200.72385 188.988012 
L 200.411073 188.748906 
L 200.380736 189.040091 
L 200.169846 189.353687 
L 199.88424 188.543731 
L 199.480319 188.903133 
L 199.294556 189.219386 
L 199.267413 188.937542 
L 199.162219 189.240951 
L 198.983421 188.982201 
L 198.971615 188.406026 
L 198.96592 188.985967 
L 198.889886 188.714045 
L 198.836359 189.300011 
L 198.802034 189.019528 
L 198.576755 188.195839 
L 197.841192 188.626089 
L 197.694375 187.780337 
L 197.534153 188.400575 
L 197.128246 188.745365 
L 197.115979 188.455757 
L 196.977757 188.764515 
L 196.976906 189.054761 
L 196.904209 188.777926 
L 196.865963 188.494102 
L 196.53775 188.843774 
L 196.338712 188.313454 
L 196.143074 188.945386 
L 195.401688 189.35396 
L 195.210666 189.097511 
L 195.156934 188.81705 
L 194.910108 189.157083 
L 194.766247 190.041003 
L 194.538493 189.792331 
L 194.537464 190.07946 
L 194.281397 189.531367 
L 194.272046 189.243152 
L 194.184676 189.54356 
L 194.179754 189.254205 
L 194.086488 188.980102 
L 194.070267 189.274402 
L 194.018729 189.858626 
L 194.006655 189.572218 
L 193.915441 189.298872 
L 193.457307 189.099363 
L 193.450426 188.512705 
L 193.450354 188.80766 
L 193.167473 189.15948 
L 193.14213 188.872549 
L 192.700148 188.689339 
L 192.695119 188.394116 
L 192.60268 189.004031 
L 192.422338 188.745345 
L 192.41515 189.041597 
L 192.293016 188.774175 
L 192.202276 189.37854 
L 192.048003 189.110159 
L 191.706614 188.875916 
L 191.646861 188.593287 
L 191.549964 188.906142 
L 191.438457 188.034451 
L 191.41401 188.339196 
L 191.168194 188.1003 
L 191.063517 188.718517 
L 190.545752 189.08501 
L 190.08059 188.862374 
L 190.056226 188.569334 
L 189.252556 189.305021 
L 189.126104 189.616235 
L 188.23815 188.886745 
L 187.759506 188.67708 
L 187.721834 188.382366 
L 187.622082 188.701772 
L 187.334609 187.544391 
L 186.953923 187.323228 
L 186.922964 187.020417 
L 186.851571 187.345343 
L 186.701074 186.762155 
L 186.161052 187.210875 
L 186.019695 187.546212 
L 185.475027 187.330008 
L 185.380068 186.733995 
L 185.279508 187.0684 
L 185.093539 186.803222 
L 185.042961 186.505053 
L 185.02733 186.824796 
L 184.968109 186.525784 
L 184.9557 186.84507 
L 184.787846 187.508578 
L 184.712634 187.832133 
L 184.68548 187.527421 
L 184.64762 187.224325 
L 184.511376 187.5643 
L 184.01113 187.376551 
L 183.858956 187.726835 
L 183.736371 188.062386 
L 183.602714 187.779108 
L 183.574207 188.095083 
L 183.55423 187.789016 
L 183.512833 187.486264 
L 183.155536 187.866442 
L 183.093634 187.56876 
L 182.936691 187.916852 
L 182.933528 187.605595 
L 182.671 187.381221 
L 182.338303 187.801584 
L 182.280403 187.506454 
L 181.966002 187.291442 
L 181.962668 186.97488 
L 181.595608 186.792227 
L 181.231662 187.230615 
L 181.144043 186.940769 
L 181.137877 187.262203 
L 180.565462 187.217152 
L 180.321875 187.606699 
L 180.288154 187.298853 
L 180.171076 187.651238 
L 179.673319 187.494696 
L 179.217702 188.256124 
L 179.0606 187.986816 
L 178.555373 188.444686 
L 178.258579 188.215728 
L 177.790829 188.040797 
L 177.375943 188.479122 
L 176.998084 187.62444 
L 176.552408 188.069782 
L 176.151462 187.85765 
L 175.991027 188.222672 
L 175.763556 187.962731 
L 175.665265 187.011261 
L 175.487715 187.718844 
L 175.074249 187.176988 
L 174.397642 187.985474 
L 174.092367 187.720534 
L 173.626945 187.494798 
L 173.43129 187.236167 
L 173.2728 187.623778 
L 172.790115 187.467557 
L 172.470987 186.919305 
L 172.348194 186.631344 
L 172.34735 186.291811 
L 172.113581 186.72547 
L 171.951865 186.448958 
L 171.746905 187.200957 
L 171.644845 187.57608 
L 171.499537 186.96896 
L 171.380973 187.35156 
L 171.183971 187.108851 
L 171.091209 187.820506 
L 170.686157 186.978469 
L 170.634424 187.339252 
L 170.577852 187.023632 
L 170.222444 186.831455 
L 170.162952 187.195942 
L 170.00087 186.916258 
L 169.913668 187.29016 
L 169.261554 186.165913 
L 169.126133 185.539912 
L 168.977298 185.98092 
L 168.759535 185.754636 
L 168.640039 186.175449 
L 168.610536 185.839069 
L 168.549503 186.226779 
L 168.464247 186.6241 
L 168.004892 186.515371 
L 167.880914 186.918347 
L 167.560233 186.700982 
L 167.451929 186.04138 
L 167.410132 186.062217 
L 167.285041 186.477422 
L 167.192697 186.167278 
L 166.653892 186.762459 
L 166.467961 186.133729 
L 166.435951 186.505701 
L 166.106822 185.619055 
L 166.055142 186.011307 
L 166.039783 185.657217 
L 166.000577 185.315995 
L 165.765619 185.097665 
L 165.755962 184.733635 
L 165.736207 185.116996 
L 165.584003 184.855139 
L 165.530554 184.520963 
L 165.311342 185.038334 
L 165.295334 185.418656 
L 164.579108 186.176267 
L 164.101001 186.061486 
L 164.082462 186.438829 
L 164.07988 186.072266 
L 163.835778 185.83442 
L 163.832132 185.463437 
L 163.803022 185.851873 
L 163.784888 185.488467 
L 163.475099 185.276949 
L 163.28662 186.119395 
L 163.220284 186.152171 
L 163.104359 185.085006 
L 162.972499 185.531069 
L 162.78976 185.253645 
L 162.645492 185.708591 
L 162.586067 184.984355 
L 162.543469 185.390662 
L 162.480381 185.05097 
L 161.757908 186.226045 
L 161.753521 185.850281 
L 161.558176 186.331568 
L 161.121718 184.661172 
L 161.106285 184.278778 
L 160.865305 184.818453 
L 160.748119 185.65842 
L 160.59966 186.118054 
L 160.432577 185.828827 
L 160.408849 185.456554 
L 160.257328 185.157555 
L 160.165645 184.430857 
L 159.9612 183.779652 
L 159.712233 184.335581 
L 159.692817 183.543031 
L 159.226114 184.647592 
L 159.039689 185.552921 
L 159.035869 185.160379 
L 158.732936 184.961823 
L 158.531451 184.689045 
L 158.203046 184.517536 
L 158.144214 184.151577 
L 157.92074 184.70892 
L 157.882797 183.505605 
L 157.457557 184.646122 
L 157.274443 184.376181 
L 157.244053 184.808806 
L 156.630395 184.039686 
L 156.597891 184.480084 
L 156.58592 184.072446 
L 156.447488 183.34016 
L 156.2181 183.102741 
L 156.064115 183.651337 
L 155.935153 182.898947 
L 155.83069 183.410184 
L 155.506006 183.28288 
L 155.399559 182.948111 
L 155.251849 183.515092 
L 155.183599 183.145353 
L 154.966131 182.909009 
L 154.832712 182.157566 
L 154.531412 182.890559 
L 154.515937 183.345307 
L 154.512368 182.908036 
L 154.124814 182.865065 
L 154.015346 183.854321 
L 153.927905 183.494787 
L 153.609344 184.222447 
L 153.163431 184.168192 
L 152.881681 183.969586 
L 152.763707 184.523347 
L 152.327774 184.535615 
L 151.616654 182.548142 
L 151.572339 183.528243 
L 151.56726 183.070816 
L 151.489528 183.165516 
L 151.372791 182.376096 
L 151.125075 182.221783 
L 151.082745 181.796452 
L 150.905831 181.54229 
L 150.092971 182.104957 
L 149.874154 181.384261 
L 149.861184 181.897549 
L 149.749637 181.53868 
L 149.644861 182.657942 
L 149.466014 181.904512 
L 149.189252 180.275322 
L 149.043541 179.974298 
L 148.880307 181.762723 
L 148.77398 181.404199 
L 148.630992 179.519394 
L 148.429569 179.313747 
L 148.136798 181.359191 
L 148.068938 180.932215 
L 147.513467 181.263236 
L 147.211443 181.175128 
L 147.144858 181.809033 
L 146.880316 182.707786 
L 146.878704 182.177336 
L 146.538532 182.124234 
L 146.288202 181.388808 
L 146.132617 182.158369 
L 145.96547 181.847789 
L 145.877714 181.424561 
L 145.844485 182.02652 
L 145.8381 181.481429 
L 145.696209 182.246913 
L 145.522134 181.966869 
L 145.485531 181.463905 
L 145.326942 181.16121 
L 145.201689 179.660769 
L 144.962172 180.691169 
L 144.444197 179.880407 
L 144.270192 179.606526 
L 143.953353 179.596543 
L 143.948905 178.986243 
L 143.897316 179.701493 
L 143.85514 179.163362 
L 143.670337 178.889201 
L 143.415 178.736279 
L 143.347004 177.5852 
L 143.056622 177.524574 
L 143.038762 178.217301 
L 143.015418 177.608734 
L 142.870409 178.557744 
L 142.49979 178.651588 
L 142.363064 178.266418 
L 142.094836 178.133958 
L 141.785246 175.970512 
L 141.613027 175.615904 
L 141.457851 176.656261 
L 141.353349 176.162738 
L 141.219616 177.158157 
L 141.106303 176.681993 
L 140.736767 176.748593 
L 140.647099 176.212059 
L 140.600757 177.053729 
L 140.572207 176.379507 
L 140.337026 177.634074 
L 140.173313 177.26004 
L 140.068619 175.994668 
L 139.751217 178.213739 
L 139.630125 179.210475 
L 139.070668 179.659231 
L 138.717058 177.337556 
L 138.580589 176.844136 
L 138.549106 175.293775 
L 138.431988 174.740527 
L 138.403476 173.964869 
L 138.342789 174.948696 
L 138.148076 174.598585 
L 138.104547 173.855879 
L 137.88885 173.561281 
L 137.774606 174.728805 
L 137.576296 172.635716 
L 137.388721 172.283025 
L 137.316833 171.568224 
L 136.876765 172.005798 
L 136.782435 171.338492 
L 136.781016 170.360773 
L 136.643828 169.807749 
L 136.637526 168.808791 
L 136.587845 169.990365 
L 136.273439 169.995056 
L 136.10641 172.549045 
L 136.049442 171.729112 
L 135.803849 173.495196 
L 135.311605 174.038305 
L 135.017783 173.938607 
L 134.815916 172.479758 
L 134.554054 172.257394 
L 134.490753 170.239229 
L 134.26286 169.863793 
L 134.246829 168.741961 
L 133.815004 171.376714 
L 133.372803 171.722746 
L 133.04511 170.439235 
L 133.042422 171.679308 
L 132.856244 171.113456 
L 131.797101 177.197711 
L 131.643027 172.750886 
L 131.270577 170.020898 
L 130.914655 169.876236 
L 130.881977 167.022196 
L 130.496199 166.91876 
L 130.43136 165.563478 
L 130.409126 167.244051 
L 130.036885 167.022394 
L 129.926992 164.103794 
L 129.599561 163.661064 
L 129.409307 162.606723 
L 129.323401 164.761913 
L 127.261494 176.100041 
L 127.195003 174.647186 
L 127.143032 176.53842 
L 126.923836 178.990704 
L 126.833771 177.673341 
L 126.370021 175.927555 
L 126.071727 173.387093 
L 125.651716 173.08478 
L 125.452079 171.869413 
L 125.410455 169.942984 
L 124.957704 169.646667 
L 124.40083 169.685277 
L 123.960658 169.130114 
L 123.599916 175.26718 
L 123.470313 173.518545 
L 123.182986 172.331944 
L 121.950123 174.927257 
L 121.789383 178.069567 
L 120.160347 182.103614 
L 118.777631 179.413891 
L 117.584965 181.291846 
L 116.007682 184.659688 
L 115.830565 181.942268 
L 114.526571 183.758494 
L 114.28987 188.438105 
L 112.795923 191.124442 
L 112.465316 188.57299 
L 110.442419 193.182162 
L 110.368718 188.848212 
L 108.96374 199.624698 
L 107.977191 208.154891 
L 106.885998 208.544711 
L 104.959142 212.065548 
L 104.712015 208.033457 
L 103.244177 208.729704 
L 100.883911 212.49093 
L 100.598288 206.583518 
L 99.364522 203.692156 
L 97.463804 202.38801 
L 97.024531 192.397603 
L 93.638881 192.081363 
L 89.462199 188.989516 
L 69.218182 242.116364 
L 69.218182 242.116364 
" style="fill:none;stroke:#1f77b4;stroke-dasharray:7.5,2.5;stroke-dashoffset:0;stroke-width:2.5;"/>
   </g>
   <g id="line2d_38">
    <defs>
     <path d="M -6 6 
L 6 -6 
M -6 -6 
L 6 6 
" id="medc66433b9" style="stroke:#000000;"/>
    </defs>
    <g clip-path="url(#p4db4ca6098)">
     <use style="stroke:#000000;" x="283.496979" xlink:href="#medc66433b9" y="191.240328"/>
    </g>
   </g>
   <g id="line2d_39">
    <defs>
     <path d="M -3 3 
L 3 3 
L 3 -3 
L -3 -3 
z
" id="m0f834e8588" style="stroke:#0000ff;stroke-linejoin:miter;"/>
    </defs>
    <g clip-path="url(#p4db4ca6098)">
     <use style="fill:#0000ff;stroke:#0000ff;stroke-linejoin:miter;" x="69.218182" xlink:href="#m0f834e8588" y="242.116364"/>
    </g>
   </g>
   <g id="line2d_40">
    <defs>
     <path d="M 0 3 
C 0.795609 3 1.55874 2.683901 2.12132 2.12132 
C 2.683901 1.55874 3 0.795609 3 0 
C 3 -0.795609 2.683901 -1.55874 2.12132 -2.12132 
C 1.55874 -2.683901 0.795609 -3 0 -3 
C -0.795609 -3 -1.55874 -2.683901 -2.12132 -2.12132 
C -2.683901 -1.55874 -3 -0.795609 -3 0 
C -3 0.795609 -2.683901 1.55874 -2.12132 2.12132 
C -1.55874 2.683901 -0.795609 3 0 3 
z
" id="mbd70f4bf51" style="stroke:#ff0000;"/>
    </defs>
    <g clip-path="url(#p4db4ca6098)">
     <use style="fill:#ff0000;stroke:#ff0000;" x="277.65624" xlink:href="#mbd70f4bf51" y="155.584825"/>
    </g>
   </g>
   <g id="line2d_41">
    <path clip-path="url(#p4db4ca6098)" d="M 373.581818 44.443636 
L 373.074859 45.808178 
L 373.060791 45.611289 
L 370.76551 52.497122 
L 368.574932 58.329297 
L 366.446599 63.266141 
L 364.345306 67.43146 
L 362.239149 70.927076 
L 360.097393 73.838876 
L 357.88679 76.242221 
L 355.568762 78.20337 
L 353.717863 79.499652 
L 353.094382 79.78103 
L 351.156454 80.805178 
L 350.395239 81.02746 
L 348.318516 81.834016 
L 347.369106 81.988219 
L 345.073228 82.623146 
L 344.564413 82.51865 
L 344.445336 82.686091 
L 343.004227 86.027662 
L 342.953659 85.960051 
L 342.790322 86.881112 
L 342.629865 86.973415 
L 339.598981 93.370283 
L 336.105487 99.256783 
L 334.310869 101.477016 
L 332.687278 103.304086 
L 332.463717 103.924547 
L 329.270227 106.864583 
L 329.03722 107.434205 
L 329.022459 107.239385 
L 327.169323 114.210638 
L 322.230793 132.121165 
L 318.431418 144.783765 
L 318.391855 144.673148 
L 316.143748 152.104852 
L 314.778922 156.172171 
L 313.689593 158.821739 
L 312.064051 163.080727 
L 312.050131 162.865911 
L 309.511054 168.702266 
L 306.215963 174.905791 
L 305.394583 176.062152 
L 301.289514 180.801158 
L 300.408408 181.238389 
L 297.016323 183.300927 
L 294.732524 184.074554 
L 294.639727 184.357496 
L 294.590158 184.161829 
L 293.63753 185.289788 
L 293.280223 186.023894 
L 293.214506 185.881466 
L 292.34966 187.237247 
L 291.337963 188.372858 
L 290.450171 188.483412 
L 290.288219 188.906474 
L 287.235011 191.792827 
L 286.31185 192.497186 
L 284.679567 193.094336 
L 282.283023 194.44887 
L 281.817869 194.550684 
L 281.461802 194.935727 
L 280.732394 195.415564 
L 280.596959 195.206091 
L 279.952542 195.595598 
L 279.345177 195.73712 
L 279.092242 196.039352 
L 276.743481 196.318565 
L 275.51824 196.811613 
L 274.852189 196.671431 
L 274.106279 196.76726 
L 273.279113 197.144644 
L 273.101261 196.926515 
L 272.635194 197.241353 
L 272.452126 197.019754 
L 272.35815 197.286239 
L 272.313886 197.039003 
L 271.883123 197.005463 
L 271.656503 197.351058 
L 271.504486 197.166509 
L 270.872947 197.761245 
L 270.363114 197.578689 
L 270.295343 197.840421 
L 269.790906 197.655789 
L 269.168033 197.664956 
L 268.862422 198.021393 
L 268.789412 198.28287 
L 267.848086 198.128276 
L 267.836349 197.874261 
L 267.781157 198.138511 
L 267.623297 198.40495 
L 267.337522 197.692235 
L 267.178925 198.224024 
L 267.147125 197.974108 
L 266.75134 197.801334 
L 266.153832 197.750358 
L 265.695628 198.409215 
L 265.51737 198.204198 
L 265.272037 198.750637 
L 265.248697 198.498133 
L 265.034246 198.78135 
L 265.009708 199.038373 
L 264.788491 198.810389 
L 264.77046 198.556814 
L 264.688915 198.819502 
L 264.509983 198.594268 
L 264.457084 198.854796 
L 263.776641 198.704754 
L 263.733113 198.965478 
L 263.502787 198.73543 
L 263.321256 199.008326 
L 262.728173 198.828695 
L 262.507649 198.60129 
L 262.490615 198.344436 
L 262.019078 198.190779 
L 260.847531 198.932145 
L 260.828612 199.191099 
L 260.035013 199.011692 
L 259.865925 199.284353 
L 259.285953 199.08079 
L 259.063978 199.609565 
L 257.820039 199.446075 
L 257.812301 199.703039 
L 257.174318 199.247837 
L 257.042506 199.519896 
L 256.412717 199.333034 
L 255.996832 199.632922 
L 255.090962 199.464936 
L 255.030722 199.21133 
L 254.986183 199.47292 
L 254.539082 199.751946 
L 254.408895 200.012247 
L 254.013264 199.773204 
L 253.961497 200.032074 
L 252.52433 199.833717 
L 252.265721 200.098764 
L 251.822436 199.602954 
L 251.753475 199.862783 
L 251.41862 199.621334 
L 251.294429 199.368639 
L 251.067649 199.638697 
L 250.923608 199.389559 
L 250.538121 199.15575 
L 250.377109 198.381882 
L 250.285229 198.654871 
L 250.149995 198.930075 
L 250.116084 198.673622 
L 249.393493 199.254963 
L 249.381576 199.516185 
L 248.873225 199.2855 
L 248.586102 199.81707 
L 247.994576 199.073129 
L 246.654355 199.419887 
L 246.527822 198.911368 
L 246.513021 199.176541 
L 246.361975 199.445694 
L 246.328007 199.18587 
L 246.282266 199.449476 
L 246.262646 199.710562 
L 246.025668 199.458701 
L 245.865154 199.982473 
L 245.207088 199.740409 
L 245.061315 199.484899 
L 244.954845 199.747973 
L 244.811374 199.492389 
L 244.757445 199.754164 
L 243.498415 199.015053 
L 243.490109 199.278369 
L 243.325188 199.543992 
L 243.170708 199.28652 
L 242.974275 199.813249 
L 242.71581 199.579506 
L 242.43284 199.845895 
L 242.213554 199.591304 
L 242.190448 199.852258 
L 241.763547 200.11679 
L 241.520126 199.862302 
L 241.312546 200.123961 
L 240.755159 199.872795 
L 240.748788 199.612424 
L 240.432982 199.357765 
L 239.929598 199.6279 
L 239.584232 199.373351 
L 239.029598 199.643321 
L 238.779038 198.875983 
L 238.238422 199.419521 
L 237.864871 199.168027 
L 236.997493 199.45076 
L 236.92927 199.19012 
L 236.305074 199.466547 
L 235.932571 199.212766 
L 235.618752 199.743502 
L 235.496622 199.483929 
L 235.199551 199.750346 
L 235.149901 199.489415 
L 234.096475 199.244222 
L 233.962594 198.983001 
L 233.882676 199.248608 
L 233.591391 199.514829 
L 233.315439 198.992357 
L 233.238249 198.732608 
L 232.999845 199.01466 
L 232.965052 198.751785 
L 232.834553 199.020824 
L 232.392703 198.767356 
L 232.016069 199.301254 
L 231.213476 199.045612 
L 230.9752 198.78304 
L 230.869292 199.049552 
L 230.475078 199.316149 
L 230.42722 199.052157 
L 230.181565 199.317873 
L 229.677678 199.583546 
L 229.468746 199.322635 
L 229.464166 199.585729 
L 229.024369 199.329482 
L 228.997785 199.068768 
L 228.847837 199.341165 
L 228.39506 199.62172 
L 227.841108 199.379041 
L 227.050194 199.166162 
L 227.032243 198.901613 
L 226.777895 198.654656 
L 226.730614 198.924518 
L 226.461749 198.42505 
L 226.070767 198.723175 
L 226.051586 198.456321 
L 225.463002 199.561038 
L 225.335853 199.300905 
L 225.034037 199.047979 
L 224.711589 199.323705 
L 224.477203 199.070863 
L 224.450755 198.805316 
L 224.443028 199.072717 
L 224.195907 198.553839 
L 224.136329 198.826824 
L 224.129724 198.559445 
L 223.663292 199.130873 
L 223.497419 198.878038 
L 223.318003 199.157671 
L 222.987896 198.645698 
L 222.73032 199.459525 
L 222.502105 199.202698 
L 221.6489 198.987277 
L 221.46992 198.732522 
L 221.34263 199.273432 
L 221.102786 198.483681 
L 220.724478 198.786558 
L 220.716895 198.517626 
L 220.662662 198.790702 
L 220.43631 198.536716 
L 220.192338 198.821033 
L 219.45953 199.123932 
L 219.360995 198.591479 
L 219.230257 198.867293 
L 219.147381 198.60228 
L 218.961568 199.147439 
L 218.086124 199.436014 
L 217.690129 198.911168 
L 217.531403 199.183827 
L 217.444087 198.922287 
L 217.028498 199.221467 
L 216.533971 198.989499 
L 216.491898 199.259759 
L 215.939133 199.547083 
L 215.887604 199.814514 
L 215.826157 199.552567 
L 215.410206 199.830417 
L 215.027688 199.577208 
L 214.732354 198.798966 
L 214.626884 199.078055 
L 214.591668 198.811659 
L 214.568463 199.083047 
L 214.317967 198.83577 
L 213.76135 199.149403 
L 213.755185 198.88045 
L 213.624579 198.353538 
L 213.609254 198.627795 
L 213.135708 198.935873 
L 213.003977 198.674834 
L 212.688244 199.236101 
L 212.455148 198.986201 
L 212.29308 199.268827 
L 211.956967 199.555347 
L 211.946817 199.287558 
L 211.737212 199.033894 
L 211.709771 198.765713 
L 211.205628 199.605352 
L 210.810063 199.362804 
L 210.343796 198.598965 
L 210.086352 198.895033 
L 210.026801 199.170719 
L 209.967475 198.904295 
L 209.786516 198.646066 
L 209.664513 198.927612 
L 209.371828 198.680435 
L 209.321288 198.411791 
L 208.946785 198.713825 
L 208.898855 198.989187 
L 208.717445 198.72894 
L 208.388399 199.021288 
L 207.489877 198.854315 
L 207.413479 199.134259 
L 207.307298 198.874634 
L 207.192881 199.158154 
L 206.758299 198.384358 
L 206.290357 198.70667 
L 206.0101 197.909694 
L 205.847346 198.207642 
L 205.504527 197.970311 
L 204.790571 198.318145 
L 204.758651 198.597677 
L 204.330326 198.086997 
L 204.2788 198.370214 
L 204.196973 198.100356 
L 203.592945 198.426542 
L 203.434923 197.888806 
L 203.374111 198.17418 
L 203.221405 197.630277 
L 203.193214 197.914027 
L 203.174542 198.19529 
L 202.827889 198.503545 
L 201.721573 198.850042 
L 201.413071 198.591491 
L 201.379015 198.315568 
L 201.35252 198.595204 
L 200.62597 197.247031 
L 200.614468 196.962923 
L 200.585592 197.251428 
L 199.963593 196.454553 
L 199.867869 196.754161 
L 199.503368 196.23142 
L 199.303865 196.836456 
L 199.239358 196.557172 
L 199.218072 196.848531 
L 198.889039 197.172727 
L 198.8531 197.461724 
L 198.810602 197.181931 
L 198.253059 197.816417 
L 198.125511 197.54762 
L 197.655014 197.87092 
L 197.421146 197.606212 
L 197.1072 198.195709 
L 196.758842 197.655049 
L 196.72162 197.087302 
L 196.339767 197.987 
L 196.127115 197.433147 
L 195.640461 197.186138 
L 195.498975 196.915219 
L 195.441919 197.208203 
L 195.110418 196.945021 
L 195.044703 196.660649 
L 194.98564 196.955198 
L 194.89884 196.676088 
L 194.531348 196.434438 
L 194.438663 196.733999 
L 194.376518 196.448762 
L 194.064458 196.770201 
L 193.945119 197.356862 
L 193.593237 197.093501 
L 193.236677 195.967462 
L 193.211473 195.676601 
L 193.175872 196.275123 
L 193.094765 196.581303 
L 193.012563 196.006763 
L 192.91727 196.316648 
L 192.296147 197.262731 
L 192.291407 197.551696 
L 192.279962 197.264119 
L 191.55119 197.610112 
L 191.279205 197.057985 
L 191.031591 197.658586 
L 190.801178 197.10292 
L 190.741579 196.526522 
L 190.706379 197.117136 
L 190.657945 196.833659 
L 190.575779 197.137704 
L 190.261513 196.897511 
L 190.223345 197.195176 
L 190.038244 197.508875 
L 190.009173 197.22407 
L 189.989544 197.516624 
L 189.565772 197.27875 
L 189.353457 197.590638 
L 189.347122 197.301215 
L 189.197459 197.895783 
L 188.939058 197.627835 
L 188.89438 197.341225 
L 188.721697 197.646451 
L 188.65718 197.362827 
L 188.385949 197.098195 
L 188.359574 196.807747 
L 188.247673 197.112054 
L 188.091138 196.834142 
L 188.053144 196.246578 
L 187.884571 196.855543 
L 187.555116 197.180072 
L 187.541056 197.472895 
L 187.343888 197.197442 
L 186.61585 196.971045 
L 186.501787 196.389902 
L 185.994671 196.151505 
L 185.975195 196.451549 
L 185.896722 196.163001 
L 185.631435 195.300406 
L 185.403386 195.036886 
L 185.38754 195.344638 
L 185.326485 195.055218 
L 185.291366 194.757371 
L 185.10624 195.409962 
L 185.065567 195.719124 
L 184.811932 196.353214 
L 184.654946 196.072275 
L 184.591843 196.379611 
L 184.329069 196.702165 
L 184.286935 196.108645 
L 184.266368 196.410805 
L 184.152192 196.721103 
L 184.023604 195.837147 
L 183.870308 196.155355 
L 183.490055 195.899542 
L 183.449702 196.504941 
L 183.272683 196.81819 
L 183.255913 197.115943 
L 183.183141 196.826631 
L 183.127733 196.53441 
L 183.007526 196.841819 
L 182.860638 196.257199 
L 182.732829 196.568855 
L 182.507456 196.291353 
L 182.099083 196.62942 
L 181.889273 196.350794 
L 181.857855 196.653651 
L 181.750242 196.062554 
L 181.438952 195.794694 
L 181.00558 196.13663 
L 180.810531 195.546726 
L 180.699253 195.252676 
L 180.629544 195.566627 
L 180.276105 195.904755 
L 180.186443 195.304825 
L 179.988526 195.635268 
L 179.953272 195.332998 
L 179.160798 196.037438 
L 179.156075 196.341118 
L 178.973687 196.055892 
L 178.663932 196.386751 
L 178.27663 195.20424 
L 178.133537 194.912309 
L 178.034197 194.299175 
L 177.845524 193.694411 
L 177.819132 193.380003 
L 177.779499 194.024672 
L 177.670334 193.726056 
L 177.477893 194.388802 
L 177.364975 194.718971 
L 177.034757 194.452236 
L 176.621859 193.565291 
L 176.521273 193.900465 
L 176.329174 193.301438 
L 176.116482 193.65691 
L 176.037776 193.351204 
L 175.677921 193.10884 
L 175.643916 193.438863 
L 175.44045 193.156985 
L 175.125832 193.537518 
L 174.91115 192.936027 
L 174.831934 193.59935 
L 174.722236 193.298596 
L 174.63694 193.638794 
L 174.554366 193.333734 
L 173.730769 194.106211 
L 173.559048 193.48893 
L 173.410571 193.835797 
L 173.364881 193.52174 
L 173.192937 193.231917 
L 173.06073 193.578366 
L 173.033922 193.257524 
L 172.814331 193.940137 
L 172.768935 193.62422 
L 172.676419 193.315089 
L 171.813932 193.132476 
L 171.806586 192.804229 
L 171.602492 192.181721 
L 171.488327 191.880144 
L 171.43622 192.229728 
L 171.388228 191.907988 
L 171.189025 192.279633 
L 171.097101 191.636367 
L 171.051741 191.986885 
L 170.815719 192.718288 
L 170.700275 192.415105 
L 170.533583 192.791093 
L 170.508815 193.128665 
L 170.437211 192.815786 
L 170.195353 192.547411 
L 169.999376 193.586803 
L 169.972424 193.263936 
L 169.680893 192.692928 
L 169.646394 193.036221 
L 169.370546 192.125402 
L 169.190873 192.529172 
L 169.167762 192.872857 
L 168.879807 193.304075 
L 168.589522 192.734991 
L 168.449179 193.113556 
L 168.312732 192.490039 
L 168.280553 192.838932 
L 167.556554 192.764761 
L 167.427762 192.47099 
L 167.376253 192.828171 
L 167.349762 192.497765 
L 167.318449 192.16719 
L 167.151712 191.884013 
L 166.991099 192.623297 
L 166.667405 192.382999 
L 166.569917 192.070381 
L 166.535782 192.424749 
L 166.463143 192.102421 
L 166.444611 191.761995 
L 166.139873 191.160746 
L 166.135689 191.513086 
L 166.013351 191.899676 
L 165.979339 191.562865 
L 165.636926 191.340229 
L 165.563632 190.665684 
L 165.367197 191.102729 
L 165.358042 191.459737 
L 165.049042 191.922849 
L 164.934297 190.913338 
L 164.644985 191.395736 
L 164.379695 191.156702 
L 164.332403 190.4598 
L 164.224985 190.868934 
L 164.169442 190.535331 
L 164.107169 190.924643 
L 163.707908 190.4559 
L 163.664382 190.118962 
L 163.30274 190.712029 
L 163.14636 190.444993 
L 163.136105 190.084035 
L 162.854104 189.917529 
L 162.718227 191.107372 
L 162.68337 190.764896 
L 162.660922 190.412708 
L 162.475325 190.173546 
L 162.201709 191.072911 
L 162.08062 190.413131 
L 162.045862 190.805444 
L 161.945056 191.235035 
L 161.213864 190.557309 
L 161.209648 190.932669 
L 161.010524 191.406058 
L 160.800464 191.14359 
L 160.455796 190.214922 
L 160.068559 189.699322 
L 159.937639 189.397281 
L 159.543625 189.264763 
L 159.404976 188.96427 
L 159.363329 189.382202 
L 159.36091 188.991598 
L 159.264047 188.659621 
L 159.046246 189.193 
L 159.014653 188.41996 
L 158.735926 188.986222 
L 158.558333 188.69554 
L 158.3339 189.224026 
L 158.326503 189.623186 
L 158.101042 190.129746 
L 158.049676 190.543726 
L 157.823251 191.035761 
L 157.776226 191.440801 
L 157.553921 190.771129 
L 157.492112 191.184854 
L 157.390181 190.846684 
L 157.347138 191.251016 
L 157.078766 190.598663 
L 156.785624 189.181074 
L 156.74861 188.393578 
L 156.454906 188.985364 
L 156.366062 188.633324 
L 156.208029 189.133701 
L 156.203545 188.729288 
L 156.144864 189.17034 
L 155.840617 189.740452 
L 155.734043 190.188538 
L 155.526931 189.887727 
L 155.521313 189.486985 
L 155.350785 189.179313 
L 155.202156 187.202516 
L 155.173487 187.649404 
L 154.80065 188.732562 
L 154.767284 188.337602 
L 154.148278 189.128568 
L 153.985079 188.825403 
L 153.96184 189.256798 
L 153.561206 189.894013 
L 153.362337 189.186014 
L 153.083528 189.765878 
L 153.063341 190.190358 
L 153.040413 189.790877 
L 152.843393 189.07814 
L 152.779271 189.536534 
L 152.731352 189.146031 
L 152.456297 188.910066 
L 152.413322 188.513219 
L 152.366907 188.971185 
L 152.147952 188.267029 
L 152.135342 187.842273 
L 151.988416 187.512495 
L 151.722872 188.125885 
L 151.72164 188.5601 
L 151.580809 189.066987 
L 151.572821 188.641873 
L 151.484001 189.123633 
L 151.387953 189.600902 
L 151.166014 189.298863 
L 151.094321 188.48322 
L 150.824015 188.251147 
L 150.706628 187.9027 
L 150.662027 188.376625 
L 150.29285 186.913391 
L 150.190869 187.459801 
L 149.705516 185.670439 
L 149.596386 186.250054 
L 149.335417 184.652081 
L 149.035757 183.61072 
L 148.904227 184.295655 
L 148.586602 183.257692 
L 148.395215 184.034013 
L 148.38969 183.031934 
L 148.335293 183.615456 
L 147.773299 183.88323 
L 147.684728 184.499565 
L 147.680044 183.997904 
L 147.612908 183.570027 
L 147.121466 183.654171 
L 147.109154 183.146937 
L 146.994078 183.804066 
L 146.689926 184.656718 
L 146.432429 184.414682 
L 146.289825 183.523133 
L 146.242249 182.510035 
L 145.974535 182.298675 
L 145.957022 181.774106 
L 145.948157 182.335408 
L 145.669154 182.187992 
L 145.457852 183.031588 
L 145.04693 183.073419 
L 144.926902 182.712626 
L 144.869826 181.681793 
L 144.617136 181.545045 
L 144.279166 182.681426 
L 144.219202 182.209105 
L 143.929325 183.249974 
L 143.854601 182.796667 
L 143.812655 183.434093 
L 143.810295 182.86541 
L 143.767167 182.35854 
L 143.467015 181.719405 
L 143.373101 180.698989 
L 143.312648 181.418967 
L 143.152284 181.137345 
L 142.109338 181.616499 
L 142.057194 181.101276 
L 141.862334 182.165413 
L 141.814799 181.638074 
L 141.586083 181.511316 
L 141.56647 182.195881 
L 141.485319 181.737329 
L 141.354023 181.382269 
L 141.328796 180.781784 
L 141.133729 180.586051 
L 140.664514 178.25647 
L 140.320468 178.360162 
L 140.190212 177.946819 
L 139.860613 178.066057 
L 139.739207 177.631557 
L 139.34559 180.100117 
L 139.208085 178.950923 
L 139.070513 178.548397 
L 139.032935 177.876439 
L 138.827167 177.633831 
L 138.714175 177.136617 
L 138.641514 175.707388 
L 138.559489 175.102458 
L 138.539553 175.986329 
L 138.213017 175.186578 
L 138.193332 176.081029 
L 138.003735 175.744183 
L 137.749967 175.565805 
L 137.534111 173.522347 
L 137.269897 173.378671 
L 137.128317 175.595034 
L 136.988537 175.089794 
L 136.868544 172.66293 
L 136.838213 171.792443 
L 136.611788 171.527262 
L 136.181689 171.889376 
L 135.875614 171.845797 
L 135.431002 174.243176 
L 135.178073 174.007121 
L 134.712946 174.452062 
L 134.677091 173.506129 
L 134.598539 174.812275 
L 134.589823 173.779651 
L 134.547563 172.834141 
L 134.249733 172.711927 
L 133.663955 173.547183 
L 133.482761 172.997686 
L 133.457136 170.705047 
L 133.058652 170.870688 
L 132.536741 171.414137 
L 132.505859 170.235459 
L 132.23202 169.899398 
L 132.139706 167.495787 
L 131.642631 166.485595 
L 131.547013 165.346714 
L 131.332741 169.13925 
L 131.055902 168.746172 
L 130.904642 167.83071 
L 130.392132 168.283972 
L 130.143136 170.799133 
L 128.41698 176.024146 
L 128.208185 173.601502 
L 127.596886 174.337717 
L 127.588142 176.071605 
L 127.400041 175.114488 
L 127.371187 173.474329 
L 127.14387 172.595591 
L 126.625567 176.53176 
L 125.145711 180.745314 
L 124.911265 179.848101 
L 124.097947 181.29404 
L 122.715016 188.928213 
L 122.14796 189.288197 
L 121.850802 188.4723 
L 121.825872 186.473851 
L 121.573603 189.588205 
L 120.898978 190.288239 
L 119.261384 194.817316 
L 118.873559 194.11389 
L 118.21986 194.391771 
L 118.112079 197.206534 
L 117.476099 197.477614 
L 117.453296 192.470641 
L 116.565669 198.770543 
L 116.440493 196.681443 
L 116.431661 193.972622 
L 116.22272 191.955433 
L 115.145119 193.433854 
L 113.851552 195.706195 
L 112.814683 196.682138 
L 112.706275 200.595065 
L 112.505887 197.994637 
L 111.967996 203.7206 
L 111.194196 210.187252 
L 110.545692 209.70027 
L 110.084962 208.237882 
L 108.157151 212.844911 
L 107.355933 212.304973 
L 106.264712 212.666625 
L 105.382217 211.74048 
L 103.329876 215.213069 
L 102.906361 211.373908 
L 102.645232 206.210128 
L 101.893968 215.791618 
L 100.197988 216.861585 
L 98.872434 215.527742 
L 98.14659 210.456701 
L 97.601692 203.08534 
L 95.69871 199.575185 
L 94.197938 218.111234 
L 91.912478 216.249764 
L 86.213903 225.730334 
L 83.804759 214.691922 
L 75.732746 213.183837 
L 75.732746 213.183837 
" style="fill:none;stroke:#ff7f0e;stroke-dasharray:2500,2.5;stroke-dashoffset:0;stroke-width:2.5;"/>
   </g>
   <g id="line2d_42">
    <g clip-path="url(#p4db4ca6098)">
     <use style="stroke:#000000;" x="249.393493" xlink:href="#medc66433b9" y="199.254963"/>
    </g>
   </g>
   <g id="line2d_43">
    <g clip-path="url(#p4db4ca6098)">
     <use style="fill:#0000ff;stroke:#0000ff;stroke-linejoin:miter;" x="86.213903" xlink:href="#m0f834e8588" y="225.730334"/>
    </g>
   </g>
   <g id="line2d_44">
    <g clip-path="url(#p4db4ca6098)">
     <use style="fill:#ff0000;stroke:#ff0000;" x="256.893806" xlink:href="#mbd70f4bf51" y="111.305614"/>
    </g>
   </g>
   <g id="patch_3">
    <path d="M 54 252 
L 54 34.56 
" style="fill:none;stroke:#000000;stroke-linecap:square;stroke-linejoin:miter;stroke-width:0.8;"/>
   </g>
   <g id="patch_4">
    <path d="M 388.8 252 
L 388.8 34.56 
" style="fill:none;stroke:#000000;stroke-linecap:square;stroke-linejoin:miter;stroke-width:0.8;"/>
   </g>
   <g id="patch_5">
    <path d="M 54 252 
L 388.8 252 
" style="fill:none;stroke:#000000;stroke-linecap:square;stroke-linejoin:miter;stroke-width:0.8;"/>
   </g>
   <g id="patch_6">
    <path d="M 54 34.56 
L 388.8 34.56 
" style="fill:none;stroke:#000000;stroke-linecap:square;stroke-linejoin:miter;stroke-width:0.8;"/>
   </g>
   <g id="text_12">
    <!-- GCV function for $\ell_1$ trend filter ($\sigma = 0.01$) -->
    <defs>
     <path id="DejaVuSans-32"/>
     <path d="M 37.109375 75.984375 
L 37.109375 68.5 
L 28.515625 68.5 
Q 23.6875 68.5 21.796875 66.546875 
Q 19.921875 64.59375 19.921875 59.515625 
L 19.921875 54.6875 
L 34.71875 54.6875 
L 34.71875 47.703125 
L 19.921875 47.703125 
L 19.921875 0 
L 10.890625 0 
L 10.890625 47.703125 
L 2.296875 47.703125 
L 2.296875 54.6875 
L 10.890625 54.6875 
L 10.890625 58.5 
Q 10.890625 67.625 15.140625 71.796875 
Q 19.390625 75.984375 28.609375 75.984375 
z
" id="DejaVuSans-102"/>
     <path d="M 8.5 21.578125 
L 8.5 54.6875 
L 17.484375 54.6875 
L 17.484375 21.921875 
Q 17.484375 14.15625 20.5 10.265625 
Q 23.53125 6.390625 29.59375 6.390625 
Q 36.859375 6.390625 41.078125 11.03125 
Q 45.3125 15.671875 45.3125 23.6875 
L 45.3125 54.6875 
L 54.296875 54.6875 
L 54.296875 0 
L 45.3125 0 
L 45.3125 8.40625 
Q 42.046875 3.421875 37.71875 1 
Q 33.40625 -1.421875 27.6875 -1.421875 
Q 18.265625 -1.421875 13.375 4.4375 
Q 8.5 10.296875 8.5 21.578125 
z
M 31.109375 56 
z
" id="DejaVuSans-117"/>
     <path d="M 54.890625 33.015625 
L 54.890625 0 
L 45.90625 0 
L 45.90625 32.71875 
Q 45.90625 40.484375 42.875 44.328125 
Q 39.84375 48.1875 33.796875 48.1875 
Q 26.515625 48.1875 22.3125 43.546875 
Q 18.109375 38.921875 18.109375 30.90625 
L 18.109375 0 
L 9.078125 0 
L 9.078125 54.6875 
L 18.109375 54.6875 
L 18.109375 46.1875 
Q 21.34375 51.125 25.703125 53.5625 
Q 30.078125 56 35.796875 56 
Q 45.21875 56 50.046875 50.171875 
Q 54.890625 44.34375 54.890625 33.015625 
z
" id="DejaVuSans-110"/>
     <path d="M 48.78125 52.59375 
L 48.78125 44.1875 
Q 44.96875 46.296875 41.140625 47.34375 
Q 37.3125 48.390625 33.40625 48.390625 
Q 24.65625 48.390625 19.8125 42.84375 
Q 14.984375 37.3125 14.984375 27.296875 
Q 14.984375 17.28125 19.8125 11.734375 
Q 24.65625 6.203125 33.40625 6.203125 
Q 37.3125 6.203125 41.140625 7.25 
Q 44.96875 8.296875 48.78125 10.40625 
L 48.78125 2.09375 
Q 45.015625 0.34375 40.984375 -0.53125 
Q 36.96875 -1.421875 32.421875 -1.421875 
Q 20.0625 -1.421875 12.78125 6.34375 
Q 5.515625 14.109375 5.515625 27.296875 
Q 5.515625 40.671875 12.859375 48.328125 
Q 20.21875 56 33.015625 56 
Q 37.15625 56 41.109375 55.140625 
Q 45.0625 54.296875 48.78125 52.59375 
z
" id="DejaVuSans-99"/>
     <path d="M 18.3125 70.21875 
L 18.3125 54.6875 
L 36.8125 54.6875 
L 36.8125 47.703125 
L 18.3125 47.703125 
L 18.3125 18.015625 
Q 18.3125 11.328125 20.140625 9.421875 
Q 21.96875 7.515625 27.59375 7.515625 
L 36.8125 7.515625 
L 36.8125 0 
L 27.59375 0 
Q 17.1875 0 13.234375 3.875 
Q 9.28125 7.765625 9.28125 18.015625 
L 9.28125 47.703125 
L 2.6875 47.703125 
L 2.6875 54.6875 
L 9.28125 54.6875 
L 9.28125 70.21875 
z
" id="DejaVuSans-116"/>
     <path d="M 9.421875 54.6875 
L 18.40625 54.6875 
L 18.40625 0 
L 9.421875 0 
z
M 9.421875 75.984375 
L 18.40625 75.984375 
L 18.40625 64.59375 
L 9.421875 64.59375 
z
" id="DejaVuSans-105"/>
     <path d="M 30.609375 48.390625 
Q 23.390625 48.390625 19.1875 42.75 
Q 14.984375 37.109375 14.984375 27.296875 
Q 14.984375 17.484375 19.15625 11.84375 
Q 23.34375 6.203125 30.609375 6.203125 
Q 37.796875 6.203125 41.984375 11.859375 
Q 46.1875 17.53125 46.1875 27.296875 
Q 46.1875 37.015625 41.984375 42.703125 
Q 37.796875 48.390625 30.609375 48.390625 
z
M 30.609375 56 
Q 42.328125 56 49.015625 48.375 
Q 55.71875 40.765625 55.71875 27.296875 
Q 55.71875 13.875 49.015625 6.21875 
Q 42.328125 -1.421875 30.609375 -1.421875 
Q 18.84375 -1.421875 12.171875 6.21875 
Q 5.515625 13.875 5.515625 27.296875 
Q 5.515625 40.765625 12.171875 48.375 
Q 18.84375 56 30.609375 56 
z
" id="DejaVuSans-111"/>
     <path d="M 41.109375 46.296875 
Q 39.59375 47.171875 37.8125 47.578125 
Q 36.03125 48 33.890625 48 
Q 26.265625 48 22.1875 43.046875 
Q 18.109375 38.09375 18.109375 28.8125 
L 18.109375 0 
L 9.078125 0 
L 9.078125 54.6875 
L 18.109375 54.6875 
L 18.109375 46.1875 
Q 20.953125 51.171875 25.484375 53.578125 
Q 30.03125 56 36.53125 56 
Q 37.453125 56 38.578125 55.875 
Q 39.703125 55.765625 41.0625 55.515625 
z
" id="DejaVuSans-114"/>
     <path d="M 14.84375 13.09375 
Q 16.84375 3.328125 21.09375 3.328125 
Q 23.921875 3.328125 27.59375 8.9375 
L 34.078125 8.9375 
Q 31.15625 3.953125 27.734375 1.375 
Q 24.03125 -1.421875 20.609375 -1.421875 
Q 12.984375 -1.421875 9.90625 5.375 
L 6.25 0 
L -1.375 0 
Q 3.90625 7.171875 7.8125 13.875 
Q 7.328125 17.671875 7.328125 21.828125 
Q 7.328125 29.25 8.84375 36.671875 
Q 14.546875 64.546875 19.625 70.265625 
Q 23.140625 74.21875 29.15625 74.21875 
Q 35.25 74.21875 35.25 65.765625 
Q 35.203125 61.96875 34.328125 57.421875 
Q 30.8125 38.8125 14.84375 13.09375 
z
M 14.796875 25.875 
Q 23.921875 42.875 26.703125 56.453125 
Q 28.171875 63.625 28.171875 65.484375 
Q 28.171875 68.84375 26.953125 68.84375 
Q 21.625 64.59375 16.890625 39.3125 
Q 15.578125 32.234375 14.796875 25.875 
z
" id="DejaVuSans-Oblique-8467"/>
     <path d="M 56.203125 29.59375 
L 56.203125 25.203125 
L 14.890625 25.203125 
Q 15.484375 15.921875 20.484375 11.0625 
Q 25.484375 6.203125 34.421875 6.203125 
Q 39.59375 6.203125 44.453125 7.46875 
Q 49.3125 8.734375 54.109375 11.28125 
L 54.109375 2.78125 
Q 49.265625 0.734375 44.1875 -0.34375 
Q 39.109375 -1.421875 33.890625 -1.421875 
Q 20.796875 -1.421875 13.15625 6.1875 
Q 5.515625 13.8125 5.515625 26.8125 
Q 5.515625 40.234375 12.765625 48.109375 
Q 20.015625 56 32.328125 56 
Q 43.359375 56 49.78125 48.890625 
Q 56.203125 41.796875 56.203125 29.59375 
z
M 47.21875 32.234375 
Q 47.125 39.59375 43.09375 43.984375 
Q 39.0625 48.390625 32.421875 48.390625 
Q 24.90625 48.390625 20.390625 44.140625 
Q 15.875 39.890625 15.1875 32.171875 
z
" id="DejaVuSans-101"/>
     <path d="M 45.40625 46.390625 
L 45.40625 75.984375 
L 54.390625 75.984375 
L 54.390625 0 
L 45.40625 0 
L 45.40625 8.203125 
Q 42.578125 3.328125 38.25 0.953125 
Q 33.9375 -1.421875 27.875 -1.421875 
Q 17.96875 -1.421875 11.734375 6.484375 
Q 5.515625 14.40625 5.515625 27.296875 
Q 5.515625 40.1875 11.734375 48.09375 
Q 17.96875 56 27.875 56 
Q 33.9375 56 38.25 53.625 
Q 42.578125 51.265625 45.40625 46.390625 
z
M 14.796875 27.296875 
Q 14.796875 17.390625 18.875 11.75 
Q 22.953125 6.109375 30.078125 6.109375 
Q 37.203125 6.109375 41.296875 11.75 
Q 45.40625 17.390625 45.40625 27.296875 
Q 45.40625 37.203125 41.296875 42.84375 
Q 37.203125 48.484375 30.078125 48.484375 
Q 22.953125 48.484375 18.875 42.84375 
Q 14.796875 37.203125 14.796875 27.296875 
z
" id="DejaVuSans-100"/>
     <path d="M 9.421875 75.984375 
L 18.40625 75.984375 
L 18.40625 0 
L 9.421875 0 
z
" id="DejaVuSans-108"/>
     <path d="M 34.671875 47.5625 
Q 27.25 47.5625 22.21875 42.1875 
Q 16.890625 36.578125 15.140625 27.296875 
Q 13.1875 17.484375 16.3125 11.8125 
Q 19.390625 6.203125 26.65625 6.203125 
Q 33.84375 6.203125 39.109375 11.859375 
Q 44.4375 17.53125 46.34375 27.296875 
Q 48.046875 36.234375 45.015625 42.1875 
Q 42.1875 47.5625 34.671875 47.5625 
z
M 36.078125 54.734375 
L 65.921875 54.6875 
L 64.15625 45.703125 
L 54.109375 45.703125 
Q 57.90625 38.09375 55.859375 27.296875 
Q 53.21875 13.875 45.0625 6.25 
Q 36.859375 -1.421875 25.140625 -1.421875 
Q 13.375 -1.421875 8.203125 6.25 
Q 3.03125 13.875 5.671875 27.296875 
Q 8.25 40.765625 16.40625 48.390625 
Q 23.1875 54.734375 36.078125 54.734375 
z
" id="DejaVuSans-Oblique-963"/>
     <path d="M 10.59375 45.40625 
L 73.1875 45.40625 
L 73.1875 37.203125 
L 10.59375 37.203125 
z
M 10.59375 25.484375 
L 73.1875 25.484375 
L 73.1875 17.1875 
L 10.59375 17.1875 
z
" id="DejaVuSans-61"/>
     <path d="M 10.6875 12.40625 
L 21 12.40625 
L 21 0 
L 10.6875 0 
z
" id="DejaVuSans-46"/>
    </defs>
    <g transform="translate(99.6 28.56)scale(0.12 -0.12)">
     <use transform="translate(0 0.015625)" xlink:href="#DejaVuSans-71"/>
     <use transform="translate(77.490234 0.015625)" xlink:href="#DejaVuSans-67"/>
     <use transform="translate(147.314453 0.015625)" xlink:href="#DejaVuSans-86"/>
     <use transform="translate(215.722656 0.015625)" xlink:href="#DejaVuSans-32"/>
     <use transform="translate(247.509766 0.015625)" xlink:href="#DejaVuSans-102"/>
     <use transform="translate(282.714844 0.015625)" xlink:href="#DejaVuSans-117"/>
     <use transform="translate(346.09375 0.015625)" xlink:href="#DejaVuSans-110"/>
     <use transform="translate(409.472656 0.015625)" xlink:href="#DejaVuSans-99"/>
     <use transform="translate(464.453125 0.015625)" xlink:href="#DejaVuSans-116"/>
     <use transform="translate(503.662109 0.015625)" xlink:href="#DejaVuSans-105"/>
     <use transform="translate(531.445312 0.015625)" xlink:href="#DejaVuSans-111"/>
     <use transform="translate(592.626953 0.015625)" xlink:href="#DejaVuSans-110"/>
     <use transform="translate(656.005859 0.015625)" xlink:href="#DejaVuSans-32"/>
     <use transform="translate(687.792969 0.015625)" xlink:href="#DejaVuSans-102"/>
     <use transform="translate(722.998047 0.015625)" xlink:href="#DejaVuSans-111"/>
     <use transform="translate(784.179688 0.015625)" xlink:href="#DejaVuSans-114"/>
     <use transform="translate(825.292969 0.015625)" xlink:href="#DejaVuSans-32"/>
     <use transform="translate(857.080078 0.015625)" xlink:href="#DejaVuSans-Oblique-8467"/>
     <use transform="translate(898.388672 -16.390625)scale(0.7)" xlink:href="#DejaVuSans-49"/>
     <use transform="translate(945.65918 0.015625)" xlink:href="#DejaVuSans-32"/>
     <use transform="translate(977.446289 0.015625)" xlink:href="#DejaVuSans-116"/>
     <use transform="translate(1016.655273 0.015625)" xlink:href="#DejaVuSans-114"/>
     <use transform="translate(1057.768555 0.015625)" xlink:href="#DejaVuSans-101"/>
     <use transform="translate(1119.291992 0.015625)" xlink:href="#DejaVuSans-110"/>
     <use transform="translate(1182.670898 0.015625)" xlink:href="#DejaVuSans-100"/>
     <use transform="translate(1246.147461 0.015625)" xlink:href="#DejaVuSans-32"/>
     <use transform="translate(1277.93457 0.015625)" xlink:href="#DejaVuSans-102"/>
     <use transform="translate(1313.139648 0.015625)" xlink:href="#DejaVuSans-105"/>
     <use transform="translate(1340.922852 0.015625)" xlink:href="#DejaVuSans-108"/>
     <use transform="translate(1368.706055 0.015625)" xlink:href="#DejaVuSans-116"/>
     <use transform="translate(1407.915039 0.015625)" xlink:href="#DejaVuSans-101"/>
     <use transform="translate(1469.438477 0.015625)" xlink:href="#DejaVuSans-114"/>
     <use transform="translate(1510.551758 0.015625)" xlink:href="#DejaVuSans-32"/>
     <use transform="translate(1542.338867 0.015625)" xlink:href="#DejaVuSans-40"/>
     <use transform="translate(1581.352539 0.015625)" xlink:href="#DejaVuSans-Oblique-963"/>
     <use transform="translate(1664.213867 0.015625)" xlink:href="#DejaVuSans-61"/>
     <use transform="translate(1767.485352 0.015625)" xlink:href="#DejaVuSans-48"/>
     <use transform="translate(1831.108398 0.015625)" xlink:href="#DejaVuSans-46"/>
     <use transform="translate(1862.895508 0.015625)" xlink:href="#DejaVuSans-48"/>
     <use transform="translate(1926.518555 0.015625)" xlink:href="#DejaVuSans-49"/>
     <use transform="translate(1990.141602 0.015625)" xlink:href="#DejaVuSans-41"/>
    </g>
   </g>
   <g id="legend_1">
    <g id="line2d_45">
     <path d="M 273.36 216.890625 
L 321.36 216.890625 
" style="fill:none;stroke:#1f77b4;stroke-dasharray:7.5,2.5;stroke-dashoffset:0;stroke-width:2.5;"/>
    </g>
    <g id="line2d_46"/>
    <g id="text_13">
     <!-- state $x_1$ -->
     <defs>
      <path d="M 44.28125 53.078125 
L 44.28125 44.578125 
Q 40.484375 46.53125 36.375 47.5 
Q 32.28125 48.484375 27.875 48.484375 
Q 21.1875 48.484375 17.84375 46.4375 
Q 14.5 44.390625 14.5 40.28125 
Q 14.5 37.15625 16.890625 35.375 
Q 19.28125 33.59375 26.515625 31.984375 
L 29.59375 31.296875 
Q 39.15625 29.25 43.1875 25.515625 
Q 47.21875 21.78125 47.21875 15.09375 
Q 47.21875 7.46875 41.1875 3.015625 
Q 35.15625 -1.421875 24.609375 -1.421875 
Q 20.21875 -1.421875 15.453125 -0.5625 
Q 10.6875 0.296875 5.421875 2 
L 5.421875 11.28125 
Q 10.40625 8.6875 15.234375 7.390625 
Q 20.0625 6.109375 24.8125 6.109375 
Q 31.15625 6.109375 34.5625 8.28125 
Q 37.984375 10.453125 37.984375 14.40625 
Q 37.984375 18.0625 35.515625 20.015625 
Q 33.0625 21.96875 24.703125 23.78125 
L 21.578125 24.515625 
Q 13.234375 26.265625 9.515625 29.90625 
Q 5.8125 33.546875 5.8125 39.890625 
Q 5.8125 47.609375 11.28125 51.796875 
Q 16.75 56 26.8125 56 
Q 31.78125 56 36.171875 55.265625 
Q 40.578125 54.546875 44.28125 53.078125 
z
" id="DejaVuSans-115"/>
      <path d="M 34.28125 27.484375 
Q 23.390625 27.484375 19.1875 25 
Q 14.984375 22.515625 14.984375 16.5 
Q 14.984375 11.71875 18.140625 8.90625 
Q 21.296875 6.109375 26.703125 6.109375 
Q 34.1875 6.109375 38.703125 11.40625 
Q 43.21875 16.703125 43.21875 25.484375 
L 43.21875 27.484375 
z
M 52.203125 31.203125 
L 52.203125 0 
L 43.21875 0 
L 43.21875 8.296875 
Q 40.140625 3.328125 35.546875 0.953125 
Q 30.953125 -1.421875 24.3125 -1.421875 
Q 15.921875 -1.421875 10.953125 3.296875 
Q 6 8.015625 6 15.921875 
Q 6 25.140625 12.171875 29.828125 
Q 18.359375 34.515625 30.609375 34.515625 
L 43.21875 34.515625 
L 43.21875 35.40625 
Q 43.21875 41.609375 39.140625 45 
Q 35.0625 48.390625 27.6875 48.390625 
Q 23 48.390625 18.546875 47.265625 
Q 14.109375 46.140625 10.015625 43.890625 
L 10.015625 52.203125 
Q 14.9375 54.109375 19.578125 55.046875 
Q 24.21875 56 28.609375 56 
Q 40.484375 56 46.34375 49.84375 
Q 52.203125 43.703125 52.203125 31.203125 
z
" id="DejaVuSans-97"/>
      <path d="M 60.015625 54.6875 
L 34.90625 27.875 
L 50.296875 0 
L 39.984375 0 
L 28.421875 21.6875 
L 8.296875 0 
L -2.59375 0 
L 24.3125 28.8125 
L 10.015625 54.6875 
L 20.3125 54.6875 
L 30.8125 34.90625 
L 49.125 54.6875 
z
" id="DejaVuSans-Oblique-120"/>
     </defs>
     <g transform="translate(330.96 221.090625)scale(0.12 -0.12)">
      <use transform="translate(0 0.78125)" xlink:href="#DejaVuSans-115"/>
      <use transform="translate(52.099609 0.78125)" xlink:href="#DejaVuSans-116"/>
      <use transform="translate(91.308594 0.78125)" xlink:href="#DejaVuSans-97"/>
      <use transform="translate(152.587891 0.78125)" xlink:href="#DejaVuSans-116"/>
      <use transform="translate(191.796875 0.78125)" xlink:href="#DejaVuSans-101"/>
      <use transform="translate(253.320312 0.78125)" xlink:href="#DejaVuSans-32"/>
      <use transform="translate(285.107422 0.78125)" xlink:href="#DejaVuSans-Oblique-120"/>
      <use transform="translate(344.287109 -15.625)scale(0.7)" xlink:href="#DejaVuSans-49"/>
     </g>
    </g>
    <g id="line2d_47">
     <path d="M 273.36 234.504375 
L 321.36 234.504375 
" style="fill:none;stroke:#ff7f0e;stroke-dasharray:2500,2.5;stroke-dashoffset:0;stroke-width:2.5;"/>
    </g>
    <g id="line2d_48"/>
    <g id="text_14">
     <!-- state $x_2$ -->
     <g transform="translate(330.96 238.704375)scale(0.12 -0.12)">
      <use transform="translate(0 0.78125)" xlink:href="#DejaVuSans-115"/>
      <use transform="translate(52.099609 0.78125)" xlink:href="#DejaVuSans-116"/>
      <use transform="translate(91.308594 0.78125)" xlink:href="#DejaVuSans-97"/>
      <use transform="translate(152.587891 0.78125)" xlink:href="#DejaVuSans-116"/>
      <use transform="translate(191.796875 0.78125)" xlink:href="#DejaVuSans-101"/>
      <use transform="translate(253.320312 0.78125)" xlink:href="#DejaVuSans-32"/>
      <use transform="translate(285.107422 0.78125)" xlink:href="#DejaVuSans-Oblique-120"/>
      <use transform="translate(344.287109 -15.625)scale(0.7)" xlink:href="#DejaVuSans-50"/>
     </g>
    </g>
   </g>
  </g>
 </g>
 <defs>
  <clipPath id="p4db4ca6098">
   <rect height="217.44" width="334.8" x="54" y="34.56"/>
  </clipPath>
 </defs>
</svg>
