<?xml version="1.0" encoding="utf-8" standalone="no"?>
<!DOCTYPE svg PUBLIC "-//W3C//DTD SVG 1.1//EN"
  "http://www.w3.org/Graphics/SVG/1.1/DTD/svg11.dtd">
<!-- Created with matplotlib (https://matplotlib.org/) -->
<svg height="288pt" version="1.1" viewBox="0 0 432 288" width="432pt" xmlns="http://www.w3.org/2000/svg" xmlns:xlink="http://www.w3.org/1999/xlink">
 <defs>
  <style type="text/css">
*{stroke-linecap:butt;stroke-linejoin:round;}
  </style>
 </defs>
 <g id="figure_1">
  <g id="patch_1">
   <path d="M 0 288 
L 432 288 
L 432 0 
L 0 0 
z
" style="fill:#ffffff;"/>
  </g>
  <g id="axes_1">
   <g id="patch_2">
    <path d="M 54 252 
L 388.8 252 
L 388.8 34.56 
L 54 34.56 
z
" style="fill:#ffffff;"/>
   </g>
   <g id="matplotlib.axis_1">
    <g id="xtick_1">
     <g id="line2d_1">
      <defs>
       <path d="M 0 0 
L 0 3.5 
" id="m8e07aa9af9" style="stroke:#000000;stroke-width:0.8;"/>
      </defs>
      <g>
       <use style="stroke:#000000;stroke-width:0.8;" x="101.106561" xlink:href="#m8e07aa9af9" y="252"/>
      </g>
     </g>
     <g id="text_1">
      <!-- $\mathdefault{10^{-3}}$ -->
      <defs>
       <path d="M 12.40625 8.296875 
L 28.515625 8.296875 
L 28.515625 63.921875 
L 10.984375 60.40625 
L 10.984375 69.390625 
L 28.421875 72.90625 
L 38.28125 72.90625 
L 38.28125 8.296875 
L 54.390625 8.296875 
L 54.390625 0 
L 12.40625 0 
z
" id="DejaVuSans-49"/>
       <path d="M 31.78125 66.40625 
Q 24.171875 66.40625 20.328125 58.90625 
Q 16.5 51.421875 16.5 36.375 
Q 16.5 21.390625 20.328125 13.890625 
Q 24.171875 6.390625 31.78125 6.390625 
Q 39.453125 6.390625 43.28125 13.890625 
Q 47.125 21.390625 47.125 36.375 
Q 47.125 51.421875 43.28125 58.90625 
Q 39.453125 66.40625 31.78125 66.40625 
z
M 31.78125 74.21875 
Q 44.046875 74.21875 50.515625 64.515625 
Q 56.984375 54.828125 56.984375 36.375 
Q 56.984375 17.96875 50.515625 8.265625 
Q 44.046875 -1.421875 31.78125 -1.421875 
Q 19.53125 -1.421875 13.0625 8.265625 
Q 6.59375 17.96875 6.59375 36.375 
Q 6.59375 54.828125 13.0625 64.515625 
Q 19.53125 74.21875 31.78125 74.21875 
z
" id="DejaVuSans-48"/>
       <path d="M 10.59375 35.5 
L 73.1875 35.5 
L 73.1875 27.203125 
L 10.59375 27.203125 
z
" id="DejaVuSans-8722"/>
       <path d="M 40.578125 39.3125 
Q 47.65625 37.796875 51.625 33 
Q 55.609375 28.21875 55.609375 21.1875 
Q 55.609375 10.40625 48.1875 4.484375 
Q 40.765625 -1.421875 27.09375 -1.421875 
Q 22.515625 -1.421875 17.65625 -0.515625 
Q 12.796875 0.390625 7.625 2.203125 
L 7.625 11.71875 
Q 11.71875 9.328125 16.59375 8.109375 
Q 21.484375 6.890625 26.8125 6.890625 
Q 36.078125 6.890625 40.9375 10.546875 
Q 45.796875 14.203125 45.796875 21.1875 
Q 45.796875 27.640625 41.28125 31.265625 
Q 36.765625 34.90625 28.71875 34.90625 
L 20.21875 34.90625 
L 20.21875 43.015625 
L 29.109375 43.015625 
Q 36.375 43.015625 40.234375 45.921875 
Q 44.09375 48.828125 44.09375 54.296875 
Q 44.09375 59.90625 40.109375 62.90625 
Q 36.140625 65.921875 28.71875 65.921875 
Q 24.65625 65.921875 20.015625 65.03125 
Q 15.375 64.15625 9.8125 62.3125 
L 9.8125 71.09375 
Q 15.4375 72.65625 20.34375 73.4375 
Q 25.25 74.21875 29.59375 74.21875 
Q 40.828125 74.21875 47.359375 69.109375 
Q 53.90625 64.015625 53.90625 55.328125 
Q 53.90625 49.265625 50.4375 45.09375 
Q 46.96875 40.921875 40.578125 39.3125 
z
" id="DejaVuSans-51"/>
      </defs>
      <g transform="translate(87.006561 268.118125)scale(0.12 -0.12)">
       <use transform="translate(0 0.765625)" xlink:href="#DejaVuSans-49"/>
       <use transform="translate(63.623047 0.765625)" xlink:href="#DejaVuSans-48"/>
       <use transform="translate(128.203125 39.046875)scale(0.7)" xlink:href="#DejaVuSans-8722"/>
       <use transform="translate(186.855469 39.046875)scale(0.7)" xlink:href="#DejaVuSans-51"/>
      </g>
     </g>
    </g>
    <g id="xtick_2">
     <g id="line2d_2">
      <g>
       <use style="stroke:#000000;stroke-width:0.8;" x="167.403558" xlink:href="#m8e07aa9af9" y="252"/>
      </g>
     </g>
     <g id="text_2">
      <!-- $\mathdefault{10^{-1}}$ -->
      <g transform="translate(153.303558 268.118125)scale(0.12 -0.12)">
       <use transform="translate(0 0.684375)" xlink:href="#DejaVuSans-49"/>
       <use transform="translate(63.623047 0.684375)" xlink:href="#DejaVuSans-48"/>
       <use transform="translate(128.203125 38.965625)scale(0.7)" xlink:href="#DejaVuSans-8722"/>
       <use transform="translate(186.855469 38.965625)scale(0.7)" xlink:href="#DejaVuSans-49"/>
      </g>
     </g>
    </g>
    <g id="xtick_3">
     <g id="line2d_3">
      <g>
       <use style="stroke:#000000;stroke-width:0.8;" x="233.700555" xlink:href="#m8e07aa9af9" y="252"/>
      </g>
     </g>
     <g id="text_3">
      <!-- $\mathdefault{10^{1}}$ -->
      <g transform="translate(223.140555 268.118125)scale(0.12 -0.12)">
       <use transform="translate(0 0.684375)" xlink:href="#DejaVuSans-49"/>
       <use transform="translate(63.623047 0.684375)" xlink:href="#DejaVuSans-48"/>
       <use transform="translate(128.203125 38.965625)scale(0.7)" xlink:href="#DejaVuSans-49"/>
      </g>
     </g>
    </g>
    <g id="xtick_4">
     <g id="line2d_4">
      <g>
       <use style="stroke:#000000;stroke-width:0.8;" x="299.997552" xlink:href="#m8e07aa9af9" y="252"/>
      </g>
     </g>
     <g id="text_4">
      <!-- $\mathdefault{10^{3}}$ -->
      <g transform="translate(289.437552 268.118125)scale(0.12 -0.12)">
       <use transform="translate(0 0.765625)" xlink:href="#DejaVuSans-49"/>
       <use transform="translate(63.623047 0.765625)" xlink:href="#DejaVuSans-48"/>
       <use transform="translate(128.203125 39.046875)scale(0.7)" xlink:href="#DejaVuSans-51"/>
      </g>
     </g>
    </g>
    <g id="xtick_5">
     <g id="line2d_5">
      <g>
       <use style="stroke:#000000;stroke-width:0.8;" x="366.294549" xlink:href="#m8e07aa9af9" y="252"/>
      </g>
     </g>
     <g id="text_5">
      <!-- $\mathdefault{10^{5}}$ -->
      <defs>
       <path d="M 10.796875 72.90625 
L 49.515625 72.90625 
L 49.515625 64.59375 
L 19.828125 64.59375 
L 19.828125 46.734375 
Q 21.96875 47.46875 24.109375 47.828125 
Q 26.265625 48.1875 28.421875 48.1875 
Q 40.625 48.1875 47.75 41.5 
Q 54.890625 34.8125 54.890625 23.390625 
Q 54.890625 11.625 47.5625 5.09375 
Q 40.234375 -1.421875 26.90625 -1.421875 
Q 22.3125 -1.421875 17.546875 -0.640625 
Q 12.796875 0.140625 7.71875 1.703125 
L 7.71875 11.625 
Q 12.109375 9.234375 16.796875 8.0625 
Q 21.484375 6.890625 26.703125 6.890625 
Q 35.15625 6.890625 40.078125 11.328125 
Q 45.015625 15.765625 45.015625 23.390625 
Q 45.015625 31 40.078125 35.4375 
Q 35.15625 39.890625 26.703125 39.890625 
Q 22.75 39.890625 18.8125 39.015625 
Q 14.890625 38.140625 10.796875 36.28125 
z
" id="DejaVuSans-53"/>
      </defs>
      <g transform="translate(355.734549 268.118125)scale(0.12 -0.12)">
       <use transform="translate(0 0.684375)" xlink:href="#DejaVuSans-49"/>
       <use transform="translate(63.623047 0.684375)" xlink:href="#DejaVuSans-48"/>
       <use transform="translate(128.203125 38.965625)scale(0.7)" xlink:href="#DejaVuSans-53"/>
      </g>
     </g>
    </g>
    <g id="text_6">
     <!-- $\lambda$ -->
     <defs>
      <path d="M 36.71875 67.4375 
L 48.828125 0 
L 39.3125 0 
L 31.84375 40.4375 
L 5.125 0 
L -4.390625 0 
L 29.734375 52.4375 
L 28.03125 62.109375 
Q 26.953125 68.265625 21.734375 68.265625 
L 17.046875 68.265625 
L 18.5 75.984375 
L 24.21875 75.875 
Q 35.203125 75.734375 36.71875 67.4375 
z
" id="DejaVuSans-Oblique-955"/>
     </defs>
     <g transform="translate(217.8 283.731875)scale(0.12 -0.12)">
      <use transform="translate(0 0.015625)" xlink:href="#DejaVuSans-Oblique-955"/>
     </g>
    </g>
   </g>
   <g id="matplotlib.axis_2">
    <g id="ytick_1">
     <g id="line2d_6">
      <defs>
       <path d="M 0 0 
L -3.5 0 
" id="mc811af1ff5" style="stroke:#000000;stroke-width:0.8;"/>
      </defs>
      <g>
       <use style="stroke:#000000;stroke-width:0.8;" x="54" xlink:href="#mc811af1ff5" y="248.324762"/>
      </g>
     </g>
     <g id="text_7">
      <!-- $\mathdefault{10^{-2}}$ -->
      <defs>
       <path d="M 19.1875 8.296875 
L 53.609375 8.296875 
L 53.609375 0 
L 7.328125 0 
L 7.328125 8.296875 
Q 12.9375 14.109375 22.625 23.890625 
Q 32.328125 33.6875 34.8125 36.53125 
Q 39.546875 41.84375 41.421875 45.53125 
Q 43.3125 49.21875 43.3125 52.78125 
Q 43.3125 58.59375 39.234375 62.25 
Q 35.15625 65.921875 28.609375 65.921875 
Q 23.96875 65.921875 18.8125 64.3125 
Q 13.671875 62.703125 7.8125 59.421875 
L 7.8125 69.390625 
Q 13.765625 71.78125 18.9375 73 
Q 24.125 74.21875 28.421875 74.21875 
Q 39.75 74.21875 46.484375 68.546875 
Q 53.21875 62.890625 53.21875 53.421875 
Q 53.21875 48.921875 51.53125 44.890625 
Q 49.859375 40.875 45.40625 35.40625 
Q 44.1875 33.984375 37.640625 27.21875 
Q 31.109375 20.453125 19.1875 8.296875 
z
" id="DejaVuSans-50"/>
      </defs>
      <g transform="translate(18.8 252.883825)scale(0.12 -0.12)">
       <use transform="translate(0 0.765625)" xlink:href="#DejaVuSans-49"/>
       <use transform="translate(63.623047 0.765625)" xlink:href="#DejaVuSans-48"/>
       <use transform="translate(128.203125 39.046875)scale(0.7)" xlink:href="#DejaVuSans-8722"/>
       <use transform="translate(186.855469 39.046875)scale(0.7)" xlink:href="#DejaVuSans-50"/>
      </g>
     </g>
    </g>
    <g id="ytick_2">
     <g id="line2d_7">
      <g>
       <use style="stroke:#000000;stroke-width:0.8;" x="54" xlink:href="#mc811af1ff5" y="63.675695"/>
      </g>
     </g>
     <g id="text_8">
      <!-- $\mathdefault{10^{-1}}$ -->
      <g transform="translate(18.8 68.234757)scale(0.12 -0.12)">
       <use transform="translate(0 0.684375)" xlink:href="#DejaVuSans-49"/>
       <use transform="translate(63.623047 0.684375)" xlink:href="#DejaVuSans-48"/>
       <use transform="translate(128.203125 38.965625)scale(0.7)" xlink:href="#DejaVuSans-8722"/>
       <use transform="translate(186.855469 38.965625)scale(0.7)" xlink:href="#DejaVuSans-49"/>
      </g>
     </g>
    </g>
    <g id="ytick_3">
     <g id="line2d_8">
      <defs>
       <path d="M 0 0 
L -2 0 
" id="m4fa907493f" style="stroke:#000000;stroke-width:0.6;"/>
      </defs>
      <g>
       <use style="stroke:#000000;stroke-width:0.6;" x="54" xlink:href="#m4fa907493f" y="192.739854"/>
      </g>
     </g>
    </g>
    <g id="ytick_4">
     <g id="line2d_9">
      <g>
       <use style="stroke:#000000;stroke-width:0.6;" x="54" xlink:href="#m4fa907493f" y="160.224767"/>
      </g>
     </g>
    </g>
    <g id="ytick_5">
     <g id="line2d_10">
      <g>
       <use style="stroke:#000000;stroke-width:0.6;" x="54" xlink:href="#m4fa907493f" y="137.154946"/>
      </g>
     </g>
    </g>
    <g id="ytick_6">
     <g id="line2d_11">
      <g>
       <use style="stroke:#000000;stroke-width:0.6;" x="54" xlink:href="#m4fa907493f" y="119.260603"/>
      </g>
     </g>
    </g>
    <g id="ytick_7">
     <g id="line2d_12">
      <g>
       <use style="stroke:#000000;stroke-width:0.6;" x="54" xlink:href="#m4fa907493f" y="104.639859"/>
      </g>
     </g>
    </g>
    <g id="ytick_8">
     <g id="line2d_13">
      <g>
       <use style="stroke:#000000;stroke-width:0.6;" x="54" xlink:href="#m4fa907493f" y="92.278197"/>
      </g>
     </g>
    </g>
    <g id="ytick_9">
     <g id="line2d_14">
      <g>
       <use style="stroke:#000000;stroke-width:0.6;" x="54" xlink:href="#m4fa907493f" y="81.570038"/>
      </g>
     </g>
    </g>
    <g id="ytick_10">
     <g id="line2d_15">
      <g>
       <use style="stroke:#000000;stroke-width:0.6;" x="54" xlink:href="#m4fa907493f" y="72.124773"/>
      </g>
     </g>
    </g>
    <g id="text_9">
     <!-- GCV($\lambda$) -->
     <defs>
      <path d="M 59.515625 10.40625 
L 59.515625 29.984375 
L 43.40625 29.984375 
L 43.40625 38.09375 
L 69.28125 38.09375 
L 69.28125 6.78125 
Q 63.578125 2.734375 56.6875 0.65625 
Q 49.8125 -1.421875 42 -1.421875 
Q 24.90625 -1.421875 15.25 8.5625 
Q 5.609375 18.5625 5.609375 36.375 
Q 5.609375 54.25 15.25 64.234375 
Q 24.90625 74.21875 42 74.21875 
Q 49.125 74.21875 55.546875 72.453125 
Q 61.96875 70.703125 67.390625 67.28125 
L 67.390625 56.78125 
Q 61.921875 61.421875 55.765625 63.765625 
Q 49.609375 66.109375 42.828125 66.109375 
Q 29.4375 66.109375 22.71875 58.640625 
Q 16.015625 51.171875 16.015625 36.375 
Q 16.015625 21.625 22.71875 14.15625 
Q 29.4375 6.6875 42.828125 6.6875 
Q 48.046875 6.6875 52.140625 7.59375 
Q 56.25 8.5 59.515625 10.40625 
z
" id="DejaVuSans-71"/>
      <path d="M 64.40625 67.28125 
L 64.40625 56.890625 
Q 59.421875 61.53125 53.78125 63.8125 
Q 48.140625 66.109375 41.796875 66.109375 
Q 29.296875 66.109375 22.65625 58.46875 
Q 16.015625 50.828125 16.015625 36.375 
Q 16.015625 21.96875 22.65625 14.328125 
Q 29.296875 6.6875 41.796875 6.6875 
Q 48.140625 6.6875 53.78125 8.984375 
Q 59.421875 11.28125 64.40625 15.921875 
L 64.40625 5.609375 
Q 59.234375 2.09375 53.4375 0.328125 
Q 47.65625 -1.421875 41.21875 -1.421875 
Q 24.65625 -1.421875 15.125 8.703125 
Q 5.609375 18.84375 5.609375 36.375 
Q 5.609375 53.953125 15.125 64.078125 
Q 24.65625 74.21875 41.21875 74.21875 
Q 47.75 74.21875 53.53125 72.484375 
Q 59.328125 70.75 64.40625 67.28125 
z
" id="DejaVuSans-67"/>
      <path d="M 28.609375 0 
L 0.78125 72.90625 
L 11.078125 72.90625 
L 34.1875 11.53125 
L 57.328125 72.90625 
L 67.578125 72.90625 
L 39.796875 0 
z
" id="DejaVuSans-86"/>
      <path d="M 31 75.875 
Q 24.46875 64.65625 21.28125 53.65625 
Q 18.109375 42.671875 18.109375 31.390625 
Q 18.109375 20.125 21.3125 9.0625 
Q 24.515625 -2 31 -13.1875 
L 23.1875 -13.1875 
Q 15.875 -1.703125 12.234375 9.375 
Q 8.59375 20.453125 8.59375 31.390625 
Q 8.59375 42.28125 12.203125 53.3125 
Q 15.828125 64.359375 23.1875 75.875 
z
" id="DejaVuSans-40"/>
      <path d="M 8.015625 75.875 
L 15.828125 75.875 
Q 23.140625 64.359375 26.78125 53.3125 
Q 30.421875 42.28125 30.421875 31.390625 
Q 30.421875 20.453125 26.78125 9.375 
Q 23.140625 -1.703125 15.828125 -13.1875 
L 8.015625 -13.1875 
Q 14.5 -2 17.703125 9.0625 
Q 20.90625 20.125 20.90625 31.390625 
Q 20.90625 42.671875 17.703125 53.65625 
Q 14.5 64.65625 8.015625 75.875 
z
" id="DejaVuSans-41"/>
     </defs>
     <g transform="translate(12.304375 164.46)rotate(-90)scale(0.12 -0.12)">
      <use transform="translate(0 0.015625)" xlink:href="#DejaVuSans-71"/>
      <use transform="translate(77.490234 0.015625)" xlink:href="#DejaVuSans-67"/>
      <use transform="translate(147.314453 0.015625)" xlink:href="#DejaVuSans-86"/>
      <use transform="translate(215.722656 0.015625)" xlink:href="#DejaVuSans-40"/>
      <use transform="translate(254.736328 0.015625)" xlink:href="#DejaVuSans-Oblique-955"/>
      <use transform="translate(313.916016 0.015625)" xlink:href="#DejaVuSans-41"/>
     </g>
    </g>
   </g>
   <g id="line2d_16">
    <path clip-path="url(#p6d8785a634)" d="M 354.181761 225.518211 
L 353.2853 225.84438 
L 353.268926 225.125689 
L 351.663457 227.524457 
L 351.618688 226.840737 
L 350.098274 228.880871 
L 350.027273 228.220334 
L 348.560786 230.002197 
L 348.464716 229.357057 
L 347.051508 230.933434 
L 346.931203 230.298177 
L 345.547633 231.721447 
L 345.403188 231.092211 
L 344.040919 232.393586 
L 343.871955 231.76755 
L 342.545574 232.964002 
L 342.351843 232.339053 
L 341.053539 233.452702 
L 340.834419 232.8273 
L 339.563402 233.873545 
L 339.318078 233.246549 
L 338.075591 234.237509 
L 337.803068 233.608106 
L 336.577229 234.55577 
L 336.275962 233.923328 
L 335.070605 234.834617 
L 334.73892 234.198677 
L 333.544932 235.080955 
L 333.180592 234.441137 
L 331.987055 235.300171 
L 331.587007 234.656147 
L 330.386601 235.496016 
L 329.947009 234.847478 
L 328.739891 235.670945 
L 328.256178 235.017652 
L 327.01988 235.828246 
L 326.48557 235.169891 
L 325.219913 235.969133 
L 324.627102 235.305456 
L 323.328265 236.094886 
L 322.666979 235.425654 
L 321.316853 236.206978 
L 320.573475 235.531927 
L 319.158578 236.306296 
L 318.314655 235.625167 
L 316.817264 236.393569 
L 316.390261 234.951517 
L 315.705466 235.795381 
L 315.687149 235.051358 
L 313.095983 236.095355 
L 313.02901 235.357697 
L 312.527418 236.151969 
L 311.286353 235.524138 
L 310.917148 236.299343 
L 310.802667 235.565713 
L 308.2652 236.469534 
L 308.199453 234.984167 
L 306.132147 236.592413 
L 305.914422 235.861337 
L 304.634685 236.65525 
L 304.001633 235.93544 
L 303.778176 235.286012 
L 302.989373 236.268162 
L 302.571661 235.688093 
L 301.811667 236.63173 
L 301.453331 236.012011 
L 301.331444 235.301528 
L 301.192527 236.101041 
L 300.519795 236.999461 
L 300.162903 236.363785 
L 300.005718 235.659451 
L 299.853618 236.450253 
L 299.291876 237.308256 
L 298.75173 236.710955 
L 298.076726 237.573658 
L 297.580376 236.948444 
L 297.487832 236.216365 
L 297.123222 237.044896 
L 296.621071 237.86576 
L 295.976677 237.253985 
L 295.319069 238.083759 
L 294.626362 237.463791 
L 294.277951 238.251 
L 293.850513 237.551741 
L 293.124751 236.916782 
L 293.041028 237.684463 
L 292.287552 238.498939 
L 291.455894 237.862232 
L 291.325443 238.622821 
L 290.443475 237.951292 
L 290.228478 238.716096 
L 289.279702 238.067312 
L 289.265437 237.314035 
L 289.257202 238.06938 
L 288.3465 238.868161 
L 287.221287 237.460626 
L 286.005235 238.276434 
L 285.938684 239.030098 
L 284.669076 238.361882 
L 283.519713 239.146457 
L 282.24025 238.458514 
L 282.020136 237.713866 
L 280.292241 238.515144 
L 279.584993 237.785577 
L 278.653967 238.569474 
L 278.507424 237.819768 
L 278.147388 238.580382 
L 277.655633 239.338073 
L 276.879043 238.600777 
L 276.530868 237.854675 
L 275.72257 237.125426 
L 275.415486 238.643675 
L 275.234413 239.396626 
L 274.591586 238.652088 
L 274.515121 236.378871 
L 274.336449 237.145601 
L 272.223684 237.944333 
L 272.187488 237.188151 
L 271.89924 237.9507 
L 271.890559 237.192831 
L 271.497798 237.95658 
L 271.489604 237.198655 
L 271.400003 237.958437 
L 271.204536 236.449344 
L 271.126217 237.212319 
L 271.064378 235.686112 
L 270.881931 236.462768 
L 270.504385 237.229562 
L 270.315757 236.479026 
L 270.303168 237.241105 
L 270.220763 236.48336 
L 269.456431 237.254252 
L 269.235572 236.504758 
L 269.222346 237.266826 
L 269.150975 235.742022 
L 269.075243 237.272288 
L 268.516951 236.519404 
L 268.395885 237.2827 
L 268.30262 236.524672 
L 268.22682 237.287409 
L 267.857883 236.543895 
L 267.526178 238.071422 
L 267.076151 237.332726 
L 267.053912 238.091237 
L 266.910314 236.573946 
L 266.796489 237.339941 
L 265.816874 238.106148 
L 265.381002 237.364515 
L 265.314848 236.605374 
L 265.212632 237.368115 
L 265.054647 236.612604 
L 263.97258 237.382643 
L 263.446144 236.640278 
L 263.032418 237.404826 
L 262.817778 235.885635 
L 262.126612 236.667825 
L 261.513743 235.931121 
L 260.53994 236.715991 
L 260.276258 235.96143 
L 260.180212 235.197773 
L 259.888999 235.978722 
L 259.727563 236.747111 
L 259.39451 235.992755 
L 259.368072 236.758751 
L 259.315859 235.995423 
L 259.206027 236.762664 
L 259.197875 235.997473 
L 258.714057 236.770126 
L 258.021953 236.029546 
L 257.89108 236.797121 
L 257.750732 236.035999 
L 257.666942 236.802643 
L 257.292678 236.042748 
L 257.275305 236.808522 
L 257.05964 236.050339 
L 257.029481 236.816265 
L 256.825301 236.057517 
L 256.059915 235.314137 
L 255.944984 236.851428 
L 255.781951 236.091028 
L 255.310329 236.861601 
L 255.0884 236.102231 
L 255.053109 235.334834 
L 254.298999 236.125184 
L 254.27306 235.357238 
L 253.846928 236.899284 
L 253.751507 236.136327 
L 253.412064 236.904861 
L 253.399731 236.13957 
L 252.492994 235.39498 
L 252.331212 234.630064 
L 252.240439 236.940324 
L 251.92272 236.181189 
L 251.911453 235.412321 
L 251.315831 236.186561 
L 251.255402 235.420795 
L 250.936984 236.192656 
L 249.939172 235.444446 
L 249.920738 236.213809 
L 249.690165 235.451272 
L 249.603079 236.221137 
L 249.167443 235.459486 
L 248.865216 236.230702 
L 248.790813 235.465176 
L 248.696918 236.235039 
L 248.394697 235.469184 
L 248.258598 234.701316 
L 248.109438 236.245862 
L 247.707624 237.013502 
L 247.274068 235.500388 
L 247.042835 234.752652 
L 246.933058 232.425012 
L 246.850678 233.223556 
L 246.781813 234.011848 
L 246.45549 233.270501 
L 246.41317 234.055578 
L 246.170162 234.856639 
L 245.346782 234.159399 
L 245.346212 234.936131 
L 244.692498 235.759298 
L 244.577855 234.997114 
L 244.383879 235.784186 
L 243.98581 235.039469 
L 243.883178 234.273487 
L 243.238993 235.097838 
L 243.180291 235.873509 
L 243.007496 234.340105 
L 242.621048 235.919879 
L 242.419039 235.157385 
L 242.347326 234.386698 
L 242.12777 235.180783 
L 241.621602 235.977911 
L 241.488638 234.435567 
L 241.480726 235.212892 
L 241.355603 235.99526 
L 241.03976 235.247443 
L 240.886731 234.483141 
L 240.868687 233.705126 
L 240.571935 234.509575 
L 240.045173 235.321882 
L 239.893961 234.55541 
L 239.420442 233.812102 
L 239.276184 235.377329 
L 238.982593 234.626968 
L 238.134516 235.436379 
L 237.805362 234.68662 
L 237.658603 236.245872 
L 237.589485 235.475413 
L 237.576349 234.69929 
L 237.373539 235.483879 
L 236.994869 234.735022 
L 236.663276 235.523902 
L 236.29675 234.764614 
L 236.278443 233.985596 
L 236.14696 234.774804 
L 235.061964 235.582826 
L 234.630199 234.831509 
L 234.052261 235.622726 
L 233.630666 234.864797 
L 233.527674 234.090832 
L 232.472375 234.911083 
L 232.4556 234.131478 
L 231.119563 234.954362 
L 230.937217 234.180002 
L 230.100763 234.9831 
L 230.090098 234.202979 
L 229.792777 233.428965 
L 229.787799 232.641091 
L 229.376614 233.442584 
L 229.373962 232.654582 
L 228.959262 234.239491 
L 228.686724 231.095084 
L 228.423388 231.899774 
L 228.280421 232.695695 
L 228.206833 231.907285 
L 227.718064 232.710305 
L 227.70368 231.918877 
L 227.488098 232.71549 
L 227.47387 231.923788 
L 227.204484 231.141151 
L 227.192065 230.343112 
L 226.980783 231.153224 
L 226.945429 230.356092 
L 226.758319 231.960988 
L 226.755203 231.165266 
L 226.742958 230.366294 
L 226.676063 231.965319 
L 226.646659 230.371903 
L 226.626963 231.172779 
L 226.531438 230.37804 
L 225.993625 232.788775 
L 225.977169 231.997966 
L 225.378012 232.810629 
L 225.168096 233.604997 
L 224.793068 232.84705 
L 224.58871 233.640497 
L 224.438212 232.066607 
L 224.277837 231.283383 
L 224.133151 232.087463 
L 223.615605 232.895025 
L 222.894074 233.699278 
L 222.060422 232.980134 
L 222.003337 230.599307 
L 220.635241 231.517346 
L 220.483186 232.323538 
L 220.286419 231.563773 
L 220.244127 229.970252 
L 220.162007 230.786565 
L 220.052418 230.001639 
L 220.027192 230.809251 
L 219.579443 232.43816 
L 219.101751 231.675166 
L 218.835166 230.108414 
L 218.833644 230.912597 
L 218.667902 231.728194 
L 218.278644 232.548595 
L 218.27172 231.753414 
L 218.098389 230.972668 
L 218.045031 231.778104 
L 217.956902 230.988297 
L 217.848151 231.799277 
L 217.24901 232.62919 
L 216.792755 231.876787 
L 216.408552 232.692537 
L 216.093807 231.132337 
L 215.450285 231.998911 
L 215.423871 231.203638 
L 215.128261 230.452145 
L 215.096389 229.649785 
L 214.625878 230.510385 
L 214.621987 231.314727 
L 214.546516 228.902062 
L 213.814373 230.603715 
L 213.6074 229.818767 
L 213.458735 230.639769 
L 213.269204 229.040862 
L 213.044487 228.255103 
L 212.992833 229.077367 
L 212.507953 230.745947 
L 212.5031 229.93846 
L 212.318243 229.164236 
L 212.171162 229.9978 
L 211.788184 230.847665 
L 211.661848 230.056746 
L 211.396632 229.283935 
L 211.256535 228.497898 
L 210.994453 229.351722 
L 210.430154 230.23273 
L 210.425984 229.421188 
L 210.009821 228.658763 
L 210.002276 227.83967 
L 209.930096 228.669183 
L 209.777066 229.504327 
L 209.389476 228.739893 
L 209.250011 229.568502 
L 209.039535 228.773339 
L 209.015384 227.956555 
L 208.830207 228.795213 
L 208.748213 228.000051 
L 208.713434 228.827482 
L 208.09219 228.165267 
L 208.019186 229.816833 
L 207.738544 228.253046 
L 207.65711 229.906304 
L 207.441626 229.128814 
L 207.432103 229.946588 
L 207.420591 229.1329 
L 207.280265 228.347695 
L 207.188833 229.183542 
L 206.992034 227.57573 
L 206.966103 226.754717 
L 206.908003 228.419468 
L 206.544549 227.693322 
L 206.363212 226.087289 
L 206.060295 227.854624 
L 205.965335 227.056741 
L 205.898849 227.903139 
L 205.892781 227.075875 
L 205.890751 226.243389 
L 205.810868 227.102875 
L 205.654186 227.973458 
L 205.607978 227.158989 
L 205.425483 226.381887 
L 205.13 227.290575 
L 205.049826 225.64336 
L 204.729922 224.917462 
L 204.7104 224.08008 
L 204.688848 224.934666 
L 204.631004 225.792637 
L 204.617917 224.955465 
L 204.072054 225.943759 
L 203.791398 225.187208 
L 203.764657 226.036902 
L 203.695862 225.218845 
L 203.054713 226.269467 
L 202.941368 225.47362 
L 202.37552 227.334985 
L 201.772591 225.869158 
L 201.75437 225.031466 
L 201.683869 226.747938 
L 201.501529 225.980582 
L 201.441829 225.164405 
L 201.435179 226.013609 
L 201.298903 227.741796 
L 201.255979 226.919113 
L 200.81919 227.866547 
L 200.729371 227.057514 
L 200.229253 228.012881 
L 200.195623 227.186271 
L 200.043793 226.400905 
L 200.021775 227.24784 
L 199.782625 226.465657 
L 199.761375 225.625276 
L 198.678211 226.732113 
L 198.475804 224.245456 
L 198.464197 225.108119 
L 198.110591 228.616818 
L 197.790541 227.870834 
L 197.785194 227.03093 
L 197.714056 227.894172 
L 197.628333 227.081917 
L 197.606516 227.929315 
L 197.552793 227.10332 
L 197.424004 227.976293 
L 196.987794 227.256862 
L 196.807823 228.140283 
L 196.455675 229.052621 
L 196.326227 227.42133 
L 196.190614 225.803412 
L 195.915747 225.149632 
L 195.862691 224.331914 
L 195.600557 223.675282 
L 195.406459 224.661382 
L 194.882761 224.111244 
L 194.872094 224.982 
L 193.750604 223.883599 
L 193.531191 221.382064 
L 193.501313 222.286252 
L 193.185519 223.369052 
L 193.174706 222.497338 
L 192.994728 223.476763 
L 192.624632 222.906869 
L 192.014214 224.256128 
L 191.715162 225.345395 
L 191.715013 224.47147 
L 191.5052 223.750606 
L 191.4775 224.649823 
L 190.299492 226.308515 
L 190.088046 227.299744 
L 189.970075 225.632686 
L 189.960675 226.512516 
L 189.464113 225.935375 
L 188.86837 224.55119 
L 188.420976 223.939582 
L 188.342481 223.094758 
L 188.254441 224.04039 
L 188.251039 223.148992 
L 187.973105 222.442978 
L 187.870209 223.408504 
L 187.797664 222.55953 
L 187.544048 223.618605 
L 187.340973 222.8505 
L 187.204814 223.825873 
L 187.018186 223.050657 
L 186.868277 224.927757 
L 186.654972 223.287986 
L 186.417575 222.589364 
L 186.216896 223.650599 
L 186.179555 222.776612 
L 185.463722 221.55218 
L 185.316496 220.76652 
L 185.021132 222.857302 
L 184.790535 222.142955 
L 184.756376 223.08429 
L 184.185857 224.41054 
L 184.055808 223.592971 
L 183.662152 226.56065 
L 183.522568 227.534975 
L 183.091395 225.124192 
L 182.872649 226.153654 
L 182.861276 227.058303 
L 182.400414 226.413697 
L 182.241082 224.693982 
L 182.160015 225.645508 
L 182.031281 224.813305 
L 181.792608 225.860286 
L 181.586422 224.164912 
L 181.353256 225.206322 
L 181.031407 224.473244 
L 180.889072 222.712641 
L 180.759985 224.629533 
L 180.568764 223.832863 
L 180.429412 224.838121 
L 180.188172 223.157464 
L 179.663338 224.388472 
L 179.189452 221.892517 
L 179.174654 220.963632 
L 179.111946 222.887795 
L 179.032662 223.873511 
L 178.602133 225.071496 
L 177.938669 226.372977 
L 177.767783 225.558702 
L 177.322069 226.705421 
L 177.081613 227.728585 
L 176.790183 226.072575 
L 176.619902 227.071884 
L 176.595496 226.166144 
L 176.215507 223.588194 
L 176.111149 224.579982 
L 175.420615 226.728624 
L 175.051601 225.043269 
L 174.647167 224.292591 
L 174.493085 222.476279 
L 174.343261 223.482393 
L 174.342169 224.423488 
L 174.258378 223.516449 
L 174.221798 222.585506 
L 174.099 223.580834 
L 173.999017 221.727412 
L 173.996751 222.68023 
L 173.756716 221.835467 
L 173.611919 222.848217 
L 173.515141 220.982872 
L 173.50966 220.022812 
L 173.254164 221.129481 
L 173.053906 220.280848 
L 172.959809 221.293037 
L 172.525375 222.455254 
L 172.500193 223.416001 
L 171.928532 221.732048 
L 171.586175 222.811477 
L 170.831815 222.169422 
L 170.482525 220.38852 
L 170.451811 221.370812 
L 170.358519 220.444604 
L 170.163919 221.490325 
L 169.668957 220.723276 
L 169.31116 219.923194 
L 169.243144 218.97601 
L 169.237711 219.959519 
L 168.832979 219.181368 
L 168.825099 218.198397 
L 168.757752 219.217198 
L 168.555586 218.352435 
L 168.521 219.359193 
L 167.914047 218.713045 
L 167.351253 219.98935 
L 167.263593 221.00778 
L 166.658704 220.30876 
L 166.426659 222.354546 
L 166.323337 221.421074 
L 165.81707 220.639708 
L 165.781456 219.668606 
L 165.726872 220.679219 
L 165.482773 222.730377 
L 165.453987 221.768829 
L 164.987682 222.952221 
L 164.880937 222.024835 
L 164.646616 221.161227 
L 164.526961 220.254744 
L 164.51673 221.247649 
L 164.457192 220.295565 
L 164.408918 219.337866 
L 164.114056 217.594881 
L 163.836394 218.792922 
L 163.739236 216.851408 
L 163.388964 218.133633 
L 162.941624 217.483459 
L 162.790547 218.603282 
L 162.699232 215.618664 
L 162.42997 214.830774 
L 161.920891 217.30706 
L 161.886373 218.350257 
L 161.531478 217.585911 
L 161.504359 216.58179 
L 161.290805 217.763728 
L 161.060913 214.851798 
L 161.044796 216.933113 
L 161.02213 215.918335 
L 160.794608 215.111149 
L 160.758449 216.18321 
L 160.739877 215.162863 
L 160.458273 216.443213 
L 159.904395 214.88454 
L 159.90156 213.835689 
L 159.569054 215.2109 
L 159.539992 214.188195 
L 159.529287 215.249935 
L 159.378867 216.431962 
L 159.232124 214.486016 
L 158.830765 213.839643 
L 158.61093 213.000586 
L 158.557961 211.983942 
L 158.232564 213.378869 
L 157.858148 210.492992 
L 157.38027 209.866798 
L 157.317963 208.832579 
L 157.156632 211.194771 
L 156.854824 210.385944 
L 156.746222 211.5763 
L 156.597457 210.615362 
L 156.430699 211.852054 
L 156.182826 211.002665 
L 156.174634 212.105412 
L 156.084219 209.998369 
L 156.076941 211.107664 
L 155.778139 210.32912 
L 155.337365 211.836274 
L 154.993263 208.848156 
L 154.900348 210.049561 
L 154.789473 207.912711 
L 154.62931 209.177143 
L 154.623661 210.299562 
L 154.548586 209.249126 
L 154.413354 210.483298 
L 154.067887 206.276563 
L 153.932642 207.545735 
L 153.722797 206.60695 
L 153.340603 208.079277 
L 153.304236 206.972276 
L 152.950276 208.430722 
L 152.746754 211.979287 
L 152.051681 211.432966 
L 152.003019 210.348139 
L 151.828105 209.365901 
L 151.662245 211.759666 
L 151.5321 210.737209 
L 151.498782 211.886501 
L 151.477952 210.77632 
L 151.328454 208.618391 
L 151.111507 207.682551 
L 151.108603 206.527534 
L 150.936585 205.548673 
L 150.859042 204.461084 
L 150.501962 206.025488 
L 150.484115 207.210667 
L 150.047914 208.79804 
L 149.648749 208.1564 
L 149.551638 207.112775 
L 149.016543 206.603917 
L 148.801757 208.049171 
L 148.749532 206.956927 
L 148.709951 208.184288 
L 148.446835 206.182597 
L 148.224686 202.900047 
L 148.216001 201.696134 
L 148.04497 204.42793 
L 148.002094 203.316649 
L 147.682436 202.897882 
L 147.289705 206.123545 
L 146.95317 204.358366 
L 146.710812 203.641799 
L 146.637376 205.019708 
L 146.165082 208.371328 
L 146.078781 206.148912 
L 145.709006 203.38639 
L 145.683334 204.695952 
L 145.679033 203.458134 
L 145.58476 202.439081 
L 145.343363 201.782532 
L 144.744485 201.954186 
L 144.463474 201.345391 
L 144.319277 200.398008 
L 143.882199 205.251769 
L 143.555617 208.387635 
L 143.291095 203.931853 
L 143.12417 203.101082 
L 143.110981 201.828488 
L 142.680249 204.22684 
L 142.621603 203.063315 
L 142.621007 204.374037 
L 142.355764 207.5877 
L 142.333995 208.9153 
L 142.234323 207.863139 
L 141.862984 207.440425 
L 141.779053 205.035306 
L 141.708866 206.505765 
L 141.56923 204.209259 
L 141.220785 207.667629 
L 141.097065 206.663408 
L 140.780988 210.013452 
L 140.6006 207.838934 
L 140.259749 207.388985 
L 140.043295 206.609036 
L 140.005908 205.379456 
L 139.832558 204.588208 
L 139.731773 203.562931 
L 139.700733 205.030653 
L 139.584447 204.063414 
L 139.386563 203.360049 
L 139.261989 201.002596 
L 139.20535 202.599194 
L 139.05477 205.879082 
L 139.045919 204.533615 
L 139.02008 203.243628 
L 138.820542 202.634944 
L 138.724664 200.182517 
L 138.71197 197.345306 
L 138.317868 197.64774 
L 138.042904 195.927446 
L 137.747571 195.777422 
L 137.30676 196.230613 
L 137.304092 197.762398 
L 137.162994 199.874709 
L 137.15243 198.41452 
L 137.147882 196.914935 
L 137.060817 198.822157 
L 136.939681 197.83655 
L 136.929348 196.347666 
L 136.912459 197.954981 
L 136.586565 200.850632 
L 136.493188 199.721682 
L 136.20485 199.389434 
L 136.177317 197.963697 
L 136.060156 200.036948 
L 135.738148 202.974095 
L 135.426498 202.762543 
L 135.255775 201.935924 
L 135.15071 203.918568 
L 134.720988 201.041588 
L 134.445889 205.342009 
L 134.265768 204.534432 
L 134.173584 203.367882 
L 133.586944 207.489568 
L 132.698262 208.17196 
L 132.535237 210.451889 
L 132.479607 209.090759 
L 132.105356 209.044166 
L 131.971664 207.983739 
L 131.797187 202.084261 
L 131.668536 200.964961 
L 131.642191 202.798046 
L 131.408159 202.128014 
L 131.318496 199.041553 
L 131.245291 199.373322 
L 131.228639 201.204095 
L 131.198843 196.02753 
L 130.999222 195.257759 
L 130.746431 189.280608 
L 130.380433 193.300271 
L 130.341656 191.626614 
L 129.97769 197.43757 
L 129.973357 195.586283 
L 129.640372 195.589641 
L 129.362918 195.303215 
L 129.145492 192.710915 
L 129.114791 190.906397 
L 128.973886 189.75364 
L 128.717877 189.278962 
L 128.564259 183.939803 
L 128.24499 183.793076 
L 128.220281 186.097526 
L 128.041762 185.040104 
L 127.593093 185.558174 
L 127.476688 188.422468 
L 127.183458 185.771657 
L 126.927171 185.056857 
L 126.890196 183.008416 
L 126.563798 182.757873 
L 126.460408 181.07172 
L 126.272041 179.89712 
L 126.003104 179.186241 
L 125.831727 177.816068 
L 125.823552 175.381035 
L 125.652831 173.933939 
L 125.353683 165.314735 
L 124.998781 172.938249 
L 124.898503 170.91749 
L 124.406965 168.616936 
L 124.154378 164.597161 
L 124.149591 161.739638 
L 124.033527 165.409897 
L 123.856797 163.711249 
L 123.788934 158.237606 
L 123.523597 157.120688 
L 123.151644 153.590453 
L 122.834806 152.728123 
L 122.58818 151.393997 
L 122.238093 150.836734 
L 122.048693 148.991221 
L 121.854702 154.067775 
L 121.482548 160.495845 
L 121.33704 154.866797 
L 121.321162 158.445058 
L 121.114667 156.679054 
L 121.067681 153.544391 
L 120.909009 158.371378 
L 120.673807 156.784079 
L 120.246989 163.728297 
L 120.173886 160.803931 
L 119.401135 163.576272 
L 119.270065 160.986283 
L 118.91003 167.64515 
L 118.889054 164.133177 
L 117.692422 166.656826 
L 117.127105 150.731606 
L 116.993139 147.403292 
L 116.73921 144.999249 
L 116.264586 144.564985 
L 116.09304 141.200107 
L 115.643485 140.206931 
L 115.386127 137.302885 
L 115.010627 135.317135 
L 115.006225 129.729419 
L 114.737436 126.362958 
L 114.207004 125.146065 
L 113.692176 117.05653 
L 112.385928 122.395042 
L 112.087894 118.020658 
L 111.733092 128.374268 
L 111.443705 116.540958 
L 110.213214 135.682647 
L 110.030571 130.004677 
L 109.597287 126.400447 
L 109.323948 120.931845 
L 109.275105 112.758345 
L 109.144917 122.745314 
L 108.325573 122.38477 
L 107.935077 117.308889 
L 107.61504 110.930846 
L 107.186728 93.98996 
L 107.028536 83.755763 
L 105.312936 113.238913 
L 104.998622 127.483699 
L 104.039685 126.247414 
L 101.132373 143.851488 
L 100.408928 162.843786 
L 100.064838 154.431036 
L 99.910385 143.153988 
L 99.719579 115.907765 
L 99.035164 106.153292 
L 98.563582 127.944171 
L 97.741786 151.632184 
L 96.373517 150.669537 
L 96.039013 169.422449 
L 95.632679 158.367349 
L 94.437952 154.266129 
L 92.571401 155.58228 
L 89.576895 206.262037 
L 88.468359 199.361252 
L 85.02272 214.951317 
L 81.175545 231.180315 
L 80.923209 204.670884 
L 77.999 200.403547 
L 74.264165 195.302174 
L 71.420982 161.826547 
L 69.218182 75.126449 
L 69.218182 75.126449 
" style="fill:none;stroke:#1f77b4;stroke-dasharray:7.5,2.5;stroke-dashoffset:0;stroke-width:2.5;"/>
   </g>
   <g id="line2d_17">
    <defs>
     <path d="M -6 6 
L 6 -6 
M -6 -6 
L 6 6 
" id="m546437e5ee" style="stroke:#000000;"/>
    </defs>
    <g clip-path="url(#p6d8785a634)">
     <use style="stroke:#000000;" x="298.076726" xlink:href="#m546437e5ee" y="237.573658"/>
    </g>
   </g>
   <g id="line2d_18">
    <defs>
     <path d="M -3 3 
L 3 3 
L 3 -3 
L -3 -3 
z
" id="m56352dd329" style="stroke:#0000ff;stroke-linejoin:miter;"/>
    </defs>
    <g clip-path="url(#p6d8785a634)">
     <use style="fill:#0000ff;stroke:#0000ff;stroke-linejoin:miter;" x="275.234413" xlink:href="#m56352dd329" y="239.396626"/>
    </g>
   </g>
   <g id="line2d_19">
    <defs>
     <path d="M 0 3 
C 0.795609 3 1.55874 2.683901 2.12132 2.12132 
C 2.683901 1.55874 3 0.795609 3 0 
C 3 -0.795609 2.683901 -1.55874 2.12132 -2.12132 
C 1.55874 -2.683901 0.795609 -3 0 -3 
C -0.795609 -3 -1.55874 -2.683901 -2.12132 -2.12132 
C -2.683901 -1.55874 -3 -0.795609 -3 0 
C -3 0.795609 -2.683901 1.55874 -2.12132 2.12132 
C -1.55874 2.683901 -0.795609 3 0 3 
z
" id="mfcb92cde7e" style="stroke:#ff0000;"/>
    </defs>
    <g clip-path="url(#p6d8785a634)">
     <use style="fill:#ff0000;stroke:#ff0000;" x="0" xlink:href="#mfcb92cde7e" y="0"/>
    </g>
   </g>
   <g id="line2d_20">
    <path clip-path="url(#p6d8785a634)" d="M 373.581818 136.918125 
L 373.319775 137.714608 
L 373.312575 137.019193 
L 370.694012 151.795004 
L 370.617416 151.500758 
L 368.191545 162.979013 
L 368.051474 162.936874 
L 365.771778 171.866929 
L 365.571002 171.969593 
L 363.399693 178.941509 
L 363.138216 179.113447 
L 361.040061 184.591796 
L 360.715445 184.779723 
L 358.659133 189.116869 
L 358.266184 189.283754 
L 356.222408 192.74594 
L 355.752709 192.866029 
L 353.695874 195.651578 
L 353.136952 195.70715 
L 351.037879 197.970382 
L 350.37144 197.949404 
L 348.194972 199.809654 
L 347.393716 199.704171 
L 345.092396 201.254286 
L 344.114051 201.059153 
L 341.622751 202.370414 
L 340.398185 202.082591 
L 338.732716 203.073966 
L 338.609284 202.610302 
L 338.603722 201.876457 
L 337.783868 204.407658 
L 337.388097 204.873395 
L 335.842983 208.492228 
L 335.38601 208.930142 
L 333.86383 211.964841 
L 333.339364 212.35488 
L 331.832452 214.909584 
L 331.232164 215.236573 
L 330.70768 216.510092 
L 330.133209 216.356978 
L 329.575958 217.594192 
L 328.922944 217.772495 
L 328.87998 217.084476 
L 328.804587 217.900313 
L 327.338197 219.698399 
L 326.515995 219.871338 
L 324.974377 221.45421 
L 324.020902 221.534071 
L 322.453425 222.90614 
L 321.337348 222.889687 
L 320.596545 223.860383 
L 319.897938 224.421109 
L 319.655402 224.141634 
L 319.043632 224.713507 
L 318.315156 226.732746 
L 316.993551 229.354997 
L 316.193587 229.929354 
L 315.0504 231.965433 
L 314.816773 231.482267 
L 314.383669 231.254267 
L 314.074201 232.338034 
L 313.181585 232.681501 
L 312.412577 234.129407 
L 311.343565 235.660363 
L 310.154968 235.983879 
L 308.746989 237.499341 
L 308.631355 236.811963 
L 308.387851 236.234951 
L 307.286271 237.71854 
L 306.960116 238.602536 
L 305.898533 238.294029 
L 305.130594 237.857064 
L 303.917028 237.671237 
L 302.104776 238.970221 
L 301.445696 239.87654 
L 300.264937 239.48386 
L 299.784126 238.862762 
L 299.189567 239.731692 
L 297.865618 240.686365 
L 296.240901 240.254683 
L 295.826728 239.573611 
L 295.019832 240.418856 
L 294.002199 241.264141 
L 293.156324 240.623157 
L 291.93183 240.026333 
L 290.030831 240.897306 
L 287.985087 240.330499 
L 286.261116 241.149587 
L 285.668467 240.43355 
L 284.774668 241.238464 
L 282.644884 242.077925 
L 282.225706 241.34219 
L 280.916831 242.116364 
L 278.988518 241.434688 
L 278.041589 240.709686 
L 277.871374 239.976493 
L 277.726442 241.514722 
L 277.035968 240.830641 
L 276.628371 241.609703 
L 276.437251 240.862055 
L 275.928228 241.644509 
L 275.06171 240.989767 
L 274.921216 240.246488 
L 274.110244 241.046155 
L 273.951673 240.299538 
L 273.875251 241.064867 
L 273.459314 240.352711 
L 273.232077 239.636604 
L 272.860374 240.437294 
L 272.772561 241.206066 
L 272.249536 241.98236 
L 271.577347 241.274196 
L 271.377337 239.777546 
L 271.367387 240.543937 
L 271.305637 239.790137 
L 270.409674 240.625654 
L 270.275059 239.8841 
L 269.399614 241.464659 
L 269.286182 240.714314 
L 269.243499 241.477247 
L 268.660634 240.753858 
L 268.339258 240.037813 
L 267.667516 240.84766 
L 267.663021 240.082774 
L 267.528896 240.855953 
L 267.058703 241.626745 
L 266.890116 240.117282 
L 266.861629 240.884026 
L 266.526797 240.137516 
L 266.462746 238.605687 
L 266.01889 239.447375 
L 265.827318 240.226805 
L 265.128056 241.024913 
L 265.096754 240.263829 
L 264.310249 241.059744 
L 264.199366 241.066175 
L 264.172507 240.302184 
L 263.857861 239.577557 
L 263.730788 240.360317 
L 263.061797 241.151391 
L 262.666013 240.438228 
L 262.069737 241.222028 
L 261.936764 241.986385 
L 261.763368 240.464894 
L 261.742815 241.231505 
L 261.718806 241.993866 
L 261.663123 240.468819 
L 261.266753 241.259863 
L 261.248523 240.495746 
L 261.237962 241.261977 
L 261.14988 240.506886 
L 260.988713 239.757691 
L 260.275668 240.606223 
L 260.237721 241.37394 
L 259.797668 240.651115 
L 259.280421 241.443218 
L 258.403734 240.758405 
L 258.273563 240.003651 
L 257.62296 240.801753 
L 257.46143 241.573723 
L 257.291077 240.051688 
L 256.752563 239.33857 
L 256.187876 240.135762 
L 255.567079 239.403717 
L 255.430986 240.181777 
L 254.801052 239.471649 
L 254.799983 240.244623 
L 253.520233 241.048444 
L 253.258819 240.288239 
L 253.209676 239.521209 
L 253.131217 240.301156 
L 252.432982 241.106338 
L 252.033707 240.359646 
L 251.945569 239.591945 
L 250.989958 240.390978 
L 250.574779 239.63549 
L 249.989996 240.426858 
L 249.838466 241.198461 
L 249.191424 240.452771 
L 248.829426 239.696414 
L 248.582523 240.479241 
L 248.373435 239.722102 
L 247.083688 240.515449 
L 246.63442 239.769922 
L 246.422301 240.552605 
L 246.338836 241.323211 
L 246.104441 240.560482 
L 246.073659 239.791309 
L 245.57231 240.57738 
L 244.846837 239.827282 
L 244.815847 239.054839 
L 243.981659 239.855715 
L 243.71671 240.634291 
L 243.661968 239.089474 
L 243.530486 239.869638 
L 243.231638 239.113489 
L 243.042708 239.900428 
L 242.715643 239.143192 
L 242.388991 239.926619 
L 241.782551 240.7091 
L 241.652644 239.944807 
L 241.487256 240.720388 
L 241.3619 239.949812 
L 240.609442 239.192437 
L 240.510358 238.415933 
L 239.677912 239.221555 
L 239.58122 238.453652 
L 239.364918 239.24039 
L 238.775515 240.032158 
L 238.74101 239.258165 
L 238.348693 238.517517 
L 238.210425 237.747609 
L 238.175921 238.534645 
L 237.091136 239.341608 
L 236.997201 238.564087 
L 235.747501 239.370134 
L 235.55181 238.604791 
L 234.156769 240.185178 
L 233.208611 239.452076 
L 233.13994 240.229648 
L 232.501549 239.46299 
L 231.718569 238.698964 
L 231.465532 239.483652 
L 231.459987 238.703776 
L 231.246123 237.945885 
L 230.515274 238.803512 
L 230.508052 239.584549 
L 229.841967 238.113248 
L 229.713604 237.346959 
L 229.614375 238.147989 
L 229.475099 236.597686 
L 228.99538 237.475713 
L 228.941478 236.701044 
L 228.144857 237.630188 
L 228.041399 236.857047 
L 227.6563 237.709574 
L 227.492332 236.149547 
L 227.424158 233.775595 
L 227.394036 235.401919 
L 226.990506 236.291481 
L 226.8334 237.908014 
L 226.747389 237.133635 
L 226.579159 237.952214 
L 226.3085 236.4182 
L 226.084621 234.87316 
L 225.478553 235.819132 
L 225.442621 235.025919 
L 225.382195 235.846103 
L 225.235447 236.675065 
L 225.039472 235.943804 
L 224.856981 236.77996 
L 224.456301 237.651428 
L 224.287828 236.90472 
L 224.16733 238.511456 
L 223.981452 237.784674 
L 223.940776 237.004502 
L 223.651482 238.63684 
L 223.643246 237.846207 
L 223.500095 237.091344 
L 223.158887 237.943874 
L 223.03375 236.374632 
L 222.706345 237.235494 
L 222.184105 238.109419 
L 222.021462 236.56536 
L 221.719239 237.446294 
L 221.129434 238.315653 
L 221.119558 237.521866 
L 220.950316 236.766895 
L 220.874131 238.378821 
L 220.798216 237.602048 
L 220.706068 236.83155 
L 220.570482 238.457359 
L 220.560105 237.663322 
L 220.222177 237.02442 
L 220.034822 237.860172 
L 219.930177 237.084533 
L 219.904585 237.889185 
L 219.800626 237.112787 
L 219.493532 237.967172 
L 219.036834 238.833427 
L 218.849281 237.275512 
L 218.757207 238.091878 
L 218.461866 235.7679 
L 218.328198 236.617333 
L 218.303756 235.819932 
L 218.257 236.642588 
L 218.006687 237.507879 
L 216.924403 236.991319 
L 216.596024 237.85811 
L 216.488432 238.688284 
L 216.384324 237.91752 
L 216.179852 238.75021 
L 215.871627 238.013241 
L 215.785642 238.825893 
L 215.469264 236.482707 
L 215.049328 237.399788 
L 214.864413 238.230086 
L 214.448629 235.901131 
L 214.309495 233.493842 
L 214.062831 234.400333 
L 213.997092 235.237426 
L 213.857381 233.643892 
L 213.740791 234.509372 
L 213.500126 235.391155 
L 213.490619 234.574001 
L 213.238627 235.45702 
L 212.838183 233.165292 
L 212.678459 234.074608 
L 212.601662 233.285782 
L 212.417735 234.203792 
L 212.411844 233.378577 
L 212.368224 235.048769 
L 211.661379 236.023344 
L 211.591814 236.853743 
L 211.343593 233.630026 
L 211.326049 234.464041 
L 211.292684 235.297123 
L 210.986318 236.176233 
L 210.538982 235.461942 
L 210.412094 234.667768 
L 210.100426 233.945657 
L 209.943621 233.177012 
L 209.631758 234.112203 
L 209.314806 233.414778 
L 209.273508 234.264916 
L 209.026014 235.167649 
L 208.809065 233.582625 
L 208.582632 234.47962 
L 208.546409 233.657906 
L 208.334552 232.909504 
L 208.314196 232.078817 
L 208.172082 232.99311 
L 207.899251 233.941567 
L 207.667341 233.251989 
L 207.61081 234.113326 
L 206.928036 235.959916 
L 206.015724 235.354391 
L 205.761194 232.918083 
L 205.640731 232.965279 
L 205.427096 234.723281 
L 205.343927 235.576406 
L 205.205688 234.788138 
L 204.95353 234.042843 
L 204.870729 233.233925 
L 204.653677 235.811733 
L 204.650214 234.979353 
L 204.452866 234.204519 
L 203.902335 233.583992 
L 203.233656 234.624352 
L 203.231278 233.783297 
L 203.02041 235.520961 
L 202.814203 234.738671 
L 202.708642 233.099906 
L 202.700413 233.948922 
L 202.559689 233.158753 
L 202.289949 234.078245 
L 201.755737 233.377275 
L 201.69389 231.694186 
L 201.388854 230.992055 
L 201.134277 232.826881 
L 201.096044 233.692681 
L 200.927927 232.912696 
L 200.871739 232.082682 
L 200.688458 233.001152 
L 200.261669 232.299713 
L 200.236713 233.16307 
L 200.180347 232.325718 
L 200.173605 231.468198 
L 200.129399 233.198732 
L 200.009729 234.089246 
L 199.986913 233.246245 
L 199.764608 232.466217 
L 199.515365 234.231803 
L 199.41044 233.405906 
L 198.570429 232.803104 
L 198.178139 234.613837 
L 197.803204 233.860418 
L 197.730043 233.056656 
L 197.698137 233.921342 
L 196.83719 233.375629 
L 196.742104 234.256486 
L 196.741594 233.401268 
L 196.738463 232.542602 
L 195.946945 233.71171 
L 195.524536 233.012981 
L 195.438789 232.184712 
L 195.294742 233.102069 
L 194.052436 235.162687 
L 194.045921 236.015076 
L 193.550799 234.434566 
L 193.549928 233.574922 
L 193.227605 231.984305 
L 192.791445 231.311416 
L 192.464863 232.303718 
L 192.400065 231.466125 
L 191.984821 232.48935 
L 191.900292 233.38103 
L 191.494638 230.881564 
L 191.487022 231.768368 
L 190.697183 231.684373 
L 190.557087 228.266192 
L 190.461172 229.264737 
L 189.496919 231.106206 
L 189.378109 230.325223 
L 189.057303 231.507567 
L 188.956481 232.482492 
L 188.35136 231.425059 
L 188.232616 232.448214 
L 188.069957 230.848392 
L 188.03718 231.783851 
L 187.768075 231.185201 
L 187.521875 229.655684 
L 187.077436 234.581832 
L 186.907845 233.855427 
L 186.733718 234.906757 
L 186.6655 234.082068 
L 185.089748 234.519151 
L 185.03794 233.664051 
L 184.514668 233.1938 
L 184.326231 231.544107 
L 184.319821 232.463847 
L 184.005977 233.649042 
L 183.926686 231.898947 
L 183.90363 231.003629 
L 183.719576 230.266927 
L 183.505874 231.374737 
L 183.266081 229.732631 
L 183.177961 230.743389 
L 183.017012 229.963908 
L 182.787838 231.084781 
L 182.757934 232.951059 
L 182.690745 232.083126 
L 182.282037 231.477396 
L 182.233398 230.584468 
L 182.014668 231.675703 
L 181.943946 230.800109 
L 181.861915 231.790338 
L 181.788872 230.921023 
L 181.747341 231.881999 
L 181.557412 232.933339 
L 181.462973 232.075912 
L 181.372357 233.063325 
L 180.97907 232.417998 
L 180.841579 233.434046 
L 180.78945 232.547193 
L 180.763123 233.488564 
L 180.754805 234.412727 
L 180.554186 233.623306 
L 180.22043 232.912901 
L 180.02194 232.120152 
L 179.775832 233.212305 
L 179.628502 231.444322 
L 179.062839 232.693704 
L 178.998243 233.654721 
L 178.806799 232.829047 
L 178.683987 233.816626 
L 178.431188 232.110794 
L 178.235656 231.331479 
L 178.071279 229.613642 
L 178.000075 230.64347 
L 177.239412 233.104581 
L 176.710217 231.61456 
L 176.374542 232.759537 
L 176.304639 230.901931 
L 175.792026 232.142896 
L 175.657294 231.268648 
L 175.346948 230.498206 
L 175.33258 229.544843 
L 175.292721 230.534451 
L 175.164824 228.692209 
L 175.134091 229.679161 
L 175.114177 230.653898 
L 174.732223 229.932655 
L 174.692231 230.917789 
L 174.525267 229.08817 
L 174.266194 228.304408 
L 174.248891 227.336735 
L 174.133358 228.40196 
L 173.72659 229.61301 
L 173.542452 232.595306 
L 173.468817 231.6783 
L 173.467923 232.63623 
L 173.32638 231.746385 
L 173.320754 230.785975 
L 173.090838 231.864214 
L 172.736816 230.116114 
L 172.57696 231.161335 
L 172.190543 230.371427 
L 171.977083 227.603045 
L 171.676615 229.805895 
L 171.118515 229.305268 
L 170.585212 230.649284 
L 170.476667 229.739639 
L 169.986433 231.940867 
L 169.726285 230.201241 
L 169.67668 231.22451 
L 169.349033 230.540602 
L 169.33773 229.564001 
L 169.128472 230.715525 
L 168.946639 229.878738 
L 168.731946 232.008914 
L 168.145115 233.349688 
L 167.695467 231.685254 
L 167.691301 232.668928 
L 167.049884 231.249065 
L 166.980613 230.326382 
L 166.650361 232.610687 
L 166.56206 231.708006 
L 165.837478 231.410811 
L 165.679753 230.566192 
L 165.527979 231.685746 
L 165.503825 230.705597 
L 165.136765 229.999128 
L 165.070505 229.040338 
L 164.638393 228.375605 
L 164.304943 229.640209 
L 164.101028 228.768527 
L 163.02501 228.463392 
L 163.015001 227.438511 
L 162.634373 225.664056 
L 162.458402 227.881222 
L 162.300626 226.962932 
L 162.085939 228.159524 
L 161.8321 225.227398 
L 161.433511 227.631696 
L 161.073464 226.851097 
L 160.607766 226.124101 
L 160.606072 225.066743 
L 160.464599 224.119724 
L 160.313098 226.351852 
L 160.094713 225.460382 
L 160.060199 226.544406 
L 159.878509 225.629189 
L 159.594426 226.888898 
L 159.5014 224.834045 
L 159.096773 226.196272 
L 159.067923 227.275304 
L 158.973592 226.286268 
L 158.779871 225.437943 
L 158.362062 226.934732 
L 158.207855 224.974445 
L 158.081369 226.191414 
L 157.821276 225.419929 
L 157.761345 224.410756 
L 157.075252 224.115457 
L 156.395067 226.982538 
L 156.326104 228.121082 
L 156.10025 226.18809 
L 155.851815 225.345737 
L 155.714771 227.631928 
L 155.419654 228.950851 
L 155.392179 227.901804 
L 155.319995 229.033142 
L 154.782399 228.508077 
L 154.225131 230.088795 
L 154.212666 229.02702 
L 154.013429 228.122764 
L 153.191976 229.858089 
L 152.854008 229.088368 
L 152.762234 228.090681 
L 152.493241 227.259693 
L 152.468308 228.376513 
L 152.429888 227.317035 
L 151.997086 226.693915 
L 151.690273 221.443348 
L 151.460434 222.877375 
L 151.329378 221.899468 
L 151.307595 220.776943 
L 151.126809 219.862731 
L 151.083132 221.07567 
L 150.55427 219.588745 
L 150.348671 217.585372 
L 150.289734 220.044514 
L 150.1895 219.038544 
L 150.052762 220.43357 
L 149.645177 218.780716 
L 149.514784 221.35985 
L 149.284664 220.570279 
L 149.06484 218.554862 
L 148.963367 219.902615 
L 148.86317 218.862833 
L 148.824477 220.112667 
L 148.753069 219.027009 
L 148.612142 216.827945 
L 148.384633 218.364318 
L 148.319134 217.252956 
L 148.25954 218.551752 
L 147.681676 220.561788 
L 147.587786 221.877231 
L 147.451928 220.860664 
L 147.430359 219.687353 
L 147.251425 218.71253 
L 147.205113 217.556223 
L 146.852581 219.232729 
L 146.827564 220.473354 
L 146.6157 219.570024 
L 146.583944 217.166825 
L 146.375653 216.276324 
L 146.344805 217.563317 
L 146.286323 216.425454 
L 146.089109 214.269329 
L 146.036229 211.83633 
L 145.899227 210.853512 
L 145.872879 213.473913 
L 145.786481 212.382638 
L 145.780718 211.107053 
L 145.460038 213.076208 
L 145.008497 212.73977 
L 144.982891 211.494547 
L 144.617748 210.935784 
L 144.23812 212.981206 
L 143.992131 212.154767 
L 143.3498 219.663006 
L 142.739055 218.051641 
L 142.66199 216.900256 
L 142.617592 218.266348 
L 141.822475 210.552612 
L 141.343019 212.922844 
L 141.075355 212.17345 
L 140.961659 213.764034 
L 140.944108 212.447372 
L 140.797094 214.105893 
L 140.483849 213.412799 
L 140.385504 214.971151 
L 140.311952 212.417513 
L 139.533729 215.459749 
L 139.520906 216.839303 
L 139.334549 215.870471 
L 139.30367 214.568687 
L 139.233679 216.07551 
L 138.784615 218.305433 
L 138.456926 216.255327 
L 138.217462 211.364111 
L 138.127763 214.453687 
L 138.012628 213.409691 
L 137.899851 216.539189 
L 137.728147 215.668929 
L 137.7059 217.120949 
L 137.621816 215.97867 
L 137.621026 214.580511 
L 137.431971 213.842252 
L 137.362025 215.500634 
L 137.077843 213.684513 
L 137.01568 215.323385 
L 136.97851 214.02507 
L 136.777657 216.082203 
L 136.422356 215.7837 
L 136.310606 211.810933 
L 135.862792 211.981072 
L 135.460621 214.854876 
L 135.075051 213.197825 
L 135.011356 210.411691 
L 134.847224 207.972464 
L 134.785443 205.086673 
L 134.391353 203.600552 
L 134.072453 203.566735 
L 134.034723 202.119166 
L 133.689266 202.249391 
L 133.616002 200.948241 
L 133.436575 203.523047 
L 133.409079 200.293164 
L 133.334544 202.386036 
L 133.29705 204.261145 
L 133.268349 202.736341 
L 133.056663 205.538068 
L 133.045741 203.916518 
L 132.785154 203.669772 
L 132.737078 205.623895 
L 132.694987 204.156184 
L 132.263283 204.759772 
L 132.050384 209.278781 
L 131.945732 208.14126 
L 131.611282 211.57769 
L 131.336704 211.29275 
L 131.275913 208.168948 
L 130.894108 211.862229 
L 130.716731 211.068775 
L 130.569623 206.550248 
L 130.490894 206.989159 
L 130.283427 206.34901 
L 130.180013 205.113098 
L 129.170837 212.551588 
L 128.891777 210.453302 
L 128.68926 204.040063 
L 128.581502 202.777337 
L 128.460192 207.472191 
L 128.274058 206.725499 
L 128.181116 205.352123 
L 128.048937 210.093222 
L 127.649221 210.642286 
L 127.479691 209.723363 
L 127.203542 209.451708 
L 127.151826 207.756144 
L 126.98795 206.760123 
L 126.233998 209.448035 
L 126.112414 208.10247 
L 126.038905 202.115963 
L 125.691201 202.219537 
L 125.673321 200.095047 
L 125.523342 198.835208 
L 125.496513 196.719584 
L 125.156675 196.816481 
L 125.105324 199.521519 
L 124.675629 204.819511 
L 124.522513 203.567288 
L 124.455349 206.333968 
L 124.255442 205.385581 
L 124.255281 203.045278 
L 123.981992 202.631724 
L 123.752367 201.868466 
L 123.751921 199.42304 
L 123.613687 197.948563 
L 123.551196 200.886844 
L 123.430706 199.273708 
L 123.395314 202.013398 
L 122.778109 203.877427 
L 122.764952 201.443402 
L 122.631522 204.882577 
L 122.479694 203.403258 
L 122.362817 196.414091 
L 122.067059 201.130024 
L 121.980676 206.888976 
L 121.949307 204.54874 
L 121.708088 203.679408 
L 121.674103 201.282102 
L 121.583073 204.610492 
L 121.409657 203.26003 
L 121.331416 201.168649 
L 121.1567 205.204137 
L 121.069127 200.442705 
L 120.797599 199.842949 
L 120.625753 198.385845 
L 120.582374 192.903792 
L 120.181513 187.067133 
L 119.791647 193.355978 
L 119.759964 190.500664 
L 119.519891 189.291655 
L 119.398535 193.447516 
L 118.895856 200.532554 
L 118.489643 197.426452 
L 118.197966 202.864256 
L 117.956089 191.736282 
L 117.752826 189.970021 
L 117.702699 186.866142 
L 117.669361 190.6673 
L 117.634557 187.440987 
L 117.076442 188.608532 
L 116.964533 185.882345 
L 115.548004 194.023061 
L 114.637721 205.031754 
L 114.561656 201.861563 
L 114.302445 200.103797 
L 114.272893 196.382983 
L 113.898879 195.344151 
L 113.435424 195.050023 
L 113.041739 194.158148 
L 112.753104 192.322982 
L 111.376574 212.742533 
L 111.103123 206.347842 
L 111.061727 202.184833 
L 110.461826 197.994206 
L 110.423429 188.309847 
L 110.276817 184.362761 
L 110.018595 181.328036 
L 109.668067 178.955512 
L 109.385958 175.75919 
L 108.548061 189.269821 
L 108.143601 181.067191 
L 107.734209 178.594067 
L 107.583678 173.492799 
L 107.556752 166.926966 
L 106.306843 171.858915 
L 105.89644 160.638997 
L 105.158384 159.865318 
L 105.122594 151.556289 
L 104.842941 145.220134 
L 102.705398 175.488904 
L 102.105442 172.124894 
L 101.924454 164.172333 
L 101.426866 158.790634 
L 100.725215 176.033678 
L 100.162744 171.349475 
L 99.895267 184.360835 
L 99.101025 182.091067 
L 97.228196 189.808769 
L 96.729328 182.858499 
L 96.612154 171.179099 
L 94.693338 176.469448 
L 94.323389 164.937936 
L 93.309622 158.344672 
L 93.30624 139.489346 
L 91.2157 179.762899 
L 90.760527 201.21606 
L 90.03101 172.848506 
L 88.766887 164.752522 
L 88.145285 146.723425 
L 87.070497 129.117093 
L 85.080615 179.658231 
L 83.285593 169.589342 
L 81.910383 148.377995 
L 79.819844 124.795907 
L 74.157643 121.848017 
L 71.12215 44.443636 
L 71.12215 44.443636 
" style="fill:none;stroke:#ff7f0e;stroke-dasharray:2500,2.5;stroke-dashoffset:0;stroke-width:2.5;"/>
   </g>
   <g id="line2d_21">
    <g clip-path="url(#p6d8785a634)">
     <use style="stroke:#000000;" x="271.496018" xlink:href="#m546437e5ee" y="240.520054"/>
    </g>
   </g>
   <g id="line2d_22">
    <g clip-path="url(#p6d8785a634)">
     <use style="fill:#0000ff;stroke:#0000ff;stroke-linejoin:miter;" x="280.916831" xlink:href="#m56352dd329" y="242.116364"/>
    </g>
   </g>
   <g id="line2d_23">
    <g clip-path="url(#p6d8785a634)">
     <use style="fill:#ff0000;stroke:#ff0000;" x="290.711849" xlink:href="#mfcb92cde7e" y="223.288045"/>
    </g>
   </g>
   <g id="patch_3">
    <path d="M 54 252 
L 54 34.56 
" style="fill:none;stroke:#000000;stroke-linecap:square;stroke-linejoin:miter;stroke-width:0.8;"/>
   </g>
   <g id="patch_4">
    <path d="M 388.8 252 
L 388.8 34.56 
" style="fill:none;stroke:#000000;stroke-linecap:square;stroke-linejoin:miter;stroke-width:0.8;"/>
   </g>
   <g id="patch_5">
    <path d="M 54 252 
L 388.8 252 
" style="fill:none;stroke:#000000;stroke-linecap:square;stroke-linejoin:miter;stroke-width:0.8;"/>
   </g>
   <g id="patch_6">
    <path d="M 54 34.56 
L 388.8 34.56 
" style="fill:none;stroke:#000000;stroke-linecap:square;stroke-linejoin:miter;stroke-width:0.8;"/>
   </g>
   <g id="text_10">
    <!-- GCV function for $\ell_1$ trend filter ($\sigma = 0.1$) -->
    <defs>
     <path id="DejaVuSans-32"/>
     <path d="M 37.109375 75.984375 
L 37.109375 68.5 
L 28.515625 68.5 
Q 23.6875 68.5 21.796875 66.546875 
Q 19.921875 64.59375 19.921875 59.515625 
L 19.921875 54.6875 
L 34.71875 54.6875 
L 34.71875 47.703125 
L 19.921875 47.703125 
L 19.921875 0 
L 10.890625 0 
L 10.890625 47.703125 
L 2.296875 47.703125 
L 2.296875 54.6875 
L 10.890625 54.6875 
L 10.890625 58.5 
Q 10.890625 67.625 15.140625 71.796875 
Q 19.390625 75.984375 28.609375 75.984375 
z
" id="DejaVuSans-102"/>
     <path d="M 8.5 21.578125 
L 8.5 54.6875 
L 17.484375 54.6875 
L 17.484375 21.921875 
Q 17.484375 14.15625 20.5 10.265625 
Q 23.53125 6.390625 29.59375 6.390625 
Q 36.859375 6.390625 41.078125 11.03125 
Q 45.3125 15.671875 45.3125 23.6875 
L 45.3125 54.6875 
L 54.296875 54.6875 
L 54.296875 0 
L 45.3125 0 
L 45.3125 8.40625 
Q 42.046875 3.421875 37.71875 1 
Q 33.40625 -1.421875 27.6875 -1.421875 
Q 18.265625 -1.421875 13.375 4.4375 
Q 8.5 10.296875 8.5 21.578125 
z
M 31.109375 56 
z
" id="DejaVuSans-117"/>
     <path d="M 54.890625 33.015625 
L 54.890625 0 
L 45.90625 0 
L 45.90625 32.71875 
Q 45.90625 40.484375 42.875 44.328125 
Q 39.84375 48.1875 33.796875 48.1875 
Q 26.515625 48.1875 22.3125 43.546875 
Q 18.109375 38.921875 18.109375 30.90625 
L 18.109375 0 
L 9.078125 0 
L 9.078125 54.6875 
L 18.109375 54.6875 
L 18.109375 46.1875 
Q 21.34375 51.125 25.703125 53.5625 
Q 30.078125 56 35.796875 56 
Q 45.21875 56 50.046875 50.171875 
Q 54.890625 44.34375 54.890625 33.015625 
z
" id="DejaVuSans-110"/>
     <path d="M 48.78125 52.59375 
L 48.78125 44.1875 
Q 44.96875 46.296875 41.140625 47.34375 
Q 37.3125 48.390625 33.40625 48.390625 
Q 24.65625 48.390625 19.8125 42.84375 
Q 14.984375 37.3125 14.984375 27.296875 
Q 14.984375 17.28125 19.8125 11.734375 
Q 24.65625 6.203125 33.40625 6.203125 
Q 37.3125 6.203125 41.140625 7.25 
Q 44.96875 8.296875 48.78125 10.40625 
L 48.78125 2.09375 
Q 45.015625 0.34375 40.984375 -0.53125 
Q 36.96875 -1.421875 32.421875 -1.421875 
Q 20.0625 -1.421875 12.78125 6.34375 
Q 5.515625 14.109375 5.515625 27.296875 
Q 5.515625 40.671875 12.859375 48.328125 
Q 20.21875 56 33.015625 56 
Q 37.15625 56 41.109375 55.140625 
Q 45.0625 54.296875 48.78125 52.59375 
z
" id="DejaVuSans-99"/>
     <path d="M 18.3125 70.21875 
L 18.3125 54.6875 
L 36.8125 54.6875 
L 36.8125 47.703125 
L 18.3125 47.703125 
L 18.3125 18.015625 
Q 18.3125 11.328125 20.140625 9.421875 
Q 21.96875 7.515625 27.59375 7.515625 
L 36.8125 7.515625 
L 36.8125 0 
L 27.59375 0 
Q 17.1875 0 13.234375 3.875 
Q 9.28125 7.765625 9.28125 18.015625 
L 9.28125 47.703125 
L 2.6875 47.703125 
L 2.6875 54.6875 
L 9.28125 54.6875 
L 9.28125 70.21875 
z
" id="DejaVuSans-116"/>
     <path d="M 9.421875 54.6875 
L 18.40625 54.6875 
L 18.40625 0 
L 9.421875 0 
z
M 9.421875 75.984375 
L 18.40625 75.984375 
L 18.40625 64.59375 
L 9.421875 64.59375 
z
" id="DejaVuSans-105"/>
     <path d="M 30.609375 48.390625 
Q 23.390625 48.390625 19.1875 42.75 
Q 14.984375 37.109375 14.984375 27.296875 
Q 14.984375 17.484375 19.15625 11.84375 
Q 23.34375 6.203125 30.609375 6.203125 
Q 37.796875 6.203125 41.984375 11.859375 
Q 46.1875 17.53125 46.1875 27.296875 
Q 46.1875 37.015625 41.984375 42.703125 
Q 37.796875 48.390625 30.609375 48.390625 
z
M 30.609375 56 
Q 42.328125 56 49.015625 48.375 
Q 55.71875 40.765625 55.71875 27.296875 
Q 55.71875 13.875 49.015625 6.21875 
Q 42.328125 -1.421875 30.609375 -1.421875 
Q 18.84375 -1.421875 12.171875 6.21875 
Q 5.515625 13.875 5.515625 27.296875 
Q 5.515625 40.765625 12.171875 48.375 
Q 18.84375 56 30.609375 56 
z
" id="DejaVuSans-111"/>
     <path d="M 41.109375 46.296875 
Q 39.59375 47.171875 37.8125 47.578125 
Q 36.03125 48 33.890625 48 
Q 26.265625 48 22.1875 43.046875 
Q 18.109375 38.09375 18.109375 28.8125 
L 18.109375 0 
L 9.078125 0 
L 9.078125 54.6875 
L 18.109375 54.6875 
L 18.109375 46.1875 
Q 20.953125 51.171875 25.484375 53.578125 
Q 30.03125 56 36.53125 56 
Q 37.453125 56 38.578125 55.875 
Q 39.703125 55.765625 41.0625 55.515625 
z
" id="DejaVuSans-114"/>
     <path d="M 14.84375 13.09375 
Q 16.84375 3.328125 21.09375 3.328125 
Q 23.921875 3.328125 27.59375 8.9375 
L 34.078125 8.9375 
Q 31.15625 3.953125 27.734375 1.375 
Q 24.03125 -1.421875 20.609375 -1.421875 
Q 12.984375 -1.421875 9.90625 5.375 
L 6.25 0 
L -1.375 0 
Q 3.90625 7.171875 7.8125 13.875 
Q 7.328125 17.671875 7.328125 21.828125 
Q 7.328125 29.25 8.84375 36.671875 
Q 14.546875 64.546875 19.625 70.265625 
Q 23.140625 74.21875 29.15625 74.21875 
Q 35.25 74.21875 35.25 65.765625 
Q 35.203125 61.96875 34.328125 57.421875 
Q 30.8125 38.8125 14.84375 13.09375 
z
M 14.796875 25.875 
Q 23.921875 42.875 26.703125 56.453125 
Q 28.171875 63.625 28.171875 65.484375 
Q 28.171875 68.84375 26.953125 68.84375 
Q 21.625 64.59375 16.890625 39.3125 
Q 15.578125 32.234375 14.796875 25.875 
z
" id="DejaVuSans-Oblique-8467"/>
     <path d="M 56.203125 29.59375 
L 56.203125 25.203125 
L 14.890625 25.203125 
Q 15.484375 15.921875 20.484375 11.0625 
Q 25.484375 6.203125 34.421875 6.203125 
Q 39.59375 6.203125 44.453125 7.46875 
Q 49.3125 8.734375 54.109375 11.28125 
L 54.109375 2.78125 
Q 49.265625 0.734375 44.1875 -0.34375 
Q 39.109375 -1.421875 33.890625 -1.421875 
Q 20.796875 -1.421875 13.15625 6.1875 
Q 5.515625 13.8125 5.515625 26.8125 
Q 5.515625 40.234375 12.765625 48.109375 
Q 20.015625 56 32.328125 56 
Q 43.359375 56 49.78125 48.890625 
Q 56.203125 41.796875 56.203125 29.59375 
z
M 47.21875 32.234375 
Q 47.125 39.59375 43.09375 43.984375 
Q 39.0625 48.390625 32.421875 48.390625 
Q 24.90625 48.390625 20.390625 44.140625 
Q 15.875 39.890625 15.1875 32.171875 
z
" id="DejaVuSans-101"/>
     <path d="M 45.40625 46.390625 
L 45.40625 75.984375 
L 54.390625 75.984375 
L 54.390625 0 
L 45.40625 0 
L 45.40625 8.203125 
Q 42.578125 3.328125 38.25 0.953125 
Q 33.9375 -1.421875 27.875 -1.421875 
Q 17.96875 -1.421875 11.734375 6.484375 
Q 5.515625 14.40625 5.515625 27.296875 
Q 5.515625 40.1875 11.734375 48.09375 
Q 17.96875 56 27.875 56 
Q 33.9375 56 38.25 53.625 
Q 42.578125 51.265625 45.40625 46.390625 
z
M 14.796875 27.296875 
Q 14.796875 17.390625 18.875 11.75 
Q 22.953125 6.109375 30.078125 6.109375 
Q 37.203125 6.109375 41.296875 11.75 
Q 45.40625 17.390625 45.40625 27.296875 
Q 45.40625 37.203125 41.296875 42.84375 
Q 37.203125 48.484375 30.078125 48.484375 
Q 22.953125 48.484375 18.875 42.84375 
Q 14.796875 37.203125 14.796875 27.296875 
z
" id="DejaVuSans-100"/>
     <path d="M 9.421875 75.984375 
L 18.40625 75.984375 
L 18.40625 0 
L 9.421875 0 
z
" id="DejaVuSans-108"/>
     <path d="M 34.671875 47.5625 
Q 27.25 47.5625 22.21875 42.1875 
Q 16.890625 36.578125 15.140625 27.296875 
Q 13.1875 17.484375 16.3125 11.8125 
Q 19.390625 6.203125 26.65625 6.203125 
Q 33.84375 6.203125 39.109375 11.859375 
Q 44.4375 17.53125 46.34375 27.296875 
Q 48.046875 36.234375 45.015625 42.1875 
Q 42.1875 47.5625 34.671875 47.5625 
z
M 36.078125 54.734375 
L 65.921875 54.6875 
L 64.15625 45.703125 
L 54.109375 45.703125 
Q 57.90625 38.09375 55.859375 27.296875 
Q 53.21875 13.875 45.0625 6.25 
Q 36.859375 -1.421875 25.140625 -1.421875 
Q 13.375 -1.421875 8.203125 6.25 
Q 3.03125 13.875 5.671875 27.296875 
Q 8.25 40.765625 16.40625 48.390625 
Q 23.1875 54.734375 36.078125 54.734375 
z
" id="DejaVuSans-Oblique-963"/>
     <path d="M 10.59375 45.40625 
L 73.1875 45.40625 
L 73.1875 37.203125 
L 10.59375 37.203125 
z
M 10.59375 25.484375 
L 73.1875 25.484375 
L 73.1875 17.1875 
L 10.59375 17.1875 
z
" id="DejaVuSans-61"/>
     <path d="M 10.6875 12.40625 
L 21 12.40625 
L 21 0 
L 10.6875 0 
z
" id="DejaVuSans-46"/>
    </defs>
    <g transform="translate(103.44 28.56)scale(0.12 -0.12)">
     <use transform="translate(0 0.015625)" xlink:href="#DejaVuSans-71"/>
     <use transform="translate(77.490234 0.015625)" xlink:href="#DejaVuSans-67"/>
     <use transform="translate(147.314453 0.015625)" xlink:href="#DejaVuSans-86"/>
     <use transform="translate(215.722656 0.015625)" xlink:href="#DejaVuSans-32"/>
     <use transform="translate(247.509766 0.015625)" xlink:href="#DejaVuSans-102"/>
     <use transform="translate(282.714844 0.015625)" xlink:href="#DejaVuSans-117"/>
     <use transform="translate(346.09375 0.015625)" xlink:href="#DejaVuSans-110"/>
     <use transform="translate(409.472656 0.015625)" xlink:href="#DejaVuSans-99"/>
     <use transform="translate(464.453125 0.015625)" xlink:href="#DejaVuSans-116"/>
     <use transform="translate(503.662109 0.015625)" xlink:href="#DejaVuSans-105"/>
     <use transform="translate(531.445312 0.015625)" xlink:href="#DejaVuSans-111"/>
     <use transform="translate(592.626953 0.015625)" xlink:href="#DejaVuSans-110"/>
     <use transform="translate(656.005859 0.015625)" xlink:href="#DejaVuSans-32"/>
     <use transform="translate(687.792969 0.015625)" xlink:href="#DejaVuSans-102"/>
     <use transform="translate(722.998047 0.015625)" xlink:href="#DejaVuSans-111"/>
     <use transform="translate(784.179688 0.015625)" xlink:href="#DejaVuSans-114"/>
     <use transform="translate(825.292969 0.015625)" xlink:href="#DejaVuSans-32"/>
     <use transform="translate(857.080078 0.015625)" xlink:href="#DejaVuSans-Oblique-8467"/>
     <use transform="translate(898.388672 -16.390625)scale(0.7)" xlink:href="#DejaVuSans-49"/>
     <use transform="translate(945.65918 0.015625)" xlink:href="#DejaVuSans-32"/>
     <use transform="translate(977.446289 0.015625)" xlink:href="#DejaVuSans-116"/>
     <use transform="translate(1016.655273 0.015625)" xlink:href="#DejaVuSans-114"/>
     <use transform="translate(1057.768555 0.015625)" xlink:href="#DejaVuSans-101"/>
     <use transform="translate(1119.291992 0.015625)" xlink:href="#DejaVuSans-110"/>
     <use transform="translate(1182.670898 0.015625)" xlink:href="#DejaVuSans-100"/>
     <use transform="translate(1246.147461 0.015625)" xlink:href="#DejaVuSans-32"/>
     <use transform="translate(1277.93457 0.015625)" xlink:href="#DejaVuSans-102"/>
     <use transform="translate(1313.139648 0.015625)" xlink:href="#DejaVuSans-105"/>
     <use transform="translate(1340.922852 0.015625)" xlink:href="#DejaVuSans-108"/>
     <use transform="translate(1368.706055 0.015625)" xlink:href="#DejaVuSans-116"/>
     <use transform="translate(1407.915039 0.015625)" xlink:href="#DejaVuSans-101"/>
     <use transform="translate(1469.438477 0.015625)" xlink:href="#DejaVuSans-114"/>
     <use transform="translate(1510.551758 0.015625)" xlink:href="#DejaVuSans-32"/>
     <use transform="translate(1542.338867 0.015625)" xlink:href="#DejaVuSans-40"/>
     <use transform="translate(1581.352539 0.015625)" xlink:href="#DejaVuSans-Oblique-963"/>
     <use transform="translate(1664.213867 0.015625)" xlink:href="#DejaVuSans-61"/>
     <use transform="translate(1767.485352 0.015625)" xlink:href="#DejaVuSans-48"/>
     <use transform="translate(1831.108398 0.015625)" xlink:href="#DejaVuSans-46"/>
     <use transform="translate(1862.895508 0.015625)" xlink:href="#DejaVuSans-49"/>
     <use transform="translate(1926.518555 0.015625)" xlink:href="#DejaVuSans-41"/>
    </g>
   </g>
   <g id="legend_1">
    <g id="line2d_24">
     <path d="M 273.36 50.278125 
L 321.36 50.278125 
" style="fill:none;stroke:#1f77b4;stroke-dasharray:7.5,2.5;stroke-dashoffset:0;stroke-width:2.5;"/>
    </g>
    <g id="line2d_25"/>
    <g id="text_11">
     <!-- state $x_1$ -->
     <defs>
      <path d="M 44.28125 53.078125 
L 44.28125 44.578125 
Q 40.484375 46.53125 36.375 47.5 
Q 32.28125 48.484375 27.875 48.484375 
Q 21.1875 48.484375 17.84375 46.4375 
Q 14.5 44.390625 14.5 40.28125 
Q 14.5 37.15625 16.890625 35.375 
Q 19.28125 33.59375 26.515625 31.984375 
L 29.59375 31.296875 
Q 39.15625 29.25 43.1875 25.515625 
Q 47.21875 21.78125 47.21875 15.09375 
Q 47.21875 7.46875 41.1875 3.015625 
Q 35.15625 -1.421875 24.609375 -1.421875 
Q 20.21875 -1.421875 15.453125 -0.5625 
Q 10.6875 0.296875 5.421875 2 
L 5.421875 11.28125 
Q 10.40625 8.6875 15.234375 7.390625 
Q 20.0625 6.109375 24.8125 6.109375 
Q 31.15625 6.109375 34.5625 8.28125 
Q 37.984375 10.453125 37.984375 14.40625 
Q 37.984375 18.0625 35.515625 20.015625 
Q 33.0625 21.96875 24.703125 23.78125 
L 21.578125 24.515625 
Q 13.234375 26.265625 9.515625 29.90625 
Q 5.8125 33.546875 5.8125 39.890625 
Q 5.8125 47.609375 11.28125 51.796875 
Q 16.75 56 26.8125 56 
Q 31.78125 56 36.171875 55.265625 
Q 40.578125 54.546875 44.28125 53.078125 
z
" id="DejaVuSans-115"/>
      <path d="M 34.28125 27.484375 
Q 23.390625 27.484375 19.1875 25 
Q 14.984375 22.515625 14.984375 16.5 
Q 14.984375 11.71875 18.140625 8.90625 
Q 21.296875 6.109375 26.703125 6.109375 
Q 34.1875 6.109375 38.703125 11.40625 
Q 43.21875 16.703125 43.21875 25.484375 
L 43.21875 27.484375 
z
M 52.203125 31.203125 
L 52.203125 0 
L 43.21875 0 
L 43.21875 8.296875 
Q 40.140625 3.328125 35.546875 0.953125 
Q 30.953125 -1.421875 24.3125 -1.421875 
Q 15.921875 -1.421875 10.953125 3.296875 
Q 6 8.015625 6 15.921875 
Q 6 25.140625 12.171875 29.828125 
Q 18.359375 34.515625 30.609375 34.515625 
L 43.21875 34.515625 
L 43.21875 35.40625 
Q 43.21875 41.609375 39.140625 45 
Q 35.0625 48.390625 27.6875 48.390625 
Q 23 48.390625 18.546875 47.265625 
Q 14.109375 46.140625 10.015625 43.890625 
L 10.015625 52.203125 
Q 14.9375 54.109375 19.578125 55.046875 
Q 24.21875 56 28.609375 56 
Q 40.484375 56 46.34375 49.84375 
Q 52.203125 43.703125 52.203125 31.203125 
z
" id="DejaVuSans-97"/>
      <path d="M 60.015625 54.6875 
L 34.90625 27.875 
L 50.296875 0 
L 39.984375 0 
L 28.421875 21.6875 
L 8.296875 0 
L -2.59375 0 
L 24.3125 28.8125 
L 10.015625 54.6875 
L 20.3125 54.6875 
L 30.8125 34.90625 
L 49.125 54.6875 
z
" id="DejaVuSans-Oblique-120"/>
     </defs>
     <g transform="translate(330.96 54.478125)scale(0.12 -0.12)">
      <use transform="translate(0 0.78125)" xlink:href="#DejaVuSans-115"/>
      <use transform="translate(52.099609 0.78125)" xlink:href="#DejaVuSans-116"/>
      <use transform="translate(91.308594 0.78125)" xlink:href="#DejaVuSans-97"/>
      <use transform="translate(152.587891 0.78125)" xlink:href="#DejaVuSans-116"/>
      <use transform="translate(191.796875 0.78125)" xlink:href="#DejaVuSans-101"/>
      <use transform="translate(253.320312 0.78125)" xlink:href="#DejaVuSans-32"/>
      <use transform="translate(285.107422 0.78125)" xlink:href="#DejaVuSans-Oblique-120"/>
      <use transform="translate(344.287109 -15.625)scale(0.7)" xlink:href="#DejaVuSans-49"/>
     </g>
    </g>
    <g id="line2d_26">
     <path d="M 273.36 67.891875 
L 321.36 67.891875 
" style="fill:none;stroke:#ff7f0e;stroke-dasharray:2500,2.5;stroke-dashoffset:0;stroke-width:2.5;"/>
    </g>
    <g id="line2d_27"/>
    <g id="text_12">
     <!-- state $x_2$ -->
     <g transform="translate(330.96 72.091875)scale(0.12 -0.12)">
      <use transform="translate(0 0.78125)" xlink:href="#DejaVuSans-115"/>
      <use transform="translate(52.099609 0.78125)" xlink:href="#DejaVuSans-116"/>
      <use transform="translate(91.308594 0.78125)" xlink:href="#DejaVuSans-97"/>
      <use transform="translate(152.587891 0.78125)" xlink:href="#DejaVuSans-116"/>
      <use transform="translate(191.796875 0.78125)" xlink:href="#DejaVuSans-101"/>
      <use transform="translate(253.320312 0.78125)" xlink:href="#DejaVuSans-32"/>
      <use transform="translate(285.107422 0.78125)" xlink:href="#DejaVuSans-Oblique-120"/>
      <use transform="translate(344.287109 -15.625)scale(0.7)" xlink:href="#DejaVuSans-50"/>
     </g>
    </g>
   </g>
  </g>
 </g>
 <defs>
  <clipPath id="p6d8785a634">
   <rect height="217.44" width="334.8" x="54" y="34.56"/>
  </clipPath>
 </defs>
</svg>
