<?xml version="1.0" encoding="utf-8" standalone="no"?>
<!DOCTYPE svg PUBLIC "-//W3C//DTD SVG 1.1//EN"
  "http://www.w3.org/Graphics/SVG/1.1/DTD/svg11.dtd">
<!-- Created with matplotlib (https://matplotlib.org/) -->
<svg height="288pt" version="1.1" viewBox="0 0 432 288" width="432pt" xmlns="http://www.w3.org/2000/svg" xmlns:xlink="http://www.w3.org/1999/xlink">
 <defs>
  <style type="text/css">
*{stroke-linecap:butt;stroke-linejoin:round;}
  </style>
 </defs>
 <g id="figure_1">
  <g id="patch_1">
   <path d="M 0 288 
L 432 288 
L 432 0 
L 0 0 
z
" style="fill:#ffffff;"/>
  </g>
  <g id="axes_1">
   <g id="patch_2">
    <path d="M 54 252 
L 388.8 252 
L 388.8 34.56 
L 54 34.56 
z
" style="fill:#ffffff;"/>
   </g>
   <g id="matplotlib.axis_1">
    <g id="xtick_1">
     <g id="line2d_1">
      <defs>
       <path d="M 0 0 
L 0 3.5 
" id="mfdd1a21909" style="stroke:#000000;stroke-width:0.8;"/>
      </defs>
      <g>
       <use style="stroke:#000000;stroke-width:0.8;" x="95.5037" xlink:href="#mfdd1a21909" y="252"/>
      </g>
     </g>
     <g id="text_1">
      <!-- $\mathdefault{10^{-6}}$ -->
      <defs>
       <path d="M 12.40625 8.296875 
L 28.515625 8.296875 
L 28.515625 63.921875 
L 10.984375 60.40625 
L 10.984375 69.390625 
L 28.421875 72.90625 
L 38.28125 72.90625 
L 38.28125 8.296875 
L 54.390625 8.296875 
L 54.390625 0 
L 12.40625 0 
z
" id="DejaVuSans-49"/>
       <path d="M 31.78125 66.40625 
Q 24.171875 66.40625 20.328125 58.90625 
Q 16.5 51.421875 16.5 36.375 
Q 16.5 21.390625 20.328125 13.890625 
Q 24.171875 6.390625 31.78125 6.390625 
Q 39.453125 6.390625 43.28125 13.890625 
Q 47.125 21.390625 47.125 36.375 
Q 47.125 51.421875 43.28125 58.90625 
Q 39.453125 66.40625 31.78125 66.40625 
z
M 31.78125 74.21875 
Q 44.046875 74.21875 50.515625 64.515625 
Q 56.984375 54.828125 56.984375 36.375 
Q 56.984375 17.96875 50.515625 8.265625 
Q 44.046875 -1.421875 31.78125 -1.421875 
Q 19.53125 -1.421875 13.0625 8.265625 
Q 6.59375 17.96875 6.59375 36.375 
Q 6.59375 54.828125 13.0625 64.515625 
Q 19.53125 74.21875 31.78125 74.21875 
z
" id="DejaVuSans-48"/>
       <path d="M 10.59375 35.5 
L 73.1875 35.5 
L 73.1875 27.203125 
L 10.59375 27.203125 
z
" id="DejaVuSans-8722"/>
       <path d="M 33.015625 40.375 
Q 26.375 40.375 22.484375 35.828125 
Q 18.609375 31.296875 18.609375 23.390625 
Q 18.609375 15.53125 22.484375 10.953125 
Q 26.375 6.390625 33.015625 6.390625 
Q 39.65625 6.390625 43.53125 10.953125 
Q 47.40625 15.53125 47.40625 23.390625 
Q 47.40625 31.296875 43.53125 35.828125 
Q 39.65625 40.375 33.015625 40.375 
z
M 52.59375 71.296875 
L 52.59375 62.3125 
Q 48.875 64.0625 45.09375 64.984375 
Q 41.3125 65.921875 37.59375 65.921875 
Q 27.828125 65.921875 22.671875 59.328125 
Q 17.53125 52.734375 16.796875 39.40625 
Q 19.671875 43.65625 24.015625 45.921875 
Q 28.375 48.1875 33.59375 48.1875 
Q 44.578125 48.1875 50.953125 41.515625 
Q 57.328125 34.859375 57.328125 23.390625 
Q 57.328125 12.15625 50.6875 5.359375 
Q 44.046875 -1.421875 33.015625 -1.421875 
Q 20.359375 -1.421875 13.671875 8.265625 
Q 6.984375 17.96875 6.984375 36.375 
Q 6.984375 53.65625 15.1875 63.9375 
Q 23.390625 74.21875 37.203125 74.21875 
Q 40.921875 74.21875 44.703125 73.484375 
Q 48.484375 72.75 52.59375 71.296875 
z
" id="DejaVuSans-54"/>
      </defs>
      <g transform="translate(81.4037 268.118125)scale(0.12 -0.12)">
       <use transform="translate(0 0.765625)" xlink:href="#DejaVuSans-49"/>
       <use transform="translate(63.623047 0.765625)" xlink:href="#DejaVuSans-48"/>
       <use transform="translate(128.203125 39.046875)scale(0.7)" xlink:href="#DejaVuSans-8722"/>
       <use transform="translate(186.855469 39.046875)scale(0.7)" xlink:href="#DejaVuSans-54"/>
      </g>
     </g>
    </g>
    <g id="xtick_2">
     <g id="line2d_2">
      <g>
       <use style="stroke:#000000;stroke-width:0.8;" x="145.107859" xlink:href="#mfdd1a21909" y="252"/>
      </g>
     </g>
     <g id="text_2">
      <!-- $\mathdefault{10^{-4}}$ -->
      <defs>
       <path d="M 37.796875 64.3125 
L 12.890625 25.390625 
L 37.796875 25.390625 
z
M 35.203125 72.90625 
L 47.609375 72.90625 
L 47.609375 25.390625 
L 58.015625 25.390625 
L 58.015625 17.1875 
L 47.609375 17.1875 
L 47.609375 0 
L 37.796875 0 
L 37.796875 17.1875 
L 4.890625 17.1875 
L 4.890625 26.703125 
z
" id="DejaVuSans-52"/>
      </defs>
      <g transform="translate(131.007859 268.118125)scale(0.12 -0.12)">
       <use transform="translate(0 0.684375)" xlink:href="#DejaVuSans-49"/>
       <use transform="translate(63.623047 0.684375)" xlink:href="#DejaVuSans-48"/>
       <use transform="translate(128.203125 38.965625)scale(0.7)" xlink:href="#DejaVuSans-8722"/>
       <use transform="translate(186.855469 38.965625)scale(0.7)" xlink:href="#DejaVuSans-52"/>
      </g>
     </g>
    </g>
    <g id="xtick_3">
     <g id="line2d_3">
      <g>
       <use style="stroke:#000000;stroke-width:0.8;" x="194.712018" xlink:href="#mfdd1a21909" y="252"/>
      </g>
     </g>
     <g id="text_3">
      <!-- $\mathdefault{10^{-2}}$ -->
      <defs>
       <path d="M 19.1875 8.296875 
L 53.609375 8.296875 
L 53.609375 0 
L 7.328125 0 
L 7.328125 8.296875 
Q 12.9375 14.109375 22.625 23.890625 
Q 32.328125 33.6875 34.8125 36.53125 
Q 39.546875 41.84375 41.421875 45.53125 
Q 43.3125 49.21875 43.3125 52.78125 
Q 43.3125 58.59375 39.234375 62.25 
Q 35.15625 65.921875 28.609375 65.921875 
Q 23.96875 65.921875 18.8125 64.3125 
Q 13.671875 62.703125 7.8125 59.421875 
L 7.8125 69.390625 
Q 13.765625 71.78125 18.9375 73 
Q 24.125 74.21875 28.421875 74.21875 
Q 39.75 74.21875 46.484375 68.546875 
Q 53.21875 62.890625 53.21875 53.421875 
Q 53.21875 48.921875 51.53125 44.890625 
Q 49.859375 40.875 45.40625 35.40625 
Q 44.1875 33.984375 37.640625 27.21875 
Q 31.109375 20.453125 19.1875 8.296875 
z
" id="DejaVuSans-50"/>
      </defs>
      <g transform="translate(180.612018 268.118125)scale(0.12 -0.12)">
       <use transform="translate(0 0.765625)" xlink:href="#DejaVuSans-49"/>
       <use transform="translate(63.623047 0.765625)" xlink:href="#DejaVuSans-48"/>
       <use transform="translate(128.203125 39.046875)scale(0.7)" xlink:href="#DejaVuSans-8722"/>
       <use transform="translate(186.855469 39.046875)scale(0.7)" xlink:href="#DejaVuSans-50"/>
      </g>
     </g>
    </g>
    <g id="xtick_4">
     <g id="line2d_4">
      <g>
       <use style="stroke:#000000;stroke-width:0.8;" x="244.316177" xlink:href="#mfdd1a21909" y="252"/>
      </g>
     </g>
     <g id="text_4">
      <!-- $\mathdefault{10^{0}}$ -->
      <g transform="translate(233.756177 268.118125)scale(0.12 -0.12)">
       <use transform="translate(0 0.765625)" xlink:href="#DejaVuSans-49"/>
       <use transform="translate(63.623047 0.765625)" xlink:href="#DejaVuSans-48"/>
       <use transform="translate(128.203125 39.046875)scale(0.7)" xlink:href="#DejaVuSans-48"/>
      </g>
     </g>
    </g>
    <g id="xtick_5">
     <g id="line2d_5">
      <g>
       <use style="stroke:#000000;stroke-width:0.8;" x="293.920336" xlink:href="#mfdd1a21909" y="252"/>
      </g>
     </g>
     <g id="text_5">
      <!-- $\mathdefault{10^{2}}$ -->
      <g transform="translate(283.360336 268.118125)scale(0.12 -0.12)">
       <use transform="translate(0 0.765625)" xlink:href="#DejaVuSans-49"/>
       <use transform="translate(63.623047 0.765625)" xlink:href="#DejaVuSans-48"/>
       <use transform="translate(128.203125 39.046875)scale(0.7)" xlink:href="#DejaVuSans-50"/>
      </g>
     </g>
    </g>
    <g id="xtick_6">
     <g id="line2d_6">
      <g>
       <use style="stroke:#000000;stroke-width:0.8;" x="343.524495" xlink:href="#mfdd1a21909" y="252"/>
      </g>
     </g>
     <g id="text_6">
      <!-- $\mathdefault{10^{4}}$ -->
      <g transform="translate(332.964495 268.118125)scale(0.12 -0.12)">
       <use transform="translate(0 0.684375)" xlink:href="#DejaVuSans-49"/>
       <use transform="translate(63.623047 0.684375)" xlink:href="#DejaVuSans-48"/>
       <use transform="translate(128.203125 38.965625)scale(0.7)" xlink:href="#DejaVuSans-52"/>
      </g>
     </g>
    </g>
    <g id="text_7">
     <!-- $\lambda$ -->
     <defs>
      <path d="M 36.71875 67.4375 
L 48.828125 0 
L 39.3125 0 
L 31.84375 40.4375 
L 5.125 0 
L -4.390625 0 
L 29.734375 52.4375 
L 28.03125 62.109375 
Q 26.953125 68.265625 21.734375 68.265625 
L 17.046875 68.265625 
L 18.5 75.984375 
L 24.21875 75.875 
Q 35.203125 75.734375 36.71875 67.4375 
z
" id="DejaVuSans-Oblique-955"/>
     </defs>
     <g transform="translate(217.8 283.731875)scale(0.12 -0.12)">
      <use transform="translate(0 0.015625)" xlink:href="#DejaVuSans-Oblique-955"/>
     </g>
    </g>
   </g>
   <g id="matplotlib.axis_2">
    <g id="ytick_1">
     <g id="line2d_7">
      <defs>
       <path d="M 0 0 
L -3.5 0 
" id="m4419c6810d" style="stroke:#000000;stroke-width:0.8;"/>
      </defs>
      <g>
       <use style="stroke:#000000;stroke-width:0.8;" x="54" xlink:href="#m4419c6810d" y="232.954542"/>
      </g>
     </g>
     <g id="text_8">
      <!-- $\mathdefault{10^{-7}}$ -->
      <defs>
       <path d="M 8.203125 72.90625 
L 55.078125 72.90625 
L 55.078125 68.703125 
L 28.609375 0 
L 18.3125 0 
L 43.21875 64.59375 
L 8.203125 64.59375 
z
" id="DejaVuSans-55"/>
      </defs>
      <g transform="translate(18.8 237.513604)scale(0.12 -0.12)">
       <use transform="translate(0 0.684375)" xlink:href="#DejaVuSans-49"/>
       <use transform="translate(63.623047 0.684375)" xlink:href="#DejaVuSans-48"/>
       <use transform="translate(128.203125 38.965625)scale(0.7)" xlink:href="#DejaVuSans-8722"/>
       <use transform="translate(186.855469 38.965625)scale(0.7)" xlink:href="#DejaVuSans-55"/>
      </g>
     </g>
    </g>
    <g id="ytick_2">
     <g id="line2d_8">
      <g>
       <use style="stroke:#000000;stroke-width:0.8;" x="54" xlink:href="#m4419c6810d" y="198.382496"/>
      </g>
     </g>
     <g id="text_9">
      <!-- $\mathdefault{10^{-6}}$ -->
      <g transform="translate(18.8 202.941559)scale(0.12 -0.12)">
       <use transform="translate(0 0.765625)" xlink:href="#DejaVuSans-49"/>
       <use transform="translate(63.623047 0.765625)" xlink:href="#DejaVuSans-48"/>
       <use transform="translate(128.203125 39.046875)scale(0.7)" xlink:href="#DejaVuSans-8722"/>
       <use transform="translate(186.855469 39.046875)scale(0.7)" xlink:href="#DejaVuSans-54"/>
      </g>
     </g>
    </g>
    <g id="ytick_3">
     <g id="line2d_9">
      <g>
       <use style="stroke:#000000;stroke-width:0.8;" x="54" xlink:href="#m4419c6810d" y="163.810451"/>
      </g>
     </g>
     <g id="text_10">
      <!-- $\mathdefault{10^{-5}}$ -->
      <defs>
       <path d="M 10.796875 72.90625 
L 49.515625 72.90625 
L 49.515625 64.59375 
L 19.828125 64.59375 
L 19.828125 46.734375 
Q 21.96875 47.46875 24.109375 47.828125 
Q 26.265625 48.1875 28.421875 48.1875 
Q 40.625 48.1875 47.75 41.5 
Q 54.890625 34.8125 54.890625 23.390625 
Q 54.890625 11.625 47.5625 5.09375 
Q 40.234375 -1.421875 26.90625 -1.421875 
Q 22.3125 -1.421875 17.546875 -0.640625 
Q 12.796875 0.140625 7.71875 1.703125 
L 7.71875 11.625 
Q 12.109375 9.234375 16.796875 8.0625 
Q 21.484375 6.890625 26.703125 6.890625 
Q 35.15625 6.890625 40.078125 11.328125 
Q 45.015625 15.765625 45.015625 23.390625 
Q 45.015625 31 40.078125 35.4375 
Q 35.15625 39.890625 26.703125 39.890625 
Q 22.75 39.890625 18.8125 39.015625 
Q 14.890625 38.140625 10.796875 36.28125 
z
" id="DejaVuSans-53"/>
      </defs>
      <g transform="translate(18.8 168.369514)scale(0.12 -0.12)">
       <use transform="translate(0 0.684375)" xlink:href="#DejaVuSans-49"/>
       <use transform="translate(63.623047 0.684375)" xlink:href="#DejaVuSans-48"/>
       <use transform="translate(128.203125 38.965625)scale(0.7)" xlink:href="#DejaVuSans-8722"/>
       <use transform="translate(186.855469 38.965625)scale(0.7)" xlink:href="#DejaVuSans-53"/>
      </g>
     </g>
    </g>
    <g id="ytick_4">
     <g id="line2d_10">
      <g>
       <use style="stroke:#000000;stroke-width:0.8;" x="54" xlink:href="#m4419c6810d" y="129.238406"/>
      </g>
     </g>
     <g id="text_11">
      <!-- $\mathdefault{10^{-4}}$ -->
      <g transform="translate(18.8 133.797468)scale(0.12 -0.12)">
       <use transform="translate(0 0.684375)" xlink:href="#DejaVuSans-49"/>
       <use transform="translate(63.623047 0.684375)" xlink:href="#DejaVuSans-48"/>
       <use transform="translate(128.203125 38.965625)scale(0.7)" xlink:href="#DejaVuSans-8722"/>
       <use transform="translate(186.855469 38.965625)scale(0.7)" xlink:href="#DejaVuSans-52"/>
      </g>
     </g>
    </g>
    <g id="ytick_5">
     <g id="line2d_11">
      <g>
       <use style="stroke:#000000;stroke-width:0.8;" x="54" xlink:href="#m4419c6810d" y="94.666361"/>
      </g>
     </g>
     <g id="text_12">
      <!-- $\mathdefault{10^{-3}}$ -->
      <defs>
       <path d="M 40.578125 39.3125 
Q 47.65625 37.796875 51.625 33 
Q 55.609375 28.21875 55.609375 21.1875 
Q 55.609375 10.40625 48.1875 4.484375 
Q 40.765625 -1.421875 27.09375 -1.421875 
Q 22.515625 -1.421875 17.65625 -0.515625 
Q 12.796875 0.390625 7.625 2.203125 
L 7.625 11.71875 
Q 11.71875 9.328125 16.59375 8.109375 
Q 21.484375 6.890625 26.8125 6.890625 
Q 36.078125 6.890625 40.9375 10.546875 
Q 45.796875 14.203125 45.796875 21.1875 
Q 45.796875 27.640625 41.28125 31.265625 
Q 36.765625 34.90625 28.71875 34.90625 
L 20.21875 34.90625 
L 20.21875 43.015625 
L 29.109375 43.015625 
Q 36.375 43.015625 40.234375 45.921875 
Q 44.09375 48.828125 44.09375 54.296875 
Q 44.09375 59.90625 40.109375 62.90625 
Q 36.140625 65.921875 28.71875 65.921875 
Q 24.65625 65.921875 20.015625 65.03125 
Q 15.375 64.15625 9.8125 62.3125 
L 9.8125 71.09375 
Q 15.4375 72.65625 20.34375 73.4375 
Q 25.25 74.21875 29.59375 74.21875 
Q 40.828125 74.21875 47.359375 69.109375 
Q 53.90625 64.015625 53.90625 55.328125 
Q 53.90625 49.265625 50.4375 45.09375 
Q 46.96875 40.921875 40.578125 39.3125 
z
" id="DejaVuSans-51"/>
      </defs>
      <g transform="translate(18.8 99.225423)scale(0.12 -0.12)">
       <use transform="translate(0 0.765625)" xlink:href="#DejaVuSans-49"/>
       <use transform="translate(63.623047 0.765625)" xlink:href="#DejaVuSans-48"/>
       <use transform="translate(128.203125 39.046875)scale(0.7)" xlink:href="#DejaVuSans-8722"/>
       <use transform="translate(186.855469 39.046875)scale(0.7)" xlink:href="#DejaVuSans-51"/>
      </g>
     </g>
    </g>
    <g id="ytick_6">
     <g id="line2d_12">
      <g>
       <use style="stroke:#000000;stroke-width:0.8;" x="54" xlink:href="#m4419c6810d" y="60.094315"/>
      </g>
     </g>
     <g id="text_13">
      <!-- $\mathdefault{10^{-2}}$ -->
      <g transform="translate(18.8 64.653378)scale(0.12 -0.12)">
       <use transform="translate(0 0.765625)" xlink:href="#DejaVuSans-49"/>
       <use transform="translate(63.623047 0.765625)" xlink:href="#DejaVuSans-48"/>
       <use transform="translate(128.203125 39.046875)scale(0.7)" xlink:href="#DejaVuSans-8722"/>
       <use transform="translate(186.855469 39.046875)scale(0.7)" xlink:href="#DejaVuSans-50"/>
      </g>
     </g>
    </g>
    <g id="ytick_7">
     <g id="line2d_13">
      <defs>
       <path d="M 0 0 
L -2 0 
" id="m86ff8c697e" style="stroke:#000000;stroke-width:0.6;"/>
      </defs>
      <g>
       <use style="stroke:#000000;stroke-width:0.6;" x="54" xlink:href="#m86ff8c697e" y="251.031529"/>
      </g>
     </g>
    </g>
    <g id="ytick_8">
     <g id="line2d_14">
      <g>
       <use style="stroke:#000000;stroke-width:0.6;" x="54" xlink:href="#m86ff8c697e" y="246.712142"/>
      </g>
     </g>
    </g>
    <g id="ytick_9">
     <g id="line2d_15">
      <g>
       <use style="stroke:#000000;stroke-width:0.6;" x="54" xlink:href="#m86ff8c697e" y="243.361764"/>
      </g>
     </g>
    </g>
    <g id="ytick_10">
     <g id="line2d_16">
      <g>
       <use style="stroke:#000000;stroke-width:0.6;" x="54" xlink:href="#m86ff8c697e" y="240.624307"/>
      </g>
     </g>
    </g>
    <g id="ytick_11">
     <g id="line2d_17">
      <g>
       <use style="stroke:#000000;stroke-width:0.6;" x="54" xlink:href="#m86ff8c697e" y="238.309819"/>
      </g>
     </g>
    </g>
    <g id="ytick_12">
     <g id="line2d_18">
      <g>
       <use style="stroke:#000000;stroke-width:0.6;" x="54" xlink:href="#m86ff8c697e" y="236.304919"/>
      </g>
     </g>
    </g>
    <g id="ytick_13">
     <g id="line2d_19">
      <g>
       <use style="stroke:#000000;stroke-width:0.6;" x="54" xlink:href="#m86ff8c697e" y="234.536472"/>
      </g>
     </g>
    </g>
    <g id="ytick_14">
     <g id="line2d_20">
      <g>
       <use style="stroke:#000000;stroke-width:0.6;" x="54" xlink:href="#m86ff8c697e" y="222.547319"/>
      </g>
     </g>
    </g>
    <g id="ytick_15">
     <g id="line2d_21">
      <g>
       <use style="stroke:#000000;stroke-width:0.6;" x="54" xlink:href="#m86ff8c697e" y="216.459484"/>
      </g>
     </g>
    </g>
    <g id="ytick_16">
     <g id="line2d_22">
      <g>
       <use style="stroke:#000000;stroke-width:0.6;" x="54" xlink:href="#m86ff8c697e" y="212.140096"/>
      </g>
     </g>
    </g>
    <g id="ytick_17">
     <g id="line2d_23">
      <g>
       <use style="stroke:#000000;stroke-width:0.6;" x="54" xlink:href="#m86ff8c697e" y="208.789719"/>
      </g>
     </g>
    </g>
    <g id="ytick_18">
     <g id="line2d_24">
      <g>
       <use style="stroke:#000000;stroke-width:0.6;" x="54" xlink:href="#m86ff8c697e" y="206.052261"/>
      </g>
     </g>
    </g>
    <g id="ytick_19">
     <g id="line2d_25">
      <g>
       <use style="stroke:#000000;stroke-width:0.6;" x="54" xlink:href="#m86ff8c697e" y="203.737774"/>
      </g>
     </g>
    </g>
    <g id="ytick_20">
     <g id="line2d_26">
      <g>
       <use style="stroke:#000000;stroke-width:0.6;" x="54" xlink:href="#m86ff8c697e" y="201.732874"/>
      </g>
     </g>
    </g>
    <g id="ytick_21">
     <g id="line2d_27">
      <g>
       <use style="stroke:#000000;stroke-width:0.6;" x="54" xlink:href="#m86ff8c697e" y="199.964426"/>
      </g>
     </g>
    </g>
    <g id="ytick_22">
     <g id="line2d_28">
      <g>
       <use style="stroke:#000000;stroke-width:0.6;" x="54" xlink:href="#m86ff8c697e" y="187.975274"/>
      </g>
     </g>
    </g>
    <g id="ytick_23">
     <g id="line2d_29">
      <g>
       <use style="stroke:#000000;stroke-width:0.6;" x="54" xlink:href="#m86ff8c697e" y="181.887439"/>
      </g>
     </g>
    </g>
    <g id="ytick_24">
     <g id="line2d_30">
      <g>
       <use style="stroke:#000000;stroke-width:0.6;" x="54" xlink:href="#m86ff8c697e" y="177.568051"/>
      </g>
     </g>
    </g>
    <g id="ytick_25">
     <g id="line2d_31">
      <g>
       <use style="stroke:#000000;stroke-width:0.6;" x="54" xlink:href="#m86ff8c697e" y="174.217674"/>
      </g>
     </g>
    </g>
    <g id="ytick_26">
     <g id="line2d_32">
      <g>
       <use style="stroke:#000000;stroke-width:0.6;" x="54" xlink:href="#m86ff8c697e" y="171.480216"/>
      </g>
     </g>
    </g>
    <g id="ytick_27">
     <g id="line2d_33">
      <g>
       <use style="stroke:#000000;stroke-width:0.6;" x="54" xlink:href="#m86ff8c697e" y="169.165729"/>
      </g>
     </g>
    </g>
    <g id="ytick_28">
     <g id="line2d_34">
      <g>
       <use style="stroke:#000000;stroke-width:0.6;" x="54" xlink:href="#m86ff8c697e" y="167.160828"/>
      </g>
     </g>
    </g>
    <g id="ytick_29">
     <g id="line2d_35">
      <g>
       <use style="stroke:#000000;stroke-width:0.6;" x="54" xlink:href="#m86ff8c697e" y="165.392381"/>
      </g>
     </g>
    </g>
    <g id="ytick_30">
     <g id="line2d_36">
      <g>
       <use style="stroke:#000000;stroke-width:0.6;" x="54" xlink:href="#m86ff8c697e" y="153.403228"/>
      </g>
     </g>
    </g>
    <g id="ytick_31">
     <g id="line2d_37">
      <g>
       <use style="stroke:#000000;stroke-width:0.6;" x="54" xlink:href="#m86ff8c697e" y="147.315394"/>
      </g>
     </g>
    </g>
    <g id="ytick_32">
     <g id="line2d_38">
      <g>
       <use style="stroke:#000000;stroke-width:0.6;" x="54" xlink:href="#m86ff8c697e" y="142.996006"/>
      </g>
     </g>
    </g>
    <g id="ytick_33">
     <g id="line2d_39">
      <g>
       <use style="stroke:#000000;stroke-width:0.6;" x="54" xlink:href="#m86ff8c697e" y="139.645628"/>
      </g>
     </g>
    </g>
    <g id="ytick_34">
     <g id="line2d_40">
      <g>
       <use style="stroke:#000000;stroke-width:0.6;" x="54" xlink:href="#m86ff8c697e" y="136.908171"/>
      </g>
     </g>
    </g>
    <g id="ytick_35">
     <g id="line2d_41">
      <g>
       <use style="stroke:#000000;stroke-width:0.6;" x="54" xlink:href="#m86ff8c697e" y="134.593683"/>
      </g>
     </g>
    </g>
    <g id="ytick_36">
     <g id="line2d_42">
      <g>
       <use style="stroke:#000000;stroke-width:0.6;" x="54" xlink:href="#m86ff8c697e" y="132.588783"/>
      </g>
     </g>
    </g>
    <g id="ytick_37">
     <g id="line2d_43">
      <g>
       <use style="stroke:#000000;stroke-width:0.6;" x="54" xlink:href="#m86ff8c697e" y="130.820336"/>
      </g>
     </g>
    </g>
    <g id="ytick_38">
     <g id="line2d_44">
      <g>
       <use style="stroke:#000000;stroke-width:0.6;" x="54" xlink:href="#m86ff8c697e" y="118.831183"/>
      </g>
     </g>
    </g>
    <g id="ytick_39">
     <g id="line2d_45">
      <g>
       <use style="stroke:#000000;stroke-width:0.6;" x="54" xlink:href="#m86ff8c697e" y="112.743348"/>
      </g>
     </g>
    </g>
    <g id="ytick_40">
     <g id="line2d_46">
      <g>
       <use style="stroke:#000000;stroke-width:0.6;" x="54" xlink:href="#m86ff8c697e" y="108.423961"/>
      </g>
     </g>
    </g>
    <g id="ytick_41">
     <g id="line2d_47">
      <g>
       <use style="stroke:#000000;stroke-width:0.6;" x="54" xlink:href="#m86ff8c697e" y="105.073583"/>
      </g>
     </g>
    </g>
    <g id="ytick_42">
     <g id="line2d_48">
      <g>
       <use style="stroke:#000000;stroke-width:0.6;" x="54" xlink:href="#m86ff8c697e" y="102.336126"/>
      </g>
     </g>
    </g>
    <g id="ytick_43">
     <g id="line2d_49">
      <g>
       <use style="stroke:#000000;stroke-width:0.6;" x="54" xlink:href="#m86ff8c697e" y="100.021638"/>
      </g>
     </g>
    </g>
    <g id="ytick_44">
     <g id="line2d_50">
      <g>
       <use style="stroke:#000000;stroke-width:0.6;" x="54" xlink:href="#m86ff8c697e" y="98.016738"/>
      </g>
     </g>
    </g>
    <g id="ytick_45">
     <g id="line2d_51">
      <g>
       <use style="stroke:#000000;stroke-width:0.6;" x="54" xlink:href="#m86ff8c697e" y="96.248291"/>
      </g>
     </g>
    </g>
    <g id="ytick_46">
     <g id="line2d_52">
      <g>
       <use style="stroke:#000000;stroke-width:0.6;" x="54" xlink:href="#m86ff8c697e" y="84.259138"/>
      </g>
     </g>
    </g>
    <g id="ytick_47">
     <g id="line2d_53">
      <g>
       <use style="stroke:#000000;stroke-width:0.6;" x="54" xlink:href="#m86ff8c697e" y="78.171303"/>
      </g>
     </g>
    </g>
    <g id="ytick_48">
     <g id="line2d_54">
      <g>
       <use style="stroke:#000000;stroke-width:0.6;" x="54" xlink:href="#m86ff8c697e" y="73.851915"/>
      </g>
     </g>
    </g>
    <g id="ytick_49">
     <g id="line2d_55">
      <g>
       <use style="stroke:#000000;stroke-width:0.6;" x="54" xlink:href="#m86ff8c697e" y="70.501538"/>
      </g>
     </g>
    </g>
    <g id="ytick_50">
     <g id="line2d_56">
      <g>
       <use style="stroke:#000000;stroke-width:0.6;" x="54" xlink:href="#m86ff8c697e" y="67.76408"/>
      </g>
     </g>
    </g>
    <g id="ytick_51">
     <g id="line2d_57">
      <g>
       <use style="stroke:#000000;stroke-width:0.6;" x="54" xlink:href="#m86ff8c697e" y="65.449593"/>
      </g>
     </g>
    </g>
    <g id="ytick_52">
     <g id="line2d_58">
      <g>
       <use style="stroke:#000000;stroke-width:0.6;" x="54" xlink:href="#m86ff8c697e" y="63.444693"/>
      </g>
     </g>
    </g>
    <g id="ytick_53">
     <g id="line2d_59">
      <g>
       <use style="stroke:#000000;stroke-width:0.6;" x="54" xlink:href="#m86ff8c697e" y="61.676245"/>
      </g>
     </g>
    </g>
    <g id="ytick_54">
     <g id="line2d_60">
      <g>
       <use style="stroke:#000000;stroke-width:0.6;" x="54" xlink:href="#m86ff8c697e" y="49.687093"/>
      </g>
     </g>
    </g>
    <g id="ytick_55">
     <g id="line2d_61">
      <g>
       <use style="stroke:#000000;stroke-width:0.6;" x="54" xlink:href="#m86ff8c697e" y="43.599258"/>
      </g>
     </g>
    </g>
    <g id="ytick_56">
     <g id="line2d_62">
      <g>
       <use style="stroke:#000000;stroke-width:0.6;" x="54" xlink:href="#m86ff8c697e" y="39.27987"/>
      </g>
     </g>
    </g>
    <g id="ytick_57">
     <g id="line2d_63">
      <g>
       <use style="stroke:#000000;stroke-width:0.6;" x="54" xlink:href="#m86ff8c697e" y="35.929493"/>
      </g>
     </g>
    </g>
    <g id="text_14">
     <!-- GCV($\lambda$) -->
     <defs>
      <path d="M 59.515625 10.40625 
L 59.515625 29.984375 
L 43.40625 29.984375 
L 43.40625 38.09375 
L 69.28125 38.09375 
L 69.28125 6.78125 
Q 63.578125 2.734375 56.6875 0.65625 
Q 49.8125 -1.421875 42 -1.421875 
Q 24.90625 -1.421875 15.25 8.5625 
Q 5.609375 18.5625 5.609375 36.375 
Q 5.609375 54.25 15.25 64.234375 
Q 24.90625 74.21875 42 74.21875 
Q 49.125 74.21875 55.546875 72.453125 
Q 61.96875 70.703125 67.390625 67.28125 
L 67.390625 56.78125 
Q 61.921875 61.421875 55.765625 63.765625 
Q 49.609375 66.109375 42.828125 66.109375 
Q 29.4375 66.109375 22.71875 58.640625 
Q 16.015625 51.171875 16.015625 36.375 
Q 16.015625 21.625 22.71875 14.15625 
Q 29.4375 6.6875 42.828125 6.6875 
Q 48.046875 6.6875 52.140625 7.59375 
Q 56.25 8.5 59.515625 10.40625 
z
" id="DejaVuSans-71"/>
      <path d="M 64.40625 67.28125 
L 64.40625 56.890625 
Q 59.421875 61.53125 53.78125 63.8125 
Q 48.140625 66.109375 41.796875 66.109375 
Q 29.296875 66.109375 22.65625 58.46875 
Q 16.015625 50.828125 16.015625 36.375 
Q 16.015625 21.96875 22.65625 14.328125 
Q 29.296875 6.6875 41.796875 6.6875 
Q 48.140625 6.6875 53.78125 8.984375 
Q 59.421875 11.28125 64.40625 15.921875 
L 64.40625 5.609375 
Q 59.234375 2.09375 53.4375 0.328125 
Q 47.65625 -1.421875 41.21875 -1.421875 
Q 24.65625 -1.421875 15.125 8.703125 
Q 5.609375 18.84375 5.609375 36.375 
Q 5.609375 53.953125 15.125 64.078125 
Q 24.65625 74.21875 41.21875 74.21875 
Q 47.75 74.21875 53.53125 72.484375 
Q 59.328125 70.75 64.40625 67.28125 
z
" id="DejaVuSans-67"/>
      <path d="M 28.609375 0 
L 0.78125 72.90625 
L 11.078125 72.90625 
L 34.1875 11.53125 
L 57.328125 72.90625 
L 67.578125 72.90625 
L 39.796875 0 
z
" id="DejaVuSans-86"/>
      <path d="M 31 75.875 
Q 24.46875 64.65625 21.28125 53.65625 
Q 18.109375 42.671875 18.109375 31.390625 
Q 18.109375 20.125 21.3125 9.0625 
Q 24.515625 -2 31 -13.1875 
L 23.1875 -13.1875 
Q 15.875 -1.703125 12.234375 9.375 
Q 8.59375 20.453125 8.59375 31.390625 
Q 8.59375 42.28125 12.203125 53.3125 
Q 15.828125 64.359375 23.1875 75.875 
z
" id="DejaVuSans-40"/>
      <path d="M 8.015625 75.875 
L 15.828125 75.875 
Q 23.140625 64.359375 26.78125 53.3125 
Q 30.421875 42.28125 30.421875 31.390625 
Q 30.421875 20.453125 26.78125 9.375 
Q 23.140625 -1.703125 15.828125 -13.1875 
L 8.015625 -13.1875 
Q 14.5 -2 17.703125 9.0625 
Q 20.90625 20.125 20.90625 31.390625 
Q 20.90625 42.671875 17.703125 53.65625 
Q 14.5 64.65625 8.015625 75.875 
z
" id="DejaVuSans-41"/>
     </defs>
     <g transform="translate(12.304375 164.46)rotate(-90)scale(0.12 -0.12)">
      <use transform="translate(0 0.015625)" xlink:href="#DejaVuSans-71"/>
      <use transform="translate(77.490234 0.015625)" xlink:href="#DejaVuSans-67"/>
      <use transform="translate(147.314453 0.015625)" xlink:href="#DejaVuSans-86"/>
      <use transform="translate(215.722656 0.015625)" xlink:href="#DejaVuSans-40"/>
      <use transform="translate(254.736328 0.015625)" xlink:href="#DejaVuSans-Oblique-955"/>
      <use transform="translate(313.916016 0.015625)" xlink:href="#DejaVuSans-41"/>
     </g>
    </g>
   </g>
   <g id="line2d_64">
    <path clip-path="url(#p81594522b4)" d="M 359.541807 83.600891 
L 354.305531 93.316725 
L 354.211713 93.420607 
L 352.292512 96.610733 
L 349.556213 100.84257 
L 343.258321 109.659596 
L 342.602565 110.333067 
L 342.321208 110.898647 
L 341.665767 111.54135 
L 341.365591 112.146495 
L 340.708895 112.760612 
L 340.388355 113.406371 
L 339.728704 113.993838 
L 339.385967 114.68119 
L 338.721733 115.243547 
L 338.354623 115.973332 
L 337.684333 116.511701 
L 337.29027 117.284519 
L 336.612352 117.799792 
L 336.188251 118.61588 
L 335.501111 119.10866 
L 335.043259 119.967739 
L 334.345287 120.438341 
L 333.849188 121.339381 
L 333.138696 121.787882 
L 332.598844 122.728849 
L 331.873889 123.155149 
L 331.28345 124.132654 
L 330.541751 124.536479 
L 329.892108 125.545332 
L 329.130977 125.926237 
L 328.411067 126.958915 
L 327.627034 127.316373 
L 326.822327 128.362372 
L 326.011224 128.695717 
L 325.102139 129.740881 
L 324.016575 130.19328 
L 323.814359 130.337419 
L 323.812838 130.200332 
L 322.474857 132.106799 
L 322.463402 131.991962 
L 321.227338 133.705933 
L 321.193147 133.628418 
L 320.097526 134.87457 
L 320.046099 134.822147 
L 318.883841 135.913013 
L 317.701051 136.907251 
L 316.492092 137.81057 
L 315.250484 138.628451 
L 313.969512 139.36571 
L 312.313221 140.294044 
L 311.015125 143.100075 
L 309.81347 146.433788 
L 308.48988 149.505765 
L 304.994745 158.102317 
L 304.559967 158.910707 
L 300.007631 169.341572 
L 299.288997 170.774737 
L 294.270716 180.244814 
L 291.772654 183.849096 
L 289.460504 186.512829 
L 287.500931 188.251888 
L 281.596265 191.711096 
L 273.31542 193.355424 
L 267.768983 193.47414 
L 266.986676 193.913407 
L 264.379556 194.220384 
L 264.068717 194.410333 
L 263.804181 194.33379 
L 263.697095 194.492001 
L 263.1203 194.346422 
L 263.06025 194.500504 
L 262.866195 194.668097 
L 262.473641 194.485567 
L 262.417487 194.640371 
L 262.259027 194.549562 
L 262.185925 194.848514 
L 262.161925 194.709657 
L 261.602899 194.754597 
L 261.461079 195.064617 
L 261.423803 194.930359 
L 261.039101 194.89439 
L 260.786308 195.075957 
L 260.460053 195.021511 
L 260.436396 195.170849 
L 259.865374 195.172078 
L 259.734749 195.332864 
L 258.954326 195.208376 
L 258.942377 195.354453 
L 258.938939 195.21021 
L 258.613617 195.390657 
L 258.038818 195.352719 
L 257.930419 195.514171 
L 257.579336 195.432079 
L 257.086292 195.657339 
L 257.053916 195.804038 
L 256.574358 195.724495 
L 255.682486 195.691567 
L 255.351677 195.857838 
L 254.636645 195.785647 
L 254.618369 195.642158 
L 254.552272 195.793832 
L 254.481425 195.944847 
L 254.283011 195.820373 
L 254.200288 195.971986 
L 252.711094 195.957578 
L 252.483794 195.829991 
L 251.864487 196.014976 
L 251.72916 195.878699 
L 251.121871 196.058177 
L 250.808589 195.931234 
L 249.985832 196.113076 
L 249.957444 196.258945 
L 249.608826 196.410855 
L 248.480428 196.162942 
L 247.551067 195.907201 
L 247.52958 196.054043 
L 247.173804 195.77491 
L 247.160423 195.922238 
L 247.121101 195.776852 
L 246.899542 195.931459 
L 246.472231 196.089857 
L 246.272266 195.950159 
L 245.608543 196.112499 
L 245.594482 195.966835 
L 245.366128 196.118108 
L 245.263802 195.974508 
L 244.52719 196.13514 
L 244.009966 196.000792 
L 243.791363 196.150117 
L 243.317123 196.011855 
L 243.308704 196.158097 
L 242.825916 196.309607 
L 242.762824 196.165363 
L 242.289752 196.316274 
L 242.241983 196.171433 
L 241.199856 196.038432 
L 240.786582 196.188526 
L 239.684391 195.90879 
L 239.487288 196.057811 
L 239.125642 195.767881 
L 238.862373 196.065196 
L 238.190668 196.216005 
L 236.571437 195.933374 
L 235.36484 196.0855 
L 235.149761 195.79313 
L 235.078218 195.94117 
L 234.628821 196.08963 
L 234.197465 195.803666 
L 233.890865 195.955067 
L 233.846455 195.808504 
L 232.822294 196.114085 
L 232.624005 195.970747 
L 232.580149 196.117979 
L 232.453771 195.826621 
L 232.337473 195.976497 
L 232.065082 195.834965 
L 231.949573 195.983816 
L 231.894526 195.837029 
L 231.424455 196.136209 
L 231.397645 195.990212 
L 231.212107 195.849237 
L 230.616108 195.730878 
L 230.392614 195.888668 
L 230.275013 195.601546 
L 230.034566 195.90877 
L 229.769004 196.063342 
L 228.875244 195.940018 
L 228.323665 196.099036 
L 228.140315 195.661463 
L 227.888467 195.967112 
L 227.821175 195.820948 
L 227.335537 195.693854 
L 227.132634 195.848647 
L 227.097282 195.700674 
L 227.089733 195.849858 
L 226.871389 195.706167 
L 226.432923 195.568937 
L 226.222256 195.872595 
L 224.927267 196.03967 
L 224.890592 195.892041 
L 224.883043 196.040459 
L 224.303958 195.762751 
L 224.008249 195.918127 
L 221.8058 196.23959 
L 220.782938 195.959678 
L 220.666722 196.109299 
L 220.500124 195.963627 
L 219.735117 196.119226 
L 219.486468 195.973447 
L 218.995097 196.126032 
L 217.6063 195.989004 
L 217.433915 195.694185 
L 217.282004 195.846293 
L 217.013645 195.700701 
L 216.918993 195.851891 
L 216.711896 195.705551 
L 216.205193 195.417502 
L 216.174937 195.57036 
L 216.156692 195.721169 
L 216.00617 195.422403 
L 216.001178 195.573765 
L 215.898119 195.725839 
L 215.804068 195.578168 
L 215.436088 195.887764 
L 214.671684 196.044145 
L 214.086668 195.902856 
L 214.079033 196.051943 
L 214.041267 195.903717 
L 213.689558 195.761277 
L 213.620673 195.612824 
L 213.548948 195.765183 
L 213.256675 195.917258 
L 213.098486 195.771811 
L 212.970759 195.924635 
L 212.774099 195.779641 
L 212.646417 195.930398 
L 212.448105 195.785035 
L 212.283344 195.93818 
L 211.952691 196.089584 
L 211.400083 195.953257 
L 210.930467 196.105407 
L 210.720103 195.958126 
L 210.698687 196.107303 
L 210.537166 195.810097 
L 210.132756 195.51921 
L 209.984139 195.37532 
L 209.768785 195.683352 
L 209.61465 195.535178 
L 209.371551 195.84018 
L 209.051774 195.992117 
L 208.355377 195.857239 
L 208.053087 196.008888 
L 207.755061 195.718859 
L 207.608593 196.023024 
L 206.861674 195.900317 
L 206.791992 196.05149 
L 206.674354 195.905037 
L 206.378367 196.061503 
L 206.224965 195.916804 
L 205.942153 196.072818 
L 205.096321 195.805156 
L 204.831566 195.370292 
L 204.752784 195.52882 
L 204.606282 195.387002 
L 204.602667 195.540058 
L 204.480723 195.396537 
L 204.324235 195.559396 
L 204.044151 195.424348 
L 203.982632 195.120972 
L 203.767715 195.2911 
L 203.417852 195.007419 
L 203.31958 194.859858 
L 203.112134 195.032598 
L 203.106103 194.877585 
L 201.591397 195.29944 
L 201.585882 195.144784 
L 201.155367 195.03651 
L 201.015191 195.51359 
L 200.984925 195.360801 
L 200.388131 195.090536 
L 200.307607 194.628946 
L 200.289403 194.789797 
L 200.000321 194.967449 
L 199.938385 194.814262 
L 199.567282 195.305843 
L 199.421394 195.157565 
L 199.062288 195.330399 
L 199.019533 195.487359 
L 198.410074 195.209258 
L 198.267642 195.372125 
L 198.227914 195.218023 
L 198.057693 195.07904 
L 197.677842 195.412729 
L 197.523525 195.267389 
L 197.306201 195.437325 
L 197.202187 195.287869 
L 197.037601 195.450965 
L 196.760028 195.170407 
L 196.563241 195.502059 
L 196.538326 195.348546 
L 196.258649 195.068117 
L 196.067395 195.245239 
L 196.038126 195.090642 
L 195.713755 194.979552 
L 195.694795 195.140534 
L 195.475228 195.324846 
L 195.295136 195.034422 
L 194.967922 195.235549 
L 194.893035 195.087232 
L 194.808364 195.256411 
L 194.158544 195.179734 
L 194.089341 194.869157 
L 193.554245 195.259567 
L 193.377092 195.123998 
L 192.858676 195.345138 
L 192.7472 195.199237 
L 192.71002 195.362623 
L 192.51462 195.538818 
L 192.380311 195.393892 
L 192.233292 195.722714 
L 192.105488 195.576628 
L 191.931926 195.274524 
L 191.274628 195.173957 
L 191.261185 195.014162 
L 191.21526 195.179281 
L 191.039927 195.354613 
L 191.020348 195.196515 
L 190.355066 195.101281 
L 190.200887 195.275078 
L 190.158679 194.955833 
L 189.90731 194.816082 
L 189.884894 194.654458 
L 189.861543 194.819958 
L 189.435281 195.015103 
L 189.409313 195.178813 
L 189.209275 195.353618 
L 189.113224 195.199533 
L 188.354079 195.566494 
L 188.191642 195.415009 
L 187.744355 195.277629 
L 187.512151 194.965844 
L 187.388583 195.135117 
L 187.244856 194.816187 
L 186.972242 194.993916 
L 186.901727 194.672612 
L 186.855314 194.676069 
L 186.768013 194.847207 
L 186.304814 195.041563 
L 186.02623 194.731145 
L 185.856339 194.90582 
L 185.702705 194.422412 
L 185.493642 194.602737 
L 185.158862 194.291205 
L 185.14898 194.45907 
L 184.91344 194.637866 
L 184.817302 194.481078 
L 184.246862 194.839314 
L 184.051897 194.68288 
L 183.7658 194.860859 
L 183.156531 194.558871 
L 182.724506 194.741037 
L 182.495259 194.082906 
L 182.41966 194.424795 
L 181.888722 194.288291 
L 181.734207 194.464419 
L 181.503188 194.308819 
L 181.319339 194.485716 
L 181.059109 194.162608 
L 180.770481 194.008388 
L 180.7415 194.180067 
L 180.383259 194.034408 
L 180.307593 193.698457 
L 180.266985 193.873311 
L 180.185001 194.049933 
L 179.695089 194.244922 
L 179.526184 194.421176 
L 179.216712 194.097442 
L 179.109841 194.441593 
L 178.983312 194.108312 
L 178.716968 194.459514 
L 178.70881 194.628075 
L 178.535009 194.467023 
L 178.503776 194.63646 
L 178.385601 194.30438 
L 178.310535 193.969805 
L 178.308637 194.14105 
L 177.998546 194.328795 
L 177.850762 193.995796 
L 177.319732 194.365477 
L 177.174811 194.707917 
L 177.158192 194.540783 
L 177.015792 194.380862 
L 176.333392 194.566423 
L 175.701565 194.079483 
L 175.514336 193.581223 
L 175.508251 193.756303 
L 175.497352 193.930548 
L 175.257846 193.782573 
L 175.139837 194.139549 
L 174.814778 193.830166 
L 174.794245 194.005561 
L 174.714196 193.842204 
L 174.194917 193.218652 
L 174.14254 193.40202 
L 174.090728 193.231709 
L 173.937221 193.077859 
L 173.933065 193.256665 
L 173.724666 193.462883 
L 173.248538 192.462526 
L 173.236471 192.096713 
L 173.155841 192.482351 
L 173.066787 192.681532 
L 172.793834 192.909266 
L 172.727978 192.558393 
L 172.588024 192.946563 
L 172.549741 192.771355 
L 172.404027 192.431644 
L 172.370908 192.620603 
L 172.360181 192.804708 
L 172.299885 192.631776 
L 171.457659 193.118501 
L 171.213288 193.330094 
L 170.94165 192.835226 
L 170.541307 193.26465 
L 170.321627 193.116006 
L 170.316581 192.934328 
L 169.750264 193.208808 
L 169.732753 193.392945 
L 169.698658 193.218093 
L 169.611101 193.415987 
L 169.48909 193.257776 
L 169.270725 193.471459 
L 168.844003 192.439643 
L 168.514685 192.685856 
L 168.45796 192.320447 
L 168.225755 192.17105 
L 167.884006 192.416255 
L 167.622263 192.272233 
L 167.611344 192.083549 
L 167.595203 192.466533 
L 167.381174 192.133266 
L 167.345772 192.331565 
L 167.138704 192.562295 
L 166.850873 192.24056 
L 166.419192 192.509114 
L 166.278447 192.908546 
L 166.130147 192.743072 
L 166.06455 192.373615 
L 165.460783 192.281008 
L 165.322799 192.112457 
L 165.231195 192.321751 
L 165.204358 192.133697 
L 165.144627 192.336988 
L 165.107429 192.534169 
L 164.772177 192.764101 
L 164.772064 192.573455 
L 164.505136 192.984361 
L 164.208155 192.45013 
L 163.81934 191.731871 
L 163.689656 191.94998 
L 163.674478 191.755922 
L 163.512177 191.98186 
L 163.488536 191.78925 
L 163.142356 192.041507 
L 162.716246 190.740387 
L 162.681801 190.954852 
L 162.64279 190.554646 
L 162.608415 190.358128 
L 162.504324 190.596079 
L 162.488023 190.394143 
L 162.347026 190.647288 
L 161.943351 190.571592 
L 161.884893 190.383665 
L 161.729838 190.648513 
L 161.510921 190.523749 
L 161.394082 191.3887 
L 161.24469 190.822768 
L 161.20752 190.42152 
L 161.109249 190.469151 
L 161.01927 190.930553 
L 161.014584 190.723454 
L 160.795248 191.235621 
L 160.71359 191.679583 
L 160.344335 191.61863 
L 160.248314 191.240763 
L 160.059095 191.518449 
L 160.048986 191.315211 
L 159.79984 191.013486 
L 159.705543 190.632319 
L 159.269166 190.412851 
L 159.089564 190.069252 
L 158.75723 190.888384 
L 158.194855 190.963955 
L 158.055488 190.381397 
L 158.02317 190.621538 
L 157.721713 190.577634 
L 157.721265 190.799504 
L 157.544359 191.103906 
L 157.420456 190.501511 
L 157.209357 191.045797 
L 156.961109 190.941606 
L 156.815352 190.335877 
L 156.676307 190.630357 
L 156.625589 190.428492 
L 156.622451 190.656622 
L 156.428758 190.522985 
L 155.735464 190.627024 
L 155.634504 190.900728 
L 155.561104 190.475198 
L 155.557254 190.245193 
L 155.397341 190.550927 
L 155.382209 190.326823 
L 155.332346 190.580523 
L 155.311686 190.360089 
L 155.190012 189.727935 
L 155.0481 190.285702 
L 154.755375 189.979048 
L 154.504051 189.886619 
L 154.499925 189.40485 
L 154.136818 190.111433 
L 154.087352 189.900403 
L 153.899833 190.253326 
L 153.797898 189.833602 
L 153.597875 190.202647 
L 153.429915 189.574249 
L 153.313348 189.156712 
L 153.308873 189.410955 
L 153.167451 189.751405 
L 153.160485 189.50666 
L 152.991998 189.111528 
L 152.742822 188.511607 
L 152.629864 188.850081 
L 152.592727 188.619152 
L 152.569733 188.110379 
L 152.510783 188.15606 
L 151.881067 189.415606 
L 151.728173 189.780424 
L 151.241118 189.643566 
L 151.176134 189.954281 
L 150.934813 189.617888 
L 150.89857 189.907566 
L 150.447353 189.201088 
L 150.268118 189.073487 
L 149.806627 189.160841 
L 149.581473 189.055056 
L 149.566402 189.343033 
L 149.360995 188.960186 
L 149.294885 188.449849 
L 149.066213 188.075298 
L 148.774107 187.468451 
L 148.678205 187.259935 
L 148.610946 187.625427 
L 148.600064 187.334238 
L 148.547401 187.081036 
L 148.231143 187.678101 
L 148.168457 187.432596 
L 147.909491 187.975554 
L 147.848638 187.423458 
L 147.790327 187.788343 
L 147.739082 188.140354 
L 147.708806 187.864497 
L 147.643149 186.99706 
L 147.361383 186.984733 
L 147.109904 186.281493 
L 147.008921 186.714714 
L 146.989639 186.41161 
L 146.749103 187.036433 
L 146.527142 186.98269 
L 146.515273 187.325347 
L 146.21887 187.393163 
L 146.146449 186.824864 
L 145.853517 186.896388 
L 145.738642 186.720818 
L 145.60629 187.59183 
L 145.327586 187.65831 
L 145.274385 188.071823 
L 144.808085 188.368428 
L 144.612704 188.283895 
L 144.543847 188.716386 
L 144.515356 188.411688 
L 144.024295 188.719994 
L 143.790209 190.045932 
L 143.484473 190.086721 
L 143.32905 189.600511 
L 143.210941 189.41118 
L 143.182272 189.79939 
L 143.177846 189.453886 
L 142.921892 190.13078 
L 142.614037 190.166721 
L 142.198251 189.962336 
L 141.78558 189.017122 
L 141.652617 189.573449 
L 141.585608 189.290321 
L 141.408291 189.915044 
L 141.33327 189.642724 
L 141.122187 189.554847 
L 141.008038 190.098463 
L 140.711382 190.878207 
L 140.452983 190.098481 
L 140.175024 190.128562 
L 140.141493 189.782842 
L 139.841795 189.839361 
L 139.814218 190.283722 
L 139.374764 190.156298 
L 139.254974 189.513113 
L 139.240475 189.956016 
L 139.107038 189.748247 
L 139.018931 189.030797 
L 138.872676 188.826938 
L 138.709497 187.741404 
L 138.573694 188.422724 
L 138.339209 188.373858 
L 138.201126 187.676412 
L 138.085566 188.812954 
L 137.679893 189.940033 
L 137.420345 189.900728 
L 137.196568 188.851977 
L 137.181911 187.892404 
L 137.031773 187.649169 
L 137.021615 187.153516 
L 136.70555 187.218335 
L 136.299353 186.931112 
L 135.81734 187.336089 
L 135.593793 186.658515 
L 135.187586 186.915991 
L 135.131658 188.182458 
L 135.028897 187.818038 
L 134.770384 187.762547 
L 134.733738 187.243577 
L 134.524426 187.076685 
L 134.427003 188.478611 
L 134.050033 189.814452 
L 133.978529 189.372909 
L 133.766329 189.203069 
L 133.693644 189.940002 
L 133.664794 189.403404 
L 133.5576 189.013161 
L 133.195991 189.122001 
L 133.012029 188.23348 
L 132.067029 190.809143 
L 131.69428 190.933615 
L 131.636105 189.719226 
L 131.559573 189.878135 
L 131.093053 190.173737 
L 130.772277 190.175857 
L 130.595078 189.844614 
L 130.565326 190.633262 
L 130.05321 192.434801 
L 129.840808 192.177643 
L 129.389274 192.396081 
L 128.697347 192.349706 
L 128.434684 192.139075 
L 128.177453 191.072877 
L 127.400371 191.892509 
L 127.255915 191.332086 
L 127.194854 189.643694 
L 126.925911 189.284389 
L 126.922893 188.306438 
L 126.710586 187.762958 
L 126.606382 186.942383 
L 126.604673 185.854308 
L 125.971491 186.197874 
L 125.80695 185.404593 
L 125.608906 187.042442 
L 124.876991 182.383281 
L 124.715809 181.323718 
L 124.382669 180.619302 
L 124.3014 179.207239 
L 123.488265 182.923618 
L 123.376449 184.749629 
L 123.2901 181.807483 
L 121.394152 189.910801 
L 121.204855 188.857501 
L 119.505682 191.706242 
L 119.133042 190.965529 
L 118.55561 190.662855 
L 118.543343 188.757119 
L 118.382263 187.109993 
L 115.413226 190.190712 
L 115.108148 193.362569 
L 114.66074 192.111691 
L 114.016685 191.206654 
L 113.959084 188.497786 
L 112.34961 189.582238 
L 112.325865 186.108396 
L 110.804147 186.235323 
L 110.772253 181.692938 
L 108.15127 183.29253 
L 105.245619 175.822392 
L 105.110402 164.019249 
L 103.135132 148.698037 
L 96.737719 187.092939 
L 94.035567 173.668126 
L 93.577629 195.718839 
L 85.509059 197.049154 
M 69.218182 242.116364 
" style="fill:none;stroke:#1f77b4;stroke-dasharray:7.5,2.5;stroke-dashoffset:0;stroke-width:2.5;"/>
   </g>
   <g id="line2d_65">
    <defs>
     <path d="M -6 6 
L 6 -6 
M -6 -6 
L 6 6 
" id="m8f4e0e16a6" style="stroke:#000000;"/>
    </defs>
    <g clip-path="url(#p81594522b4)">
     <use style="stroke:#000000;" x="222.877683" xlink:href="#m8f4e0e16a6" y="196.230684"/>
    </g>
   </g>
   <g id="line2d_66">
    <defs>
     <path d="M -3 3 
L 3 3 
L 3 -3 
L -3 -3 
z
" id="m00bf4408ca" style="stroke:#0000ff;stroke-linejoin:miter;"/>
    </defs>
    <g clip-path="url(#p81594522b4)">
     <use style="fill:#0000ff;stroke:#0000ff;stroke-linejoin:miter;" x="69.218182" xlink:href="#m00bf4408ca" y="242.116364"/>
    </g>
   </g>
   <g id="line2d_67">
    <defs>
     <path d="M 0 3 
C 0.795609 3 1.55874 2.683901 2.12132 2.12132 
C 2.683901 1.55874 3 0.795609 3 0 
C 3 -0.795609 2.683901 -1.55874 2.12132 -2.12132 
C 1.55874 -2.683901 0.795609 -3 0 -3 
C -0.795609 -3 -1.55874 -2.683901 -2.12132 -2.12132 
C -2.683901 -1.55874 -3 -0.795609 -3 0 
C -3 0.795609 -2.683901 1.55874 -2.12132 2.12132 
C -1.55874 2.683901 -0.795609 3 0 3 
z
" id="me6f189ec81" style="stroke:#ff0000;"/>
    </defs>
    <g clip-path="url(#p81594522b4)">
     <use style="fill:#ff0000;stroke:#ff0000;" x="264.201734" xlink:href="#me6f189ec81" y="142.351538"/>
    </g>
   </g>
   <g id="line2d_68">
    <path clip-path="url(#p81594522b4)" d="M 373.581818 44.443636 
L 373.127051 45.212435 
L 373.114432 45.1021 
L 371.054387 48.985619 
L 369.089085 52.28068 
L 367.180195 55.07581 
L 365.29608 57.439664 
L 363.408577 59.428036 
L 361.490053 61.08852 
L 359.511102 62.462529 
L 357.437415 63.586723 
L 355.225629 64.493626 
L 352.816253 65.212089 
L 350.96528 65.673981 
L 350.120595 65.767557 
L 348.080107 66.131032 
L 347.373694 66.040344 
L 347.279173 66.494086 
L 347.259019 66.384929 
L 344.460548 70.520071 
L 341.442689 74.21465 
L 338.150856 77.361086 
L 335.168819 79.403544 
L 335.003651 79.411435 
L 334.72177 79.634642 
L 334.688646 79.804416 
L 334.253609 80.116316 
L 333.571661 80.157369 
L 333.359568 80.781709 
L 333.34365 80.68019 
L 321.505356 108.606592 
L 320.509192 110.503136 
L 318.968666 113.881461 
L 314.248253 122.802324 
L 309.981311 128.596821 
L 307.920305 130.538272 
L 302.329177 134.322547 
L 300.732664 137.543088 
L 299.605674 139.398672 
L 297.170988 143.929182 
L 296.39982 145.152817 
L 296.201822 145.527858 
L 293.474326 149.648684 
L 292.68058 151.202542 
L 290.523554 153.989148 
L 289.976556 155.212264 
L 287.393332 158.334672 
L 286.408119 159.915974 
L 286.230021 160.170114 
L 284.282963 161.851322 
L 283.272078 163.625946 
L 283.110805 163.94909 
L 282.800433 164.297896 
L 282.799902 164.441631 
L 282.596955 164.590562 
L 282.499858 164.802919 
L 279.822125 168.309637 
L 279.774429 168.219896 
L 277.42907 171.716464 
L 277.259672 171.771347 
L 276.909672 172.291429 
L 274.442443 174.733616 
L 274.401012 174.650429 
L 274.222604 175.015543 
L 273.878447 175.368245 
L 273.176515 176.395936 
L 271.810178 177.990015 
L 271.410513 179.122299 
L 271.308429 178.951907 
L 270.780828 179.538247 
L 270.621469 179.8435 
L 270.267165 180.247151 
L 269.695875 181.217469 
L 268.27928 182.788427 
L 268.069608 182.889471 
L 265.897322 185.577413 
L 265.572816 186.246923 
L 263.849435 187.961406 
L 263.624812 188.386758 
L 263.500753 188.328923 
L 260.992154 190.607577 
L 259.871354 191.131281 
L 259.837136 191.00832 
L 259.802051 191.172683 
L 259.581375 190.896684 
L 259.500768 191.24099 
L 259.059083 191.591393 
L 258.960963 191.517394 
L 257.419343 192.346318 
L 256.069804 193.401873 
L 256.012814 193.283516 
L 255.777942 193.532158 
L 255.643424 193.29588 
L 255.401849 193.5382 
L 253.856852 193.976257 
L 253.801757 193.851449 
L 253.241066 194.183265 
L 253.132037 194.501509 
L 252.863142 194.279198 
L 251.575129 194.959309 
L 251.437949 194.850002 
L 250.848847 194.877876 
L 248.42329 195.299709 
L 247.346696 195.74398 
L 247.180967 195.616221 
L 246.500889 195.83494 
L 246.420891 195.988587 
L 245.327265 195.931822 
L 245.261149 196.083003 
L 244.964593 196.244558 
L 244.795945 196.111138 
L 244.282846 196.008078 
L 244.200795 195.868742 
L 241.359111 195.82741 
L 240.820169 195.759928 
L 240.672824 195.918526 
L 240.116291 195.85191 
L 240.01767 195.715848 
L 239.831514 195.876614 
L 239.818991 195.72807 
L 239.502061 195.924222 
L 239.380454 195.79206 
L 239.16334 195.973265 
L 238.737134 196.142164 
L 238.187896 195.757658 
L 238.150061 195.913519 
L 237.643202 195.837575 
L 237.605509 195.691055 
L 237.595765 195.84449 
L 236.974928 196.066337 
L 236.933937 195.920251 
L 236.863689 196.079733 
L 236.163669 196.444144 
L 235.833374 196.32452 
L 235.615077 196.49112 
L 235.59675 196.34276 
L 235.569751 196.493222 
L 235.202581 196.230697 
L 235.126961 196.090887 
L 234.777922 196.293051 
L 234.595842 196.170156 
L 234.525943 196.330535 
L 234.520131 196.180099 
L 234.203776 196.371103 
L 234.135967 196.077029 
L 234.096482 196.233879 
L 234.060234 196.389075 
L 233.8851 196.550574 
L 233.831397 196.403601 
L 233.609629 196.568274 
L 232.854698 196.212247 
L 232.476778 196.408455 
L 232.20257 196.288897 
L 232.095458 196.452472 
L 231.997652 196.311975 
L 231.810819 196.474389 
L 231.494433 196.343283 
L 231.001062 196.677049 
L 230.86887 196.233688 
L 230.766588 196.39572 
L 230.40404 196.578209 
L 230.073146 196.304921 
L 229.746062 196.486936 
L 229.270781 196.376422 
L 228.705688 196.26725 
L 228.369798 196.442134 
L 227.745717 196.328044 
L 227.708707 196.788494 
L 227.485733 196.64762 
L 226.755272 196.536276 
L 226.720491 196.385102 
L 225.420068 196.761675 
L 224.612396 196.653552 
L 224.451459 196.509215 
L 224.420463 196.664201 
L 224.388363 196.512293 
L 224.052712 196.229881 
L 223.885249 196.395761 
L 223.608203 196.563789 
L 223.171069 196.438632 
L 222.955293 196.605896 
L 222.773217 196.462028 
L 222.688465 196.15637 
L 222.172344 196.344164 
L 222.15559 196.500208 
L 221.712059 196.673801 
L 221.537552 196.533632 
L 221.329461 196.696774 
L 220.818046 196.866688 
L 220.795755 196.71392 
L 220.549639 196.57251 
L 220.525963 196.728011 
L 220.186745 196.589854 
L 220.166264 196.745186 
L 219.608535 196.91755 
L 219.43293 196.772409 
L 219.325648 197.083623 
L 219.31059 196.931259 
L 218.809857 196.798461 
L 218.642927 196.95672 
L 218.26231 197.119043 
L 217.702984 196.982328 
L 217.617402 196.83305 
L 217.600937 196.987397 
L 217.03145 196.86178 
L 216.694535 197.024567 
L 215.747132 196.744694 
L 215.726656 196.590211 
L 215.594208 196.748759 
L 215.358398 196.453599 
L 214.205448 196.638231 
L 214.123545 196.484509 
L 213.794174 196.646755 
L 213.20675 196.511129 
L 213.176091 196.668068 
L 213.139441 196.513379 
L 212.136278 196.849859 
L 211.940979 196.697874 
L 211.461499 196.550777 
L 211.376101 196.239254 
L 211.176755 196.557829 
L 210.6293 196.414421 
L 210.568374 196.258512 
L 210.26313 196.109024 
L 210.164133 196.269364 
L 209.527939 196.59269 
L 209.466066 196.437108 
L 209.091665 196.287179 
L 209.085501 196.128904 
L 208.859825 195.976649 
L 208.787881 196.137953 
L 207.723944 196.321095 
L 207.708605 196.162964 
L 207.107338 196.017582 
L 206.95115 196.17991 
L 206.506404 196.344012 
L 206.109793 196.204962 
L 205.935213 196.367042 
L 205.89053 196.209634 
L 205.616465 196.686191 
L 205.10771 197.001873 
L 204.9824 197.156927 
L 204.115817 197.007366 
L 203.626372 197.163972 
L 203.169149 197.01276 
L 203.104106 196.8621 
L 203.006109 197.021193 
L 202.586205 196.885139 
L 202.500988 197.04219 
L 202.455681 196.888062 
L 201.829977 196.589793 
L 201.474447 196.907642 
L 201.15477 196.605219 
L 201.135241 196.448385 
L 201.065856 196.607435 
L 201.019933 196.450867 
L 200.969879 196.609517 
L 200.386463 196.776375 
L 199.267317 196.480659 
L 199.224244 196.323249 
L 198.815702 196.182993 
L 198.769282 196.344281 
L 198.752797 196.186045 
L 198.61138 195.880629 
L 198.428745 196.062439 
L 198.423662 195.902 
L 197.72811 196.430756 
L 197.380176 196.29291 
L 197.347364 196.454132 
L 196.7917 196.634765 
L 196.701757 196.321284 
L 196.666287 196.482044 
L 196.205324 196.341328 
L 196.113083 196.184852 
L 195.494586 196.36482 
L 195.450624 196.525202 
L 195.250819 196.688442 
L 194.741887 196.236854 
L 194.635376 196.403361 
L 194.223238 196.584908 
L 193.655081 196.467076 
L 193.432004 196.63697 
L 193.341783 196.482037 
L 193.129199 196.650975 
L 193.046283 196.495451 
L 192.778625 196.350703 
L 192.77489 196.510986 
L 192.20159 196.052634 
L 192.172462 195.89199 
L 191.866697 196.550595 
L 191.791158 196.39344 
L 191.537613 196.085857 
L 191.062753 196.43074 
L 190.858759 196.599571 
L 190.494207 196.454197 
L 189.900561 196.635909 
L 189.706537 196.32239 
L 188.847213 196.676416 
L 188.739305 196.838461 
L 188.541203 196.684229 
L 188.161307 196.534095 
L 188.134768 196.374081 
L 188.023663 196.537903 
L 187.757776 196.227361 
L 187.62105 196.075965 
L 187.606562 196.239904 
L 186.905176 196.138768 
L 186.693037 196.318623 
L 186.631512 196.161195 
L 186.458121 196.338251 
L 186.369676 196.18301 
L 186.346661 196.347543 
L 186.134276 196.038178 
L 186.031979 196.209602 
L 185.811193 196.062906 
L 185.771309 195.901932 
L 185.716724 196.070837 
L 185.498581 196.248677 
L 185.121999 196.11396 
L 185.06322 195.955138 
L 185.007457 196.123674 
L 184.44888 196.01844 
L 184.257798 195.706866 
L 184.170057 195.549634 
L 183.730118 195.759854 
L 183.596453 195.605805 
L 183.503591 195.781105 
L 183.401267 195.622928 
L 183.360947 195.793004 
L 183.324544 195.629053 
L 182.936832 196.159273 
L 182.703538 195.85331 
L 182.566472 196.034461 
L 182.026428 195.927144 
L 181.915446 195.773412 
L 181.899551 195.942327 
L 181.667895 195.462436 
L 181.619414 195.297712 
L 181.578432 195.472066 
L 181.357708 195.324153 
L 181.238952 195.502388 
L 180.963994 195.182064 
L 180.826782 195.020938 
L 180.757591 195.197769 
L 180.756873 195.025735 
L 180.569811 195.210466 
L 180.195832 195.070606 
L 180.177587 195.244012 
L 179.916595 195.4328 
L 179.769543 195.272422 
L 179.454226 195.463094 
L 179.127229 195.145068 
L 179.101078 195.3196 
L 178.97565 194.988174 
L 178.926732 195.165822 
L 178.441354 195.036583 
L 178.319931 194.523755 
L 178.257928 194.353534 
L 178.180452 194.538824 
L 178.100487 194.370323 
L 177.864349 194.919523 
L 177.523809 194.595985 
L 177.410608 194.954919 
L 177.334416 194.787173 
L 177.189992 194.625835 
L 176.995547 194.815315 
L 176.725118 194.65797 
L 176.073353 195.391077 
L 176.035217 195.219819 
L 175.82246 195.573917 
L 175.502549 195.416869 
L 175.377499 194.90329 
L 175.325811 195.081456 
L 175.318444 194.906881 
L 175.149695 194.39017 
L 174.89425 194.237756 
L 174.720616 194.787249 
L 174.36053 194.986593 
L 174.350891 194.811089 
L 174.305737 194.989746 
L 174.255903 195.167608 
L 174.250435 194.993045 
L 173.748165 195.214 
L 172.799152 194.764336 
L 172.772936 194.943379 
L 172.532398 194.785518 
L 172.453303 194.968784 
L 172.219836 194.456156 
L 172.037492 194.831097 
L 171.929121 195.016547 
L 171.591023 194.691618 
L 171.542093 194.336515 
L 171.177607 194.192481 
L 171.054103 194.383932 
L 170.825597 194.224407 
L 170.819078 194.042487 
L 170.775506 194.229166 
L 170.017026 194.998892 
L 169.510064 194.663583 
L 169.431016 194.846086 
L 169.241917 194.505809 
L 169.004438 194.709264 
L 168.875838 194.541065 
L 168.803976 194.724862 
L 168.63032 194.553495 
L 168.56986 194.736879 
L 168.355973 194.389133 
L 168.096618 194.225901 
L 167.909137 194.601727 
L 167.48701 194.799421 
L 167.317471 194.264112 
L 167.157883 194.456509 
L 166.79296 194.656959 
L 166.288994 194.138266 
L 166.274222 194.322764 
L 166.204336 193.958988 
L 166.014688 194.33818 
L 165.736037 193.9878 
L 165.414636 194.190818 
L 165.370848 194.376548 
L 165.304911 194.197584 
L 165.29569 194.013521 
L 165.142379 194.208617 
L 165.117205 194.025659 
L 165.112318 194.210748 
L 164.821243 193.863173 
L 164.703435 194.242787 
L 164.654873 194.06313 
L 164.404983 194.269747 
L 164.358843 194.456646 
L 164.075699 194.655803 
L 164.036823 194.476081 
L 164.030886 194.659029 
L 163.720349 194.1379 
L 163.590553 193.965509 
L 163.532134 194.156344 
L 162.983999 193.284887 
L 162.79193 193.121618 
L 162.450174 193.545489 
L 161.650646 192.686244 
L 161.53131 192.512704 
L 161.270594 192.758352 
L 160.318847 192.156385 
L 160.159119 191.996031 
L 159.68863 191.909866 
L 159.254617 192.213501 
L 159.173769 192.432118 
L 158.866616 192.29263 
L 158.655149 192.535976 
L 158.04942 192.06025 
L 158.019474 192.271591 
L 157.824002 192.110926 
L 157.525256 190.945916 
L 157.502176 191.167479 
L 157.429743 191.402836 
L 157.275628 191.240916 
L 157.184896 191.691524 
L 156.98254 191.330385 
L 156.97271 191.120825 
L 156.92988 191.350244 
L 156.779226 191.827006 
L 156.763548 192.040705 
L 156.55223 191.477849 
L 156.231875 191.368718 
L 156.207128 190.94485 
L 155.952685 190.821132 
L 155.919665 190.615186 
L 155.889484 190.847228 
L 155.528335 190.125912 
L 155.181147 190.944884 
L 155.071653 190.765137 
L 154.979757 191.239012 
L 154.545809 190.520251 
L 154.543101 190.74627 
L 154.495204 191.209873 
L 154.37798 191.038067 
L 154.152583 191.777911 
L 153.929424 191.418396 
L 153.861965 191.880981 
L 153.842075 191.670052 
L 153.727313 191.273202 
L 153.686397 191.510358 
L 153.441191 191.383599 
L 153.324785 191.648211 
L 153.043952 191.097801 
L 152.988888 191.349016 
L 152.93883 191.150893 
L 152.931781 190.928274 
L 152.648981 190.63876 
L 152.548563 191.145747 
L 152.394768 191.434015 
L 152.305434 191.017814 
L 152.270911 191.260978 
L 152.242119 190.815464 
L 152.087126 190.424506 
L 151.930967 190.730308 
L 151.735716 189.879951 
L 151.569681 190.201187 
L 151.542544 189.975633 
L 151.515423 190.465466 
L 151.438609 190.264913 
L 151.18311 190.619235 
L 150.789506 190.08867 
L 150.453464 190.488178 
L 150.433858 190.736327 
L 150.387831 190.276956 
L 150.075112 188.993774 
L 149.847505 188.664435 
L 149.670532 189.315686 
L 149.443239 189.23363 
L 149.364644 188.784306 
L 149.194348 188.407452 
L 148.99901 188.840895 
L 148.746807 188.788792 
L 148.625762 189.151896 
L 148.501195 188.725802 
L 148.483153 188.473756 
L 148.323364 188.8922 
L 148.12255 188.541051 
L 148.059392 188.871503 
L 148.050023 188.608479 
L 148.017009 188.365009 
L 147.806469 189.102401 
L 147.754275 188.878108 
L 147.644574 189.247728 
L 147.509684 189.104803 
L 147.46362 189.419997 
L 147.414485 189.196994 
L 147.268291 188.796407 
L 147.002702 188.793297 
L 146.905521 188.326883 
L 146.858076 188.659321 
L 146.638978 188.329826 
L 146.397124 188.892977 
L 146.268243 188.754592 
L 146.251131 188.484393 
L 146.074283 188.396177 
L 145.562921 188.383711 
L 145.28215 188.098233 
L 144.577152 189.449904 
L 144.291046 188.837573 
L 144.005734 188.835175 
L 143.971336 189.182592 
L 143.932774 188.912708 
L 143.707219 188.841237 
L 143.555931 188.377446 
L 143.376432 188.273733 
L 143.239324 187.785909 
L 142.851206 187.94155 
L 142.816775 188.319419 
L 142.785841 188.021379 
L 142.606897 187.906249 
L 142.468084 187.046992 
L 142.315068 186.901428 
L 142.233222 187.365163 
L 142.197686 187.057822 
L 142.049011 186.913463 
L 141.858686 186.091009 
L 141.668258 185.998997 
L 141.407991 185.231648 
L 141.349537 184.925353 
L 141.26269 185.456275 
L 141.232756 185.105048 
L 141.225824 184.712846 
L 141.022941 184.627363 
L 140.938905 183.934452 
L 140.848055 184.50315 
L 140.745071 184.257008 
L 140.444791 184.344292 
L 140.407496 184.831856 
L 140.346335 184.510366 
L 140.146171 184.426475 
L 140.084466 183.649898 
L 140.003923 184.233472 
L 139.932845 183.911198 
L 139.674588 183.904154 
L 139.582009 183.143329 
L 139.456507 182.900141 
L 139.356974 182.114178 
L 139.213019 181.886388 
L 139.154262 181.491364 
L 138.832136 181.59007 
L 138.501861 182.707436 
L 138.403882 183.880218 
L 138.387905 183.411589 
L 138.222537 183.193142 
L 138.047225 184.489848 
L 137.750723 184.483411 
L 137.656802 183.623139 
L 136.995451 184.26306 
L 136.896717 184.95237 
L 136.540874 184.510749 
L 136.211381 184.546213 
L 136.160486 184.089386 
L 135.865623 184.088856 
L 135.854396 183.538135 
L 135.585994 182.869552 
L 134.983145 183.419297 
L 134.907752 182.310998 
L 134.785675 182.540966 
L 134.523087 182.420104 
L 134.13244 182.530422 
L 134.107459 181.905954 
L 133.850223 181.731484 
L 133.76328 181.197718 
L 133.522244 180.956489 
L 133.307458 179.882605 
L 133.235555 179.246269 
L 132.565409 178.170839 
L 132.559258 177.313253 
L 132.27486 177.010909 
L 132.14514 176.368281 
L 131.825403 176.138478 
L 131.451251 173.92549 
L 131.432245 172.876771 
L 131.274386 172.107375 
L 130.594152 172.481978 
L 130.150903 172.259795 
L 129.519309 172.45596 
L 128.606389 173.296452 
L 128.577028 170.504721 
L 128.381675 169.435753 
L 127.753061 172.463448 
L 127.743025 170.946745 
L 127.664582 172.669677 
L 127.436724 171.680665 
L 127.301727 173.544137 
L 127.171358 170.699007 
L 126.912369 169.636931 
L 125.854764 173.969276 
L 124.752521 174.928904 
L 124.651526 171.417853 
L 124.164562 174.535875 
L 124.132308 172.675725 
L 123.681611 169.488094 
L 123.054066 168.640623 
L 122.819179 166.621172 
L 121.376534 172.807709 
L 120.935159 171.3024 
L 120.30536 175.477675 
L 119.646816 174.49011 
L 119.109813 172.982286 
L 118.906628 170.32811 
L 118.457039 167.916615 
L 118.250931 159.803173 
L 117.055547 150.822263 
L 116.29865 159.545604 
L 116.125018 165.479263 
L 111.897019 171.375568 
L 111.659011 165.317413 
L 107.366843 168.433884 
L 104.734823 163.583544 
L 69.384748 241.269228 
L 69.384748 241.269228 
" style="fill:none;stroke:#ff7f0e;stroke-dasharray:2500,2.5;stroke-dashoffset:0;stroke-width:2.5;"/>
   </g>
   <g id="line2d_69">
    <g clip-path="url(#p81594522b4)">
     <use style="stroke:#000000;" x="215.594208" xlink:href="#m8f4e0e16a6" y="196.748759"/>
    </g>
   </g>
   <g id="line2d_70">
    <g clip-path="url(#p81594522b4)">
     <use style="fill:#0000ff;stroke:#0000ff;stroke-linejoin:miter;" x="69.384748" xlink:href="#m00bf4408ca" y="241.269228"/>
    </g>
   </g>
   <g id="line2d_71">
    <g clip-path="url(#p81594522b4)">
     <use style="fill:#ff0000;stroke:#ff0000;" x="233.581307" xlink:href="#me6f189ec81" y="79.639287"/>
    </g>
   </g>
   <g id="patch_3">
    <path d="M 54 252 
L 54 34.56 
" style="fill:none;stroke:#000000;stroke-linecap:square;stroke-linejoin:miter;stroke-width:0.8;"/>
   </g>
   <g id="patch_4">
    <path d="M 388.8 252 
L 388.8 34.56 
" style="fill:none;stroke:#000000;stroke-linecap:square;stroke-linejoin:miter;stroke-width:0.8;"/>
   </g>
   <g id="patch_5">
    <path d="M 54 252 
L 388.8 252 
" style="fill:none;stroke:#000000;stroke-linecap:square;stroke-linejoin:miter;stroke-width:0.8;"/>
   </g>
   <g id="patch_6">
    <path d="M 54 34.56 
L 388.8 34.56 
" style="fill:none;stroke:#000000;stroke-linecap:square;stroke-linejoin:miter;stroke-width:0.8;"/>
   </g>
   <g id="text_15">
    <!-- GCV function for $\ell_1$ trend filter ($\sigma = 0.001$) -->
    <defs>
     <path id="DejaVuSans-32"/>
     <path d="M 37.109375 75.984375 
L 37.109375 68.5 
L 28.515625 68.5 
Q 23.6875 68.5 21.796875 66.546875 
Q 19.921875 64.59375 19.921875 59.515625 
L 19.921875 54.6875 
L 34.71875 54.6875 
L 34.71875 47.703125 
L 19.921875 47.703125 
L 19.921875 0 
L 10.890625 0 
L 10.890625 47.703125 
L 2.296875 47.703125 
L 2.296875 54.6875 
L 10.890625 54.6875 
L 10.890625 58.5 
Q 10.890625 67.625 15.140625 71.796875 
Q 19.390625 75.984375 28.609375 75.984375 
z
" id="DejaVuSans-102"/>
     <path d="M 8.5 21.578125 
L 8.5 54.6875 
L 17.484375 54.6875 
L 17.484375 21.921875 
Q 17.484375 14.15625 20.5 10.265625 
Q 23.53125 6.390625 29.59375 6.390625 
Q 36.859375 6.390625 41.078125 11.03125 
Q 45.3125 15.671875 45.3125 23.6875 
L 45.3125 54.6875 
L 54.296875 54.6875 
L 54.296875 0 
L 45.3125 0 
L 45.3125 8.40625 
Q 42.046875 3.421875 37.71875 1 
Q 33.40625 -1.421875 27.6875 -1.421875 
Q 18.265625 -1.421875 13.375 4.4375 
Q 8.5 10.296875 8.5 21.578125 
z
M 31.109375 56 
z
" id="DejaVuSans-117"/>
     <path d="M 54.890625 33.015625 
L 54.890625 0 
L 45.90625 0 
L 45.90625 32.71875 
Q 45.90625 40.484375 42.875 44.328125 
Q 39.84375 48.1875 33.796875 48.1875 
Q 26.515625 48.1875 22.3125 43.546875 
Q 18.109375 38.921875 18.109375 30.90625 
L 18.109375 0 
L 9.078125 0 
L 9.078125 54.6875 
L 18.109375 54.6875 
L 18.109375 46.1875 
Q 21.34375 51.125 25.703125 53.5625 
Q 30.078125 56 35.796875 56 
Q 45.21875 56 50.046875 50.171875 
Q 54.890625 44.34375 54.890625 33.015625 
z
" id="DejaVuSans-110"/>
     <path d="M 48.78125 52.59375 
L 48.78125 44.1875 
Q 44.96875 46.296875 41.140625 47.34375 
Q 37.3125 48.390625 33.40625 48.390625 
Q 24.65625 48.390625 19.8125 42.84375 
Q 14.984375 37.3125 14.984375 27.296875 
Q 14.984375 17.28125 19.8125 11.734375 
Q 24.65625 6.203125 33.40625 6.203125 
Q 37.3125 6.203125 41.140625 7.25 
Q 44.96875 8.296875 48.78125 10.40625 
L 48.78125 2.09375 
Q 45.015625 0.34375 40.984375 -0.53125 
Q 36.96875 -1.421875 32.421875 -1.421875 
Q 20.0625 -1.421875 12.78125 6.34375 
Q 5.515625 14.109375 5.515625 27.296875 
Q 5.515625 40.671875 12.859375 48.328125 
Q 20.21875 56 33.015625 56 
Q 37.15625 56 41.109375 55.140625 
Q 45.0625 54.296875 48.78125 52.59375 
z
" id="DejaVuSans-99"/>
     <path d="M 18.3125 70.21875 
L 18.3125 54.6875 
L 36.8125 54.6875 
L 36.8125 47.703125 
L 18.3125 47.703125 
L 18.3125 18.015625 
Q 18.3125 11.328125 20.140625 9.421875 
Q 21.96875 7.515625 27.59375 7.515625 
L 36.8125 7.515625 
L 36.8125 0 
L 27.59375 0 
Q 17.1875 0 13.234375 3.875 
Q 9.28125 7.765625 9.28125 18.015625 
L 9.28125 47.703125 
L 2.6875 47.703125 
L 2.6875 54.6875 
L 9.28125 54.6875 
L 9.28125 70.21875 
z
" id="DejaVuSans-116"/>
     <path d="M 9.421875 54.6875 
L 18.40625 54.6875 
L 18.40625 0 
L 9.421875 0 
z
M 9.421875 75.984375 
L 18.40625 75.984375 
L 18.40625 64.59375 
L 9.421875 64.59375 
z
" id="DejaVuSans-105"/>
     <path d="M 30.609375 48.390625 
Q 23.390625 48.390625 19.1875 42.75 
Q 14.984375 37.109375 14.984375 27.296875 
Q 14.984375 17.484375 19.15625 11.84375 
Q 23.34375 6.203125 30.609375 6.203125 
Q 37.796875 6.203125 41.984375 11.859375 
Q 46.1875 17.53125 46.1875 27.296875 
Q 46.1875 37.015625 41.984375 42.703125 
Q 37.796875 48.390625 30.609375 48.390625 
z
M 30.609375 56 
Q 42.328125 56 49.015625 48.375 
Q 55.71875 40.765625 55.71875 27.296875 
Q 55.71875 13.875 49.015625 6.21875 
Q 42.328125 -1.421875 30.609375 -1.421875 
Q 18.84375 -1.421875 12.171875 6.21875 
Q 5.515625 13.875 5.515625 27.296875 
Q 5.515625 40.765625 12.171875 48.375 
Q 18.84375 56 30.609375 56 
z
" id="DejaVuSans-111"/>
     <path d="M 41.109375 46.296875 
Q 39.59375 47.171875 37.8125 47.578125 
Q 36.03125 48 33.890625 48 
Q 26.265625 48 22.1875 43.046875 
Q 18.109375 38.09375 18.109375 28.8125 
L 18.109375 0 
L 9.078125 0 
L 9.078125 54.6875 
L 18.109375 54.6875 
L 18.109375 46.1875 
Q 20.953125 51.171875 25.484375 53.578125 
Q 30.03125 56 36.53125 56 
Q 37.453125 56 38.578125 55.875 
Q 39.703125 55.765625 41.0625 55.515625 
z
" id="DejaVuSans-114"/>
     <path d="M 14.84375 13.09375 
Q 16.84375 3.328125 21.09375 3.328125 
Q 23.921875 3.328125 27.59375 8.9375 
L 34.078125 8.9375 
Q 31.15625 3.953125 27.734375 1.375 
Q 24.03125 -1.421875 20.609375 -1.421875 
Q 12.984375 -1.421875 9.90625 5.375 
L 6.25 0 
L -1.375 0 
Q 3.90625 7.171875 7.8125 13.875 
Q 7.328125 17.671875 7.328125 21.828125 
Q 7.328125 29.25 8.84375 36.671875 
Q 14.546875 64.546875 19.625 70.265625 
Q 23.140625 74.21875 29.15625 74.21875 
Q 35.25 74.21875 35.25 65.765625 
Q 35.203125 61.96875 34.328125 57.421875 
Q 30.8125 38.8125 14.84375 13.09375 
z
M 14.796875 25.875 
Q 23.921875 42.875 26.703125 56.453125 
Q 28.171875 63.625 28.171875 65.484375 
Q 28.171875 68.84375 26.953125 68.84375 
Q 21.625 64.59375 16.890625 39.3125 
Q 15.578125 32.234375 14.796875 25.875 
z
" id="DejaVuSans-Oblique-8467"/>
     <path d="M 56.203125 29.59375 
L 56.203125 25.203125 
L 14.890625 25.203125 
Q 15.484375 15.921875 20.484375 11.0625 
Q 25.484375 6.203125 34.421875 6.203125 
Q 39.59375 6.203125 44.453125 7.46875 
Q 49.3125 8.734375 54.109375 11.28125 
L 54.109375 2.78125 
Q 49.265625 0.734375 44.1875 -0.34375 
Q 39.109375 -1.421875 33.890625 -1.421875 
Q 20.796875 -1.421875 13.15625 6.1875 
Q 5.515625 13.8125 5.515625 26.8125 
Q 5.515625 40.234375 12.765625 48.109375 
Q 20.015625 56 32.328125 56 
Q 43.359375 56 49.78125 48.890625 
Q 56.203125 41.796875 56.203125 29.59375 
z
M 47.21875 32.234375 
Q 47.125 39.59375 43.09375 43.984375 
Q 39.0625 48.390625 32.421875 48.390625 
Q 24.90625 48.390625 20.390625 44.140625 
Q 15.875 39.890625 15.1875 32.171875 
z
" id="DejaVuSans-101"/>
     <path d="M 45.40625 46.390625 
L 45.40625 75.984375 
L 54.390625 75.984375 
L 54.390625 0 
L 45.40625 0 
L 45.40625 8.203125 
Q 42.578125 3.328125 38.25 0.953125 
Q 33.9375 -1.421875 27.875 -1.421875 
Q 17.96875 -1.421875 11.734375 6.484375 
Q 5.515625 14.40625 5.515625 27.296875 
Q 5.515625 40.1875 11.734375 48.09375 
Q 17.96875 56 27.875 56 
Q 33.9375 56 38.25 53.625 
Q 42.578125 51.265625 45.40625 46.390625 
z
M 14.796875 27.296875 
Q 14.796875 17.390625 18.875 11.75 
Q 22.953125 6.109375 30.078125 6.109375 
Q 37.203125 6.109375 41.296875 11.75 
Q 45.40625 17.390625 45.40625 27.296875 
Q 45.40625 37.203125 41.296875 42.84375 
Q 37.203125 48.484375 30.078125 48.484375 
Q 22.953125 48.484375 18.875 42.84375 
Q 14.796875 37.203125 14.796875 27.296875 
z
" id="DejaVuSans-100"/>
     <path d="M 9.421875 75.984375 
L 18.40625 75.984375 
L 18.40625 0 
L 9.421875 0 
z
" id="DejaVuSans-108"/>
     <path d="M 34.671875 47.5625 
Q 27.25 47.5625 22.21875 42.1875 
Q 16.890625 36.578125 15.140625 27.296875 
Q 13.1875 17.484375 16.3125 11.8125 
Q 19.390625 6.203125 26.65625 6.203125 
Q 33.84375 6.203125 39.109375 11.859375 
Q 44.4375 17.53125 46.34375 27.296875 
Q 48.046875 36.234375 45.015625 42.1875 
Q 42.1875 47.5625 34.671875 47.5625 
z
M 36.078125 54.734375 
L 65.921875 54.6875 
L 64.15625 45.703125 
L 54.109375 45.703125 
Q 57.90625 38.09375 55.859375 27.296875 
Q 53.21875 13.875 45.0625 6.25 
Q 36.859375 -1.421875 25.140625 -1.421875 
Q 13.375 -1.421875 8.203125 6.25 
Q 3.03125 13.875 5.671875 27.296875 
Q 8.25 40.765625 16.40625 48.390625 
Q 23.1875 54.734375 36.078125 54.734375 
z
" id="DejaVuSans-Oblique-963"/>
     <path d="M 10.59375 45.40625 
L 73.1875 45.40625 
L 73.1875 37.203125 
L 10.59375 37.203125 
z
M 10.59375 25.484375 
L 73.1875 25.484375 
L 73.1875 17.1875 
L 10.59375 17.1875 
z
" id="DejaVuSans-61"/>
     <path d="M 10.6875 12.40625 
L 21 12.40625 
L 21 0 
L 10.6875 0 
z
" id="DejaVuSans-46"/>
    </defs>
    <g transform="translate(95.82 28.56)scale(0.12 -0.12)">
     <use transform="translate(0 0.015625)" xlink:href="#DejaVuSans-71"/>
     <use transform="translate(77.490234 0.015625)" xlink:href="#DejaVuSans-67"/>
     <use transform="translate(147.314453 0.015625)" xlink:href="#DejaVuSans-86"/>
     <use transform="translate(215.722656 0.015625)" xlink:href="#DejaVuSans-32"/>
     <use transform="translate(247.509766 0.015625)" xlink:href="#DejaVuSans-102"/>
     <use transform="translate(282.714844 0.015625)" xlink:href="#DejaVuSans-117"/>
     <use transform="translate(346.09375 0.015625)" xlink:href="#DejaVuSans-110"/>
     <use transform="translate(409.472656 0.015625)" xlink:href="#DejaVuSans-99"/>
     <use transform="translate(464.453125 0.015625)" xlink:href="#DejaVuSans-116"/>
     <use transform="translate(503.662109 0.015625)" xlink:href="#DejaVuSans-105"/>
     <use transform="translate(531.445312 0.015625)" xlink:href="#DejaVuSans-111"/>
     <use transform="translate(592.626953 0.015625)" xlink:href="#DejaVuSans-110"/>
     <use transform="translate(656.005859 0.015625)" xlink:href="#DejaVuSans-32"/>
     <use transform="translate(687.792969 0.015625)" xlink:href="#DejaVuSans-102"/>
     <use transform="translate(722.998047 0.015625)" xlink:href="#DejaVuSans-111"/>
     <use transform="translate(784.179688 0.015625)" xlink:href="#DejaVuSans-114"/>
     <use transform="translate(825.292969 0.015625)" xlink:href="#DejaVuSans-32"/>
     <use transform="translate(857.080078 0.015625)" xlink:href="#DejaVuSans-Oblique-8467"/>
     <use transform="translate(898.388672 -16.390625)scale(0.7)" xlink:href="#DejaVuSans-49"/>
     <use transform="translate(945.65918 0.015625)" xlink:href="#DejaVuSans-32"/>
     <use transform="translate(977.446289 0.015625)" xlink:href="#DejaVuSans-116"/>
     <use transform="translate(1016.655273 0.015625)" xlink:href="#DejaVuSans-114"/>
     <use transform="translate(1057.768555 0.015625)" xlink:href="#DejaVuSans-101"/>
     <use transform="translate(1119.291992 0.015625)" xlink:href="#DejaVuSans-110"/>
     <use transform="translate(1182.670898 0.015625)" xlink:href="#DejaVuSans-100"/>
     <use transform="translate(1246.147461 0.015625)" xlink:href="#DejaVuSans-32"/>
     <use transform="translate(1277.93457 0.015625)" xlink:href="#DejaVuSans-102"/>
     <use transform="translate(1313.139648 0.015625)" xlink:href="#DejaVuSans-105"/>
     <use transform="translate(1340.922852 0.015625)" xlink:href="#DejaVuSans-108"/>
     <use transform="translate(1368.706055 0.015625)" xlink:href="#DejaVuSans-116"/>
     <use transform="translate(1407.915039 0.015625)" xlink:href="#DejaVuSans-101"/>
     <use transform="translate(1469.438477 0.015625)" xlink:href="#DejaVuSans-114"/>
     <use transform="translate(1510.551758 0.015625)" xlink:href="#DejaVuSans-32"/>
     <use transform="translate(1542.338867 0.015625)" xlink:href="#DejaVuSans-40"/>
     <use transform="translate(1581.352539 0.015625)" xlink:href="#DejaVuSans-Oblique-963"/>
     <use transform="translate(1664.213867 0.015625)" xlink:href="#DejaVuSans-61"/>
     <use transform="translate(1767.485352 0.015625)" xlink:href="#DejaVuSans-48"/>
     <use transform="translate(1831.108398 0.015625)" xlink:href="#DejaVuSans-46"/>
     <use transform="translate(1862.895508 0.015625)" xlink:href="#DejaVuSans-48"/>
     <use transform="translate(1926.518555 0.015625)" xlink:href="#DejaVuSans-48"/>
     <use transform="translate(1990.141602 0.015625)" xlink:href="#DejaVuSans-49"/>
     <use transform="translate(2053.764648 0.015625)" xlink:href="#DejaVuSans-41"/>
    </g>
   </g>
   <g id="legend_1">
    <g id="line2d_72">
     <path d="M 273.36 216.890625 
L 321.36 216.890625 
" style="fill:none;stroke:#1f77b4;stroke-dasharray:7.5,2.5;stroke-dashoffset:0;stroke-width:2.5;"/>
    </g>
    <g id="line2d_73"/>
    <g id="text_16">
     <!-- state $x_1$ -->
     <defs>
      <path d="M 44.28125 53.078125 
L 44.28125 44.578125 
Q 40.484375 46.53125 36.375 47.5 
Q 32.28125 48.484375 27.875 48.484375 
Q 21.1875 48.484375 17.84375 46.4375 
Q 14.5 44.390625 14.5 40.28125 
Q 14.5 37.15625 16.890625 35.375 
Q 19.28125 33.59375 26.515625 31.984375 
L 29.59375 31.296875 
Q 39.15625 29.25 43.1875 25.515625 
Q 47.21875 21.78125 47.21875 15.09375 
Q 47.21875 7.46875 41.1875 3.015625 
Q 35.15625 -1.421875 24.609375 -1.421875 
Q 20.21875 -1.421875 15.453125 -0.5625 
Q 10.6875 0.296875 5.421875 2 
L 5.421875 11.28125 
Q 10.40625 8.6875 15.234375 7.390625 
Q 20.0625 6.109375 24.8125 6.109375 
Q 31.15625 6.109375 34.5625 8.28125 
Q 37.984375 10.453125 37.984375 14.40625 
Q 37.984375 18.0625 35.515625 20.015625 
Q 33.0625 21.96875 24.703125 23.78125 
L 21.578125 24.515625 
Q 13.234375 26.265625 9.515625 29.90625 
Q 5.8125 33.546875 5.8125 39.890625 
Q 5.8125 47.609375 11.28125 51.796875 
Q 16.75 56 26.8125 56 
Q 31.78125 56 36.171875 55.265625 
Q 40.578125 54.546875 44.28125 53.078125 
z
" id="DejaVuSans-115"/>
      <path d="M 34.28125 27.484375 
Q 23.390625 27.484375 19.1875 25 
Q 14.984375 22.515625 14.984375 16.5 
Q 14.984375 11.71875 18.140625 8.90625 
Q 21.296875 6.109375 26.703125 6.109375 
Q 34.1875 6.109375 38.703125 11.40625 
Q 43.21875 16.703125 43.21875 25.484375 
L 43.21875 27.484375 
z
M 52.203125 31.203125 
L 52.203125 0 
L 43.21875 0 
L 43.21875 8.296875 
Q 40.140625 3.328125 35.546875 0.953125 
Q 30.953125 -1.421875 24.3125 -1.421875 
Q 15.921875 -1.421875 10.953125 3.296875 
Q 6 8.015625 6 15.921875 
Q 6 25.140625 12.171875 29.828125 
Q 18.359375 34.515625 30.609375 34.515625 
L 43.21875 34.515625 
L 43.21875 35.40625 
Q 43.21875 41.609375 39.140625 45 
Q 35.0625 48.390625 27.6875 48.390625 
Q 23 48.390625 18.546875 47.265625 
Q 14.109375 46.140625 10.015625 43.890625 
L 10.015625 52.203125 
Q 14.9375 54.109375 19.578125 55.046875 
Q 24.21875 56 28.609375 56 
Q 40.484375 56 46.34375 49.84375 
Q 52.203125 43.703125 52.203125 31.203125 
z
" id="DejaVuSans-97"/>
      <path d="M 60.015625 54.6875 
L 34.90625 27.875 
L 50.296875 0 
L 39.984375 0 
L 28.421875 21.6875 
L 8.296875 0 
L -2.59375 0 
L 24.3125 28.8125 
L 10.015625 54.6875 
L 20.3125 54.6875 
L 30.8125 34.90625 
L 49.125 54.6875 
z
" id="DejaVuSans-Oblique-120"/>
     </defs>
     <g transform="translate(330.96 221.090625)scale(0.12 -0.12)">
      <use transform="translate(0 0.78125)" xlink:href="#DejaVuSans-115"/>
      <use transform="translate(52.099609 0.78125)" xlink:href="#DejaVuSans-116"/>
      <use transform="translate(91.308594 0.78125)" xlink:href="#DejaVuSans-97"/>
      <use transform="translate(152.587891 0.78125)" xlink:href="#DejaVuSans-116"/>
      <use transform="translate(191.796875 0.78125)" xlink:href="#DejaVuSans-101"/>
      <use transform="translate(253.320312 0.78125)" xlink:href="#DejaVuSans-32"/>
      <use transform="translate(285.107422 0.78125)" xlink:href="#DejaVuSans-Oblique-120"/>
      <use transform="translate(344.287109 -15.625)scale(0.7)" xlink:href="#DejaVuSans-49"/>
     </g>
    </g>
    <g id="line2d_74">
     <path d="M 273.36 234.504375 
L 321.36 234.504375 
" style="fill:none;stroke:#ff7f0e;stroke-dasharray:2500,2.5;stroke-dashoffset:0;stroke-width:2.5;"/>
    </g>
    <g id="line2d_75"/>
    <g id="text_17">
     <!-- state $x_2$ -->
     <g transform="translate(330.96 238.704375)scale(0.12 -0.12)">
      <use transform="translate(0 0.78125)" xlink:href="#DejaVuSans-115"/>
      <use transform="translate(52.099609 0.78125)" xlink:href="#DejaVuSans-116"/>
      <use transform="translate(91.308594 0.78125)" xlink:href="#DejaVuSans-97"/>
      <use transform="translate(152.587891 0.78125)" xlink:href="#DejaVuSans-116"/>
      <use transform="translate(191.796875 0.78125)" xlink:href="#DejaVuSans-101"/>
      <use transform="translate(253.320312 0.78125)" xlink:href="#DejaVuSans-32"/>
      <use transform="translate(285.107422 0.78125)" xlink:href="#DejaVuSans-Oblique-120"/>
      <use transform="translate(344.287109 -15.625)scale(0.7)" xlink:href="#DejaVuSans-50"/>
     </g>
    </g>
   </g>
  </g>
 </g>
 <defs>
  <clipPath id="p81594522b4">
   <rect height="217.44" width="334.8" x="54" y="34.56"/>
  </clipPath>
 </defs>
</svg>
