<?xml version="1.0" encoding="utf-8" standalone="no"?>
<!DOCTYPE svg PUBLIC "-//W3C//DTD SVG 1.1//EN"
  "http://www.w3.org/Graphics/SVG/1.1/DTD/svg11.dtd">
<!-- Created with matplotlib (https://matplotlib.org/) -->
<svg height="288pt" version="1.1" viewBox="0 0 432 288" width="432pt" xmlns="http://www.w3.org/2000/svg" xmlns:xlink="http://www.w3.org/1999/xlink">
 <defs>
  <style type="text/css">
*{stroke-linecap:butt;stroke-linejoin:round;}
  </style>
 </defs>
 <g id="figure_1">
  <g id="patch_1">
   <path d="M 0 288 
L 432 288 
L 432 0 
L 0 0 
z
" style="fill:#ffffff;"/>
  </g>
  <g id="axes_1">
   <g id="patch_2">
    <path d="M 54 252 
L 388.8 252 
L 388.8 34.56 
L 54 34.56 
z
" style="fill:#ffffff;"/>
   </g>
   <g id="matplotlib.axis_1">
    <g id="xtick_1">
     <g id="line2d_1">
      <defs>
       <path d="M 0 0 
L 0 3.5 
" id="ma57fd0cc9b" style="stroke:#000000;stroke-width:0.8;"/>
      </defs>
      <g>
       <use style="stroke:#000000;stroke-width:0.8;" x="107.263636" xlink:href="#ma57fd0cc9b" y="252"/>
      </g>
     </g>
     <g id="text_1">
      <!-- $\mathdefault{10^{-7}}$ -->
      <defs>
       <path d="M 12.40625 8.296875 
L 28.515625 8.296875 
L 28.515625 63.921875 
L 10.984375 60.40625 
L 10.984375 69.390625 
L 28.421875 72.90625 
L 38.28125 72.90625 
L 38.28125 8.296875 
L 54.390625 8.296875 
L 54.390625 0 
L 12.40625 0 
z
" id="DejaVuSans-49"/>
       <path d="M 31.78125 66.40625 
Q 24.171875 66.40625 20.328125 58.90625 
Q 16.5 51.421875 16.5 36.375 
Q 16.5 21.390625 20.328125 13.890625 
Q 24.171875 6.390625 31.78125 6.390625 
Q 39.453125 6.390625 43.28125 13.890625 
Q 47.125 21.390625 47.125 36.375 
Q 47.125 51.421875 43.28125 58.90625 
Q 39.453125 66.40625 31.78125 66.40625 
z
M 31.78125 74.21875 
Q 44.046875 74.21875 50.515625 64.515625 
Q 56.984375 54.828125 56.984375 36.375 
Q 56.984375 17.96875 50.515625 8.265625 
Q 44.046875 -1.421875 31.78125 -1.421875 
Q 19.53125 -1.421875 13.0625 8.265625 
Q 6.59375 17.96875 6.59375 36.375 
Q 6.59375 54.828125 13.0625 64.515625 
Q 19.53125 74.21875 31.78125 74.21875 
z
" id="DejaVuSans-48"/>
       <path d="M 10.59375 35.5 
L 73.1875 35.5 
L 73.1875 27.203125 
L 10.59375 27.203125 
z
" id="DejaVuSans-8722"/>
       <path d="M 8.203125 72.90625 
L 55.078125 72.90625 
L 55.078125 68.703125 
L 28.609375 0 
L 18.3125 0 
L 43.21875 64.59375 
L 8.203125 64.59375 
z
" id="DejaVuSans-55"/>
      </defs>
      <g transform="translate(93.163636 268.118125)scale(0.12 -0.12)">
       <use transform="translate(0 0.684375)" xlink:href="#DejaVuSans-49"/>
       <use transform="translate(63.623047 0.684375)" xlink:href="#DejaVuSans-48"/>
       <use transform="translate(128.203125 38.965625)scale(0.7)" xlink:href="#DejaVuSans-8722"/>
       <use transform="translate(186.855469 38.965625)scale(0.7)" xlink:href="#DejaVuSans-55"/>
      </g>
     </g>
    </g>
    <g id="xtick_2">
     <g id="line2d_2">
      <g>
       <use style="stroke:#000000;stroke-width:0.8;" x="183.354545" xlink:href="#ma57fd0cc9b" y="252"/>
      </g>
     </g>
     <g id="text_2">
      <!-- $\mathdefault{10^{-5}}$ -->
      <defs>
       <path d="M 10.796875 72.90625 
L 49.515625 72.90625 
L 49.515625 64.59375 
L 19.828125 64.59375 
L 19.828125 46.734375 
Q 21.96875 47.46875 24.109375 47.828125 
Q 26.265625 48.1875 28.421875 48.1875 
Q 40.625 48.1875 47.75 41.5 
Q 54.890625 34.8125 54.890625 23.390625 
Q 54.890625 11.625 47.5625 5.09375 
Q 40.234375 -1.421875 26.90625 -1.421875 
Q 22.3125 -1.421875 17.546875 -0.640625 
Q 12.796875 0.140625 7.71875 1.703125 
L 7.71875 11.625 
Q 12.109375 9.234375 16.796875 8.0625 
Q 21.484375 6.890625 26.703125 6.890625 
Q 35.15625 6.890625 40.078125 11.328125 
Q 45.015625 15.765625 45.015625 23.390625 
Q 45.015625 31 40.078125 35.4375 
Q 35.15625 39.890625 26.703125 39.890625 
Q 22.75 39.890625 18.8125 39.015625 
Q 14.890625 38.140625 10.796875 36.28125 
z
" id="DejaVuSans-53"/>
      </defs>
      <g transform="translate(169.254545 268.118125)scale(0.12 -0.12)">
       <use transform="translate(0 0.684375)" xlink:href="#DejaVuSans-49"/>
       <use transform="translate(63.623047 0.684375)" xlink:href="#DejaVuSans-48"/>
       <use transform="translate(128.203125 38.965625)scale(0.7)" xlink:href="#DejaVuSans-8722"/>
       <use transform="translate(186.855469 38.965625)scale(0.7)" xlink:href="#DejaVuSans-53"/>
      </g>
     </g>
    </g>
    <g id="xtick_3">
     <g id="line2d_3">
      <g>
       <use style="stroke:#000000;stroke-width:0.8;" x="259.445455" xlink:href="#ma57fd0cc9b" y="252"/>
      </g>
     </g>
     <g id="text_3">
      <!-- $\mathdefault{10^{-3}}$ -->
      <defs>
       <path d="M 40.578125 39.3125 
Q 47.65625 37.796875 51.625 33 
Q 55.609375 28.21875 55.609375 21.1875 
Q 55.609375 10.40625 48.1875 4.484375 
Q 40.765625 -1.421875 27.09375 -1.421875 
Q 22.515625 -1.421875 17.65625 -0.515625 
Q 12.796875 0.390625 7.625 2.203125 
L 7.625 11.71875 
Q 11.71875 9.328125 16.59375 8.109375 
Q 21.484375 6.890625 26.8125 6.890625 
Q 36.078125 6.890625 40.9375 10.546875 
Q 45.796875 14.203125 45.796875 21.1875 
Q 45.796875 27.640625 41.28125 31.265625 
Q 36.765625 34.90625 28.71875 34.90625 
L 20.21875 34.90625 
L 20.21875 43.015625 
L 29.109375 43.015625 
Q 36.375 43.015625 40.234375 45.921875 
Q 44.09375 48.828125 44.09375 54.296875 
Q 44.09375 59.90625 40.109375 62.90625 
Q 36.140625 65.921875 28.71875 65.921875 
Q 24.65625 65.921875 20.015625 65.03125 
Q 15.375 64.15625 9.8125 62.3125 
L 9.8125 71.09375 
Q 15.4375 72.65625 20.34375 73.4375 
Q 25.25 74.21875 29.59375 74.21875 
Q 40.828125 74.21875 47.359375 69.109375 
Q 53.90625 64.015625 53.90625 55.328125 
Q 53.90625 49.265625 50.4375 45.09375 
Q 46.96875 40.921875 40.578125 39.3125 
z
" id="DejaVuSans-51"/>
      </defs>
      <g transform="translate(245.345455 268.118125)scale(0.12 -0.12)">
       <use transform="translate(0 0.765625)" xlink:href="#DejaVuSans-49"/>
       <use transform="translate(63.623047 0.765625)" xlink:href="#DejaVuSans-48"/>
       <use transform="translate(128.203125 39.046875)scale(0.7)" xlink:href="#DejaVuSans-8722"/>
       <use transform="translate(186.855469 39.046875)scale(0.7)" xlink:href="#DejaVuSans-51"/>
      </g>
     </g>
    </g>
    <g id="xtick_4">
     <g id="line2d_4">
      <g>
       <use style="stroke:#000000;stroke-width:0.8;" x="335.536364" xlink:href="#ma57fd0cc9b" y="252"/>
      </g>
     </g>
     <g id="text_4">
      <!-- $\mathdefault{10^{-1}}$ -->
      <g transform="translate(321.436364 268.118125)scale(0.12 -0.12)">
       <use transform="translate(0 0.684375)" xlink:href="#DejaVuSans-49"/>
       <use transform="translate(63.623047 0.684375)" xlink:href="#DejaVuSans-48"/>
       <use transform="translate(128.203125 38.965625)scale(0.7)" xlink:href="#DejaVuSans-8722"/>
       <use transform="translate(186.855469 38.965625)scale(0.7)" xlink:href="#DejaVuSans-49"/>
      </g>
     </g>
    </g>
    <g id="text_5">
     <!-- $\lambda$ -->
     <defs>
      <path d="M 36.71875 67.4375 
L 48.828125 0 
L 39.3125 0 
L 31.84375 40.4375 
L 5.125 0 
L -4.390625 0 
L 29.734375 52.4375 
L 28.03125 62.109375 
Q 26.953125 68.265625 21.734375 68.265625 
L 17.046875 68.265625 
L 18.5 75.984375 
L 24.21875 75.875 
Q 35.203125 75.734375 36.71875 67.4375 
z
" id="DejaVuSans-Oblique-955"/>
     </defs>
     <g transform="translate(217.8 283.731875)scale(0.12 -0.12)">
      <use transform="translate(0 0.015625)" xlink:href="#DejaVuSans-Oblique-955"/>
     </g>
    </g>
   </g>
   <g id="matplotlib.axis_2">
    <g id="ytick_1">
     <g id="line2d_5">
      <defs>
       <path d="M 0 0 
L -3.5 0 
" id="ma714a06c11" style="stroke:#000000;stroke-width:0.8;"/>
      </defs>
      <g>
       <use style="stroke:#000000;stroke-width:0.8;" x="54" xlink:href="#ma714a06c11" y="246.405038"/>
      </g>
     </g>
     <g id="text_6">
      <!-- $\mathdefault{10^{0}}$ -->
      <g transform="translate(25.88 250.9641)scale(0.12 -0.12)">
       <use transform="translate(0 0.765625)" xlink:href="#DejaVuSans-49"/>
       <use transform="translate(63.623047 0.765625)" xlink:href="#DejaVuSans-48"/>
       <use transform="translate(128.203125 39.046875)scale(0.7)" xlink:href="#DejaVuSans-48"/>
      </g>
     </g>
    </g>
    <g id="ytick_2">
     <g id="line2d_6">
      <g>
       <use style="stroke:#000000;stroke-width:0.8;" x="54" xlink:href="#ma714a06c11" y="142.045642"/>
      </g>
     </g>
     <g id="text_7">
      <!-- $\mathdefault{10^{1}}$ -->
      <g transform="translate(25.88 146.604705)scale(0.12 -0.12)">
       <use transform="translate(0 0.684375)" xlink:href="#DejaVuSans-49"/>
       <use transform="translate(63.623047 0.684375)" xlink:href="#DejaVuSans-48"/>
       <use transform="translate(128.203125 38.965625)scale(0.7)" xlink:href="#DejaVuSans-49"/>
      </g>
     </g>
    </g>
    <g id="ytick_3">
     <g id="line2d_7">
      <g>
       <use style="stroke:#000000;stroke-width:0.8;" x="54" xlink:href="#ma714a06c11" y="37.686247"/>
      </g>
     </g>
     <g id="text_8">
      <!-- $\mathdefault{10^{2}}$ -->
      <defs>
       <path d="M 19.1875 8.296875 
L 53.609375 8.296875 
L 53.609375 0 
L 7.328125 0 
L 7.328125 8.296875 
Q 12.9375 14.109375 22.625 23.890625 
Q 32.328125 33.6875 34.8125 36.53125 
Q 39.546875 41.84375 41.421875 45.53125 
Q 43.3125 49.21875 43.3125 52.78125 
Q 43.3125 58.59375 39.234375 62.25 
Q 35.15625 65.921875 28.609375 65.921875 
Q 23.96875 65.921875 18.8125 64.3125 
Q 13.671875 62.703125 7.8125 59.421875 
L 7.8125 69.390625 
Q 13.765625 71.78125 18.9375 73 
Q 24.125 74.21875 28.421875 74.21875 
Q 39.75 74.21875 46.484375 68.546875 
Q 53.21875 62.890625 53.21875 53.421875 
Q 53.21875 48.921875 51.53125 44.890625 
Q 49.859375 40.875 45.40625 35.40625 
Q 44.1875 33.984375 37.640625 27.21875 
Q 31.109375 20.453125 19.1875 8.296875 
z
" id="DejaVuSans-50"/>
      </defs>
      <g transform="translate(25.88 42.24531)scale(0.12 -0.12)">
       <use transform="translate(0 0.765625)" xlink:href="#DejaVuSans-49"/>
       <use transform="translate(63.623047 0.765625)" xlink:href="#DejaVuSans-48"/>
       <use transform="translate(128.203125 39.046875)scale(0.7)" xlink:href="#DejaVuSans-50"/>
      </g>
     </g>
    </g>
    <g id="ytick_4">
     <g id="line2d_8">
      <defs>
       <path d="M 0 0 
L -2 0 
" id="m34920a96a3" style="stroke:#000000;stroke-width:0.6;"/>
      </defs>
      <g>
       <use style="stroke:#000000;stroke-width:0.6;" x="54" xlink:href="#m34920a96a3" y="251.180262"/>
      </g>
     </g>
    </g>
    <g id="ytick_5">
     <g id="line2d_9">
      <g>
       <use style="stroke:#000000;stroke-width:0.6;" x="54" xlink:href="#m34920a96a3" y="214.98973"/>
      </g>
     </g>
    </g>
    <g id="ytick_6">
     <g id="line2d_10">
      <g>
       <use style="stroke:#000000;stroke-width:0.6;" x="54" xlink:href="#m34920a96a3" y="196.612952"/>
      </g>
     </g>
    </g>
    <g id="ytick_7">
     <g id="line2d_11">
      <g>
       <use style="stroke:#000000;stroke-width:0.6;" x="54" xlink:href="#m34920a96a3" y="183.574421"/>
      </g>
     </g>
    </g>
    <g id="ytick_8">
     <g id="line2d_12">
      <g>
       <use style="stroke:#000000;stroke-width:0.6;" x="54" xlink:href="#m34920a96a3" y="173.460951"/>
      </g>
     </g>
    </g>
    <g id="ytick_9">
     <g id="line2d_13">
      <g>
       <use style="stroke:#000000;stroke-width:0.6;" x="54" xlink:href="#m34920a96a3" y="165.197644"/>
      </g>
     </g>
    </g>
    <g id="ytick_10">
     <g id="line2d_14">
      <g>
       <use style="stroke:#000000;stroke-width:0.6;" x="54" xlink:href="#m34920a96a3" y="158.211117"/>
      </g>
     </g>
    </g>
    <g id="ytick_11">
     <g id="line2d_15">
      <g>
       <use style="stroke:#000000;stroke-width:0.6;" x="54" xlink:href="#m34920a96a3" y="152.159113"/>
      </g>
     </g>
    </g>
    <g id="ytick_12">
     <g id="line2d_16">
      <g>
       <use style="stroke:#000000;stroke-width:0.6;" x="54" xlink:href="#m34920a96a3" y="146.820867"/>
      </g>
     </g>
    </g>
    <g id="ytick_13">
     <g id="line2d_17">
      <g>
       <use style="stroke:#000000;stroke-width:0.6;" x="54" xlink:href="#m34920a96a3" y="110.630334"/>
      </g>
     </g>
    </g>
    <g id="ytick_14">
     <g id="line2d_18">
      <g>
       <use style="stroke:#000000;stroke-width:0.6;" x="54" xlink:href="#m34920a96a3" y="92.253557"/>
      </g>
     </g>
    </g>
    <g id="ytick_15">
     <g id="line2d_19">
      <g>
       <use style="stroke:#000000;stroke-width:0.6;" x="54" xlink:href="#m34920a96a3" y="79.215026"/>
      </g>
     </g>
    </g>
    <g id="ytick_16">
     <g id="line2d_20">
      <g>
       <use style="stroke:#000000;stroke-width:0.6;" x="54" xlink:href="#m34920a96a3" y="69.101555"/>
      </g>
     </g>
    </g>
    <g id="ytick_17">
     <g id="line2d_21">
      <g>
       <use style="stroke:#000000;stroke-width:0.6;" x="54" xlink:href="#m34920a96a3" y="60.838248"/>
      </g>
     </g>
    </g>
    <g id="ytick_18">
     <g id="line2d_22">
      <g>
       <use style="stroke:#000000;stroke-width:0.6;" x="54" xlink:href="#m34920a96a3" y="53.851722"/>
      </g>
     </g>
    </g>
    <g id="ytick_19">
     <g id="line2d_23">
      <g>
       <use style="stroke:#000000;stroke-width:0.6;" x="54" xlink:href="#m34920a96a3" y="47.799717"/>
      </g>
     </g>
    </g>
    <g id="ytick_20">
     <g id="line2d_24">
      <g>
       <use style="stroke:#000000;stroke-width:0.6;" x="54" xlink:href="#m34920a96a3" y="42.461471"/>
      </g>
     </g>
    </g>
    <g id="text_9">
     <!-- GCV($\lambda$) -->
     <defs>
      <path d="M 59.515625 10.40625 
L 59.515625 29.984375 
L 43.40625 29.984375 
L 43.40625 38.09375 
L 69.28125 38.09375 
L 69.28125 6.78125 
Q 63.578125 2.734375 56.6875 0.65625 
Q 49.8125 -1.421875 42 -1.421875 
Q 24.90625 -1.421875 15.25 8.5625 
Q 5.609375 18.5625 5.609375 36.375 
Q 5.609375 54.25 15.25 64.234375 
Q 24.90625 74.21875 42 74.21875 
Q 49.125 74.21875 55.546875 72.453125 
Q 61.96875 70.703125 67.390625 67.28125 
L 67.390625 56.78125 
Q 61.921875 61.421875 55.765625 63.765625 
Q 49.609375 66.109375 42.828125 66.109375 
Q 29.4375 66.109375 22.71875 58.640625 
Q 16.015625 51.171875 16.015625 36.375 
Q 16.015625 21.625 22.71875 14.15625 
Q 29.4375 6.6875 42.828125 6.6875 
Q 48.046875 6.6875 52.140625 7.59375 
Q 56.25 8.5 59.515625 10.40625 
z
" id="DejaVuSans-71"/>
      <path d="M 64.40625 67.28125 
L 64.40625 56.890625 
Q 59.421875 61.53125 53.78125 63.8125 
Q 48.140625 66.109375 41.796875 66.109375 
Q 29.296875 66.109375 22.65625 58.46875 
Q 16.015625 50.828125 16.015625 36.375 
Q 16.015625 21.96875 22.65625 14.328125 
Q 29.296875 6.6875 41.796875 6.6875 
Q 48.140625 6.6875 53.78125 8.984375 
Q 59.421875 11.28125 64.40625 15.921875 
L 64.40625 5.609375 
Q 59.234375 2.09375 53.4375 0.328125 
Q 47.65625 -1.421875 41.21875 -1.421875 
Q 24.65625 -1.421875 15.125 8.703125 
Q 5.609375 18.84375 5.609375 36.375 
Q 5.609375 53.953125 15.125 64.078125 
Q 24.65625 74.21875 41.21875 74.21875 
Q 47.75 74.21875 53.53125 72.484375 
Q 59.328125 70.75 64.40625 67.28125 
z
" id="DejaVuSans-67"/>
      <path d="M 28.609375 0 
L 0.78125 72.90625 
L 11.078125 72.90625 
L 34.1875 11.53125 
L 57.328125 72.90625 
L 67.578125 72.90625 
L 39.796875 0 
z
" id="DejaVuSans-86"/>
      <path d="M 31 75.875 
Q 24.46875 64.65625 21.28125 53.65625 
Q 18.109375 42.671875 18.109375 31.390625 
Q 18.109375 20.125 21.3125 9.0625 
Q 24.515625 -2 31 -13.1875 
L 23.1875 -13.1875 
Q 15.875 -1.703125 12.234375 9.375 
Q 8.59375 20.453125 8.59375 31.390625 
Q 8.59375 42.28125 12.203125 53.3125 
Q 15.828125 64.359375 23.1875 75.875 
z
" id="DejaVuSans-40"/>
      <path d="M 8.015625 75.875 
L 15.828125 75.875 
Q 23.140625 64.359375 26.78125 53.3125 
Q 30.421875 42.28125 30.421875 31.390625 
Q 30.421875 20.453125 26.78125 9.375 
Q 23.140625 -1.703125 15.828125 -13.1875 
L 8.015625 -13.1875 
Q 14.5 -2 17.703125 9.0625 
Q 20.90625 20.125 20.90625 31.390625 
Q 20.90625 42.671875 17.703125 53.65625 
Q 14.5 64.65625 8.015625 75.875 
z
" id="DejaVuSans-41"/>
     </defs>
     <g transform="translate(19.384375 164.46)rotate(-90)scale(0.12 -0.12)">
      <use transform="translate(0 0.015625)" xlink:href="#DejaVuSans-71"/>
      <use transform="translate(77.490234 0.015625)" xlink:href="#DejaVuSans-67"/>
      <use transform="translate(147.314453 0.015625)" xlink:href="#DejaVuSans-86"/>
      <use transform="translate(215.722656 0.015625)" xlink:href="#DejaVuSans-40"/>
      <use transform="translate(254.736328 0.015625)" xlink:href="#DejaVuSans-Oblique-955"/>
      <use transform="translate(313.916016 0.015625)" xlink:href="#DejaVuSans-41"/>
     </g>
    </g>
   </g>
   <g id="line2d_25">
    <path clip-path="url(#p0a34c0a663)" d="M 69.218182 214.910711 
L 72.292562 215.655596 
L 75.366942 216.446073 
L 78.441322 217.274684 
L 81.515702 218.132603 
L 84.590083 219.010156 
L 87.664463 219.89739 
L 90.738843 220.784607 
L 93.813223 221.66281 
L 96.887603 222.524013 
L 99.961983 223.361437 
L 103.036364 224.169587 
L 106.110744 224.944254 
L 109.185124 225.682452 
L 112.259504 226.382305 
L 115.333884 227.042912 
L 118.408264 227.664183 
L 121.482645 228.246683 
L 124.557025 228.791479 
L 127.631405 229.300012 
L 130.705785 229.773993 
L 133.780165 230.215308 
L 136.854545 230.625939 
L 139.928926 231.007884 
L 143.003306 231.363068 
L 146.077686 231.693233 
L 149.152066 231.99983 
L 152.226446 232.283881 
L 155.300826 232.545847 
L 158.375207 232.785478 
L 161.449587 233.001668 
L 164.523967 233.192285 
L 167.598347 233.353989 
L 170.672727 233.481995 
L 173.747107 233.569774 
L 176.821488 233.608675 
L 179.895868 233.587489 
L 182.970248 233.491995 
L 186.044628 233.304595 
L 189.119008 233.004158 
L 192.193388 232.566226 
L 195.267769 231.963725 
L 198.342149 231.168292 
L 201.416529 230.152263 
L 204.490909 228.891185 
L 207.565289 227.366601 
L 210.639669 225.568567 
L 213.71405 223.497343 
L 216.78843 221.16366 
L 219.86281 218.587353 
L 222.93719 215.794516 
L 226.01157 212.813861 
L 229.08595 209.673162 
L 232.160331 206.39662 
L 235.234711 203.003636 
L 238.309091 199.509029 
L 241.383471 195.924305 
L 244.457851 192.259366 
L 247.532231 188.524047 
L 250.606612 184.729051 
L 253.680992 180.886181 
L 256.755372 177.008049 
L 259.829752 173.10765 
L 262.904132 169.19817 
L 265.978512 165.293275 
L 269.052893 161.407821 
L 272.127273 157.55875 
L 275.201653 153.765778 
L 278.276033 150.051556 
L 281.350413 146.44115 
L 284.424793 142.960863 
L 287.499174 139.636634 
L 290.573554 136.492252 
L 293.647934 133.547686 
L 296.722314 130.817749 
L 299.796694 128.311235 
L 302.871074 126.03058 
L 305.945455 123.972003 
L 309.019835 122.126013 
L 312.094215 120.478126 
L 315.168595 119.009641 
L 318.242975 117.698335 
L 321.317355 116.51901 
L 324.391736 115.443856 
L 327.466116 114.442688 
L 330.540496 113.48313 
L 333.614876 112.530958 
L 336.689256 111.550778 
L 339.763636 110.5073 
L 342.838017 109.367363 
L 345.912397 108.102708 
L 348.986777 106.693221 
L 352.061157 105.130087 
L 355.135537 103.418041 
L 358.209917 101.575973 
L 361.284298 99.63546 
L 364.358678 97.637366 
L 367.433058 95.627186 
L 370.507438 93.650109 
L 373.581818 91.746758 
" style="fill:none;stroke:#1f77b4;stroke-dasharray:7.5,2.5;stroke-dashoffset:0;stroke-width:2.5;"/>
   </g>
   <g id="line2d_26">
    <defs>
     <path d="M -6 6 
L 6 -6 
M -6 -6 
L 6 6 
" id="m350b13d1a0" style="stroke:#000000;"/>
    </defs>
    <g clip-path="url(#p0a34c0a663)">
     <use style="stroke:#000000;" x="176.821488" xlink:href="#m350b13d1a0" y="233.608675"/>
    </g>
   </g>
   <g id="line2d_27">
    <defs>
     <path d="M -3 3 
L 3 3 
L 3 -3 
L -3 -3 
z
" id="m46457f50ab" style="stroke:#0000ff;stroke-linejoin:miter;"/>
    </defs>
    <g clip-path="url(#p0a34c0a663)">
     <use style="fill:#0000ff;stroke:#0000ff;stroke-linejoin:miter;" x="176.821488" xlink:href="#m46457f50ab" y="233.608675"/>
    </g>
   </g>
   <g id="line2d_28">
    <defs>
     <path d="M 0 3 
C 0.795609 3 1.55874 2.683901 2.12132 2.12132 
C 2.683901 1.55874 3 0.795609 3 0 
C 3 -0.795609 2.683901 -1.55874 2.12132 -2.12132 
C 1.55874 -2.683901 0.795609 -3 0 -3 
C -0.795609 -3 -1.55874 -2.683901 -2.12132 -2.12132 
C -2.683901 -1.55874 -3 -0.795609 -3 0 
C -3 0.795609 -2.683901 1.55874 -2.12132 2.12132 
C -1.55874 2.683901 -0.795609 3 0 3 
z
" id="m141519595a" style="stroke:#ff0000;"/>
    </defs>
    <g clip-path="url(#p0a34c0a663)">
     <use style="fill:#ff0000;stroke:#ff0000;" x="181.016688" xlink:href="#m141519595a" y="233.562134"/>
    </g>
   </g>
   <g id="line2d_29">
    <path clip-path="url(#p0a34c0a663)" d="M 69.218182 226.335137 
L 72.292562 226.815693 
L 75.366942 227.299769 
L 78.441322 227.780214 
L 81.515702 228.250988 
L 84.590083 228.707781 
L 87.664463 229.148311 
L 90.738843 229.572236 
L 93.813223 229.980732 
L 96.887603 230.37587 
L 99.961983 230.759973 
L 103.036364 231.135088 
L 106.110744 231.502657 
L 109.185124 231.863408 
L 112.259504 232.217434 
L 115.333884 232.56438 
L 118.408264 232.903668 
L 121.482645 233.234695 
L 124.557025 233.556932 
L 127.631405 233.86991 
L 130.705785 234.173076 
L 133.780165 234.465546 
L 136.854545 234.745803 
L 139.928926 235.011362 
L 143.003306 235.258479 
L 146.077686 235.48191 
L 149.152066 235.674756 
L 152.226446 235.828409 
L 155.300826 235.932598 
L 158.375207 235.975533 
L 161.449587 235.944124 
L 164.523967 235.824255 
L 167.598347 235.601048 
L 170.672727 235.259068 
L 173.747107 234.782396 
L 176.821488 234.15452 
L 179.895868 233.358027 
L 182.970248 232.374117 
L 186.044628 231.182052 
L 189.119008 229.758646 
L 192.193388 228.078031 
L 195.267769 226.111935 
L 198.342149 223.830785 
L 201.416529 221.205875 
L 204.490909 218.212705 
L 207.565289 214.835223 
L 210.639669 211.070212 
L 213.71405 206.930711 
L 216.78843 202.447229 
L 219.86281 197.66604 
L 222.93719 192.644659 
L 226.01157 187.445561 
L 229.08595 182.129716 
L 232.160331 176.751497 
L 235.234711 171.355955 
L 238.309091 165.978682 
L 241.383471 160.647764 
L 244.457851 155.38686 
L 247.532231 150.218284 
L 250.606612 145.165192 
L 253.680992 140.252355 
L 256.755372 135.505516 
L 259.829752 130.949745 
L 262.904132 126.607411 
L 265.978512 122.496371 
L 269.052893 118.628789 
L 272.127273 115.01076 
L 275.201653 111.642681 
L 278.276033 108.520169 
L 281.350413 105.635285 
L 284.424793 102.977789 
L 287.499174 100.536266 
L 290.573554 98.298968 
L 293.647934 96.254357 
L 296.722314 94.391357 
L 299.796694 92.699396 
L 302.871074 91.168317 
L 305.945455 89.788225 
L 309.019835 88.549313 
L 312.094215 87.441696 
L 315.168595 86.455253 
L 318.242975 85.579485 
L 321.317355 84.803401 
L 324.391736 84.115439 
L 327.466116 83.503426 
L 330.540496 82.954591 
L 333.614876 82.455635 
L 336.689256 81.992886 
L 339.763636 81.552566 
L 342.838017 81.121204 
L 345.912397 80.686213 
L 348.986777 80.236625 
L 352.061157 79.763908 
L 355.135537 79.262745 
L 358.209917 78.731605 
L 361.284298 78.172929 
L 364.358678 77.592841 
L 367.433058 77.000382 
L 370.507438 76.406395 
L 373.581818 75.822254 
" style="fill:none;stroke:#ff7f0e;stroke-dasharray:2500,2.5;stroke-dashoffset:0;stroke-width:2.5;"/>
   </g>
   <g id="line2d_30">
    <g clip-path="url(#p0a34c0a663)">
     <use style="stroke:#000000;" x="155.300826" xlink:href="#m350b13d1a0" y="235.932598"/>
    </g>
   </g>
   <g id="line2d_31">
    <g clip-path="url(#p0a34c0a663)">
     <use style="fill:#0000ff;stroke:#0000ff;stroke-linejoin:miter;" x="158.375207" xlink:href="#m46457f50ab" y="235.975533"/>
    </g>
   </g>
   <g id="line2d_32">
    <g clip-path="url(#p0a34c0a663)">
     <use style="fill:#ff0000;stroke:#ff0000;" x="160.938804" xlink:href="#m141519595a" y="235.955079"/>
    </g>
   </g>
   <g id="line2d_33">
    <path clip-path="url(#p0a34c0a663)" d="M 69.218182 227.013166 
L 72.292562 227.710977 
L 75.366942 228.43285 
L 78.441322 229.168526 
L 81.515702 229.907438 
L 84.590083 230.63969 
L 87.664463 231.356992 
L 90.738843 232.053368 
L 93.813223 232.725498 
L 96.887603 233.372625 
L 99.961983 233.996062 
L 103.036364 234.598451 
L 106.110744 235.182922 
L 109.185124 235.752352 
L 112.259504 236.308823 
L 115.333884 236.853333 
L 118.408264 237.385764 
L 121.482645 237.90503 
L 124.557025 238.409333 
L 127.631405 238.896449 
L 130.705785 239.363966 
L 133.780165 239.809416 
L 136.854545 240.230271 
L 139.928926 240.623768 
L 143.003306 240.986571 
L 146.077686 241.314278 
L 149.152066 241.600816 
L 152.226446 241.837751 
L 155.300826 242.013574 
L 158.375207 242.113003 
L 161.449587 242.116364 
L 164.523967 241.999111 
L 167.598347 241.731599 
L 170.672727 241.279224 
L 173.747107 240.603126 
L 176.821488 239.661597 
L 179.895868 238.412352 
L 182.970248 236.815631 
L 186.044628 234.837912 
L 189.119008 232.455751 
L 192.193388 229.659047 
L 195.267769 226.453011 
L 198.342149 222.858342 
L 201.416529 218.90954 
L 204.490909 214.651741 
L 207.565289 210.136816 
L 210.639669 205.419508 
L 213.71405 200.55418 
L 216.78843 195.592381 
L 219.86281 190.581088 
L 222.93719 185.561301 
L 226.01157 180.566679 
L 229.08595 175.622099 
L 232.160331 170.742321 
L 235.234711 165.931124 
L 238.309091 161.181406 
L 241.383471 156.476599 
L 244.457851 151.79351 
L 247.532231 147.106317 
L 250.606612 142.3911 
L 253.680992 137.630034 
L 256.755372 132.8144 
L 259.829752 127.945841 
L 262.904132 123.035817 
L 265.978512 118.103722 
L 269.052893 113.174437 
L 272.127273 108.276113 
L 275.201653 103.438653 
L 278.276033 98.692936 
L 281.350413 94.070471 
L 284.424793 89.60299 
L 287.499174 85.321601 
L 290.573554 81.255391 
L 293.647934 77.429659 
L 296.722314 73.864152 
L 299.796694 70.571717 
L 302.871074 67.557636 
L 305.945455 64.819738 
L 309.019835 62.349201 
L 312.094215 60.131857 
L 315.168595 58.149753 
L 318.242975 56.382768 
L 321.317355 54.81011 
L 324.391736 53.411556 
L 327.466116 52.168369 
L 330.540496 51.063832 
L 333.614876 50.083432 
L 336.689256 49.214744 
L 339.763636 48.44711 
L 342.838017 47.771227 
L 345.912397 47.178748 
L 348.986777 46.661954 
L 352.061157 46.213538 
L 355.135537 45.826498 
L 358.209917 45.494123 
L 361.284298 45.210029 
L 364.358678 44.968221 
L 367.433058 44.763158 
L 370.507438 44.589802 
L 373.581818 44.443636 
" style="fill:none;stroke:#2ca02c;stroke-dasharray:5,2.5,25,2.5;stroke-dashoffset:0;stroke-width:2.5;"/>
   </g>
   <g id="line2d_34">
    <g clip-path="url(#p0a34c0a663)">
     <use style="stroke:#000000;" x="155.300826" xlink:href="#m350b13d1a0" y="242.013574"/>
    </g>
   </g>
   <g id="line2d_35">
    <g clip-path="url(#p0a34c0a663)">
     <use style="fill:#0000ff;stroke:#0000ff;stroke-linejoin:miter;" x="161.449587" xlink:href="#m46457f50ab" y="242.116364"/>
    </g>
   </g>
   <g id="line2d_36">
    <g clip-path="url(#p0a34c0a663)">
     <use style="fill:#ff0000;stroke:#ff0000;" x="156.731693" xlink:href="#m141519595a" y="242.07044"/>
    </g>
   </g>
   <g id="patch_3">
    <path d="M 54 252 
L 54 34.56 
" style="fill:none;stroke:#000000;stroke-linecap:square;stroke-linejoin:miter;stroke-width:0.8;"/>
   </g>
   <g id="patch_4">
    <path d="M 388.8 252 
L 388.8 34.56 
" style="fill:none;stroke:#000000;stroke-linecap:square;stroke-linejoin:miter;stroke-width:0.8;"/>
   </g>
   <g id="patch_5">
    <path d="M 54 252 
L 388.8 252 
" style="fill:none;stroke:#000000;stroke-linecap:square;stroke-linejoin:miter;stroke-width:0.8;"/>
   </g>
   <g id="patch_6">
    <path d="M 54 34.56 
L 388.8 34.56 
" style="fill:none;stroke:#000000;stroke-linecap:square;stroke-linejoin:miter;stroke-width:0.8;"/>
   </g>
   <g id="text_10">
    <!-- GCV function for ssplines ($\sigma = 1$) -->
    <defs>
     <path id="DejaVuSans-32"/>
     <path d="M 37.109375 75.984375 
L 37.109375 68.5 
L 28.515625 68.5 
Q 23.6875 68.5 21.796875 66.546875 
Q 19.921875 64.59375 19.921875 59.515625 
L 19.921875 54.6875 
L 34.71875 54.6875 
L 34.71875 47.703125 
L 19.921875 47.703125 
L 19.921875 0 
L 10.890625 0 
L 10.890625 47.703125 
L 2.296875 47.703125 
L 2.296875 54.6875 
L 10.890625 54.6875 
L 10.890625 58.5 
Q 10.890625 67.625 15.140625 71.796875 
Q 19.390625 75.984375 28.609375 75.984375 
z
" id="DejaVuSans-102"/>
     <path d="M 8.5 21.578125 
L 8.5 54.6875 
L 17.484375 54.6875 
L 17.484375 21.921875 
Q 17.484375 14.15625 20.5 10.265625 
Q 23.53125 6.390625 29.59375 6.390625 
Q 36.859375 6.390625 41.078125 11.03125 
Q 45.3125 15.671875 45.3125 23.6875 
L 45.3125 54.6875 
L 54.296875 54.6875 
L 54.296875 0 
L 45.3125 0 
L 45.3125 8.40625 
Q 42.046875 3.421875 37.71875 1 
Q 33.40625 -1.421875 27.6875 -1.421875 
Q 18.265625 -1.421875 13.375 4.4375 
Q 8.5 10.296875 8.5 21.578125 
z
M 31.109375 56 
z
" id="DejaVuSans-117"/>
     <path d="M 54.890625 33.015625 
L 54.890625 0 
L 45.90625 0 
L 45.90625 32.71875 
Q 45.90625 40.484375 42.875 44.328125 
Q 39.84375 48.1875 33.796875 48.1875 
Q 26.515625 48.1875 22.3125 43.546875 
Q 18.109375 38.921875 18.109375 30.90625 
L 18.109375 0 
L 9.078125 0 
L 9.078125 54.6875 
L 18.109375 54.6875 
L 18.109375 46.1875 
Q 21.34375 51.125 25.703125 53.5625 
Q 30.078125 56 35.796875 56 
Q 45.21875 56 50.046875 50.171875 
Q 54.890625 44.34375 54.890625 33.015625 
z
" id="DejaVuSans-110"/>
     <path d="M 48.78125 52.59375 
L 48.78125 44.1875 
Q 44.96875 46.296875 41.140625 47.34375 
Q 37.3125 48.390625 33.40625 48.390625 
Q 24.65625 48.390625 19.8125 42.84375 
Q 14.984375 37.3125 14.984375 27.296875 
Q 14.984375 17.28125 19.8125 11.734375 
Q 24.65625 6.203125 33.40625 6.203125 
Q 37.3125 6.203125 41.140625 7.25 
Q 44.96875 8.296875 48.78125 10.40625 
L 48.78125 2.09375 
Q 45.015625 0.34375 40.984375 -0.53125 
Q 36.96875 -1.421875 32.421875 -1.421875 
Q 20.0625 -1.421875 12.78125 6.34375 
Q 5.515625 14.109375 5.515625 27.296875 
Q 5.515625 40.671875 12.859375 48.328125 
Q 20.21875 56 33.015625 56 
Q 37.15625 56 41.109375 55.140625 
Q 45.0625 54.296875 48.78125 52.59375 
z
" id="DejaVuSans-99"/>
     <path d="M 18.3125 70.21875 
L 18.3125 54.6875 
L 36.8125 54.6875 
L 36.8125 47.703125 
L 18.3125 47.703125 
L 18.3125 18.015625 
Q 18.3125 11.328125 20.140625 9.421875 
Q 21.96875 7.515625 27.59375 7.515625 
L 36.8125 7.515625 
L 36.8125 0 
L 27.59375 0 
Q 17.1875 0 13.234375 3.875 
Q 9.28125 7.765625 9.28125 18.015625 
L 9.28125 47.703125 
L 2.6875 47.703125 
L 2.6875 54.6875 
L 9.28125 54.6875 
L 9.28125 70.21875 
z
" id="DejaVuSans-116"/>
     <path d="M 9.421875 54.6875 
L 18.40625 54.6875 
L 18.40625 0 
L 9.421875 0 
z
M 9.421875 75.984375 
L 18.40625 75.984375 
L 18.40625 64.59375 
L 9.421875 64.59375 
z
" id="DejaVuSans-105"/>
     <path d="M 30.609375 48.390625 
Q 23.390625 48.390625 19.1875 42.75 
Q 14.984375 37.109375 14.984375 27.296875 
Q 14.984375 17.484375 19.15625 11.84375 
Q 23.34375 6.203125 30.609375 6.203125 
Q 37.796875 6.203125 41.984375 11.859375 
Q 46.1875 17.53125 46.1875 27.296875 
Q 46.1875 37.015625 41.984375 42.703125 
Q 37.796875 48.390625 30.609375 48.390625 
z
M 30.609375 56 
Q 42.328125 56 49.015625 48.375 
Q 55.71875 40.765625 55.71875 27.296875 
Q 55.71875 13.875 49.015625 6.21875 
Q 42.328125 -1.421875 30.609375 -1.421875 
Q 18.84375 -1.421875 12.171875 6.21875 
Q 5.515625 13.875 5.515625 27.296875 
Q 5.515625 40.765625 12.171875 48.375 
Q 18.84375 56 30.609375 56 
z
" id="DejaVuSans-111"/>
     <path d="M 41.109375 46.296875 
Q 39.59375 47.171875 37.8125 47.578125 
Q 36.03125 48 33.890625 48 
Q 26.265625 48 22.1875 43.046875 
Q 18.109375 38.09375 18.109375 28.8125 
L 18.109375 0 
L 9.078125 0 
L 9.078125 54.6875 
L 18.109375 54.6875 
L 18.109375 46.1875 
Q 20.953125 51.171875 25.484375 53.578125 
Q 30.03125 56 36.53125 56 
Q 37.453125 56 38.578125 55.875 
Q 39.703125 55.765625 41.0625 55.515625 
z
" id="DejaVuSans-114"/>
     <path d="M 44.28125 53.078125 
L 44.28125 44.578125 
Q 40.484375 46.53125 36.375 47.5 
Q 32.28125 48.484375 27.875 48.484375 
Q 21.1875 48.484375 17.84375 46.4375 
Q 14.5 44.390625 14.5 40.28125 
Q 14.5 37.15625 16.890625 35.375 
Q 19.28125 33.59375 26.515625 31.984375 
L 29.59375 31.296875 
Q 39.15625 29.25 43.1875 25.515625 
Q 47.21875 21.78125 47.21875 15.09375 
Q 47.21875 7.46875 41.1875 3.015625 
Q 35.15625 -1.421875 24.609375 -1.421875 
Q 20.21875 -1.421875 15.453125 -0.5625 
Q 10.6875 0.296875 5.421875 2 
L 5.421875 11.28125 
Q 10.40625 8.6875 15.234375 7.390625 
Q 20.0625 6.109375 24.8125 6.109375 
Q 31.15625 6.109375 34.5625 8.28125 
Q 37.984375 10.453125 37.984375 14.40625 
Q 37.984375 18.0625 35.515625 20.015625 
Q 33.0625 21.96875 24.703125 23.78125 
L 21.578125 24.515625 
Q 13.234375 26.265625 9.515625 29.90625 
Q 5.8125 33.546875 5.8125 39.890625 
Q 5.8125 47.609375 11.28125 51.796875 
Q 16.75 56 26.8125 56 
Q 31.78125 56 36.171875 55.265625 
Q 40.578125 54.546875 44.28125 53.078125 
z
" id="DejaVuSans-115"/>
     <path d="M 18.109375 8.203125 
L 18.109375 -20.796875 
L 9.078125 -20.796875 
L 9.078125 54.6875 
L 18.109375 54.6875 
L 18.109375 46.390625 
Q 20.953125 51.265625 25.265625 53.625 
Q 29.59375 56 35.59375 56 
Q 45.5625 56 51.78125 48.09375 
Q 58.015625 40.1875 58.015625 27.296875 
Q 58.015625 14.40625 51.78125 6.484375 
Q 45.5625 -1.421875 35.59375 -1.421875 
Q 29.59375 -1.421875 25.265625 0.953125 
Q 20.953125 3.328125 18.109375 8.203125 
z
M 48.6875 27.296875 
Q 48.6875 37.203125 44.609375 42.84375 
Q 40.53125 48.484375 33.40625 48.484375 
Q 26.265625 48.484375 22.1875 42.84375 
Q 18.109375 37.203125 18.109375 27.296875 
Q 18.109375 17.390625 22.1875 11.75 
Q 26.265625 6.109375 33.40625 6.109375 
Q 40.53125 6.109375 44.609375 11.75 
Q 48.6875 17.390625 48.6875 27.296875 
z
" id="DejaVuSans-112"/>
     <path d="M 9.421875 75.984375 
L 18.40625 75.984375 
L 18.40625 0 
L 9.421875 0 
z
" id="DejaVuSans-108"/>
     <path d="M 56.203125 29.59375 
L 56.203125 25.203125 
L 14.890625 25.203125 
Q 15.484375 15.921875 20.484375 11.0625 
Q 25.484375 6.203125 34.421875 6.203125 
Q 39.59375 6.203125 44.453125 7.46875 
Q 49.3125 8.734375 54.109375 11.28125 
L 54.109375 2.78125 
Q 49.265625 0.734375 44.1875 -0.34375 
Q 39.109375 -1.421875 33.890625 -1.421875 
Q 20.796875 -1.421875 13.15625 6.1875 
Q 5.515625 13.8125 5.515625 26.8125 
Q 5.515625 40.234375 12.765625 48.109375 
Q 20.015625 56 32.328125 56 
Q 43.359375 56 49.78125 48.890625 
Q 56.203125 41.796875 56.203125 29.59375 
z
M 47.21875 32.234375 
Q 47.125 39.59375 43.09375 43.984375 
Q 39.0625 48.390625 32.421875 48.390625 
Q 24.90625 48.390625 20.390625 44.140625 
Q 15.875 39.890625 15.1875 32.171875 
z
" id="DejaVuSans-101"/>
     <path d="M 34.671875 47.5625 
Q 27.25 47.5625 22.21875 42.1875 
Q 16.890625 36.578125 15.140625 27.296875 
Q 13.1875 17.484375 16.3125 11.8125 
Q 19.390625 6.203125 26.65625 6.203125 
Q 33.84375 6.203125 39.109375 11.859375 
Q 44.4375 17.53125 46.34375 27.296875 
Q 48.046875 36.234375 45.015625 42.1875 
Q 42.1875 47.5625 34.671875 47.5625 
z
M 36.078125 54.734375 
L 65.921875 54.6875 
L 64.15625 45.703125 
L 54.109375 45.703125 
Q 57.90625 38.09375 55.859375 27.296875 
Q 53.21875 13.875 45.0625 6.25 
Q 36.859375 -1.421875 25.140625 -1.421875 
Q 13.375 -1.421875 8.203125 6.25 
Q 3.03125 13.875 5.671875 27.296875 
Q 8.25 40.765625 16.40625 48.390625 
Q 23.1875 54.734375 36.078125 54.734375 
z
" id="DejaVuSans-Oblique-963"/>
     <path d="M 10.59375 45.40625 
L 73.1875 45.40625 
L 73.1875 37.203125 
L 10.59375 37.203125 
z
M 10.59375 25.484375 
L 73.1875 25.484375 
L 73.1875 17.1875 
L 10.59375 17.1875 
z
" id="DejaVuSans-61"/>
    </defs>
    <g transform="translate(124.38 28.56)scale(0.12 -0.12)">
     <use transform="translate(0 0.015625)" xlink:href="#DejaVuSans-71"/>
     <use transform="translate(77.490234 0.015625)" xlink:href="#DejaVuSans-67"/>
     <use transform="translate(147.314453 0.015625)" xlink:href="#DejaVuSans-86"/>
     <use transform="translate(215.722656 0.015625)" xlink:href="#DejaVuSans-32"/>
     <use transform="translate(247.509766 0.015625)" xlink:href="#DejaVuSans-102"/>
     <use transform="translate(282.714844 0.015625)" xlink:href="#DejaVuSans-117"/>
     <use transform="translate(346.09375 0.015625)" xlink:href="#DejaVuSans-110"/>
     <use transform="translate(409.472656 0.015625)" xlink:href="#DejaVuSans-99"/>
     <use transform="translate(464.453125 0.015625)" xlink:href="#DejaVuSans-116"/>
     <use transform="translate(503.662109 0.015625)" xlink:href="#DejaVuSans-105"/>
     <use transform="translate(531.445312 0.015625)" xlink:href="#DejaVuSans-111"/>
     <use transform="translate(592.626953 0.015625)" xlink:href="#DejaVuSans-110"/>
     <use transform="translate(656.005859 0.015625)" xlink:href="#DejaVuSans-32"/>
     <use transform="translate(687.792969 0.015625)" xlink:href="#DejaVuSans-102"/>
     <use transform="translate(722.998047 0.015625)" xlink:href="#DejaVuSans-111"/>
     <use transform="translate(784.179688 0.015625)" xlink:href="#DejaVuSans-114"/>
     <use transform="translate(825.292969 0.015625)" xlink:href="#DejaVuSans-32"/>
     <use transform="translate(857.080078 0.015625)" xlink:href="#DejaVuSans-115"/>
     <use transform="translate(909.179688 0.015625)" xlink:href="#DejaVuSans-115"/>
     <use transform="translate(961.279297 0.015625)" xlink:href="#DejaVuSans-112"/>
     <use transform="translate(1024.755859 0.015625)" xlink:href="#DejaVuSans-108"/>
     <use transform="translate(1052.539062 0.015625)" xlink:href="#DejaVuSans-105"/>
     <use transform="translate(1080.322266 0.015625)" xlink:href="#DejaVuSans-110"/>
     <use transform="translate(1143.701172 0.015625)" xlink:href="#DejaVuSans-101"/>
     <use transform="translate(1205.224609 0.015625)" xlink:href="#DejaVuSans-115"/>
     <use transform="translate(1257.324219 0.015625)" xlink:href="#DejaVuSans-32"/>
     <use transform="translate(1289.111328 0.015625)" xlink:href="#DejaVuSans-40"/>
     <use transform="translate(1328.125 0.015625)" xlink:href="#DejaVuSans-Oblique-963"/>
     <use transform="translate(1410.986328 0.015625)" xlink:href="#DejaVuSans-61"/>
     <use transform="translate(1514.257812 0.015625)" xlink:href="#DejaVuSans-49"/>
     <use transform="translate(1577.880859 0.015625)" xlink:href="#DejaVuSans-41"/>
    </g>
   </g>
   <g id="legend_1">
    <g id="line2d_37">
     <path d="M 64.8 50.278125 
L 112.8 50.278125 
" style="fill:none;stroke:#1f77b4;stroke-dasharray:7.5,2.5;stroke-dashoffset:0;stroke-width:2.5;"/>
    </g>
    <g id="line2d_38"/>
    <g id="text_11">
     <!-- state $x_1$ -->
     <defs>
      <path d="M 34.28125 27.484375 
Q 23.390625 27.484375 19.1875 25 
Q 14.984375 22.515625 14.984375 16.5 
Q 14.984375 11.71875 18.140625 8.90625 
Q 21.296875 6.109375 26.703125 6.109375 
Q 34.1875 6.109375 38.703125 11.40625 
Q 43.21875 16.703125 43.21875 25.484375 
L 43.21875 27.484375 
z
M 52.203125 31.203125 
L 52.203125 0 
L 43.21875 0 
L 43.21875 8.296875 
Q 40.140625 3.328125 35.546875 0.953125 
Q 30.953125 -1.421875 24.3125 -1.421875 
Q 15.921875 -1.421875 10.953125 3.296875 
Q 6 8.015625 6 15.921875 
Q 6 25.140625 12.171875 29.828125 
Q 18.359375 34.515625 30.609375 34.515625 
L 43.21875 34.515625 
L 43.21875 35.40625 
Q 43.21875 41.609375 39.140625 45 
Q 35.0625 48.390625 27.6875 48.390625 
Q 23 48.390625 18.546875 47.265625 
Q 14.109375 46.140625 10.015625 43.890625 
L 10.015625 52.203125 
Q 14.9375 54.109375 19.578125 55.046875 
Q 24.21875 56 28.609375 56 
Q 40.484375 56 46.34375 49.84375 
Q 52.203125 43.703125 52.203125 31.203125 
z
" id="DejaVuSans-97"/>
      <path d="M 60.015625 54.6875 
L 34.90625 27.875 
L 50.296875 0 
L 39.984375 0 
L 28.421875 21.6875 
L 8.296875 0 
L -2.59375 0 
L 24.3125 28.8125 
L 10.015625 54.6875 
L 20.3125 54.6875 
L 30.8125 34.90625 
L 49.125 54.6875 
z
" id="DejaVuSans-Oblique-120"/>
     </defs>
     <g transform="translate(122.4 54.478125)scale(0.12 -0.12)">
      <use transform="translate(0 0.78125)" xlink:href="#DejaVuSans-115"/>
      <use transform="translate(52.099609 0.78125)" xlink:href="#DejaVuSans-116"/>
      <use transform="translate(91.308594 0.78125)" xlink:href="#DejaVuSans-97"/>
      <use transform="translate(152.587891 0.78125)" xlink:href="#DejaVuSans-116"/>
      <use transform="translate(191.796875 0.78125)" xlink:href="#DejaVuSans-101"/>
      <use transform="translate(253.320312 0.78125)" xlink:href="#DejaVuSans-32"/>
      <use transform="translate(285.107422 0.78125)" xlink:href="#DejaVuSans-Oblique-120"/>
      <use transform="translate(344.287109 -15.625)scale(0.7)" xlink:href="#DejaVuSans-49"/>
     </g>
    </g>
    <g id="line2d_39">
     <path d="M 64.8 67.891875 
L 112.8 67.891875 
" style="fill:none;stroke:#ff7f0e;stroke-dasharray:2500,2.5;stroke-dashoffset:0;stroke-width:2.5;"/>
    </g>
    <g id="line2d_40"/>
    <g id="text_12">
     <!-- state $x_2$ -->
     <g transform="translate(122.4 72.091875)scale(0.12 -0.12)">
      <use transform="translate(0 0.78125)" xlink:href="#DejaVuSans-115"/>
      <use transform="translate(52.099609 0.78125)" xlink:href="#DejaVuSans-116"/>
      <use transform="translate(91.308594 0.78125)" xlink:href="#DejaVuSans-97"/>
      <use transform="translate(152.587891 0.78125)" xlink:href="#DejaVuSans-116"/>
      <use transform="translate(191.796875 0.78125)" xlink:href="#DejaVuSans-101"/>
      <use transform="translate(253.320312 0.78125)" xlink:href="#DejaVuSans-32"/>
      <use transform="translate(285.107422 0.78125)" xlink:href="#DejaVuSans-Oblique-120"/>
      <use transform="translate(344.287109 -15.625)scale(0.7)" xlink:href="#DejaVuSans-50"/>
     </g>
    </g>
    <g id="line2d_41">
     <path d="M 64.8 85.505625 
L 112.8 85.505625 
" style="fill:none;stroke:#2ca02c;stroke-dasharray:5,2.5,25,2.5;stroke-dashoffset:0;stroke-width:2.5;"/>
    </g>
    <g id="line2d_42"/>
    <g id="text_13">
     <!-- state $x_3$ -->
     <g transform="translate(122.4 89.705625)scale(0.12 -0.12)">
      <use transform="translate(0 0.78125)" xlink:href="#DejaVuSans-115"/>
      <use transform="translate(52.099609 0.78125)" xlink:href="#DejaVuSans-116"/>
      <use transform="translate(91.308594 0.78125)" xlink:href="#DejaVuSans-97"/>
      <use transform="translate(152.587891 0.78125)" xlink:href="#DejaVuSans-116"/>
      <use transform="translate(191.796875 0.78125)" xlink:href="#DejaVuSans-101"/>
      <use transform="translate(253.320312 0.78125)" xlink:href="#DejaVuSans-32"/>
      <use transform="translate(285.107422 0.78125)" xlink:href="#DejaVuSans-Oblique-120"/>
      <use transform="translate(344.287109 -15.625)scale(0.7)" xlink:href="#DejaVuSans-51"/>
     </g>
    </g>
   </g>
  </g>
 </g>
 <defs>
  <clipPath id="p0a34c0a663">
   <rect height="217.44" width="334.8" x="54" y="34.56"/>
  </clipPath>
 </defs>
</svg>
