<?xml version="1.0" encoding="utf-8" standalone="no"?>
<!DOCTYPE svg PUBLIC "-//W3C//DTD SVG 1.1//EN"
  "http://www.w3.org/Graphics/SVG/1.1/DTD/svg11.dtd">
<!-- Created with matplotlib (https://matplotlib.org/) -->
<svg height="288pt" version="1.1" viewBox="0 0 432 288" width="432pt" xmlns="http://www.w3.org/2000/svg" xmlns:xlink="http://www.w3.org/1999/xlink">
 <defs>
  <style type="text/css">
*{stroke-linecap:butt;stroke-linejoin:round;}
  </style>
 </defs>
 <g id="figure_1">
  <g id="patch_1">
   <path d="M 0 288 
L 432 288 
L 432 0 
L 0 0 
z
" style="fill:#ffffff;"/>
  </g>
  <g id="axes_1">
   <g id="patch_2">
    <path d="M 54 252 
L 388.8 252 
L 388.8 34.56 
L 54 34.56 
z
" style="fill:#ffffff;"/>
   </g>
   <g id="matplotlib.axis_1">
    <g id="xtick_1">
     <g id="line2d_1">
      <defs>
       <path d="M 0 0 
L 0 3.5 
" id="me855a1b742" style="stroke:#000000;stroke-width:0.8;"/>
      </defs>
      <g>
       <use style="stroke:#000000;stroke-width:0.8;" x="99.654545" xlink:href="#me855a1b742" y="252"/>
      </g>
     </g>
     <g id="text_1">
      <!-- $\mathdefault{10^{-11}}$ -->
      <defs>
       <path d="M 12.40625 8.296875 
L 28.515625 8.296875 
L 28.515625 63.921875 
L 10.984375 60.40625 
L 10.984375 69.390625 
L 28.421875 72.90625 
L 38.28125 72.90625 
L 38.28125 8.296875 
L 54.390625 8.296875 
L 54.390625 0 
L 12.40625 0 
z
" id="DejaVuSans-49"/>
       <path d="M 31.78125 66.40625 
Q 24.171875 66.40625 20.328125 58.90625 
Q 16.5 51.421875 16.5 36.375 
Q 16.5 21.390625 20.328125 13.890625 
Q 24.171875 6.390625 31.78125 6.390625 
Q 39.453125 6.390625 43.28125 13.890625 
Q 47.125 21.390625 47.125 36.375 
Q 47.125 51.421875 43.28125 58.90625 
Q 39.453125 66.40625 31.78125 66.40625 
z
M 31.78125 74.21875 
Q 44.046875 74.21875 50.515625 64.515625 
Q 56.984375 54.828125 56.984375 36.375 
Q 56.984375 17.96875 50.515625 8.265625 
Q 44.046875 -1.421875 31.78125 -1.421875 
Q 19.53125 -1.421875 13.0625 8.265625 
Q 6.59375 17.96875 6.59375 36.375 
Q 6.59375 54.828125 13.0625 64.515625 
Q 19.53125 74.21875 31.78125 74.21875 
z
" id="DejaVuSans-48"/>
       <path d="M 10.59375 35.5 
L 73.1875 35.5 
L 73.1875 27.203125 
L 10.59375 27.203125 
z
" id="DejaVuSans-8722"/>
      </defs>
      <g transform="translate(82.914545 268.118125)scale(0.12 -0.12)">
       <use transform="translate(0 0.684375)" xlink:href="#DejaVuSans-49"/>
       <use transform="translate(63.623047 0.684375)" xlink:href="#DejaVuSans-48"/>
       <use transform="translate(128.203125 38.965625)scale(0.7)" xlink:href="#DejaVuSans-8722"/>
       <use transform="translate(186.855469 38.965625)scale(0.7)" xlink:href="#DejaVuSans-49"/>
       <use transform="translate(231.391602 38.965625)scale(0.7)" xlink:href="#DejaVuSans-49"/>
      </g>
     </g>
    </g>
    <g id="xtick_2">
     <g id="line2d_2">
      <g>
       <use style="stroke:#000000;stroke-width:0.8;" x="160.527273" xlink:href="#me855a1b742" y="252"/>
      </g>
     </g>
     <g id="text_2">
      <!-- $\mathdefault{10^{-9}}$ -->
      <defs>
       <path d="M 10.984375 1.515625 
L 10.984375 10.5 
Q 14.703125 8.734375 18.5 7.8125 
Q 22.3125 6.890625 25.984375 6.890625 
Q 35.75 6.890625 40.890625 13.453125 
Q 46.046875 20.015625 46.78125 33.40625 
Q 43.953125 29.203125 39.59375 26.953125 
Q 35.25 24.703125 29.984375 24.703125 
Q 19.046875 24.703125 12.671875 31.3125 
Q 6.296875 37.9375 6.296875 49.421875 
Q 6.296875 60.640625 12.9375 67.421875 
Q 19.578125 74.21875 30.609375 74.21875 
Q 43.265625 74.21875 49.921875 64.515625 
Q 56.59375 54.828125 56.59375 36.375 
Q 56.59375 19.140625 48.40625 8.859375 
Q 40.234375 -1.421875 26.421875 -1.421875 
Q 22.703125 -1.421875 18.890625 -0.6875 
Q 15.09375 0.046875 10.984375 1.515625 
z
M 30.609375 32.421875 
Q 37.25 32.421875 41.125 36.953125 
Q 45.015625 41.5 45.015625 49.421875 
Q 45.015625 57.28125 41.125 61.84375 
Q 37.25 66.40625 30.609375 66.40625 
Q 23.96875 66.40625 20.09375 61.84375 
Q 16.21875 57.28125 16.21875 49.421875 
Q 16.21875 41.5 20.09375 36.953125 
Q 23.96875 32.421875 30.609375 32.421875 
z
" id="DejaVuSans-57"/>
      </defs>
      <g transform="translate(146.427273 268.118125)scale(0.12 -0.12)">
       <use transform="translate(0 0.765625)" xlink:href="#DejaVuSans-49"/>
       <use transform="translate(63.623047 0.765625)" xlink:href="#DejaVuSans-48"/>
       <use transform="translate(128.203125 39.046875)scale(0.7)" xlink:href="#DejaVuSans-8722"/>
       <use transform="translate(186.855469 39.046875)scale(0.7)" xlink:href="#DejaVuSans-57"/>
      </g>
     </g>
    </g>
    <g id="xtick_3">
     <g id="line2d_3">
      <g>
       <use style="stroke:#000000;stroke-width:0.8;" x="221.4" xlink:href="#me855a1b742" y="252"/>
      </g>
     </g>
     <g id="text_3">
      <!-- $\mathdefault{10^{-7}}$ -->
      <defs>
       <path d="M 8.203125 72.90625 
L 55.078125 72.90625 
L 55.078125 68.703125 
L 28.609375 0 
L 18.3125 0 
L 43.21875 64.59375 
L 8.203125 64.59375 
z
" id="DejaVuSans-55"/>
      </defs>
      <g transform="translate(207.3 268.118125)scale(0.12 -0.12)">
       <use transform="translate(0 0.684375)" xlink:href="#DejaVuSans-49"/>
       <use transform="translate(63.623047 0.684375)" xlink:href="#DejaVuSans-48"/>
       <use transform="translate(128.203125 38.965625)scale(0.7)" xlink:href="#DejaVuSans-8722"/>
       <use transform="translate(186.855469 38.965625)scale(0.7)" xlink:href="#DejaVuSans-55"/>
      </g>
     </g>
    </g>
    <g id="xtick_4">
     <g id="line2d_4">
      <g>
       <use style="stroke:#000000;stroke-width:0.8;" x="282.272727" xlink:href="#me855a1b742" y="252"/>
      </g>
     </g>
     <g id="text_4">
      <!-- $\mathdefault{10^{-5}}$ -->
      <defs>
       <path d="M 10.796875 72.90625 
L 49.515625 72.90625 
L 49.515625 64.59375 
L 19.828125 64.59375 
L 19.828125 46.734375 
Q 21.96875 47.46875 24.109375 47.828125 
Q 26.265625 48.1875 28.421875 48.1875 
Q 40.625 48.1875 47.75 41.5 
Q 54.890625 34.8125 54.890625 23.390625 
Q 54.890625 11.625 47.5625 5.09375 
Q 40.234375 -1.421875 26.90625 -1.421875 
Q 22.3125 -1.421875 17.546875 -0.640625 
Q 12.796875 0.140625 7.71875 1.703125 
L 7.71875 11.625 
Q 12.109375 9.234375 16.796875 8.0625 
Q 21.484375 6.890625 26.703125 6.890625 
Q 35.15625 6.890625 40.078125 11.328125 
Q 45.015625 15.765625 45.015625 23.390625 
Q 45.015625 31 40.078125 35.4375 
Q 35.15625 39.890625 26.703125 39.890625 
Q 22.75 39.890625 18.8125 39.015625 
Q 14.890625 38.140625 10.796875 36.28125 
z
" id="DejaVuSans-53"/>
      </defs>
      <g transform="translate(268.172727 268.118125)scale(0.12 -0.12)">
       <use transform="translate(0 0.684375)" xlink:href="#DejaVuSans-49"/>
       <use transform="translate(63.623047 0.684375)" xlink:href="#DejaVuSans-48"/>
       <use transform="translate(128.203125 38.965625)scale(0.7)" xlink:href="#DejaVuSans-8722"/>
       <use transform="translate(186.855469 38.965625)scale(0.7)" xlink:href="#DejaVuSans-53"/>
      </g>
     </g>
    </g>
    <g id="xtick_5">
     <g id="line2d_5">
      <g>
       <use style="stroke:#000000;stroke-width:0.8;" x="343.145455" xlink:href="#me855a1b742" y="252"/>
      </g>
     </g>
     <g id="text_5">
      <!-- $\mathdefault{10^{-3}}$ -->
      <defs>
       <path d="M 40.578125 39.3125 
Q 47.65625 37.796875 51.625 33 
Q 55.609375 28.21875 55.609375 21.1875 
Q 55.609375 10.40625 48.1875 4.484375 
Q 40.765625 -1.421875 27.09375 -1.421875 
Q 22.515625 -1.421875 17.65625 -0.515625 
Q 12.796875 0.390625 7.625 2.203125 
L 7.625 11.71875 
Q 11.71875 9.328125 16.59375 8.109375 
Q 21.484375 6.890625 26.8125 6.890625 
Q 36.078125 6.890625 40.9375 10.546875 
Q 45.796875 14.203125 45.796875 21.1875 
Q 45.796875 27.640625 41.28125 31.265625 
Q 36.765625 34.90625 28.71875 34.90625 
L 20.21875 34.90625 
L 20.21875 43.015625 
L 29.109375 43.015625 
Q 36.375 43.015625 40.234375 45.921875 
Q 44.09375 48.828125 44.09375 54.296875 
Q 44.09375 59.90625 40.109375 62.90625 
Q 36.140625 65.921875 28.71875 65.921875 
Q 24.65625 65.921875 20.015625 65.03125 
Q 15.375 64.15625 9.8125 62.3125 
L 9.8125 71.09375 
Q 15.4375 72.65625 20.34375 73.4375 
Q 25.25 74.21875 29.59375 74.21875 
Q 40.828125 74.21875 47.359375 69.109375 
Q 53.90625 64.015625 53.90625 55.328125 
Q 53.90625 49.265625 50.4375 45.09375 
Q 46.96875 40.921875 40.578125 39.3125 
z
" id="DejaVuSans-51"/>
      </defs>
      <g transform="translate(329.045455 268.118125)scale(0.12 -0.12)">
       <use transform="translate(0 0.765625)" xlink:href="#DejaVuSans-49"/>
       <use transform="translate(63.623047 0.765625)" xlink:href="#DejaVuSans-48"/>
       <use transform="translate(128.203125 39.046875)scale(0.7)" xlink:href="#DejaVuSans-8722"/>
       <use transform="translate(186.855469 39.046875)scale(0.7)" xlink:href="#DejaVuSans-51"/>
      </g>
     </g>
    </g>
    <g id="text_6">
     <!-- $\lambda$ -->
     <defs>
      <path d="M 36.71875 67.4375 
L 48.828125 0 
L 39.3125 0 
L 31.84375 40.4375 
L 5.125 0 
L -4.390625 0 
L 29.734375 52.4375 
L 28.03125 62.109375 
Q 26.953125 68.265625 21.734375 68.265625 
L 17.046875 68.265625 
L 18.5 75.984375 
L 24.21875 75.875 
Q 35.203125 75.734375 36.71875 67.4375 
z
" id="DejaVuSans-Oblique-955"/>
     </defs>
     <g transform="translate(217.8 283.731875)scale(0.12 -0.12)">
      <use transform="translate(0 0.015625)" xlink:href="#DejaVuSans-Oblique-955"/>
     </g>
    </g>
   </g>
   <g id="matplotlib.axis_2">
    <g id="ytick_1">
     <g id="line2d_6">
      <defs>
       <path d="M 0 0 
L -3.5 0 
" id="m8bc0a96d50" style="stroke:#000000;stroke-width:0.8;"/>
      </defs>
      <g>
       <use style="stroke:#000000;stroke-width:0.8;" x="54" xlink:href="#m8bc0a96d50" y="248.30141"/>
      </g>
     </g>
     <g id="text_7">
      <!-- $\mathdefault{10^{-4}}$ -->
      <defs>
       <path d="M 37.796875 64.3125 
L 12.890625 25.390625 
L 37.796875 25.390625 
z
M 35.203125 72.90625 
L 47.609375 72.90625 
L 47.609375 25.390625 
L 58.015625 25.390625 
L 58.015625 17.1875 
L 47.609375 17.1875 
L 47.609375 0 
L 37.796875 0 
L 37.796875 17.1875 
L 4.890625 17.1875 
L 4.890625 26.703125 
z
" id="DejaVuSans-52"/>
      </defs>
      <g transform="translate(18.8 252.860473)scale(0.12 -0.12)">
       <use transform="translate(0 0.684375)" xlink:href="#DejaVuSans-49"/>
       <use transform="translate(63.623047 0.684375)" xlink:href="#DejaVuSans-48"/>
       <use transform="translate(128.203125 38.965625)scale(0.7)" xlink:href="#DejaVuSans-8722"/>
       <use transform="translate(186.855469 38.965625)scale(0.7)" xlink:href="#DejaVuSans-52"/>
      </g>
     </g>
    </g>
    <g id="ytick_2">
     <g id="line2d_7">
      <g>
       <use style="stroke:#000000;stroke-width:0.8;" x="54" xlink:href="#m8bc0a96d50" y="212.238783"/>
      </g>
     </g>
     <g id="text_8">
      <!-- $\mathdefault{10^{-3}}$ -->
      <g transform="translate(18.8 216.797845)scale(0.12 -0.12)">
       <use transform="translate(0 0.765625)" xlink:href="#DejaVuSans-49"/>
       <use transform="translate(63.623047 0.765625)" xlink:href="#DejaVuSans-48"/>
       <use transform="translate(128.203125 39.046875)scale(0.7)" xlink:href="#DejaVuSans-8722"/>
       <use transform="translate(186.855469 39.046875)scale(0.7)" xlink:href="#DejaVuSans-51"/>
      </g>
     </g>
    </g>
    <g id="ytick_3">
     <g id="line2d_8">
      <g>
       <use style="stroke:#000000;stroke-width:0.8;" x="54" xlink:href="#m8bc0a96d50" y="176.176155"/>
      </g>
     </g>
     <g id="text_9">
      <!-- $\mathdefault{10^{-2}}$ -->
      <defs>
       <path d="M 19.1875 8.296875 
L 53.609375 8.296875 
L 53.609375 0 
L 7.328125 0 
L 7.328125 8.296875 
Q 12.9375 14.109375 22.625 23.890625 
Q 32.328125 33.6875 34.8125 36.53125 
Q 39.546875 41.84375 41.421875 45.53125 
Q 43.3125 49.21875 43.3125 52.78125 
Q 43.3125 58.59375 39.234375 62.25 
Q 35.15625 65.921875 28.609375 65.921875 
Q 23.96875 65.921875 18.8125 64.3125 
Q 13.671875 62.703125 7.8125 59.421875 
L 7.8125 69.390625 
Q 13.765625 71.78125 18.9375 73 
Q 24.125 74.21875 28.421875 74.21875 
Q 39.75 74.21875 46.484375 68.546875 
Q 53.21875 62.890625 53.21875 53.421875 
Q 53.21875 48.921875 51.53125 44.890625 
Q 49.859375 40.875 45.40625 35.40625 
Q 44.1875 33.984375 37.640625 27.21875 
Q 31.109375 20.453125 19.1875 8.296875 
z
" id="DejaVuSans-50"/>
      </defs>
      <g transform="translate(18.8 180.735218)scale(0.12 -0.12)">
       <use transform="translate(0 0.765625)" xlink:href="#DejaVuSans-49"/>
       <use transform="translate(63.623047 0.765625)" xlink:href="#DejaVuSans-48"/>
       <use transform="translate(128.203125 39.046875)scale(0.7)" xlink:href="#DejaVuSans-8722"/>
       <use transform="translate(186.855469 39.046875)scale(0.7)" xlink:href="#DejaVuSans-50"/>
      </g>
     </g>
    </g>
    <g id="ytick_4">
     <g id="line2d_9">
      <g>
       <use style="stroke:#000000;stroke-width:0.8;" x="54" xlink:href="#m8bc0a96d50" y="140.113528"/>
      </g>
     </g>
     <g id="text_10">
      <!-- $\mathdefault{10^{-1}}$ -->
      <g transform="translate(18.8 144.67259)scale(0.12 -0.12)">
       <use transform="translate(0 0.684375)" xlink:href="#DejaVuSans-49"/>
       <use transform="translate(63.623047 0.684375)" xlink:href="#DejaVuSans-48"/>
       <use transform="translate(128.203125 38.965625)scale(0.7)" xlink:href="#DejaVuSans-8722"/>
       <use transform="translate(186.855469 38.965625)scale(0.7)" xlink:href="#DejaVuSans-49"/>
      </g>
     </g>
    </g>
    <g id="ytick_5">
     <g id="line2d_10">
      <g>
       <use style="stroke:#000000;stroke-width:0.8;" x="54" xlink:href="#m8bc0a96d50" y="104.0509"/>
      </g>
     </g>
     <g id="text_11">
      <!-- $\mathdefault{10^{0}}$ -->
      <g transform="translate(25.88 108.609963)scale(0.12 -0.12)">
       <use transform="translate(0 0.765625)" xlink:href="#DejaVuSans-49"/>
       <use transform="translate(63.623047 0.765625)" xlink:href="#DejaVuSans-48"/>
       <use transform="translate(128.203125 39.046875)scale(0.7)" xlink:href="#DejaVuSans-48"/>
      </g>
     </g>
    </g>
    <g id="ytick_6">
     <g id="line2d_11">
      <g>
       <use style="stroke:#000000;stroke-width:0.8;" x="54" xlink:href="#m8bc0a96d50" y="67.988273"/>
      </g>
     </g>
     <g id="text_12">
      <!-- $\mathdefault{10^{1}}$ -->
      <g transform="translate(25.88 72.547335)scale(0.12 -0.12)">
       <use transform="translate(0 0.684375)" xlink:href="#DejaVuSans-49"/>
       <use transform="translate(63.623047 0.684375)" xlink:href="#DejaVuSans-48"/>
       <use transform="translate(128.203125 38.965625)scale(0.7)" xlink:href="#DejaVuSans-49"/>
      </g>
     </g>
    </g>
    <g id="ytick_7">
     <g id="line2d_12">
      <defs>
       <path d="M 0 0 
L -2 0 
" id="m4d9c6ea8ed" style="stroke:#000000;stroke-width:0.6;"/>
      </defs>
      <g>
       <use style="stroke:#000000;stroke-width:0.6;" x="54" xlink:href="#m4d9c6ea8ed" y="251.79624"/>
      </g>
     </g>
    </g>
    <g id="ytick_8">
     <g id="line2d_13">
      <g>
       <use style="stroke:#000000;stroke-width:0.6;" x="54" xlink:href="#m4d9c6ea8ed" y="249.951545"/>
      </g>
     </g>
    </g>
    <g id="ytick_9">
     <g id="line2d_14">
      <g>
       <use style="stroke:#000000;stroke-width:0.6;" x="54" xlink:href="#m4d9c6ea8ed" y="237.445478"/>
      </g>
     </g>
    </g>
    <g id="ytick_10">
     <g id="line2d_15">
      <g>
       <use style="stroke:#000000;stroke-width:0.6;" x="54" xlink:href="#m4d9c6ea8ed" y="231.095164"/>
      </g>
     </g>
    </g>
    <g id="ytick_11">
     <g id="line2d_16">
      <g>
       <use style="stroke:#000000;stroke-width:0.6;" x="54" xlink:href="#m4d9c6ea8ed" y="226.589545"/>
      </g>
     </g>
    </g>
    <g id="ytick_12">
     <g id="line2d_17">
      <g>
       <use style="stroke:#000000;stroke-width:0.6;" x="54" xlink:href="#m4d9c6ea8ed" y="223.094715"/>
      </g>
     </g>
    </g>
    <g id="ytick_13">
     <g id="line2d_18">
      <g>
       <use style="stroke:#000000;stroke-width:0.6;" x="54" xlink:href="#m4d9c6ea8ed" y="220.239231"/>
      </g>
     </g>
    </g>
    <g id="ytick_14">
     <g id="line2d_19">
      <g>
       <use style="stroke:#000000;stroke-width:0.6;" x="54" xlink:href="#m4d9c6ea8ed" y="217.824954"/>
      </g>
     </g>
    </g>
    <g id="ytick_15">
     <g id="line2d_20">
      <g>
       <use style="stroke:#000000;stroke-width:0.6;" x="54" xlink:href="#m4d9c6ea8ed" y="215.733612"/>
      </g>
     </g>
    </g>
    <g id="ytick_16">
     <g id="line2d_21">
      <g>
       <use style="stroke:#000000;stroke-width:0.6;" x="54" xlink:href="#m4d9c6ea8ed" y="213.888918"/>
      </g>
     </g>
    </g>
    <g id="ytick_17">
     <g id="line2d_22">
      <g>
       <use style="stroke:#000000;stroke-width:0.6;" x="54" xlink:href="#m4d9c6ea8ed" y="201.38285"/>
      </g>
     </g>
    </g>
    <g id="ytick_18">
     <g id="line2d_23">
      <g>
       <use style="stroke:#000000;stroke-width:0.6;" x="54" xlink:href="#m4d9c6ea8ed" y="195.032537"/>
      </g>
     </g>
    </g>
    <g id="ytick_19">
     <g id="line2d_24">
      <g>
       <use style="stroke:#000000;stroke-width:0.6;" x="54" xlink:href="#m4d9c6ea8ed" y="190.526917"/>
      </g>
     </g>
    </g>
    <g id="ytick_20">
     <g id="line2d_25">
      <g>
       <use style="stroke:#000000;stroke-width:0.6;" x="54" xlink:href="#m4d9c6ea8ed" y="187.032088"/>
      </g>
     </g>
    </g>
    <g id="ytick_21">
     <g id="line2d_26">
      <g>
       <use style="stroke:#000000;stroke-width:0.6;" x="54" xlink:href="#m4d9c6ea8ed" y="184.176604"/>
      </g>
     </g>
    </g>
    <g id="ytick_22">
     <g id="line2d_27">
      <g>
       <use style="stroke:#000000;stroke-width:0.6;" x="54" xlink:href="#m4d9c6ea8ed" y="181.762327"/>
      </g>
     </g>
    </g>
    <g id="ytick_23">
     <g id="line2d_28">
      <g>
       <use style="stroke:#000000;stroke-width:0.6;" x="54" xlink:href="#m4d9c6ea8ed" y="179.670985"/>
      </g>
     </g>
    </g>
    <g id="ytick_24">
     <g id="line2d_29">
      <g>
       <use style="stroke:#000000;stroke-width:0.6;" x="54" xlink:href="#m4d9c6ea8ed" y="177.826291"/>
      </g>
     </g>
    </g>
    <g id="ytick_25">
     <g id="line2d_30">
      <g>
       <use style="stroke:#000000;stroke-width:0.6;" x="54" xlink:href="#m4d9c6ea8ed" y="165.320223"/>
      </g>
     </g>
    </g>
    <g id="ytick_26">
     <g id="line2d_31">
      <g>
       <use style="stroke:#000000;stroke-width:0.6;" x="54" xlink:href="#m4d9c6ea8ed" y="158.969909"/>
      </g>
     </g>
    </g>
    <g id="ytick_27">
     <g id="line2d_32">
      <g>
       <use style="stroke:#000000;stroke-width:0.6;" x="54" xlink:href="#m4d9c6ea8ed" y="154.46429"/>
      </g>
     </g>
    </g>
    <g id="ytick_28">
     <g id="line2d_33">
      <g>
       <use style="stroke:#000000;stroke-width:0.6;" x="54" xlink:href="#m4d9c6ea8ed" y="150.96946"/>
      </g>
     </g>
    </g>
    <g id="ytick_29">
     <g id="line2d_34">
      <g>
       <use style="stroke:#000000;stroke-width:0.6;" x="54" xlink:href="#m4d9c6ea8ed" y="148.113977"/>
      </g>
     </g>
    </g>
    <g id="ytick_30">
     <g id="line2d_35">
      <g>
       <use style="stroke:#000000;stroke-width:0.6;" x="54" xlink:href="#m4d9c6ea8ed" y="145.699699"/>
      </g>
     </g>
    </g>
    <g id="ytick_31">
     <g id="line2d_36">
      <g>
       <use style="stroke:#000000;stroke-width:0.6;" x="54" xlink:href="#m4d9c6ea8ed" y="143.608357"/>
      </g>
     </g>
    </g>
    <g id="ytick_32">
     <g id="line2d_37">
      <g>
       <use style="stroke:#000000;stroke-width:0.6;" x="54" xlink:href="#m4d9c6ea8ed" y="141.763663"/>
      </g>
     </g>
    </g>
    <g id="ytick_33">
     <g id="line2d_38">
      <g>
       <use style="stroke:#000000;stroke-width:0.6;" x="54" xlink:href="#m4d9c6ea8ed" y="129.257595"/>
      </g>
     </g>
    </g>
    <g id="ytick_34">
     <g id="line2d_39">
      <g>
       <use style="stroke:#000000;stroke-width:0.6;" x="54" xlink:href="#m4d9c6ea8ed" y="122.907282"/>
      </g>
     </g>
    </g>
    <g id="ytick_35">
     <g id="line2d_40">
      <g>
       <use style="stroke:#000000;stroke-width:0.6;" x="54" xlink:href="#m4d9c6ea8ed" y="118.401663"/>
      </g>
     </g>
    </g>
    <g id="ytick_36">
     <g id="line2d_41">
      <g>
       <use style="stroke:#000000;stroke-width:0.6;" x="54" xlink:href="#m4d9c6ea8ed" y="114.906833"/>
      </g>
     </g>
    </g>
    <g id="ytick_37">
     <g id="line2d_42">
      <g>
       <use style="stroke:#000000;stroke-width:0.6;" x="54" xlink:href="#m4d9c6ea8ed" y="112.051349"/>
      </g>
     </g>
    </g>
    <g id="ytick_38">
     <g id="line2d_43">
      <g>
       <use style="stroke:#000000;stroke-width:0.6;" x="54" xlink:href="#m4d9c6ea8ed" y="109.637072"/>
      </g>
     </g>
    </g>
    <g id="ytick_39">
     <g id="line2d_44">
      <g>
       <use style="stroke:#000000;stroke-width:0.6;" x="54" xlink:href="#m4d9c6ea8ed" y="107.54573"/>
      </g>
     </g>
    </g>
    <g id="ytick_40">
     <g id="line2d_45">
      <g>
       <use style="stroke:#000000;stroke-width:0.6;" x="54" xlink:href="#m4d9c6ea8ed" y="105.701036"/>
      </g>
     </g>
    </g>
    <g id="ytick_41">
     <g id="line2d_46">
      <g>
       <use style="stroke:#000000;stroke-width:0.6;" x="54" xlink:href="#m4d9c6ea8ed" y="93.194968"/>
      </g>
     </g>
    </g>
    <g id="ytick_42">
     <g id="line2d_47">
      <g>
       <use style="stroke:#000000;stroke-width:0.6;" x="54" xlink:href="#m4d9c6ea8ed" y="86.844654"/>
      </g>
     </g>
    </g>
    <g id="ytick_43">
     <g id="line2d_48">
      <g>
       <use style="stroke:#000000;stroke-width:0.6;" x="54" xlink:href="#m4d9c6ea8ed" y="82.339035"/>
      </g>
     </g>
    </g>
    <g id="ytick_44">
     <g id="line2d_49">
      <g>
       <use style="stroke:#000000;stroke-width:0.6;" x="54" xlink:href="#m4d9c6ea8ed" y="78.844205"/>
      </g>
     </g>
    </g>
    <g id="ytick_45">
     <g id="line2d_50">
      <g>
       <use style="stroke:#000000;stroke-width:0.6;" x="54" xlink:href="#m4d9c6ea8ed" y="75.988722"/>
      </g>
     </g>
    </g>
    <g id="ytick_46">
     <g id="line2d_51">
      <g>
       <use style="stroke:#000000;stroke-width:0.6;" x="54" xlink:href="#m4d9c6ea8ed" y="73.574444"/>
      </g>
     </g>
    </g>
    <g id="ytick_47">
     <g id="line2d_52">
      <g>
       <use style="stroke:#000000;stroke-width:0.6;" x="54" xlink:href="#m4d9c6ea8ed" y="71.483102"/>
      </g>
     </g>
    </g>
    <g id="ytick_48">
     <g id="line2d_53">
      <g>
       <use style="stroke:#000000;stroke-width:0.6;" x="54" xlink:href="#m4d9c6ea8ed" y="69.638408"/>
      </g>
     </g>
    </g>
    <g id="ytick_49">
     <g id="line2d_54">
      <g>
       <use style="stroke:#000000;stroke-width:0.6;" x="54" xlink:href="#m4d9c6ea8ed" y="57.13234"/>
      </g>
     </g>
    </g>
    <g id="ytick_50">
     <g id="line2d_55">
      <g>
       <use style="stroke:#000000;stroke-width:0.6;" x="54" xlink:href="#m4d9c6ea8ed" y="50.782027"/>
      </g>
     </g>
    </g>
    <g id="ytick_51">
     <g id="line2d_56">
      <g>
       <use style="stroke:#000000;stroke-width:0.6;" x="54" xlink:href="#m4d9c6ea8ed" y="46.276408"/>
      </g>
     </g>
    </g>
    <g id="ytick_52">
     <g id="line2d_57">
      <g>
       <use style="stroke:#000000;stroke-width:0.6;" x="54" xlink:href="#m4d9c6ea8ed" y="42.781578"/>
      </g>
     </g>
    </g>
    <g id="ytick_53">
     <g id="line2d_58">
      <g>
       <use style="stroke:#000000;stroke-width:0.6;" x="54" xlink:href="#m4d9c6ea8ed" y="39.926094"/>
      </g>
     </g>
    </g>
    <g id="ytick_54">
     <g id="line2d_59">
      <g>
       <use style="stroke:#000000;stroke-width:0.6;" x="54" xlink:href="#m4d9c6ea8ed" y="37.511817"/>
      </g>
     </g>
    </g>
    <g id="ytick_55">
     <g id="line2d_60">
      <g>
       <use style="stroke:#000000;stroke-width:0.6;" x="54" xlink:href="#m4d9c6ea8ed" y="35.420475"/>
      </g>
     </g>
    </g>
    <g id="text_13">
     <!-- GCV($\lambda$) -->
     <defs>
      <path d="M 59.515625 10.40625 
L 59.515625 29.984375 
L 43.40625 29.984375 
L 43.40625 38.09375 
L 69.28125 38.09375 
L 69.28125 6.78125 
Q 63.578125 2.734375 56.6875 0.65625 
Q 49.8125 -1.421875 42 -1.421875 
Q 24.90625 -1.421875 15.25 8.5625 
Q 5.609375 18.5625 5.609375 36.375 
Q 5.609375 54.25 15.25 64.234375 
Q 24.90625 74.21875 42 74.21875 
Q 49.125 74.21875 55.546875 72.453125 
Q 61.96875 70.703125 67.390625 67.28125 
L 67.390625 56.78125 
Q 61.921875 61.421875 55.765625 63.765625 
Q 49.609375 66.109375 42.828125 66.109375 
Q 29.4375 66.109375 22.71875 58.640625 
Q 16.015625 51.171875 16.015625 36.375 
Q 16.015625 21.625 22.71875 14.15625 
Q 29.4375 6.6875 42.828125 6.6875 
Q 48.046875 6.6875 52.140625 7.59375 
Q 56.25 8.5 59.515625 10.40625 
z
" id="DejaVuSans-71"/>
      <path d="M 64.40625 67.28125 
L 64.40625 56.890625 
Q 59.421875 61.53125 53.78125 63.8125 
Q 48.140625 66.109375 41.796875 66.109375 
Q 29.296875 66.109375 22.65625 58.46875 
Q 16.015625 50.828125 16.015625 36.375 
Q 16.015625 21.96875 22.65625 14.328125 
Q 29.296875 6.6875 41.796875 6.6875 
Q 48.140625 6.6875 53.78125 8.984375 
Q 59.421875 11.28125 64.40625 15.921875 
L 64.40625 5.609375 
Q 59.234375 2.09375 53.4375 0.328125 
Q 47.65625 -1.421875 41.21875 -1.421875 
Q 24.65625 -1.421875 15.125 8.703125 
Q 5.609375 18.84375 5.609375 36.375 
Q 5.609375 53.953125 15.125 64.078125 
Q 24.65625 74.21875 41.21875 74.21875 
Q 47.75 74.21875 53.53125 72.484375 
Q 59.328125 70.75 64.40625 67.28125 
z
" id="DejaVuSans-67"/>
      <path d="M 28.609375 0 
L 0.78125 72.90625 
L 11.078125 72.90625 
L 34.1875 11.53125 
L 57.328125 72.90625 
L 67.578125 72.90625 
L 39.796875 0 
z
" id="DejaVuSans-86"/>
      <path d="M 31 75.875 
Q 24.46875 64.65625 21.28125 53.65625 
Q 18.109375 42.671875 18.109375 31.390625 
Q 18.109375 20.125 21.3125 9.0625 
Q 24.515625 -2 31 -13.1875 
L 23.1875 -13.1875 
Q 15.875 -1.703125 12.234375 9.375 
Q 8.59375 20.453125 8.59375 31.390625 
Q 8.59375 42.28125 12.203125 53.3125 
Q 15.828125 64.359375 23.1875 75.875 
z
" id="DejaVuSans-40"/>
      <path d="M 8.015625 75.875 
L 15.828125 75.875 
Q 23.140625 64.359375 26.78125 53.3125 
Q 30.421875 42.28125 30.421875 31.390625 
Q 30.421875 20.453125 26.78125 9.375 
Q 23.140625 -1.703125 15.828125 -13.1875 
L 8.015625 -13.1875 
Q 14.5 -2 17.703125 9.0625 
Q 20.90625 20.125 20.90625 31.390625 
Q 20.90625 42.671875 17.703125 53.65625 
Q 14.5 64.65625 8.015625 75.875 
z
" id="DejaVuSans-41"/>
     </defs>
     <g transform="translate(12.304375 164.46)rotate(-90)scale(0.12 -0.12)">
      <use transform="translate(0 0.015625)" xlink:href="#DejaVuSans-71"/>
      <use transform="translate(77.490234 0.015625)" xlink:href="#DejaVuSans-67"/>
      <use transform="translate(147.314453 0.015625)" xlink:href="#DejaVuSans-86"/>
      <use transform="translate(215.722656 0.015625)" xlink:href="#DejaVuSans-40"/>
      <use transform="translate(254.736328 0.015625)" xlink:href="#DejaVuSans-Oblique-955"/>
      <use transform="translate(313.916016 0.015625)" xlink:href="#DejaVuSans-41"/>
     </g>
    </g>
   </g>
   <g id="line2d_61">
    <path clip-path="url(#p003449c3cd)" d="M 69.218182 237.66711 
L 72.292562 237.667205 
L 75.366942 237.667324 
L 78.441322 237.667474 
L 81.515702 237.667663 
L 84.590083 237.667902 
L 87.664463 237.668204 
L 90.738843 237.668583 
L 93.813223 237.669062 
L 96.887603 237.669665 
L 99.961983 237.670424 
L 103.036364 237.67138 
L 106.110744 237.672581 
L 109.185124 237.674091 
L 112.259504 237.675986 
L 115.333884 237.678361 
L 118.408264 237.681334 
L 121.482645 237.685044 
L 124.557025 237.689664 
L 127.631405 237.695397 
L 130.705785 237.702478 
L 133.780165 237.71118 
L 136.854545 237.721801 
L 139.928926 237.734656 
L 143.003306 237.750054 
L 146.077686 237.768268 
L 149.152066 237.789481 
L 152.226446 237.813735 
L 155.300826 237.84087 
L 158.375207 237.870486 
L 161.449587 237.901962 
L 164.523967 237.934561 
L 167.598347 237.967668 
L 170.672727 238.001138 
L 173.747107 238.035672 
L 176.821488 238.073069 
L 179.895868 238.116111 
L 182.970248 238.167913 
L 186.044628 238.230659 
L 189.119008 238.303854 
L 192.193388 238.382367 
L 195.267769 238.454596 
L 198.342149 238.501077 
L 201.416529 238.493803 
L 204.490909 238.396442 
L 207.565289 238.165669 
L 210.639669 237.753704 
L 213.71405 237.112025 
L 216.78843 236.195812 
L 219.86281 234.968285 
L 222.93719 233.403829 
L 226.01157 231.489102 
L 229.08595 229.222086 
L 232.160331 226.609888 
L 235.234711 223.666434 
L 238.309091 220.41079 
L 241.383471 216.866211 
L 244.457851 213.059399 
L 247.532231 209.01948 
L 250.606612 204.776477 
L 253.680992 200.359508 
L 256.755372 195.795173 
L 259.829752 191.106576 
L 262.904132 186.313206 
L 265.978512 181.431658 
L 269.052893 176.476932 
L 272.127273 171.463965 
L 275.201653 166.409081 
L 278.276033 161.331094 
L 281.350413 156.251907 
L 284.424793 151.196551 
L 287.499174 146.192646 
L 290.573554 141.269433 
L 293.647934 136.456571 
L 296.722314 131.78288 
L 299.796694 127.275108 
L 302.871074 122.956632 
L 305.945455 118.84596 
L 309.019835 114.955055 
L 312.094215 111.287782 
L 315.168595 107.839045 
L 318.242975 104.595169 
L 321.317355 101.535809 
L 324.391736 98.637116 
L 327.466116 95.875419 
L 330.540496 93.230375 
L 333.614876 90.686743 
L 336.689256 88.234478 
L 339.763636 85.867518 
L 342.838017 83.582142 
L 345.912397 81.375826 
L 348.986777 79.247112 
L 352.061157 77.19638 
L 355.135537 75.226934 
L 358.209917 73.345619 
L 361.284298 71.562522 
L 364.358678 69.889716 
L 367.433058 68.339379 
L 370.507438 66.921788 
L 373.581818 65.643629 
" style="fill:none;stroke:#1f77b4;stroke-dasharray:7.5,2.5;stroke-dashoffset:0;stroke-width:2.5;"/>
   </g>
   <g id="line2d_62">
    <defs>
     <path d="M -6 6 
L 6 -6 
M -6 -6 
L 6 6 
" id="m897ce3c8e4" style="stroke:#000000;"/>
    </defs>
    <g clip-path="url(#p003449c3cd)">
     <use style="stroke:#000000;" x="189.119008" xlink:href="#m897ce3c8e4" y="238.303854"/>
    </g>
   </g>
   <g id="line2d_63">
    <defs>
     <path d="M -3 3 
L 3 3 
L 3 -3 
L -3 -3 
z
" id="mc19d0424ae" style="stroke:#0000ff;stroke-linejoin:miter;"/>
    </defs>
    <g clip-path="url(#p003449c3cd)">
     <use style="fill:#0000ff;stroke:#0000ff;stroke-linejoin:miter;" x="198.342149" xlink:href="#mc19d0424ae" y="238.501077"/>
    </g>
   </g>
   <g id="line2d_64">
    <defs>
     <path d="M 0 3 
C 0.795609 3 1.55874 2.683901 2.12132 2.12132 
C 2.683901 1.55874 3 0.795609 3 0 
C 3 -0.795609 2.683901 -1.55874 2.12132 -2.12132 
C 1.55874 -2.683901 0.795609 -3 0 -3 
C -0.795609 -3 -1.55874 -2.683901 -2.12132 -2.12132 
C -2.683901 -1.55874 -3 -0.795609 -3 0 
C -3 0.795609 -2.683901 1.55874 -2.12132 2.12132 
C -1.55874 2.683901 -0.795609 3 0 3 
z
" id="m0e9868f603" style="stroke:#ff0000;"/>
    </defs>
    <g clip-path="url(#p003449c3cd)">
     <use style="fill:#ff0000;stroke:#ff0000;" x="185.467061" xlink:href="#m0e9868f603" y="238.218008"/>
    </g>
   </g>
   <g id="line2d_65">
    <path clip-path="url(#p003449c3cd)" d="M 69.218182 241.216338 
L 72.292562 241.216433 
L 75.366942 241.216552 
L 78.441322 241.216702 
L 81.515702 241.216892 
L 84.590083 241.217132 
L 87.664463 241.217434 
L 90.738843 241.217815 
L 93.813223 241.218295 
L 96.887603 241.218901 
L 99.961983 241.219666 
L 103.036364 241.22063 
L 106.110744 241.221844 
L 109.185124 241.223375 
L 112.259504 241.225303 
L 115.333884 241.22773 
L 118.408264 241.230785 
L 121.482645 241.234626 
L 124.557025 241.239451 
L 127.631405 241.245506 
L 130.705785 241.253093 
L 133.780165 241.262582 
L 136.854545 241.274423 
L 139.928926 241.289156 
L 143.003306 241.307423 
L 146.077686 241.329969 
L 149.152066 241.357641 
L 152.226446 241.391367 
L 155.300826 241.432113 
L 158.375207 241.480804 
L 161.449587 241.5382 
L 164.523967 241.604698 
L 167.598347 241.680066 
L 170.672727 241.763079 
L 173.747107 241.851062 
L 176.821488 241.939349 
L 179.895868 242.020672 
L 182.970248 242.084503 
L 186.044628 242.116364 
L 189.119008 242.097079 
L 192.193388 242.001939 
L 195.267769 241.799698 
L 198.342149 241.451457 
L 201.416529 240.909611 
L 204.490909 240.117371 
L 207.565289 239.009741 
L 210.639669 237.517049 
L 213.71405 235.571891 
L 216.78843 233.119091 
L 219.86281 230.126325 
L 222.93719 226.591576 
L 226.01157 222.544206 
L 229.08595 218.039331 
L 232.160331 213.148203 
L 235.234711 207.948394 
L 238.309091 202.51639 
L 241.383471 196.923323 
L 244.457851 191.233223 
L 247.532231 185.502808 
L 250.606612 179.781948 
L 253.680992 174.114259 
L 256.755372 168.537587 
L 259.829752 163.084268 
L 262.904132 157.78117 
L 265.978512 152.649546 
L 269.052893 147.704772 
L 272.127273 142.956016 
L 275.201653 138.405935 
L 278.276033 134.05047 
L 281.350413 129.878854 
L 284.424793 125.873936 
L 287.499174 122.013005 
L 290.573554 118.269301 
L 293.647934 114.614458 
L 296.722314 111.021953 
L 299.796694 107.471213 
L 302.871074 103.951426 
L 305.945455 100.463683 
L 309.019835 97.02031 
L 312.094215 93.641288 
L 315.168595 90.348857 
L 318.242975 87.162205 
L 321.317355 84.093975 
L 324.391736 81.14953 
L 327.466116 78.328797 
L 330.540496 75.629655 
L 333.614876 73.05136 
L 336.689256 70.596697 
L 339.763636 68.272198 
L 342.838017 66.086638 
L 345.912397 64.048642 
L 348.986777 62.16442 
L 352.061157 60.43633 
L 355.135537 58.862504 
L 358.209917 57.437377 
L 361.284298 56.152735 
L 364.358678 54.9989 
L 367.433058 53.965758 
L 370.507438 53.043471 
L 373.581818 52.222862 
" style="fill:none;stroke:#ff7f0e;stroke-dasharray:2500,2.5;stroke-dashoffset:0;stroke-width:2.5;"/>
   </g>
   <g id="line2d_66">
    <g clip-path="url(#p003449c3cd)">
     <use style="stroke:#000000;" x="192.193388" xlink:href="#m897ce3c8e4" y="242.001939"/>
    </g>
   </g>
   <g id="line2d_67">
    <g clip-path="url(#p003449c3cd)">
     <use style="fill:#0000ff;stroke:#0000ff;stroke-linejoin:miter;" x="186.044628" xlink:href="#mc19d0424ae" y="242.116364"/>
    </g>
   </g>
   <g id="line2d_68">
    <g clip-path="url(#p003449c3cd)">
     <use style="fill:#ff0000;stroke:#ff0000;" x="136.139481" xlink:href="#m0e9868f603" y="241.271432"/>
    </g>
   </g>
   <g id="line2d_69">
    <path clip-path="url(#p003449c3cd)" d="M 69.218182 239.172502 
L 72.292562 239.172596 
L 75.366942 239.172715 
L 78.441322 239.172866 
L 81.515702 239.173055 
L 84.590083 239.173295 
L 87.664463 239.173597 
L 90.738843 239.173977 
L 93.813223 239.174457 
L 96.887603 239.175062 
L 99.961983 239.175825 
L 103.036364 239.176785 
L 106.110744 239.177995 
L 109.185124 239.179519 
L 112.259504 239.181435 
L 115.333884 239.183844 
L 118.408264 239.18687 
L 121.482645 239.190665 
L 124.557025 239.195418 
L 127.631405 239.20136 
L 130.705785 239.20877 
L 133.780165 239.217985 
L 136.854545 239.229403 
L 139.928926 239.24349 
L 143.003306 239.26078 
L 146.077686 239.281866 
L 149.152066 239.307396 
L 152.226446 239.338046 
L 155.300826 239.374494 
L 158.375207 239.417396 
L 161.449587 239.467358 
L 164.523967 239.524938 
L 167.598347 239.590654 
L 170.672727 239.66501 
L 173.747107 239.748458 
L 176.821488 239.841236 
L 179.895868 239.942934 
L 182.970248 240.051686 
L 186.044628 240.16295 
L 189.119008 240.267897 
L 192.193388 240.35156 
L 195.267769 240.390898 
L 198.342149 240.352978 
L 201.416529 240.193445 
L 204.490909 239.855566 
L 207.565289 239.270379 
L 210.639669 238.358866 
L 213.71405 237.037341 
L 216.78843 235.226832 
L 219.86281 232.865602 
L 222.93719 229.921553 
L 226.01157 226.399659 
L 229.08595 222.340961 
L 232.160331 217.813532 
L 235.234711 212.899468 
L 238.309091 207.682651 
L 241.383471 202.240183 
L 244.457851 196.637996 
L 247.532231 190.929706 
L 250.606612 185.157454 
L 253.680992 179.353771 
L 256.755372 173.543861 
L 259.829752 167.747983 
L 262.904132 161.983731 
L 265.978512 156.268023 
L 269.052893 150.618612 
L 272.127273 145.054951 
L 275.201653 139.598316 
L 278.276033 134.271233 
L 281.350413 129.096362 
L 284.424793 124.095122 
L 287.499174 119.286301 
L 290.573554 114.684926 
L 293.647934 110.301505 
L 296.722314 106.14171 
L 299.796694 102.206493 
L 302.871074 98.492607 
L 305.945455 94.993455 
L 309.019835 91.700058 
L 312.094215 88.601821 
L 315.168595 85.686718 
L 318.242975 82.940706 
L 321.317355 80.346569 
L 324.391736 77.88283 
L 327.466116 75.523544 
L 330.540496 73.239632 
L 333.614876 71.001862 
L 336.689256 68.784829 
L 339.763636 66.5707 
L 342.838017 64.35142 
L 345.912397 62.128682 
L 348.986777 59.911972 
L 352.061157 57.715793 
L 355.135537 55.557289 
L 358.209917 53.454889 
L 361.284298 51.427775 
L 364.358678 49.495463 
L 367.433058 47.676861 
L 370.507438 45.988687 
L 373.581818 44.443636 
" style="fill:none;stroke:#2ca02c;stroke-dasharray:5,2.5,25,2.5;stroke-dashoffset:0;stroke-width:2.5;"/>
   </g>
   <g id="line2d_70">
    <g clip-path="url(#p003449c3cd)">
     <use style="stroke:#000000;" x="198.342149" xlink:href="#m897ce3c8e4" y="240.352978"/>
    </g>
   </g>
   <g id="line2d_71">
    <g clip-path="url(#p003449c3cd)">
     <use style="fill:#0000ff;stroke:#0000ff;stroke-linejoin:miter;" x="195.267769" xlink:href="#mc19d0424ae" y="240.390898"/>
    </g>
   </g>
   <g id="line2d_72">
    <g clip-path="url(#p003449c3cd)">
     <use style="fill:#ff0000;stroke:#ff0000;" x="141.036134" xlink:href="#m0e9868f603" y="239.249318"/>
    </g>
   </g>
   <g id="patch_3">
    <path d="M 54 252 
L 54 34.56 
" style="fill:none;stroke:#000000;stroke-linecap:square;stroke-linejoin:miter;stroke-width:0.8;"/>
   </g>
   <g id="patch_4">
    <path d="M 388.8 252 
L 388.8 34.56 
" style="fill:none;stroke:#000000;stroke-linecap:square;stroke-linejoin:miter;stroke-width:0.8;"/>
   </g>
   <g id="patch_5">
    <path d="M 54 252 
L 388.8 252 
" style="fill:none;stroke:#000000;stroke-linecap:square;stroke-linejoin:miter;stroke-width:0.8;"/>
   </g>
   <g id="patch_6">
    <path d="M 54 34.56 
L 388.8 34.56 
" style="fill:none;stroke:#000000;stroke-linecap:square;stroke-linejoin:miter;stroke-width:0.8;"/>
   </g>
   <g id="text_14">
    <!-- GCV function for ssplines ($\sigma = 0.01$) -->
    <defs>
     <path id="DejaVuSans-32"/>
     <path d="M 37.109375 75.984375 
L 37.109375 68.5 
L 28.515625 68.5 
Q 23.6875 68.5 21.796875 66.546875 
Q 19.921875 64.59375 19.921875 59.515625 
L 19.921875 54.6875 
L 34.71875 54.6875 
L 34.71875 47.703125 
L 19.921875 47.703125 
L 19.921875 0 
L 10.890625 0 
L 10.890625 47.703125 
L 2.296875 47.703125 
L 2.296875 54.6875 
L 10.890625 54.6875 
L 10.890625 58.5 
Q 10.890625 67.625 15.140625 71.796875 
Q 19.390625 75.984375 28.609375 75.984375 
z
" id="DejaVuSans-102"/>
     <path d="M 8.5 21.578125 
L 8.5 54.6875 
L 17.484375 54.6875 
L 17.484375 21.921875 
Q 17.484375 14.15625 20.5 10.265625 
Q 23.53125 6.390625 29.59375 6.390625 
Q 36.859375 6.390625 41.078125 11.03125 
Q 45.3125 15.671875 45.3125 23.6875 
L 45.3125 54.6875 
L 54.296875 54.6875 
L 54.296875 0 
L 45.3125 0 
L 45.3125 8.40625 
Q 42.046875 3.421875 37.71875 1 
Q 33.40625 -1.421875 27.6875 -1.421875 
Q 18.265625 -1.421875 13.375 4.4375 
Q 8.5 10.296875 8.5 21.578125 
z
M 31.109375 56 
z
" id="DejaVuSans-117"/>
     <path d="M 54.890625 33.015625 
L 54.890625 0 
L 45.90625 0 
L 45.90625 32.71875 
Q 45.90625 40.484375 42.875 44.328125 
Q 39.84375 48.1875 33.796875 48.1875 
Q 26.515625 48.1875 22.3125 43.546875 
Q 18.109375 38.921875 18.109375 30.90625 
L 18.109375 0 
L 9.078125 0 
L 9.078125 54.6875 
L 18.109375 54.6875 
L 18.109375 46.1875 
Q 21.34375 51.125 25.703125 53.5625 
Q 30.078125 56 35.796875 56 
Q 45.21875 56 50.046875 50.171875 
Q 54.890625 44.34375 54.890625 33.015625 
z
" id="DejaVuSans-110"/>
     <path d="M 48.78125 52.59375 
L 48.78125 44.1875 
Q 44.96875 46.296875 41.140625 47.34375 
Q 37.3125 48.390625 33.40625 48.390625 
Q 24.65625 48.390625 19.8125 42.84375 
Q 14.984375 37.3125 14.984375 27.296875 
Q 14.984375 17.28125 19.8125 11.734375 
Q 24.65625 6.203125 33.40625 6.203125 
Q 37.3125 6.203125 41.140625 7.25 
Q 44.96875 8.296875 48.78125 10.40625 
L 48.78125 2.09375 
Q 45.015625 0.34375 40.984375 -0.53125 
Q 36.96875 -1.421875 32.421875 -1.421875 
Q 20.0625 -1.421875 12.78125 6.34375 
Q 5.515625 14.109375 5.515625 27.296875 
Q 5.515625 40.671875 12.859375 48.328125 
Q 20.21875 56 33.015625 56 
Q 37.15625 56 41.109375 55.140625 
Q 45.0625 54.296875 48.78125 52.59375 
z
" id="DejaVuSans-99"/>
     <path d="M 18.3125 70.21875 
L 18.3125 54.6875 
L 36.8125 54.6875 
L 36.8125 47.703125 
L 18.3125 47.703125 
L 18.3125 18.015625 
Q 18.3125 11.328125 20.140625 9.421875 
Q 21.96875 7.515625 27.59375 7.515625 
L 36.8125 7.515625 
L 36.8125 0 
L 27.59375 0 
Q 17.1875 0 13.234375 3.875 
Q 9.28125 7.765625 9.28125 18.015625 
L 9.28125 47.703125 
L 2.6875 47.703125 
L 2.6875 54.6875 
L 9.28125 54.6875 
L 9.28125 70.21875 
z
" id="DejaVuSans-116"/>
     <path d="M 9.421875 54.6875 
L 18.40625 54.6875 
L 18.40625 0 
L 9.421875 0 
z
M 9.421875 75.984375 
L 18.40625 75.984375 
L 18.40625 64.59375 
L 9.421875 64.59375 
z
" id="DejaVuSans-105"/>
     <path d="M 30.609375 48.390625 
Q 23.390625 48.390625 19.1875 42.75 
Q 14.984375 37.109375 14.984375 27.296875 
Q 14.984375 17.484375 19.15625 11.84375 
Q 23.34375 6.203125 30.609375 6.203125 
Q 37.796875 6.203125 41.984375 11.859375 
Q 46.1875 17.53125 46.1875 27.296875 
Q 46.1875 37.015625 41.984375 42.703125 
Q 37.796875 48.390625 30.609375 48.390625 
z
M 30.609375 56 
Q 42.328125 56 49.015625 48.375 
Q 55.71875 40.765625 55.71875 27.296875 
Q 55.71875 13.875 49.015625 6.21875 
Q 42.328125 -1.421875 30.609375 -1.421875 
Q 18.84375 -1.421875 12.171875 6.21875 
Q 5.515625 13.875 5.515625 27.296875 
Q 5.515625 40.765625 12.171875 48.375 
Q 18.84375 56 30.609375 56 
z
" id="DejaVuSans-111"/>
     <path d="M 41.109375 46.296875 
Q 39.59375 47.171875 37.8125 47.578125 
Q 36.03125 48 33.890625 48 
Q 26.265625 48 22.1875 43.046875 
Q 18.109375 38.09375 18.109375 28.8125 
L 18.109375 0 
L 9.078125 0 
L 9.078125 54.6875 
L 18.109375 54.6875 
L 18.109375 46.1875 
Q 20.953125 51.171875 25.484375 53.578125 
Q 30.03125 56 36.53125 56 
Q 37.453125 56 38.578125 55.875 
Q 39.703125 55.765625 41.0625 55.515625 
z
" id="DejaVuSans-114"/>
     <path d="M 44.28125 53.078125 
L 44.28125 44.578125 
Q 40.484375 46.53125 36.375 47.5 
Q 32.28125 48.484375 27.875 48.484375 
Q 21.1875 48.484375 17.84375 46.4375 
Q 14.5 44.390625 14.5 40.28125 
Q 14.5 37.15625 16.890625 35.375 
Q 19.28125 33.59375 26.515625 31.984375 
L 29.59375 31.296875 
Q 39.15625 29.25 43.1875 25.515625 
Q 47.21875 21.78125 47.21875 15.09375 
Q 47.21875 7.46875 41.1875 3.015625 
Q 35.15625 -1.421875 24.609375 -1.421875 
Q 20.21875 -1.421875 15.453125 -0.5625 
Q 10.6875 0.296875 5.421875 2 
L 5.421875 11.28125 
Q 10.40625 8.6875 15.234375 7.390625 
Q 20.0625 6.109375 24.8125 6.109375 
Q 31.15625 6.109375 34.5625 8.28125 
Q 37.984375 10.453125 37.984375 14.40625 
Q 37.984375 18.0625 35.515625 20.015625 
Q 33.0625 21.96875 24.703125 23.78125 
L 21.578125 24.515625 
Q 13.234375 26.265625 9.515625 29.90625 
Q 5.8125 33.546875 5.8125 39.890625 
Q 5.8125 47.609375 11.28125 51.796875 
Q 16.75 56 26.8125 56 
Q 31.78125 56 36.171875 55.265625 
Q 40.578125 54.546875 44.28125 53.078125 
z
" id="DejaVuSans-115"/>
     <path d="M 18.109375 8.203125 
L 18.109375 -20.796875 
L 9.078125 -20.796875 
L 9.078125 54.6875 
L 18.109375 54.6875 
L 18.109375 46.390625 
Q 20.953125 51.265625 25.265625 53.625 
Q 29.59375 56 35.59375 56 
Q 45.5625 56 51.78125 48.09375 
Q 58.015625 40.1875 58.015625 27.296875 
Q 58.015625 14.40625 51.78125 6.484375 
Q 45.5625 -1.421875 35.59375 -1.421875 
Q 29.59375 -1.421875 25.265625 0.953125 
Q 20.953125 3.328125 18.109375 8.203125 
z
M 48.6875 27.296875 
Q 48.6875 37.203125 44.609375 42.84375 
Q 40.53125 48.484375 33.40625 48.484375 
Q 26.265625 48.484375 22.1875 42.84375 
Q 18.109375 37.203125 18.109375 27.296875 
Q 18.109375 17.390625 22.1875 11.75 
Q 26.265625 6.109375 33.40625 6.109375 
Q 40.53125 6.109375 44.609375 11.75 
Q 48.6875 17.390625 48.6875 27.296875 
z
" id="DejaVuSans-112"/>
     <path d="M 9.421875 75.984375 
L 18.40625 75.984375 
L 18.40625 0 
L 9.421875 0 
z
" id="DejaVuSans-108"/>
     <path d="M 56.203125 29.59375 
L 56.203125 25.203125 
L 14.890625 25.203125 
Q 15.484375 15.921875 20.484375 11.0625 
Q 25.484375 6.203125 34.421875 6.203125 
Q 39.59375 6.203125 44.453125 7.46875 
Q 49.3125 8.734375 54.109375 11.28125 
L 54.109375 2.78125 
Q 49.265625 0.734375 44.1875 -0.34375 
Q 39.109375 -1.421875 33.890625 -1.421875 
Q 20.796875 -1.421875 13.15625 6.1875 
Q 5.515625 13.8125 5.515625 26.8125 
Q 5.515625 40.234375 12.765625 48.109375 
Q 20.015625 56 32.328125 56 
Q 43.359375 56 49.78125 48.890625 
Q 56.203125 41.796875 56.203125 29.59375 
z
M 47.21875 32.234375 
Q 47.125 39.59375 43.09375 43.984375 
Q 39.0625 48.390625 32.421875 48.390625 
Q 24.90625 48.390625 20.390625 44.140625 
Q 15.875 39.890625 15.1875 32.171875 
z
" id="DejaVuSans-101"/>
     <path d="M 34.671875 47.5625 
Q 27.25 47.5625 22.21875 42.1875 
Q 16.890625 36.578125 15.140625 27.296875 
Q 13.1875 17.484375 16.3125 11.8125 
Q 19.390625 6.203125 26.65625 6.203125 
Q 33.84375 6.203125 39.109375 11.859375 
Q 44.4375 17.53125 46.34375 27.296875 
Q 48.046875 36.234375 45.015625 42.1875 
Q 42.1875 47.5625 34.671875 47.5625 
z
M 36.078125 54.734375 
L 65.921875 54.6875 
L 64.15625 45.703125 
L 54.109375 45.703125 
Q 57.90625 38.09375 55.859375 27.296875 
Q 53.21875 13.875 45.0625 6.25 
Q 36.859375 -1.421875 25.140625 -1.421875 
Q 13.375 -1.421875 8.203125 6.25 
Q 3.03125 13.875 5.671875 27.296875 
Q 8.25 40.765625 16.40625 48.390625 
Q 23.1875 54.734375 36.078125 54.734375 
z
" id="DejaVuSans-Oblique-963"/>
     <path d="M 10.59375 45.40625 
L 73.1875 45.40625 
L 73.1875 37.203125 
L 10.59375 37.203125 
z
M 10.59375 25.484375 
L 73.1875 25.484375 
L 73.1875 17.1875 
L 10.59375 17.1875 
z
" id="DejaVuSans-61"/>
     <path d="M 10.6875 12.40625 
L 21 12.40625 
L 21 0 
L 10.6875 0 
z
" id="DejaVuSans-46"/>
    </defs>
    <g transform="translate(114.84 28.56)scale(0.12 -0.12)">
     <use transform="translate(0 0.015625)" xlink:href="#DejaVuSans-71"/>
     <use transform="translate(77.490234 0.015625)" xlink:href="#DejaVuSans-67"/>
     <use transform="translate(147.314453 0.015625)" xlink:href="#DejaVuSans-86"/>
     <use transform="translate(215.722656 0.015625)" xlink:href="#DejaVuSans-32"/>
     <use transform="translate(247.509766 0.015625)" xlink:href="#DejaVuSans-102"/>
     <use transform="translate(282.714844 0.015625)" xlink:href="#DejaVuSans-117"/>
     <use transform="translate(346.09375 0.015625)" xlink:href="#DejaVuSans-110"/>
     <use transform="translate(409.472656 0.015625)" xlink:href="#DejaVuSans-99"/>
     <use transform="translate(464.453125 0.015625)" xlink:href="#DejaVuSans-116"/>
     <use transform="translate(503.662109 0.015625)" xlink:href="#DejaVuSans-105"/>
     <use transform="translate(531.445312 0.015625)" xlink:href="#DejaVuSans-111"/>
     <use transform="translate(592.626953 0.015625)" xlink:href="#DejaVuSans-110"/>
     <use transform="translate(656.005859 0.015625)" xlink:href="#DejaVuSans-32"/>
     <use transform="translate(687.792969 0.015625)" xlink:href="#DejaVuSans-102"/>
     <use transform="translate(722.998047 0.015625)" xlink:href="#DejaVuSans-111"/>
     <use transform="translate(784.179688 0.015625)" xlink:href="#DejaVuSans-114"/>
     <use transform="translate(825.292969 0.015625)" xlink:href="#DejaVuSans-32"/>
     <use transform="translate(857.080078 0.015625)" xlink:href="#DejaVuSans-115"/>
     <use transform="translate(909.179688 0.015625)" xlink:href="#DejaVuSans-115"/>
     <use transform="translate(961.279297 0.015625)" xlink:href="#DejaVuSans-112"/>
     <use transform="translate(1024.755859 0.015625)" xlink:href="#DejaVuSans-108"/>
     <use transform="translate(1052.539062 0.015625)" xlink:href="#DejaVuSans-105"/>
     <use transform="translate(1080.322266 0.015625)" xlink:href="#DejaVuSans-110"/>
     <use transform="translate(1143.701172 0.015625)" xlink:href="#DejaVuSans-101"/>
     <use transform="translate(1205.224609 0.015625)" xlink:href="#DejaVuSans-115"/>
     <use transform="translate(1257.324219 0.015625)" xlink:href="#DejaVuSans-32"/>
     <use transform="translate(1289.111328 0.015625)" xlink:href="#DejaVuSans-40"/>
     <use transform="translate(1328.125 0.015625)" xlink:href="#DejaVuSans-Oblique-963"/>
     <use transform="translate(1410.986328 0.015625)" xlink:href="#DejaVuSans-61"/>
     <use transform="translate(1514.257812 0.015625)" xlink:href="#DejaVuSans-48"/>
     <use transform="translate(1577.880859 0.015625)" xlink:href="#DejaVuSans-46"/>
     <use transform="translate(1609.667969 0.015625)" xlink:href="#DejaVuSans-48"/>
     <use transform="translate(1673.291016 0.015625)" xlink:href="#DejaVuSans-49"/>
     <use transform="translate(1736.914062 0.015625)" xlink:href="#DejaVuSans-41"/>
    </g>
   </g>
   <g id="legend_1">
    <g id="line2d_73">
     <path d="M 64.8 50.278125 
L 112.8 50.278125 
" style="fill:none;stroke:#1f77b4;stroke-dasharray:7.5,2.5;stroke-dashoffset:0;stroke-width:2.5;"/>
    </g>
    <g id="line2d_74"/>
    <g id="text_15">
     <!-- state $x_1$ -->
     <defs>
      <path d="M 34.28125 27.484375 
Q 23.390625 27.484375 19.1875 25 
Q 14.984375 22.515625 14.984375 16.5 
Q 14.984375 11.71875 18.140625 8.90625 
Q 21.296875 6.109375 26.703125 6.109375 
Q 34.1875 6.109375 38.703125 11.40625 
Q 43.21875 16.703125 43.21875 25.484375 
L 43.21875 27.484375 
z
M 52.203125 31.203125 
L 52.203125 0 
L 43.21875 0 
L 43.21875 8.296875 
Q 40.140625 3.328125 35.546875 0.953125 
Q 30.953125 -1.421875 24.3125 -1.421875 
Q 15.921875 -1.421875 10.953125 3.296875 
Q 6 8.015625 6 15.921875 
Q 6 25.140625 12.171875 29.828125 
Q 18.359375 34.515625 30.609375 34.515625 
L 43.21875 34.515625 
L 43.21875 35.40625 
Q 43.21875 41.609375 39.140625 45 
Q 35.0625 48.390625 27.6875 48.390625 
Q 23 48.390625 18.546875 47.265625 
Q 14.109375 46.140625 10.015625 43.890625 
L 10.015625 52.203125 
Q 14.9375 54.109375 19.578125 55.046875 
Q 24.21875 56 28.609375 56 
Q 40.484375 56 46.34375 49.84375 
Q 52.203125 43.703125 52.203125 31.203125 
z
" id="DejaVuSans-97"/>
      <path d="M 60.015625 54.6875 
L 34.90625 27.875 
L 50.296875 0 
L 39.984375 0 
L 28.421875 21.6875 
L 8.296875 0 
L -2.59375 0 
L 24.3125 28.8125 
L 10.015625 54.6875 
L 20.3125 54.6875 
L 30.8125 34.90625 
L 49.125 54.6875 
z
" id="DejaVuSans-Oblique-120"/>
     </defs>
     <g transform="translate(122.4 54.478125)scale(0.12 -0.12)">
      <use transform="translate(0 0.78125)" xlink:href="#DejaVuSans-115"/>
      <use transform="translate(52.099609 0.78125)" xlink:href="#DejaVuSans-116"/>
      <use transform="translate(91.308594 0.78125)" xlink:href="#DejaVuSans-97"/>
      <use transform="translate(152.587891 0.78125)" xlink:href="#DejaVuSans-116"/>
      <use transform="translate(191.796875 0.78125)" xlink:href="#DejaVuSans-101"/>
      <use transform="translate(253.320312 0.78125)" xlink:href="#DejaVuSans-32"/>
      <use transform="translate(285.107422 0.78125)" xlink:href="#DejaVuSans-Oblique-120"/>
      <use transform="translate(344.287109 -15.625)scale(0.7)" xlink:href="#DejaVuSans-49"/>
     </g>
    </g>
    <g id="line2d_75">
     <path d="M 64.8 67.891875 
L 112.8 67.891875 
" style="fill:none;stroke:#ff7f0e;stroke-dasharray:2500,2.5;stroke-dashoffset:0;stroke-width:2.5;"/>
    </g>
    <g id="line2d_76"/>
    <g id="text_16">
     <!-- state $x_2$ -->
     <g transform="translate(122.4 72.091875)scale(0.12 -0.12)">
      <use transform="translate(0 0.78125)" xlink:href="#DejaVuSans-115"/>
      <use transform="translate(52.099609 0.78125)" xlink:href="#DejaVuSans-116"/>
      <use transform="translate(91.308594 0.78125)" xlink:href="#DejaVuSans-97"/>
      <use transform="translate(152.587891 0.78125)" xlink:href="#DejaVuSans-116"/>
      <use transform="translate(191.796875 0.78125)" xlink:href="#DejaVuSans-101"/>
      <use transform="translate(253.320312 0.78125)" xlink:href="#DejaVuSans-32"/>
      <use transform="translate(285.107422 0.78125)" xlink:href="#DejaVuSans-Oblique-120"/>
      <use transform="translate(344.287109 -15.625)scale(0.7)" xlink:href="#DejaVuSans-50"/>
     </g>
    </g>
    <g id="line2d_77">
     <path d="M 64.8 85.505625 
L 112.8 85.505625 
" style="fill:none;stroke:#2ca02c;stroke-dasharray:5,2.5,25,2.5;stroke-dashoffset:0;stroke-width:2.5;"/>
    </g>
    <g id="line2d_78"/>
    <g id="text_17">
     <!-- state $x_3$ -->
     <g transform="translate(122.4 89.705625)scale(0.12 -0.12)">
      <use transform="translate(0 0.78125)" xlink:href="#DejaVuSans-115"/>
      <use transform="translate(52.099609 0.78125)" xlink:href="#DejaVuSans-116"/>
      <use transform="translate(91.308594 0.78125)" xlink:href="#DejaVuSans-97"/>
      <use transform="translate(152.587891 0.78125)" xlink:href="#DejaVuSans-116"/>
      <use transform="translate(191.796875 0.78125)" xlink:href="#DejaVuSans-101"/>
      <use transform="translate(253.320312 0.78125)" xlink:href="#DejaVuSans-32"/>
      <use transform="translate(285.107422 0.78125)" xlink:href="#DejaVuSans-Oblique-120"/>
      <use transform="translate(344.287109 -15.625)scale(0.7)" xlink:href="#DejaVuSans-51"/>
     </g>
    </g>
   </g>
  </g>
 </g>
 <defs>
  <clipPath id="p003449c3cd">
   <rect height="217.44" width="334.8" x="54" y="34.56"/>
  </clipPath>
 </defs>
</svg>
