<?xml version="1.0" encoding="utf-8" standalone="no"?>
<!DOCTYPE svg PUBLIC "-//W3C//DTD SVG 1.1//EN"
  "http://www.w3.org/Graphics/SVG/1.1/DTD/svg11.dtd">
<!-- Created with matplotlib (https://matplotlib.org/) -->
<svg height="288pt" version="1.1" viewBox="0 0 432 288" width="432pt" xmlns="http://www.w3.org/2000/svg" xmlns:xlink="http://www.w3.org/1999/xlink">
 <defs>
  <style type="text/css">
*{stroke-linecap:butt;stroke-linejoin:round;}
  </style>
 </defs>
 <g id="figure_1">
  <g id="patch_1">
   <path d="M 0 288 
L 432 288 
L 432 0 
L 0 0 
z
" style="fill:#ffffff;"/>
  </g>
  <g id="axes_1">
   <g id="patch_2">
    <path d="M 54 252 
L 388.8 252 
L 388.8 34.56 
L 54 34.56 
z
" style="fill:#ffffff;"/>
   </g>
   <g id="matplotlib.axis_1">
    <g id="xtick_1">
     <g id="line2d_1">
      <defs>
       <path d="M 0 0 
L 0 3.5 
" id="me80de2ed16" style="stroke:#000000;stroke-width:0.8;"/>
      </defs>
      <g>
       <use style="stroke:#000000;stroke-width:0.8;" x="89.561429" xlink:href="#me80de2ed16" y="252"/>
      </g>
     </g>
     <g id="text_1">
      <!-- $\mathdefault{10^{-5}}$ -->
      <defs>
       <path d="M 12.40625 8.296875 
L 28.515625 8.296875 
L 28.515625 63.921875 
L 10.984375 60.40625 
L 10.984375 69.390625 
L 28.421875 72.90625 
L 38.28125 72.90625 
L 38.28125 8.296875 
L 54.390625 8.296875 
L 54.390625 0 
L 12.40625 0 
z
" id="DejaVuSans-49"/>
       <path d="M 31.78125 66.40625 
Q 24.171875 66.40625 20.328125 58.90625 
Q 16.5 51.421875 16.5 36.375 
Q 16.5 21.390625 20.328125 13.890625 
Q 24.171875 6.390625 31.78125 6.390625 
Q 39.453125 6.390625 43.28125 13.890625 
Q 47.125 21.390625 47.125 36.375 
Q 47.125 51.421875 43.28125 58.90625 
Q 39.453125 66.40625 31.78125 66.40625 
z
M 31.78125 74.21875 
Q 44.046875 74.21875 50.515625 64.515625 
Q 56.984375 54.828125 56.984375 36.375 
Q 56.984375 17.96875 50.515625 8.265625 
Q 44.046875 -1.421875 31.78125 -1.421875 
Q 19.53125 -1.421875 13.0625 8.265625 
Q 6.59375 17.96875 6.59375 36.375 
Q 6.59375 54.828125 13.0625 64.515625 
Q 19.53125 74.21875 31.78125 74.21875 
z
" id="DejaVuSans-48"/>
       <path d="M 10.59375 35.5 
L 73.1875 35.5 
L 73.1875 27.203125 
L 10.59375 27.203125 
z
" id="DejaVuSans-8722"/>
       <path d="M 10.796875 72.90625 
L 49.515625 72.90625 
L 49.515625 64.59375 
L 19.828125 64.59375 
L 19.828125 46.734375 
Q 21.96875 47.46875 24.109375 47.828125 
Q 26.265625 48.1875 28.421875 48.1875 
Q 40.625 48.1875 47.75 41.5 
Q 54.890625 34.8125 54.890625 23.390625 
Q 54.890625 11.625 47.5625 5.09375 
Q 40.234375 -1.421875 26.90625 -1.421875 
Q 22.3125 -1.421875 17.546875 -0.640625 
Q 12.796875 0.140625 7.71875 1.703125 
L 7.71875 11.625 
Q 12.109375 9.234375 16.796875 8.0625 
Q 21.484375 6.890625 26.703125 6.890625 
Q 35.15625 6.890625 40.078125 11.328125 
Q 45.015625 15.765625 45.015625 23.390625 
Q 45.015625 31 40.078125 35.4375 
Q 35.15625 39.890625 26.703125 39.890625 
Q 22.75 39.890625 18.8125 39.015625 
Q 14.890625 38.140625 10.796875 36.28125 
z
" id="DejaVuSans-53"/>
      </defs>
      <g transform="translate(75.461429 268.118125)scale(0.12 -0.12)">
       <use transform="translate(0 0.684375)" xlink:href="#DejaVuSans-49"/>
       <use transform="translate(63.623047 0.684375)" xlink:href="#DejaVuSans-48"/>
       <use transform="translate(128.203125 38.965625)scale(0.7)" xlink:href="#DejaVuSans-8722"/>
       <use transform="translate(186.855469 38.965625)scale(0.7)" xlink:href="#DejaVuSans-53"/>
      </g>
     </g>
    </g>
    <g id="xtick_2">
     <g id="line2d_2">
      <g>
       <use style="stroke:#000000;stroke-width:0.8;" x="155.472903" xlink:href="#me80de2ed16" y="252"/>
      </g>
     </g>
     <g id="text_2">
      <!-- $\mathdefault{10^{-3}}$ -->
      <defs>
       <path d="M 40.578125 39.3125 
Q 47.65625 37.796875 51.625 33 
Q 55.609375 28.21875 55.609375 21.1875 
Q 55.609375 10.40625 48.1875 4.484375 
Q 40.765625 -1.421875 27.09375 -1.421875 
Q 22.515625 -1.421875 17.65625 -0.515625 
Q 12.796875 0.390625 7.625 2.203125 
L 7.625 11.71875 
Q 11.71875 9.328125 16.59375 8.109375 
Q 21.484375 6.890625 26.8125 6.890625 
Q 36.078125 6.890625 40.9375 10.546875 
Q 45.796875 14.203125 45.796875 21.1875 
Q 45.796875 27.640625 41.28125 31.265625 
Q 36.765625 34.90625 28.71875 34.90625 
L 20.21875 34.90625 
L 20.21875 43.015625 
L 29.109375 43.015625 
Q 36.375 43.015625 40.234375 45.921875 
Q 44.09375 48.828125 44.09375 54.296875 
Q 44.09375 59.90625 40.109375 62.90625 
Q 36.140625 65.921875 28.71875 65.921875 
Q 24.65625 65.921875 20.015625 65.03125 
Q 15.375 64.15625 9.8125 62.3125 
L 9.8125 71.09375 
Q 15.4375 72.65625 20.34375 73.4375 
Q 25.25 74.21875 29.59375 74.21875 
Q 40.828125 74.21875 47.359375 69.109375 
Q 53.90625 64.015625 53.90625 55.328125 
Q 53.90625 49.265625 50.4375 45.09375 
Q 46.96875 40.921875 40.578125 39.3125 
z
" id="DejaVuSans-51"/>
      </defs>
      <g transform="translate(141.372903 268.118125)scale(0.12 -0.12)">
       <use transform="translate(0 0.765625)" xlink:href="#DejaVuSans-49"/>
       <use transform="translate(63.623047 0.765625)" xlink:href="#DejaVuSans-48"/>
       <use transform="translate(128.203125 39.046875)scale(0.7)" xlink:href="#DejaVuSans-8722"/>
       <use transform="translate(186.855469 39.046875)scale(0.7)" xlink:href="#DejaVuSans-51"/>
      </g>
     </g>
    </g>
    <g id="xtick_3">
     <g id="line2d_3">
      <g>
       <use style="stroke:#000000;stroke-width:0.8;" x="221.384378" xlink:href="#me80de2ed16" y="252"/>
      </g>
     </g>
     <g id="text_3">
      <!-- $\mathdefault{10^{-1}}$ -->
      <g transform="translate(207.284378 268.118125)scale(0.12 -0.12)">
       <use transform="translate(0 0.684375)" xlink:href="#DejaVuSans-49"/>
       <use transform="translate(63.623047 0.684375)" xlink:href="#DejaVuSans-48"/>
       <use transform="translate(128.203125 38.965625)scale(0.7)" xlink:href="#DejaVuSans-8722"/>
       <use transform="translate(186.855469 38.965625)scale(0.7)" xlink:href="#DejaVuSans-49"/>
      </g>
     </g>
    </g>
    <g id="xtick_4">
     <g id="line2d_4">
      <g>
       <use style="stroke:#000000;stroke-width:0.8;" x="287.295853" xlink:href="#me80de2ed16" y="252"/>
      </g>
     </g>
     <g id="text_4">
      <!-- $\mathdefault{10^{1}}$ -->
      <g transform="translate(276.735853 268.118125)scale(0.12 -0.12)">
       <use transform="translate(0 0.684375)" xlink:href="#DejaVuSans-49"/>
       <use transform="translate(63.623047 0.684375)" xlink:href="#DejaVuSans-48"/>
       <use transform="translate(128.203125 38.965625)scale(0.7)" xlink:href="#DejaVuSans-49"/>
      </g>
     </g>
    </g>
    <g id="xtick_5">
     <g id="line2d_5">
      <g>
       <use style="stroke:#000000;stroke-width:0.8;" x="353.207328" xlink:href="#me80de2ed16" y="252"/>
      </g>
     </g>
     <g id="text_5">
      <!-- $\mathdefault{10^{3}}$ -->
      <g transform="translate(342.647328 268.118125)scale(0.12 -0.12)">
       <use transform="translate(0 0.765625)" xlink:href="#DejaVuSans-49"/>
       <use transform="translate(63.623047 0.765625)" xlink:href="#DejaVuSans-48"/>
       <use transform="translate(128.203125 39.046875)scale(0.7)" xlink:href="#DejaVuSans-51"/>
      </g>
     </g>
    </g>
    <g id="text_6">
     <!-- $\lambda$ -->
     <defs>
      <path d="M 36.71875 67.4375 
L 48.828125 0 
L 39.3125 0 
L 31.84375 40.4375 
L 5.125 0 
L -4.390625 0 
L 29.734375 52.4375 
L 28.03125 62.109375 
Q 26.953125 68.265625 21.734375 68.265625 
L 17.046875 68.265625 
L 18.5 75.984375 
L 24.21875 75.875 
Q 35.203125 75.734375 36.71875 67.4375 
z
" id="DejaVuSans-Oblique-955"/>
     </defs>
     <g transform="translate(217.8 283.731875)scale(0.12 -0.12)">
      <use transform="translate(0 0.015625)" xlink:href="#DejaVuSans-Oblique-955"/>
     </g>
    </g>
   </g>
   <g id="matplotlib.axis_2">
    <g id="ytick_1">
     <g id="line2d_6">
      <defs>
       <path d="M 0 0 
L -3.5 0 
" id="m0bfbffffdf" style="stroke:#000000;stroke-width:0.8;"/>
      </defs>
      <g>
       <use style="stroke:#000000;stroke-width:0.8;" x="54" xlink:href="#m0bfbffffdf" y="252"/>
      </g>
     </g>
     <g id="text_7">
      <!-- $\mathdefault{10^{-3}}$ -->
      <g transform="translate(18.8 256.559062)scale(0.12 -0.12)">
       <use transform="translate(0 0.765625)" xlink:href="#DejaVuSans-49"/>
       <use transform="translate(63.623047 0.765625)" xlink:href="#DejaVuSans-48"/>
       <use transform="translate(128.203125 39.046875)scale(0.7)" xlink:href="#DejaVuSans-8722"/>
       <use transform="translate(186.855469 39.046875)scale(0.7)" xlink:href="#DejaVuSans-51"/>
      </g>
     </g>
    </g>
    <g id="ytick_2">
     <g id="line2d_7">
      <g>
       <use style="stroke:#000000;stroke-width:0.8;" x="54" xlink:href="#m0bfbffffdf" y="171.435933"/>
      </g>
     </g>
     <g id="text_8">
      <!-- $\mathdefault{10^{-2}}$ -->
      <defs>
       <path d="M 19.1875 8.296875 
L 53.609375 8.296875 
L 53.609375 0 
L 7.328125 0 
L 7.328125 8.296875 
Q 12.9375 14.109375 22.625 23.890625 
Q 32.328125 33.6875 34.8125 36.53125 
Q 39.546875 41.84375 41.421875 45.53125 
Q 43.3125 49.21875 43.3125 52.78125 
Q 43.3125 58.59375 39.234375 62.25 
Q 35.15625 65.921875 28.609375 65.921875 
Q 23.96875 65.921875 18.8125 64.3125 
Q 13.671875 62.703125 7.8125 59.421875 
L 7.8125 69.390625 
Q 13.765625 71.78125 18.9375 73 
Q 24.125 74.21875 28.421875 74.21875 
Q 39.75 74.21875 46.484375 68.546875 
Q 53.21875 62.890625 53.21875 53.421875 
Q 53.21875 48.921875 51.53125 44.890625 
Q 49.859375 40.875 45.40625 35.40625 
Q 44.1875 33.984375 37.640625 27.21875 
Q 31.109375 20.453125 19.1875 8.296875 
z
" id="DejaVuSans-50"/>
      </defs>
      <g transform="translate(18.8 175.994996)scale(0.12 -0.12)">
       <use transform="translate(0 0.765625)" xlink:href="#DejaVuSans-49"/>
       <use transform="translate(63.623047 0.765625)" xlink:href="#DejaVuSans-48"/>
       <use transform="translate(128.203125 39.046875)scale(0.7)" xlink:href="#DejaVuSans-8722"/>
       <use transform="translate(186.855469 39.046875)scale(0.7)" xlink:href="#DejaVuSans-50"/>
      </g>
     </g>
    </g>
    <g id="ytick_3">
     <g id="line2d_8">
      <g>
       <use style="stroke:#000000;stroke-width:0.8;" x="54" xlink:href="#m0bfbffffdf" y="90.871866"/>
      </g>
     </g>
     <g id="text_9">
      <!-- $\mathdefault{10^{-1}}$ -->
      <g transform="translate(18.8 95.430929)scale(0.12 -0.12)">
       <use transform="translate(0 0.684375)" xlink:href="#DejaVuSans-49"/>
       <use transform="translate(63.623047 0.684375)" xlink:href="#DejaVuSans-48"/>
       <use transform="translate(128.203125 38.965625)scale(0.7)" xlink:href="#DejaVuSans-8722"/>
       <use transform="translate(186.855469 38.965625)scale(0.7)" xlink:href="#DejaVuSans-49"/>
      </g>
     </g>
    </g>
    <g id="ytick_4">
     <g id="line2d_9">
      <defs>
       <path d="M 0 0 
L -2 0 
" id="m3f37decc55" style="stroke:#000000;stroke-width:0.6;"/>
      </defs>
      <g>
       <use style="stroke:#000000;stroke-width:0.6;" x="54" xlink:href="#m3f37decc55" y="227.747799"/>
      </g>
     </g>
    </g>
    <g id="ytick_5">
     <g id="line2d_10">
      <g>
       <use style="stroke:#000000;stroke-width:0.6;" x="54" xlink:href="#m3f37decc55" y="213.561171"/>
      </g>
     </g>
    </g>
    <g id="ytick_6">
     <g id="line2d_11">
      <g>
       <use style="stroke:#000000;stroke-width:0.6;" x="54" xlink:href="#m3f37decc55" y="203.495599"/>
      </g>
     </g>
    </g>
    <g id="ytick_7">
     <g id="line2d_12">
      <g>
       <use style="stroke:#000000;stroke-width:0.6;" x="54" xlink:href="#m3f37decc55" y="195.688134"/>
      </g>
     </g>
    </g>
    <g id="ytick_8">
     <g id="line2d_13">
      <g>
       <use style="stroke:#000000;stroke-width:0.6;" x="54" xlink:href="#m3f37decc55" y="189.308971"/>
      </g>
     </g>
    </g>
    <g id="ytick_9">
     <g id="line2d_14">
      <g>
       <use style="stroke:#000000;stroke-width:0.6;" x="54" xlink:href="#m3f37decc55" y="183.915465"/>
      </g>
     </g>
    </g>
    <g id="ytick_10">
     <g id="line2d_15">
      <g>
       <use style="stroke:#000000;stroke-width:0.6;" x="54" xlink:href="#m3f37decc55" y="179.243398"/>
      </g>
     </g>
    </g>
    <g id="ytick_11">
     <g id="line2d_16">
      <g>
       <use style="stroke:#000000;stroke-width:0.6;" x="54" xlink:href="#m3f37decc55" y="175.122343"/>
      </g>
     </g>
    </g>
    <g id="ytick_12">
     <g id="line2d_17">
      <g>
       <use style="stroke:#000000;stroke-width:0.6;" x="54" xlink:href="#m3f37decc55" y="147.183732"/>
      </g>
     </g>
    </g>
    <g id="ytick_13">
     <g id="line2d_18">
      <g>
       <use style="stroke:#000000;stroke-width:0.6;" x="54" xlink:href="#m3f37decc55" y="132.997104"/>
      </g>
     </g>
    </g>
    <g id="ytick_14">
     <g id="line2d_19">
      <g>
       <use style="stroke:#000000;stroke-width:0.6;" x="54" xlink:href="#m3f37decc55" y="122.931532"/>
      </g>
     </g>
    </g>
    <g id="ytick_15">
     <g id="line2d_20">
      <g>
       <use style="stroke:#000000;stroke-width:0.6;" x="54" xlink:href="#m3f37decc55" y="115.124067"/>
      </g>
     </g>
    </g>
    <g id="ytick_16">
     <g id="line2d_21">
      <g>
       <use style="stroke:#000000;stroke-width:0.6;" x="54" xlink:href="#m3f37decc55" y="108.744904"/>
      </g>
     </g>
    </g>
    <g id="ytick_17">
     <g id="line2d_22">
      <g>
       <use style="stroke:#000000;stroke-width:0.6;" x="54" xlink:href="#m3f37decc55" y="103.351398"/>
      </g>
     </g>
    </g>
    <g id="ytick_18">
     <g id="line2d_23">
      <g>
       <use style="stroke:#000000;stroke-width:0.6;" x="54" xlink:href="#m3f37decc55" y="98.679331"/>
      </g>
     </g>
    </g>
    <g id="ytick_19">
     <g id="line2d_24">
      <g>
       <use style="stroke:#000000;stroke-width:0.6;" x="54" xlink:href="#m3f37decc55" y="94.558276"/>
      </g>
     </g>
    </g>
    <g id="ytick_20">
     <g id="line2d_25">
      <g>
       <use style="stroke:#000000;stroke-width:0.6;" x="54" xlink:href="#m3f37decc55" y="66.619665"/>
      </g>
     </g>
    </g>
    <g id="ytick_21">
     <g id="line2d_26">
      <g>
       <use style="stroke:#000000;stroke-width:0.6;" x="54" xlink:href="#m3f37decc55" y="52.433038"/>
      </g>
     </g>
    </g>
    <g id="ytick_22">
     <g id="line2d_27">
      <g>
       <use style="stroke:#000000;stroke-width:0.6;" x="54" xlink:href="#m3f37decc55" y="42.367465"/>
      </g>
     </g>
    </g>
    <g id="ytick_23">
     <g id="line2d_28">
      <g>
       <use style="stroke:#000000;stroke-width:0.6;" x="54" xlink:href="#m3f37decc55" y="34.56"/>
      </g>
     </g>
    </g>
    <g id="text_10">
     <!-- GCV($\lambda$) -->
     <defs>
      <path d="M 59.515625 10.40625 
L 59.515625 29.984375 
L 43.40625 29.984375 
L 43.40625 38.09375 
L 69.28125 38.09375 
L 69.28125 6.78125 
Q 63.578125 2.734375 56.6875 0.65625 
Q 49.8125 -1.421875 42 -1.421875 
Q 24.90625 -1.421875 15.25 8.5625 
Q 5.609375 18.5625 5.609375 36.375 
Q 5.609375 54.25 15.25 64.234375 
Q 24.90625 74.21875 42 74.21875 
Q 49.125 74.21875 55.546875 72.453125 
Q 61.96875 70.703125 67.390625 67.28125 
L 67.390625 56.78125 
Q 61.921875 61.421875 55.765625 63.765625 
Q 49.609375 66.109375 42.828125 66.109375 
Q 29.4375 66.109375 22.71875 58.640625 
Q 16.015625 51.171875 16.015625 36.375 
Q 16.015625 21.625 22.71875 14.15625 
Q 29.4375 6.6875 42.828125 6.6875 
Q 48.046875 6.6875 52.140625 7.59375 
Q 56.25 8.5 59.515625 10.40625 
z
" id="DejaVuSans-71"/>
      <path d="M 64.40625 67.28125 
L 64.40625 56.890625 
Q 59.421875 61.53125 53.78125 63.8125 
Q 48.140625 66.109375 41.796875 66.109375 
Q 29.296875 66.109375 22.65625 58.46875 
Q 16.015625 50.828125 16.015625 36.375 
Q 16.015625 21.96875 22.65625 14.328125 
Q 29.296875 6.6875 41.796875 6.6875 
Q 48.140625 6.6875 53.78125 8.984375 
Q 59.421875 11.28125 64.40625 15.921875 
L 64.40625 5.609375 
Q 59.234375 2.09375 53.4375 0.328125 
Q 47.65625 -1.421875 41.21875 -1.421875 
Q 24.65625 -1.421875 15.125 8.703125 
Q 5.609375 18.84375 5.609375 36.375 
Q 5.609375 53.953125 15.125 64.078125 
Q 24.65625 74.21875 41.21875 74.21875 
Q 47.75 74.21875 53.53125 72.484375 
Q 59.328125 70.75 64.40625 67.28125 
z
" id="DejaVuSans-67"/>
      <path d="M 28.609375 0 
L 0.78125 72.90625 
L 11.078125 72.90625 
L 34.1875 11.53125 
L 57.328125 72.90625 
L 67.578125 72.90625 
L 39.796875 0 
z
" id="DejaVuSans-86"/>
      <path d="M 31 75.875 
Q 24.46875 64.65625 21.28125 53.65625 
Q 18.109375 42.671875 18.109375 31.390625 
Q 18.109375 20.125 21.3125 9.0625 
Q 24.515625 -2 31 -13.1875 
L 23.1875 -13.1875 
Q 15.875 -1.703125 12.234375 9.375 
Q 8.59375 20.453125 8.59375 31.390625 
Q 8.59375 42.28125 12.203125 53.3125 
Q 15.828125 64.359375 23.1875 75.875 
z
" id="DejaVuSans-40"/>
      <path d="M 8.015625 75.875 
L 15.828125 75.875 
Q 23.140625 64.359375 26.78125 53.3125 
Q 30.421875 42.28125 30.421875 31.390625 
Q 30.421875 20.453125 26.78125 9.375 
Q 23.140625 -1.703125 15.828125 -13.1875 
L 8.015625 -13.1875 
Q 14.5 -2 17.703125 9.0625 
Q 20.90625 20.125 20.90625 31.390625 
Q 20.90625 42.671875 17.703125 53.65625 
Q 14.5 64.65625 8.015625 75.875 
z
" id="DejaVuSans-41"/>
     </defs>
     <g transform="translate(12.304375 164.46)rotate(-90)scale(0.12 -0.12)">
      <use transform="translate(0 0.015625)" xlink:href="#DejaVuSans-71"/>
      <use transform="translate(77.490234 0.015625)" xlink:href="#DejaVuSans-67"/>
      <use transform="translate(147.314453 0.015625)" xlink:href="#DejaVuSans-86"/>
      <use transform="translate(215.722656 0.015625)" xlink:href="#DejaVuSans-40"/>
      <use transform="translate(254.736328 0.015625)" xlink:href="#DejaVuSans-Oblique-955"/>
      <use transform="translate(313.916016 0.015625)" xlink:href="#DejaVuSans-41"/>
     </g>
    </g>
   </g>
   <g id="line2d_29">
    <path clip-path="url(#pd95d3eae2b)" d="M 371.890525 173.236044 
L 371.544829 172.917845 
L 371.542888 172.593293 
L 371.177114 172.923355 
L 371.173172 172.598992 
L 370.788882 172.92935 
L 370.782887 172.605196 
L 370.374609 172.935924 
L 370.366479 172.612003 
L 369.929545 172.943159 
L 369.919156 172.6195 
L 369.468762 172.950852 
L 369.456086 172.627475 
L 369.005679 172.958829 
L 368.990762 172.635751 
L 368.546855 172.967026 
L 368.529783 172.644262 
L 368.096702 172.975412 
L 368.077588 172.652978 
L 367.654197 172.98404 
L 367.633147 172.661955 
L 367.219742 172.992942 
L 367.196867 172.671227 
L 366.778078 173.002388 
L 366.75339 172.681075 
L 366.309941 173.012714 
L 366.283319 172.691845 
L 365.814068 173.023983 
L 365.785383 172.703606 
L 365.288899 173.036264 
L 365.258008 172.716428 
L 364.720386 173.049822 
L 364.687042 172.730586 
L 364.11416 173.064604 
L 364.07815 172.746025 
L 363.481429 173.080471 
L 363.442614 172.762606 
L 362.805253 173.097737 
L 362.763361 172.780651 
L 362.657694 173.107165 
L 362.509717 172.789455 
L 362.501878 172.463604 
L 361.897367 172.81711 
L 361.852571 172.499335 
L 360.893239 172.866481 
L 360.83948 172.550363 
L 359.841535 172.915829 
L 359.778452 172.601375 
L 359.533784 172.936943 
L 359.40755 172.615694 
L 358.713574 172.966427 
L 358.640484 172.653659 
L 357.482094 173.018092 
L 357.397578 172.70701 
L 357.019449 173.045162 
L 356.817873 172.725537 
L 356.10748 173.07207 
L 356.009624 172.762655 
L 355.070857 173.114426 
L 354.815324 172.795236 
L 354.606631 173.126555 
L 354.498694 172.490602 
L 354.41519 172.820708 
L 354.325429 173.149209 
L 354.227734 172.500217 
L 353.968518 172.838583 
L 353.964738 172.51117 
L 353.774436 172.846637 
L 353.769067 172.519374 
L 353.619034 172.853195 
L 353.612428 172.526056 
L 353.509142 172.858005 
L 353.501718 172.530957 
L 353.390289 172.863744 
L 353.362104 172.537977 
L 353.275074 172.869275 
L 353.265198 172.542501 
L 353.138286 172.875461 
L 353.127421 172.548808 
L 352.942976 172.884137 
L 352.930608 172.557654 
L 352.701307 172.894776 
L 352.687029 172.568503 
L 352.623471 172.898869 
L 352.596337 172.572976 
L 352.55693 172.902319 
L 352.441008 172.59277 
L 352.297575 172.926513 
L 352.281172 172.600488 
L 351.940296 172.942321 
L 351.876736 172.6191 
L 351.438033 172.964152 
L 351.36851 172.641273 
L 351.006455 172.982636 
L 350.984249 172.65623 
L 350.899126 172.987052 
L 350.868509 172.662311 
L 350.622644 172.99892 
L 350.601487 172.672409 
L 350.401516 173.00706 
L 350.365909 172.682725 
L 350.19338 173.016875 
L 350.037312 172.70985 
L 349.931686 173.041313 
L 349.911258 172.714728 
L 349.80081 173.046257 
L 349.760927 172.722293 
L 349.64091 173.054176 
L 349.620793 172.727555 
L 349.409767 173.062316 
L 349.39092 172.735591 
L 349.295837 172.741413 
L 349.15687 173.073694 
L 349.138012 172.74696 
L 349.019345 173.07847 
L 349.001257 172.751679 
L 348.918747 173.081983 
L 348.799357 172.761403 
L 348.622398 173.094546 
L 348.604938 172.767702 
L 348.51018 173.098261 
L 348.45595 172.775459 
L 348.327457 173.107043 
L 348.309935 172.780194 
L 348.124397 173.113299 
L 348.066731 172.790796 
L 347.950377 173.121918 
L 347.93304 172.795041 
L 347.756686 173.127741 
L 347.695866 172.805533 
L 347.571704 173.136783 
L 347.363517 172.83164 
L 347.279939 173.162207 
L 347.217577 172.840206 
L 346.982401 173.17471 
L 346.918327 172.852944 
L 346.708786 173.186673 
L 346.586355 172.867211 
L 346.406352 173.20001 
L 346.338689 172.878794 
L 346.089153 173.213511 
L 346.019748 172.892569 
L 345.839578 173.225338 
L 345.819138 172.898557 
L 345.73617 173.228559 
L 345.664099 172.907966 
L 345.337788 173.244532 
L 345.263161 172.924257 
L 345.019256 173.258527 
L 344.998579 172.931715 
L 344.871623 173.262744 
L 344.79312 172.942863 
L 344.358863 173.281694 
L 344.257807 172.635083 
L 343.987634 172.985695 
L 343.986138 173.313496 
L 343.963069 172.986762 
L 343.589601 173.323903 
L 343.502349 173.00462 
L 343.138873 173.341309 
L 343.116979 173.014454 
L 342.940311 173.346352 
L 342.846855 173.027486 
L 342.235809 173.369202 
L 342.10854 173.051689 
L 341.466983 173.39314 
L 341.359423 173.075043 
L 341.142243 173.407305 
L 341.1208 173.080308 
L 340.640994 173.417448 
L 340.524834 173.09974 
L 340.41718 173.429585 
L 339.971001 173.125674 
L 339.87405 173.45528 
L 339.850927 173.128273 
L 339.591809 173.460797 
L 339.466432 173.143178 
L 338.822707 173.482382 
L 338.572282 172.842456 
L 336.835844 173.258143 
L 336.639271 172.941571 
L 336.125939 173.292603 
L 335.997725 172.638243 
L 335.892051 172.973721 
L 334.956822 173.338227 
L 334.70629 173.022545 
L 333.648128 173.386227 
L 333.438113 173.063983 
L 333.124706 173.402355 
L 332.823545 173.086961 
L 332.658445 173.420823 
L 332.377111 173.099777 
L 331.372318 173.453848 
L 331.099659 172.802943 
L 330.832471 173.471949 
L 330.510366 173.150574 
L 330.459758 173.480948 
L 329.263965 173.177148 
L 329.148062 172.848699 
L 328.856494 172.522343 
L 328.771427 172.191841 
L 328.396162 173.198691 
L 327.910928 172.876961 
L 327.242358 173.218443 
L 326.745123 172.895795 
L 326.692686 173.2274 
L 326.642664 172.898182 
L 326.470064 172.571844 
L 326.029178 173.241618 
L 325.664051 172.916222 
L 325.661075 172.583884 
L 325.173938 172.923322 
L 325.172939 172.590918 
L 325.004685 173.256413 
L 324.85718 172.927657 
L 324.848693 172.595471 
L 324.602127 172.931131 
L 324.373356 172.606122 
L 323.921245 172.944201 
L 323.921211 172.611769 
L 323.850694 173.275793 
L 323.680157 172.947172 
L 323.665959 172.615107 
L 322.989529 173.285476 
L 322.730577 172.627746 
L 322.4383 173.625882 
L 322.129609 173.300129 
L 322.11384 172.969594 
L 321.842494 173.30308 
L 321.384149 173.635979 
L 320.748275 173.317931 
L 320.724817 172.987491 
L 320.697115 173.318587 
L 320.465852 173.649532 
L 320.031252 173.324313 
L 320.016299 172.993694 
L 319.84638 173.325852 
L 319.292282 173.004793 
L 318.538632 173.34089 
L 318.198049 173.015967 
L 318.068703 172.351779 
L 317.979975 172.687325 
L 317.395728 173.02331 
L 317.333963 172.691755 
L 317.077385 173.025676 
L 316.697265 172.699737 
L 316.507185 173.035208 
L 315.363745 173.371953 
L 314.741083 173.050538 
L 314.46558 173.38265 
L 314.440732 173.051986 
L 314.220666 173.383797 
L 313.974618 172.722385 
L 313.416019 173.057752 
L 313.230631 172.735317 
L 312.104023 173.073651 
L 311.695393 173.405926 
L 311.6075 173.075658 
L 310.921454 172.752964 
L 310.849208 173.085859 
L 310.298734 173.418468 
L 310.261144 173.087803 
L 309.523587 173.420768 
L 307.976337 172.772054 
L 307.372512 173.106529 
L 307.341682 172.77431 
L 307.288961 173.106913 
L 307.095584 172.442543 
L 306.980433 172.114253 
L 306.658894 172.45287 
L 306.609131 171.781698 
L 306.589834 172.119287 
L 306.338106 172.457294 
L 306.28541 172.122845 
L 305.780118 172.462869 
L 304.672155 172.801456 
L 304.590697 172.135167 
L 304.578276 172.471213 
L 304.495983 172.139775 
L 304.138676 172.487352 
L 303.836093 172.173848 
L 303.662901 172.515105 
L 303.615123 172.181571 
L 303.351945 172.525384 
L 302.521318 172.224322 
L 302.502509 172.560477 
L 302.399597 172.228395 
L 302.332084 172.565902 
L 302.295088 172.231804 
L 302.291047 171.894799 
L 302.222496 172.234856 
L 301.448909 172.590788 
L 301.389161 172.926235 
L 301.27463 172.598721 
L 300.990848 172.278856 
L 300.74354 172.954396 
L 300.644512 172.287576 
L 300.511896 172.626253 
L 300.223193 172.966528 
L 300.052644 172.637993 
L 300.019913 172.972701 
L 299.807561 172.308428 
L 299.640162 172.647551 
L 298.790535 172.997526 
L 298.294024 172.68568 
L 298.112241 173.022838 
L 297.796949 172.360672 
L 297.708806 172.698035 
L 297.428125 173.036549 
L 297.105925 172.708566 
L 296.811677 173.046921 
L 296.42741 172.722241 
L 295.756209 172.403871 
L 295.625065 172.070088 
L 295.615599 171.731653 
L 295.350967 172.077419 
L 294.803985 171.421741 
L 294.764582 171.082574 
L 294.740396 171.426513 
L 294.194322 172.1266 
L 293.286564 171.816168 
L 293.204402 171.480221 
L 292.731324 171.834306 
L 292.615042 171.499375 
L 292.321776 171.848028 
L 292.255008 171.509431 
L 292.074223 171.182513 
L 291.679086 171.554065 
L 290.941118 171.26359 
L 290.93631 170.92032 
L 290.911767 171.265838 
L 290.79934 170.586544 
L 290.629211 170.947482 
L 290.516376 170.613223 
L 290.232463 170.983824 
L 290.209791 170.640946 
L 289.334865 171.056177 
L 289.279246 170.71522 
L 289.188526 171.067282 
L 289.148228 170.726711 
L 288.664719 171.44859 
L 288.595989 170.765052 
L 288.17393 171.136731 
L 287.791646 170.474285 
L 287.773178 170.82279 
L 287.292187 171.540821 
L 287.030945 170.525735 
L 286.660275 171.243553 
L 286.646888 170.899722 
L 286.540072 171.251357 
L 286.268037 170.920891 
L 285.923314 171.284431 
L 285.82953 171.633026 
L 285.722936 171.296126 
L 285.602503 171.645906 
L 284.971348 171.338116 
L 284.934085 171.683684 
L 284.575309 171.02297 
L 284.416145 171.377535 
L 284.387665 171.034431 
L 284.298337 171.386527 
L 284.06288 171.740801 
L 283.70391 171.421119 
L 283.6571 171.083521 
L 283.632312 171.430772 
L 283.375603 171.786186 
L 283.256995 171.453885 
L 282.812876 171.81633 
L 282.673433 171.479742 
L 282.345817 171.836399 
L 282.232584 171.496946 
L 281.67423 171.178069 
L 281.429792 170.503925 
L 280.786091 170.90216 
L 280.779521 170.554252 
L 280.289397 170.938766 
L 280.259247 170.594432 
L 280.257311 170.943716 
L 279.993472 171.307599 
L 279.499634 170.997207 
L 279.363131 170.66131 
L 279.283335 171.015882 
L 279.109347 170.680676 
L 278.889384 171.044172 
L 278.421702 170.729013 
L 278.233832 170.405065 
L 277.898015 170.778855 
L 277.887475 170.429065 
L 277.767988 170.788914 
L 277.604137 170.451841 
L 277.563854 170.805607 
L 277.538743 170.105306 
L 277.305502 170.509455 
L 276.552641 170.995207 
L 276.408303 170.322027 
L 275.765371 170.802609 
L 275.633047 171.1756 
L 275.461115 170.504356 
L 274.469614 171.030299 
L 274.159769 171.426043 
L 273.892791 171.11852 
L 273.230957 171.562473 
L 273.138205 171.922185 
L 272.976726 171.595242 
L 272.675461 171.977409 
L 271.988983 171.713594 
L 271.852412 171.381871 
L 271.56564 171.766759 
L 270.874139 171.161969 
L 270.692583 171.539927 
L 270.430701 171.23363 
L 270.237028 171.612902 
L 269.868949 171.998725 
L 269.787994 172.354547 
L 269.321641 172.048879 
L 268.127005 171.807191 
L 267.537004 171.177102 
L 267.215707 171.559751 
L 267.106186 171.224214 
L 266.609178 171.970082 
L 265.864728 172.367357 
L 265.42607 172.042042 
L 265.421817 171.689768 
L 265.089096 171.357715 
L 264.9102 170.660096 
L 264.688853 171.033256 
L 264.678005 170.677442 
L 264.39458 171.071228 
L 264.291305 170.731487 
L 264.013167 171.124744 
L 263.971883 170.773063 
L 263.699601 170.473717 
L 263.685309 170.116005 
L 263.66382 170.48242 
L 263.415564 170.879012 
L 263.170223 170.212006 
L 263.036651 170.593053 
L 262.686996 170.999723 
L 262.63056 170.647457 
L 262.032235 170.37706 
L 261.89935 170.034091 
L 261.878585 169.671982 
L 261.863506 170.03977 
L 261.423434 170.469653 
L 261.372908 170.113758 
L 260.951956 169.81251 
L 260.481021 170.243155 
L 260.232267 169.917653 
L 259.954309 170.682125 
L 259.945491 170.320038 
L 259.79638 169.978575 
L 259.48232 169.675976 
L 259.355545 169.334175 
L 259.349365 169.704475 
L 259.281938 169.352034 
L 259.139925 169.75457 
L 259.094834 170.494753 
L 259.034872 170.14127 
L 258.946781 170.519768 
L 258.821011 169.807572 
L 258.67351 170.198734 
L 258.238996 169.557031 
L 257.836033 169.988646 
L 257.81165 170.359415 
L 257.681968 170.015959 
L 257.681831 170.383313 
L 257.278764 169.712408 
L 256.794693 169.42639 
L 256.548625 169.83271 
L 256.493758 169.469744 
L 256.322906 169.129568 
L 256.322549 168.754463 
L 256.233664 169.14723 
L 255.012952 170.43353 
L 254.843551 170.086237 
L 254.371416 169.799665 
L 254.355205 170.172926 
L 254.096549 170.572498 
L 253.984316 170.952322 
L 253.9824 170.585231 
L 252.713185 169.721658 
L 251.8222 170.240319 
L 251.65535 169.894927 
L 251.337798 170.31442 
L 251.325494 169.943055 
L 250.977504 169.642569 
L 250.451223 170.465877 
L 250.370648 170.847641 
L 249.606243 171.306882 
L 249.298888 170.97785 
L 249.185897 170.624451 
L 249.030867 171.014645 
L 248.695715 170.683757 
L 248.656391 169.565572 
L 247.799085 170.054503 
L 247.748064 169.309817 
L 247.528831 169.717062 
L 246.962785 169.422629 
L 246.787774 168.693815 
L 246.500911 169.12793 
L 246.371979 168.385332 
L 246.188233 169.185892 
L 246.00603 168.829104 
L 245.94579 169.220764 
L 245.294836 168.923186 
L 245.11068 168.570471 
L 244.988264 168.971617 
L 244.936374 168.597507 
L 244.743756 169.390922 
L 244.649028 168.635758 
L 244.58782 168.26171 
L 244.429173 169.064077 
L 243.569666 169.563498 
L 243.452809 169.196084 
L 243.30774 169.597501 
L 243.135312 169.253467 
L 243.078977 169.643865 
L 243.046583 169.266986 
L 242.977681 168.895741 
L 242.943788 169.285733 
L 242.645544 169.707042 
L 242.528643 168.956516 
L 242.123998 168.637927 
L 241.88932 168.304989 
L 241.812686 167.935026 
L 241.731107 168.346376 
L 241.299314 168.804761 
L 241.013449 168.478823 
L 240.66498 168.94012 
L 240.644101 168.555157 
L 240.475277 168.219809 
L 240.015947 168.718499 
L 239.398091 168.110898 
L 239.17292 168.557132 
L 239.134931 168.173546 
L 238.318096 167.723039 
L 238.242226 166.959146 
L 238.042898 167.461376 
L 238.034455 167.062663 
L 237.996705 167.483779 
L 237.903791 167.923553 
L 237.260421 168.957344 
L 236.946944 168.673556 
L 236.779543 169.123642 
L 236.777053 169.518577 
L 236.548766 169.205613 
L 235.094041 168.928967 
L 234.996648 168.560623 
L 234.883495 168.996427 
L 234.594271 168.713483 
L 234.587616 169.116498 
L 234.482306 168.753397 
L 234.295479 169.208726 
L 234.224406 168.828845 
L 233.966337 168.507176 
L 233.583526 168.220231 
L 233.409303 167.873323 
L 233.038801 168.401803 
L 232.953303 168.02788 
L 232.482644 168.580424 
L 232.403499 168.201978 
L 231.528799 168.90251 
L 231.519328 169.310938 
L 231.161194 170.195028 
L 230.826966 169.866124 
L 230.336182 169.568425 
L 230.096339 169.222103 
L 230.044034 168.827538 
L 229.694106 168.130836 
L 229.437444 168.649409 
L 229.375469 169.076187 
L 229.14101 168.734958 
L 229.030821 169.175962 
L 228.423201 168.930139 
L 228.302863 168.551156 
L 228.293928 168.966487 
L 228.205774 168.58084 
L 228.097272 168.200106 
L 228.092308 168.616791 
L 227.964271 167.821161 
L 227.853341 167.852817 
L 227.833751 168.275666 
L 227.788028 167.869705 
L 227.679466 167.489141 
L 227.314779 167.214846 
L 227.172768 166.853427 
L 226.912263 166.564997 
L 226.886721 167.00417 
L 226.598426 167.550096 
L 226.279394 166.409409 
L 225.67025 167.498601 
L 225.270916 167.213302 
L 225.191374 166.810876 
L 225.041666 167.291632 
L 224.626822 167.851635 
L 224.597271 167.435351 
L 224.12571 168.87655 
L 224.105688 169.303411 
L 223.895411 168.959073 
L 223.717552 168.183844 
L 223.640555 167.788535 
L 222.894437 168.463414 
L 222.353985 167.774641 
L 222.333889 167.348703 
L 222.253362 167.807333 
L 222.172973 168.260516 
L 222.07856 167.863837 
L 222.030898 168.30925 
L 221.836068 167.943439 
L 220.928177 167.815686 
L 220.708367 167.461585 
L 220.644435 166.609092 
L 220.428284 166.278757 
L 220.410851 165.841256 
L 220.278064 166.354388 
L 220.083973 166.013989 
L 220.082095 166.462068 
L 219.926068 166.096473 
L 219.628585 167.567832 
L 219.600037 168.018113 
L 219.344811 168.547613 
L 219.172563 169.036329 
L 218.802724 168.718318 
L 217.645986 169.874987 
L 217.476759 169.482595 
L 217.151768 169.982617 
L 216.744509 169.645147 
L 216.489074 168.841232 
L 216.436966 169.289263 
L 216.093094 169.792181 
L 215.726735 169.004163 
L 215.510961 167.736595 
L 215.038952 168.309295 
L 215.00945 167.872953 
L 214.905628 168.342089 
L 213.978607 168.971144 
L 213.384545 168.217287 
L 213.375656 167.772587 
L 212.358413 166.381384 
L 211.631795 167.56995 
L 210.922038 167.377971 
L 210.583968 167.058733 
L 210.119443 166.804005 
L 210.026832 167.302196 
L 209.990726 166.856149 
L 209.416117 166.174581 
L 209.292981 166.692813 
L 209.036068 167.253189 
L 208.673994 166.943734 
L 208.07008 167.638799 
L 207.595442 166.885049 
L 207.546798 166.43244 
L 207.359423 166.972845 
L 207.238868 165.603057 
L 206.977593 165.243296 
L 206.421568 165.010007 
L 206.411349 165.498281 
L 206.369102 164.543321 
L 205.828087 165.243261 
L 205.826524 164.756306 
L 205.72793 165.286204 
L 205.496612 164.90635 
L 205.49459 164.416211 
L 205.098513 164.104566 
L 204.725802 164.75243 
L 204.678216 165.747672 
L 204.314722 165.380213 
L 204.005707 164.514827 
L 203.320432 164.28957 
L 202.685479 163.548515 
L 202.629076 163.064908 
L 202.533528 163.614256 
L 202.349097 163.180224 
L 202.180713 163.755318 
L 201.584971 163.479012 
L 201.324006 163.067728 
L 201.216653 164.128704 
L 200.724354 163.311269 
L 200.317185 162.975776 
L 200.291221 163.50246 
L 199.853123 162.641484 
L 199.570774 163.273111 
L 199.41827 162.312523 
L 199.325865 161.842272 
L 199.285624 162.392504 
L 198.335688 161.351001 
L 198.325684 160.816702 
L 197.897121 161.59555 
L 197.682912 162.24163 
L 197.673358 161.710243 
L 197.508791 162.318779 
L 197.472247 161.800778 
L 197.279886 161.373769 
L 197.197227 160.328784 
L 197.121195 160.926853 
L 197.104886 161.481632 
L 196.881406 161.115683 
L 196.732399 160.157155 
L 196.663291 160.777818 
L 196.23474 159.007678 
L 196.028121 160.910579 
L 195.938805 159.880565 
L 195.534183 160.835402 
L 195.48387 160.322104 
L 195.27489 161.646194 
L 195.177718 160.632052 
L 195.177619 161.194229 
L 195.105006 160.715866 
L 194.887362 162.069183 
L 194.76761 161.634734 
L 194.710238 160.567177 
L 194.542735 160.175861 
L 194.200605 161.103658 
L 194.017151 160.718405 
L 193.9852 160.175469 
L 193.680127 159.33464 
L 193.653488 159.947424 
L 193.510346 159.508784 
L 193.236886 161.518683 
L 193.140423 161.035432 
L 192.948949 160.641095 
L 192.725099 159.690514 
L 192.531066 159.30863 
L 192.487541 158.14992 
L 192.196563 157.85575 
L 192.104833 157.343395 
L 191.944384 158.130919 
L 191.750653 157.130302 
L 191.664243 158.47163 
L 191.520881 158.02974 
L 191.442589 156.877614 
L 191.365096 157.592532 
L 191.346639 156.986624 
L 191.055089 155.425161 
L 190.80856 157.006726 
L 190.570648 156.65238 
L 189.986019 156.738537 
L 189.747508 155.742601 
L 189.695861 156.469481 
L 189.616107 155.920294 
L 189.234611 155.770089 
L 189.168177 153.833949 
L 188.94703 154.81473 
L 188.945461 155.492932 
L 188.758524 155.066514 
L 188.724422 153.741324 
L 188.666433 153.82126 
L 188.51668 152.653132 
L 188.428541 152.092619 
L 188.113168 153.325754 
L 188.07571 152.682915 
L 187.72517 156.073612 
L 187.530611 155.718206 
L 187.398773 154.575066 
L 187.305323 154.051752 
L 186.959582 154.036682 
L 186.783091 155.809958 
L 186.096151 156.404488 
L 186.062462 155.759489 
L 185.595364 156.047194 
L 185.449407 155.623492 
L 185.259227 156.743231 
L 185.214936 155.363513 
L 185.115319 156.307986 
L 184.978482 155.852344 
L 184.74578 155.582002 
L 184.740563 154.836121 
L 184.417641 154.78949 
L 184.305699 154.262109 
L 183.626133 154.178331 
L 183.411973 152.219696 
L 183.385769 153.097049 
L 183.342942 152.375388 
L 183.078716 147.911972 
L 182.761627 147.808577 
L 182.710544 146.123102 
L 182.673997 147.131603 
L 182.455609 146.778366 
L 182.311446 145.307143 
L 181.783798 147.711904 
L 181.708064 146.982114 
L 181.517887 146.556382 
L 181.44074 147.718496 
L 181.048704 149.695566 
L 181.043977 150.634571 
L 181.030496 149.745832 
L 180.327222 150.770037 
L 180.206333 149.192828 
L 179.85401 151.132096 
L 179.693964 150.624325 
L 179.389874 150.52281 
L 179.188445 150.106292 
L 179.187652 149.1017 
L 179.094596 151.364327 
L 179.021388 150.57838 
L 178.95793 151.747732 
L 178.821745 151.170982 
L 178.478784 151.233996 
L 178.458708 150.275806 
L 177.954502 149.768902 
L 177.841549 151.169603 
L 177.461485 151.293006 
L 177.373763 152.612888 
L 177.255492 151.929001 
L 176.508704 153.159151 
L 176.351094 151.480583 
L 175.97689 151.573412 
L 175.728285 151.241148 
L 175.696267 149.013 
L 175.551058 148.294229 
L 174.936706 147.850512 
L 174.936642 146.589843 
L 174.777989 145.849814 
L 174.47358 145.581815 
L 174.366586 144.612553 
L 173.22569 147.046246 
L 172.930071 149.345245 
L 172.445402 149.609182 
L 171.679741 149.416896 
L 171.62273 146.704345 
L 171.289443 146.388984 
L 170.607897 144.152364 
L 170.479522 146.227399 
L 170.378753 144.984124 
L 169.953818 144.867579 
L 169.872716 143.471051 
L 169.631772 142.606931 
L 169.508732 144.767945 
L 169.247117 147.362 
L 168.708555 147.521845 
L 168.494441 146.529407 
L 168.389736 145.13003 
L 168.124573 144.279956 
L 167.952234 143.047922 
L 167.946684 141.152015 
L 167.568553 140.67638 
L 167.379691 139.419347 
L 167.319792 137.575116 
L 167.105932 136.305019 
L 166.932799 132.503183 
L 166.524437 131.831623 
L 166.480866 129.559505 
L 166.347482 132.570979 
L 165.85518 132.224508 
L 165.599331 130.775731 
L 165.162516 130.006944 
L 164.797027 128.833311 
L 164.709765 120.275229 
L 164.503659 117.939544 
L 164.453765 121.41535 
L 164.398115 118.406528 
L 163.895794 117.237007 
L 163.414348 115.792589 
L 162.924234 121.540771 
L 162.387492 120.30727 
L 162.244905 117.148863 
L 161.965547 114.384809 
L 161.837875 110.706582 
L 160.70331 111.178308 
L 160.128941 108.929392 
L 160.031549 114.190533 
L 158.937452 123.516017 
L 158.120898 122.608632 
L 157.778839 119.288007 
L 157.712778 114.39598 
L 157.098863 122.28559 
L 155.511701 123.994756 
L 155.133726 120.053616 
L 155.047675 114.354822 
L 154.50123 110.181291 
L 154.080867 104.727605 
L 153.174071 116.188962 
L 152.784647 110.61949 
L 151.201037 125.265085 
L 150.522102 121.003344 
L 149.208391 109.498099 
L 147.737816 105.574631 
L 145.511456 103.368398 
L 144.87663 90.836218 
L 141.189262 88.61828 
L 140.091608 65.571397 
L 137.257529 107.5912 
L 127.392086 126.798109 
L 120.236935 113.271232 
L 107.36308 223.973637 
L 104.637947 188.768556 
L 104.637947 188.768556 
" style="fill:none;stroke:#1f77b4;stroke-dasharray:7.5,2.5;stroke-dashoffset:0;stroke-width:2.5;"/>
   </g>
   <g id="line2d_30">
    <defs>
     <path d="M -6 6 
L 6 -6 
M -6 -6 
L 6 6 
" id="m444673249b" style="stroke:#000000;"/>
    </defs>
    <g clip-path="url(#pd95d3eae2b)">
     <use style="stroke:#000000;" x="368.096702" xlink:href="#m444673249b" y="172.975412"/>
    </g>
   </g>
   <g id="line2d_31">
    <defs>
     <path d="M 0 3 
C 0.795609 3 1.55874 2.683901 2.12132 2.12132 
C 2.683901 1.55874 3 0.795609 3 0 
C 3 -0.795609 2.683901 -1.55874 2.12132 -2.12132 
C 1.55874 -2.683901 0.795609 -3 0 -3 
C -0.795609 -3 -1.55874 -2.683901 -2.12132 -2.12132 
C -2.683901 -1.55874 -3 -0.795609 -3 0 
C -3 0.795609 -2.683901 1.55874 -2.12132 2.12132 
C -1.55874 2.683901 -0.795609 3 0 3 
z
" id="ma3643bbd3f" style="stroke:#ff0000;"/>
    </defs>
    <g clip-path="url(#pd95d3eae2b)">
     <use style="fill:#ff0000;stroke:#ff0000;" x="0" xlink:href="#ma3643bbd3f" y="0"/>
    </g>
   </g>
   <g id="line2d_32">
    <path clip-path="url(#pd95d3eae2b)" d="M 373.581818 171.287649 
L 371.625025 170.979179 
L 371.606355 170.654779 
L 370.081202 170.988739 
L 368.67627 170.764455 
L 368.631245 170.442146 
L 366.50578 170.888644 
L 366.413271 170.568704 
L 365.651521 170.930206 
L 365.084947 170.628362 
L 364.20573 170.988314 
L 364.058706 170.669673 
L 361.891502 171.063069 
L 361.6887 170.744851 
L 359.535825 171.119931 
L 359.272237 170.801631 
L 357.045701 171.164418 
L 356.711251 170.845714 
L 354.364078 171.199209 
L 353.94314 170.879877 
L 351.4059 171.226287 
L 350.873417 170.906169 
L 348.14265 171.246667 
L 347.805857 170.923088 
L 347.719885 170.599842 
L 347.456082 170.936229 
L 346.973945 170.626711 
L 346.942207 170.298713 
L 346.912171 170.62896 
L 346.593187 170.966173 
L 346.070489 170.656835 
L 345.829806 170.991053 
L 345.301516 170.680732 
L 345.111318 171.013154 
L 344.539947 170.376106 
L 344.151409 171.043471 
L 343.597022 170.731734 
L 343.358349 171.064341 
L 342.793172 170.751862 
L 342.482415 171.085321 
L 342.246532 170.763607 
L 342.164461 170.439328 
L 341.869778 170.774052 
L 341.745025 170.122482 
L 341.399618 170.789049 
L 341.255857 170.135148 
L 341.246402 169.803591 
L 340.979667 170.478546 
L 340.59909 170.814203 
L 340.444686 170.493164 
L 340.047256 170.828682 
L 340.026862 170.50109 
L 339.942598 170.831698 
L 339.780981 170.510704 
L 339.352741 170.846325 
L 339.185825 170.525104 
L 338.854493 170.858988 
L 338.822476 170.532211 
L 338.781746 170.862077 
L 338.608642 170.540956 
L 338.322133 170.874076 
L 338.145564 170.552807 
L 337.915952 170.885025 
L 337.736778 170.563649 
L 337.708948 170.893297 
L 337.701706 170.564103 
L 337.612944 170.239327 
L 337.536838 170.572058 
L 337.367334 169.91805 
L 337.326327 170.25234 
L 337.251778 170.914156 
L 337.195521 170.587405 
L 337.089824 170.261399 
L 336.987959 170.923313 
L 336.807031 170.602132 
L 336.637628 170.933471 
L 336.455321 170.612257 
L 336.164416 170.944921 
L 335.978877 170.623639 
L 335.904008 170.953781 
L 335.828097 170.629586 
L 335.587051 170.961571 
L 335.395334 170.640455 
L 334.987262 170.974068 
L 334.790417 170.652849 
L 334.670389 170.983367 
L 334.399042 170.332217 
L 334.300137 170.664509 
L 334.258057 170.336489 
L 334.115933 170.673202 
L 333.553351 171.007902 
L 333.342667 170.686828 
L 332.91088 171.019976 
L 332.804 170.696856 
L 332.621948 171.027737 
L 332.398822 170.706716 
L 331.702718 171.041655 
L 331.551637 170.384876 
L 331.26223 171.051257 
L 330.994923 170.399335 
L 330.990143 170.730251 
L 330.842609 170.406322 
L 330.83599 170.737263 
L 330.323431 171.070314 
L 330.068876 170.748972 
L 329.293167 171.08341 
L 329.145029 170.76101 
L 328.888049 171.091925 
L 328.608517 170.770419 
L 327.417858 171.106384 
L 327.039607 170.462019 
L 326.26055 171.127727 
L 325.402477 170.804912 
L 325.223522 170.478862 
L 325.199744 170.147432 
L 325.015817 170.486526 
L 324.968553 170.817713 
L 324.381632 170.509635 
L 323.621936 170.86636 
L 323.402511 170.545195 
L 323.341849 170.2161 
L 323.121736 170.558086 
L 322.269166 170.91423 
L 321.382294 170.299283 
L 321.282992 169.972275 
L 321.008504 170.320546 
L 320.915807 169.991739 
L 320.590914 170.341975 
L 319.311555 170.729324 
L 319.11192 170.406989 
L 317.579726 170.793074 
L 316.938675 170.481364 
L 316.724359 170.157346 
L 315.80257 170.849662 
L 315.391617 170.52979 
L 314.326227 170.886394 
L 314.063386 170.562018 
L 313.984741 170.230863 
L 312.131222 170.601753 
L 311.480945 170.944154 
L 311.053089 169.953711 
L 310.602757 170.297865 
L 308.58886 170.658917 
L 307.947766 170.997749 
L 307.823433 170.667337 
L 307.446856 170.340885 
L 307.188198 170.67761 
L 306.135307 170.356829 
L 305.667783 170.694978 
L 305.630222 170.361758 
L 305.246864 170.69914 
L 305.224546 170.365621 
L 304.544337 170.705356 
L 304.381635 170.374191 
L 303.999364 170.710985 
L 303.844531 169.707043 
L 303.713986 170.046466 
L 303.599981 169.376006 
L 303.573684 169.71575 
L 303.385389 170.054845 
L 303.319205 169.718831 
L 303.238254 170.056854 
L 303.169775 169.38211 
L 302.732365 169.729678 
L 302.724645 169.391287 
L 302.581229 170.070237 
L 302.477195 169.734884 
L 302.462791 170.07234 
L 302.357788 169.736935 
L 301.95312 170.079944 
L 301.826338 170.417071 
L 301.801317 170.082366 
L 301.430038 170.42249 
L 301.354785 170.087957 
L 300.74948 170.430265 
L 299.946399 170.104932 
L 299.832806 169.770404 
L 299.614272 169.437427 
L 299.549938 169.777312 
L 299.237563 170.11823 
L 299.156306 169.78242 
L 299.109548 170.120383 
L 299.04842 169.784327 
L 299.008718 169.44653 
L 298.701277 169.791011 
L 298.330046 169.461926 
L 298.219128 169.802664 
L 297.591618 170.146924 
L 297.397683 170.484086 
L 297.16881 169.815819 
L 296.953644 170.155235 
L 296.918085 170.491075 
L 296.825905 170.157308 
L 296.596522 169.828973 
L 296.514766 169.493963 
L 296.472515 169.833812 
L 296.109072 170.174526 
L 296.10621 169.837323 
L 296.021927 170.175967 
L 295.965498 170.51191 
L 295.918496 170.177395 
L 295.612843 169.513132 
L 295.24366 169.192458 
L 295.031665 169.878301 
L 295.027643 169.53959 
L 294.756726 169.88446 
L 294.142298 169.223373 
L 294.006081 169.566639 
L 293.981968 169.227033 
L 293.54281 169.576093 
L 293.531562 169.235898 
L 293.449244 169.578566 
L 293.240637 169.246533 
L 293.195388 168.563229 
L 292.999424 168.916302 
L 292.89847 168.233784 
L 292.883952 168.580444 
L 292.839262 168.926734 
L 292.677695 169.27412 
L 292.648021 168.933398 
L 292.491185 169.280557 
L 291.734095 169.976025 
L 291.641437 169.300094 
L 291.400182 169.649741 
L 291.016259 169.994861 
L 290.456552 169.672263 
L 290.336429 170.012895 
L 290.239094 169.337146 
L 290.134658 169.680433 
L 289.982957 169.345955 
L 289.89347 169.688776 
L 289.604011 169.361749 
L 289.601033 169.70233 
L 288.828591 170.051964 
L 288.73819 169.715363 
L 288.645264 170.05546 
L 288.638088 169.716813 
L 288.30514 169.386883 
L 288.106596 169.729866 
L 287.677776 169.062457 
L 287.673965 169.404819 
L 287.574078 168.727343 
L 287.117945 169.091741 
L 286.865386 169.442047 
L 286.791629 169.103765 
L 286.041942 169.468234 
L 285.813223 168.450159 
L 285.684261 168.805545 
L 285.65845 168.462004 
L 285.571527 168.811273 
L 285.21886 168.483247 
L 285.210069 168.136704 
L 284.770872 168.849661 
L 284.663845 168.510163 
L 284.373082 168.866944 
L 283.850144 169.229028 
L 283.251223 168.924598 
L 282.567753 169.308353 
L 281.69112 168.671989 
L 280.836671 169.060998 
L 280.607922 168.726809 
L 280.569877 168.381973 
L 280.051557 169.100457 
L 279.884701 168.765179 
L 279.854264 168.420061 
L 279.7077 168.082294 
L 279.53576 168.787208 
L 279.388466 168.451067 
L 279.08438 168.812 
L 278.796475 168.477582 
L 278.137361 168.849849 
L 278.027926 168.507246 
L 277.729725 168.172502 
L 277.654702 167.826184 
L 277.350552 168.193183 
L 277.237268 167.498003 
L 276.981555 167.862022 
L 276.555433 168.229997 
L 276.402656 168.584469 
L 276.266702 168.24303 
L 275.89301 168.604856 
L 275.557977 168.271702 
L 275.541473 167.921795 
L 275.383104 168.27872 
L 275.169259 167.942477 
L 275.062789 168.298576 
L 274.537137 167.973651 
L 274.477765 167.27507 
L 274.243615 167.644078 
L 274.135722 167.298679 
L 274.07537 167.655905 
L 273.305552 168.033837 
L 273.296882 167.327454 
L 273.058874 168.044311 
L 272.965488 167.697933 
L 272.763293 168.407471 
L 272.203332 168.07818 
L 272.162292 167.731141 
L 271.775538 168.13202 
L 271.381533 167.840614 
L 271.249927 167.155859 
L 271.105622 167.536771 
L 270.613376 167.945119 
L 270.599122 167.592826 
L 270.39326 167.968655 
L 269.912917 166.986631 
L 269.634609 168.090196 
L 269.515301 167.751159 
L 269.251784 168.132051 
L 268.881567 167.466447 
L 268.646036 168.205471 
L 268.533007 167.866774 
L 268.485919 168.226435 
L 268.46006 167.87556 
L 268.436438 167.522593 
L 268.423971 167.880136 
L 268.326818 167.537822 
L 268.193986 167.908748 
L 268.032452 167.218334 
L 267.601779 167.980794 
L 267.540087 167.632896 
L 267.144187 167.346418 
L 267.10313 167.710314 
L 266.951742 167.376398 
L 266.734044 168.468666 
L 266.292363 168.175978 
L 266.115431 167.843885 
L 265.959916 167.151865 
L 265.855744 167.884382 
L 265.459083 167.579858 
L 265.376412 167.94829 
L 265.094947 167.634556 
L 264.851548 168.02893 
L 263.798361 168.526981 
L 263.695514 168.184888 
L 263.306562 167.880961 
L 263.304854 167.521448 
L 262.316305 168.715908 
L 261.897604 168.411752 
L 261.882465 168.056253 
L 261.81864 168.421169 
L 261.707807 168.07613 
L 261.104244 168.852456 
L 260.219053 168.220344 
L 260.133135 167.870208 
L 260.123965 168.23098 
L 259.655575 167.564917 
L 259.627923 167.929141 
L 259.473743 167.582777 
L 259.247484 167.964031 
L 259.236137 167.604044 
L 258.90677 167.994298 
L 258.851295 167.275787 
L 258.789909 167.647259 
L 257.918738 167.016787 
L 257.835349 167.389919 
L 257.824754 167.025629 
L 257.800655 166.660971 
L 257.515975 167.05854 
L 257.439405 167.431411 
L 257.291489 166.35399 
L 257.196855 166.739046 
L 257.120511 166.383409 
L 257.035895 166.766559 
L 256.945737 166.417241 
L 256.542189 166.868398 
L 256.524569 166.503117 
L 256.261364 166.926402 
L 256.044044 166.600766 
L 255.990652 166.979297 
L 255.561367 166.697826 
L 255.382739 167.095809 
L 255.000028 167.51556 
L 254.72829 166.828502 
L 254.114964 167.276052 
L 254.079822 166.911739 
L 253.295918 167.738045 
L 253.097143 167.030648 
L 252.955529 166.319584 
L 252.917484 166.698795 
L 252.592354 167.112278 
L 252.332329 166.776731 
L 252.230729 166.422946 
L 252.134722 166.806904 
L 252.011464 166.448203 
L 251.645696 166.116499 
L 251.590606 165.366687 
L 250.93846 166.570725 
L 250.916205 165.822835 
L 250.903455 166.202218 
L 250.426444 166.624426 
L 250.045529 166.294869 
L 249.202656 166.756254 
L 249.149451 167.134286 
L 248.973803 167.517592 
L 248.510266 167.181535 
L 248.027563 167.586128 
L 248.006834 166.843636 
L 247.941408 167.223158 
L 247.608508 167.619865 
L 247.575578 167.252139 
L 247.212136 166.9344 
L 247.198926 167.308972 
L 247.13108 166.947141 
L 247.085255 166.579654 
L 246.645078 166.27854 
L 246.628705 165.902424 
L 246.562931 166.294114 
L 245.735084 167.516078 
L 245.514449 167.164583 
L 244.826201 166.856325 
L 244.621059 166.503387 
L 244.325991 166.913667 
L 244.024159 166.568956 
L 243.752395 166.972593 
L 243.540531 166.616587 
L 243.252708 167.019581 
L 242.587284 166.703431 
L 242.503483 165.956125 
L 242.296954 165.616861 
L 242.220991 165.247862 
L 242.016337 165.673312 
L 241.636264 165.360826 
L 241.500148 165.770639 
L 241.363859 165.410719 
L 240.957938 165.867832 
L 240.58965 165.170486 
L 239.333888 164.697146 
L 239.051137 165.540577 
L 238.990281 164.773879 
L 238.805089 164.44057 
L 238.758348 164.060262 
L 238.105149 164.620063 
L 237.951122 165.047447 
L 237.765224 164.694692 
L 237.70976 165.100846 
L 237.624927 164.729404 
L 237.5017 165.155242 
L 237.475884 164.767703 
L 237.224232 165.603824 
L 237.213674 165.995607 
L 236.429099 166.515215 
L 236.412069 166.903347 
L 236.238981 166.561253 
L 235.954144 166.987676 
L 235.857639 166.61722 
L 235.613041 166.277385 
L 235.595848 165.499509 
L 235.549209 165.901256 
L 235.368578 165.547348 
L 235.299047 165.950565 
L 234.989626 165.621971 
L 234.679042 166.065109 
L 233.639809 166.603904 
L 233.481719 166.235386 
L 232.635142 166.725372 
L 232.506806 167.12689 
L 231.571758 166.83668 
L 231.448756 167.236111 
L 231.174913 166.881861 
L 231.065033 167.279506 
L 230.551549 166.163043 
L 230.138348 166.985528 
L 230.032677 166.6096 
L 229.673775 166.263624 
L 229.490944 165.894268 
L 229.125246 165.54643 
L 229.111539 165.149701 
L 228.932148 164.775416 
L 228.604087 164.419631 
L 228.454618 164.841723 
L 228.17831 164.477585 
L 228.136448 164.079559 
L 228.102893 164.490647 
L 228.079091 164.896585 
L 227.970283 164.519683 
L 227.71464 164.174949 
L 227.622257 163.78938 
L 227.090975 164.319452 
L 226.833612 163.979802 
L 226.816884 163.575057 
L 226.437411 162.891097 
L 226.160011 162.580926 
L 226.013277 162.21694 
L 225.975107 162.650529 
L 225.933901 162.246899 
L 225.68142 162.76162 
L 225.60107 163.205524 
L 225.404142 162.854552 
L 225.326977 162.041383 
L 225.077278 162.549536 
L 224.966868 162.164781 
L 224.674176 163.092504 
L 224.475939 162.312028 
L 224.335305 162.776948 
L 223.609771 163.397237 
L 223.520984 163.004828 
L 223.311211 162.654901 
L 223.192404 163.116993 
L 223.120507 162.719771 
L 223.107769 163.146788 
L 223.041779 163.586765 
L 222.962279 163.19023 
L 222.694441 162.858399 
L 222.628208 162.028715 
L 222.443935 162.518843 
L 222.443761 162.090909 
L 222.324359 162.983011 
L 222.183405 162.613858 
L 222.180056 162.187268 
L 221.958163 162.705175 
L 221.752338 161.935249 
L 221.646032 161.114697 
L 221.20571 162.166721 
L 221.133241 161.765431 
L 221.03469 162.238485 
L 221.023439 161.809876 
L 221.003968 161.383066 
L 220.650133 163.248641 
L 220.453957 162.889334 
L 220.017147 162.644509 
L 219.937609 162.246629 
L 219.714382 161.921579 
L 219.666732 161.510687 
L 219.471647 162.489525 
L 219.443567 162.069228 
L 219.420258 161.645249 
L 219.168282 161.368261 
L 218.700666 162.080955 
L 218.686194 162.527001 
L 218.094859 162.403162 
L 217.994226 161.569039 
L 217.927885 162.045224 
L 217.800046 161.661739 
L 217.455575 161.375442 
L 217.372397 160.969836 
L 216.894411 161.660805 
L 216.839253 162.134493 
L 216.390137 162.763039 
L 216.372593 161.878906 
L 215.631047 161.733991 
L 215.139018 161.020987 
L 214.894682 160.674551 
L 214.393139 160.46225 
L 214.323231 160.953712 
L 214.254712 160.521788 
L 213.570003 161.237571 
L 213.513462 160.797779 
L 213.277102 160.425888 
L 213.194156 159.521953 
L 212.793917 160.153774 
L 212.631598 160.683818 
L 212.601728 160.227159 
L 212.521812 160.72443 
L 212.506904 160.262098 
L 212.269879 158.464821 
L 212.19967 159.456547 
L 211.886865 159.123731 
L 211.315133 158.91643 
L 211.271633 159.416372 
L 210.967453 159.069368 
L 210.840555 159.602472 
L 210.680076 159.188448 
L 210.57793 159.711179 
L 210.487092 159.26713 
L 210.340537 160.281845 
L 209.924545 160.906507 
L 209.786249 160.005859 
L 209.517622 160.580754 
L 209.459871 161.074662 
L 208.950982 160.779358 
L 208.930168 160.308935 
L 208.820154 160.82366 
L 208.261081 160.551508 
L 207.968788 161.12009 
L 207.233182 160.868093 
L 207.210797 160.393778 
L 207.176079 160.884578 
L 207.120833 160.420587 
L 206.741434 160.050523 
L 206.717601 159.571821 
L 206.701494 160.064381 
L 206.421096 160.628115 
L 206.011735 160.263542 
L 205.842526 159.338497 
L 205.818701 158.852016 
L 205.329977 158.517584 
L 205.32786 159.016319 
L 205.282921 158.532882 
L 205.146824 158.079108 
L 204.858661 159.171042 
L 204.633006 158.260253 
L 204.588612 157.774945 
L 204.515289 158.310298 
L 204.281126 157.393505 
L 204.132672 157.962928 
L 203.672953 158.643327 
L 203.622642 157.652214 
L 203.414263 157.261841 
L 203.379122 156.767636 
L 203.357126 157.297754 
L 203.198436 157.900118 
L 203.025348 157.491598 
L 202.928892 158.056061 
L 202.765036 157.637554 
L 202.720657 158.173667 
L 202.507457 157.812866 
L 202.448053 157.340259 
L 202.239509 156.974128 
L 202.03847 157.614045 
L 201.949857 156.622712 
L 201.846438 157.204538 
L 201.827137 156.691946 
L 201.329245 156.472953 
L 201.158485 157.099809 
L 201.079105 156.624505 
L 200.944408 157.2383 
L 200.836713 156.780431 
L 200.815439 157.321519 
L 200.528558 158.001559 
L 200.525848 157.478933 
L 199.726814 157.459443 
L 199.587239 155.947621 
L 199.246811 155.643519 
L 199.095816 156.288042 
L 198.996025 155.814987 
L 198.975899 156.373121 
L 198.888679 155.887462 
L 198.711695 155.457659 
L 198.504212 156.142727 
L 198.425017 155.648221 
L 198.120648 155.315356 
L 197.674146 154.048001 
L 197.406004 153.798346 
L 197.285477 154.50512 
L 196.910264 154.354047 
L 196.848178 153.848561 
L 196.619032 153.536536 
L 196.596079 152.387146 
L 196.333812 153.279415 
L 196.208004 152.837519 
L 195.509512 154.204862 
L 195.418352 153.712622 
L 195.194932 154.539437 
L 195.040955 153.541332 
L 194.753108 154.493628 
L 194.507315 153.006498 
L 194.447719 153.686978 
L 194.201217 152.782598 
L 194.172811 151.582464 
L 194.144803 152.241626 
L 194.04795 152.982401 
L 193.53552 154.211242 
L 193.393637 153.778732 
L 193.316968 152.642425 
L 193.119492 154.126904 
L 192.693535 153.996742 
L 192.652659 150.879264 
L 192.155872 152.160542 
L 191.928835 151.15261 
L 191.561647 152.895994 
L 191.466526 154.273821 
L 191.386063 154.987663 
L 191.187239 154.573723 
L 191.063491 155.330157 
L 190.938722 154.832847 
L 190.923239 155.476255 
L 190.893062 154.880442 
L 190.500532 154.058264 
L 190.418028 154.79262 
L 190.156776 154.465529 
L 190.093096 153.899182 
L 189.747341 153.683816 
L 189.68219 153.117342 
L 189.673315 153.786681 
L 189.211676 153.117926 
L 188.830657 151.619796 
L 188.59886 153.28614 
L 188.205678 151.767873 
L 187.866126 149.480087 
L 187.819612 150.272258 
L 187.246117 150.448315 
L 187.042568 150.042909 
L 186.788989 149.050625 
L 186.367468 148.384969 
L 186.336337 147.685433 
L 186.145375 149.588462 
L 185.910928 149.313832 
L 185.777105 148.056062 
L 185.775411 147.277917 
L 185.582385 146.912564 
L 185.468568 145.561765 
L 185.189145 146.980315 
L 184.814258 146.985721 
L 184.744528 146.320773 
L 184.566179 145.883877 
L 184.457102 147.761256 
L 184.192928 145.858395 
L 183.995145 144.611095 
L 183.677323 144.486226 
L 183.675228 145.360359 
L 183.452108 145.009139 
L 183.428121 145.932786 
L 183.391728 145.152583 
L 183.344555 144.388879 
L 182.987454 146.133489 
L 181.875069 147.850871 
L 181.682565 147.407899 
L 181.617447 146.659401 
L 181.357342 146.362438 
L 181.207082 144.860623 
L 180.582142 145.407566 
L 180.309062 143.155778 
L 180.156494 142.543611 
L 179.703501 142.6729 
L 179.538244 142.052054 
L 179.19614 141.854912 
L 179.161903 141.940904 
L 179.049299 138.976037 
L 178.781966 138.653553 
L 178.606915 138.035236 
L 178.284676 137.842983 
L 178.073458 139.611477 
L 178.010161 137.472012 
L 177.880335 137.876471 
L 177.549355 137.816106 
L 177.403408 137.097422 
L 177.388533 138.365009 
L 176.876059 138.872737 
L 176.237871 139.748991 
L 176.059686 137.797713 
L 176.005788 136.668946 
L 175.784985 139.984737 
L 175.526602 136.930254 
L 175.496208 138.364644 
L 175.44147 137.22019 
L 175.365034 138.813809 
L 175.224884 136.609729 
L 175.1189 139.668031 
L 174.961229 138.881472 
L 174.956403 137.539442 
L 174.821114 139.362759 
L 174.644632 138.614603 
L 174.625804 137.293982 
L 174.334325 135.473833 
L 173.994824 135.214117 
L 173.693042 134.795629 
L 173.648664 133.419046 
L 173.027426 137.170609 
L 172.902536 136.090787 
L 172.724788 138.272246 
L 172.432247 137.792306 
L 171.904218 138.188616 
L 171.161944 139.302567 
L 170.48735 138.445226 
L 170.420335 136.964573 
L 170.068293 134.739877 
L 169.637798 124.50533 
L 168.487876 133.529555 
L 167.763455 134.416918 
L 167.732682 136.630605 
L 167.172611 136.843414 
L 166.669982 134.559268 
L 166.442518 130.864237 
L 163.618236 140.413721 
L 163.277266 139.280632 
L 162.325767 140.685757 
L 162.053911 139.084334 
L 161.908044 133.879312 
L 160.774015 135.645648 
L 160.524324 133.485149 
L 160.336027 137.563479 
L 160.028682 135.671213 
L 158.425755 139.505151 
L 158.037253 137.667884 
L 156.938275 138.841376 
L 156.494531 136.885202 
L 156.469414 140.999655 
L 155.013369 143.672918 
L 154.432188 142.09738 
L 154.372201 137.862799 
L 153.788503 135.77697 
L 153.41887 132.327079 
L 152.860506 129.35093 
L 151.855293 121.322042 
L 148.379328 130.187198 
L 147.281597 127.044086 
L 145.164943 127.516822 
L 144.587449 106.749362 
L 142.798734 138.948873 
L 131.887927 180.04799 
L 130.785462 172.513118 
L 130.642814 157.588395 
L 125.611874 161.97853 
L 110.439427 207.503149 
L 109.235228 164.840402 
L 109.235228 164.840402 
" style="fill:none;stroke:#ff7f0e;stroke-dasharray:2500,2.5;stroke-dashoffset:0;stroke-width:2.5;"/>
   </g>
   <g id="line2d_33">
    <g clip-path="url(#pd95d3eae2b)">
     <use style="stroke:#000000;" x="373.581818" xlink:href="#m444673249b" y="171.287649"/>
    </g>
   </g>
   <g id="line2d_34">
    <g clip-path="url(#pd95d3eae2b)">
     <use style="fill:#ff0000;stroke:#ff0000;" x="0" xlink:href="#ma3643bbd3f" y="0"/>
    </g>
   </g>
   <g id="patch_3">
    <path d="M 54 252 
L 54 34.56 
" style="fill:none;stroke:#000000;stroke-linecap:square;stroke-linejoin:miter;stroke-width:0.8;"/>
   </g>
   <g id="patch_4">
    <path d="M 388.8 252 
L 388.8 34.56 
" style="fill:none;stroke:#000000;stroke-linecap:square;stroke-linejoin:miter;stroke-width:0.8;"/>
   </g>
   <g id="patch_5">
    <path d="M 54 252 
L 388.8 252 
" style="fill:none;stroke:#000000;stroke-linecap:square;stroke-linejoin:miter;stroke-width:0.8;"/>
   </g>
   <g id="patch_6">
    <path d="M 54 34.56 
L 388.8 34.56 
" style="fill:none;stroke:#000000;stroke-linecap:square;stroke-linejoin:miter;stroke-width:0.8;"/>
   </g>
   <g id="text_11">
    <!-- GCV function for $\ell_1$ trend filter ($\sigma = 0.1$) -->
    <defs>
     <path id="DejaVuSans-32"/>
     <path d="M 37.109375 75.984375 
L 37.109375 68.5 
L 28.515625 68.5 
Q 23.6875 68.5 21.796875 66.546875 
Q 19.921875 64.59375 19.921875 59.515625 
L 19.921875 54.6875 
L 34.71875 54.6875 
L 34.71875 47.703125 
L 19.921875 47.703125 
L 19.921875 0 
L 10.890625 0 
L 10.890625 47.703125 
L 2.296875 47.703125 
L 2.296875 54.6875 
L 10.890625 54.6875 
L 10.890625 58.5 
Q 10.890625 67.625 15.140625 71.796875 
Q 19.390625 75.984375 28.609375 75.984375 
z
" id="DejaVuSans-102"/>
     <path d="M 8.5 21.578125 
L 8.5 54.6875 
L 17.484375 54.6875 
L 17.484375 21.921875 
Q 17.484375 14.15625 20.5 10.265625 
Q 23.53125 6.390625 29.59375 6.390625 
Q 36.859375 6.390625 41.078125 11.03125 
Q 45.3125 15.671875 45.3125 23.6875 
L 45.3125 54.6875 
L 54.296875 54.6875 
L 54.296875 0 
L 45.3125 0 
L 45.3125 8.40625 
Q 42.046875 3.421875 37.71875 1 
Q 33.40625 -1.421875 27.6875 -1.421875 
Q 18.265625 -1.421875 13.375 4.4375 
Q 8.5 10.296875 8.5 21.578125 
z
M 31.109375 56 
z
" id="DejaVuSans-117"/>
     <path d="M 54.890625 33.015625 
L 54.890625 0 
L 45.90625 0 
L 45.90625 32.71875 
Q 45.90625 40.484375 42.875 44.328125 
Q 39.84375 48.1875 33.796875 48.1875 
Q 26.515625 48.1875 22.3125 43.546875 
Q 18.109375 38.921875 18.109375 30.90625 
L 18.109375 0 
L 9.078125 0 
L 9.078125 54.6875 
L 18.109375 54.6875 
L 18.109375 46.1875 
Q 21.34375 51.125 25.703125 53.5625 
Q 30.078125 56 35.796875 56 
Q 45.21875 56 50.046875 50.171875 
Q 54.890625 44.34375 54.890625 33.015625 
z
" id="DejaVuSans-110"/>
     <path d="M 48.78125 52.59375 
L 48.78125 44.1875 
Q 44.96875 46.296875 41.140625 47.34375 
Q 37.3125 48.390625 33.40625 48.390625 
Q 24.65625 48.390625 19.8125 42.84375 
Q 14.984375 37.3125 14.984375 27.296875 
Q 14.984375 17.28125 19.8125 11.734375 
Q 24.65625 6.203125 33.40625 6.203125 
Q 37.3125 6.203125 41.140625 7.25 
Q 44.96875 8.296875 48.78125 10.40625 
L 48.78125 2.09375 
Q 45.015625 0.34375 40.984375 -0.53125 
Q 36.96875 -1.421875 32.421875 -1.421875 
Q 20.0625 -1.421875 12.78125 6.34375 
Q 5.515625 14.109375 5.515625 27.296875 
Q 5.515625 40.671875 12.859375 48.328125 
Q 20.21875 56 33.015625 56 
Q 37.15625 56 41.109375 55.140625 
Q 45.0625 54.296875 48.78125 52.59375 
z
" id="DejaVuSans-99"/>
     <path d="M 18.3125 70.21875 
L 18.3125 54.6875 
L 36.8125 54.6875 
L 36.8125 47.703125 
L 18.3125 47.703125 
L 18.3125 18.015625 
Q 18.3125 11.328125 20.140625 9.421875 
Q 21.96875 7.515625 27.59375 7.515625 
L 36.8125 7.515625 
L 36.8125 0 
L 27.59375 0 
Q 17.1875 0 13.234375 3.875 
Q 9.28125 7.765625 9.28125 18.015625 
L 9.28125 47.703125 
L 2.6875 47.703125 
L 2.6875 54.6875 
L 9.28125 54.6875 
L 9.28125 70.21875 
z
" id="DejaVuSans-116"/>
     <path d="M 9.421875 54.6875 
L 18.40625 54.6875 
L 18.40625 0 
L 9.421875 0 
z
M 9.421875 75.984375 
L 18.40625 75.984375 
L 18.40625 64.59375 
L 9.421875 64.59375 
z
" id="DejaVuSans-105"/>
     <path d="M 30.609375 48.390625 
Q 23.390625 48.390625 19.1875 42.75 
Q 14.984375 37.109375 14.984375 27.296875 
Q 14.984375 17.484375 19.15625 11.84375 
Q 23.34375 6.203125 30.609375 6.203125 
Q 37.796875 6.203125 41.984375 11.859375 
Q 46.1875 17.53125 46.1875 27.296875 
Q 46.1875 37.015625 41.984375 42.703125 
Q 37.796875 48.390625 30.609375 48.390625 
z
M 30.609375 56 
Q 42.328125 56 49.015625 48.375 
Q 55.71875 40.765625 55.71875 27.296875 
Q 55.71875 13.875 49.015625 6.21875 
Q 42.328125 -1.421875 30.609375 -1.421875 
Q 18.84375 -1.421875 12.171875 6.21875 
Q 5.515625 13.875 5.515625 27.296875 
Q 5.515625 40.765625 12.171875 48.375 
Q 18.84375 56 30.609375 56 
z
" id="DejaVuSans-111"/>
     <path d="M 41.109375 46.296875 
Q 39.59375 47.171875 37.8125 47.578125 
Q 36.03125 48 33.890625 48 
Q 26.265625 48 22.1875 43.046875 
Q 18.109375 38.09375 18.109375 28.8125 
L 18.109375 0 
L 9.078125 0 
L 9.078125 54.6875 
L 18.109375 54.6875 
L 18.109375 46.1875 
Q 20.953125 51.171875 25.484375 53.578125 
Q 30.03125 56 36.53125 56 
Q 37.453125 56 38.578125 55.875 
Q 39.703125 55.765625 41.0625 55.515625 
z
" id="DejaVuSans-114"/>
     <path d="M 14.84375 13.09375 
Q 16.84375 3.328125 21.09375 3.328125 
Q 23.921875 3.328125 27.59375 8.9375 
L 34.078125 8.9375 
Q 31.15625 3.953125 27.734375 1.375 
Q 24.03125 -1.421875 20.609375 -1.421875 
Q 12.984375 -1.421875 9.90625 5.375 
L 6.25 0 
L -1.375 0 
Q 3.90625 7.171875 7.8125 13.875 
Q 7.328125 17.671875 7.328125 21.828125 
Q 7.328125 29.25 8.84375 36.671875 
Q 14.546875 64.546875 19.625 70.265625 
Q 23.140625 74.21875 29.15625 74.21875 
Q 35.25 74.21875 35.25 65.765625 
Q 35.203125 61.96875 34.328125 57.421875 
Q 30.8125 38.8125 14.84375 13.09375 
z
M 14.796875 25.875 
Q 23.921875 42.875 26.703125 56.453125 
Q 28.171875 63.625 28.171875 65.484375 
Q 28.171875 68.84375 26.953125 68.84375 
Q 21.625 64.59375 16.890625 39.3125 
Q 15.578125 32.234375 14.796875 25.875 
z
" id="DejaVuSans-Oblique-8467"/>
     <path d="M 56.203125 29.59375 
L 56.203125 25.203125 
L 14.890625 25.203125 
Q 15.484375 15.921875 20.484375 11.0625 
Q 25.484375 6.203125 34.421875 6.203125 
Q 39.59375 6.203125 44.453125 7.46875 
Q 49.3125 8.734375 54.109375 11.28125 
L 54.109375 2.78125 
Q 49.265625 0.734375 44.1875 -0.34375 
Q 39.109375 -1.421875 33.890625 -1.421875 
Q 20.796875 -1.421875 13.15625 6.1875 
Q 5.515625 13.8125 5.515625 26.8125 
Q 5.515625 40.234375 12.765625 48.109375 
Q 20.015625 56 32.328125 56 
Q 43.359375 56 49.78125 48.890625 
Q 56.203125 41.796875 56.203125 29.59375 
z
M 47.21875 32.234375 
Q 47.125 39.59375 43.09375 43.984375 
Q 39.0625 48.390625 32.421875 48.390625 
Q 24.90625 48.390625 20.390625 44.140625 
Q 15.875 39.890625 15.1875 32.171875 
z
" id="DejaVuSans-101"/>
     <path d="M 45.40625 46.390625 
L 45.40625 75.984375 
L 54.390625 75.984375 
L 54.390625 0 
L 45.40625 0 
L 45.40625 8.203125 
Q 42.578125 3.328125 38.25 0.953125 
Q 33.9375 -1.421875 27.875 -1.421875 
Q 17.96875 -1.421875 11.734375 6.484375 
Q 5.515625 14.40625 5.515625 27.296875 
Q 5.515625 40.1875 11.734375 48.09375 
Q 17.96875 56 27.875 56 
Q 33.9375 56 38.25 53.625 
Q 42.578125 51.265625 45.40625 46.390625 
z
M 14.796875 27.296875 
Q 14.796875 17.390625 18.875 11.75 
Q 22.953125 6.109375 30.078125 6.109375 
Q 37.203125 6.109375 41.296875 11.75 
Q 45.40625 17.390625 45.40625 27.296875 
Q 45.40625 37.203125 41.296875 42.84375 
Q 37.203125 48.484375 30.078125 48.484375 
Q 22.953125 48.484375 18.875 42.84375 
Q 14.796875 37.203125 14.796875 27.296875 
z
" id="DejaVuSans-100"/>
     <path d="M 9.421875 75.984375 
L 18.40625 75.984375 
L 18.40625 0 
L 9.421875 0 
z
" id="DejaVuSans-108"/>
     <path d="M 34.671875 47.5625 
Q 27.25 47.5625 22.21875 42.1875 
Q 16.890625 36.578125 15.140625 27.296875 
Q 13.1875 17.484375 16.3125 11.8125 
Q 19.390625 6.203125 26.65625 6.203125 
Q 33.84375 6.203125 39.109375 11.859375 
Q 44.4375 17.53125 46.34375 27.296875 
Q 48.046875 36.234375 45.015625 42.1875 
Q 42.1875 47.5625 34.671875 47.5625 
z
M 36.078125 54.734375 
L 65.921875 54.6875 
L 64.15625 45.703125 
L 54.109375 45.703125 
Q 57.90625 38.09375 55.859375 27.296875 
Q 53.21875 13.875 45.0625 6.25 
Q 36.859375 -1.421875 25.140625 -1.421875 
Q 13.375 -1.421875 8.203125 6.25 
Q 3.03125 13.875 5.671875 27.296875 
Q 8.25 40.765625 16.40625 48.390625 
Q 23.1875 54.734375 36.078125 54.734375 
z
" id="DejaVuSans-Oblique-963"/>
     <path d="M 10.59375 45.40625 
L 73.1875 45.40625 
L 73.1875 37.203125 
L 10.59375 37.203125 
z
M 10.59375 25.484375 
L 73.1875 25.484375 
L 73.1875 17.1875 
L 10.59375 17.1875 
z
" id="DejaVuSans-61"/>
     <path d="M 10.6875 12.40625 
L 21 12.40625 
L 21 0 
L 10.6875 0 
z
" id="DejaVuSans-46"/>
    </defs>
    <g transform="translate(103.44 28.56)scale(0.12 -0.12)">
     <use transform="translate(0 0.015625)" xlink:href="#DejaVuSans-71"/>
     <use transform="translate(77.490234 0.015625)" xlink:href="#DejaVuSans-67"/>
     <use transform="translate(147.314453 0.015625)" xlink:href="#DejaVuSans-86"/>
     <use transform="translate(215.722656 0.015625)" xlink:href="#DejaVuSans-32"/>
     <use transform="translate(247.509766 0.015625)" xlink:href="#DejaVuSans-102"/>
     <use transform="translate(282.714844 0.015625)" xlink:href="#DejaVuSans-117"/>
     <use transform="translate(346.09375 0.015625)" xlink:href="#DejaVuSans-110"/>
     <use transform="translate(409.472656 0.015625)" xlink:href="#DejaVuSans-99"/>
     <use transform="translate(464.453125 0.015625)" xlink:href="#DejaVuSans-116"/>
     <use transform="translate(503.662109 0.015625)" xlink:href="#DejaVuSans-105"/>
     <use transform="translate(531.445312 0.015625)" xlink:href="#DejaVuSans-111"/>
     <use transform="translate(592.626953 0.015625)" xlink:href="#DejaVuSans-110"/>
     <use transform="translate(656.005859 0.015625)" xlink:href="#DejaVuSans-32"/>
     <use transform="translate(687.792969 0.015625)" xlink:href="#DejaVuSans-102"/>
     <use transform="translate(722.998047 0.015625)" xlink:href="#DejaVuSans-111"/>
     <use transform="translate(784.179688 0.015625)" xlink:href="#DejaVuSans-114"/>
     <use transform="translate(825.292969 0.015625)" xlink:href="#DejaVuSans-32"/>
     <use transform="translate(857.080078 0.015625)" xlink:href="#DejaVuSans-Oblique-8467"/>
     <use transform="translate(898.388672 -16.390625)scale(0.7)" xlink:href="#DejaVuSans-49"/>
     <use transform="translate(945.65918 0.015625)" xlink:href="#DejaVuSans-32"/>
     <use transform="translate(977.446289 0.015625)" xlink:href="#DejaVuSans-116"/>
     <use transform="translate(1016.655273 0.015625)" xlink:href="#DejaVuSans-114"/>
     <use transform="translate(1057.768555 0.015625)" xlink:href="#DejaVuSans-101"/>
     <use transform="translate(1119.291992 0.015625)" xlink:href="#DejaVuSans-110"/>
     <use transform="translate(1182.670898 0.015625)" xlink:href="#DejaVuSans-100"/>
     <use transform="translate(1246.147461 0.015625)" xlink:href="#DejaVuSans-32"/>
     <use transform="translate(1277.93457 0.015625)" xlink:href="#DejaVuSans-102"/>
     <use transform="translate(1313.139648 0.015625)" xlink:href="#DejaVuSans-105"/>
     <use transform="translate(1340.922852 0.015625)" xlink:href="#DejaVuSans-108"/>
     <use transform="translate(1368.706055 0.015625)" xlink:href="#DejaVuSans-116"/>
     <use transform="translate(1407.915039 0.015625)" xlink:href="#DejaVuSans-101"/>
     <use transform="translate(1469.438477 0.015625)" xlink:href="#DejaVuSans-114"/>
     <use transform="translate(1510.551758 0.015625)" xlink:href="#DejaVuSans-32"/>
     <use transform="translate(1542.338867 0.015625)" xlink:href="#DejaVuSans-40"/>
     <use transform="translate(1581.352539 0.015625)" xlink:href="#DejaVuSans-Oblique-963"/>
     <use transform="translate(1664.213867 0.015625)" xlink:href="#DejaVuSans-61"/>
     <use transform="translate(1767.485352 0.015625)" xlink:href="#DejaVuSans-48"/>
     <use transform="translate(1831.108398 0.015625)" xlink:href="#DejaVuSans-46"/>
     <use transform="translate(1862.895508 0.015625)" xlink:href="#DejaVuSans-49"/>
     <use transform="translate(1926.518555 0.015625)" xlink:href="#DejaVuSans-41"/>
    </g>
   </g>
   <g id="legend_1">
    <g id="line2d_35">
     <path d="M 273.36 50.278125 
L 321.36 50.278125 
" style="fill:none;stroke:#1f77b4;stroke-dasharray:7.5,2.5;stroke-dashoffset:0;stroke-width:2.5;"/>
    </g>
    <g id="line2d_36"/>
    <g id="text_12">
     <!-- state $x_1$ -->
     <defs>
      <path d="M 44.28125 53.078125 
L 44.28125 44.578125 
Q 40.484375 46.53125 36.375 47.5 
Q 32.28125 48.484375 27.875 48.484375 
Q 21.1875 48.484375 17.84375 46.4375 
Q 14.5 44.390625 14.5 40.28125 
Q 14.5 37.15625 16.890625 35.375 
Q 19.28125 33.59375 26.515625 31.984375 
L 29.59375 31.296875 
Q 39.15625 29.25 43.1875 25.515625 
Q 47.21875 21.78125 47.21875 15.09375 
Q 47.21875 7.46875 41.1875 3.015625 
Q 35.15625 -1.421875 24.609375 -1.421875 
Q 20.21875 -1.421875 15.453125 -0.5625 
Q 10.6875 0.296875 5.421875 2 
L 5.421875 11.28125 
Q 10.40625 8.6875 15.234375 7.390625 
Q 20.0625 6.109375 24.8125 6.109375 
Q 31.15625 6.109375 34.5625 8.28125 
Q 37.984375 10.453125 37.984375 14.40625 
Q 37.984375 18.0625 35.515625 20.015625 
Q 33.0625 21.96875 24.703125 23.78125 
L 21.578125 24.515625 
Q 13.234375 26.265625 9.515625 29.90625 
Q 5.8125 33.546875 5.8125 39.890625 
Q 5.8125 47.609375 11.28125 51.796875 
Q 16.75 56 26.8125 56 
Q 31.78125 56 36.171875 55.265625 
Q 40.578125 54.546875 44.28125 53.078125 
z
" id="DejaVuSans-115"/>
      <path d="M 34.28125 27.484375 
Q 23.390625 27.484375 19.1875 25 
Q 14.984375 22.515625 14.984375 16.5 
Q 14.984375 11.71875 18.140625 8.90625 
Q 21.296875 6.109375 26.703125 6.109375 
Q 34.1875 6.109375 38.703125 11.40625 
Q 43.21875 16.703125 43.21875 25.484375 
L 43.21875 27.484375 
z
M 52.203125 31.203125 
L 52.203125 0 
L 43.21875 0 
L 43.21875 8.296875 
Q 40.140625 3.328125 35.546875 0.953125 
Q 30.953125 -1.421875 24.3125 -1.421875 
Q 15.921875 -1.421875 10.953125 3.296875 
Q 6 8.015625 6 15.921875 
Q 6 25.140625 12.171875 29.828125 
Q 18.359375 34.515625 30.609375 34.515625 
L 43.21875 34.515625 
L 43.21875 35.40625 
Q 43.21875 41.609375 39.140625 45 
Q 35.0625 48.390625 27.6875 48.390625 
Q 23 48.390625 18.546875 47.265625 
Q 14.109375 46.140625 10.015625 43.890625 
L 10.015625 52.203125 
Q 14.9375 54.109375 19.578125 55.046875 
Q 24.21875 56 28.609375 56 
Q 40.484375 56 46.34375 49.84375 
Q 52.203125 43.703125 52.203125 31.203125 
z
" id="DejaVuSans-97"/>
      <path d="M 60.015625 54.6875 
L 34.90625 27.875 
L 50.296875 0 
L 39.984375 0 
L 28.421875 21.6875 
L 8.296875 0 
L -2.59375 0 
L 24.3125 28.8125 
L 10.015625 54.6875 
L 20.3125 54.6875 
L 30.8125 34.90625 
L 49.125 54.6875 
z
" id="DejaVuSans-Oblique-120"/>
     </defs>
     <g transform="translate(330.96 54.478125)scale(0.12 -0.12)">
      <use transform="translate(0 0.78125)" xlink:href="#DejaVuSans-115"/>
      <use transform="translate(52.099609 0.78125)" xlink:href="#DejaVuSans-116"/>
      <use transform="translate(91.308594 0.78125)" xlink:href="#DejaVuSans-97"/>
      <use transform="translate(152.587891 0.78125)" xlink:href="#DejaVuSans-116"/>
      <use transform="translate(191.796875 0.78125)" xlink:href="#DejaVuSans-101"/>
      <use transform="translate(253.320312 0.78125)" xlink:href="#DejaVuSans-32"/>
      <use transform="translate(285.107422 0.78125)" xlink:href="#DejaVuSans-Oblique-120"/>
      <use transform="translate(344.287109 -15.625)scale(0.7)" xlink:href="#DejaVuSans-49"/>
     </g>
    </g>
    <g id="line2d_37">
     <path d="M 273.36 67.891875 
L 321.36 67.891875 
" style="fill:none;stroke:#ff7f0e;stroke-dasharray:2500,2.5;stroke-dashoffset:0;stroke-width:2.5;"/>
    </g>
    <g id="line2d_38"/>
    <g id="text_13">
     <!-- state $x_2$ -->
     <g transform="translate(330.96 72.091875)scale(0.12 -0.12)">
      <use transform="translate(0 0.78125)" xlink:href="#DejaVuSans-115"/>
      <use transform="translate(52.099609 0.78125)" xlink:href="#DejaVuSans-116"/>
      <use transform="translate(91.308594 0.78125)" xlink:href="#DejaVuSans-97"/>
      <use transform="translate(152.587891 0.78125)" xlink:href="#DejaVuSans-116"/>
      <use transform="translate(191.796875 0.78125)" xlink:href="#DejaVuSans-101"/>
      <use transform="translate(253.320312 0.78125)" xlink:href="#DejaVuSans-32"/>
      <use transform="translate(285.107422 0.78125)" xlink:href="#DejaVuSans-Oblique-120"/>
      <use transform="translate(344.287109 -15.625)scale(0.7)" xlink:href="#DejaVuSans-50"/>
     </g>
    </g>
   </g>
  </g>
 </g>
 <defs>
  <clipPath id="pd95d3eae2b">
   <rect height="217.44" width="334.8" x="54" y="34.56"/>
  </clipPath>
 </defs>
</svg>
