<?xml version="1.0" encoding="utf-8" standalone="no"?>
<!DOCTYPE svg PUBLIC "-//W3C//DTD SVG 1.1//EN"
  "http://www.w3.org/Graphics/SVG/1.1/DTD/svg11.dtd">
<!-- Created with matplotlib (https://matplotlib.org/) -->
<svg height="288pt" version="1.1" viewBox="0 0 432 288" width="432pt" xmlns="http://www.w3.org/2000/svg" xmlns:xlink="http://www.w3.org/1999/xlink">
 <defs>
  <style type="text/css">
*{stroke-linecap:butt;stroke-linejoin:round;}
  </style>
 </defs>
 <g id="figure_1">
  <g id="patch_1">
   <path d="M 0 288 
L 432 288 
L 432 0 
L 0 0 
z
" style="fill:#ffffff;"/>
  </g>
  <g id="axes_1">
   <g id="patch_2">
    <path d="M 54 252 
L 388.8 252 
L 388.8 34.56 
L 54 34.56 
z
" style="fill:#ffffff;"/>
   </g>
   <g id="matplotlib.axis_1">
    <g id="xtick_1">
     <g id="line2d_1">
      <defs>
       <path d="M 0 0 
L 0 3.5 
" id="m26c19fcfc8" style="stroke:#000000;stroke-width:0.8;"/>
      </defs>
      <g>
       <use style="stroke:#000000;stroke-width:0.8;" x="81.146797" xlink:href="#m26c19fcfc8" y="252"/>
      </g>
     </g>
     <g id="text_1">
      <!-- $\mathdefault{10^{-7}}$ -->
      <defs>
       <path d="M 12.40625 8.296875 
L 28.515625 8.296875 
L 28.515625 63.921875 
L 10.984375 60.40625 
L 10.984375 69.390625 
L 28.421875 72.90625 
L 38.28125 72.90625 
L 38.28125 8.296875 
L 54.390625 8.296875 
L 54.390625 0 
L 12.40625 0 
z
" id="DejaVuSans-49"/>
       <path d="M 31.78125 66.40625 
Q 24.171875 66.40625 20.328125 58.90625 
Q 16.5 51.421875 16.5 36.375 
Q 16.5 21.390625 20.328125 13.890625 
Q 24.171875 6.390625 31.78125 6.390625 
Q 39.453125 6.390625 43.28125 13.890625 
Q 47.125 21.390625 47.125 36.375 
Q 47.125 51.421875 43.28125 58.90625 
Q 39.453125 66.40625 31.78125 66.40625 
z
M 31.78125 74.21875 
Q 44.046875 74.21875 50.515625 64.515625 
Q 56.984375 54.828125 56.984375 36.375 
Q 56.984375 17.96875 50.515625 8.265625 
Q 44.046875 -1.421875 31.78125 -1.421875 
Q 19.53125 -1.421875 13.0625 8.265625 
Q 6.59375 17.96875 6.59375 36.375 
Q 6.59375 54.828125 13.0625 64.515625 
Q 19.53125 74.21875 31.78125 74.21875 
z
" id="DejaVuSans-48"/>
       <path d="M 10.59375 35.5 
L 73.1875 35.5 
L 73.1875 27.203125 
L 10.59375 27.203125 
z
" id="DejaVuSans-8722"/>
       <path d="M 8.203125 72.90625 
L 55.078125 72.90625 
L 55.078125 68.703125 
L 28.609375 0 
L 18.3125 0 
L 43.21875 64.59375 
L 8.203125 64.59375 
z
" id="DejaVuSans-55"/>
      </defs>
      <g transform="translate(67.046797 268.118125)scale(0.12 -0.12)">
       <use transform="translate(0 0.684375)" xlink:href="#DejaVuSans-49"/>
       <use transform="translate(63.623047 0.684375)" xlink:href="#DejaVuSans-48"/>
       <use transform="translate(128.203125 38.965625)scale(0.7)" xlink:href="#DejaVuSans-8722"/>
       <use transform="translate(186.855469 38.965625)scale(0.7)" xlink:href="#DejaVuSans-55"/>
      </g>
     </g>
    </g>
    <g id="xtick_2">
     <g id="line2d_2">
      <g>
       <use style="stroke:#000000;stroke-width:0.8;" x="134.50309" xlink:href="#m26c19fcfc8" y="252"/>
      </g>
     </g>
     <g id="text_2">
      <!-- $\mathdefault{10^{-5}}$ -->
      <defs>
       <path d="M 10.796875 72.90625 
L 49.515625 72.90625 
L 49.515625 64.59375 
L 19.828125 64.59375 
L 19.828125 46.734375 
Q 21.96875 47.46875 24.109375 47.828125 
Q 26.265625 48.1875 28.421875 48.1875 
Q 40.625 48.1875 47.75 41.5 
Q 54.890625 34.8125 54.890625 23.390625 
Q 54.890625 11.625 47.5625 5.09375 
Q 40.234375 -1.421875 26.90625 -1.421875 
Q 22.3125 -1.421875 17.546875 -0.640625 
Q 12.796875 0.140625 7.71875 1.703125 
L 7.71875 11.625 
Q 12.109375 9.234375 16.796875 8.0625 
Q 21.484375 6.890625 26.703125 6.890625 
Q 35.15625 6.890625 40.078125 11.328125 
Q 45.015625 15.765625 45.015625 23.390625 
Q 45.015625 31 40.078125 35.4375 
Q 35.15625 39.890625 26.703125 39.890625 
Q 22.75 39.890625 18.8125 39.015625 
Q 14.890625 38.140625 10.796875 36.28125 
z
" id="DejaVuSans-53"/>
      </defs>
      <g transform="translate(120.40309 268.118125)scale(0.12 -0.12)">
       <use transform="translate(0 0.684375)" xlink:href="#DejaVuSans-49"/>
       <use transform="translate(63.623047 0.684375)" xlink:href="#DejaVuSans-48"/>
       <use transform="translate(128.203125 38.965625)scale(0.7)" xlink:href="#DejaVuSans-8722"/>
       <use transform="translate(186.855469 38.965625)scale(0.7)" xlink:href="#DejaVuSans-53"/>
      </g>
     </g>
    </g>
    <g id="xtick_3">
     <g id="line2d_3">
      <g>
       <use style="stroke:#000000;stroke-width:0.8;" x="187.859384" xlink:href="#m26c19fcfc8" y="252"/>
      </g>
     </g>
     <g id="text_3">
      <!-- $\mathdefault{10^{-3}}$ -->
      <defs>
       <path d="M 40.578125 39.3125 
Q 47.65625 37.796875 51.625 33 
Q 55.609375 28.21875 55.609375 21.1875 
Q 55.609375 10.40625 48.1875 4.484375 
Q 40.765625 -1.421875 27.09375 -1.421875 
Q 22.515625 -1.421875 17.65625 -0.515625 
Q 12.796875 0.390625 7.625 2.203125 
L 7.625 11.71875 
Q 11.71875 9.328125 16.59375 8.109375 
Q 21.484375 6.890625 26.8125 6.890625 
Q 36.078125 6.890625 40.9375 10.546875 
Q 45.796875 14.203125 45.796875 21.1875 
Q 45.796875 27.640625 41.28125 31.265625 
Q 36.765625 34.90625 28.71875 34.90625 
L 20.21875 34.90625 
L 20.21875 43.015625 
L 29.109375 43.015625 
Q 36.375 43.015625 40.234375 45.921875 
Q 44.09375 48.828125 44.09375 54.296875 
Q 44.09375 59.90625 40.109375 62.90625 
Q 36.140625 65.921875 28.71875 65.921875 
Q 24.65625 65.921875 20.015625 65.03125 
Q 15.375 64.15625 9.8125 62.3125 
L 9.8125 71.09375 
Q 15.4375 72.65625 20.34375 73.4375 
Q 25.25 74.21875 29.59375 74.21875 
Q 40.828125 74.21875 47.359375 69.109375 
Q 53.90625 64.015625 53.90625 55.328125 
Q 53.90625 49.265625 50.4375 45.09375 
Q 46.96875 40.921875 40.578125 39.3125 
z
" id="DejaVuSans-51"/>
      </defs>
      <g transform="translate(173.759384 268.118125)scale(0.12 -0.12)">
       <use transform="translate(0 0.765625)" xlink:href="#DejaVuSans-49"/>
       <use transform="translate(63.623047 0.765625)" xlink:href="#DejaVuSans-48"/>
       <use transform="translate(128.203125 39.046875)scale(0.7)" xlink:href="#DejaVuSans-8722"/>
       <use transform="translate(186.855469 39.046875)scale(0.7)" xlink:href="#DejaVuSans-51"/>
      </g>
     </g>
    </g>
    <g id="xtick_4">
     <g id="line2d_4">
      <g>
       <use style="stroke:#000000;stroke-width:0.8;" x="241.215677" xlink:href="#m26c19fcfc8" y="252"/>
      </g>
     </g>
     <g id="text_4">
      <!-- $\mathdefault{10^{-1}}$ -->
      <g transform="translate(227.115677 268.118125)scale(0.12 -0.12)">
       <use transform="translate(0 0.684375)" xlink:href="#DejaVuSans-49"/>
       <use transform="translate(63.623047 0.684375)" xlink:href="#DejaVuSans-48"/>
       <use transform="translate(128.203125 38.965625)scale(0.7)" xlink:href="#DejaVuSans-8722"/>
       <use transform="translate(186.855469 38.965625)scale(0.7)" xlink:href="#DejaVuSans-49"/>
      </g>
     </g>
    </g>
    <g id="xtick_5">
     <g id="line2d_5">
      <g>
       <use style="stroke:#000000;stroke-width:0.8;" x="294.571971" xlink:href="#m26c19fcfc8" y="252"/>
      </g>
     </g>
     <g id="text_5">
      <!-- $\mathdefault{10^{1}}$ -->
      <g transform="translate(284.011971 268.118125)scale(0.12 -0.12)">
       <use transform="translate(0 0.684375)" xlink:href="#DejaVuSans-49"/>
       <use transform="translate(63.623047 0.684375)" xlink:href="#DejaVuSans-48"/>
       <use transform="translate(128.203125 38.965625)scale(0.7)" xlink:href="#DejaVuSans-49"/>
      </g>
     </g>
    </g>
    <g id="xtick_6">
     <g id="line2d_6">
      <g>
       <use style="stroke:#000000;stroke-width:0.8;" x="347.928264" xlink:href="#m26c19fcfc8" y="252"/>
      </g>
     </g>
     <g id="text_6">
      <!-- $\mathdefault{10^{3}}$ -->
      <g transform="translate(337.368264 268.118125)scale(0.12 -0.12)">
       <use transform="translate(0 0.765625)" xlink:href="#DejaVuSans-49"/>
       <use transform="translate(63.623047 0.765625)" xlink:href="#DejaVuSans-48"/>
       <use transform="translate(128.203125 39.046875)scale(0.7)" xlink:href="#DejaVuSans-51"/>
      </g>
     </g>
    </g>
    <g id="text_7">
     <!-- $\lambda$ -->
     <defs>
      <path d="M 36.71875 67.4375 
L 48.828125 0 
L 39.3125 0 
L 31.84375 40.4375 
L 5.125 0 
L -4.390625 0 
L 29.734375 52.4375 
L 28.03125 62.109375 
Q 26.953125 68.265625 21.734375 68.265625 
L 17.046875 68.265625 
L 18.5 75.984375 
L 24.21875 75.875 
Q 35.203125 75.734375 36.71875 67.4375 
z
" id="DejaVuSans-Oblique-955"/>
     </defs>
     <g transform="translate(217.8 283.731875)scale(0.12 -0.12)">
      <use transform="translate(0 0.015625)" xlink:href="#DejaVuSans-Oblique-955"/>
     </g>
    </g>
   </g>
   <g id="matplotlib.axis_2">
    <g id="ytick_1">
     <g id="line2d_7">
      <defs>
       <path d="M 0 0 
L -3.5 0 
" id="ma6f9e19cee" style="stroke:#000000;stroke-width:0.8;"/>
      </defs>
      <g>
       <use style="stroke:#000000;stroke-width:0.8;" x="54" xlink:href="#ma6f9e19cee" y="223.553625"/>
      </g>
     </g>
     <g id="text_8">
      <!-- $\mathdefault{10^{-6}}$ -->
      <defs>
       <path d="M 33.015625 40.375 
Q 26.375 40.375 22.484375 35.828125 
Q 18.609375 31.296875 18.609375 23.390625 
Q 18.609375 15.53125 22.484375 10.953125 
Q 26.375 6.390625 33.015625 6.390625 
Q 39.65625 6.390625 43.53125 10.953125 
Q 47.40625 15.53125 47.40625 23.390625 
Q 47.40625 31.296875 43.53125 35.828125 
Q 39.65625 40.375 33.015625 40.375 
z
M 52.59375 71.296875 
L 52.59375 62.3125 
Q 48.875 64.0625 45.09375 64.984375 
Q 41.3125 65.921875 37.59375 65.921875 
Q 27.828125 65.921875 22.671875 59.328125 
Q 17.53125 52.734375 16.796875 39.40625 
Q 19.671875 43.65625 24.015625 45.921875 
Q 28.375 48.1875 33.59375 48.1875 
Q 44.578125 48.1875 50.953125 41.515625 
Q 57.328125 34.859375 57.328125 23.390625 
Q 57.328125 12.15625 50.6875 5.359375 
Q 44.046875 -1.421875 33.015625 -1.421875 
Q 20.359375 -1.421875 13.671875 8.265625 
Q 6.984375 17.96875 6.984375 36.375 
Q 6.984375 53.65625 15.1875 63.9375 
Q 23.390625 74.21875 37.203125 74.21875 
Q 40.921875 74.21875 44.703125 73.484375 
Q 48.484375 72.75 52.59375 71.296875 
z
" id="DejaVuSans-54"/>
      </defs>
      <g transform="translate(18.8 228.112687)scale(0.12 -0.12)">
       <use transform="translate(0 0.765625)" xlink:href="#DejaVuSans-49"/>
       <use transform="translate(63.623047 0.765625)" xlink:href="#DejaVuSans-48"/>
       <use transform="translate(128.203125 39.046875)scale(0.7)" xlink:href="#DejaVuSans-8722"/>
       <use transform="translate(186.855469 39.046875)scale(0.7)" xlink:href="#DejaVuSans-54"/>
      </g>
     </g>
    </g>
    <g id="ytick_2">
     <g id="line2d_8">
      <g>
       <use style="stroke:#000000;stroke-width:0.8;" x="54" xlink:href="#ma6f9e19cee" y="129.056812"/>
      </g>
     </g>
     <g id="text_9">
      <!-- $\mathdefault{10^{-5}}$ -->
      <g transform="translate(18.8 133.615875)scale(0.12 -0.12)">
       <use transform="translate(0 0.684375)" xlink:href="#DejaVuSans-49"/>
       <use transform="translate(63.623047 0.684375)" xlink:href="#DejaVuSans-48"/>
       <use transform="translate(128.203125 38.965625)scale(0.7)" xlink:href="#DejaVuSans-8722"/>
       <use transform="translate(186.855469 38.965625)scale(0.7)" xlink:href="#DejaVuSans-53"/>
      </g>
     </g>
    </g>
    <g id="ytick_3">
     <g id="line2d_9">
      <g>
       <use style="stroke:#000000;stroke-width:0.8;" x="54" xlink:href="#ma6f9e19cee" y="34.56"/>
      </g>
     </g>
     <g id="text_10">
      <!-- $\mathdefault{10^{-4}}$ -->
      <defs>
       <path d="M 37.796875 64.3125 
L 12.890625 25.390625 
L 37.796875 25.390625 
z
M 35.203125 72.90625 
L 47.609375 72.90625 
L 47.609375 25.390625 
L 58.015625 25.390625 
L 58.015625 17.1875 
L 47.609375 17.1875 
L 47.609375 0 
L 37.796875 0 
L 37.796875 17.1875 
L 4.890625 17.1875 
L 4.890625 26.703125 
z
" id="DejaVuSans-52"/>
      </defs>
      <g transform="translate(18.8 39.119062)scale(0.12 -0.12)">
       <use transform="translate(0 0.684375)" xlink:href="#DejaVuSans-49"/>
       <use transform="translate(63.623047 0.684375)" xlink:href="#DejaVuSans-48"/>
       <use transform="translate(128.203125 38.965625)scale(0.7)" xlink:href="#DejaVuSans-8722"/>
       <use transform="translate(186.855469 38.965625)scale(0.7)" xlink:href="#DejaVuSans-52"/>
      </g>
     </g>
    </g>
    <g id="ytick_4">
     <g id="line2d_10">
      <defs>
       <path d="M 0 0 
L -2 0 
" id="m10d5fcd8a1" style="stroke:#000000;stroke-width:0.6;"/>
      </defs>
      <g>
       <use style="stroke:#000000;stroke-width:0.6;" x="54" xlink:href="#m10d5fcd8a1" y="252"/>
      </g>
     </g>
    </g>
    <g id="ytick_5">
     <g id="line2d_11">
      <g>
       <use style="stroke:#000000;stroke-width:0.6;" x="54" xlink:href="#m10d5fcd8a1" y="244.517625"/>
      </g>
     </g>
    </g>
    <g id="ytick_6">
     <g id="line2d_12">
      <g>
       <use style="stroke:#000000;stroke-width:0.6;" x="54" xlink:href="#m10d5fcd8a1" y="238.191366"/>
      </g>
     </g>
    </g>
    <g id="ytick_7">
     <g id="line2d_13">
      <g>
       <use style="stroke:#000000;stroke-width:0.6;" x="54" xlink:href="#m10d5fcd8a1" y="232.711312"/>
      </g>
     </g>
    </g>
    <g id="ytick_8">
     <g id="line2d_14">
      <g>
       <use style="stroke:#000000;stroke-width:0.6;" x="54" xlink:href="#m10d5fcd8a1" y="227.877562"/>
      </g>
     </g>
    </g>
    <g id="ytick_9">
     <g id="line2d_15">
      <g>
       <use style="stroke:#000000;stroke-width:0.6;" x="54" xlink:href="#m10d5fcd8a1" y="195.10725"/>
      </g>
     </g>
    </g>
    <g id="ytick_10">
     <g id="line2d_16">
      <g>
       <use style="stroke:#000000;stroke-width:0.6;" x="54" xlink:href="#m10d5fcd8a1" y="178.467187"/>
      </g>
     </g>
    </g>
    <g id="ytick_11">
     <g id="line2d_17">
      <g>
       <use style="stroke:#000000;stroke-width:0.6;" x="54" xlink:href="#m10d5fcd8a1" y="166.660875"/>
      </g>
     </g>
    </g>
    <g id="ytick_12">
     <g id="line2d_18">
      <g>
       <use style="stroke:#000000;stroke-width:0.6;" x="54" xlink:href="#m10d5fcd8a1" y="157.503188"/>
      </g>
     </g>
    </g>
    <g id="ytick_13">
     <g id="line2d_19">
      <g>
       <use style="stroke:#000000;stroke-width:0.6;" x="54" xlink:href="#m10d5fcd8a1" y="150.020812"/>
      </g>
     </g>
    </g>
    <g id="ytick_14">
     <g id="line2d_20">
      <g>
       <use style="stroke:#000000;stroke-width:0.6;" x="54" xlink:href="#m10d5fcd8a1" y="143.694554"/>
      </g>
     </g>
    </g>
    <g id="ytick_15">
     <g id="line2d_21">
      <g>
       <use style="stroke:#000000;stroke-width:0.6;" x="54" xlink:href="#m10d5fcd8a1" y="138.2145"/>
      </g>
     </g>
    </g>
    <g id="ytick_16">
     <g id="line2d_22">
      <g>
       <use style="stroke:#000000;stroke-width:0.6;" x="54" xlink:href="#m10d5fcd8a1" y="133.380749"/>
      </g>
     </g>
    </g>
    <g id="ytick_17">
     <g id="line2d_23">
      <g>
       <use style="stroke:#000000;stroke-width:0.6;" x="54" xlink:href="#m10d5fcd8a1" y="100.610437"/>
      </g>
     </g>
    </g>
    <g id="ytick_18">
     <g id="line2d_24">
      <g>
       <use style="stroke:#000000;stroke-width:0.6;" x="54" xlink:href="#m10d5fcd8a1" y="83.970375"/>
      </g>
     </g>
    </g>
    <g id="ytick_19">
     <g id="line2d_25">
      <g>
       <use style="stroke:#000000;stroke-width:0.6;" x="54" xlink:href="#m10d5fcd8a1" y="72.164062"/>
      </g>
     </g>
    </g>
    <g id="ytick_20">
     <g id="line2d_26">
      <g>
       <use style="stroke:#000000;stroke-width:0.6;" x="54" xlink:href="#m10d5fcd8a1" y="63.006375"/>
      </g>
     </g>
    </g>
    <g id="ytick_21">
     <g id="line2d_27">
      <g>
       <use style="stroke:#000000;stroke-width:0.6;" x="54" xlink:href="#m10d5fcd8a1" y="55.524"/>
      </g>
     </g>
    </g>
    <g id="ytick_22">
     <g id="line2d_28">
      <g>
       <use style="stroke:#000000;stroke-width:0.6;" x="54" xlink:href="#m10d5fcd8a1" y="49.197741"/>
      </g>
     </g>
    </g>
    <g id="ytick_23">
     <g id="line2d_29">
      <g>
       <use style="stroke:#000000;stroke-width:0.6;" x="54" xlink:href="#m10d5fcd8a1" y="43.717687"/>
      </g>
     </g>
    </g>
    <g id="ytick_24">
     <g id="line2d_30">
      <g>
       <use style="stroke:#000000;stroke-width:0.6;" x="54" xlink:href="#m10d5fcd8a1" y="38.883937"/>
      </g>
     </g>
    </g>
    <g id="text_11">
     <!-- GCV($\lambda$) -->
     <defs>
      <path d="M 59.515625 10.40625 
L 59.515625 29.984375 
L 43.40625 29.984375 
L 43.40625 38.09375 
L 69.28125 38.09375 
L 69.28125 6.78125 
Q 63.578125 2.734375 56.6875 0.65625 
Q 49.8125 -1.421875 42 -1.421875 
Q 24.90625 -1.421875 15.25 8.5625 
Q 5.609375 18.5625 5.609375 36.375 
Q 5.609375 54.25 15.25 64.234375 
Q 24.90625 74.21875 42 74.21875 
Q 49.125 74.21875 55.546875 72.453125 
Q 61.96875 70.703125 67.390625 67.28125 
L 67.390625 56.78125 
Q 61.921875 61.421875 55.765625 63.765625 
Q 49.609375 66.109375 42.828125 66.109375 
Q 29.4375 66.109375 22.71875 58.640625 
Q 16.015625 51.171875 16.015625 36.375 
Q 16.015625 21.625 22.71875 14.15625 
Q 29.4375 6.6875 42.828125 6.6875 
Q 48.046875 6.6875 52.140625 7.59375 
Q 56.25 8.5 59.515625 10.40625 
z
" id="DejaVuSans-71"/>
      <path d="M 64.40625 67.28125 
L 64.40625 56.890625 
Q 59.421875 61.53125 53.78125 63.8125 
Q 48.140625 66.109375 41.796875 66.109375 
Q 29.296875 66.109375 22.65625 58.46875 
Q 16.015625 50.828125 16.015625 36.375 
Q 16.015625 21.96875 22.65625 14.328125 
Q 29.296875 6.6875 41.796875 6.6875 
Q 48.140625 6.6875 53.78125 8.984375 
Q 59.421875 11.28125 64.40625 15.921875 
L 64.40625 5.609375 
Q 59.234375 2.09375 53.4375 0.328125 
Q 47.65625 -1.421875 41.21875 -1.421875 
Q 24.65625 -1.421875 15.125 8.703125 
Q 5.609375 18.84375 5.609375 36.375 
Q 5.609375 53.953125 15.125 64.078125 
Q 24.65625 74.21875 41.21875 74.21875 
Q 47.75 74.21875 53.53125 72.484375 
Q 59.328125 70.75 64.40625 67.28125 
z
" id="DejaVuSans-67"/>
      <path d="M 28.609375 0 
L 0.78125 72.90625 
L 11.078125 72.90625 
L 34.1875 11.53125 
L 57.328125 72.90625 
L 67.578125 72.90625 
L 39.796875 0 
z
" id="DejaVuSans-86"/>
      <path d="M 31 75.875 
Q 24.46875 64.65625 21.28125 53.65625 
Q 18.109375 42.671875 18.109375 31.390625 
Q 18.109375 20.125 21.3125 9.0625 
Q 24.515625 -2 31 -13.1875 
L 23.1875 -13.1875 
Q 15.875 -1.703125 12.234375 9.375 
Q 8.59375 20.453125 8.59375 31.390625 
Q 8.59375 42.28125 12.203125 53.3125 
Q 15.828125 64.359375 23.1875 75.875 
z
" id="DejaVuSans-40"/>
      <path d="M 8.015625 75.875 
L 15.828125 75.875 
Q 23.140625 64.359375 26.78125 53.3125 
Q 30.421875 42.28125 30.421875 31.390625 
Q 30.421875 20.453125 26.78125 9.375 
Q 23.140625 -1.703125 15.828125 -13.1875 
L 8.015625 -13.1875 
Q 14.5 -2 17.703125 9.0625 
Q 20.90625 20.125 20.90625 31.390625 
Q 20.90625 42.671875 17.703125 53.65625 
Q 14.5 64.65625 8.015625 75.875 
z
" id="DejaVuSans-41"/>
     </defs>
     <g transform="translate(12.304375 164.46)rotate(-90)scale(0.12 -0.12)">
      <use transform="translate(0 0.015625)" xlink:href="#DejaVuSans-71"/>
      <use transform="translate(77.490234 0.015625)" xlink:href="#DejaVuSans-67"/>
      <use transform="translate(147.314453 0.015625)" xlink:href="#DejaVuSans-86"/>
      <use transform="translate(215.722656 0.015625)" xlink:href="#DejaVuSans-40"/>
      <use transform="translate(254.736328 0.015625)" xlink:href="#DejaVuSans-Oblique-955"/>
      <use transform="translate(313.916016 0.015625)" xlink:href="#DejaVuSans-41"/>
     </g>
    </g>
   </g>
   <g id="line2d_31">
    <path clip-path="url(#pd333efa7e3)" d="M 357.875976 148.562006 
L 354.82017 161.702921 
L 353.268777 167.88505 
L 351.830128 173.089851 
L 350.47955 177.529075 
L 349.19806 181.362216 
L 347.970757 184.710427 
L 346.785403 187.667212 
L 345.632614 190.303469 
L 344.506218 192.67201 
L 343.401978 194.814099 
L 341.596713 198.050822 
L 340.169406 200.213487 
L 338.469836 202.690302 
L 336.970863 204.527812 
L 335.89746 205.790275 
L 335.32914 206.518008 
L 334.814799 206.980829 
L 334.267889 207.656034 
L 333.721867 208.105267 
L 333.192619 208.736735 
L 332.612389 209.170698 
L 332.098607 209.764959 
L 331.481118 210.181853 
L 330.976679 210.745744 
L 330.317965 211.143412 
L 329.829033 211.67851 
L 329.124839 212.055044 
L 328.655226 212.564114 
L 327.90077 212.917755 
L 327.449547 213.404683 
L 326.63904 213.733543 
L 326.208395 214.201048 
L 325.335006 214.503255 
L 324.925516 214.954159 
L 323.980896 215.227771 
L 323.592494 215.664647 
L 322.56625 215.90757 
L 322.203624 216.332112 
L 321.083057 216.542323 
L 320.750377 216.956288 
L 319.519578 217.13177 
L 319.221605 217.536814 
L 317.860193 217.675534 
L 317.601605 218.073247 
L 316.082639 218.173099 
L 315.867735 218.564993 
L 314.154215 218.623711 
L 313.983215 219.011316 
L 312.021215 219.02625 
L 311.914552 219.410244 
L 311.611884 218.721306 
L 311.36862 218.431495 
L 311.265727 219.230467 
L 310.937459 218.898654 
L 310.844177 218.163819 
L 310.541384 218.661521 
L 310.529652 218.280797 
L 310.514943 219.055394 
L 310.479762 218.677738 
L 310.180958 219.104661 
L 309.945366 218.804907 
L 309.94063 218.420672 
L 309.698154 219.265839 
L 309.643866 218.890956 
L 309.442469 219.301642 
L 309.218815 218.994347 
L 309.196301 218.618066 
L 309.005605 219.068774 
L 308.836747 219.47434 
L 308.760724 219.102036 
L 308.702861 219.493372 
L 308.61332 218.755568 
L 308.289121 219.248019 
L 308.282566 218.864278 
L 308.257264 219.258556 
L 307.927437 219.680654 
L 307.923389 218.910837 
L 307.077823 219.87263 
L 307.04472 219.112865 
L 306.601249 219.630339 
L 306.581135 219.251597 
L 306.53468 219.644348 
L 306.184214 220.06183 
L 306.14457 219.295087 
L 305.741393 219.793736 
L 305.696191 219.035329 
L 305.664405 219.434537 
L 305.466455 219.844136 
L 305.1196 220.257359 
L 304.891022 219.93246 
L 304.874676 219.551181 
L 304.762674 219.965655 
L 304.679533 219.606471 
L 304.544548 220.399201 
L 304.350233 220.034814 
L 304.334121 219.65071 
L 304.321299 220.038259 
L 304.080706 220.440223 
L 304.060566 219.672164 
L 304.004561 220.063845 
L 303.644617 219.793943 
L 303.528283 220.208161 
L 303.483291 219.836313 
L 303.276203 220.243621 
L 303.273921 219.858014 
L 303.258311 220.247017 
L 302.827945 220.668055 
L 302.753306 219.916512 
L 302.532516 220.349046 
L 302.403798 220.001037 
L 302.298426 220.408549 
L 302.280229 220.029611 
L 302.181009 220.435582 
L 301.807864 220.849506 
L 301.72456 220.089732 
L 301.392482 220.503885 
L 301.299211 220.143045 
L 301.232338 220.54172 
L 301.207716 220.165062 
L 300.801017 220.624052 
L 300.7735 219.860379 
L 300.712513 220.263964 
L 300.350314 220.678797 
L 300.281583 221.067902 
L 300.240777 220.691074 
L 299.865676 221.100709 
L 299.707489 220.36259 
L 299.545653 220.774511 
L 299.369163 220.428472 
L 299.264346 220.830663 
L 299.229235 220.45746 
L 299.117915 220.86039 
L 298.801989 221.264741 
L 298.752517 220.504214 
L 298.352228 220.916856 
L 298.315117 220.541449 
L 298.161426 220.93765 
L 298.039977 220.576373 
L 297.886735 220.983526 
L 297.844549 220.613329 
L 297.404871 221.05695 
L 297.361195 220.687324 
L 297.350334 221.074952 
L 297.295703 220.698999 
L 296.919154 221.108261 
L 296.829835 221.497616 
L 296.770505 221.127075 
L 296.28701 221.537972 
L 296.146517 220.79727 
L 295.917909 221.209608 
L 295.671936 220.86381 
L 295.556661 221.262424 
L 295.501198 220.897156 
L 295.366678 221.297685 
L 294.858151 221.707661 
L 294.78991 220.955209 
L 294.215437 221.370029 
L 294.138316 220.994736 
L 294.066192 221.019842 
L 293.429164 221.464023 
L 293.360837 221.103287 
L 293.243807 221.499687 
L 293.088131 221.133322 
L 292.667025 221.538391 
L 292.597904 221.175241 
L 291.900741 221.591563 
L 291.790482 222.001991 
L 291.619036 221.630668 
L 291.269513 221.282961 
L 291.054122 221.684349 
L 290.969021 221.329665 
L 290.212671 222.14303 
L 290.109762 221.788339 
L 289.256385 222.204118 
L 289.157204 221.4695 
L 288.757527 221.879517 
L 288.647838 221.126972 
L 287.985699 221.639551 
L 287.955995 222.0288 
L 287.853514 221.673964 
L 287.745896 222.071493 
L 287.592935 221.325414 
L 287.384332 221.749796 
L 286.84732 222.18825 
L 286.61727 221.450454 
L 286.581325 221.069177 
L 286.269063 221.509677 
L 286.121017 221.166428 
L 286.031138 221.570701 
L 285.272501 222.06604 
L 285.200981 221.692602 
L 285.11331 222.09232 
L 284.741276 222.507371 
L 284.330196 221.81105 
L 283.941701 222.622911 
L 283.856885 222.250911 
L 283.664704 222.650925 
L 282.978643 222.338695 
L 282.701188 221.979928 
L 282.660534 221.596686 
L 282.429035 221.26288 
L 282.369223 221.66443 
L 281.344355 222.15358 
L 281.311942 222.544366 
L 281.068178 222.943383 
L 280.921207 222.57544 
L 280.661775 222.974812 
L 280.386894 222.64503 
L 280.335053 223.033957 
L 279.538651 222.706109 
L 279.507857 223.093751 
L 279.162386 222.351983 
L 278.504001 222.781541 
L 278.155289 222.458361 
L 277.626467 222.876922 
L 277.375531 222.512152 
L 276.578253 222.940525 
L 276.361944 223.333595 
L 275.734929 222.246217 
L 275.632861 222.643729 
L 274.447511 223.080526 
L 274.414894 223.467622 
L 274.199275 222.707026 
L 274.10248 222.323628 
L 273.943789 222.719507 
L 273.513471 223.122177 
L 273.279182 222.74609 
L 273.240692 222.360943 
L 272.702665 222.035499 
L 272.500948 222.439447 
L 272.459858 222.831285 
L 272.445126 222.44278 
L 271.12492 222.88878 
L 271.092774 222.501483 
L 270.877248 222.899586 
L 269.94471 222.156508 
L 269.501225 222.953806 
L 269.271438 222.582588 
L 269.221271 221.803447 
L 268.83264 222.620792 
L 268.646383 223.016021 
L 267.703238 222.652863 
L 267.529048 223.046921 
L 267.446895 222.661168 
L 266.827965 223.064993 
L 266.778642 223.454112 
L 265.731454 223.088022 
L 265.637723 222.701986 
L 265.397496 223.096495 
L 265.022295 222.725527 
L 265.016656 222.334028 
L 264.708187 221.959341 
L 264.457467 222.756819 
L 264.033586 223.153174 
L 263.620142 222.769412 
L 263.574416 222.380125 
L 263.527368 222.773444 
L 263.383766 223.165328 
L 262.293083 222.803148 
L 262.096742 222.420271 
L 262.039946 222.03501 
L 261.882666 222.435668 
L 261.86621 222.044391 
L 261.527617 222.452649 
L 261.370608 222.072992 
L 260.823525 222.488734 
L 260.753723 222.104321 
L 260.432001 222.510169 
L 260.279103 222.133191 
L 260.254492 221.742724 
L 260.237499 222.140106 
L 260.132702 221.758897 
L 259.837494 222.185314 
L 259.382464 222.609586 
L 259.298041 221.833768 
L 259.161268 222.633036 
L 259.137452 222.241712 
L 259.031526 221.85721 
L 258.96866 222.258883 
L 258.707117 221.891914 
L 258.654123 221.102759 
L 258.383046 221.531553 
L 258.382489 221.132222 
L 258.324502 221.933928 
L 258.078976 222.345947 
L 257.768167 221.972637 
L 257.474922 222.386244 
L 257.462633 222.780533 
L 257.335308 222.402714 
L 257.27074 222.799646 
L 257.082993 222.420829 
L 257.055478 222.029266 
L 256.550967 222.462329 
L 256.475315 221.678337 
L 256.347498 222.082195 
L 256.124498 221.699685 
L 255.886751 222.505023 
L 255.851595 222.113083 
L 255.821826 222.509983 
L 255.711709 222.908194 
L 255.280395 222.533904 
L 255.125706 222.155718 
L 254.682982 222.962257 
L 254.636085 222.572761 
L 254.43721 222.973416 
L 253.682047 222.619646 
L 253.594375 221.437192 
L 253.551296 221.840658 
L 253.003076 222.255662 
L 252.838632 221.870902 
L 252.8346 221.471855 
L 252.776178 221.875686 
L 252.680185 222.276 
L 252.483609 221.886888 
L 252.468475 222.284966 
L 252.396174 221.893051 
L 252.342887 222.292653 
L 252.089295 222.697454 
L 251.219203 223.111734 
L 251.139205 222.723358 
L 251.101734 223.117847 
L 250.543255 222.743832 
L 250.137451 221.586407 
L 250.037517 221.199439 
L 249.8522 221.61894 
L 249.215635 222.076041 
L 249.204041 221.677725 
L 249.151525 222.081607 
L 248.400051 222.538139 
L 247.87965 222.181951 
L 247.748017 222.589293 
L 247.643417 222.201172 
L 247.395185 221.823553 
L 247.384135 221.423195 
L 247.322244 221.829374 
L 246.978864 222.651751 
L 246.743438 222.272012 
L 246.396948 221.097544 
L 246.380708 221.502114 
L 246.103491 221.123136 
L 245.891378 221.941099 
L 245.48039 222.36087 
L 245.453747 221.962873 
L 245.371759 222.366148 
L 244.231037 222.015401 
L 244.166853 221.616635 
L 243.693477 221.242205 
L 243.690459 220.837136 
L 243.676048 221.243394 
L 243.141456 222.067433 
L 243.106677 221.668016 
L 242.847752 222.077884 
L 242.403345 221.302494 
L 242.273689 221.711578 
L 242.015973 222.122502 
L 241.96322 221.72348 
L 241.598136 222.136206 
L 241.545864 221.736593 
L 241.436616 222.540554 
L 240.428684 222.175356 
L 240.255904 220.565222 
L 240.21007 220.976851 
L 240.100142 220.176221 
L 240.068086 220.589158 
L 239.920655 221.00759 
L 239.917138 220.600903 
L 239.664452 221.027082 
L 239.652543 220.621173 
L 239.630181 221.030609 
L 238.954202 221.47597 
L 238.840407 221.081905 
L 238.726935 221.493526 
L 238.700147 220.684347 
L 238.609539 220.690946 
L 238.578729 220.287974 
L 238.55965 220.700472 
L 238.522337 221.111007 
L 238.261716 221.531583 
L 237.829028 221.159514 
L 237.753539 220.762442 
L 237.705064 221.173514 
L 237.148968 221.608588 
L 237.117654 221.206856 
L 237.04657 221.619605 
L 237.01515 222.024372 
L 236.873536 221.634861 
L 236.529451 222.053718 
L 236.473463 221.655216 
L 236.325306 222.064713 
L 236.191276 221.669983 
L 235.455122 222.100576 
L 235.254067 220.502945 
L 235.122366 221.335341 
L 234.808038 221.756086 
L 234.75783 221.353359 
L 234.20582 220.980122 
L 234.039033 221.395169 
L 233.853743 220.999307 
L 233.79947 220.595019 
L 233.768769 221.00621 
L 233.585341 221.420633 
L 233.549563 221.016485 
L 233.18057 221.851163 
L 233.044514 221.452638 
L 232.822971 221.864387 
L 232.552198 221.480101 
L 232.429423 221.888956 
L 232.134023 221.502268 
L 231.9214 221.913599 
L 231.90992 221.508806 
L 231.432849 220.318518 
L 231.083051 220.753955 
L 231.064931 221.164211 
L 230.738965 220.783104 
L 229.199659 221.659808 
L 229.141702 220.846086 
L 229.038559 221.259602 
L 228.736908 221.675738 
L 228.561534 221.274334 
L 228.133015 220.883246 
L 227.966223 220.498689 
L 227.721943 220.920215 
L 227.711857 221.329987 
L 227.357196 220.937951 
L 227.21542 221.352437 
L 227.204013 220.943696 
L 227.153101 221.355825 
L 226.679628 220.969483 
L 226.488246 220.568075 
L 226.055898 220.189317 
L 225.912305 219.372622 
L 225.743734 220.223548 
L 225.580103 219.825685 
L 225.575729 219.408461 
L 225.45437 219.835518 
L 224.799066 220.282632 
L 224.703289 219.457444 
L 224.526521 220.300802 
L 224.303041 219.897646 
L 224.185718 220.31909 
L 223.733332 219.937736 
L 223.635748 219.110761 
L 223.629251 219.948848 
L 223.619291 220.365056 
L 223.553161 219.954188 
L 223.332633 220.380903 
L 223.287553 219.970344 
L 223.140908 220.393697 
L 222.967837 219.99255 
L 222.751865 220.425198 
L 222.122193 219.642465 
L 222.041193 219.652674 
L 221.980356 219.239201 
L 221.854279 219.673057 
L 221.781585 220.096985 
L 221.546953 219.280697 
L 221.431245 218.872247 
L 221.229985 219.73321 
L 221.043304 219.337182 
L 220.905346 219.769651 
L 220.892536 219.770988 
L 220.797252 218.946824 
L 220.647201 218.131166 
L 220.441837 219.031406 
L 220.020938 219.518112 
L 219.894257 218.696628 
L 219.853957 218.280979 
L 219.798119 218.72126 
L 219.076305 219.261965 
L 218.761592 219.726688 
L 218.516377 219.347587 
L 218.358397 219.789792 
L 217.177555 219.584491 
L 217.163255 219.162781 
L 216.948816 218.783888 
L 216.72794 219.245971 
L 216.578375 218.844809 
L 216.498508 219.283423 
L 216.460721 218.864926 
L 216.434756 219.295289 
L 216.111633 218.948338 
L 215.774367 219.423343 
L 215.516485 218.196848 
L 215.422129 218.644997 
L 215.314086 218.24242 
L 215.311604 218.673831 
L 215.014826 219.143626 
L 214.097859 218.973086 
L 214.002566 218.571812 
L 213.232158 219.189852 
L 213.094088 218.359584 
L 212.924988 218.831927 
L 212.619969 218.483397 
L 212.480619 218.087247 
L 211.871501 218.677987 
L 211.01806 219.282045 
L 210.83568 218.89807 
L 210.485509 218.564237 
L 210.415702 219.017091 
L 210.284459 218.191197 
L 210.201802 218.663158 
L 210.15819 218.245187 
L 210.04348 218.7284 
L 209.956428 218.324777 
L 208.655687 219.171474 
L 207.661922 218.607592 
L 207.632542 218.173803 
L 207.462414 217.779524 
L 207.285049 218.274258 
L 207.091811 217.889351 
L 207.070446 217.449494 
L 206.753974 217.991728 
L 206.68142 217.117626 
L 206.352942 216.775056 
L 206.261844 217.255677 
L 206.137166 216.392441 
L 205.934008 216.923045 
L 205.740238 216.093933 
L 205.727773 216.556214 
L 205.693328 216.113305 
L 205.597356 217.060592 
L 205.566526 217.972819 
L 205.26921 216.274763 
L 205.2259 215.833278 
L 204.9636 216.841174 
L 204.94412 217.301757 
L 204.52107 217.864924 
L 204.300723 217.471916 
L 204.045968 217.980831 
L 203.760608 217.600944 
L 203.20086 217.278925 
L 203.045277 216.858142 
L 202.641337 217.40523 
L 202.505613 217.88846 
L 202.192026 217.498118 
L 202.112207 217.057628 
L 202.110736 217.515186 
L 201.698084 216.683157 
L 201.451837 217.191609 
L 201.169073 216.786077 
L 200.690166 217.325589 
L 200.444188 217.82083 
L 200.168191 217.412019 
L 200.086583 216.969034 
L 199.629318 216.66298 
L 199.62678 216.198929 
L 199.425958 216.740118 
L 199.41899 217.204292 
L 199.27024 216.779323 
L 198.796009 216.431347 
L 198.603082 216.035202 
L 198.542001 216.981699 
L 198.364443 217.482296 
L 198.342095 217.025328 
L 198.021523 218.020275 
L 197.929649 217.580405 
L 197.860039 218.053254 
L 197.822339 217.602131 
L 197.573315 217.206759 
L 197.570247 217.66989 
L 197.276187 216.821014 
L 197.25997 216.358309 
L 197.202581 216.842676 
L 197.087673 217.340549 
L 196.597898 217.048663 
L 196.071809 218.561587 
L 196.015531 219.027916 
L 196.008392 218.57192 
L 195.957162 218.123155 
L 195.939804 218.585825 
L 195.34061 218.235614 
L 195.317075 217.777937 
L 194.940243 218.312963 
L 194.936292 217.851409 
L 194.557722 217.492233 
L 194.499477 217.040279 
L 194.340521 217.546318 
L 194.324915 218.014106 
L 194.269924 217.093396 
L 194.044904 217.606203 
L 193.882979 216.726912 
L 193.87881 216.255432 
L 193.712535 216.788853 
L 193.554219 216.38037 
L 193.497717 217.343063 
L 193.241142 216.481669 
L 193.226334 216.010718 
L 193.048153 216.543461 
L 192.981009 216.090763 
L 192.954573 216.574989 
L 192.916964 217.059265 
L 192.583675 217.624884 
L 192.404717 216.732128 
L 191.842517 216.408017 
L 191.810222 215.93919 
L 191.622381 215.513962 
L 191.568066 214.562733 
L 191.306518 214.178802 
L 191.239374 213.713775 
L 191.236314 214.207858 
L 191.03121 215.256201 
L 190.712437 213.927757 
L 190.550043 214.496086 
L 190.519064 214.017917 
L 190.254904 214.631475 
L 190.124284 213.704969 
L 190.037745 213.24867 
L 189.761793 213.872444 
L 189.642832 213.425716 
L 189.378923 213.037889 
L 189.305858 212.565287 
L 188.998917 213.199802 
L 188.982629 212.701879 
L 188.58735 213.368262 
L 188.419247 212.935211 
L 188.332035 211.440386 
L 188.229427 210.983756 
L 188.008673 210.595481 
L 187.675658 210.282882 
L 187.672059 210.809455 
L 187.636622 210.318864 
L 187.414686 210.016694 
L 187.393332 211.088713 
L 187.330881 210.624446 
L 187.257506 211.211385 
L 187.0782 210.852351 
L 187.039239 211.410158 
L 186.830548 211.071447 
L 186.766038 211.647706 
L 186.297993 210.47213 
L 186.288564 211.01162 
L 186.196872 210.036168 
L 186.088973 210.681987 
L 185.875828 210.392019 
L 185.820018 209.922746 
L 185.612848 210.69363 
L 185.577374 211.265419 
L 185.112247 211.210647 
L 184.848401 211.976267 
L 184.746604 211.007517 
L 184.540492 212.267732 
L 184.505716 211.764821 
L 184.355246 211.362693 
L 184.297971 210.873587 
L 184.286396 211.425947 
L 183.935052 212.805479 
L 183.845581 211.81265 
L 183.670615 213.559116 
L 183.61284 213.072705 
L 183.559338 212.044949 
L 183.232586 212.842488 
L 183.152579 211.827109 
L 182.948319 211.461028 
L 182.844493 211.015527 
L 182.842276 209.908621 
L 182.798114 209.957398 
L 182.650091 210.678343 
L 182.602444 210.174192 
L 182.577603 210.757195 
L 182.500155 210.285132 
L 182.412047 212.038149 
L 182.338486 212.651606 
L 182.271126 212.173664 
L 181.816475 212.076813 
L 181.704838 211.08665 
L 181.274663 212.637599 
L 180.896655 212.448477 
L 180.836012 213.054663 
L 180.812569 212.524216 
L 180.767846 211.454546 
L 180.581403 212.17913 
L 180.368465 211.245053 
L 180.34862 211.826095 
L 180.320775 211.286962 
L 180.208072 211.948924 
L 179.854984 212.803696 
L 179.736529 213.449004 
L 179.619594 212.98577 
L 179.568341 213.582029 
L 179.274229 214.347816 
L 179.14146 213.333518 
L 179.086246 212.812884 
L 178.789377 212.462847 
L 178.72808 211.373693 
L 178.668329 211.992674 
L 178.409051 211.624841 
L 178.289668 212.286394 
L 178.038325 213.021044 
L 177.993058 212.483294 
L 177.761664 214.319652 
L 177.593988 214.96984 
L 177.35289 214.558281 
L 177.239515 213.510406 
L 177.123178 212.463709 
L 176.928788 212.044694 
L 176.860853 211.520196 
L 176.434978 211.278843 
L 176.337506 211.931125 
L 176.311302 211.366486 
L 176.144741 210.913141 
L 176.044763 211.575484 
L 176.026037 211.004047 
L 175.930903 210.512657 
L 175.797301 211.242409 
L 175.571946 210.879155 
L 175.521624 210.332676 
L 175.321208 209.932466 
L 175.2112 209.43586 
L 175.185392 208.239873 
L 175.14182 208.902566 
L 174.537275 208.977097 
L 174.207758 209.938645 
L 174.145404 209.389356 
L 174.095556 210.054093 
L 174.046545 209.494111 
L 173.919371 210.242599 
L 173.806428 209.771042 
L 173.796347 210.397417 
L 173.784204 209.79702 
L 173.525799 210.704064 
L 173.470186 211.375193 
L 173.422401 210.817354 
L 173.258231 210.385078 
L 172.80094 211.455192 
L 172.275472 207.130224 
L 172.244511 207.826274 
L 171.409004 209.63203 
L 171.378113 210.308437 
L 171.24125 209.841615 
L 171.090182 211.281547 
L 170.820834 210.959651 
L 170.703709 210.454862 
L 170.697548 211.100409 
L 170.577628 210.596281 
L 170.308405 211.507512 
L 170.090884 211.089295 
L 170.005822 210.535946 
L 169.766163 211.425449 
L 169.636649 210.92118 
L 169.609202 210.303485 
L 169.535655 211.033597 
L 169.442382 209.836354 
L 169.369684 210.570168 
L 169.332581 209.966179 
L 169.195515 210.795804 
L 168.954467 210.468009 
L 168.89144 209.893084 
L 168.56538 209.734594 
L 168.475305 208.534064 
L 168.45219 209.244348 
L 168.276463 210.173356 
L 167.819984 210.209979 
L 167.527467 209.983776 
L 167.50447 209.337589 
L 167.477696 210.058702 
L 167.173215 209.830414 
L 166.959771 209.45031 
L 166.885918 208.865068 
L 166.323634 210.333841 
L 166.228727 209.766902 
L 165.985796 209.389027 
L 165.789708 208.260275 
L 165.688851 209.116264 
L 165.345638 208.217358 
L 165.23647 207.678336 
L 164.839422 209.03192 
L 164.704031 209.938768 
L 164.700706 209.226608 
L 164.639955 208.597743 
L 164.507951 210.238197 
L 164.193062 211.38213 
L 164.040805 210.928915 
L 163.953083 211.784335 
L 163.81455 211.313721 
L 163.166442 211.760822 
L 162.927349 211.483066 
L 162.824672 210.944611 
L 162.784856 211.018558 
L 162.71519 209.672872 
L 162.085744 207.092569 
L 161.818465 206.889544 
L 161.655912 205.653563 
L 161.415661 204.55358 
L 161.128056 202.713919 
L 160.790883 205.93627 
L 160.530871 205.636548 
L 160.1334 204.774212 
L 160.122993 205.636008 
L 159.96641 206.761784 
L 159.84927 206.162701 
L 159.84497 205.330119 
L 159.799398 207.10136 
L 159.787967 206.291861 
L 159.589277 205.881469 
L 159.479863 205.264671 
L 159.41871 203.678008 
L 159.348676 203.837911 
L 159.173874 202.488286 
L 158.960036 202.127067 
L 158.771704 200.820161 
L 158.740768 201.819701 
L 158.577601 203.138552 
L 158.394393 200.887655 
L 158.258868 200.342381 
L 158.051656 199.998921 
L 157.926259 201.3049 
L 157.650306 196.275096 
L 157.358366 198.216281 
L 157.350746 199.234923 
L 157.204989 198.696082 
L 156.950133 194.364137 
L 156.75453 196.084102 
L 156.453431 196.141644 
L 156.427002 195.168311 
L 156.261295 194.716225 
L 156.213946 197.051737 
L 156.211866 195.98663 
L 155.906362 193.906481 
L 155.838901 193.062076 
L 155.448418 193.602849 
L 155.257614 193.248505 
L 155.173647 191.22371 
L 154.883323 193.63741 
L 154.796667 192.802699 
L 154.786207 194.044612 
L 154.605206 193.624165 
L 154.490408 192.89723 
L 154.132647 193.185941 
L 154.062843 195.928663 
L 153.995693 193.772658 
L 153.84533 195.683262 
L 153.70365 192.568747 
L 153.373644 196.581309 
L 153.193544 196.146342 
L 152.938324 199.795322 
L 152.877512 198.843082 
L 152.712279 198.36061 
L 152.382066 201.122919 
L 152.260455 199.158716 
L 152.183378 200.792478 
L 152.120718 199.836829 
L 151.972301 199.295642 
L 151.964685 200.626332 
L 151.686963 200.718848 
L 151.201386 201.787852 
L 151.161538 203.292057 
L 151.070307 202.416232 
L 150.814649 202.360321 
L 150.483422 201.317834 
L 150.363597 197.658415 
L 150.021538 198.01215 
L 149.523185 199.182226 
L 149.445086 198.076991 
L 149.123567 201.340313 
L 149.064047 200.131528 
L 148.835446 199.816872 
L 148.620303 202.537329 
L 148.568309 201.253951 
L 148.068677 202.328823 
L 147.463877 203.922324 
L 147.308132 206.35749 
L 146.860612 207.144731 
L 146.597297 206.893849 
L 146.570488 205.345248 
L 146.275063 205.236131 
L 146.179716 203.991896 
L 146.178591 202.194106 
L 145.7466 202.749814 
L 145.206452 203.829006 
L 144.948784 207.091407 
L 144.686959 202.733569 
L 144.673843 204.784314 
L 144.627655 203.068432 
L 144.367574 206.511128 
L 144.214054 203.384125 
L 144.034717 202.345495 
L 143.921057 200.873198 
L 142.897967 202.713914 
L 141.936348 210.822338 
L 141.666859 210.211317 
L 141.437847 209.289558 
L 140.377676 213.253907 
L 140.111352 212.434556 
L 140.069684 210.165019 
L 139.819006 209.110367 
L 139.799448 206.540178 
L 139.594122 205.055014 
L 138.89774 206.614019 
L 137.8396 207.305549 
L 136.858319 210.467551 
L 136.438799 209.825048 
L 136.063393 208.838141 
L 135.819487 213.94582 
L 135.576219 212.065655 
L 133.502628 222.004451 
L 132.355454 232.933035 
L 132.127725 230.727914 
L 132.11945 226.961973 
L 131.914144 224.288335 
L 130.536952 228.960073 
L 130.360005 225.652318 
L 129.719602 220.202324 
L 128.952776 230.144485 
L 128.735273 226.600491 
L 127.423745 230.022281 
L 126.965337 227.389207 
L 126.290795 237.448364 
L 125.717714 235.496805 
L 125.156214 233.129605 
L 124.331162 232.030999 
L 124.177392 225.936886 
L 123.232945 224.541497 
L 121.641142 226.745591 
L 121.38872 218.794522 
L 120.559994 213.469586 
L 119.388799 208.768273 
L 117.68324 205.29533 
L 117.516355 188.12935 
L 116.928609 168.566082 
L 116.337759 196.233746 
L 116.225246 173.3942 
L 105.662056 214.624564 
L 100.351738 194.98834 
L 100.351738 194.98834 
" style="fill:none;stroke:#1f77b4;stroke-dasharray:7.5,2.5;stroke-dashoffset:0;stroke-width:2.5;"/>
   </g>
   <g id="line2d_32">
    <defs>
     <path d="M -6 6 
L 6 -6 
M -6 -6 
L 6 6 
" id="m29fd1a714f" style="stroke:#000000;"/>
    </defs>
    <g clip-path="url(#pd333efa7e3)">
     <use style="stroke:#000000;" x="293.088131" xlink:href="#m29fd1a714f" y="221.133322"/>
    </g>
   </g>
   <g id="line2d_33">
    <defs>
     <path d="M 0 3 
C 0.795609 3 1.55874 2.683901 2.12132 2.12132 
C 2.683901 1.55874 3 0.795609 3 0 
C 3 -0.795609 2.683901 -1.55874 2.12132 -2.12132 
C 1.55874 -2.683901 0.795609 -3 0 -3 
C -0.795609 -3 -1.55874 -2.683901 -2.12132 -2.12132 
C -2.683901 -1.55874 -3 -0.795609 -3 0 
C -3 0.795609 -2.683901 1.55874 -2.12132 2.12132 
C -1.55874 2.683901 -0.795609 3 0 3 
z
" id="mc7367a6f9f" style="stroke:#ff0000;"/>
    </defs>
    <g clip-path="url(#pd333efa7e3)">
     <use style="fill:#ff0000;stroke:#ff0000;" x="315.034729" xlink:href="#mc7367a6f9f" y="191.705424"/>
    </g>
   </g>
   <g id="line2d_34">
    <path clip-path="url(#pd333efa7e3)" d="M 373.581818 47.632078 
L 368.026165 79.815056 
L 367.832054 80.644111 
L 365.994854 90.395757 
L 363.050591 104.866134 
L 359.786324 119.123814 
L 355.745547 134.568497 
L 353.758743 141.127249 
L 353.162416 143.338974 
L 352.517988 145.142294 
L 351.878973 147.418756 
L 351.275441 149.005668 
L 350.590567 151.340598 
L 350.023411 152.744003 
L 349.288633 155.130561 
L 348.755426 156.375146 
L 347.965751 158.80552 
L 347.466051 159.910033 
L 346.615474 162.375045 
L 346.146899 163.358951 
L 344.790567 166.724787 
L 343.389132 170.005774 
L 341.932897 173.19657 
L 340.409731 176.287924 
L 338.804883 179.265857 
L 337.101754 182.110763 
L 335.464172 184.342681 
L 335.276785 184.800224 
L 334.092694 186.110252 
L 334.024702 186.521857 
L 334.017402 186.15327 
L 333.88999 186.58826 
L 332.451977 190.087107 
L 332.41005 189.775462 
L 332.35198 190.179355 
L 331.804495 191.374684 
L 331.753365 191.135076 
L 331.738577 191.54343 
L 331.57219 191.985299 
L 331.509958 191.700357 
L 331.505257 192.084613 
L 331.462027 191.824718 
L 331.195201 192.195431 
L 330.871979 193.772775 
L 330.787451 193.516349 
L 330.640572 193.947411 
L 329.009132 197.231227 
L 328.93955 197.015561 
L 328.919256 197.425637 
L 328.756934 197.855256 
L 328.641576 197.613686 
L 328.168718 198.360981 
L 327.876674 199.731075 
L 327.70361 199.543931 
L 327.585169 199.957228 
L 326.56937 201.862393 
L 326.390444 201.655935 
L 325.707311 202.655436 
L 325.517742 203.745475 
L 325.257894 203.59233 
L 325.171686 203.993012 
L 324.199541 204.97555 
L 323.923083 205.877488 
L 323.860946 205.541176 
L 323.648207 205.520781 
L 322.884548 207.11273 
L 322.773297 206.897512 
L 322.616877 207.710853 
L 322.433368 207.445398 
L 321.85428 207.916694 
L 321.304498 209.039732 
L 321.268623 208.70264 
L 321.254501 209.0949 
L 321.160565 209.491294 
L 320.930711 209.231856 
L 320.266916 209.698129 
L 319.890103 210.521939 
L 319.674918 210.384403 
L 319.515185 211.201644 
L 319.360147 210.887153 
L 318.955746 210.957467 
L 318.711127 211.598269 
L 317.99829 211.931389 
L 317.698249 212.423886 
L 316.961713 212.729386 
L 316.93407 212.375032 
L 316.818527 212.864531 
L 316.763047 212.540887 
L 316.752183 212.936647 
L 316.734316 212.570513 
L 316.597297 213.075587 
L 316.577758 212.710902 
L 316.569888 213.103921 
L 316.494382 212.800176 
L 316.404998 213.261618 
L 316.38257 212.899546 
L 316.115826 213.751004 
L 316.099695 213.380569 
L 316.069742 213.027596 
L 316.062716 213.419947 
L 315.973443 213.131512 
L 315.810668 213.665687 
L 315.63021 213.473371 
L 315.55894 213.930251 
L 315.403964 213.704747 
L 315.331822 214.149183 
L 315.269418 213.827377 
L 315.178311 214.286022 
L 315.072962 214.004138 
L 314.842537 214.4527 
L 314.826095 213.691945 
L 314.788776 214.118075 
L 314.638978 214.62405 
L 314.559638 214.318304 
L 314.53869 214.721005 
L 314.356246 214.512333 
L 314.222019 214.999657 
L 314.123873 214.707645 
L 314.077899 215.127787 
L 313.88233 214.920405 
L 313.774727 215.382572 
L 313.726689 215.039991 
L 313.52733 215.478016 
L 313.526924 215.091913 
L 313.468385 215.491792 
L 313.192363 214.970024 
L 313.150728 215.395767 
L 312.957578 215.914828 
L 312.637137 215.41436 
L 312.599648 215.833909 
L 312.395042 216.350016 
L 312.33002 216.015106 
L 312.112072 216.446333 
L 311.969444 216.176103 
L 311.82886 216.651107 
L 311.640129 216.416569 
L 311.61537 216.81793 
L 311.361475 216.623251 
L 311.157673 217.126688 
L 310.989987 216.863351 
L 310.939019 216.512633 
L 310.675369 217.358957 
L 310.638479 217.749666 
L 310.61938 217.3761 
L 310.376303 217.16753 
L 310.211798 217.643438 
L 309.927423 217.446448 
L 309.883698 217.855075 
L 309.602626 217.653313 
L 309.399402 218.13793 
L 309.397065 218.522725 
L 309.169514 218.172891 
L 308.894138 217.957483 
L 308.727154 218.423127 
L 308.394978 218.236361 
L 308.301113 218.664427 
L 307.953906 218.466902 
L 307.885142 218.881705 
L 307.827341 218.526821 
L 307.618333 218.943469 
L 307.567429 219.334045 
L 307.537895 218.962322 
L 307.14625 218.790224 
L 307.142894 219.177844 
L 306.93369 218.896754 
L 306.882375 218.147656 
L 306.491639 218.751016 
L 306.479523 218.368111 
L 306.460041 219.150379 
L 306.231046 219.570955 
L 306.213946 219.188632 
L 306.17739 219.580131 
L 306.107293 219.231371 
L 306.086708 218.855172 
L 305.63907 219.474236 
L 305.387782 218.827554 
L 305.037879 220.096782 
L 304.716005 219.441954 
L 304.086443 220.111296 
L 303.960098 219.781309 
L 303.958173 220.556351 
L 303.957314 220.170241 
L 303.772995 219.817844 
L 303.551129 220.240915 
L 303.351696 219.937973 
L 303.259499 219.592675 
L 303.199387 220.007567 
L 302.109969 221.093344 
L 302.07176 220.721438 
L 301.221144 220.634505 
L 301.059676 220.305846 
L 300.842989 221.130114 
L 300.811762 220.746277 
L 300.413335 221.563093 
L 299.892021 220.954493 
L 299.402445 221.479814 
L 299.373194 221.099803 
L 299.2301 220.751812 
L 298.78895 221.183614 
L 298.654997 221.583277 
L 298.459894 220.859536 
L 298.346772 221.278885 
L 297.628893 221.835826 
L 297.332481 221.518778 
L 296.965093 221.936668 
L 296.772052 222.33202 
L 296.695011 221.950853 
L 295.996008 221.324792 
L 295.153389 221.864481 
L 294.992027 222.261242 
L 294.531383 222.664177 
L 293.45595 222.439738 
L 292.861084 221.751104 
L 292.857678 222.529384 
L 292.022232 222.179536 
L 291.610038 221.846115 
L 291.128443 222.288739 
L 291.113512 221.900828 
L 291.002181 222.304867 
L 290.99634 221.91578 
L 290.124085 222.769192 
L 290.09073 222.382835 
L 289.583646 222.789834 
L 288.890058 222.085617 
L 288.841432 221.699357 
L 287.832956 222.55376 
L 287.727936 222.168106 
L 287.408192 222.567041 
L 286.918898 222.219216 
L 286.842871 221.834325 
L 286.810522 222.228973 
L 286.096211 222.671532 
L 285.852312 222.301912 
L 285.324402 222.708647 
L 285.027744 221.945689 
L 285.017455 221.553454 
L 284.417148 221.995751 
L 283.348165 222.457168 
L 283.107208 222.852611 
L 283.058366 222.465858 
L 282.750365 222.862705 
L 281.784026 222.526506 
L 280.957653 221.784227 
L 280.79093 222.185643 
L 280.72653 221.797179 
L 280.372006 222.981293 
L 280.113652 222.596046 
L 279.719002 222.221062 
L 278.453289 222.65864 
L 278.306071 222.274881 
L 277.530399 222.689979 
L 277.069314 223.084574 
L 276.824871 222.701582 
L 275.287279 222.34939 
L 275.129165 221.9621 
L 274.531464 222.368466 
L 273.653524 222.7757 
L 273.278867 223.167764 
L 271.551867 222.412545 
L 271.20557 222.026933 
L 270.74814 222.426404 
L 269.397402 222.831874 
L 269.172439 223.222497 
L 267.866296 222.843956 
L 267.58699 222.454385 
L 266.911577 222.068466 
L 266.614721 222.463705 
L 266.46229 221.676112 
L 265.680502 222.470735 
L 264.266526 222.089156 
L 263.878618 222.484178 
L 263.492683 222.093476 
L 262.273282 222.494898 
L 262.201211 222.886868 
L 261.879221 222.11725 
L 260.383296 222.544729 
L 260.362444 222.152628 
L 260.222177 221.767732 
L 260.12809 222.165549 
L 259.941688 221.779858 
L 258.574456 222.205132 
L 258.44326 221.818699 
L 258.382019 222.218373 
L 257.900769 222.620079 
L 257.581018 222.233101 
L 257.496207 222.628082 
L 257.345482 222.23709 
L 257.314554 221.843917 
L 256.995847 222.255825 
L 256.686991 221.87583 
L 256.655387 221.480411 
L 256.497382 221.885725 
L 256.436606 221.498163 
L 256.388151 221.900742 
L 256.135671 222.308335 
L 255.028414 221.960639 
L 254.851133 221.589192 
L 254.503681 222.028225 
L 254.467907 221.636561 
L 254.389227 222.043467 
L 254.304893 221.657999 
L 254.088239 221.292663 
L 253.977586 221.708092 
L 253.71094 222.135683 
L 253.54371 221.759498 
L 252.122124 222.294611 
L 251.595415 221.544628 
L 251.528908 221.149602 
L 251.401752 221.561054 
L 250.988212 221.990183 
L 250.771352 221.608745 
L 250.424035 221.234965 
L 250.31947 221.643019 
L 250.237213 221.250037 
L 250.029078 221.671959 
L 249.963801 222.075471 
L 249.609148 221.704278 
L 249.450032 222.113113 
L 249.140767 221.737374 
L 248.370876 221.391841 
L 247.9619 222.216953 
L 247.523079 221.844819 
L 247.065184 222.661757 
L 246.828559 222.275804 
L 246.731053 221.88111 
L 246.332229 221.501372 
L 246.248739 221.105938 
L 245.842382 221.54166 
L 245.442155 222.75555 
L 244.895018 222.384905 
L 244.328275 222.800295 
L 243.736561 221.62871 
L 243.055628 222.050422 
L 243.032921 221.649832 
L 242.853299 222.056207 
L 242.735033 221.65818 
L 242.0738 221.280731 
L 241.705338 221.693168 
L 241.599666 222.096967 
L 241.500887 221.709265 
L 241.246928 221.340698 
L 241.039814 221.764748 
L 240.872422 221.377669 
L 240.488881 221.015852 
L 240.330539 220.626414 
L 239.599085 221.110093 
L 239.50041 221.524632 
L 238.614491 221.992449 
L 238.086122 222.426284 
L 237.93011 222.035259 
L 237.631331 221.651715 
L 237.244305 222.078383 
L 237.153879 221.275694 
L 237.135545 220.461405 
L 236.938678 221.298658 
L 236.190759 221.761806 
L 235.748266 221.391329 
L 235.727981 220.985567 
L 235.652544 221.397536 
L 235.327333 221.821453 
L 235.230739 222.229945 
L 234.704262 221.855847 
L 234.671709 221.453533 
L 234.670096 221.858951 
L 234.612016 221.460015 
L 234.561704 221.869651 
L 234.481836 221.472152 
L 233.448377 221.931402 
L 232.98837 221.145225 
L 231.884788 221.602806 
L 231.545676 222.020369 
L 231.304262 221.623785 
L 231.107031 220.81998 
L 231.069836 220.005109 
L 231.021967 220.832746 
L 230.863912 220.435046 
L 230.43263 221.289662 
L 230.355174 220.887471 
L 230.208619 221.303351 
L 229.982039 220.908317 
L 229.893265 220.509534 
L 229.798052 220.926696 
L 229.747531 220.518985 
L 229.520857 220.939851 
L 229.430435 221.352696 
L 229.05364 220.962353 
L 228.815106 221.380237 
L 228.634073 221.012113 
L 228.56322 220.208714 
L 228.552778 220.624894 
L 228.309916 220.27297 
L 228.113903 220.734092 
L 228.105465 220.322941 
L 227.337886 220.894903 
L 227.114306 220.531541 
L 227.103751 219.702406 
L 226.971177 219.335299 
L 226.827864 220.205572 
L 226.687044 219.827029 
L 226.261547 220.332975 
L 225.913611 219.592741 
L 225.758727 220.056905 
L 225.665536 220.499645 
L 225.590209 220.105084 
L 225.356926 220.578914 
L 225.226031 220.192553 
L 225.212748 220.61334 
L 225.117772 220.222115 
L 225.032315 219.825754 
L 224.806215 220.298742 
L 224.788731 219.883792 
L 224.632989 220.340204 
L 223.983643 220.894639 
L 223.972727 221.312309 
L 223.655374 220.544931 
L 223.620779 220.969267 
L 223.229951 220.664947 
L 222.909948 221.142241 
L 222.888407 221.561573 
L 221.822895 222.143816 
L 221.243075 221.428828 
L 221.127509 221.864086 
L 220.790119 222.322316 
L 220.503402 221.947983 
L 220.407267 221.545946 
L 219.569789 221.264589 
L 219.546454 220.848774 
L 219.50419 221.274736 
L 218.479222 221.038164 
L 218.280825 220.653021 
L 218.239053 220.23648 
L 217.749029 221.577386 
L 217.711525 220.318615 
L 217.606352 219.918115 
L 217.552135 220.35725 
L 217.373048 219.554136 
L 217.24275 220.440182 
L 216.927878 220.927858 
L 216.758808 220.129999 
L 216.572547 220.603226 
L 216.119062 221.100259 
L 216.092228 220.681117 
L 216.072237 221.108964 
L 216.020506 220.69449 
L 215.434945 220.388753 
L 215.061588 219.623549 
L 215.008821 219.206106 
L 214.947912 219.65193 
L 214.457758 220.173009 
L 214.331003 219.770695 
L 214.300373 218.912186 
L 214.211481 219.377104 
L 213.974162 219.872018 
L 213.727227 219.097338 
L 213.444003 220.476258 
L 212.688333 221.064191 
L 212.411007 220.691224 
L 212.381595 221.125387 
L 212.136184 220.752319 
L 212.071525 220.336151 
L 212.04701 220.771699 
L 211.939843 220.363627 
L 211.252696 220.0716 
L 211.158973 219.220073 
L 211.00291 219.68574 
L 210.994008 219.249948 
L 210.95334 219.694859 
L 210.815511 220.153426 
L 210.195827 219.824977 
L 210.027896 219.422167 
L 209.535161 219.930947 
L 209.309354 219.091741 
L 209.218191 218.668605 
L 209.178117 219.118994 
L 209.173649 218.677416 
L 209.060406 218.258033 
L 208.993545 218.716181 
L 208.780102 218.31704 
L 208.757961 218.765596 
L 208.688631 218.336894 
L 208.645569 217.452853 
L 208.60646 217.913093 
L 208.245312 218.437176 
L 208.21585 218.886651 
L 207.681823 218.541094 
L 207.550664 218.121323 
L 207.430473 218.5894 
L 207.144634 217.31622 
L 206.977404 218.257493 
L 206.946696 217.816431 
L 206.904757 218.277102 
L 206.680265 217.449785 
L 206.630307 217.013265 
L 206.600911 217.478035 
L 206.306544 218.89746 
L 206.057135 218.044596 
L 205.978406 218.507959 
L 205.489344 217.718236 
L 205.076278 218.264359 
L 205.054416 217.817457 
L 204.903769 218.302313 
L 204.772158 217.440916 
L 204.702425 217.923926 
L 204.426535 218.478841 
L 204.312996 218.075945 
L 204.312989 217.621217 
L 204.201321 217.213184 
L 204.194942 216.756157 
L 203.80266 217.38237 
L 203.692441 217.87884 
L 203.667554 217.432759 
L 203.253403 218.486058 
L 202.878037 219.057293 
L 202.765299 218.197355 
L 202.701437 218.676162 
L 202.492415 217.848034 
L 202.332237 218.355287 
L 202.016914 218.903048 
L 201.94429 219.375646 
L 201.915941 218.931412 
L 201.701997 218.566067 
L 201.512591 219.524233 
L 200.973735 218.766809 
L 200.946682 218.3176 
L 200.643983 219.311948 
L 200.497837 218.451366 
L 200.413308 218.937422 
L 200.381031 218.491326 
L 200.154773 218.150734 
L 199.918744 218.690037 
L 199.735671 218.31478 
L 199.643141 219.270263 
L 199.203421 219.850535 
L 199.111807 219.424157 
L 198.793051 219.064659 
L 198.112281 218.798097 
L 197.985375 218.369523 
L 197.853906 218.862017 
L 197.723881 218.441076 
L 197.664697 217.531928 
L 197.419883 218.095752 
L 197.340994 217.662237 
L 197.214648 219.106283 
L 197.194101 219.572145 
L 197.123876 219.137351 
L 196.918411 219.656681 
L 196.526215 220.2148 
L 196.465596 219.773583 
L 196.134149 219.405286 
L 196.097331 218.952783 
L 195.584206 219.526028 
L 195.025763 217.821015 
L 194.939457 218.315538 
L 194.911339 217.852972 
L 194.824884 217.877004 
L 194.787294 216.93944 
L 194.473093 217.511097 
L 194.259717 218.515959 
L 193.98093 218.127313 
L 193.932732 218.609893 
L 193.718147 218.202922 
L 193.358809 217.838823 
L 193.213502 218.821166 
L 192.984522 218.410707 
L 192.941336 218.891438 
L 192.884532 218.436066 
L 192.638791 218.033164 
L 192.541952 217.585687 
L 192.328952 218.587182 
L 192.290767 218.129163 
L 192.152118 218.639879 
L 192.00534 218.208248 
L 191.962394 217.266929 
L 191.018597 218.94734 
L 190.91384 217.068584 
L 190.910231 217.551102 
L 190.639949 218.103262 
L 190.449579 217.67992 
L 190.448754 218.158746 
L 190.404769 217.692812 
L 190.167042 217.285453 
L 190.10479 216.820603 
L 189.866232 216.420457 
L 189.787548 215.468142 
L 189.556105 216.052564 
L 189.39327 215.130098 
L 189.282069 214.176167 
L 189.051308 214.766367 
L 188.956927 214.304754 
L 188.850384 215.348736 
L 188.396587 213.514399 
L 188.344384 214.043347 
L 188.339331 213.537325 
L 188.316565 213.037042 
L 188.057444 212.648192 
L 188.021442 212.153998 
L 187.502218 213.424493 
L 187.487952 213.941928 
L 187.293449 215.031669 
L 187.280851 215.538016 
L 187.168688 215.076543 
L 187.158673 215.581949 
L 187.124094 214.587911 
L 186.938473 215.158671 
L 186.938408 214.653593 
L 186.810625 214.194451 
L 186.804627 213.685972 
L 186.676332 214.258999 
L 186.372848 213.901724 
L 186.222891 213.476008 
L 186.200255 212.971902 
L 185.804046 213.668628 
L 185.66746 213.228243 
L 185.658613 213.749841 
L 185.414946 214.359882 
L 185.28127 213.903593 
L 185.277995 214.419517 
L 185.121623 213.973049 
L 185.01356 215.034674 
L 184.852061 214.590419 
L 184.829725 215.110373 
L 184.634922 214.685373 
L 184.568351 215.222385 
L 184.486688 214.742781 
L 184.097429 214.377538 
L 184.066019 213.351366 
L 183.988585 213.903618 
L 183.633556 213.525873 
L 183.402988 214.131129 
L 183.127927 213.707193 
L 182.72535 212.278175 
L 182.62248 212.846872 
L 182.555503 212.344909 
L 182.370058 211.900602 
L 182.045561 213.107535 
L 182.012328 212.591185 
L 181.706088 213.235847 
L 181.635765 212.735518 
L 181.598656 213.282647 
L 181.492056 212.809262 
L 181.080123 213.520958 
L 180.838768 213.096528 
L 180.656985 213.702718 
L 180.624604 214.242788 
L 180.560304 213.739947 
L 180.365102 212.244693 
L 180.364741 212.783131 
L 180.329285 212.270671 
L 179.774519 212.147632 
L 179.745203 211.62432 
L 179.489355 212.894567 
L 179.402705 212.417852 
L 179.150505 212.069218 
L 178.991338 211.645512 
L 178.947849 212.224615 
L 178.65781 212.95545 
L 178.38117 212.587107 
L 178.344862 212.06137 
L 178.06323 211.138198 
L 178.059296 211.697174 
L 177.739104 211.349458 
L 177.484452 210.401657 
L 177.125978 211.193684 
L 177.095712 210.650014 
L 176.993099 211.27816 
L 176.803027 210.833604 
L 176.511219 210.461379 
L 176.375355 211.116762 
L 176.372127 210.550962 
L 175.912521 211.418247 
L 175.374592 210.616631 
L 175.295053 211.234909 
L 174.927015 210.874054 
L 174.675402 209.864768 
L 174.611123 209.320511 
L 174.429348 208.851433 
L 173.988593 208.590331 
L 173.985438 207.996139 
L 173.939738 208.632469 
L 173.625032 208.303164 
L 173.553791 207.157935 
L 173.364423 208.517917 
L 173.347294 207.930423 
L 173.135678 206.894695 
L 172.979589 206.42191 
L 172.894079 207.107952 
L 172.574403 206.759247 
L 172.507832 204.955928 
L 172.225809 204.644403 
L 172.152174 205.349402 
L 172.119285 204.75008 
L 171.763665 203.251675 
L 171.698349 203.968989 
L 171.433238 203.621225 
L 171.239085 205.761598 
L 171.037986 205.330254 
L 170.979598 206.027781 
L 170.881857 205.509987 
L 170.872769 206.159836 
L 170.805562 204.969495 
L 170.753741 204.39217 
L 170.50371 205.333518 
L 170.387321 204.818523 
L 170.334746 206.168222 
L 170.028188 205.85665 
L 169.986644 205.252208 
L 169.959104 205.929555 
L 169.824332 205.428516 
L 169.724536 204.226568 
L 169.505284 202.544938 
L 169.141637 205.146645 
L 169.093882 204.557177 
L 169.058697 205.275431 
L 169.008525 204.694878 
L 168.787557 203.719029 
L 168.623273 203.314999 
L 168.571081 202.721673 
L 168.564791 203.419645 
L 168.301849 205.226949 
L 168.265658 204.612842 
L 168.04939 204.302833 
L 168.03086 205.013556 
L 167.662593 204.974427 
L 167.564441 203.081156 
L 167.526926 203.847643 
L 167.522484 203.157656 
L 167.155942 204.541953 
L 167.151968 205.241369 
L 167.13369 204.580552 
L 166.833188 205.740081 
L 166.618066 205.386917 
L 166.154167 205.3963 
L 166.067417 204.821722 
L 166.021506 205.590491 
L 165.923595 205.026833 
L 165.909862 203.619228 
L 165.765588 205.250037 
L 165.759966 204.547234 
L 165.656184 202.54375 
L 165.423735 203.631892 
L 164.851384 205.187373 
L 164.728139 204.635437 
L 164.701263 205.392842 
L 164.692797 203.95144 
L 164.452595 205.001089 
L 164.020411 204.869092 
L 163.858339 205.807136 
L 163.504261 205.588287 
L 163.451461 204.940098 
L 163.014341 206.374996 
L 162.896112 205.831281 
L 162.85777 206.628566 
L 162.843256 205.918258 
L 162.652788 205.52324 
L 162.471277 204.345709 
L 162.293251 203.902562 
L 161.845145 203.952166 
L 161.836125 203.190925 
L 161.57871 204.434825 
L 161.560389 203.689897 
L 161.377024 203.25485 
L 161.294699 201.816163 
L 161.218778 202.753997 
L 161.076519 201.419816 
L 160.909359 200.932597 
L 160.742667 199.606961 
L 160.627466 200.663498 
L 160.432361 198.53099 
L 160.211388 201.490449 
L 160.172948 199.8897 
L 160.038557 198.451148 
L 159.977352 199.435213 
L 159.806916 198.059126 
L 159.805287 198.931144 
L 159.792589 199.816943 
L 159.608334 199.359701 
L 159.497398 197.865195 
L 159.408603 198.938152 
L 158.91897 192.957412 
L 158.743896 194.401925 
L 158.575488 193.957495 
L 158.542215 193.096492 
L 157.83126 191.401833 
L 157.814126 192.462084 
L 157.803988 191.489006 
L 157.60947 191.116853 
L 157.603231 190.104982 
L 157.532881 192.382609 
L 157.314058 195.075289 
L 157.165186 194.544461 
L 156.931638 192.210366 
L 156.893686 190.238346 
L 156.753466 189.671456 
L 156.605713 191.264699 
L 156.600513 190.210322 
L 156.422713 189.779304 
L 156.313688 191.262414 
L 156.304746 190.207881 
L 156.259861 189.271674 
L 156.191029 190.619934 
L 155.88813 188.474809 
L 155.84956 189.758715 
L 155.648427 189.423498 
L 155.596522 188.485464 
L 155.400924 188.129156 
L 155.147964 183.106687 
L 154.85917 185.540648 
L 154.783011 182.04304 
L 154.605258 181.48151 
L 154.369831 181.17637 
L 154.269365 182.942999 
L 153.837269 183.485907 
L 153.830362 184.849857 
L 153.717085 183.996983 
L 153.702033 182.705475 
L 153.277559 180.476889 
L 153.183643 178.009418 
L 152.782573 176.941269 
L 152.771818 178.527078 
L 152.68045 175.867263 
L 152.634124 177.650202 
L 152.563742 176.4301 
L 152.473467 175.278749 
L 152.226057 174.861836 
L 152.032541 174.14758 
L 152.023137 175.850989 
L 151.557184 174.758941 
L 151.412565 173.739545 
L 151.344309 172.326121 
L 150.271507 175.990509 
L 149.47422 178.070103 
L 149.06896 178.124732 
L 149.060074 174.260083 
L 148.827189 179.334948 
L 148.78043 177.640358 
L 148.583742 176.662794 
L 148.57708 174.670657 
L 148.271512 174.226179 
L 148.215084 172.401363 
L 147.470671 174.345529 
L 147.10513 174.118329 
L 146.703715 169.175311 
L 146.373287 163.30536 
L 146.089384 162.289402 
L 145.997451 157.002685 
L 145.328069 158.169117 
L 145.150211 156.090638 
L 144.813796 164.523651 
L 144.689203 162.207888 
L 143.807044 170.73425 
L 143.385546 170.199109 
L 142.564584 172.125063 
L 142.533638 175.535078 
L 141.955355 175.868949 
L 141.952243 172.537514 
L 141.928899 176.031572 
L 141.884473 172.956522 
L 140.581105 177.460717 
L 140.283367 175.651021 
L 139.730457 175.226675 
L 139.451728 172.921255 
L 138.265089 176.121636 
L 137.700692 175.154824 
L 137.068684 174.303386 
L 136.496133 172.894017 
L 136.152628 169.745858 
L 136.080503 164.534 
L 135.540506 148.240518 
L 135.386693 141.455417 
L 135.322071 149.711031 
L 133.575734 153.616668 
L 132.345788 153.258424 
L 130.914239 153.431543 
L 130.330907 146.477148 
L 130.094874 135.44691 
L 127.560727 137.970158 
L 126.104595 129.626507 
L 122.597559 130.611665 
L 117.577734 132.87358 
L 109.440349 246.36501 
L 108.295636 230.541895 
L 105.255993 218.395202 
L 103.51929 173.495568 
L 103.51929 173.495568 
" style="fill:none;stroke:#ff7f0e;stroke-dasharray:2500,2.5;stroke-dashoffset:0;stroke-width:2.5;"/>
   </g>
   <g id="line2d_35">
    <g clip-path="url(#pd333efa7e3)">
     <use style="stroke:#000000;" x="258.574456" xlink:href="#m29fd1a714f" y="222.205132"/>
    </g>
   </g>
   <g id="line2d_36">
    <g clip-path="url(#pd333efa7e3)">
     <use style="fill:#ff0000;stroke:#ff0000;" x="307.825619" xlink:href="#mc7367a6f9f" y="186.067599"/>
    </g>
   </g>
   <g id="patch_3">
    <path d="M 54 252 
L 54 34.56 
" style="fill:none;stroke:#000000;stroke-linecap:square;stroke-linejoin:miter;stroke-width:0.8;"/>
   </g>
   <g id="patch_4">
    <path d="M 388.8 252 
L 388.8 34.56 
" style="fill:none;stroke:#000000;stroke-linecap:square;stroke-linejoin:miter;stroke-width:0.8;"/>
   </g>
   <g id="patch_5">
    <path d="M 54 252 
L 388.8 252 
" style="fill:none;stroke:#000000;stroke-linecap:square;stroke-linejoin:miter;stroke-width:0.8;"/>
   </g>
   <g id="patch_6">
    <path d="M 54 34.56 
L 388.8 34.56 
" style="fill:none;stroke:#000000;stroke-linecap:square;stroke-linejoin:miter;stroke-width:0.8;"/>
   </g>
   <g id="text_12">
    <!-- GCV function for $\ell_1$ trend filter ($\sigma = 0.001$) -->
    <defs>
     <path id="DejaVuSans-32"/>
     <path d="M 37.109375 75.984375 
L 37.109375 68.5 
L 28.515625 68.5 
Q 23.6875 68.5 21.796875 66.546875 
Q 19.921875 64.59375 19.921875 59.515625 
L 19.921875 54.6875 
L 34.71875 54.6875 
L 34.71875 47.703125 
L 19.921875 47.703125 
L 19.921875 0 
L 10.890625 0 
L 10.890625 47.703125 
L 2.296875 47.703125 
L 2.296875 54.6875 
L 10.890625 54.6875 
L 10.890625 58.5 
Q 10.890625 67.625 15.140625 71.796875 
Q 19.390625 75.984375 28.609375 75.984375 
z
" id="DejaVuSans-102"/>
     <path d="M 8.5 21.578125 
L 8.5 54.6875 
L 17.484375 54.6875 
L 17.484375 21.921875 
Q 17.484375 14.15625 20.5 10.265625 
Q 23.53125 6.390625 29.59375 6.390625 
Q 36.859375 6.390625 41.078125 11.03125 
Q 45.3125 15.671875 45.3125 23.6875 
L 45.3125 54.6875 
L 54.296875 54.6875 
L 54.296875 0 
L 45.3125 0 
L 45.3125 8.40625 
Q 42.046875 3.421875 37.71875 1 
Q 33.40625 -1.421875 27.6875 -1.421875 
Q 18.265625 -1.421875 13.375 4.4375 
Q 8.5 10.296875 8.5 21.578125 
z
M 31.109375 56 
z
" id="DejaVuSans-117"/>
     <path d="M 54.890625 33.015625 
L 54.890625 0 
L 45.90625 0 
L 45.90625 32.71875 
Q 45.90625 40.484375 42.875 44.328125 
Q 39.84375 48.1875 33.796875 48.1875 
Q 26.515625 48.1875 22.3125 43.546875 
Q 18.109375 38.921875 18.109375 30.90625 
L 18.109375 0 
L 9.078125 0 
L 9.078125 54.6875 
L 18.109375 54.6875 
L 18.109375 46.1875 
Q 21.34375 51.125 25.703125 53.5625 
Q 30.078125 56 35.796875 56 
Q 45.21875 56 50.046875 50.171875 
Q 54.890625 44.34375 54.890625 33.015625 
z
" id="DejaVuSans-110"/>
     <path d="M 48.78125 52.59375 
L 48.78125 44.1875 
Q 44.96875 46.296875 41.140625 47.34375 
Q 37.3125 48.390625 33.40625 48.390625 
Q 24.65625 48.390625 19.8125 42.84375 
Q 14.984375 37.3125 14.984375 27.296875 
Q 14.984375 17.28125 19.8125 11.734375 
Q 24.65625 6.203125 33.40625 6.203125 
Q 37.3125 6.203125 41.140625 7.25 
Q 44.96875 8.296875 48.78125 10.40625 
L 48.78125 2.09375 
Q 45.015625 0.34375 40.984375 -0.53125 
Q 36.96875 -1.421875 32.421875 -1.421875 
Q 20.0625 -1.421875 12.78125 6.34375 
Q 5.515625 14.109375 5.515625 27.296875 
Q 5.515625 40.671875 12.859375 48.328125 
Q 20.21875 56 33.015625 56 
Q 37.15625 56 41.109375 55.140625 
Q 45.0625 54.296875 48.78125 52.59375 
z
" id="DejaVuSans-99"/>
     <path d="M 18.3125 70.21875 
L 18.3125 54.6875 
L 36.8125 54.6875 
L 36.8125 47.703125 
L 18.3125 47.703125 
L 18.3125 18.015625 
Q 18.3125 11.328125 20.140625 9.421875 
Q 21.96875 7.515625 27.59375 7.515625 
L 36.8125 7.515625 
L 36.8125 0 
L 27.59375 0 
Q 17.1875 0 13.234375 3.875 
Q 9.28125 7.765625 9.28125 18.015625 
L 9.28125 47.703125 
L 2.6875 47.703125 
L 2.6875 54.6875 
L 9.28125 54.6875 
L 9.28125 70.21875 
z
" id="DejaVuSans-116"/>
     <path d="M 9.421875 54.6875 
L 18.40625 54.6875 
L 18.40625 0 
L 9.421875 0 
z
M 9.421875 75.984375 
L 18.40625 75.984375 
L 18.40625 64.59375 
L 9.421875 64.59375 
z
" id="DejaVuSans-105"/>
     <path d="M 30.609375 48.390625 
Q 23.390625 48.390625 19.1875 42.75 
Q 14.984375 37.109375 14.984375 27.296875 
Q 14.984375 17.484375 19.15625 11.84375 
Q 23.34375 6.203125 30.609375 6.203125 
Q 37.796875 6.203125 41.984375 11.859375 
Q 46.1875 17.53125 46.1875 27.296875 
Q 46.1875 37.015625 41.984375 42.703125 
Q 37.796875 48.390625 30.609375 48.390625 
z
M 30.609375 56 
Q 42.328125 56 49.015625 48.375 
Q 55.71875 40.765625 55.71875 27.296875 
Q 55.71875 13.875 49.015625 6.21875 
Q 42.328125 -1.421875 30.609375 -1.421875 
Q 18.84375 -1.421875 12.171875 6.21875 
Q 5.515625 13.875 5.515625 27.296875 
Q 5.515625 40.765625 12.171875 48.375 
Q 18.84375 56 30.609375 56 
z
" id="DejaVuSans-111"/>
     <path d="M 41.109375 46.296875 
Q 39.59375 47.171875 37.8125 47.578125 
Q 36.03125 48 33.890625 48 
Q 26.265625 48 22.1875 43.046875 
Q 18.109375 38.09375 18.109375 28.8125 
L 18.109375 0 
L 9.078125 0 
L 9.078125 54.6875 
L 18.109375 54.6875 
L 18.109375 46.1875 
Q 20.953125 51.171875 25.484375 53.578125 
Q 30.03125 56 36.53125 56 
Q 37.453125 56 38.578125 55.875 
Q 39.703125 55.765625 41.0625 55.515625 
z
" id="DejaVuSans-114"/>
     <path d="M 14.84375 13.09375 
Q 16.84375 3.328125 21.09375 3.328125 
Q 23.921875 3.328125 27.59375 8.9375 
L 34.078125 8.9375 
Q 31.15625 3.953125 27.734375 1.375 
Q 24.03125 -1.421875 20.609375 -1.421875 
Q 12.984375 -1.421875 9.90625 5.375 
L 6.25 0 
L -1.375 0 
Q 3.90625 7.171875 7.8125 13.875 
Q 7.328125 17.671875 7.328125 21.828125 
Q 7.328125 29.25 8.84375 36.671875 
Q 14.546875 64.546875 19.625 70.265625 
Q 23.140625 74.21875 29.15625 74.21875 
Q 35.25 74.21875 35.25 65.765625 
Q 35.203125 61.96875 34.328125 57.421875 
Q 30.8125 38.8125 14.84375 13.09375 
z
M 14.796875 25.875 
Q 23.921875 42.875 26.703125 56.453125 
Q 28.171875 63.625 28.171875 65.484375 
Q 28.171875 68.84375 26.953125 68.84375 
Q 21.625 64.59375 16.890625 39.3125 
Q 15.578125 32.234375 14.796875 25.875 
z
" id="DejaVuSans-Oblique-8467"/>
     <path d="M 56.203125 29.59375 
L 56.203125 25.203125 
L 14.890625 25.203125 
Q 15.484375 15.921875 20.484375 11.0625 
Q 25.484375 6.203125 34.421875 6.203125 
Q 39.59375 6.203125 44.453125 7.46875 
Q 49.3125 8.734375 54.109375 11.28125 
L 54.109375 2.78125 
Q 49.265625 0.734375 44.1875 -0.34375 
Q 39.109375 -1.421875 33.890625 -1.421875 
Q 20.796875 -1.421875 13.15625 6.1875 
Q 5.515625 13.8125 5.515625 26.8125 
Q 5.515625 40.234375 12.765625 48.109375 
Q 20.015625 56 32.328125 56 
Q 43.359375 56 49.78125 48.890625 
Q 56.203125 41.796875 56.203125 29.59375 
z
M 47.21875 32.234375 
Q 47.125 39.59375 43.09375 43.984375 
Q 39.0625 48.390625 32.421875 48.390625 
Q 24.90625 48.390625 20.390625 44.140625 
Q 15.875 39.890625 15.1875 32.171875 
z
" id="DejaVuSans-101"/>
     <path d="M 45.40625 46.390625 
L 45.40625 75.984375 
L 54.390625 75.984375 
L 54.390625 0 
L 45.40625 0 
L 45.40625 8.203125 
Q 42.578125 3.328125 38.25 0.953125 
Q 33.9375 -1.421875 27.875 -1.421875 
Q 17.96875 -1.421875 11.734375 6.484375 
Q 5.515625 14.40625 5.515625 27.296875 
Q 5.515625 40.1875 11.734375 48.09375 
Q 17.96875 56 27.875 56 
Q 33.9375 56 38.25 53.625 
Q 42.578125 51.265625 45.40625 46.390625 
z
M 14.796875 27.296875 
Q 14.796875 17.390625 18.875 11.75 
Q 22.953125 6.109375 30.078125 6.109375 
Q 37.203125 6.109375 41.296875 11.75 
Q 45.40625 17.390625 45.40625 27.296875 
Q 45.40625 37.203125 41.296875 42.84375 
Q 37.203125 48.484375 30.078125 48.484375 
Q 22.953125 48.484375 18.875 42.84375 
Q 14.796875 37.203125 14.796875 27.296875 
z
" id="DejaVuSans-100"/>
     <path d="M 9.421875 75.984375 
L 18.40625 75.984375 
L 18.40625 0 
L 9.421875 0 
z
" id="DejaVuSans-108"/>
     <path d="M 34.671875 47.5625 
Q 27.25 47.5625 22.21875 42.1875 
Q 16.890625 36.578125 15.140625 27.296875 
Q 13.1875 17.484375 16.3125 11.8125 
Q 19.390625 6.203125 26.65625 6.203125 
Q 33.84375 6.203125 39.109375 11.859375 
Q 44.4375 17.53125 46.34375 27.296875 
Q 48.046875 36.234375 45.015625 42.1875 
Q 42.1875 47.5625 34.671875 47.5625 
z
M 36.078125 54.734375 
L 65.921875 54.6875 
L 64.15625 45.703125 
L 54.109375 45.703125 
Q 57.90625 38.09375 55.859375 27.296875 
Q 53.21875 13.875 45.0625 6.25 
Q 36.859375 -1.421875 25.140625 -1.421875 
Q 13.375 -1.421875 8.203125 6.25 
Q 3.03125 13.875 5.671875 27.296875 
Q 8.25 40.765625 16.40625 48.390625 
Q 23.1875 54.734375 36.078125 54.734375 
z
" id="DejaVuSans-Oblique-963"/>
     <path d="M 10.59375 45.40625 
L 73.1875 45.40625 
L 73.1875 37.203125 
L 10.59375 37.203125 
z
M 10.59375 25.484375 
L 73.1875 25.484375 
L 73.1875 17.1875 
L 10.59375 17.1875 
z
" id="DejaVuSans-61"/>
     <path d="M 10.6875 12.40625 
L 21 12.40625 
L 21 0 
L 10.6875 0 
z
" id="DejaVuSans-46"/>
    </defs>
    <g transform="translate(95.82 28.56)scale(0.12 -0.12)">
     <use transform="translate(0 0.015625)" xlink:href="#DejaVuSans-71"/>
     <use transform="translate(77.490234 0.015625)" xlink:href="#DejaVuSans-67"/>
     <use transform="translate(147.314453 0.015625)" xlink:href="#DejaVuSans-86"/>
     <use transform="translate(215.722656 0.015625)" xlink:href="#DejaVuSans-32"/>
     <use transform="translate(247.509766 0.015625)" xlink:href="#DejaVuSans-102"/>
     <use transform="translate(282.714844 0.015625)" xlink:href="#DejaVuSans-117"/>
     <use transform="translate(346.09375 0.015625)" xlink:href="#DejaVuSans-110"/>
     <use transform="translate(409.472656 0.015625)" xlink:href="#DejaVuSans-99"/>
     <use transform="translate(464.453125 0.015625)" xlink:href="#DejaVuSans-116"/>
     <use transform="translate(503.662109 0.015625)" xlink:href="#DejaVuSans-105"/>
     <use transform="translate(531.445312 0.015625)" xlink:href="#DejaVuSans-111"/>
     <use transform="translate(592.626953 0.015625)" xlink:href="#DejaVuSans-110"/>
     <use transform="translate(656.005859 0.015625)" xlink:href="#DejaVuSans-32"/>
     <use transform="translate(687.792969 0.015625)" xlink:href="#DejaVuSans-102"/>
     <use transform="translate(722.998047 0.015625)" xlink:href="#DejaVuSans-111"/>
     <use transform="translate(784.179688 0.015625)" xlink:href="#DejaVuSans-114"/>
     <use transform="translate(825.292969 0.015625)" xlink:href="#DejaVuSans-32"/>
     <use transform="translate(857.080078 0.015625)" xlink:href="#DejaVuSans-Oblique-8467"/>
     <use transform="translate(898.388672 -16.390625)scale(0.7)" xlink:href="#DejaVuSans-49"/>
     <use transform="translate(945.65918 0.015625)" xlink:href="#DejaVuSans-32"/>
     <use transform="translate(977.446289 0.015625)" xlink:href="#DejaVuSans-116"/>
     <use transform="translate(1016.655273 0.015625)" xlink:href="#DejaVuSans-114"/>
     <use transform="translate(1057.768555 0.015625)" xlink:href="#DejaVuSans-101"/>
     <use transform="translate(1119.291992 0.015625)" xlink:href="#DejaVuSans-110"/>
     <use transform="translate(1182.670898 0.015625)" xlink:href="#DejaVuSans-100"/>
     <use transform="translate(1246.147461 0.015625)" xlink:href="#DejaVuSans-32"/>
     <use transform="translate(1277.93457 0.015625)" xlink:href="#DejaVuSans-102"/>
     <use transform="translate(1313.139648 0.015625)" xlink:href="#DejaVuSans-105"/>
     <use transform="translate(1340.922852 0.015625)" xlink:href="#DejaVuSans-108"/>
     <use transform="translate(1368.706055 0.015625)" xlink:href="#DejaVuSans-116"/>
     <use transform="translate(1407.915039 0.015625)" xlink:href="#DejaVuSans-101"/>
     <use transform="translate(1469.438477 0.015625)" xlink:href="#DejaVuSans-114"/>
     <use transform="translate(1510.551758 0.015625)" xlink:href="#DejaVuSans-32"/>
     <use transform="translate(1542.338867 0.015625)" xlink:href="#DejaVuSans-40"/>
     <use transform="translate(1581.352539 0.015625)" xlink:href="#DejaVuSans-Oblique-963"/>
     <use transform="translate(1664.213867 0.015625)" xlink:href="#DejaVuSans-61"/>
     <use transform="translate(1767.485352 0.015625)" xlink:href="#DejaVuSans-48"/>
     <use transform="translate(1831.108398 0.015625)" xlink:href="#DejaVuSans-46"/>
     <use transform="translate(1862.895508 0.015625)" xlink:href="#DejaVuSans-48"/>
     <use transform="translate(1926.518555 0.015625)" xlink:href="#DejaVuSans-48"/>
     <use transform="translate(1990.141602 0.015625)" xlink:href="#DejaVuSans-49"/>
     <use transform="translate(2053.764648 0.015625)" xlink:href="#DejaVuSans-41"/>
    </g>
   </g>
   <g id="legend_1">
    <g id="line2d_37">
     <path d="M 64.8 50.278125 
L 112.8 50.278125 
" style="fill:none;stroke:#1f77b4;stroke-dasharray:7.5,2.5;stroke-dashoffset:0;stroke-width:2.5;"/>
    </g>
    <g id="line2d_38"/>
    <g id="text_13">
     <!-- state $x_1$ -->
     <defs>
      <path d="M 44.28125 53.078125 
L 44.28125 44.578125 
Q 40.484375 46.53125 36.375 47.5 
Q 32.28125 48.484375 27.875 48.484375 
Q 21.1875 48.484375 17.84375 46.4375 
Q 14.5 44.390625 14.5 40.28125 
Q 14.5 37.15625 16.890625 35.375 
Q 19.28125 33.59375 26.515625 31.984375 
L 29.59375 31.296875 
Q 39.15625 29.25 43.1875 25.515625 
Q 47.21875 21.78125 47.21875 15.09375 
Q 47.21875 7.46875 41.1875 3.015625 
Q 35.15625 -1.421875 24.609375 -1.421875 
Q 20.21875 -1.421875 15.453125 -0.5625 
Q 10.6875 0.296875 5.421875 2 
L 5.421875 11.28125 
Q 10.40625 8.6875 15.234375 7.390625 
Q 20.0625 6.109375 24.8125 6.109375 
Q 31.15625 6.109375 34.5625 8.28125 
Q 37.984375 10.453125 37.984375 14.40625 
Q 37.984375 18.0625 35.515625 20.015625 
Q 33.0625 21.96875 24.703125 23.78125 
L 21.578125 24.515625 
Q 13.234375 26.265625 9.515625 29.90625 
Q 5.8125 33.546875 5.8125 39.890625 
Q 5.8125 47.609375 11.28125 51.796875 
Q 16.75 56 26.8125 56 
Q 31.78125 56 36.171875 55.265625 
Q 40.578125 54.546875 44.28125 53.078125 
z
" id="DejaVuSans-115"/>
      <path d="M 34.28125 27.484375 
Q 23.390625 27.484375 19.1875 25 
Q 14.984375 22.515625 14.984375 16.5 
Q 14.984375 11.71875 18.140625 8.90625 
Q 21.296875 6.109375 26.703125 6.109375 
Q 34.1875 6.109375 38.703125 11.40625 
Q 43.21875 16.703125 43.21875 25.484375 
L 43.21875 27.484375 
z
M 52.203125 31.203125 
L 52.203125 0 
L 43.21875 0 
L 43.21875 8.296875 
Q 40.140625 3.328125 35.546875 0.953125 
Q 30.953125 -1.421875 24.3125 -1.421875 
Q 15.921875 -1.421875 10.953125 3.296875 
Q 6 8.015625 6 15.921875 
Q 6 25.140625 12.171875 29.828125 
Q 18.359375 34.515625 30.609375 34.515625 
L 43.21875 34.515625 
L 43.21875 35.40625 
Q 43.21875 41.609375 39.140625 45 
Q 35.0625 48.390625 27.6875 48.390625 
Q 23 48.390625 18.546875 47.265625 
Q 14.109375 46.140625 10.015625 43.890625 
L 10.015625 52.203125 
Q 14.9375 54.109375 19.578125 55.046875 
Q 24.21875 56 28.609375 56 
Q 40.484375 56 46.34375 49.84375 
Q 52.203125 43.703125 52.203125 31.203125 
z
" id="DejaVuSans-97"/>
      <path d="M 60.015625 54.6875 
L 34.90625 27.875 
L 50.296875 0 
L 39.984375 0 
L 28.421875 21.6875 
L 8.296875 0 
L -2.59375 0 
L 24.3125 28.8125 
L 10.015625 54.6875 
L 20.3125 54.6875 
L 30.8125 34.90625 
L 49.125 54.6875 
z
" id="DejaVuSans-Oblique-120"/>
     </defs>
     <g transform="translate(122.4 54.478125)scale(0.12 -0.12)">
      <use transform="translate(0 0.78125)" xlink:href="#DejaVuSans-115"/>
      <use transform="translate(52.099609 0.78125)" xlink:href="#DejaVuSans-116"/>
      <use transform="translate(91.308594 0.78125)" xlink:href="#DejaVuSans-97"/>
      <use transform="translate(152.587891 0.78125)" xlink:href="#DejaVuSans-116"/>
      <use transform="translate(191.796875 0.78125)" xlink:href="#DejaVuSans-101"/>
      <use transform="translate(253.320312 0.78125)" xlink:href="#DejaVuSans-32"/>
      <use transform="translate(285.107422 0.78125)" xlink:href="#DejaVuSans-Oblique-120"/>
      <use transform="translate(344.287109 -15.625)scale(0.7)" xlink:href="#DejaVuSans-49"/>
     </g>
    </g>
    <g id="line2d_39">
     <path d="M 64.8 67.891875 
L 112.8 67.891875 
" style="fill:none;stroke:#ff7f0e;stroke-dasharray:2500,2.5;stroke-dashoffset:0;stroke-width:2.5;"/>
    </g>
    <g id="line2d_40"/>
    <g id="text_14">
     <!-- state $x_2$ -->
     <defs>
      <path d="M 19.1875 8.296875 
L 53.609375 8.296875 
L 53.609375 0 
L 7.328125 0 
L 7.328125 8.296875 
Q 12.9375 14.109375 22.625 23.890625 
Q 32.328125 33.6875 34.8125 36.53125 
Q 39.546875 41.84375 41.421875 45.53125 
Q 43.3125 49.21875 43.3125 52.78125 
Q 43.3125 58.59375 39.234375 62.25 
Q 35.15625 65.921875 28.609375 65.921875 
Q 23.96875 65.921875 18.8125 64.3125 
Q 13.671875 62.703125 7.8125 59.421875 
L 7.8125 69.390625 
Q 13.765625 71.78125 18.9375 73 
Q 24.125 74.21875 28.421875 74.21875 
Q 39.75 74.21875 46.484375 68.546875 
Q 53.21875 62.890625 53.21875 53.421875 
Q 53.21875 48.921875 51.53125 44.890625 
Q 49.859375 40.875 45.40625 35.40625 
Q 44.1875 33.984375 37.640625 27.21875 
Q 31.109375 20.453125 19.1875 8.296875 
z
" id="DejaVuSans-50"/>
     </defs>
     <g transform="translate(122.4 72.091875)scale(0.12 -0.12)">
      <use transform="translate(0 0.78125)" xlink:href="#DejaVuSans-115"/>
      <use transform="translate(52.099609 0.78125)" xlink:href="#DejaVuSans-116"/>
      <use transform="translate(91.308594 0.78125)" xlink:href="#DejaVuSans-97"/>
      <use transform="translate(152.587891 0.78125)" xlink:href="#DejaVuSans-116"/>
      <use transform="translate(191.796875 0.78125)" xlink:href="#DejaVuSans-101"/>
      <use transform="translate(253.320312 0.78125)" xlink:href="#DejaVuSans-32"/>
      <use transform="translate(285.107422 0.78125)" xlink:href="#DejaVuSans-Oblique-120"/>
      <use transform="translate(344.287109 -15.625)scale(0.7)" xlink:href="#DejaVuSans-50"/>
     </g>
    </g>
   </g>
  </g>
 </g>
 <defs>
  <clipPath id="pd333efa7e3">
   <rect height="217.44" width="334.8" x="54" y="34.56"/>
  </clipPath>
 </defs>
</svg>
