<?xml version="1.0" encoding="utf-8" standalone="no"?>
<!DOCTYPE svg PUBLIC "-//W3C//DTD SVG 1.1//EN"
  "http://www.w3.org/Graphics/SVG/1.1/DTD/svg11.dtd">
<!-- Created with matplotlib (https://matplotlib.org/) -->
<svg height="288pt" version="1.1" viewBox="0 0 432 288" width="432pt" xmlns="http://www.w3.org/2000/svg" xmlns:xlink="http://www.w3.org/1999/xlink">
 <defs>
  <style type="text/css">
*{stroke-linecap:butt;stroke-linejoin:round;}
  </style>
 </defs>
 <g id="figure_1">
  <g id="patch_1">
   <path d="M 0 288 
L 432 288 
L 432 0 
L 0 0 
z
" style="fill:#ffffff;"/>
  </g>
  <g id="axes_1">
   <g id="patch_2">
    <path d="M 54 252 
L 388.8 252 
L 388.8 34.56 
L 54 34.56 
z
" style="fill:#ffffff;"/>
   </g>
   <g id="matplotlib.axis_1">
    <g id="xtick_1">
     <g id="line2d_1">
      <defs>
       <path d="M 0 0 
L 0 3.5 
" id="m40fc1b4dbf" style="stroke:#000000;stroke-width:0.8;"/>
      </defs>
      <g>
       <use style="stroke:#000000;stroke-width:0.8;" x="109.496477" xlink:href="#m40fc1b4dbf" y="252"/>
      </g>
     </g>
     <g id="text_1">
      <!-- $\mathdefault{10^{-4}}$ -->
      <defs>
       <path d="M 12.40625 8.296875 
L 28.515625 8.296875 
L 28.515625 63.921875 
L 10.984375 60.40625 
L 10.984375 69.390625 
L 28.421875 72.90625 
L 38.28125 72.90625 
L 38.28125 8.296875 
L 54.390625 8.296875 
L 54.390625 0 
L 12.40625 0 
z
" id="DejaVuSans-49"/>
       <path d="M 31.78125 66.40625 
Q 24.171875 66.40625 20.328125 58.90625 
Q 16.5 51.421875 16.5 36.375 
Q 16.5 21.390625 20.328125 13.890625 
Q 24.171875 6.390625 31.78125 6.390625 
Q 39.453125 6.390625 43.28125 13.890625 
Q 47.125 21.390625 47.125 36.375 
Q 47.125 51.421875 43.28125 58.90625 
Q 39.453125 66.40625 31.78125 66.40625 
z
M 31.78125 74.21875 
Q 44.046875 74.21875 50.515625 64.515625 
Q 56.984375 54.828125 56.984375 36.375 
Q 56.984375 17.96875 50.515625 8.265625 
Q 44.046875 -1.421875 31.78125 -1.421875 
Q 19.53125 -1.421875 13.0625 8.265625 
Q 6.59375 17.96875 6.59375 36.375 
Q 6.59375 54.828125 13.0625 64.515625 
Q 19.53125 74.21875 31.78125 74.21875 
z
" id="DejaVuSans-48"/>
       <path d="M 10.59375 35.5 
L 73.1875 35.5 
L 73.1875 27.203125 
L 10.59375 27.203125 
z
" id="DejaVuSans-8722"/>
       <path d="M 37.796875 64.3125 
L 12.890625 25.390625 
L 37.796875 25.390625 
z
M 35.203125 72.90625 
L 47.609375 72.90625 
L 47.609375 25.390625 
L 58.015625 25.390625 
L 58.015625 17.1875 
L 47.609375 17.1875 
L 47.609375 0 
L 37.796875 0 
L 37.796875 17.1875 
L 4.890625 17.1875 
L 4.890625 26.703125 
z
" id="DejaVuSans-52"/>
      </defs>
      <g transform="translate(95.396477 268.118125)scale(0.12 -0.12)">
       <use transform="translate(0 0.684375)" xlink:href="#DejaVuSans-49"/>
       <use transform="translate(63.623047 0.684375)" xlink:href="#DejaVuSans-48"/>
       <use transform="translate(128.203125 38.965625)scale(0.7)" xlink:href="#DejaVuSans-8722"/>
       <use transform="translate(186.855469 38.965625)scale(0.7)" xlink:href="#DejaVuSans-52"/>
      </g>
     </g>
    </g>
    <g id="xtick_2">
     <g id="line2d_2">
      <g>
       <use style="stroke:#000000;stroke-width:0.8;" x="175.647924" xlink:href="#m40fc1b4dbf" y="252"/>
      </g>
     </g>
     <g id="text_2">
      <!-- $\mathdefault{10^{-2}}$ -->
      <defs>
       <path d="M 19.1875 8.296875 
L 53.609375 8.296875 
L 53.609375 0 
L 7.328125 0 
L 7.328125 8.296875 
Q 12.9375 14.109375 22.625 23.890625 
Q 32.328125 33.6875 34.8125 36.53125 
Q 39.546875 41.84375 41.421875 45.53125 
Q 43.3125 49.21875 43.3125 52.78125 
Q 43.3125 58.59375 39.234375 62.25 
Q 35.15625 65.921875 28.609375 65.921875 
Q 23.96875 65.921875 18.8125 64.3125 
Q 13.671875 62.703125 7.8125 59.421875 
L 7.8125 69.390625 
Q 13.765625 71.78125 18.9375 73 
Q 24.125 74.21875 28.421875 74.21875 
Q 39.75 74.21875 46.484375 68.546875 
Q 53.21875 62.890625 53.21875 53.421875 
Q 53.21875 48.921875 51.53125 44.890625 
Q 49.859375 40.875 45.40625 35.40625 
Q 44.1875 33.984375 37.640625 27.21875 
Q 31.109375 20.453125 19.1875 8.296875 
z
" id="DejaVuSans-50"/>
      </defs>
      <g transform="translate(161.547924 268.118125)scale(0.12 -0.12)">
       <use transform="translate(0 0.765625)" xlink:href="#DejaVuSans-49"/>
       <use transform="translate(63.623047 0.765625)" xlink:href="#DejaVuSans-48"/>
       <use transform="translate(128.203125 39.046875)scale(0.7)" xlink:href="#DejaVuSans-8722"/>
       <use transform="translate(186.855469 39.046875)scale(0.7)" xlink:href="#DejaVuSans-50"/>
      </g>
     </g>
    </g>
    <g id="xtick_3">
     <g id="line2d_3">
      <g>
       <use style="stroke:#000000;stroke-width:0.8;" x="241.799371" xlink:href="#m40fc1b4dbf" y="252"/>
      </g>
     </g>
     <g id="text_3">
      <!-- $\mathdefault{10^{0}}$ -->
      <g transform="translate(231.239371 268.118125)scale(0.12 -0.12)">
       <use transform="translate(0 0.765625)" xlink:href="#DejaVuSans-49"/>
       <use transform="translate(63.623047 0.765625)" xlink:href="#DejaVuSans-48"/>
       <use transform="translate(128.203125 39.046875)scale(0.7)" xlink:href="#DejaVuSans-48"/>
      </g>
     </g>
    </g>
    <g id="xtick_4">
     <g id="line2d_4">
      <g>
       <use style="stroke:#000000;stroke-width:0.8;" x="307.950817" xlink:href="#m40fc1b4dbf" y="252"/>
      </g>
     </g>
     <g id="text_4">
      <!-- $\mathdefault{10^{2}}$ -->
      <g transform="translate(297.390817 268.118125)scale(0.12 -0.12)">
       <use transform="translate(0 0.765625)" xlink:href="#DejaVuSans-49"/>
       <use transform="translate(63.623047 0.765625)" xlink:href="#DejaVuSans-48"/>
       <use transform="translate(128.203125 39.046875)scale(0.7)" xlink:href="#DejaVuSans-50"/>
      </g>
     </g>
    </g>
    <g id="xtick_5">
     <g id="line2d_5">
      <g>
       <use style="stroke:#000000;stroke-width:0.8;" x="374.102264" xlink:href="#m40fc1b4dbf" y="252"/>
      </g>
     </g>
     <g id="text_5">
      <!-- $\mathdefault{10^{4}}$ -->
      <g transform="translate(363.542264 268.118125)scale(0.12 -0.12)">
       <use transform="translate(0 0.684375)" xlink:href="#DejaVuSans-49"/>
       <use transform="translate(63.623047 0.684375)" xlink:href="#DejaVuSans-48"/>
       <use transform="translate(128.203125 38.965625)scale(0.7)" xlink:href="#DejaVuSans-52"/>
      </g>
     </g>
    </g>
    <g id="text_6">
     <!-- $\lambda$ -->
     <defs>
      <path d="M 36.71875 67.4375 
L 48.828125 0 
L 39.3125 0 
L 31.84375 40.4375 
L 5.125 0 
L -4.390625 0 
L 29.734375 52.4375 
L 28.03125 62.109375 
Q 26.953125 68.265625 21.734375 68.265625 
L 17.046875 68.265625 
L 18.5 75.984375 
L 24.21875 75.875 
Q 35.203125 75.734375 36.71875 67.4375 
z
" id="DejaVuSans-Oblique-955"/>
     </defs>
     <g transform="translate(217.8 283.731875)scale(0.12 -0.12)">
      <use transform="translate(0 0.015625)" xlink:href="#DejaVuSans-Oblique-955"/>
     </g>
    </g>
   </g>
   <g id="matplotlib.axis_2">
    <g id="ytick_1">
     <g id="line2d_6">
      <defs>
       <path d="M 0 0 
L -3.5 0 
" id="m3b29ff33d0" style="stroke:#000000;stroke-width:0.8;"/>
      </defs>
      <g>
       <use style="stroke:#000000;stroke-width:0.8;" x="54" xlink:href="#m3b29ff33d0" y="218.646661"/>
      </g>
     </g>
     <g id="text_7">
      <!-- $\mathdefault{10^{-4}}$ -->
      <g transform="translate(18.8 223.205723)scale(0.12 -0.12)">
       <use transform="translate(0 0.684375)" xlink:href="#DejaVuSans-49"/>
       <use transform="translate(63.623047 0.684375)" xlink:href="#DejaVuSans-48"/>
       <use transform="translate(128.203125 38.965625)scale(0.7)" xlink:href="#DejaVuSans-8722"/>
       <use transform="translate(186.855469 38.965625)scale(0.7)" xlink:href="#DejaVuSans-52"/>
      </g>
     </g>
    </g>
    <g id="ytick_2">
     <g id="line2d_7">
      <g>
       <use style="stroke:#000000;stroke-width:0.8;" x="54" xlink:href="#m3b29ff33d0" y="121.899138"/>
      </g>
     </g>
     <g id="text_8">
      <!-- $\mathdefault{10^{-3}}$ -->
      <defs>
       <path d="M 40.578125 39.3125 
Q 47.65625 37.796875 51.625 33 
Q 55.609375 28.21875 55.609375 21.1875 
Q 55.609375 10.40625 48.1875 4.484375 
Q 40.765625 -1.421875 27.09375 -1.421875 
Q 22.515625 -1.421875 17.65625 -0.515625 
Q 12.796875 0.390625 7.625 2.203125 
L 7.625 11.71875 
Q 11.71875 9.328125 16.59375 8.109375 
Q 21.484375 6.890625 26.8125 6.890625 
Q 36.078125 6.890625 40.9375 10.546875 
Q 45.796875 14.203125 45.796875 21.1875 
Q 45.796875 27.640625 41.28125 31.265625 
Q 36.765625 34.90625 28.71875 34.90625 
L 20.21875 34.90625 
L 20.21875 43.015625 
L 29.109375 43.015625 
Q 36.375 43.015625 40.234375 45.921875 
Q 44.09375 48.828125 44.09375 54.296875 
Q 44.09375 59.90625 40.109375 62.90625 
Q 36.140625 65.921875 28.71875 65.921875 
Q 24.65625 65.921875 20.015625 65.03125 
Q 15.375 64.15625 9.8125 62.3125 
L 9.8125 71.09375 
Q 15.4375 72.65625 20.34375 73.4375 
Q 25.25 74.21875 29.59375 74.21875 
Q 40.828125 74.21875 47.359375 69.109375 
Q 53.90625 64.015625 53.90625 55.328125 
Q 53.90625 49.265625 50.4375 45.09375 
Q 46.96875 40.921875 40.578125 39.3125 
z
" id="DejaVuSans-51"/>
      </defs>
      <g transform="translate(18.8 126.458201)scale(0.12 -0.12)">
       <use transform="translate(0 0.765625)" xlink:href="#DejaVuSans-49"/>
       <use transform="translate(63.623047 0.765625)" xlink:href="#DejaVuSans-48"/>
       <use transform="translate(128.203125 39.046875)scale(0.7)" xlink:href="#DejaVuSans-8722"/>
       <use transform="translate(186.855469 39.046875)scale(0.7)" xlink:href="#DejaVuSans-51"/>
      </g>
     </g>
    </g>
    <g id="ytick_3">
     <g id="line2d_8">
      <defs>
       <path d="M 0 0 
L -2 0 
" id="m6d9f123cc5" style="stroke:#000000;stroke-width:0.6;"/>
      </defs>
      <g>
       <use style="stroke:#000000;stroke-width:0.6;" x="54" xlink:href="#m6d9f123cc5" y="247.770567"/>
      </g>
     </g>
    </g>
    <g id="ytick_4">
     <g id="line2d_9">
      <g>
       <use style="stroke:#000000;stroke-width:0.6;" x="54" xlink:href="#m6d9f123cc5" y="240.109978"/>
      </g>
     </g>
    </g>
    <g id="ytick_5">
     <g id="line2d_10">
      <g>
       <use style="stroke:#000000;stroke-width:0.6;" x="54" xlink:href="#m6d9f123cc5" y="233.633042"/>
      </g>
     </g>
    </g>
    <g id="ytick_6">
     <g id="line2d_11">
      <g>
       <use style="stroke:#000000;stroke-width:0.6;" x="54" xlink:href="#m6d9f123cc5" y="228.022465"/>
      </g>
     </g>
    </g>
    <g id="ytick_7">
     <g id="line2d_12">
      <g>
       <use style="stroke:#000000;stroke-width:0.6;" x="54" xlink:href="#m6d9f123cc5" y="223.073585"/>
      </g>
     </g>
    </g>
    <g id="ytick_8">
     <g id="line2d_13">
      <g>
       <use style="stroke:#000000;stroke-width:0.6;" x="54" xlink:href="#m6d9f123cc5" y="189.522755"/>
      </g>
     </g>
    </g>
    <g id="ytick_9">
     <g id="line2d_14">
      <g>
       <use style="stroke:#000000;stroke-width:0.6;" x="54" xlink:href="#m6d9f123cc5" y="172.486362"/>
      </g>
     </g>
    </g>
    <g id="ytick_10">
     <g id="line2d_15">
      <g>
       <use style="stroke:#000000;stroke-width:0.6;" x="54" xlink:href="#m6d9f123cc5" y="160.398848"/>
      </g>
     </g>
    </g>
    <g id="ytick_11">
     <g id="line2d_16">
      <g>
       <use style="stroke:#000000;stroke-width:0.6;" x="54" xlink:href="#m6d9f123cc5" y="151.023045"/>
      </g>
     </g>
    </g>
    <g id="ytick_12">
     <g id="line2d_17">
      <g>
       <use style="stroke:#000000;stroke-width:0.6;" x="54" xlink:href="#m6d9f123cc5" y="143.362455"/>
      </g>
     </g>
    </g>
    <g id="ytick_13">
     <g id="line2d_18">
      <g>
       <use style="stroke:#000000;stroke-width:0.6;" x="54" xlink:href="#m6d9f123cc5" y="136.885519"/>
      </g>
     </g>
    </g>
    <g id="ytick_14">
     <g id="line2d_19">
      <g>
       <use style="stroke:#000000;stroke-width:0.6;" x="54" xlink:href="#m6d9f123cc5" y="131.274942"/>
      </g>
     </g>
    </g>
    <g id="ytick_15">
     <g id="line2d_20">
      <g>
       <use style="stroke:#000000;stroke-width:0.6;" x="54" xlink:href="#m6d9f123cc5" y="126.326062"/>
      </g>
     </g>
    </g>
    <g id="ytick_16">
     <g id="line2d_21">
      <g>
       <use style="stroke:#000000;stroke-width:0.6;" x="54" xlink:href="#m6d9f123cc5" y="92.775232"/>
      </g>
     </g>
    </g>
    <g id="ytick_17">
     <g id="line2d_22">
      <g>
       <use style="stroke:#000000;stroke-width:0.6;" x="54" xlink:href="#m6d9f123cc5" y="75.738839"/>
      </g>
     </g>
    </g>
    <g id="ytick_18">
     <g id="line2d_23">
      <g>
       <use style="stroke:#000000;stroke-width:0.6;" x="54" xlink:href="#m6d9f123cc5" y="63.651326"/>
      </g>
     </g>
    </g>
    <g id="ytick_19">
     <g id="line2d_24">
      <g>
       <use style="stroke:#000000;stroke-width:0.6;" x="54" xlink:href="#m6d9f123cc5" y="54.275522"/>
      </g>
     </g>
    </g>
    <g id="ytick_20">
     <g id="line2d_25">
      <g>
       <use style="stroke:#000000;stroke-width:0.6;" x="54" xlink:href="#m6d9f123cc5" y="46.614933"/>
      </g>
     </g>
    </g>
    <g id="ytick_21">
     <g id="line2d_26">
      <g>
       <use style="stroke:#000000;stroke-width:0.6;" x="54" xlink:href="#m6d9f123cc5" y="40.137997"/>
      </g>
     </g>
    </g>
    <g id="text_9">
     <!-- GCV($\lambda$) -->
     <defs>
      <path d="M 59.515625 10.40625 
L 59.515625 29.984375 
L 43.40625 29.984375 
L 43.40625 38.09375 
L 69.28125 38.09375 
L 69.28125 6.78125 
Q 63.578125 2.734375 56.6875 0.65625 
Q 49.8125 -1.421875 42 -1.421875 
Q 24.90625 -1.421875 15.25 8.5625 
Q 5.609375 18.5625 5.609375 36.375 
Q 5.609375 54.25 15.25 64.234375 
Q 24.90625 74.21875 42 74.21875 
Q 49.125 74.21875 55.546875 72.453125 
Q 61.96875 70.703125 67.390625 67.28125 
L 67.390625 56.78125 
Q 61.921875 61.421875 55.765625 63.765625 
Q 49.609375 66.109375 42.828125 66.109375 
Q 29.4375 66.109375 22.71875 58.640625 
Q 16.015625 51.171875 16.015625 36.375 
Q 16.015625 21.625 22.71875 14.15625 
Q 29.4375 6.6875 42.828125 6.6875 
Q 48.046875 6.6875 52.140625 7.59375 
Q 56.25 8.5 59.515625 10.40625 
z
" id="DejaVuSans-71"/>
      <path d="M 64.40625 67.28125 
L 64.40625 56.890625 
Q 59.421875 61.53125 53.78125 63.8125 
Q 48.140625 66.109375 41.796875 66.109375 
Q 29.296875 66.109375 22.65625 58.46875 
Q 16.015625 50.828125 16.015625 36.375 
Q 16.015625 21.96875 22.65625 14.328125 
Q 29.296875 6.6875 41.796875 6.6875 
Q 48.140625 6.6875 53.78125 8.984375 
Q 59.421875 11.28125 64.40625 15.921875 
L 64.40625 5.609375 
Q 59.234375 2.09375 53.4375 0.328125 
Q 47.65625 -1.421875 41.21875 -1.421875 
Q 24.65625 -1.421875 15.125 8.703125 
Q 5.609375 18.84375 5.609375 36.375 
Q 5.609375 53.953125 15.125 64.078125 
Q 24.65625 74.21875 41.21875 74.21875 
Q 47.75 74.21875 53.53125 72.484375 
Q 59.328125 70.75 64.40625 67.28125 
z
" id="DejaVuSans-67"/>
      <path d="M 28.609375 0 
L 0.78125 72.90625 
L 11.078125 72.90625 
L 34.1875 11.53125 
L 57.328125 72.90625 
L 67.578125 72.90625 
L 39.796875 0 
z
" id="DejaVuSans-86"/>
      <path d="M 31 75.875 
Q 24.46875 64.65625 21.28125 53.65625 
Q 18.109375 42.671875 18.109375 31.390625 
Q 18.109375 20.125 21.3125 9.0625 
Q 24.515625 -2 31 -13.1875 
L 23.1875 -13.1875 
Q 15.875 -1.703125 12.234375 9.375 
Q 8.59375 20.453125 8.59375 31.390625 
Q 8.59375 42.28125 12.203125 53.3125 
Q 15.828125 64.359375 23.1875 75.875 
z
" id="DejaVuSans-40"/>
      <path d="M 8.015625 75.875 
L 15.828125 75.875 
Q 23.140625 64.359375 26.78125 53.3125 
Q 30.421875 42.28125 30.421875 31.390625 
Q 30.421875 20.453125 26.78125 9.375 
Q 23.140625 -1.703125 15.828125 -13.1875 
L 8.015625 -13.1875 
Q 14.5 -2 17.703125 9.0625 
Q 20.90625 20.125 20.90625 31.390625 
Q 20.90625 42.671875 17.703125 53.65625 
Q 14.5 64.65625 8.015625 75.875 
z
" id="DejaVuSans-41"/>
     </defs>
     <g transform="translate(12.304375 164.46)rotate(-90)scale(0.12 -0.12)">
      <use transform="translate(0 0.015625)" xlink:href="#DejaVuSans-71"/>
      <use transform="translate(77.490234 0.015625)" xlink:href="#DejaVuSans-67"/>
      <use transform="translate(147.314453 0.015625)" xlink:href="#DejaVuSans-86"/>
      <use transform="translate(215.722656 0.015625)" xlink:href="#DejaVuSans-40"/>
      <use transform="translate(254.736328 0.015625)" xlink:href="#DejaVuSans-Oblique-955"/>
      <use transform="translate(313.916016 0.015625)" xlink:href="#DejaVuSans-41"/>
     </g>
    </g>
   </g>
   <g id="line2d_27">
    <path clip-path="url(#p0b788663fd)" d="M 352.035578 215.927852 
L 350.793514 215.761468 
L 350.745303 215.38011 
L 347.729 216.175832 
L 347.571093 215.805005 
L 344.972059 216.429506 
L 344.723416 216.060971 
L 342.393358 216.596871 
L 342.063123 216.227725 
L 339.900566 216.713498 
L 339.49082 216.342718 
L 337.444287 216.797398 
L 336.952773 216.424662 
L 335.019316 216.858489 
L 334.441633 216.483791 
L 332.590514 216.903954 
L 331.918593 216.527399 
L 330.165975 216.937929 
L 329.39029 216.559683 
L 327.680749 216.964025 
L 326.784673 216.584233 
L 325.084671 216.984322 
L 324.791334 216.596963 
L 324.787456 215.811923 
L 324.669593 216.215688 
L 324.120853 216.621735 
L 324.11683 216.23103 
L 324.037618 216.624939 
L 323.860522 216.247607 
L 323.403758 216.650813 
L 323.39505 216.261328 
L 323.203935 216.65807 
L 323.021479 216.280278 
L 322.63396 216.681355 
L 322.620238 216.293137 
L 322.346179 216.691752 
L 322.15795 216.313514 
L 321.808959 216.7133 
L 321.789843 216.326389 
L 321.491773 216.725297 
L 321.297577 216.346661 
L 320.935663 216.746377 
L 320.910775 216.360793 
L 320.632735 216.75894 
L 320.432289 216.379942 
L 320.003933 216.780687 
L 319.972789 216.396443 
L 319.777518 216.792497 
L 319.570605 216.413182 
L 319.020003 216.815954 
L 318.982108 216.433048 
L 318.919097 216.826137 
L 318.705407 216.446539 
L 318.095808 216.850004 
L 317.921403 216.081027 
L 317.811687 216.480487 
L 317.185122 216.883817 
L 316.955273 216.503117 
L 316.863257 216.896429 
L 316.808416 216.516435 
L 316.264969 216.917796 
L 316.026598 216.53685 
L 315.719892 216.933494 
L 315.656395 216.55474 
L 315.27554 216.952861 
L 315.027306 216.571643 
L 314.530064 216.970862 
L 314.4572 216.593299 
L 314.210899 216.988928 
L 313.951215 216.607409 
L 313.309265 217.008203 
L 313.226408 216.631781 
L 313.060408 217.025983 
L 312.787336 216.644128 
L 312.063977 217.045395 
L 311.970516 216.670068 
L 311.79555 217.06422 
L 311.506423 216.681979 
L 310.822449 217.082097 
L 310.718065 216.707835 
L 310.376024 217.103907 
L 310.239833 216.328442 
L 310.115423 216.739836 
L 310.111005 216.347104 
L 309.40906 216.837275 
L 309.298621 216.465499 
L 308.562858 216.950963 
L 308.438508 216.580251 
L 307.823924 217.043798 
L 307.602387 216.291138 
L 307.467527 216.704243 
L 307.382418 216.321317 
L 307.371995 216.71811 
L 306.903485 217.160771 
L 306.749659 216.792107 
L 306.175002 217.241527 
L 306.010471 216.873218 
L 305.478589 217.314491 
L 305.304388 216.946438 
L 304.745031 217.386321 
L 304.560423 217.018461 
L 304.441349 217.42141 
L 304.245763 217.048038 
L 303.912425 217.466763 
L 303.711488 217.099376 
L 303.153928 217.532202 
L 302.941951 217.164842 
L 302.738959 217.571879 
L 302.24772 217.215904 
L 302.012377 216.847713 
L 301.854258 217.254495 
L 301.318557 217.679115 
L 301.076033 217.311563 
L 300.356427 217.742949 
L 300.097365 217.375138 
L 299.795822 217.783303 
L 299.318437 217.417232 
L 299.119544 217.819652 
L 298.830063 217.451484 
L 298.001297 217.878757 
L 297.689382 217.510049 
L 297.148949 217.923243 
L 297.067574 217.533098 
L 295.62886 217.242941 
L 294.934644 216.891282 
L 294.875202 216.496872 
L 294.560886 216.9156 
L 292.083648 217.827738 
L 291.068488 217.474414 
L 289.819197 217.910387 
L 289.598732 217.521637 
L 289.028091 217.141332 
L 288.688082 217.547978 
L 288.241969 217.164216 
L 288.099184 216.772543 
L 287.443106 217.189131 
L 285.972657 217.616909 
L 285.360727 218.022911 
L 284.789311 217.245593 
L 284.735613 216.849062 
L 284.706439 217.248834 
L 282.140571 217.682242 
L 281.795215 216.898529 
L 281.518336 217.301633 
L 280.835337 217.706124 
L 280.809143 217.309832 
L 280.55181 217.709748 
L 280.524369 217.313533 
L 280.269922 217.713406 
L 280.217745 217.317956 
L 280.149673 217.715925 
L 280.093907 217.320842 
L 279.674381 217.722124 
L 279.59504 217.327416 
L 279.477868 217.725767 
L 279.397834 217.330925 
L 279.357017 217.728592 
L 279.24307 216.936353 
L 278.945655 217.338874 
L 278.75137 216.949444 
L 278.743215 217.348745 
L 278.724642 216.950492 
L 278.582834 216.557741 
L 278.430338 217.361225 
L 278.294759 216.968007 
L 277.879523 217.373218 
L 277.715819 217.771883 
L 277.573161 217.380971 
L 277.537987 217.778593 
L 277.325475 217.387415 
L 277.003398 217.787257 
L 276.571129 217.001888 
L 276.34509 217.403404 
L 276.151207 217.01135 
L 275.710848 217.414738 
L 275.537504 217.813223 
L 275.367686 217.022185 
L 275.276126 216.630172 
L 274.83505 217.060833 
L 274.828182 216.661034 
L 274.530267 217.082038 
L 274.34979 216.301057 
L 274.00009 217.128521 
L 273.735393 216.750724 
L 273.384457 217.171755 
L 273.354663 216.775811 
L 273.332407 217.178218 
L 273.247163 216.785759 
L 273.206352 216.391338 
L 272.539871 216.830808 
L 272.359378 216.441466 
L 272.345421 216.037903 
L 272.101389 216.462242 
L 272.069237 216.064242 
L 272.067699 216.469433 
L 271.978307 216.880566 
L 271.954456 216.479867 
L 271.705177 216.895314 
L 271.660822 216.500842 
L 271.389964 217.318526 
L 270.955735 216.941088 
L 270.394755 217.366463 
L 270.339034 216.969116 
L 270.155117 216.58784 
L 269.945672 217.40194 
L 269.858553 217.012595 
L 268.62194 217.460099 
L 268.228275 217.081809 
L 268.134025 217.486026 
L 268.019561 217.098477 
L 267.8368 217.505758 
L 267.803446 217.105942 
L 267.620233 216.71845 
L 267.473916 217.126958 
L 266.553035 217.554916 
L 266.139453 217.174099 
L 266.095502 216.776856 
L 265.99097 217.190571 
L 265.274593 217.610412 
L 265.22936 217.214664 
L 265.034633 216.849678 
L 264.688339 217.292585 
L 264.540451 216.911096 
L 264.253393 216.54692 
L 263.982985 216.985611 
L 263.541489 217.432582 
L 263.302925 217.069553 
L 262.911814 217.509069 
L 262.689946 217.133068 
L 262.682285 216.729195 
L 262.441075 217.163021 
L 262.386735 216.765811 
L 261.827361 216.441312 
L 261.642876 216.87022 
L 261.275568 217.31408 
L 260.988557 216.948797 
L 260.076405 217.441068 
L 259.991286 217.045326 
L 259.44273 217.497892 
L 259.062185 217.127606 
L 258.914679 216.328227 
L 258.6851 216.759625 
L 258.670219 216.352871 
L 258.046724 217.235792 
L 257.277099 217.694015 
L 256.942253 216.504789 
L 256.380664 216.961855 
L 256.116793 217.385425 
L 255.700486 217.814224 
L 255.584313 217.416628 
L 255.106848 217.054993 
L 254.765071 217.482186 
L 254.221429 217.913821 
L 253.927677 217.52551 
L 253.277726 217.959079 
L 251.964305 217.621072 
L 251.905859 217.217403 
L 251.878871 217.625549 
L 251.533266 217.238451 
L 251.381792 216.848665 
L 251.220253 217.277538 
L 251.203322 217.68616 
L 251.123697 217.287778 
L 251.088657 216.883039 
L 250.894205 216.499202 
L 250.438086 216.964869 
L 250.297146 216.570265 
L 250.169403 216.993498 
L 249.759706 217.440149 
L 249.627525 217.858201 
L 249.16901 217.491898 
L 248.929336 217.91739 
L 248.372147 217.559859 
L 248.297736 217.158262 
L 248.198136 217.575455 
L 248.168145 217.169978 
L 247.603533 217.624458 
L 246.988926 217.274419 
L 246.57553 216.901475 
L 246.096538 217.344759 
L 245.506452 216.97593 
L 245.208907 217.403521 
L 244.861578 217.019264 
L 244.625303 217.442498 
L 243.937268 217.883172 
L 242.841585 217.140426 
L 242.75177 217.556623 
L 242.206628 217.986494 
L 242.137205 217.169475 
L 241.810094 216.78513 
L 241.53306 217.209276 
L 241.352885 216.810398 
L 240.256535 217.291772 
L 239.615012 216.916183 
L 239.256385 216.527987 
L 238.922778 216.965978 
L 238.784666 216.562087 
L 238.555101 216.992316 
L 238.107367 216.606324 
L 237.564926 217.045561 
L 237.150049 216.649889 
L 236.954495 217.072854 
L 236.069519 216.693343 
L 235.456145 216.30445 
L 235.183601 216.733168 
L 234.912037 216.329658 
L 234.881085 215.91423 
L 234.775307 216.345426 
L 233.870786 217.214895 
L 233.633451 216.811593 
L 233.486394 217.232908 
L 233.302148 216.827629 
L 233.257741 216.416354 
L 232.675017 217.275927 
L 231.993015 216.89055 
L 231.878647 216.478412 
L 231.61921 216.077757 
L 231.58973 216.498086 
L 231.572504 216.081612 
L 231.473025 216.505175 
L 231.077697 216.935451 
L 230.648525 216.123797 
L 230.567843 216.547461 
L 230.356481 216.971139 
L 229.938488 216.579319 
L 228.262321 217.039532 
L 228.088352 216.632428 
L 228.067254 217.049963 
L 227.598065 216.655157 
L 227.502216 217.074378 
L 227.32249 216.255016 
L 227.084331 215.863334 
L 226.632237 216.326297 
L 225.98018 215.975116 
L 225.418486 214.773351 
L 224.818999 215.265893 
L 224.812008 215.692054 
L 224.439602 216.143004 
L 224.422003 216.565383 
L 223.972081 216.187067 
L 223.840208 215.775981 
L 223.789313 216.203506 
L 223.480538 215.809643 
L 223.39256 215.392762 
L 223.146336 215.837881 
L 222.611918 215.461643 
L 222.445043 215.899226 
L 222.148556 215.49853 
L 221.918472 214.671758 
L 221.674028 215.132522 
L 221.521952 215.996319 
L 221.067267 215.177279 
L 220.666797 214.796065 
L 220.518906 215.24117 
L 220.293198 213.977696 
L 220.095292 214.4415 
L 220.032763 214.01752 
L 220.028837 214.452376 
L 220.02155 214.885472 
L 219.598974 215.785507 
L 219.266863 214.96192 
L 218.871732 214.574513 
L 218.725427 214.157886 
L 218.576167 214.607264 
L 218.538266 214.176904 
L 218.141372 214.649991 
L 218.064704 215.088494 
L 217.917915 214.674697 
L 217.57633 214.283762 
L 217.412397 214.737275 
L 217.193671 214.329448 
L 217.109714 214.773484 
L 216.795795 215.239998 
L 216.136187 214.04067 
L 215.919482 214.51051 
L 215.620773 213.696827 
L 215.556906 214.146666 
L 215.287729 213.760294 
L 215.259492 213.325975 
L 215.242315 214.209706 
L 215.026836 213.818563 
L 215.013303 214.260182 
L 214.758527 215.176894 
L 214.657329 215.622478 
L 214.559713 214.771948 
L 214.405027 214.820209 
L 214.363379 215.262871 
L 214.317312 214.838156 
L 214.210939 214.428377 
L 214.197971 214.867514 
L 214.042644 214.476671 
L 213.668675 215.414746 
L 213.223179 215.069813 
L 213.178486 214.643582 
L 213.149013 215.085551 
L 213.09477 215.52766 
L 212.853883 215.138762 
L 212.78759 214.714941 
L 212.689658 215.169629 
L 212.553084 214.770596 
L 212.430334 215.23004 
L 212.186723 214.850597 
L 212.113853 215.300146 
L 211.785531 215.778048 
L 211.198083 215.482775 
L 211.145873 214.620872 
L 210.797904 215.137753 
L 210.747473 214.269948 
L 210.273481 213.945615 
L 210.086853 214.430148 
L 209.9942 214.024939 
L 209.732278 214.529969 
L 209.022822 213.853018 
L 208.994856 214.307553 
L 208.917559 213.885354 
L 208.862341 213.45829 
L 208.81406 213.921253 
L 208.685954 214.842788 
L 208.311392 215.371278 
L 208.24392 215.822969 
L 207.967011 214.576789 
L 207.905621 215.041464 
L 207.704846 215.545511 
L 207.622183 214.691549 
L 207.603368 215.580851 
L 207.567147 216.026413 
L 207.235981 215.65604 
L 206.98526 214.390103 
L 206.833158 213.99236 
L 206.788091 214.452097 
L 206.457729 213.667684 
L 205.35601 214.877488 
L 205.040373 214.544802 
L 204.878474 215.038667 
L 204.700028 214.648137 
L 204.48488 215.151491 
L 204.283352 214.318846 
L 204.248944 213.879974 
L 204.210129 214.346907 
L 203.944206 214.881536 
L 203.922595 215.336386 
L 203.598991 214.992506 
L 203.351897 215.498629 
L 203.328143 215.057674 
L 203.316924 215.508501 
L 203.222276 215.086357 
L 202.981719 214.706862 
L 202.895381 213.840331 
L 202.832905 214.316019 
L 202.547681 213.984173 
L 202.234041 214.567308 
L 202.140376 213.706083 
L 202.110673 214.180015 
L 202.078629 214.648269 
L 201.840311 215.191484 
L 201.728607 214.795035 
L 201.488142 214.469157 
L 201.373561 214.972387 
L 201.188231 214.596135 
L 201.143921 214.161858 
L 200.34481 214.976578 
L 199.983611 213.798389 
L 199.693531 214.890396 
L 199.499883 215.430899 
L 199.415438 215.011878 
L 199.406664 215.473594 
L 199.233186 215.094059 
L 199.221037 214.639709 
L 199.204659 215.107941 
L 198.816595 214.828066 
L 198.740517 214.405163 
L 198.174332 215.136041 
L 197.983932 216.127071 
L 197.662536 215.793751 
L 197.554414 215.37758 
L 197.517933 215.852452 
L 197.385334 215.452179 
L 196.855809 216.571177 
L 196.514759 216.258267 
L 196.027566 216.027244 
L 195.198866 216.793397 
L 194.533966 216.55779 
L 194.217184 216.1992 
L 193.954361 214.907607 
L 193.7984 214.532524 
L 193.353847 215.714097 
L 193.044356 215.402275 
L 192.887769 215.950078 
L 192.883196 215.481784 
L 192.665697 216.049919 
L 192.517787 214.722103 
L 192.118258 214.524822 
L 191.941689 215.122898 
L 191.741079 214.298822 
L 191.732521 214.786373 
L 191.524434 216.334079 
L 191.418318 215.439856 
L 191.363303 215.944332 
L 191.035238 217.490149 
L 190.480367 217.235157 
L 189.860154 216.547164 
L 189.573631 217.591679 
L 189.169876 217.263593 
L 188.955891 216.868737 
L 188.914457 216.408269 
L 188.457497 216.107144 
L 188.383002 216.612786 
L 188.326691 216.155583 
L 187.80213 215.880647 
L 187.772559 215.408552 
L 187.470041 215.052046 
L 187.401726 214.59575 
L 187.269182 215.146385 
L 187.116591 214.73084 
L 187.090155 215.232443 
L 187.065745 214.753959 
L 186.753329 215.377034 
L 186.674197 214.451422 
L 185.934138 215.304247 
L 185.873324 214.843572 
L 185.802975 215.372066 
L 185.384713 214.658197 
L 185.240159 213.789961 
L 185.228966 213.296163 
L 184.806927 215.127387 
L 184.652293 214.742235 
L 184.392686 215.403701 
L 184.055388 215.196034 
L 183.886009 215.836233 
L 183.78506 215.420967 
L 183.222978 216.242212 
L 182.96707 215.43948 
L 182.716716 216.126891 
L 182.6157 215.204583 
L 182.235111 216.499218 
L 180.628846 218.450636 
L 180.619057 218.948695 
L 180.603135 218.464351 
L 180.223069 218.230145 
L 180.040807 216.863743 
L 179.752043 217.609769 
L 179.18935 217.051665 
L 178.183237 217.304928 
L 178.145795 216.819665 
L 177.846707 217.543482 
L 177.836592 217.03654 
L 176.859239 216.661348 
L 176.623422 215.76598 
L 176.427707 216.413585 
L 176.054021 216.136337 
L 175.763197 215.281108 
L 175.72091 215.841722 
L 175.507987 215.476519 
L 175.460491 216.577193 
L 175.37299 216.117812 
L 175.176491 216.776823 
L 175.020797 216.352269 
L 174.622316 217.126199 
L 174.572077 217.680433 
L 174.310478 216.770323 
L 174.166301 217.380666 
L 174.05689 216.910529 
L 173.777959 216.56957 
L 173.576601 217.749713 
L 173.215429 216.888937 
L 173.198991 217.431368 
L 172.837717 217.099735 
L 172.786268 217.660428 
L 172.613648 217.219352 
L 172.522736 217.80044 
L 172.487905 217.285396 
L 172.14436 216.934383 
L 171.916917 215.984439 
L 171.803173 217.130169 
L 171.777999 216.604295 
L 171.347045 216.303123 
L 171.254995 215.80664 
L 170.952656 216.502659 
L 170.583978 216.145742 
L 170.495314 215.640669 
L 170.258285 215.220265 
L 170.155752 215.831276 
L 169.916997 216.499475 
L 169.616398 215.553073 
L 169.572873 215.026147 
L 169.160834 215.849439 
L 168.987965 216.507533 
L 168.809003 216.062429 
L 168.803266 216.619747 
L 168.043889 216.404953 
L 167.847392 215.95591 
L 167.764631 215.443079 
L 167.512498 215.050775 
L 167.377174 214.041635 
L 167.297837 214.683659 
L 167.187477 214.204906 
L 166.856226 215.053402 
L 166.352731 213.770112 
L 166.343412 214.359915 
L 166.262387 213.852354 
L 166.149852 213.376727 
L 165.873111 214.220366 
L 165.847341 213.659097 
L 165.70496 214.946079 
L 165.445562 214.564873 
L 165.291955 215.258619 
L 165.038084 214.306178 
L 164.770616 215.669606 
L 164.417116 215.348648 
L 164.253906 216.041949 
L 164.112645 215.555962 
L 163.999745 216.210694 
L 163.703639 215.835421 
L 163.087245 215.71349 
L 162.9849 215.219139 
L 162.738115 216.569254 
L 162.678043 216.027572 
L 162.522009 216.725503 
L 162.264215 216.321718 
L 161.776108 214.285894 
L 161.7541 214.903619 
L 161.22332 215.811139 
L 160.606482 214.351214 
L 160.489056 215.622479 
L 159.906738 215.316114 
L 159.66858 214.824538 
L 159.30981 214.380946 
L 159.246792 213.794816 
L 158.82224 212.756941 
L 158.356447 212.370222 
L 157.723698 213.931349 
L 157.35055 213.479589 
L 157.290489 212.880614 
L 157.212864 213.549139 
L 157.162244 212.945375 
L 156.818837 213.735655 
L 156.812075 213.109594 
L 156.264348 212.186879 
L 156.088637 212.935498 
L 155.982366 212.366989 
L 155.429024 212.086419 
L 155.420181 211.443167 
L 155.320872 212.152915 
L 155.302541 212.806944 
L 154.753919 212.478846 
L 154.413157 212.019907 
L 154.400992 212.675068 
L 154.227401 212.124463 
L 153.75228 213.023497 
L 153.602617 212.452497 
L 153.073002 212.084485 
L 153.010362 211.468121 
L 152.950678 212.165188 
L 152.728312 212.950799 
L 152.696925 212.317327 
L 152.632141 213.01277 
L 152.527437 212.427742 
L 152.519211 213.086894 
L 152.340597 212.552771 
L 152.259342 211.948742 
L 151.951061 212.809585 
L 151.657796 211.68658 
L 151.434711 212.505787 
L 151.008856 212.143176 
L 150.836972 211.62496 
L 150.730996 212.385911 
L 150.352922 213.35024 
L 150.291128 214.056669 
L 150.050509 212.938893 
L 149.879179 213.744823 
L 149.569935 213.328953 
L 149.47254 212.737011 
L 148.894868 212.517124 
L 148.562664 211.492635 
L 148.053427 210.62473 
L 147.857885 210.121727 
L 147.792501 210.88622 
L 147.581709 209.678358 
L 147.290231 208.551502 
L 147.174786 209.394114 
L 146.996727 207.433999 
L 146.859589 208.35062 
L 146.496371 208.098394 
L 146.442933 207.43516 
L 146.408507 208.222438 
L 146.218855 209.209633 
L 145.966984 208.836323 
L 145.948579 208.122651 
L 145.921303 208.902397 
L 145.669766 207.822924 
L 145.40865 207.498669 
L 145.352378 206.829637 
L 145.338811 207.611745 
L 145.144638 207.168226 
L 144.869264 206.84275 
L 144.70899 206.322257 
L 144.697346 204.770737 
L 144.560045 205.781906 
L 144.398777 205.255625 
L 144.319212 204.590588 
L 144.13981 204.081393 
L 144.107816 205.732621 
L 143.997444 205.110116 
L 143.97576 204.34042 
L 143.825671 203.766488 
L 143.754227 202.242562 
L 143.265729 204.726787 
L 143.135536 204.127592 
L 142.987056 205.192678 
L 142.766026 204.73435 
L 142.458052 203.572989 
L 142.454804 204.414419 
L 142.351175 203.780942 
L 142.341884 202.954702 
L 142.313118 203.854798 
L 142.22572 205.676244 
L 142.208371 204.881104 
L 141.951466 204.552145 
L 141.8031 203.154539 
L 141.508066 202.921921 
L 141.459949 201.275319 
L 141.24783 200.863101 
L 141.196481 199.177387 
L 141.126856 200.247664 
L 140.757544 201.963581 
L 140.67895 200.3316 
L 140.360307 198.29889 
L 140.332684 199.304569 
L 140.216138 198.651947 
L 140.113756 199.835577 
L 140.07422 199.001116 
L 139.73579 199.05144 
L 139.571419 198.577939 
L 139.397093 200.988786 
L 139.109718 200.892944 
L 138.964029 200.361906 
L 138.712794 200.177673 
L 138.69255 199.257915 
L 138.543908 200.697476 
L 138.41768 200.103647 
L 138.283764 198.527748 
L 137.254861 200.769809 
L 137.214698 198.819109 
L 137.067587 198.217667 
L 136.953384 199.621402 
L 136.847976 197.819729 
L 136.643826 197.374373 
L 136.243836 197.503316 
L 135.917422 197.369593 
L 135.671744 196.973216 
L 135.224505 197.13874 
L 135.026843 198.843933 
L 134.779158 198.440026 
L 134.408464 197.227352 
L 134.367416 196.168022 
L 134.268155 197.672951 
L 134.102852 195.796671 
L 133.259705 196.05166 
L 132.954686 194.513583 
L 132.910604 193.364633 
L 132.253288 196.913039 
L 132.137533 199.846268 
L 132.106533 198.689014 
L 131.878022 196.913733 
L 131.562096 196.73436 
L 131.017445 197.332767 
L 130.929065 194.90393 
L 130.912469 196.353706 
L 130.15471 201.772244 
L 130.071608 200.728132 
L 129.97385 202.422236 
L 129.816299 201.651476 
L 129.347609 204.669926 
L 128.905579 204.874277 
L 128.865488 203.648846 
L 128.334915 204.102783 
L 128.242752 203.007815 
L 127.839333 202.95247 
L 127.622781 202.232185 
L 127.384416 205.921988 
L 127.249571 204.940358 
L 127.209987 202.135144 
L 126.964184 198.41471 
L 126.670958 201.041084 
L 126.626481 199.629472 
L 126.26205 197.723241 
L 125.974858 197.14147 
L 125.852146 199.263296 
L 125.501418 198.952067 
L 125.271226 196.413966 
L 125.021903 195.658387 
L 124.465769 190.497176 
L 124.18414 189.755698 
L 124.133066 187.960577 
L 123.922774 186.854233 
L 123.91665 184.754978 
L 123.466758 184.649136 
L 123.228595 183.525793 
L 122.469881 184.756461 
L 122.022124 182.090071 
L 121.44669 179.7594 
L 120.766116 180.462199 
L 120.123633 180.861543 
L 120.116375 178.049152 
L 119.708834 177.140677 
L 118.605743 179.540596 
L 118.189645 178.424211 
L 117.947968 176.369752 
L 117.223176 176.718323 
L 117.159099 169.739983 
L 116.739897 168.015388 
L 115.55151 177.98665 
L 114.796614 178.015583 
L 113.489038 180.895051 
L 112.293636 191.2311 
L 112.09637 188.150909 
L 109.65108 196.775206 
L 109.513669 192.954103 
L 109.061572 190.556142 
L 108.409367 183.565582 
L 106.262754 189.440179 
L 105.63671 186.572698 
L 105.144269 182.478869 
L 104.817144 176.97159 
L 104.256835 172.054557 
L 103.915181 165.146594 
L 100.743279 173.231859 
L 98.933584 172.478512 
L 96.35059 174.5469 
L 93.837605 173.869993 
L 82.056508 223.661224 
L 81.963941 200.022975 
L 79.568594 237.987084 
L 74.614525 242.116364 
L 74.499027 208.703942 
L 69.218182 180.762825 
L 69.218182 180.762825 
" style="fill:none;stroke:#1f77b4;stroke-dasharray:7.5,2.5;stroke-dashoffset:0;stroke-width:2.5;"/>
   </g>
   <g id="line2d_28">
    <defs>
     <path d="M -6 6 
L 6 -6 
M -6 -6 
L 6 6 
" id="m9f3d1a55cf" style="stroke:#000000;"/>
    </defs>
    <g clip-path="url(#p0b788663fd)">
     <use style="stroke:#000000;" x="310.271801" xlink:href="#m9f3d1a55cf" y="216.715242"/>
    </g>
   </g>
   <g id="line2d_29">
    <defs>
     <path d="M -3 3 
L 3 3 
L 3 -3 
L -3 -3 
z
" id="mf86565ac82" style="stroke:#0000ff;stroke-linejoin:miter;"/>
    </defs>
    <g clip-path="url(#p0b788663fd)">
     <use style="fill:#0000ff;stroke:#0000ff;stroke-linejoin:miter;" x="74.614525" xlink:href="#mf86565ac82" y="242.116364"/>
    </g>
   </g>
   <g id="line2d_30">
    <defs>
     <path d="M 0 3 
C 0.795609 3 1.55874 2.683901 2.12132 2.12132 
C 2.683901 1.55874 3 0.795609 3 0 
C 3 -0.795609 2.683901 -1.55874 2.12132 -2.12132 
C 1.55874 -2.683901 0.795609 -3 0 -3 
C -0.795609 -3 -1.55874 -2.683901 -2.12132 -2.12132 
C -2.683901 -1.55874 -3 -0.795609 -3 0 
C -3 0.795609 -2.683901 1.55874 -2.12132 2.12132 
C -1.55874 2.683901 -0.795609 3 0 3 
z
" id="m070504eefc" style="stroke:#ff0000;"/>
    </defs>
    <g clip-path="url(#p0b788663fd)">
     <use style="fill:#ff0000;stroke:#ff0000;" x="0" xlink:href="#m070504eefc" y="0"/>
    </g>
   </g>
   <g id="line2d_31">
    <path clip-path="url(#p0b788663fd)" d="M 373.581818 189.258244 
L 373.323541 189.397101 
L 373.313846 189.028459 
L 370.586052 194.292539 
L 370.481429 194.085039 
L 368.161106 197.673586 
L 367.981975 197.534758 
L 365.962542 200.093868 
L 365.721605 199.979208 
L 363.941464 201.875343 
L 363.64717 201.763348 
L 362.05253 203.227346 
L 361.710426 203.107791 
L 360.276076 204.274398 
L 359.890082 204.142859 
L 358.580417 205.107935 
L 358.152765 204.962767 
L 356.944456 205.785982 
L 356.476176 205.626898 
L 355.355875 206.346668 
L 354.847267 206.174039 
L 353.807835 206.816471 
L 353.258748 206.630999 
L 352.30036 207.213972 
L 351.7106 207.016541 
L 350.829983 207.554299 
L 350.199191 207.345831 
L 349.398693 207.848351 
L 348.726607 207.629809 
L 347.997509 208.106096 
L 347.283423 207.878326 
L 346.622579 208.334462 
L 345.865578 208.098236 
L 345.272603 208.538625 
L 344.471703 208.29466 
L 343.936639 208.723395 
L 343.090146 208.472263 
L 342.611085 208.891879 
L 341.71701 208.634081 
L 341.304373 209.045923 
L 340.361305 208.78199 
L 340.008957 209.188004 
L 339.014908 208.918369 
L 338.707658 209.320372 
L 337.659162 209.045309 
L 337.396035 209.444139 
L 336.289001 209.163874 
L 336.074166 209.560057 
L 334.904202 209.274802 
L 334.722106 209.669286 
L 333.482522 209.379109 
L 333.328851 209.772329 
L 332.01112 209.477235 
L 331.872952 209.869682 
L 331.349278 209.515196 
L 331.257029 209.140417 
L 331.101142 209.538275 
L 331.094407 209.1474 
L 330.774237 209.550868 
L 330.602101 209.189575 
L 330.506888 209.584815 
L 330.489673 209.195152 
L 330.079661 209.600871 
L 330.064619 209.210787 
L 330.034347 209.60352 
L 329.893448 209.235141 
L 329.877643 208.844563 
L 329.845496 209.634538 
L 329.817156 209.245947 
L 329.396722 209.651012 
L 329.370216 209.261959 
L 329.20902 209.658456 
L 328.981624 209.301932 
L 328.695699 209.702019 
L 328.656652 209.313909 
L 328.370941 209.713389 
L 328.119566 209.358173 
L 327.990268 209.753401 
L 327.937481 209.366165 
L 327.632031 209.765583 
L 327.579833 209.377975 
L 327.472348 209.772266 
L 327.182647 209.419343 
L 326.925987 209.817088 
L 326.858336 209.430276 
L 326.547641 209.828745 
L 326.229988 209.476649 
L 326.119161 209.870771 
L 326.034781 209.484619 
L 325.715341 209.882725 
L 325.630579 209.496178 
L 325.56744 209.889119 
L 325.275982 209.13856 
L 325.265921 209.533307 
L 325.262943 209.925131 
L 325.16019 209.539545 
L 324.812861 209.937614 
L 324.709072 209.551594 
L 324.642095 209.944495 
L 324.328704 209.194317 
L 324.31917 209.588932 
L 324.316198 209.980751 
L 324.193075 209.595609 
L 323.85929 209.99287 
L 323.632923 209.226057 
L 323.396046 209.643683 
L 323.317714 210.036701 
L 323.171895 209.651915 
L 322.948636 210.047021 
L 322.513637 209.697604 
L 322.243522 210.093291 
L 322.067977 209.320969 
L 321.748395 209.744567 
L 321.631202 210.137985 
L 321.435864 209.754134 
L 321.392407 210.146476 
L 321.092567 209.39086 
L 320.995372 210.182949 
L 320.774803 209.799742 
L 320.656368 210.193032 
L 320.369787 209.82709 
L 320.238953 209.446425 
L 319.954736 210.239024 
L 319.647824 209.874487 
L 319.522917 209.493064 
L 319.259186 210.285002 
L 318.837646 209.538228 
L 318.524036 210.33159 
L 318.099595 209.58474 
L 317.757757 210.378593 
L 317.326986 209.63181 
L 317.078706 210.032876 
L 316.98213 210.425709 
L 316.558185 209.678281 
L 316.250811 210.080631 
L 316.195646 210.472985 
L 316.096238 210.089505 
L 315.789439 209.724385 
L 315.388579 210.12878 
L 315.373589 210.5207 
L 315.347872 210.131048 
L 314.984561 209.770815 
L 314.974951 210.556705 
L 314.221706 209.812394 
L 314.078912 210.60528 
L 313.489767 209.851164 
L 313.142891 210.654283 
L 312.743414 209.889512 
L 312.163205 210.703699 
L 312.026507 209.925196 
L 311.498471 210.358536 
L 311.199553 210.753005 
L 310.757789 210.394409 
L 310.630662 210.011457 
L 310.26684 210.80209 
L 309.747683 210.057997 
L 309.320772 210.459595 
L 309.248444 210.851949 
L 309.156154 210.466936 
L 308.756546 210.106193 
L 308.190126 210.509655 
L 307.707013 210.154808 
L 307.164488 210.557236 
L 306.749742 210.196247 
L 306.531202 210.990229 
L 305.781538 210.234356 
L 305.194653 211.041707 
L 304.820803 210.270343 
L 304.345291 210.693632 
L 304.29123 210.30383 
L 304.20211 210.698645 
L 303.765531 211.093226 
L 303.703405 210.310041 
L 303.231872 210.732248 
L 303.030638 210.352253 
L 302.293234 211.144115 
L 301.579576 210.401382 
L 300.699852 211.194327 
L 299.959173 210.450081 
L 299.238297 210.850429 
L 298.92876 211.243593 
L 298.634783 210.865685 
L 298.142336 210.497723 
L 297.231767 210.898523 
L 296.965045 211.291313 
L 296.72179 210.909624 
L 296.118209 210.5435 
L 294.968136 210.944563 
L 294.862554 211.336666 
L 294.77076 210.948212 
L 293.966759 210.586367 
L 292.641927 210.986954 
L 291.664052 210.626232 
L 290.392294 211.025273 
L 289.481602 210.65783 
L 289.478503 211.051505 
L 289.381933 210.660662 
L 289.279553 210.268095 
L 289.116524 210.665272 
L 289.113624 210.269903 
L 288.118643 211.065073 
L 287.158913 210.696214 
L 287.117208 210.301952 
L 286.801525 210.70485 
L 286.793203 210.309718 
L 286.772469 210.705396 
L 286.418454 210.321953 
L 286.060226 210.721079 
L 285.968532 209.93099 
L 285.679908 210.337573 
L 285.623209 210.733577 
L 285.550116 210.339435 
L 285.485175 210.735524 
L 285.122553 210.35292 
L 284.893482 209.565834 
L 283.997667 210.393173 
L 283.93056 209.998269 
L 283.271029 210.803795 
L 282.8251 210.420065 
L 282.463041 210.818109 
L 282.125839 210.431142 
L 281.934341 210.03989 
L 280.944377 210.460926 
L 280.170114 210.084464 
L 280.127102 210.482659 
L 279.375248 210.881967 
L 278.801407 210.49721 
L 278.183703 210.895411 
L 277.084114 210.517589 
L 277.051709 210.120893 
L 276.68874 209.729979 
L 276.296319 210.136319 
L 275.720329 210.541151 
L 275.57851 210.937051 
L 274.792294 210.545413 
L 274.219073 210.942444 
L 273.535121 210.554226 
L 273.452326 210.158007 
L 273.225609 210.556165 
L 273.130952 210.951844 
L 271.362942 210.571906 
L 270.428051 210.18278 
L 270.417414 209.783711 
L 270.207566 210.184641 
L 269.25544 209.793939 
L 268.698473 210.19699 
L 267.112121 210.602853 
L 266.830909 209.807924 
L 265.674372 210.212381 
L 265.30116 209.815108 
L 264.470974 210.217461 
L 264.168993 209.819838 
L 264.163483 210.219069 
L 264.157816 209.819943 
L 263.712868 210.220778 
L 263.668551 209.822399 
L 263.286319 210.223427 
L 263.206727 209.825533 
L 262.596176 210.227307 
L 262.471071 209.428212 
L 262.454847 209.829692 
L 261.547285 210.232672 
L 261.465299 209.83459 
L 260.619139 210.236745 
L 260.563103 209.838626 
L 260.399715 210.238408 
L 260.203654 209.839884 
L 260.2032 209.438775 
L 259.852335 209.841101 
L 259.781735 209.441025 
L 259.165481 209.844171 
L 259.080574 209.443958 
L 258.343274 209.847182 
L 258.257735 209.447543 
L 257.917351 209.849621 
L 257.909302 209.448617 
L 257.717767 209.850266 
L 257.626879 209.450287 
L 257.313276 209.852264 
L 256.821811 209.467518 
L 256.767393 209.067212 
L 256.694423 209.472676 
L 256.64104 209.072042 
L 256.255224 209.487243 
L 256.187194 209.086969 
L 255.918746 209.498289 
L 255.824067 209.100917 
L 255.001008 209.527976 
L 254.075215 209.160186 
L 253.836463 209.569101 
L 253.747973 208.765036 
L 253.743067 208.358478 
L 253.694905 208.768175 
L 253.283552 209.183098 
L 253.235087 208.783712 
L 252.249746 209.614164 
L 251.825161 210.022817 
L 251.242281 209.631556 
L 251.196277 208.826234 
L 250.906877 209.243763 
L 250.869839 209.647972 
L 250.568372 210.05388 
L 250.302876 209.659041 
L 250.174069 208.454158 
L 249.21659 208.884196 
L 248.866154 209.294909 
L 248.789907 209.699074 
L 248.361255 210.105926 
L 248.004866 209.714469 
L 247.834651 208.912927 
L 247.563609 209.326313 
L 246.47644 209.759105 
L 246.117284 209.375129 
L 245.724761 209.787888 
L 245.689794 209.385762 
L 244.633826 209.007976 
L 244.321948 208.612172 
L 244.247442 208.206304 
L 243.97217 208.62413 
L 243.278645 209.045871 
L 243.272157 208.639063 
L 243.059524 208.237359 
L 242.468563 208.660448 
L 242.454669 208.252269 
L 241.989242 208.671906 
L 241.591912 207.874566 
L 241.430025 208.290564 
L 241.398747 208.700277 
L 241.219661 209.111069 
L 240.235438 208.731641 
L 239.820108 207.164501 
L 239.653031 208.034385 
L 239.364764 207.687432 
L 239.339415 207.279854 
L 239.21409 207.723239 
L 238.765564 207.42572 
L 237.938605 208.009353 
L 237.567318 207.681965 
L 237.544662 207.27224 
L 237.444125 207.712419 
L 237.201895 208.171843 
L 237.096157 207.782777 
L 236.973 208.220012 
L 236.656448 207.864154 
L 236.615416 207.455599 
L 236.536876 207.886866 
L 236.198324 207.543488 
L 236.02956 207.160537 
L 235.262651 207.703749 
L 234.995995 207.326465 
L 234.899371 206.92543 
L 234.515267 207.422348 
L 234.503159 207.843181 
L 234.10335 207.496234 
L 233.958687 207.935181 
L 233.847891 207.536798 
L 233.622058 208.40853 
L 233.46985 208.015329 
L 233.380196 206.772925 
L 233.255671 206.38108 
L 233.063817 207.27668 
L 233.012817 206.868638 
L 232.998963 207.295594 
L 232.567936 207.801012 
L 232.012031 206.664867 
L 231.879403 207.115102 
L 231.853427 206.695977 
L 231.106988 207.25309 
L 231.083623 206.831807 
L 230.985343 207.273595 
L 230.272799 206.963807 
L 229.857509 207.451012 
L 229.804466 206.608986 
L 229.72061 207.052991 
L 229.716455 207.479277 
L 229.666575 207.063768 
L 229.177306 207.560609 
L 229.129879 207.143782 
L 229.018431 208.010898 
L 228.488793 207.685677 
L 228.460579 208.112516 
L 227.924724 207.331744 
L 227.698608 207.783274 
L 227.20144 207.013029 
L 226.444532 206.728177 
L 226.26968 206.328991 
L 225.792983 206.843353 
L 225.707479 206.432309 
L 225.535463 206.892082 
L 224.837389 207.427895 
L 224.834707 206.998578 
L 224.606537 206.17926 
L 224.595833 206.615649 
L 224.402471 207.082308 
L 224.365511 206.657357 
L 224.298346 207.101165 
L 223.998986 206.725162 
L 223.737144 207.196467 
L 223.527446 206.797353 
L 223.518134 206.364766 
L 222.906296 206.891254 
L 222.651018 206.063632 
L 222.626002 206.504106 
L 222.137728 207.005629 
L 222.068635 206.14624 
L 222.046771 207.020258 
L 221.765455 207.917286 
L 220.502919 208.901093 
L 219.873024 208.112539 
L 219.301655 208.58953 
L 218.115882 208.257344 
L 217.885603 209.126146 
L 217.860976 208.702449 
L 217.529713 208.308076 
L 217.302237 209.176615 
L 217.027892 208.341782 
L 216.575331 207.942733 
L 216.503399 207.51747 
L 216.146971 207.122154 
L 216.038215 206.699084 
L 215.947834 207.145099 
L 215.609857 206.746696 
L 215.491313 207.193228 
L 215.490986 207.627538 
L 214.858565 207.247106 
L 214.561574 206.838591 
L 213.97411 207.322142 
L 213.7816 207.770086 
L 213.724411 208.20553 
L 213.245529 207.806102 
L 213.174835 208.242147 
L 213.10214 207.814728 
L 211.819273 208.313276 
L 211.768353 207.450096 
L 210.839 207.942261 
L 210.809331 208.375924 
L 210.680825 207.951325 
L 210.14607 208.407018 
L 209.086388 206.28033 
L 208.92406 206.731177 
L 208.89139 207.171704 
L 208.611919 206.31418 
L 208.55484 207.198215 
L 207.881733 205.48304 
L 207.83178 205.933388 
L 207.779122 205.494184 
L 207.691339 205.948451 
L 207.180115 206.870051 
L 206.991122 206.00202 
L 206.972312 206.446951 
L 206.614569 205.609977 
L 206.492458 206.07107 
L 206.192552 205.664297 
L 205.567234 205.331252 
L 205.527331 205.784305 
L 205.154463 204.953343 
L 205.046927 203.612974 
L 204.834898 204.118759 
L 204.470181 204.632 
L 204.439156 204.182291 
L 204.141605 204.682797 
L 204.130457 205.137339 
L 204.087365 204.69126 
L 203.746083 205.642327 
L 203.720216 205.195764 
L 203.153647 204.836058 
L 203.081079 204.394639 
L 202.920484 205.779245 
L 202.642763 205.367033 
L 202.607058 204.919315 
L 202.328537 205.40922 
L 202.27701 204.967735 
L 202.149204 205.440687 
L 202.089114 204.99671 
L 202.066634 205.453037 
L 201.995686 205.913359 
L 201.8906 205.47827 
L 201.631231 205.070416 
L 201.588127 205.53015 
L 201.519215 205.091682 
L 201.512302 204.637945 
L 201.10601 205.170927 
L 200.501669 204.37014 
L 200.315868 204.86084 
L 200.178786 203.974481 
L 200.157096 204.439274 
L 199.501932 205.010025 
L 199.34581 205.488018 
L 198.975555 205.093381 
L 197.921202 206.142589 
L 197.39546 205.77003 
L 197.179703 205.351349 
L 197.056983 205.82347 
L 196.98785 205.381596 
L 196.952261 205.841747 
L 196.858896 205.398999 
L 196.490871 204.998729 
L 196.434635 205.464983 
L 196.21297 205.068061 
L 196.166372 205.533122 
L 195.82412 205.126655 
L 195.738274 205.596292 
L 195.691042 205.145986 
L 194.65181 204.848119 
L 194.563915 204.400285 
L 193.822655 203.614003 
L 193.711115 202.220358 
L 193.77655 203.623895 
L 193.641919 202.713184 
L 193.585765 203.199895 
L 193.49754 202.747149 
L 193.411076 203.239943 
L 193.395397 202.771748 
L 193.390053 202.297418 
L 192.960646 203.812964 
L 192.823081 203.371691 
L 191.576999 204.075321 
L 191.33888 203.64845 
L 191.028338 204.169768 
L 190.894 203.247942 
L 190.869214 203.726386 
L 190.337625 203.364932 
L 190.252483 202.908957 
L 190.017648 203.43109 
L 190.01748 202.955011 
L 189.306628 202.631456 
L 189.26154 202.159799 
L 188.919722 203.659736 
L 188.839421 203.206835 
L 188.834931 203.683985 
L 188.615435 204.676542 
L 188.530704 204.224841 
L 187.633883 203.485527 
L 187.500294 203.044879 
L 187.429368 201.618408 
L 187.193443 202.18673 
L 186.873045 201.342228 
L 186.845278 201.840639 
L 186.720996 200.910354 
L 186.376304 200.564751 
L 186.300185 200.099332 
L 186.294698 200.60033 
L 186.213508 201.129487 
L 186.079799 200.694392 
L 185.962379 201.728248 
L 185.669718 201.352344 
L 185.588049 202.364318 
L 185.420469 200.957694 
L 184.842951 201.701596 
L 184.790616 202.214798 
L 184.77656 201.727634 
L 184.472639 201.355111 
L 184.3724 200.89779 
L 183.906973 202.067462 
L 183.596413 200.689718 
L 183.509727 201.222815 
L 183.428919 200.754268 
L 183.230574 201.334548 
L 183.171685 201.852187 
L 182.619419 201.54738 
L 182.596189 201.053864 
L 182.51614 201.583389 
L 182.512239 201.083206 
L 182.332972 200.647426 
L 182.306131 200.150331 
L 182.297709 200.661092 
L 182.125879 200.214753 
L 182.042954 199.221749 
L 182.009102 199.749072 
L 181.494032 200.437212 
L 181.255636 201.017786 
L 181.160533 201.550057 
L 181.059494 201.074634 
L 180.784276 201.657119 
L 180.555648 201.256215 
L 180.303444 201.848737 
L 180.077518 200.930609 
L 179.63157 201.598766 
L 178.954942 201.328724 
L 178.792384 200.871951 
L 178.69102 201.41554 
L 178.461431 200.466597 
L 178.216434 201.056095 
L 178.133574 201.588236 
L 177.913666 201.134938 
L 177.249527 200.793471 
L 177.061985 201.351409 
L 176.847481 200.886742 
L 176.191355 201.542181 
L 175.880713 201.105683 
L 175.79228 200.610033 
L 175.605819 201.167265 
L 175.535452 200.66639 
L 175.524787 201.185657 
L 175.376832 200.706467 
L 175.339235 201.233117 
L 174.731447 200.870366 
L 174.444842 200.422354 
L 174.372 200.959758 
L 174.239394 200.475939 
L 173.280818 200.20723 
L 173.170353 200.757598 
L 172.740863 200.341966 
L 172.699894 200.874928 
L 172.563002 200.383606 
L 172.314609 200.961554 
L 172.118327 199.956665 
L 172.012027 200.512187 
L 171.994822 199.99024 
L 171.894098 200.544464 
L 171.78843 200.054062 
L 171.382414 200.705225 
L 171.203216 200.231222 
L 170.98325 200.82025 
L 170.437743 199.917135 
L 169.973344 199.509874 
L 169.434902 198.042473 
L 169.130267 198.664974 
L 168.525012 197.763476 
L 168.323182 198.906668 
L 168.114722 198.415312 
L 168.108987 198.960647 
L 167.637707 198.535014 
L 167.607547 199.08539 
L 167.302908 199.685928 
L 167.119536 199.183345 
L 167.112728 199.725094 
L 166.622771 199.28954 
L 166.564246 198.214868 
L 166.24689 197.758628 
L 166.100435 196.697702 
L 166.060148 196.151106 
L 165.895503 195.650273 
L 165.825774 196.242567 
L 165.505596 196.91302 
L 165.241557 194.742107 
L 165.154882 195.917042 
L 165.023495 194.824499 
L 164.760023 195.496118 
L 164.654763 194.963318 
L 164.612621 195.55273 
L 164.337391 194.516736 
L 164.331525 195.096617 
L 164.191019 194.582141 
L 163.683793 195.364065 
L 163.62801 195.95933 
L 163.315009 194.945092 
L 162.937717 195.681726 
L 162.707844 196.917018 
L 162.690997 196.354362 
L 162.590083 196.964621 
L 162.30817 196.51183 
L 162.25567 195.382466 
L 161.909337 194.956829 
L 161.900088 195.542268 
L 161.808202 195.002968 
L 161.703919 195.629228 
L 161.475207 195.146036 
L 161.449359 195.738113 
L 161.40515 195.1754 
L 160.943673 194.808327 
L 160.679908 192.556822 
L 160.382256 193.888122 
L 159.87563 195.268303 
L 159.862082 194.683714 
L 159.740417 195.318028 
L 159.209567 196.084041 
L 159.028226 195.567594 
L 158.940859 193.819575 
L 158.866045 194.447995 
L 158.736989 193.90273 
L 158.679324 194.523574 
L 158.14302 194.141934 
L 157.994858 193.603886 
L 157.781428 194.887122 
L 157.517369 194.440098 
L 157.405631 193.906313 
L 157.3916 194.516656 
L 157.363284 193.930768 
L 157.157165 193.452177 
L 157.07147 194.110919 
L 156.88931 193.642153 
L 156.856427 195.472461 
L 156.819071 194.900452 
L 156.565326 193.87873 
L 156.495205 195.134225 
L 156.181635 194.7366 
L 156.04471 194.21883 
L 155.776943 193.778294 
L 155.297885 193.472739 
L 155.205375 192.294765 
L 154.949891 191.853518 
L 154.836728 191.301495 
L 154.749845 191.995651 
L 154.506618 191.527339 
L 154.441293 190.293162 
L 154.239077 191.073716 
L 153.928674 190.654841 
L 153.598594 188.305292 
L 153.335047 187.872922 
L 153.163277 187.354331 
L 153.071605 184.690877 
L 152.894492 185.583513 
L 152.802263 184.289147 
L 152.737109 184.357784 
L 152.407499 184.004852 
L 152.312978 182.672139 
L 152.295157 183.413241 
L 151.774466 184.662019 
L 151.281961 183.777748 
L 150.889963 183.486544 
L 150.701623 182.963162 
L 150.677162 183.723338 
L 150.646786 183.029132 
L 150.513416 181.727343 
L 150.379083 182.656853 
L 150.210337 181.392563 
L 149.983142 182.455219 
L 149.977991 183.208845 
L 149.355416 184.710426 
L 149.146198 184.222394 
L 149.090613 183.543937 
L 148.777805 182.452209 
L 148.657349 181.07944 
L 148.167035 183.247503 
L 147.832373 180.628933 
L 147.582157 182.592998 
L 147.257607 183.84529 
L 147.15205 181.664095 
L 146.950446 183.536628 
L 146.936314 182.776379 
L 146.692504 181.57759 
L 146.537353 183.400755 
L 146.394735 182.065435 
L 146.109292 183.353735 
L 146.10388 182.566431 
L 145.827883 182.229164 
L 145.507074 183.555604 
L 145.466505 182.820493 
L 145.414085 183.71295 
L 145.332344 183.050802 
L 145.143304 184.176971 
L 145.011475 182.792441 
L 144.844585 183.883316 
L 144.754633 182.403314 
L 144.626489 183.433019 
L 144.417262 182.970209 
L 144.355007 182.251392 
L 144.281442 183.203745 
L 144.073211 181.070188 
L 143.965527 182.949667 
L 143.865966 182.304168 
L 143.68036 183.488825 
L 143.568357 182.017464 
L 143.218234 181.821342 
L 142.625681 180.336065 
L 142.406048 177.153975 
L 142.215555 176.613295 
L 142.088904 178.71295 
L 142.069519 177.834297 
L 141.831892 175.507368 
L 141.803101 176.51535 
L 141.724104 175.745912 
L 141.370152 179.338628 
L 141.102185 178.04892 
L 140.872648 174.72958 
L 140.65905 174.278489 
L 140.605741 173.411358 
L 140.453143 172.79458 
L 140.328091 174.138595 
L 140.042688 173.859192 
L 140.032283 172.854791 
L 139.747705 172.557661 
L 139.696697 171.633537 
L 139.573635 172.999472 
L 139.380213 172.489724 
L 139.31162 171.612011 
L 139.144786 175.237037 
L 138.810472 177.140497 
L 138.670801 175.458803 
L 138.476354 174.974304 
L 138.396713 176.262004 
L 138.370363 175.289282 
L 138.219345 174.710631 
L 138.17968 173.754928 
L 138.040238 175.285341 
L 137.954466 174.478361 
L 137.76177 174.010067 
L 137.706748 171.956527 
L 137.174746 172.73 
L 136.870205 174.931076 
L 136.753528 173.03777 
L 136.448437 172.934715 
L 136.44682 171.748644 
L 136.124144 171.790783 
L 135.933449 171.303364 
L 135.825199 170.479172 
L 135.685159 167.179377 
L 135.598195 166.20025 
L 135.403945 168.27985 
L 135.296249 167.381511 
L 135.07702 166.898936 
L 134.778433 166.720446 
L 134.749862 165.448467 
L 134.47731 165.147252 
L 134.45859 163.786835 
L 133.975677 164.281849 
L 133.620521 164.226299 
L 133.506553 166.166893 
L 132.989452 166.709058 
L 132.752932 166.109602 
L 132.372506 166.05178 
L 131.791142 166.705385 
L 131.621797 168.905939 
L 131.400664 168.164679 
L 131.258933 167.107926 
L 131.04837 161.201828 
L 130.736215 160.657591 
L 130.489208 159.858569 
L 130.353224 158.575192 
L 129.968717 158.30095 
L 129.953559 156.435103 
L 129.545513 160.107835 
L 129.207845 159.623377 
L 129.018274 158.468779 
L 128.98816 156.577732 
L 128.794619 155.39798 
L 128.538667 152.319428 
L 128.231033 151.563494 
L 128.016052 150.298438 
L 127.878805 148.593527 
L 127.562775 147.7299 
L 126.725784 149.523282 
L 126.332337 148.976531 
L 125.921682 142.925318 
L 125.213688 149.602027 
L 124.622704 149.975761 
L 123.65082 152.360606 
L 123.647031 149.325225 
L 123.393205 147.545688 
L 122.521676 149.02036 
L 122.502534 152.419685 
L 122.241805 150.532084 
L 121.164284 152.949058 
L 120.79161 147.656575 
L 120.453727 145.586105 
L 119.76363 145.228813 
L 117.917703 150.84276 
L 117.315725 149.500871 
L 117.123277 145.754584 
L 116.770691 142.614147 
L 116.161747 151.056271 
L 115.446962 149.879627 
L 114.923246 147.323702 
L 114.442348 144.159131 
L 114.045914 140.118314 
L 113.996606 133.668723 
L 113.440645 129.479958 
L 112.485189 126.830995 
L 111.150838 142.21396 
L 109.840565 132.811414 
L 107.117431 138.4774 
L 106.420474 131.227363 
L 105.644172 146.826751 
L 104.589053 141.543265 
L 104.514388 129.010047 
L 104.259894 115.122221 
L 101.907506 143.48468 
L 100.97719 133.298923 
L 98.874393 126.460719 
L 98.323721 105.394249 
L 94.912475 90.395235 
L 92.751896 44.443636 
L 92.751896 44.443636 
" style="fill:none;stroke:#ff7f0e;stroke-dasharray:2500,2.5;stroke-dashoffset:0;stroke-width:2.5;"/>
   </g>
   <g id="line2d_32">
    <g clip-path="url(#p0b788663fd)">
     <use style="stroke:#000000;" x="310.630662" xlink:href="#m9f3d1a55cf" y="210.011457"/>
    </g>
   </g>
   <g id="line2d_33">
    <g clip-path="url(#p0b788663fd)">
     <use style="fill:#0000ff;stroke:#0000ff;stroke-linejoin:miter;" x="294.862554" xlink:href="#mf86565ac82" y="211.336666"/>
    </g>
   </g>
   <g id="line2d_34">
    <g clip-path="url(#p0b788663fd)">
     <use style="fill:#ff0000;stroke:#ff0000;" x="329.162193" xlink:href="#m070504eefc" y="189.563754"/>
    </g>
   </g>
   <g id="patch_3">
    <path d="M 54 252 
L 54 34.56 
" style="fill:none;stroke:#000000;stroke-linecap:square;stroke-linejoin:miter;stroke-width:0.8;"/>
   </g>
   <g id="patch_4">
    <path d="M 388.8 252 
L 388.8 34.56 
" style="fill:none;stroke:#000000;stroke-linecap:square;stroke-linejoin:miter;stroke-width:0.8;"/>
   </g>
   <g id="patch_5">
    <path d="M 54 252 
L 388.8 252 
" style="fill:none;stroke:#000000;stroke-linecap:square;stroke-linejoin:miter;stroke-width:0.8;"/>
   </g>
   <g id="patch_6">
    <path d="M 54 34.56 
L 388.8 34.56 
" style="fill:none;stroke:#000000;stroke-linecap:square;stroke-linejoin:miter;stroke-width:0.8;"/>
   </g>
   <g id="text_10">
    <!-- GCV function for $\ell_1$ trend filter ($\sigma = 0.01$) -->
    <defs>
     <path id="DejaVuSans-32"/>
     <path d="M 37.109375 75.984375 
L 37.109375 68.5 
L 28.515625 68.5 
Q 23.6875 68.5 21.796875 66.546875 
Q 19.921875 64.59375 19.921875 59.515625 
L 19.921875 54.6875 
L 34.71875 54.6875 
L 34.71875 47.703125 
L 19.921875 47.703125 
L 19.921875 0 
L 10.890625 0 
L 10.890625 47.703125 
L 2.296875 47.703125 
L 2.296875 54.6875 
L 10.890625 54.6875 
L 10.890625 58.5 
Q 10.890625 67.625 15.140625 71.796875 
Q 19.390625 75.984375 28.609375 75.984375 
z
" id="DejaVuSans-102"/>
     <path d="M 8.5 21.578125 
L 8.5 54.6875 
L 17.484375 54.6875 
L 17.484375 21.921875 
Q 17.484375 14.15625 20.5 10.265625 
Q 23.53125 6.390625 29.59375 6.390625 
Q 36.859375 6.390625 41.078125 11.03125 
Q 45.3125 15.671875 45.3125 23.6875 
L 45.3125 54.6875 
L 54.296875 54.6875 
L 54.296875 0 
L 45.3125 0 
L 45.3125 8.40625 
Q 42.046875 3.421875 37.71875 1 
Q 33.40625 -1.421875 27.6875 -1.421875 
Q 18.265625 -1.421875 13.375 4.4375 
Q 8.5 10.296875 8.5 21.578125 
z
M 31.109375 56 
z
" id="DejaVuSans-117"/>
     <path d="M 54.890625 33.015625 
L 54.890625 0 
L 45.90625 0 
L 45.90625 32.71875 
Q 45.90625 40.484375 42.875 44.328125 
Q 39.84375 48.1875 33.796875 48.1875 
Q 26.515625 48.1875 22.3125 43.546875 
Q 18.109375 38.921875 18.109375 30.90625 
L 18.109375 0 
L 9.078125 0 
L 9.078125 54.6875 
L 18.109375 54.6875 
L 18.109375 46.1875 
Q 21.34375 51.125 25.703125 53.5625 
Q 30.078125 56 35.796875 56 
Q 45.21875 56 50.046875 50.171875 
Q 54.890625 44.34375 54.890625 33.015625 
z
" id="DejaVuSans-110"/>
     <path d="M 48.78125 52.59375 
L 48.78125 44.1875 
Q 44.96875 46.296875 41.140625 47.34375 
Q 37.3125 48.390625 33.40625 48.390625 
Q 24.65625 48.390625 19.8125 42.84375 
Q 14.984375 37.3125 14.984375 27.296875 
Q 14.984375 17.28125 19.8125 11.734375 
Q 24.65625 6.203125 33.40625 6.203125 
Q 37.3125 6.203125 41.140625 7.25 
Q 44.96875 8.296875 48.78125 10.40625 
L 48.78125 2.09375 
Q 45.015625 0.34375 40.984375 -0.53125 
Q 36.96875 -1.421875 32.421875 -1.421875 
Q 20.0625 -1.421875 12.78125 6.34375 
Q 5.515625 14.109375 5.515625 27.296875 
Q 5.515625 40.671875 12.859375 48.328125 
Q 20.21875 56 33.015625 56 
Q 37.15625 56 41.109375 55.140625 
Q 45.0625 54.296875 48.78125 52.59375 
z
" id="DejaVuSans-99"/>
     <path d="M 18.3125 70.21875 
L 18.3125 54.6875 
L 36.8125 54.6875 
L 36.8125 47.703125 
L 18.3125 47.703125 
L 18.3125 18.015625 
Q 18.3125 11.328125 20.140625 9.421875 
Q 21.96875 7.515625 27.59375 7.515625 
L 36.8125 7.515625 
L 36.8125 0 
L 27.59375 0 
Q 17.1875 0 13.234375 3.875 
Q 9.28125 7.765625 9.28125 18.015625 
L 9.28125 47.703125 
L 2.6875 47.703125 
L 2.6875 54.6875 
L 9.28125 54.6875 
L 9.28125 70.21875 
z
" id="DejaVuSans-116"/>
     <path d="M 9.421875 54.6875 
L 18.40625 54.6875 
L 18.40625 0 
L 9.421875 0 
z
M 9.421875 75.984375 
L 18.40625 75.984375 
L 18.40625 64.59375 
L 9.421875 64.59375 
z
" id="DejaVuSans-105"/>
     <path d="M 30.609375 48.390625 
Q 23.390625 48.390625 19.1875 42.75 
Q 14.984375 37.109375 14.984375 27.296875 
Q 14.984375 17.484375 19.15625 11.84375 
Q 23.34375 6.203125 30.609375 6.203125 
Q 37.796875 6.203125 41.984375 11.859375 
Q 46.1875 17.53125 46.1875 27.296875 
Q 46.1875 37.015625 41.984375 42.703125 
Q 37.796875 48.390625 30.609375 48.390625 
z
M 30.609375 56 
Q 42.328125 56 49.015625 48.375 
Q 55.71875 40.765625 55.71875 27.296875 
Q 55.71875 13.875 49.015625 6.21875 
Q 42.328125 -1.421875 30.609375 -1.421875 
Q 18.84375 -1.421875 12.171875 6.21875 
Q 5.515625 13.875 5.515625 27.296875 
Q 5.515625 40.765625 12.171875 48.375 
Q 18.84375 56 30.609375 56 
z
" id="DejaVuSans-111"/>
     <path d="M 41.109375 46.296875 
Q 39.59375 47.171875 37.8125 47.578125 
Q 36.03125 48 33.890625 48 
Q 26.265625 48 22.1875 43.046875 
Q 18.109375 38.09375 18.109375 28.8125 
L 18.109375 0 
L 9.078125 0 
L 9.078125 54.6875 
L 18.109375 54.6875 
L 18.109375 46.1875 
Q 20.953125 51.171875 25.484375 53.578125 
Q 30.03125 56 36.53125 56 
Q 37.453125 56 38.578125 55.875 
Q 39.703125 55.765625 41.0625 55.515625 
z
" id="DejaVuSans-114"/>
     <path d="M 14.84375 13.09375 
Q 16.84375 3.328125 21.09375 3.328125 
Q 23.921875 3.328125 27.59375 8.9375 
L 34.078125 8.9375 
Q 31.15625 3.953125 27.734375 1.375 
Q 24.03125 -1.421875 20.609375 -1.421875 
Q 12.984375 -1.421875 9.90625 5.375 
L 6.25 0 
L -1.375 0 
Q 3.90625 7.171875 7.8125 13.875 
Q 7.328125 17.671875 7.328125 21.828125 
Q 7.328125 29.25 8.84375 36.671875 
Q 14.546875 64.546875 19.625 70.265625 
Q 23.140625 74.21875 29.15625 74.21875 
Q 35.25 74.21875 35.25 65.765625 
Q 35.203125 61.96875 34.328125 57.421875 
Q 30.8125 38.8125 14.84375 13.09375 
z
M 14.796875 25.875 
Q 23.921875 42.875 26.703125 56.453125 
Q 28.171875 63.625 28.171875 65.484375 
Q 28.171875 68.84375 26.953125 68.84375 
Q 21.625 64.59375 16.890625 39.3125 
Q 15.578125 32.234375 14.796875 25.875 
z
" id="DejaVuSans-Oblique-8467"/>
     <path d="M 56.203125 29.59375 
L 56.203125 25.203125 
L 14.890625 25.203125 
Q 15.484375 15.921875 20.484375 11.0625 
Q 25.484375 6.203125 34.421875 6.203125 
Q 39.59375 6.203125 44.453125 7.46875 
Q 49.3125 8.734375 54.109375 11.28125 
L 54.109375 2.78125 
Q 49.265625 0.734375 44.1875 -0.34375 
Q 39.109375 -1.421875 33.890625 -1.421875 
Q 20.796875 -1.421875 13.15625 6.1875 
Q 5.515625 13.8125 5.515625 26.8125 
Q 5.515625 40.234375 12.765625 48.109375 
Q 20.015625 56 32.328125 56 
Q 43.359375 56 49.78125 48.890625 
Q 56.203125 41.796875 56.203125 29.59375 
z
M 47.21875 32.234375 
Q 47.125 39.59375 43.09375 43.984375 
Q 39.0625 48.390625 32.421875 48.390625 
Q 24.90625 48.390625 20.390625 44.140625 
Q 15.875 39.890625 15.1875 32.171875 
z
" id="DejaVuSans-101"/>
     <path d="M 45.40625 46.390625 
L 45.40625 75.984375 
L 54.390625 75.984375 
L 54.390625 0 
L 45.40625 0 
L 45.40625 8.203125 
Q 42.578125 3.328125 38.25 0.953125 
Q 33.9375 -1.421875 27.875 -1.421875 
Q 17.96875 -1.421875 11.734375 6.484375 
Q 5.515625 14.40625 5.515625 27.296875 
Q 5.515625 40.1875 11.734375 48.09375 
Q 17.96875 56 27.875 56 
Q 33.9375 56 38.25 53.625 
Q 42.578125 51.265625 45.40625 46.390625 
z
M 14.796875 27.296875 
Q 14.796875 17.390625 18.875 11.75 
Q 22.953125 6.109375 30.078125 6.109375 
Q 37.203125 6.109375 41.296875 11.75 
Q 45.40625 17.390625 45.40625 27.296875 
Q 45.40625 37.203125 41.296875 42.84375 
Q 37.203125 48.484375 30.078125 48.484375 
Q 22.953125 48.484375 18.875 42.84375 
Q 14.796875 37.203125 14.796875 27.296875 
z
" id="DejaVuSans-100"/>
     <path d="M 9.421875 75.984375 
L 18.40625 75.984375 
L 18.40625 0 
L 9.421875 0 
z
" id="DejaVuSans-108"/>
     <path d="M 34.671875 47.5625 
Q 27.25 47.5625 22.21875 42.1875 
Q 16.890625 36.578125 15.140625 27.296875 
Q 13.1875 17.484375 16.3125 11.8125 
Q 19.390625 6.203125 26.65625 6.203125 
Q 33.84375 6.203125 39.109375 11.859375 
Q 44.4375 17.53125 46.34375 27.296875 
Q 48.046875 36.234375 45.015625 42.1875 
Q 42.1875 47.5625 34.671875 47.5625 
z
M 36.078125 54.734375 
L 65.921875 54.6875 
L 64.15625 45.703125 
L 54.109375 45.703125 
Q 57.90625 38.09375 55.859375 27.296875 
Q 53.21875 13.875 45.0625 6.25 
Q 36.859375 -1.421875 25.140625 -1.421875 
Q 13.375 -1.421875 8.203125 6.25 
Q 3.03125 13.875 5.671875 27.296875 
Q 8.25 40.765625 16.40625 48.390625 
Q 23.1875 54.734375 36.078125 54.734375 
z
" id="DejaVuSans-Oblique-963"/>
     <path d="M 10.59375 45.40625 
L 73.1875 45.40625 
L 73.1875 37.203125 
L 10.59375 37.203125 
z
M 10.59375 25.484375 
L 73.1875 25.484375 
L 73.1875 17.1875 
L 10.59375 17.1875 
z
" id="DejaVuSans-61"/>
     <path d="M 10.6875 12.40625 
L 21 12.40625 
L 21 0 
L 10.6875 0 
z
" id="DejaVuSans-46"/>
    </defs>
    <g transform="translate(99.6 28.56)scale(0.12 -0.12)">
     <use transform="translate(0 0.015625)" xlink:href="#DejaVuSans-71"/>
     <use transform="translate(77.490234 0.015625)" xlink:href="#DejaVuSans-67"/>
     <use transform="translate(147.314453 0.015625)" xlink:href="#DejaVuSans-86"/>
     <use transform="translate(215.722656 0.015625)" xlink:href="#DejaVuSans-32"/>
     <use transform="translate(247.509766 0.015625)" xlink:href="#DejaVuSans-102"/>
     <use transform="translate(282.714844 0.015625)" xlink:href="#DejaVuSans-117"/>
     <use transform="translate(346.09375 0.015625)" xlink:href="#DejaVuSans-110"/>
     <use transform="translate(409.472656 0.015625)" xlink:href="#DejaVuSans-99"/>
     <use transform="translate(464.453125 0.015625)" xlink:href="#DejaVuSans-116"/>
     <use transform="translate(503.662109 0.015625)" xlink:href="#DejaVuSans-105"/>
     <use transform="translate(531.445312 0.015625)" xlink:href="#DejaVuSans-111"/>
     <use transform="translate(592.626953 0.015625)" xlink:href="#DejaVuSans-110"/>
     <use transform="translate(656.005859 0.015625)" xlink:href="#DejaVuSans-32"/>
     <use transform="translate(687.792969 0.015625)" xlink:href="#DejaVuSans-102"/>
     <use transform="translate(722.998047 0.015625)" xlink:href="#DejaVuSans-111"/>
     <use transform="translate(784.179688 0.015625)" xlink:href="#DejaVuSans-114"/>
     <use transform="translate(825.292969 0.015625)" xlink:href="#DejaVuSans-32"/>
     <use transform="translate(857.080078 0.015625)" xlink:href="#DejaVuSans-Oblique-8467"/>
     <use transform="translate(898.388672 -16.390625)scale(0.7)" xlink:href="#DejaVuSans-49"/>
     <use transform="translate(945.65918 0.015625)" xlink:href="#DejaVuSans-32"/>
     <use transform="translate(977.446289 0.015625)" xlink:href="#DejaVuSans-116"/>
     <use transform="translate(1016.655273 0.015625)" xlink:href="#DejaVuSans-114"/>
     <use transform="translate(1057.768555 0.015625)" xlink:href="#DejaVuSans-101"/>
     <use transform="translate(1119.291992 0.015625)" xlink:href="#DejaVuSans-110"/>
     <use transform="translate(1182.670898 0.015625)" xlink:href="#DejaVuSans-100"/>
     <use transform="translate(1246.147461 0.015625)" xlink:href="#DejaVuSans-32"/>
     <use transform="translate(1277.93457 0.015625)" xlink:href="#DejaVuSans-102"/>
     <use transform="translate(1313.139648 0.015625)" xlink:href="#DejaVuSans-105"/>
     <use transform="translate(1340.922852 0.015625)" xlink:href="#DejaVuSans-108"/>
     <use transform="translate(1368.706055 0.015625)" xlink:href="#DejaVuSans-116"/>
     <use transform="translate(1407.915039 0.015625)" xlink:href="#DejaVuSans-101"/>
     <use transform="translate(1469.438477 0.015625)" xlink:href="#DejaVuSans-114"/>
     <use transform="translate(1510.551758 0.015625)" xlink:href="#DejaVuSans-32"/>
     <use transform="translate(1542.338867 0.015625)" xlink:href="#DejaVuSans-40"/>
     <use transform="translate(1581.352539 0.015625)" xlink:href="#DejaVuSans-Oblique-963"/>
     <use transform="translate(1664.213867 0.015625)" xlink:href="#DejaVuSans-61"/>
     <use transform="translate(1767.485352 0.015625)" xlink:href="#DejaVuSans-48"/>
     <use transform="translate(1831.108398 0.015625)" xlink:href="#DejaVuSans-46"/>
     <use transform="translate(1862.895508 0.015625)" xlink:href="#DejaVuSans-48"/>
     <use transform="translate(1926.518555 0.015625)" xlink:href="#DejaVuSans-49"/>
     <use transform="translate(1990.141602 0.015625)" xlink:href="#DejaVuSans-41"/>
    </g>
   </g>
   <g id="legend_1">
    <g id="line2d_35">
     <path d="M 273.36 50.278125 
L 321.36 50.278125 
" style="fill:none;stroke:#1f77b4;stroke-dasharray:7.5,2.5;stroke-dashoffset:0;stroke-width:2.5;"/>
    </g>
    <g id="line2d_36"/>
    <g id="text_11">
     <!-- state $x_1$ -->
     <defs>
      <path d="M 44.28125 53.078125 
L 44.28125 44.578125 
Q 40.484375 46.53125 36.375 47.5 
Q 32.28125 48.484375 27.875 48.484375 
Q 21.1875 48.484375 17.84375 46.4375 
Q 14.5 44.390625 14.5 40.28125 
Q 14.5 37.15625 16.890625 35.375 
Q 19.28125 33.59375 26.515625 31.984375 
L 29.59375 31.296875 
Q 39.15625 29.25 43.1875 25.515625 
Q 47.21875 21.78125 47.21875 15.09375 
Q 47.21875 7.46875 41.1875 3.015625 
Q 35.15625 -1.421875 24.609375 -1.421875 
Q 20.21875 -1.421875 15.453125 -0.5625 
Q 10.6875 0.296875 5.421875 2 
L 5.421875 11.28125 
Q 10.40625 8.6875 15.234375 7.390625 
Q 20.0625 6.109375 24.8125 6.109375 
Q 31.15625 6.109375 34.5625 8.28125 
Q 37.984375 10.453125 37.984375 14.40625 
Q 37.984375 18.0625 35.515625 20.015625 
Q 33.0625 21.96875 24.703125 23.78125 
L 21.578125 24.515625 
Q 13.234375 26.265625 9.515625 29.90625 
Q 5.8125 33.546875 5.8125 39.890625 
Q 5.8125 47.609375 11.28125 51.796875 
Q 16.75 56 26.8125 56 
Q 31.78125 56 36.171875 55.265625 
Q 40.578125 54.546875 44.28125 53.078125 
z
" id="DejaVuSans-115"/>
      <path d="M 34.28125 27.484375 
Q 23.390625 27.484375 19.1875 25 
Q 14.984375 22.515625 14.984375 16.5 
Q 14.984375 11.71875 18.140625 8.90625 
Q 21.296875 6.109375 26.703125 6.109375 
Q 34.1875 6.109375 38.703125 11.40625 
Q 43.21875 16.703125 43.21875 25.484375 
L 43.21875 27.484375 
z
M 52.203125 31.203125 
L 52.203125 0 
L 43.21875 0 
L 43.21875 8.296875 
Q 40.140625 3.328125 35.546875 0.953125 
Q 30.953125 -1.421875 24.3125 -1.421875 
Q 15.921875 -1.421875 10.953125 3.296875 
Q 6 8.015625 6 15.921875 
Q 6 25.140625 12.171875 29.828125 
Q 18.359375 34.515625 30.609375 34.515625 
L 43.21875 34.515625 
L 43.21875 35.40625 
Q 43.21875 41.609375 39.140625 45 
Q 35.0625 48.390625 27.6875 48.390625 
Q 23 48.390625 18.546875 47.265625 
Q 14.109375 46.140625 10.015625 43.890625 
L 10.015625 52.203125 
Q 14.9375 54.109375 19.578125 55.046875 
Q 24.21875 56 28.609375 56 
Q 40.484375 56 46.34375 49.84375 
Q 52.203125 43.703125 52.203125 31.203125 
z
" id="DejaVuSans-97"/>
      <path d="M 60.015625 54.6875 
L 34.90625 27.875 
L 50.296875 0 
L 39.984375 0 
L 28.421875 21.6875 
L 8.296875 0 
L -2.59375 0 
L 24.3125 28.8125 
L 10.015625 54.6875 
L 20.3125 54.6875 
L 30.8125 34.90625 
L 49.125 54.6875 
z
" id="DejaVuSans-Oblique-120"/>
     </defs>
     <g transform="translate(330.96 54.478125)scale(0.12 -0.12)">
      <use transform="translate(0 0.78125)" xlink:href="#DejaVuSans-115"/>
      <use transform="translate(52.099609 0.78125)" xlink:href="#DejaVuSans-116"/>
      <use transform="translate(91.308594 0.78125)" xlink:href="#DejaVuSans-97"/>
      <use transform="translate(152.587891 0.78125)" xlink:href="#DejaVuSans-116"/>
      <use transform="translate(191.796875 0.78125)" xlink:href="#DejaVuSans-101"/>
      <use transform="translate(253.320312 0.78125)" xlink:href="#DejaVuSans-32"/>
      <use transform="translate(285.107422 0.78125)" xlink:href="#DejaVuSans-Oblique-120"/>
      <use transform="translate(344.287109 -15.625)scale(0.7)" xlink:href="#DejaVuSans-49"/>
     </g>
    </g>
    <g id="line2d_37">
     <path d="M 273.36 67.891875 
L 321.36 67.891875 
" style="fill:none;stroke:#ff7f0e;stroke-dasharray:2500,2.5;stroke-dashoffset:0;stroke-width:2.5;"/>
    </g>
    <g id="line2d_38"/>
    <g id="text_12">
     <!-- state $x_2$ -->
     <g transform="translate(330.96 72.091875)scale(0.12 -0.12)">
      <use transform="translate(0 0.78125)" xlink:href="#DejaVuSans-115"/>
      <use transform="translate(52.099609 0.78125)" xlink:href="#DejaVuSans-116"/>
      <use transform="translate(91.308594 0.78125)" xlink:href="#DejaVuSans-97"/>
      <use transform="translate(152.587891 0.78125)" xlink:href="#DejaVuSans-116"/>
      <use transform="translate(191.796875 0.78125)" xlink:href="#DejaVuSans-101"/>
      <use transform="translate(253.320312 0.78125)" xlink:href="#DejaVuSans-32"/>
      <use transform="translate(285.107422 0.78125)" xlink:href="#DejaVuSans-Oblique-120"/>
      <use transform="translate(344.287109 -15.625)scale(0.7)" xlink:href="#DejaVuSans-50"/>
     </g>
    </g>
   </g>
  </g>
 </g>
 <defs>
  <clipPath id="p0b788663fd">
   <rect height="217.44" width="334.8" x="54" y="34.56"/>
  </clipPath>
 </defs>
</svg>
