<?xml version="1.0" encoding="utf-8" standalone="no"?>
<!DOCTYPE svg PUBLIC "-//W3C//DTD SVG 1.1//EN"
  "http://www.w3.org/Graphics/SVG/1.1/DTD/svg11.dtd">
<!-- Created with matplotlib (https://matplotlib.org/) -->
<svg height="288pt" version="1.1" viewBox="0 0 432 288" width="432pt" xmlns="http://www.w3.org/2000/svg" xmlns:xlink="http://www.w3.org/1999/xlink">
 <defs>
  <style type="text/css">
*{stroke-linecap:butt;stroke-linejoin:round;}
  </style>
 </defs>
 <g id="figure_1">
  <g id="patch_1">
   <path d="M 0 288 
L 432 288 
L 432 0 
L 0 0 
z
" style="fill:#ffffff;"/>
  </g>
  <g id="axes_1">
   <g id="patch_2">
    <path d="M 54 252 
L 388.8 252 
L 388.8 34.56 
L 54 34.56 
z
" style="fill:#ffffff;"/>
   </g>
   <g id="matplotlib.axis_1">
    <g id="xtick_1">
     <g id="line2d_1">
      <defs>
       <path d="M 0 0 
L 0 3.5 
" id="m8e7273c6bd" style="stroke:#000000;stroke-width:0.8;"/>
      </defs>
      <g>
       <use style="stroke:#000000;stroke-width:0.8;" x="106.815011" xlink:href="#m8e7273c6bd" y="252"/>
      </g>
     </g>
     <g id="text_1">
      <!-- $\mathdefault{10^{-6}}$ -->
      <defs>
       <path d="M 12.40625 8.296875 
L 28.515625 8.296875 
L 28.515625 63.921875 
L 10.984375 60.40625 
L 10.984375 69.390625 
L 28.421875 72.90625 
L 38.28125 72.90625 
L 38.28125 8.296875 
L 54.390625 8.296875 
L 54.390625 0 
L 12.40625 0 
z
" id="DejaVuSans-49"/>
       <path d="M 31.78125 66.40625 
Q 24.171875 66.40625 20.328125 58.90625 
Q 16.5 51.421875 16.5 36.375 
Q 16.5 21.390625 20.328125 13.890625 
Q 24.171875 6.390625 31.78125 6.390625 
Q 39.453125 6.390625 43.28125 13.890625 
Q 47.125 21.390625 47.125 36.375 
Q 47.125 51.421875 43.28125 58.90625 
Q 39.453125 66.40625 31.78125 66.40625 
z
M 31.78125 74.21875 
Q 44.046875 74.21875 50.515625 64.515625 
Q 56.984375 54.828125 56.984375 36.375 
Q 56.984375 17.96875 50.515625 8.265625 
Q 44.046875 -1.421875 31.78125 -1.421875 
Q 19.53125 -1.421875 13.0625 8.265625 
Q 6.59375 17.96875 6.59375 36.375 
Q 6.59375 54.828125 13.0625 64.515625 
Q 19.53125 74.21875 31.78125 74.21875 
z
" id="DejaVuSans-48"/>
       <path d="M 10.59375 35.5 
L 73.1875 35.5 
L 73.1875 27.203125 
L 10.59375 27.203125 
z
" id="DejaVuSans-8722"/>
       <path d="M 33.015625 40.375 
Q 26.375 40.375 22.484375 35.828125 
Q 18.609375 31.296875 18.609375 23.390625 
Q 18.609375 15.53125 22.484375 10.953125 
Q 26.375 6.390625 33.015625 6.390625 
Q 39.65625 6.390625 43.53125 10.953125 
Q 47.40625 15.53125 47.40625 23.390625 
Q 47.40625 31.296875 43.53125 35.828125 
Q 39.65625 40.375 33.015625 40.375 
z
M 52.59375 71.296875 
L 52.59375 62.3125 
Q 48.875 64.0625 45.09375 64.984375 
Q 41.3125 65.921875 37.59375 65.921875 
Q 27.828125 65.921875 22.671875 59.328125 
Q 17.53125 52.734375 16.796875 39.40625 
Q 19.671875 43.65625 24.015625 45.921875 
Q 28.375 48.1875 33.59375 48.1875 
Q 44.578125 48.1875 50.953125 41.515625 
Q 57.328125 34.859375 57.328125 23.390625 
Q 57.328125 12.15625 50.6875 5.359375 
Q 44.046875 -1.421875 33.015625 -1.421875 
Q 20.359375 -1.421875 13.671875 8.265625 
Q 6.984375 17.96875 6.984375 36.375 
Q 6.984375 53.65625 15.1875 63.9375 
Q 23.390625 74.21875 37.203125 74.21875 
Q 40.921875 74.21875 44.703125 73.484375 
Q 48.484375 72.75 52.59375 71.296875 
z
" id="DejaVuSans-54"/>
      </defs>
      <g transform="translate(92.715011 268.118125)scale(0.12 -0.12)">
       <use transform="translate(0 0.765625)" xlink:href="#DejaVuSans-49"/>
       <use transform="translate(63.623047 0.765625)" xlink:href="#DejaVuSans-48"/>
       <use transform="translate(128.203125 39.046875)scale(0.7)" xlink:href="#DejaVuSans-8722"/>
       <use transform="translate(186.855469 39.046875)scale(0.7)" xlink:href="#DejaVuSans-54"/>
      </g>
     </g>
    </g>
    <g id="xtick_2">
     <g id="line2d_2">
      <g>
       <use style="stroke:#000000;stroke-width:0.8;" x="160.364223" xlink:href="#m8e7273c6bd" y="252"/>
      </g>
     </g>
     <g id="text_2">
      <!-- $\mathdefault{10^{-4}}$ -->
      <defs>
       <path d="M 37.796875 64.3125 
L 12.890625 25.390625 
L 37.796875 25.390625 
z
M 35.203125 72.90625 
L 47.609375 72.90625 
L 47.609375 25.390625 
L 58.015625 25.390625 
L 58.015625 17.1875 
L 47.609375 17.1875 
L 47.609375 0 
L 37.796875 0 
L 37.796875 17.1875 
L 4.890625 17.1875 
L 4.890625 26.703125 
z
" id="DejaVuSans-52"/>
      </defs>
      <g transform="translate(146.264223 268.118125)scale(0.12 -0.12)">
       <use transform="translate(0 0.684375)" xlink:href="#DejaVuSans-49"/>
       <use transform="translate(63.623047 0.684375)" xlink:href="#DejaVuSans-48"/>
       <use transform="translate(128.203125 38.965625)scale(0.7)" xlink:href="#DejaVuSans-8722"/>
       <use transform="translate(186.855469 38.965625)scale(0.7)" xlink:href="#DejaVuSans-52"/>
      </g>
     </g>
    </g>
    <g id="xtick_3">
     <g id="line2d_3">
      <g>
       <use style="stroke:#000000;stroke-width:0.8;" x="213.913436" xlink:href="#m8e7273c6bd" y="252"/>
      </g>
     </g>
     <g id="text_3">
      <!-- $\mathdefault{10^{-2}}$ -->
      <defs>
       <path d="M 19.1875 8.296875 
L 53.609375 8.296875 
L 53.609375 0 
L 7.328125 0 
L 7.328125 8.296875 
Q 12.9375 14.109375 22.625 23.890625 
Q 32.328125 33.6875 34.8125 36.53125 
Q 39.546875 41.84375 41.421875 45.53125 
Q 43.3125 49.21875 43.3125 52.78125 
Q 43.3125 58.59375 39.234375 62.25 
Q 35.15625 65.921875 28.609375 65.921875 
Q 23.96875 65.921875 18.8125 64.3125 
Q 13.671875 62.703125 7.8125 59.421875 
L 7.8125 69.390625 
Q 13.765625 71.78125 18.9375 73 
Q 24.125 74.21875 28.421875 74.21875 
Q 39.75 74.21875 46.484375 68.546875 
Q 53.21875 62.890625 53.21875 53.421875 
Q 53.21875 48.921875 51.53125 44.890625 
Q 49.859375 40.875 45.40625 35.40625 
Q 44.1875 33.984375 37.640625 27.21875 
Q 31.109375 20.453125 19.1875 8.296875 
z
" id="DejaVuSans-50"/>
      </defs>
      <g transform="translate(199.813436 268.118125)scale(0.12 -0.12)">
       <use transform="translate(0 0.765625)" xlink:href="#DejaVuSans-49"/>
       <use transform="translate(63.623047 0.765625)" xlink:href="#DejaVuSans-48"/>
       <use transform="translate(128.203125 39.046875)scale(0.7)" xlink:href="#DejaVuSans-8722"/>
       <use transform="translate(186.855469 39.046875)scale(0.7)" xlink:href="#DejaVuSans-50"/>
      </g>
     </g>
    </g>
    <g id="xtick_4">
     <g id="line2d_4">
      <g>
       <use style="stroke:#000000;stroke-width:0.8;" x="267.462648" xlink:href="#m8e7273c6bd" y="252"/>
      </g>
     </g>
     <g id="text_4">
      <!-- $\mathdefault{10^{0}}$ -->
      <g transform="translate(256.902648 268.118125)scale(0.12 -0.12)">
       <use transform="translate(0 0.765625)" xlink:href="#DejaVuSans-49"/>
       <use transform="translate(63.623047 0.765625)" xlink:href="#DejaVuSans-48"/>
       <use transform="translate(128.203125 39.046875)scale(0.7)" xlink:href="#DejaVuSans-48"/>
      </g>
     </g>
    </g>
    <g id="xtick_5">
     <g id="line2d_5">
      <g>
       <use style="stroke:#000000;stroke-width:0.8;" x="321.011861" xlink:href="#m8e7273c6bd" y="252"/>
      </g>
     </g>
     <g id="text_5">
      <!-- $\mathdefault{10^{2}}$ -->
      <g transform="translate(310.451861 268.118125)scale(0.12 -0.12)">
       <use transform="translate(0 0.765625)" xlink:href="#DejaVuSans-49"/>
       <use transform="translate(63.623047 0.765625)" xlink:href="#DejaVuSans-48"/>
       <use transform="translate(128.203125 39.046875)scale(0.7)" xlink:href="#DejaVuSans-50"/>
      </g>
     </g>
    </g>
    <g id="xtick_6">
     <g id="line2d_6">
      <g>
       <use style="stroke:#000000;stroke-width:0.8;" x="374.561073" xlink:href="#m8e7273c6bd" y="252"/>
      </g>
     </g>
     <g id="text_6">
      <!-- $\mathdefault{10^{4}}$ -->
      <g transform="translate(364.001073 268.118125)scale(0.12 -0.12)">
       <use transform="translate(0 0.684375)" xlink:href="#DejaVuSans-49"/>
       <use transform="translate(63.623047 0.684375)" xlink:href="#DejaVuSans-48"/>
       <use transform="translate(128.203125 38.965625)scale(0.7)" xlink:href="#DejaVuSans-52"/>
      </g>
     </g>
    </g>
    <g id="text_7">
     <!-- $\lambda$ -->
     <defs>
      <path d="M 36.71875 67.4375 
L 48.828125 0 
L 39.3125 0 
L 31.84375 40.4375 
L 5.125 0 
L -4.390625 0 
L 29.734375 52.4375 
L 28.03125 62.109375 
Q 26.953125 68.265625 21.734375 68.265625 
L 17.046875 68.265625 
L 18.5 75.984375 
L 24.21875 75.875 
Q 35.203125 75.734375 36.71875 67.4375 
z
" id="DejaVuSans-Oblique-955"/>
     </defs>
     <g transform="translate(217.8 283.731875)scale(0.12 -0.12)">
      <use transform="translate(0 0.015625)" xlink:href="#DejaVuSans-Oblique-955"/>
     </g>
    </g>
   </g>
   <g id="matplotlib.axis_2">
    <g id="ytick_1">
     <g id="line2d_7">
      <defs>
       <path d="M 0 0 
L -3.5 0 
" id="mb04083ca09" style="stroke:#000000;stroke-width:0.8;"/>
      </defs>
      <g>
       <use style="stroke:#000000;stroke-width:0.8;" x="54" xlink:href="#mb04083ca09" y="231.003499"/>
      </g>
     </g>
     <g id="text_8">
      <!-- $\mathdefault{10^{-8}}$ -->
      <defs>
       <path d="M 31.78125 34.625 
Q 24.75 34.625 20.71875 30.859375 
Q 16.703125 27.09375 16.703125 20.515625 
Q 16.703125 13.921875 20.71875 10.15625 
Q 24.75 6.390625 31.78125 6.390625 
Q 38.8125 6.390625 42.859375 10.171875 
Q 46.921875 13.96875 46.921875 20.515625 
Q 46.921875 27.09375 42.890625 30.859375 
Q 38.875 34.625 31.78125 34.625 
z
M 21.921875 38.8125 
Q 15.578125 40.375 12.03125 44.71875 
Q 8.5 49.078125 8.5 55.328125 
Q 8.5 64.0625 14.71875 69.140625 
Q 20.953125 74.21875 31.78125 74.21875 
Q 42.671875 74.21875 48.875 69.140625 
Q 55.078125 64.0625 55.078125 55.328125 
Q 55.078125 49.078125 51.53125 44.71875 
Q 48 40.375 41.703125 38.8125 
Q 48.828125 37.15625 52.796875 32.3125 
Q 56.78125 27.484375 56.78125 20.515625 
Q 56.78125 9.90625 50.3125 4.234375 
Q 43.84375 -1.421875 31.78125 -1.421875 
Q 19.734375 -1.421875 13.25 4.234375 
Q 6.78125 9.90625 6.78125 20.515625 
Q 6.78125 27.484375 10.78125 32.3125 
Q 14.796875 37.15625 21.921875 38.8125 
z
M 18.3125 54.390625 
Q 18.3125 48.734375 21.84375 45.5625 
Q 25.390625 42.390625 31.78125 42.390625 
Q 38.140625 42.390625 41.71875 45.5625 
Q 45.3125 48.734375 45.3125 54.390625 
Q 45.3125 60.0625 41.71875 63.234375 
Q 38.140625 66.40625 31.78125 66.40625 
Q 25.390625 66.40625 21.84375 63.234375 
Q 18.3125 60.0625 18.3125 54.390625 
z
" id="DejaVuSans-56"/>
      </defs>
      <g transform="translate(18.8 235.562562)scale(0.12 -0.12)">
       <use transform="translate(0 0.765625)" xlink:href="#DejaVuSans-49"/>
       <use transform="translate(63.623047 0.765625)" xlink:href="#DejaVuSans-48"/>
       <use transform="translate(128.203125 39.046875)scale(0.7)" xlink:href="#DejaVuSans-8722"/>
       <use transform="translate(186.855469 39.046875)scale(0.7)" xlink:href="#DejaVuSans-56"/>
      </g>
     </g>
    </g>
    <g id="ytick_2">
     <g id="line2d_8">
      <g>
       <use style="stroke:#000000;stroke-width:0.8;" x="54" xlink:href="#mb04083ca09" y="182.702109"/>
      </g>
     </g>
     <g id="text_9">
      <!-- $\mathdefault{10^{-7}}$ -->
      <defs>
       <path d="M 8.203125 72.90625 
L 55.078125 72.90625 
L 55.078125 68.703125 
L 28.609375 0 
L 18.3125 0 
L 43.21875 64.59375 
L 8.203125 64.59375 
z
" id="DejaVuSans-55"/>
      </defs>
      <g transform="translate(18.8 187.261172)scale(0.12 -0.12)">
       <use transform="translate(0 0.684375)" xlink:href="#DejaVuSans-49"/>
       <use transform="translate(63.623047 0.684375)" xlink:href="#DejaVuSans-48"/>
       <use transform="translate(128.203125 38.965625)scale(0.7)" xlink:href="#DejaVuSans-8722"/>
       <use transform="translate(186.855469 38.965625)scale(0.7)" xlink:href="#DejaVuSans-55"/>
      </g>
     </g>
    </g>
    <g id="ytick_3">
     <g id="line2d_9">
      <g>
       <use style="stroke:#000000;stroke-width:0.8;" x="54" xlink:href="#mb04083ca09" y="134.400719"/>
      </g>
     </g>
     <g id="text_10">
      <!-- $\mathdefault{10^{-6}}$ -->
      <g transform="translate(18.8 138.959782)scale(0.12 -0.12)">
       <use transform="translate(0 0.765625)" xlink:href="#DejaVuSans-49"/>
       <use transform="translate(63.623047 0.765625)" xlink:href="#DejaVuSans-48"/>
       <use transform="translate(128.203125 39.046875)scale(0.7)" xlink:href="#DejaVuSans-8722"/>
       <use transform="translate(186.855469 39.046875)scale(0.7)" xlink:href="#DejaVuSans-54"/>
      </g>
     </g>
    </g>
    <g id="ytick_4">
     <g id="line2d_10">
      <g>
       <use style="stroke:#000000;stroke-width:0.8;" x="54" xlink:href="#mb04083ca09" y="86.099329"/>
      </g>
     </g>
     <g id="text_11">
      <!-- $\mathdefault{10^{-5}}$ -->
      <defs>
       <path d="M 10.796875 72.90625 
L 49.515625 72.90625 
L 49.515625 64.59375 
L 19.828125 64.59375 
L 19.828125 46.734375 
Q 21.96875 47.46875 24.109375 47.828125 
Q 26.265625 48.1875 28.421875 48.1875 
Q 40.625 48.1875 47.75 41.5 
Q 54.890625 34.8125 54.890625 23.390625 
Q 54.890625 11.625 47.5625 5.09375 
Q 40.234375 -1.421875 26.90625 -1.421875 
Q 22.3125 -1.421875 17.546875 -0.640625 
Q 12.796875 0.140625 7.71875 1.703125 
L 7.71875 11.625 
Q 12.109375 9.234375 16.796875 8.0625 
Q 21.484375 6.890625 26.703125 6.890625 
Q 35.15625 6.890625 40.078125 11.328125 
Q 45.015625 15.765625 45.015625 23.390625 
Q 45.015625 31 40.078125 35.4375 
Q 35.15625 39.890625 26.703125 39.890625 
Q 22.75 39.890625 18.8125 39.015625 
Q 14.890625 38.140625 10.796875 36.28125 
z
" id="DejaVuSans-53"/>
      </defs>
      <g transform="translate(18.8 90.658391)scale(0.12 -0.12)">
       <use transform="translate(0 0.684375)" xlink:href="#DejaVuSans-49"/>
       <use transform="translate(63.623047 0.684375)" xlink:href="#DejaVuSans-48"/>
       <use transform="translate(128.203125 38.965625)scale(0.7)" xlink:href="#DejaVuSans-8722"/>
       <use transform="translate(186.855469 38.965625)scale(0.7)" xlink:href="#DejaVuSans-53"/>
      </g>
     </g>
    </g>
    <g id="ytick_5">
     <g id="line2d_11">
      <g>
       <use style="stroke:#000000;stroke-width:0.8;" x="54" xlink:href="#mb04083ca09" y="37.797939"/>
      </g>
     </g>
     <g id="text_12">
      <!-- $\mathdefault{10^{-4}}$ -->
      <g transform="translate(18.8 42.357001)scale(0.12 -0.12)">
       <use transform="translate(0 0.684375)" xlink:href="#DejaVuSans-49"/>
       <use transform="translate(63.623047 0.684375)" xlink:href="#DejaVuSans-48"/>
       <use transform="translate(128.203125 38.965625)scale(0.7)" xlink:href="#DejaVuSans-8722"/>
       <use transform="translate(186.855469 38.965625)scale(0.7)" xlink:href="#DejaVuSans-52"/>
      </g>
     </g>
    </g>
    <g id="ytick_6">
     <g id="line2d_12">
      <defs>
       <path d="M 0 0 
L -2 0 
" id="m86e0541b3a" style="stroke:#000000;stroke-width:0.6;"/>
      </defs>
      <g>
       <use style="stroke:#000000;stroke-width:0.6;" x="54" xlink:href="#m86e0541b3a" y="250.224555"/>
      </g>
     </g>
    </g>
    <g id="ytick_7">
     <g id="line2d_13">
      <g>
       <use style="stroke:#000000;stroke-width:0.6;" x="54" xlink:href="#m86e0541b3a" y="245.543666"/>
      </g>
     </g>
    </g>
    <g id="ytick_8">
     <g id="line2d_14">
      <g>
       <use style="stroke:#000000;stroke-width:0.6;" x="54" xlink:href="#m86e0541b3a" y="241.719102"/>
      </g>
     </g>
    </g>
    <g id="ytick_9">
     <g id="line2d_15">
      <g>
       <use style="stroke:#000000;stroke-width:0.6;" x="54" xlink:href="#m86e0541b3a" y="238.485479"/>
      </g>
     </g>
    </g>
    <g id="ytick_10">
     <g id="line2d_16">
      <g>
       <use style="stroke:#000000;stroke-width:0.6;" x="54" xlink:href="#m86e0541b3a" y="235.684388"/>
      </g>
     </g>
    </g>
    <g id="ytick_11">
     <g id="line2d_17">
      <g>
       <use style="stroke:#000000;stroke-width:0.6;" x="54" xlink:href="#m86e0541b3a" y="233.21365"/>
      </g>
     </g>
    </g>
    <g id="ytick_12">
     <g id="line2d_18">
      <g>
       <use style="stroke:#000000;stroke-width:0.6;" x="54" xlink:href="#m86e0541b3a" y="216.463332"/>
      </g>
     </g>
    </g>
    <g id="ytick_13">
     <g id="line2d_19">
      <g>
       <use style="stroke:#000000;stroke-width:0.6;" x="54" xlink:href="#m86e0541b3a" y="207.957879"/>
      </g>
     </g>
    </g>
    <g id="ytick_14">
     <g id="line2d_20">
      <g>
       <use style="stroke:#000000;stroke-width:0.6;" x="54" xlink:href="#m86e0541b3a" y="201.923165"/>
      </g>
     </g>
    </g>
    <g id="ytick_15">
     <g id="line2d_21">
      <g>
       <use style="stroke:#000000;stroke-width:0.6;" x="54" xlink:href="#m86e0541b3a" y="197.242276"/>
      </g>
     </g>
    </g>
    <g id="ytick_16">
     <g id="line2d_22">
      <g>
       <use style="stroke:#000000;stroke-width:0.6;" x="54" xlink:href="#m86e0541b3a" y="193.417712"/>
      </g>
     </g>
    </g>
    <g id="ytick_17">
     <g id="line2d_23">
      <g>
       <use style="stroke:#000000;stroke-width:0.6;" x="54" xlink:href="#m86e0541b3a" y="190.184089"/>
      </g>
     </g>
    </g>
    <g id="ytick_18">
     <g id="line2d_24">
      <g>
       <use style="stroke:#000000;stroke-width:0.6;" x="54" xlink:href="#m86e0541b3a" y="187.382997"/>
      </g>
     </g>
    </g>
    <g id="ytick_19">
     <g id="line2d_25">
      <g>
       <use style="stroke:#000000;stroke-width:0.6;" x="54" xlink:href="#m86e0541b3a" y="184.91226"/>
      </g>
     </g>
    </g>
    <g id="ytick_20">
     <g id="line2d_26">
      <g>
       <use style="stroke:#000000;stroke-width:0.6;" x="54" xlink:href="#m86e0541b3a" y="168.161942"/>
      </g>
     </g>
    </g>
    <g id="ytick_21">
     <g id="line2d_27">
      <g>
       <use style="stroke:#000000;stroke-width:0.6;" x="54" xlink:href="#m86e0541b3a" y="159.656489"/>
      </g>
     </g>
    </g>
    <g id="ytick_22">
     <g id="line2d_28">
      <g>
       <use style="stroke:#000000;stroke-width:0.6;" x="54" xlink:href="#m86e0541b3a" y="153.621775"/>
      </g>
     </g>
    </g>
    <g id="ytick_23">
     <g id="line2d_29">
      <g>
       <use style="stroke:#000000;stroke-width:0.6;" x="54" xlink:href="#m86e0541b3a" y="148.940886"/>
      </g>
     </g>
    </g>
    <g id="ytick_24">
     <g id="line2d_30">
      <g>
       <use style="stroke:#000000;stroke-width:0.6;" x="54" xlink:href="#m86e0541b3a" y="145.116322"/>
      </g>
     </g>
    </g>
    <g id="ytick_25">
     <g id="line2d_31">
      <g>
       <use style="stroke:#000000;stroke-width:0.6;" x="54" xlink:href="#m86e0541b3a" y="141.882699"/>
      </g>
     </g>
    </g>
    <g id="ytick_26">
     <g id="line2d_32">
      <g>
       <use style="stroke:#000000;stroke-width:0.6;" x="54" xlink:href="#m86e0541b3a" y="139.081607"/>
      </g>
     </g>
    </g>
    <g id="ytick_27">
     <g id="line2d_33">
      <g>
       <use style="stroke:#000000;stroke-width:0.6;" x="54" xlink:href="#m86e0541b3a" y="136.610869"/>
      </g>
     </g>
    </g>
    <g id="ytick_28">
     <g id="line2d_34">
      <g>
       <use style="stroke:#000000;stroke-width:0.6;" x="54" xlink:href="#m86e0541b3a" y="119.860552"/>
      </g>
     </g>
    </g>
    <g id="ytick_29">
     <g id="line2d_35">
      <g>
       <use style="stroke:#000000;stroke-width:0.6;" x="54" xlink:href="#m86e0541b3a" y="111.355099"/>
      </g>
     </g>
    </g>
    <g id="ytick_30">
     <g id="line2d_36">
      <g>
       <use style="stroke:#000000;stroke-width:0.6;" x="54" xlink:href="#m86e0541b3a" y="105.320385"/>
      </g>
     </g>
    </g>
    <g id="ytick_31">
     <g id="line2d_37">
      <g>
       <use style="stroke:#000000;stroke-width:0.6;" x="54" xlink:href="#m86e0541b3a" y="100.639496"/>
      </g>
     </g>
    </g>
    <g id="ytick_32">
     <g id="line2d_38">
      <g>
       <use style="stroke:#000000;stroke-width:0.6;" x="54" xlink:href="#m86e0541b3a" y="96.814932"/>
      </g>
     </g>
    </g>
    <g id="ytick_33">
     <g id="line2d_39">
      <g>
       <use style="stroke:#000000;stroke-width:0.6;" x="54" xlink:href="#m86e0541b3a" y="93.581309"/>
      </g>
     </g>
    </g>
    <g id="ytick_34">
     <g id="line2d_40">
      <g>
       <use style="stroke:#000000;stroke-width:0.6;" x="54" xlink:href="#m86e0541b3a" y="90.780217"/>
      </g>
     </g>
    </g>
    <g id="ytick_35">
     <g id="line2d_41">
      <g>
       <use style="stroke:#000000;stroke-width:0.6;" x="54" xlink:href="#m86e0541b3a" y="88.309479"/>
      </g>
     </g>
    </g>
    <g id="ytick_36">
     <g id="line2d_42">
      <g>
       <use style="stroke:#000000;stroke-width:0.6;" x="54" xlink:href="#m86e0541b3a" y="71.559162"/>
      </g>
     </g>
    </g>
    <g id="ytick_37">
     <g id="line2d_43">
      <g>
       <use style="stroke:#000000;stroke-width:0.6;" x="54" xlink:href="#m86e0541b3a" y="63.053709"/>
      </g>
     </g>
    </g>
    <g id="ytick_38">
     <g id="line2d_44">
      <g>
       <use style="stroke:#000000;stroke-width:0.6;" x="54" xlink:href="#m86e0541b3a" y="57.018994"/>
      </g>
     </g>
    </g>
    <g id="ytick_39">
     <g id="line2d_45">
      <g>
       <use style="stroke:#000000;stroke-width:0.6;" x="54" xlink:href="#m86e0541b3a" y="52.338106"/>
      </g>
     </g>
    </g>
    <g id="ytick_40">
     <g id="line2d_46">
      <g>
       <use style="stroke:#000000;stroke-width:0.6;" x="54" xlink:href="#m86e0541b3a" y="48.513542"/>
      </g>
     </g>
    </g>
    <g id="ytick_41">
     <g id="line2d_47">
      <g>
       <use style="stroke:#000000;stroke-width:0.6;" x="54" xlink:href="#m86e0541b3a" y="45.279919"/>
      </g>
     </g>
    </g>
    <g id="ytick_42">
     <g id="line2d_48">
      <g>
       <use style="stroke:#000000;stroke-width:0.6;" x="54" xlink:href="#m86e0541b3a" y="42.478827"/>
      </g>
     </g>
    </g>
    <g id="ytick_43">
     <g id="line2d_49">
      <g>
       <use style="stroke:#000000;stroke-width:0.6;" x="54" xlink:href="#m86e0541b3a" y="40.008089"/>
      </g>
     </g>
    </g>
    <g id="text_13">
     <!-- GCV($\lambda$) -->
     <defs>
      <path d="M 59.515625 10.40625 
L 59.515625 29.984375 
L 43.40625 29.984375 
L 43.40625 38.09375 
L 69.28125 38.09375 
L 69.28125 6.78125 
Q 63.578125 2.734375 56.6875 0.65625 
Q 49.8125 -1.421875 42 -1.421875 
Q 24.90625 -1.421875 15.25 8.5625 
Q 5.609375 18.5625 5.609375 36.375 
Q 5.609375 54.25 15.25 64.234375 
Q 24.90625 74.21875 42 74.21875 
Q 49.125 74.21875 55.546875 72.453125 
Q 61.96875 70.703125 67.390625 67.28125 
L 67.390625 56.78125 
Q 61.921875 61.421875 55.765625 63.765625 
Q 49.609375 66.109375 42.828125 66.109375 
Q 29.4375 66.109375 22.71875 58.640625 
Q 16.015625 51.171875 16.015625 36.375 
Q 16.015625 21.625 22.71875 14.15625 
Q 29.4375 6.6875 42.828125 6.6875 
Q 48.046875 6.6875 52.140625 7.59375 
Q 56.25 8.5 59.515625 10.40625 
z
" id="DejaVuSans-71"/>
      <path d="M 64.40625 67.28125 
L 64.40625 56.890625 
Q 59.421875 61.53125 53.78125 63.8125 
Q 48.140625 66.109375 41.796875 66.109375 
Q 29.296875 66.109375 22.65625 58.46875 
Q 16.015625 50.828125 16.015625 36.375 
Q 16.015625 21.96875 22.65625 14.328125 
Q 29.296875 6.6875 41.796875 6.6875 
Q 48.140625 6.6875 53.78125 8.984375 
Q 59.421875 11.28125 64.40625 15.921875 
L 64.40625 5.609375 
Q 59.234375 2.09375 53.4375 0.328125 
Q 47.65625 -1.421875 41.21875 -1.421875 
Q 24.65625 -1.421875 15.125 8.703125 
Q 5.609375 18.84375 5.609375 36.375 
Q 5.609375 53.953125 15.125 64.078125 
Q 24.65625 74.21875 41.21875 74.21875 
Q 47.75 74.21875 53.53125 72.484375 
Q 59.328125 70.75 64.40625 67.28125 
z
" id="DejaVuSans-67"/>
      <path d="M 28.609375 0 
L 0.78125 72.90625 
L 11.078125 72.90625 
L 34.1875 11.53125 
L 57.328125 72.90625 
L 67.578125 72.90625 
L 39.796875 0 
z
" id="DejaVuSans-86"/>
      <path d="M 31 75.875 
Q 24.46875 64.65625 21.28125 53.65625 
Q 18.109375 42.671875 18.109375 31.390625 
Q 18.109375 20.125 21.3125 9.0625 
Q 24.515625 -2 31 -13.1875 
L 23.1875 -13.1875 
Q 15.875 -1.703125 12.234375 9.375 
Q 8.59375 20.453125 8.59375 31.390625 
Q 8.59375 42.28125 12.203125 53.3125 
Q 15.828125 64.359375 23.1875 75.875 
z
" id="DejaVuSans-40"/>
      <path d="M 8.015625 75.875 
L 15.828125 75.875 
Q 23.140625 64.359375 26.78125 53.3125 
Q 30.421875 42.28125 30.421875 31.390625 
Q 30.421875 20.453125 26.78125 9.375 
Q 23.140625 -1.703125 15.828125 -13.1875 
L 8.015625 -13.1875 
Q 14.5 -2 17.703125 9.0625 
Q 20.90625 20.125 20.90625 31.390625 
Q 20.90625 42.671875 17.703125 53.65625 
Q 14.5 64.65625 8.015625 75.875 
z
" id="DejaVuSans-41"/>
     </defs>
     <g transform="translate(12.304375 164.46)rotate(-90)scale(0.12 -0.12)">
      <use transform="translate(0 0.015625)" xlink:href="#DejaVuSans-71"/>
      <use transform="translate(77.490234 0.015625)" xlink:href="#DejaVuSans-67"/>
      <use transform="translate(147.314453 0.015625)" xlink:href="#DejaVuSans-86"/>
      <use transform="translate(215.722656 0.015625)" xlink:href="#DejaVuSans-40"/>
      <use transform="translate(254.736328 0.015625)" xlink:href="#DejaVuSans-Oblique-955"/>
      <use transform="translate(313.916016 0.015625)" xlink:href="#DejaVuSans-41"/>
     </g>
    </g>
   </g>
   <g id="line2d_50">
    <path clip-path="url(#p33c78abc27)" d="M 358.149393 99.300129 
L 351.790655 117.284584 
L 351.609571 117.668433 
L 348.930257 124.42483 
L 344.791678 133.741477 
L 338.905148 145.360616 
L 338.256628 146.354956 
L 337.755088 147.474685 
L 337.136001 148.379486 
L 336.601879 149.557636 
L 336.010249 150.38317 
L 335.441338 151.621008 
L 334.874999 152.376582 
L 334.268633 153.675533 
L 333.72587 154.368919 
L 333.078844 155.730478 
L 332.558587 156.367958 
L 331.86708 157.793575 
L 331.36852 158.380535 
L 330.627969 159.871416 
L 330.150807 160.412291 
L 329.355745 161.969232 
L 328.900388 162.467563 
L 328.044252 164.09071 
L 327.610827 164.549945 
L 326.685596 166.238402 
L 326.275252 166.661129 
L 325.271086 168.412514 
L 324.884689 168.801394 
L 323.789242 170.611141 
L 323.429631 170.967855 
L 321.897531 173.154925 
L 320.272455 175.352918 
L 318.53416 177.54668 
L 316.656771 179.714131 
L 314.81401 181.534601 
L 314.793141 181.381841 
L 314.757209 181.588317 
L 314.756671 181.393302 
L 313.92764 182.813931 
L 313.748096 183.061025 
L 313.712541 183.086076 
L 313.624315 182.881206 
L 312.867734 184.537658 
L 312.822265 184.38518 
L 312.792342 184.588821 
L 312.615279 184.566337 
L 311.92624 186.074541 
L 311.853399 185.944538 
L 311.828239 186.146706 
L 311.743895 186.119974 
L 311.63913 186.14688 
L 310.914803 187.674149 
L 310.822737 187.556715 
L 310.700074 187.61863 
L 309.822459 189.338658 
L 309.801209 188.978774 
L 308.988085 190.888409 
L 308.808435 190.832459 
L 308.713598 191.051009 
L 308.220127 191.606318 
L 307.73801 192.665781 
L 307.575356 192.586351 
L 307.387112 192.761688 
L 306.995307 193.653509 
L 306.512943 194.280993 
L 306.425873 194.496238 
L 305.894343 195.080563 
L 305.335316 196.173719 
L 305.113272 196.061947 
L 304.820723 196.748874 
L 304.440707 197.239477 
L 304.252571 197.854765 
L 303.965757 197.828572 
L 303.68046 198.146656 
L 303.458575 198.696471 
L 302.275038 200.103455 
L 302.112424 200.546037 
L 300.888122 201.956168 
L 300.773623 202.317344 
L 299.493588 203.741732 
L 299.426971 204.029099 
L 298.090363 205.462804 
L 298.069278 205.686521 
L 297.648342 206.102185 
L 297.640359 205.918062 
L 297.612538 206.33486 
L 297.59259 206.148004 
L 297.038911 206.60395 
L 297.031362 206.419286 
L 297.024799 206.626268 
L 297.004307 206.463213 
L 296.736069 207.056175 
L 296.694361 206.927796 
L 296.685416 207.137839 
L 296.641016 207.012166 
L 296.47474 207.448295 
L 296.40006 207.371682 
L 296.088465 208.010175 
L 295.89886 207.896714 
L 295.872885 208.102536 
L 295.854874 207.93106 
L 295.777063 207.861234 
L 295.559696 208.36775 
L 295.460613 208.329029 
L 295.289925 208.754343 
L 295.282803 208.567675 
L 295.270502 208.38883 
L 294.944979 209.24702 
L 294.897356 209.122637 
L 294.55248 209.644788 
L 294.485644 209.300824 
L 294.304874 209.73558 
L 294.168482 209.749027 
L 294.14706 209.974112 
L 294.046038 209.923962 
L 293.91355 210.28851 
L 293.750745 210.334507 
L 293.447415 210.88405 
L 293.400099 210.709512 
L 293.089065 211.205364 
L 293.033707 211.078276 
L 292.913797 211.049473 
L 292.830326 211.34905 
L 292.629291 211.444094 
L 292.412053 211.89957 
L 292.195819 212.005635 
L 292.113122 212.298226 
L 292.046653 212.186451 
L 291.829647 212.648306 
L 291.802234 212.461885 
L 291.68579 212.314171 
L 291.600043 212.542175 
L 291.396765 212.628268 
L 291.133697 213.12363 
L 290.86539 213.283886 
L 290.734875 213.62276 
L 290.550276 213.646319 
L 290.379004 214.127702 
L 290.005744 213.925281 
L 289.759996 214.383926 
L 289.428461 214.60084 
L 289.209225 215.018355 
L 288.991592 215.059381 
L 288.980943 215.267044 
L 288.901105 215.162908 
L 288.556456 215.649838 
L 288.465344 215.297336 
L 288.301516 215.655698 
L 287.893553 215.930278 
L 287.56539 216.428232 
L 287.266009 216.553031 
L 287.035061 216.814466 
L 286.822955 216.683041 
L 286.789129 216.887351 
L 286.744869 216.734051 
L 286.353212 216.953776 
L 285.897217 217.746596 
L 284.684045 218.393238 
L 284.46786 218.75524 
L 284.23212 218.750717 
L 283.742143 218.976838 
L 282.962905 219.561495 
L 282.872739 219.438295 
L 282.832108 219.667147 
L 282.554612 220.048548 
L 281.163012 220.671195 
L 280.871844 221.041449 
L 279.93577 221.46975 
L 279.82847 221.895966 
L 279.389319 221.636922 
L 279.324106 221.869025 
L 278.914284 221.902315 
L 277.988745 222.236826 
L 277.636827 222.739819 
L 277.32824 222.439788 
L 276.897844 222.843148 
L 276.882838 223.046891 
L 276.803081 222.890405 
L 275.750425 223.192642 
L 275.409646 223.671954 
L 275.119676 223.34881 
L 274.827591 223.662068 
L 274.801932 223.868525 
L 274.673928 223.725781 
L 273.433444 224.008902 
L 273.355125 224.231652 
L 273.210439 224.086166 
L 272.870903 224.512075 
L 272.836863 224.317494 
L 272.814175 224.12737 
L 272.712215 224.358369 
L 272.330206 224.300434 
L 272.314293 224.107458 
L 272.193797 224.349649 
L 271.859824 224.272541 
L 271.752028 223.915857 
L 271.373196 224.467893 
L 271.277514 224.679196 
L 271.111465 224.503664 
L 271.080209 224.308832 
L 270.620462 224.965941 
L 270.513084 224.807817 
L 270.107238 224.758613 
L 270.055119 224.975484 
L 269.982044 224.804067 
L 268.908007 225.441376 
L 268.745195 225.263056 
L 268.620016 225.472232 
L 268.347431 225.160377 
L 267.538768 225.5835 
L 267.369034 225.434097 
L 267.233695 225.865443 
L 267.121698 225.679753 
L 266.788701 225.523596 
L 266.308611 225.770869 
L 266.291114 225.576163 
L 265.832999 225.508968 
L 265.713819 225.738135 
L 265.511801 225.593521 
L 264.1175 226.221987 
L 263.88974 226.042392 
L 263.485218 225.933626 
L 263.386852 226.152665 
L 262.917486 226.436503 
L 262.429714 226.129757 
L 261.681905 226.609857 
L 261.676944 226.410872 
L 261.399014 226.233657 
L 261.315172 226.439944 
L 261.027277 226.293419 
L 260.357276 226.787973 
L 259.506422 226.706846 
L 259.497469 226.507757 
L 259.314734 226.923072 
L 259.303723 226.724218 
L 259.271073 226.525619 
L 258.883754 226.744718 
L 258.647679 226.371403 
L 258.546822 226.586913 
L 257.737343 226.875704 
L 257.416674 226.714461 
L 256.706426 226.986331 
L 256.604133 227.390342 
L 256.199834 227.018845 
L 255.694503 227.261313 
L 255.567573 226.872121 
L 255.32933 227.091714 
L 254.2293 226.989622 
L 253.946078 227.208422 
L 253.901596 227.408769 
L 253.837964 227.214079 
L 253.808788 227.016117 
L 253.583757 227.232084 
L 253.422698 227.051916 
L 253.299345 227.460954 
L 252.83145 227.287257 
L 252.662648 227.097475 
L 252.605702 227.301051 
L 252.576633 227.103521 
L 252.560857 226.904561 
L 252.078253 227.552039 
L 251.822383 227.366336 
L 250.623905 227.050291 
L 250.326414 227.266318 
L 249.899019 227.085864 
L 249.729237 227.493764 
L 249.464162 227.10792 
L 249.349724 227.313249 
L 248.998319 227.524079 
L 248.326571 227.175356 
L 247.632697 227.596928 
L 246.876164 227.231664 
L 245.969957 227.67342 
L 245.560491 227.482651 
L 245.23837 226.89028 
L 245.131183 227.100193 
L 244.051267 227.546731 
L 243.478617 227.166172 
L 243.364899 227.374461 
L 242.314439 227.809754 
L 242.017894 227.415356 
L 241.830342 227.224386 
L 241.073661 227.663307 
L 240.66156 227.868847 
L 240.427875 227.673322 
L 239.846382 227.48365 
L 239.748086 227.286418 
L 239.345491 227.102998 
L 239.274277 227.309007 
L 238.960506 227.522994 
L 238.935802 227.724472 
L 238.906434 227.523975 
L 238.721512 227.728205 
L 238.210266 227.537727 
L 238.090092 227.338815 
L 237.998609 227.543343 
L 237.831924 227.350382 
L 237.818595 227.148762 
L 237.74105 227.356295 
L 237.542025 227.56793 
L 236.924775 227.792821 
L 236.756938 227.99527 
L 236.539341 227.799143 
L 236.415985 227.197999 
L 236.308029 227.405422 
L 236.165986 227.214136 
L 236.130896 227.419382 
L 235.890297 227.244734 
L 235.723398 227.457489 
L 235.443656 227.070128 
L 235.299454 227.282694 
L 234.808794 227.705241 
L 234.610042 227.512833 
L 234.508456 227.718552 
L 234.443056 227.522089 
L 234.286311 227.930125 
L 234.244115 227.730703 
L 233.925466 227.347335 
L 233.711144 227.561602 
L 233.410969 227.375542 
L 233.366085 226.971688 
L 233.134907 227.403421 
L 233.093319 227.201913 
L 232.847607 227.417985 
L 232.768512 227.221994 
L 232.761677 227.426485 
L 232.714523 227.631205 
L 232.188146 227.842707 
L 232.011178 227.6458 
L 231.93797 227.849662 
L 231.885032 227.650012 
L 231.754154 227.856833 
L 231.375085 227.284687 
L 231.124195 227.501722 
L 230.95329 227.314977 
L 230.14707 227.949497 
L 229.817866 227.755722 
L 229.802413 227.553207 
L 229.45779 227.770486 
L 229.380595 227.370628 
L 229.360373 227.778723 
L 229.227968 227.386623 
L 228.892048 227.606601 
L 228.765578 227.410542 
L 228.46556 227.231381 
L 228.453425 227.43733 
L 228.142676 227.660019 
L 228.118386 227.458114 
L 227.480889 227.698548 
L 227.424485 227.497711 
L 227.416116 227.702263 
L 227.285598 227.50819 
L 227.059179 227.724138 
L 226.898463 227.536223 
L 226.587271 227.758292 
L 226.50466 227.561194 
L 226.336397 227.774867 
L 226.265757 227.576839 
L 226.061622 227.392226 
L 225.853122 227.813261 
L 225.315874 227.637727 
L 224.793412 227.865323 
L 224.385084 227.481926 
L 224.37639 227.687518 
L 224.337169 227.486403 
L 224.243584 227.294126 
L 224.203348 227.503649 
L 223.784785 227.935783 
L 223.625004 227.740841 
L 223.62286 227.53598 
L 223.566105 227.74447 
L 223.54524 227.541273 
L 223.274561 228.170839 
L 222.661974 227.787318 
L 222.207893 228.004607 
L 222.147243 227.802638 
L 221.676071 227.628572 
L 221.645701 227.834797 
L 221.427164 227.436876 
L 221.416076 227.64367 
L 221.399086 227.849414 
L 221.363133 227.64667 
L 221.204981 227.455345 
L 220.466237 227.702185 
L 220.43628 227.498353 
L 219.918293 228.136198 
L 219.501823 227.542175 
L 219.325195 227.959324 
L 219.272787 227.75711 
L 219.171784 227.349479 
L 219.163581 227.557072 
L 219.012167 228.177439 
L 218.986369 227.975783 
L 218.96958 227.772251 
L 218.950547 227.978494 
L 218.645115 228.189104 
L 218.212333 228.007916 
L 218.142975 227.80681 
L 217.814234 227.628346 
L 217.780589 227.424767 
L 217.634013 227.644025 
L 217.105919 227.888776 
L 217.038541 228.302066 
L 216.984466 228.100347 
L 216.971521 227.89583 
L 216.317501 227.720783 
L 216.214354 227.519703 
L 216.065592 227.733564 
L 215.804734 227.541693 
L 215.541466 227.762681 
L 215.442046 227.560722 
L 214.878027 227.184657 
L 214.831039 227.397099 
L 214.363161 227.632024 
L 214.143231 227.43977 
L 213.849613 227.663614 
L 212.766281 228.122066 
L 212.452452 227.720962 
L 212.17765 227.93787 
L 212.087657 227.735427 
L 211.944665 227.947388 
L 211.544963 227.553375 
L 211.488939 227.7637 
L 211.469168 227.556708 
L 211.108127 227.778173 
L 211.104131 227.570118 
L 210.64907 227.379111 
L 210.420153 227.596259 
L 210.228675 227.394022 
L 210.219101 227.603592 
L 210.210403 227.184549 
L 210.20321 227.3951 
L 209.951385 227.612689 
L 209.731287 227.414032 
L 209.581572 227.62793 
L 209.299192 227.435816 
L 208.886091 227.657309 
L 208.742295 227.869185 
L 208.695162 227.663063 
L 208.059479 227.886537 
L 208.0071 227.679771 
L 207.758988 227.480239 
L 207.730002 227.271107 
L 207.691722 227.482563 
L 207.314175 227.700561 
L 207.231327 227.494587 
L 206.801196 227.713178 
L 206.715697 227.296518 
L 206.408581 227.098323 
L 206.323899 226.889614 
L 206.094319 227.109581 
L 205.668112 227.331259 
L 205.593073 227.122186 
L 205.291027 226.919309 
L 205.156372 227.346304 
L 204.927275 226.930158 
L 204.609822 227.149773 
L 204.389475 226.944449 
L 204.293442 227.159453 
L 203.314388 227.598714 
L 203.236995 227.390145 
L 202.918608 227.816259 
L 202.915039 227.607089 
L 202.582505 227.820923 
L 202.350948 227.616553 
L 202.287726 227.826982 
L 202.016808 227.624824 
L 201.976544 227.83481 
L 201.400319 228.048819 
L 201.250525 227.634482 
L 200.938073 227.850298 
L 200.709246 227.647464 
L 200.460687 227.859721 
L 200.202391 227.44804 
L 199.441046 227.263474 
L 199.321231 227.055295 
L 199.065135 227.274657 
L 199.033811 227.063136 
L 198.815245 226.858149 
L 197.699627 227.100078 
L 197.570391 226.677443 
L 197.45704 226.895407 
L 197.340452 226.68562 
L 197.262532 226.90269 
L 196.915386 227.124828 
L 196.852143 226.915967 
L 196.659975 227.13447 
L 195.984005 227.359111 
L 195.91063 227.149039 
L 195.804426 227.363235 
L 195.578198 227.15646 
L 195.518285 227.370324 
L 195.497765 227.158599 
L 195.430903 226.947858 
L 195.197802 227.166871 
L 195.131506 226.741963 
L 195.050655 226.958595 
L 194.739863 227.177289 
L 194.653168 226.536863 
L 194.593543 226.754215 
L 194.588043 226.96896 
L 194.390947 226.76361 
L 194.223822 226.982488 
L 194.191083 226.768831 
L 194.186931 226.983516 
L 193.821647 227.203862 
L 193.70641 226.993317 
L 193.44923 226.789023 
L 193.422512 226.57478 
L 193.2808 226.796095 
L 193.016209 226.376358 
L 193.003828 226.593559 
L 192.833382 226.814018 
L 192.761471 226.60163 
L 192.664447 226.819904 
L 192.378711 227.041023 
L 192.336184 226.82746 
L 191.62365 227.055483 
L 191.572119 226.626423 
L 191.227218 227.063737 
L 191.074229 226.855231 
L 190.571729 227.078387 
L 190.400014 226.658157 
L 190.379512 226.874466 
L 190.331983 226.227554 
L 190.246841 226.449595 
L 189.889679 226.677796 
L 189.699654 226.24958 
L 189.682382 226.031671 
L 189.676082 226.251153 
L 189.580282 226.472984 
L 189.300248 226.698672 
L 189.238026 226.485698 
L 188.88616 226.289332 
L 188.721571 226.516646 
L 188.645177 226.303314 
L 187.981656 226.555725 
L 187.881944 226.343628 
L 187.473591 225.937897 
L 187.321779 226.168176 
L 187.247212 225.955478 
L 186.772603 226.206831 
L 186.712771 225.991025 
L 186.676794 226.213591 
L 186.591107 226.002962 
L 186.275393 226.243428 
L 186.242407 226.464246 
L 186.004702 226.259605 
L 185.850103 226.486546 
L 185.67618 226.28351 
L 185.401393 226.516315 
L 185.208917 226.09081 
L 185.06908 226.318887 
L 184.714242 225.905943 
L 184.491436 225.713275 
L 184.270598 225.961379 
L 184.115473 225.768103 
L 183.915907 226.014007 
L 183.759548 225.814902 
L 183.133716 226.322958 
L 182.929229 225.904985 
L 182.806573 226.140596 
L 182.778451 225.921615 
L 182.616166 226.161491 
L 182.486105 225.732121 
L 182.152008 225.564518 
L 182.103807 226.019474 
L 181.919377 226.26074 
L 181.895311 226.041051 
L 181.158529 225.716143 
L 181.109462 225.499934 
L 180.973151 225.973891 
L 180.888948 225.761124 
L 180.402028 225.389085 
L 180.320779 225.630643 
L 180.303035 225.40665 
L 180.090882 225.670944 
L 179.985697 225.463657 
L 179.839296 225.715403 
L 179.788683 225.26952 
L 179.459443 224.882132 
L 179.384904 224.668164 
L 179.132137 225.182121 
L 179.002887 225.661178 
L 178.449375 225.312584 
L 178.416249 225.088025 
L 178.163235 224.675214 
L 178.107292 224.919976 
L 178.10321 224.687065 
L 177.955935 224.481273 
L 177.386406 224.814477 
L 177.381066 225.04908 
L 176.850774 224.677892 
L 176.65022 224.945161 
L 176.487285 224.507103 
L 176.308673 224.781519 
L 176.270436 224.553763 
L 175.965775 224.850275 
L 175.914986 224.623954 
L 175.747821 225.127078 
L 175.691713 224.902891 
L 175.485214 224.475235 
L 175.467212 224.716745 
L 175.439299 224.486055 
L 174.875339 225.068303 
L 174.744527 225.321731 
L 174.633793 224.867222 
L 174.581853 225.110854 
L 174.474276 225.360446 
L 174.239034 225.164519 
L 174.186596 225.407939 
L 173.913465 225.229025 
L 173.378037 225.563573 
L 173.370909 225.329975 
L 173.363312 225.566404 
L 173.353416 225.333216 
L 172.972809 225.627662 
L 172.634949 225.444385 
L 172.522344 225.225827 
L 172.434855 225.474247 
L 172.186612 225.742274 
L 170.885812 225.664629 
L 170.676301 225.453049 
L 170.650713 225.692346 
L 170.401005 225.952645 
L 169.81917 225.779764 
L 169.585185 225.331214 
L 169.366142 225.59312 
L 169.230778 225.132043 
L 168.610241 224.487607 
L 168.595721 224.245941 
L 168.536469 224.498681 
L 168.076794 224.79655 
L 167.89598 224.085316 
L 167.595993 224.875284 
L 167.489966 224.651573 
L 167.032535 224.490647 
L 166.980874 224.744248 
L 166.959667 224.503749 
L 166.954722 224.259967 
L 166.85131 224.526186 
L 166.742501 224.301901 
L 166.691501 224.55748 
L 166.59818 224.330371 
L 166.498879 224.594008 
L 166.295859 223.908753 
L 166.107586 224.943988 
L 166.014196 224.723165 
L 165.868957 224.268226 
L 165.658009 224.812724 
L 165.450618 224.61539 
L 165.375008 224.386221 
L 165.217764 224.669729 
L 165.158634 224.436142 
L 164.887405 224.74105 
L 164.70681 224.532336 
L 164.567766 224.065834 
L 164.456539 223.587742 
L 164.382016 223.861346 
L 164.249354 224.395141 
L 164.060646 224.683505 
L 163.980618 224.451706 
L 163.617078 224.76944 
L 163.3916 223.554939 
L 163.172054 224.11214 
L 163.114451 223.872746 
L 163.042423 224.142233 
L 162.658146 224.47122 
L 162.273132 223.78884 
L 162.149109 224.069173 
L 162.140376 223.816576 
L 161.472006 224.206932 
L 161.118362 224.019689 
L 161.085003 224.280923 
L 161.07919 224.027184 
L 160.892111 223.812066 
L 160.859206 223.302157 
L 160.58881 223.87885 
L 160.017182 224.22557 
L 159.689923 222.72843 
L 159.491796 222.514339 
L 159.482169 222.248778 
L 159.443136 222.526987 
L 159.440503 222.259592 
L 159.251982 222.838787 
L 158.619461 222.711377 
L 158.5543 222.188455 
L 158.303952 221.979332 
L 157.964377 222.331636 
L 157.345666 222.200259 
L 157.089737 222.525168 
L 157.067208 222.258357 
L 156.85667 222.028554 
L 156.626524 222.884333 
L 156.280396 223.472913 
L 156.139378 222.964577 
L 155.957878 221.657712 
L 155.216434 222.773761 
L 155.021432 222.282651 
L 154.930866 222.585058 
L 154.492511 222.974502 
L 154.313975 222.198334 
L 154.045193 222.009045 
L 153.778888 220.391885 
L 153.66315 220.722891 
L 153.604912 219.86647 
L 153.57874 220.170218 
L 153.235211 221.718519 
L 153.041588 222.054922 
L 152.831068 221.831281 
L 152.749692 221.571877 
L 152.625652 222.173977 
L 152.616795 221.894786 
L 151.815642 221.36611 
L 151.641579 221.154082 
L 151.620686 220.871071 
L 151.415731 220.670093 
L 151.088993 221.101229 
L 150.993731 220.55181 
L 150.957353 220.863003 
L 150.507858 220.462051 
L 150.356617 221.990799 
L 150.275532 221.735655 
L 149.911875 221.5978 
L 149.607579 221.137691 
L 149.595863 221.439408 
L 149.374274 221.246411 
L 149.049436 220.51617 
L 148.928432 221.180274 
L 148.864922 220.912502 
L 148.651793 220.72157 
L 148.600483 220.445781 
L 148.413798 220.244159 
L 148.366576 220.576905 
L 148.338343 220.285824 
L 148.324178 219.984676 
L 148.311217 220.301486 
L 148.200223 220.667757 
L 148.073276 220.117822 
L 147.961595 219.553573 
L 147.88942 219.907839 
L 147.851943 219.614429 
L 147.809174 219.323393 
L 147.666188 219.721439 
L 147.370435 219.575729 
L 146.957014 220.42241 
L 146.924722 220.124309 
L 146.655125 220.881708 
L 146.530744 220.629895 
L 146.205262 221.389508 
L 146.187454 221.087274 
L 145.643048 221.002197 
L 145.464777 221.689748 
L 145.083615 221.559529 
L 144.932485 221.937344 
L 144.924781 221.631234 
L 144.80824 221.982422 
L 144.795305 221.6774 
L 144.60759 221.434056 
L 144.483048 220.867049 
L 144.445855 221.203059 
L 144.185005 221.021709 
L 143.840595 219.934362 
L 143.57522 219.781993 
L 143.47421 220.173605 
L 143.228701 219.664892 
L 142.852483 220.219093 
L 142.688737 219.982216 
L 142.220073 219.91719 
L 142.045068 220.346086 
L 142.02234 220.024864 
L 141.932655 220.410033 
L 141.843516 220.133291 
L 141.523471 220.024353 
L 141.416219 219.077306 
L 141.040059 218.347204 
L 140.939909 218.785103 
L 140.782651 218.563686 
L 140.736695 219.306808 
L 140.610195 218.711209 
L 140.371522 218.234936 
L 140.232879 218.01048 
L 140.22262 217.654626 
L 140.109822 218.131572 
L 140.023613 217.849863 
L 139.874566 218.718682 
L 139.844239 218.746085 
L 139.744808 217.743793 
L 139.60469 217.141192 
L 139.343166 218.148556 
L 139.27966 218.574479 
L 139.214042 218.262817 
L 139.101945 217.988002 
L 139.080896 217.631282 
L 139.075583 218.012393 
L 138.956095 218.860775 
L 138.894119 218.548223 
L 138.749968 219.048451 
L 138.700581 218.725793 
L 138.559689 219.224318 
L 138.529218 218.882633 
L 138.457513 219.317263 
L 138.344578 219.052538 
L 138.200024 219.549293 
L 138.182444 219.194949 
L 138.135326 219.603782 
L 138.135323 219.234143 
L 137.83667 219.169043 
L 137.804444 218.826038 
L 137.788889 219.218282 
L 137.477136 218.798149 
L 137.169475 219.49589 
L 137.013344 219.293133 
L 136.968672 218.961455 
L 136.789906 218.782362 
L 136.727898 218.074747 
L 136.721886 218.47603 
L 136.658466 218.16071 
L 136.497036 217.97392 
L 136.493216 217.577437 
L 136.437096 218.05199 
L 136.294867 217.834652 
L 136.088346 218.489533 
L 135.949683 217.032269 
L 135.910558 217.903199 
L 135.813573 217.615218 
L 135.773187 217.252194 
L 135.670102 217.792683 
L 135.636202 217.422291 
L 135.585459 217.070901 
L 135.263145 217.069079 
L 135.077728 216.891799 
L 134.815154 218.07793 
L 134.760924 217.726394 
L 134.71025 218.211492 
L 134.621651 217.902043 
L 134.398859 217.762998 
L 134.395728 218.192888 
L 134.291706 217.904263 
L 134.024362 218.665267 
L 133.886967 218.412659 
L 133.649509 218.281596 
L 133.630927 217.870455 
L 133.324889 218.686222 
L 133.308155 219.136319 
L 133.115222 218.938687 
L 132.771875 218.920134 
L 132.62758 218.654181 
L 132.626189 219.095087 
L 132.549742 218.747216 
L 132.476204 219.271646 
L 132.45549 218.856845 
L 132.350644 218.537676 
L 132.11227 218.368613 
L 132.083048 217.948938 
L 131.712335 216.988127 
L 131.590067 217.598268 
L 131.434273 217.309406 
L 131.387388 217.831095 
L 130.712202 217.71124 
L 130.508405 216.513843 
L 130.379099 217.169123 
L 130.213264 216.904374 
L 129.935418 215.284771 
L 129.678346 215.162938 
L 129.54436 214.846567 
L 129.511549 214.364 
L 129.372404 214.050358 
L 129.323618 214.670011 
L 129.23338 214.272586 
L 128.983395 215.201904 
L 128.817737 214.926922 
L 127.846869 215.470146 
L 127.675541 212.90026 
L 127.323364 212.375326 
L 127.034186 210.44667 
L 126.982644 211.211606 
L 126.901211 210.748669 
L 126.712508 212.465453 
L 126.707091 211.837073 
L 126.180646 210.388751 
L 125.823083 210.549395 
L 125.667445 210.2128 
L 125.516163 211.2706 
L 125.451912 210.002499 
L 125.39828 210.847209 
L 125.221714 210.547496 
L 125.181849 211.356408 
L 124.855955 212.793504 
L 124.777903 213.656617 
L 124.415753 213.764093 
L 124.310133 211.872901 
L 124.230486 211.336824 
L 123.961712 211.280245 
L 123.932467 210.587472 
L 123.790734 210.200241 
L 123.390653 210.510597 
L 123.375277 211.351998 
L 123.165299 211.127924 
L 122.767489 211.389473 
L 122.193658 209.574339 
L 122.173764 210.512566 
L 122.037748 210.009342 
L 121.776261 209.845632 
L 121.580357 209.473104 
L 121.380001 207.143832 
L 121.345952 208.226824 
L 121.266046 207.47276 
L 120.58779 208.41627 
L 120.395274 207.936234 
L 120.235485 206.270086 
L 119.148088 208.514019 
L 119.099199 207.51457 
L 119.036999 208.854548 
L 118.641372 211.169801 
L 118.618362 210.120328 
L 118.151943 210.384929 
L 117.835427 210.18129 
L 117.752948 211.614416 
L 117.62816 210.812955 
L 117.609041 209.655399 
L 117.057043 210.088056 
L 117.038911 208.853733 
L 116.456273 209.341907 
L 116.377779 208.210414 
L 116.01294 207.92491 
L 115.811359 209.965063 
L 115.618599 209.133656 
L 115.480507 210.973667 
L 115.466205 209.596122 
L 114.335164 211.746381 
L 114.062589 211.084209 
L 112.918165 213.093878 
L 112.829829 208.231898 
L 112.279051 211.775238 
L 111.890943 211.220385 
L 110.518035 213.733932 
L 110.150886 212.938156 
L 109.607633 210.453731 
L 109.60647 212.609328 
L 109.029562 212.254638 
L 108.501361 209.259381 
L 108.318423 204.619219 
L 107.007458 206.088099 
L 106.62034 200.920393 
L 106.189051 205.739042 
L 100.528987 221.737142 
L 100.469341 218.286743 
L 99.290015 218.336586 
L 98.502764 216.676045 
L 98.198704 212.800119 
L 96.302722 213.828386 
L 95.164186 211.426141 
L 93.114221 211.137054 
L 92.181068 222.128812 
L 87.132885 223.239776 
L 78.473707 242.116364 
L 76.06356 233.693149 
L 69.218182 229.303785 
L 69.218182 229.303785 
" style="fill:none;stroke:#1f77b4;stroke-dasharray:7.5,2.5;stroke-dashoffset:0;stroke-width:2.5;"/>
   </g>
   <g id="line2d_51">
    <defs>
     <path d="M -6 6 
L 6 -6 
M -6 -6 
L 6 6 
" id="m9422eaf0fc" style="stroke:#000000;"/>
    </defs>
    <g clip-path="url(#p33c78abc27)">
     <use style="stroke:#000000;" x="236.539341" xlink:href="#m9422eaf0fc" y="227.799143"/>
    </g>
   </g>
   <g id="line2d_52">
    <defs>
     <path d="M -3 3 
L 3 3 
L 3 -3 
L -3 -3 
z
" id="m5ec464dbc8" style="stroke:#0000ff;stroke-linejoin:miter;"/>
    </defs>
    <g clip-path="url(#p33c78abc27)">
     <use style="fill:#0000ff;stroke:#0000ff;stroke-linejoin:miter;" x="78.473707" xlink:href="#m5ec464dbc8" y="242.116364"/>
    </g>
   </g>
   <g id="line2d_53">
    <defs>
     <path d="M 0 3 
C 0.795609 3 1.55874 2.683901 2.12132 2.12132 
C 2.683901 1.55874 3 0.795609 3 0 
C 3 -0.795609 2.683901 -1.55874 2.12132 -2.12132 
C 1.55874 -2.683901 0.795609 -3 0 -3 
C -0.795609 -3 -1.55874 -2.683901 -2.12132 -2.12132 
C -2.683901 -1.55874 -3 -0.795609 -3 0 
C -3 0.795609 -2.683901 1.55874 -2.12132 2.12132 
C -1.55874 2.683901 -0.795609 3 0 3 
z
" id="mc32a89628a" style="stroke:#ff0000;"/>
    </defs>
    <g clip-path="url(#p33c78abc27)">
     <use style="fill:#ff0000;stroke:#ff0000;" x="309.095033" xlink:href="#mc32a89628a" y="217.87514"/>
    </g>
   </g>
   <g id="line2d_54">
    <path clip-path="url(#p33c78abc27)" d="M 373.581818 44.443636 
L 366.487144 65.248482 
L 363.529867 73.039977 
L 360.303062 80.762928 
L 356.285296 89.447351 
L 355.520835 90.838721 
L 354.997177 92.046944 
L 354.282207 93.276939 
L 353.720515 94.549547 
L 353.049997 95.641242 
L 352.448086 96.977927 
L 351.817965 97.950233 
L 351.173079 99.350997 
L 350.580036 100.21965 
L 349.888741 101.684671 
L 349.330451 102.462412 
L 348.58853 103.991848 
L 348.063236 104.689346 
L 347.265566 106.283022 
L 346.772176 106.90916 
L 345.912511 108.566296 
L 345.45061 109.128482 
L 344.521303 110.847353 
L 344.091103 111.351847 
L 343.082721 113.129291 
L 342.685008 113.581521 
L 341.222254 115.816912 
L 339.69093 118.053952 
L 338.076271 120.284509 
L 336.359516 122.495418 
L 334.515903 124.667457 
L 332.91162 126.368992 
L 332.395507 127.472131 
L 332.364955 127.678839 
L 332.341707 127.517162 
L 332.182004 127.768616 
L 330.915517 130.294073 
L 330.831047 130.314001 
L 330.7856 130.572729 
L 330.608017 130.8284 
L 330.508587 130.654661 
L 329.87545 132.415746 
L 329.786505 132.335123 
L 329.299846 133.37084 
L 328.813141 134.283568 
L 327.949407 136.071912 
L 327.80857 136.041671 
L 327.531337 136.553477 
L 327.039827 137.951016 
L 326.856372 137.963688 
L 326.806358 138.174359 
L 326.23401 139.200382 
L 326.062742 139.93312 
L 325.839053 139.981761 
L 325.418952 140.808683 
L 322.607373 146.586133 
L 322.215696 146.751741 
L 322.213339 146.947967 
L 322.205926 146.769292 
L 321.308386 148.851077 
L 321.222479 149.070461 
L 320.963192 149.098057 
L 320.57916 149.803556 
L 319.966161 151.148161 
L 319.676177 151.702637 
L 319.635106 151.379513 
L 319.260525 152.382287 
L 318.603704 153.652627 
L 318.222516 154.139143 
L 316.848206 156.865288 
L 316.806036 156.698824 
L 316.754642 156.614862 
L 316.519736 157.284743 
L 315.274492 159.401661 
L 314.763521 160.269958 
L 314.623957 160.728351 
L 311.585003 165.602601 
L 311.569261 165.440699 
L 311.534117 165.70484 
L 311.485773 165.615504 
L 311.372953 166.046946 
L 311.287385 166.039125 
L 311.168041 166.478437 
L 311.06458 166.506977 
L 311.063409 166.706565 
L 311.005555 166.439876 
L 310.988999 166.674278 
L 310.794402 167.387916 
L 310.612064 167.301349 
L 310.602241 167.111098 
L 310.517307 167.55084 
L 310.51717 167.354596 
L 310.391221 167.438735 
L 310.290107 167.668551 
L 310.088872 168.285454 
L 309.932617 168.239529 
L 309.581825 169.380703 
L 309.446542 169.48595 
L 309.438398 169.888422 
L 309.356167 169.743027 
L 309.27386 169.608021 
L 309.128039 169.881868 
L 309.050411 169.610059 
L 308.708099 170.742309 
L 308.53892 170.929983 
L 308.520014 171.162529 
L 308.15595 171.562802 
L 307.863384 172.55449 
L 307.570185 172.468742 
L 307.566483 172.673134 
L 307.093667 173.317878 
L 306.968752 173.964447 
L 306.711651 174.339129 
L 306.646433 174.653423 
L 306.625669 174.498746 
L 306.533307 174.50432 
L 306.30252 175.037832 
L 306.161276 174.940788 
L 306.015448 175.073458 
L 305.869524 175.766578 
L 305.558135 176.264754 
L 305.487206 176.58938 
L 305.46115 176.445383 
L 305.149112 177.130324 
L 305.149057 177.327852 
L 305.014522 177.400908 
L 304.934023 177.636411 
L 304.663734 177.629116 
L 304.623965 177.848782 
L 304.315382 178.33802 
L 304.226809 178.693385 
L 303.074323 180.57566 
L 303.040068 180.227479 
L 302.875531 180.941646 
L 301.795689 182.78773 
L 301.375865 183.258329 
L 300.935782 183.986692 
L 300.744575 184.736913 
L 300.100203 185.83352 
L 299.977647 186.336581 
L 299.905495 186.176673 
L 299.682762 186.113144 
L 299.464305 186.361638 
L 299.233554 186.982504 
L 297.974944 189.202291 
L 297.896637 189.048153 
L 297.83291 188.975037 
L 297.683024 189.626377 
L 296.777457 191.131299 
L 296.740575 191.382658 
L 296.677208 191.288434 
L 296.003743 192.046012 
L 294.083122 195.004162 
L 293.878802 195.16368 
L 293.860264 194.997533 
L 293.780299 195.334973 
L 293.574094 195.501107 
L 293.541711 195.35765 
L 293.535651 195.567634 
L 293.426447 195.936819 
L 293.267617 196.013793 
L 292.805716 196.596065 
L 292.804549 196.396794 
L 292.770806 196.850596 
L 292.74813 196.484225 
L 292.460635 197.358895 
L 292.220105 197.670872 
L 292.15458 197.503236 
L 291.580413 198.279426 
L 291.535292 198.554702 
L 291.494446 198.425503 
L 291.307933 198.932953 
L 291.296768 198.550416 
L 291.221058 198.886962 
L 291.177366 198.563024 
L 290.801619 199.641554 
L 290.797539 199.447515 
L 290.792739 199.254451 
L 290.702763 199.781805 
L 290.673016 199.602704 
L 290.63348 199.827765 
L 290.629162 200.030371 
L 290.527561 199.693049 
L 290.454443 199.942001 
L 290.402648 199.771569 
L 290.340521 200.008697 
L 290.195309 200.07526 
L 290.169931 199.718625 
L 290.142294 200.177112 
L 290.08281 200.085967 
L 289.8723 200.676874 
L 289.80127 200.603188 
L 289.398344 201.726244 
L 289.336386 201.437173 
L 289.21325 201.861886 
L 289.157456 201.753512 
L 289.153365 201.96253 
L 289.060945 202.449679 
L 289.015791 202.273525 
L 288.98106 202.096478 
L 288.796035 202.621583 
L 288.765439 202.835398 
L 288.713837 202.461802 
L 288.711742 202.264276 
L 288.640259 202.589442 
L 288.599926 202.458437 
L 288.483716 202.481533 
L 288.334666 203.146813 
L 288.236886 203.117466 
L 288.13046 203.502643 
L 287.999465 203.549848 
L 287.996162 203.75675 
L 287.701465 203.860771 
L 287.505597 204.78804 
L 287.452613 204.683178 
L 287.327973 205.157739 
L 287.279502 204.984376 
L 287.140237 204.857715 
L 287.11811 204.66845 
L 287.039783 204.911037 
L 286.809479 205.112837 
L 286.726127 205.651733 
L 286.667618 205.547507 
L 286.626499 205.422693 
L 286.564776 205.737309 
L 286.404799 205.829268 
L 286.069682 206.563062 
L 285.772551 206.68783 
L 285.758586 207.10671 
L 285.634558 206.987358 
L 285.26973 207.415102 
L 285.249325 207.624165 
L 285.224744 207.463302 
L 284.927916 207.79988 
L 284.829602 208.361998 
L 284.797595 208.211942 
L 284.769106 208.055705 
L 284.42534 208.402371 
L 284.366337 208.696361 
L 284.148984 208.868693 
L 283.888013 209.806274 
L 283.813527 209.651433 
L 283.249788 209.791867 
L 282.84234 210.845577 
L 282.833941 210.657027 
L 282.781256 210.936905 
L 282.671042 210.901184 
L 282.624804 211.369664 
L 282.573318 211.242637 
L 282.534576 211.105204 
L 282.447696 211.447202 
L 282.121387 211.774424 
L 282.088789 212.207821 
L 282.084493 212.010054 
L 281.682501 212.630129 
L 281.594413 212.476582 
L 281.486064 212.013009 
L 281.362912 212.616604 
L 281.18241 212.709914 
L 280.769835 213.881226 
L 280.266734 214.438537 
L 280.156969 214.200347 
L 280.023741 214.471594 
L 279.614156 214.871625 
L 279.504836 214.638348 
L 279.029394 215.718401 
L 279.023061 215.925455 
L 278.372935 216.201709 
L 277.980947 217.022311 
L 277.566736 217.003534 
L 277.287759 217.194018 
L 277.030913 217.741674 
L 277.011708 217.566304 
L 276.662581 218.163189 
L 276.283052 218.450554 
L 276.08102 218.900441 
L 275.957845 218.85009 
L 275.289353 219.228455 
L 275.071627 219.699725 
L 274.681352 219.972333 
L 274.451899 220.403752 
L 274.325753 220.349755 
L 274.210592 220.882092 
L 273.838636 221.094429 
L 273.718498 221.023784 
L 273.645397 221.250655 
L 273.625413 221.056719 
L 273.17515 221.409792 
L 273.051671 221.147386 
L 272.399062 222.058953 
L 272.199488 222.064877 
L 272.044311 222.406853 
L 272.029927 222.220133 
L 271.975075 222.076451 
L 271.801057 222.465779 
L 271.767848 222.298038 
L 271.492248 222.787476 
L 271.21534 223.087626 
L 271.175833 222.902773 
L 270.997898 223.163735 
L 270.826983 223.417209 
L 270.766493 222.850043 
L 270.795567 223.429231 
L 270.758754 223.061761 
L 270.604442 223.622656 
L 270.547248 223.479408 
L 270.48107 223.344414 
L 270.310381 223.31328 
L 270.289278 223.537235 
L 270.238349 223.38935 
L 269.917152 223.904364 
L 269.902792 223.714926 
L 269.734053 224.076576 
L 269.452163 224.143895 
L 269.308742 224.480216 
L 269.247803 224.33353 
L 268.873313 224.661757 
L 268.72261 224.507682 
L 268.663114 224.729368 
L 268.421654 224.995146 
L 268.176817 225.008487 
L 268.158834 225.226185 
L 267.58639 225.321182 
L 267.458475 225.625922 
L 267.420497 225.456081 
L 266.929969 226.257681 
L 266.777237 226.168316 
L 266.749772 226.390371 
L 266.420849 226.664798 
L 266.298621 226.295905 
L 266.258588 226.509161 
L 266.065286 226.762392 
L 265.944521 226.593878 
L 265.881456 226.807566 
L 265.692343 226.549599 
L 265.451504 226.53473 
L 265.215329 226.90011 
L 265.068459 226.795718 
L 264.87666 227.123487 
L 264.866629 226.926771 
L 264.31663 227.670378 
L 264.288415 227.484958 
L 263.896863 227.314652 
L 263.888163 227.115071 
L 263.876389 227.323123 
L 263.605749 227.783294 
L 263.494891 228.005794 
L 263.392669 227.822037 
L 263.001726 228.08342 
L 262.890231 227.943934 
L 262.298784 227.863801 
L 261.861037 228.295504 
L 261.418488 228.121385 
L 260.790491 228.819385 
L 260.618616 229.046118 
L 259.937525 228.736398 
L 259.720327 229.174136 
L 259.629016 229.012225 
L 259.333009 228.940113 
L 259.331321 229.144957 
L 258.943355 229.095914 
L 258.543915 229.646058 
L 257.476076 230.185037 
L 256.756947 230.182097 
L 256.69937 229.995903 
L 256.42348 230.423609 
L 255.790086 230.664836 
L 255.451499 230.549916 
L 254.251407 230.434458 
L 253.290071 230.843348 
L 253.0811 230.681398 
L 251.258148 231.473958 
L 250.92617 231.321799 
L 249.966697 231.248671 
L 249.949617 231.047627 
L 249.270829 230.926471 
L 249.004331 231.160372 
L 248.278554 231.438004 
L 247.690517 231.289747 
L 247.594183 231.501001 
L 247.30858 231.324291 
L 246.332529 230.997626 
L 245.47307 231.646538 
L 245.022779 231.452946 
L 244.859397 230.849711 
L 241.270993 231.451924 
L 241.146971 231.25146 
L 240.887896 231.465785 
L 240.487554 231.274283 
L 239.505839 231.712386 
L 238.597139 231.533314 
L 236.793451 231.368376 
L 236.216031 231.576878 
L 235.458393 231.386543 
L 235.271622 231.184314 
L 234.821404 230.98621 
L 234.623616 231.197121 
L 234.048975 231.000345 
L 234.024267 230.792564 
L 233.968902 231.001708 
L 231.487587 231.447917 
L 230.846002 231.041754 
L 229.059863 231.263626 
L 228.770377 231.059367 
L 228.677016 230.644014 
L 228.538334 230.856531 
L 227.58471 231.082977 
L 227.490506 230.878266 
L 227.403635 231.295371 
L 227.362984 231.08937 
L 227.264287 230.676126 
L 227.229375 230.886417 
L 226.933365 231.102997 
L 226.859788 230.897108 
L 226.091124 231.124703 
L 226.081661 231.332044 
L 225.929035 231.129392 
L 225.567347 231.342567 
L 225.131643 231.143825 
L 224.990967 230.730105 
L 224.846312 231.151393 
L 224.808713 230.94399 
L 224.788322 230.735227 
L 224.712394 230.946011 
L 224.60983 231.156075 
L 224.419493 230.954009 
L 223.979971 231.169846 
L 223.646813 230.760133 
L 223.586125 230.552573 
L 222.832293 230.989002 
L 222.612087 230.786809 
L 222.248414 231.209874 
L 222.190673 231.002654 
L 221.534437 231.219814 
L 221.274746 231.019093 
L 220.883993 231.2322 
L 220.364589 231.030382 
L 220.248533 230.822627 
L 220.032323 231.034161 
L 219.996863 230.827153 
L 219.836709 231.040882 
L 219.818393 230.832198 
L 219.763104 231.250697 
L 219.72889 231.042897 
L 219.31479 231.255184 
L 218.867405 231.051093 
L 218.863632 230.841884 
L 218.763504 231.052 
L 218.719702 231.260524 
L 218.268998 231.470034 
L 218.117677 231.676923 
L 217.603851 231.273357 
L 217.583069 231.065614 
L 217.534629 231.274167 
L 217.060665 231.483982 
L 215.740835 231.283138 
L 215.120337 230.877152 
L 212.300349 231.309209 
L 211.52623 231.110174 
L 210.956391 231.319821 
L 210.321874 231.11563 
L 210.305357 230.906616 
L 209.407459 231.121177 
L 208.797067 230.920244 
L 208.574458 231.130681 
L 207.864503 230.716987 
L 207.049916 230.933916 
L 207.006271 230.724185 
L 206.708666 230.93677 
L 206.624247 230.731451 
L 206.432421 230.946792 
L 205.349323 231.38419 
L 205.23854 231.177576 
L 204.792666 231.390237 
L 204.097465 230.986628 
L 204.056212 231.196594 
L 204.038222 230.987764 
L 204.011283 230.778597 
L 203.932971 230.990794 
L 203.565163 231.20665 
L 203.560172 230.997576 
L 203.23241 230.591951 
L 203.10995 230.386309 
L 202.877324 230.819748 
L 202.707653 230.615058 
L 202.514737 231.042632 
L 202.349646 230.837248 
L 202.344695 230.626179 
L 202.23399 230.843481 
L 201.697002 231.07411 
L 201.424774 230.471713 
L 201.296582 230.693218 
L 200.821225 230.31096 
L 200.704462 230.746498 
L 200.681474 230.53625 
L 200.429492 230.346213 
L 200.316762 230.78087 
L 200.151904 230.369257 
L 199.916493 230.816373 
L 199.804916 231.034775 
L 199.449709 231.264169 
L 199.255395 231.067373 
L 199.170026 230.65319 
L 199.070433 230.873503 
L 198.844577 231.097359 
L 198.39694 230.912386 
L 198.289354 230.712787 
L 198.248498 230.928797 
L 197.829903 230.753592 
L 197.715224 231.185839 
L 197.537758 230.779012 
L 197.374494 231.005256 
L 197.300647 230.799533 
L 197.282494 231.013807 
L 197.26929 231.226333 
L 197.171755 231.027425 
L 197.026526 230.833965 
L 196.879341 231.061528 
L 196.687929 230.877495 
L 196.659065 230.668329 
L 196.506043 230.476741 
L 196.326979 230.711997 
L 195.585204 230.603835 
L 195.553535 230.392814 
L 195.263281 230.222664 
L 195.158364 230.455788 
L 194.918991 230.705499 
L 194.153163 230.397687 
L 193.769772 230.675475 
L 193.606035 230.268341 
L 193.353055 230.519008 
L 192.860747 230.795344 
L 192.756086 231.02198 
L 192.114231 230.876287 
L 191.95923 230.680036 
L 191.898816 230.904027 
L 191.523594 230.736024 
L 191.365765 230.102268 
L 191.268283 229.900304 
L 191.094959 230.370251 
L 191.071737 230.15361 
L 190.308968 230.693862 
L 190.149641 230.925614 
L 189.270503 230.790905 
L 189.241682 231.011346 
L 189.090718 231.238933 
L 188.910341 231.035554 
L 188.468499 230.853764 
L 188.234286 231.30544 
L 187.997467 231.107469 
L 187.946916 231.327665 
L 187.151833 230.960371 
L 186.939995 231.196547 
L 186.394633 230.382576 
L 186.27516 230.618614 
L 185.950255 230.874309 
L 185.722835 230.680306 
L 185.489094 230.921774 
L 185.271767 230.72105 
L 184.582194 230.989974 
L 183.941886 230.817757 
L 183.726703 229.943481 
L 183.290772 229.754663 
L 183.100212 229.996025 
L 182.733864 230.247642 
L 182.688937 230.47455 
L 182.635219 230.254581 
L 182.255471 229.615613 
L 181.626626 230.116105 
L 181.204209 229.921444 
L 180.946594 229.489666 
L 180.519733 229.745213 
L 180.480022 229.519267 
L 180.198421 230.217964 
L 180.130589 229.99686 
L 179.694555 229.578088 
L 179.643821 229.3571 
L 179.601216 229.59398 
L 179.582084 229.824357 
L 179.370218 229.618584 
L 178.658203 230.138798 
L 178.455651 229.706533 
L 178.216717 230.409485 
L 178.193071 230.185047 
L 178.080917 230.416995 
L 177.767425 229.984723 
L 177.734236 230.214236 
L 177.259048 230.039705 
L 177.007959 230.293343 
L 176.942149 230.072657 
L 176.735996 229.870929 
L 176.655451 230.109963 
L 176.653538 229.881583 
L 176.49243 229.678387 
L 176.426138 229.918182 
L 176.41027 229.690823 
L 176.108019 230.19038 
L 175.639453 229.570659 
L 175.505818 229.818315 
L 175.476984 229.591271 
L 175.257595 229.39132 
L 174.784393 229.24666 
L 174.142909 229.58341 
L 173.894691 229.852045 
L 173.790333 229.169422 
L 173.690866 229.421227 
L 173.221548 229.268672 
L 173.206522 229.506176 
L 172.744565 229.345277 
L 172.73777 229.581297 
L 172.044761 229.909133 
L 171.164151 229.78214 
L 170.381585 229.403014 
L 169.672467 229.248268 
L 169.627128 229.015239 
L 169.374416 228.567236 
L 169.204786 228.352858 
L 168.398936 228.705443 
L 168.226644 228.485004 
L 168.142924 228.738749 
L 168.012222 228.268299 
L 167.892034 228.527433 
L 167.822542 228.292617 
L 167.750913 228.547125 
L 167.723062 228.30778 
L 167.529927 228.583149 
L 166.843298 228.902796 
L 166.759277 229.15321 
L 166.373461 228.465788 
L 166.037374 228.97972 
L 165.680642 228.528845 
L 165.629563 228.777471 
L 165.445686 228.547084 
L 165.16237 228.810808 
L 165.130139 228.568531 
L 164.858385 228.099875 
L 164.831883 227.853834 
L 164.811747 228.10497 
L 164.391173 227.909556 
L 164.376788 227.661052 
L 164.294038 227.920747 
L 164.108929 227.692186 
L 163.91236 227.959811 
L 163.874952 227.462862 
L 163.871812 227.715198 
L 163.716283 227.982118 
L 163.684641 227.735083 
L 163.552161 227.998115 
L 163.406611 227.762778 
L 163.398593 227.511876 
L 163.338079 228.019637 
L 163.29398 228.272131 
L 163.024361 228.053931 
L 162.94581 227.560778 
L 162.919792 227.815572 
L 162.900882 228.067955 
L 162.616152 227.597316 
L 161.499618 227.981389 
L 161.351619 227.747101 
L 161.326225 227.497528 
L 160.938062 227.30479 
L 160.825946 227.067773 
L 160.764369 227.586654 
L 160.525648 227.360386 
L 160.458634 227.111763 
L 160.422428 227.372172 
L 160.219302 227.138852 
L 160.162146 227.401782 
L 160.135525 227.148719 
L 159.921668 227.430007 
L 159.890465 227.178494 
L 159.8697 227.43827 
L 159.803946 227.700379 
L 159.714678 227.455387 
L 158.926562 227.789692 
L 158.779807 228.054797 
L 157.812436 227.39094 
L 157.807757 227.13342 
L 157.789655 227.392952 
L 157.729842 227.139518 
L 157.322072 226.920298 
L 157.025702 227.201701 
L 156.805368 226.705994 
L 156.79575 226.968589 
L 156.529257 227.260541 
L 156.520551 227.002166 
L 156.442091 227.274238 
L 156.379392 227.539459 
L 156.175241 227.81557 
L 156.150513 227.562031 
L 155.756153 227.859424 
L 155.661176 227.613278 
L 155.37789 227.896561 
L 155.181286 227.663132 
L 155.171949 227.92075 
L 155.125709 227.414189 
L 155.090012 227.677865 
L 154.883353 226.936732 
L 154.835447 227.205911 
L 154.523266 227.002693 
L 154.467309 227.271423 
L 154.143162 226.824501 
L 154.065838 227.104346 
L 153.823814 227.397862 
L 153.822096 227.657835 
L 153.789313 227.401865 
L 153.626656 227.171985 
L 153.296981 226.972494 
L 153.220833 227.249224 
L 153.085157 227.010508 
L 152.628973 226.823773 
L 152.610276 227.091498 
L 152.493194 226.851419 
L 152.391087 227.135775 
L 152.167129 226.918713 
L 152.153542 226.655532 
L 152.096912 226.934643 
L 151.667704 226.764456 
L 151.608862 226.509603 
L 151.264377 226.850446 
L 150.576301 226.252277 
L 150.463534 226.0172 
L 150.056056 225.884691 
L 149.787518 226.516044 
L 149.67555 225.734349 
L 149.672154 226.012657 
L 149.413444 226.659982 
L 149.091181 227.045142 
L 148.618881 226.944545 
L 148.364286 227.30251 
L 148.319834 227.045801 
L 148.110587 226.841438 
L 147.975997 225.49352 
L 147.736513 224.717142 
L 147.580339 225.056876 
L 147.510012 224.503677 
L 147.367414 224.843624 
L 147.218494 224.312482 
L 146.968232 224.691905 
L 146.533357 224.562466 
L 146.394071 224.034118 
L 146.320831 224.361649 
L 146.218663 224.107982 
L 145.879467 223.985726 
L 145.789645 223.731422 
L 145.683163 224.381918 
L 145.544928 224.14988 
L 145.292594 224.565231 
L 145.256394 224.283372 
L 145.228978 224.594304 
L 145.040701 224.379914 
L 144.584168 224.285157 
L 144.379069 223.153933 
L 144.253624 223.522884 
L 143.960442 222.411301 
L 143.763095 222.836882 
L 143.75644 222.52427 
L 143.552822 223.252665 
L 143.488893 222.974259 
L 143.128207 222.854043 
L 142.873966 222.358489 
L 142.817075 222.71106 
L 142.807184 222.395347 
L 142.676517 222.150623 
L 142.555298 221.578069 
L 142.361252 221.053598 
L 142.351989 221.394471 
L 141.762304 222.446132 
L 141.734721 223.112089 
L 141.689507 222.812082 
L 141.309211 223.320387 
L 141.150641 222.75788 
L 141.015778 222.505472 
L 140.946288 221.881682 
L 140.758814 221.67901 
L 140.721547 221.025149 
L 140.643868 221.42345 
L 140.558802 221.822656 
L 140.351946 220.955076 
L 140.022656 220.531037 
L 139.817352 221.047962 
L 139.802158 220.709398 
L 139.677555 221.160862 
L 139.618989 220.857133 
L 139.42404 221.362113 
L 139.417557 221.017091 
L 139.096875 221.998201 
L 138.950695 221.794713 
L 138.903221 222.188944 
L 138.669841 222.064923 
L 138.594856 221.432454 
L 138.407937 221.272115 
L 138.219135 220.753901 
L 138.160336 221.176596 
L 138.133222 220.841775 
L 138.037738 220.945288 
L 137.967756 220.291703 
L 137.790227 220.133718 
L 137.587844 221.105068 
L 137.572118 220.753289 
L 137.392855 220.587488 
L 137.027729 220.622331 
L 136.997571 221.031616 
L 136.955995 220.322327 
L 136.721829 218.646031 
L 136.667478 219.106158 
L 135.964209 221.058349 
L 135.419951 220.527104 
L 135.272048 220.312384 
L 135.231272 219.558626 
L 134.98766 219.465043 
L 134.864986 219.221357 
L 134.820136 219.693738 
L 134.626853 220.350517 
L 134.392415 219.024614 
L 134.075472 219.078581 
L 133.753576 217.383691 
L 133.655077 217.994313 
L 133.525595 217.307654 
L 133.29971 218.568325 
L 133.251959 218.193545 
L 133.189584 217.83848 
L 133.039396 219.412661 
L 132.761038 219.380003 
L 132.691332 219.034861 
L 132.492349 218.90807 
L 132.46783 219.400823 
L 132.383231 219.085169 
L 132.229833 218.874374 
L 132.208565 219.366221 
L 131.786706 218.194997 
L 131.547798 218.107755 
L 131.478384 217.741043 
L 131.152192 217.804309 
L 130.968753 217.618033 
L 130.931682 217.177782 
L 130.512518 216.362154 
L 130.216555 216.362859 
L 129.783868 215.50218 
L 129.769348 214.973279 
L 129.688075 215.677791 
L 129.672668 215.150483 
L 129.548196 215.931173 
L 129.48617 215.489293 
L 129.207116 215.448616 
L 129.017127 215.229496 
L 128.861315 213.765502 
L 128.608165 213.037617 
L 128.603383 212.425339 
L 128.356327 212.281579 
L 128.072543 213.455397 
L 127.991102 214.230061 
L 127.895716 213.787035 
L 127.662774 213.591954 
L 127.638545 212.349331 
L 127.523286 211.935173 
L 127.497948 211.318268 
L 127.122462 211.467056 
L 127.113598 210.793345 
L 127.104261 211.507606 
L 126.97444 211.110644 
L 126.856554 209.96812 
L 126.6463 209.754596 
L 126.575295 208.4356 
L 126.480611 207.905204 
L 126.078314 208.138415 
L 125.901904 209.355687 
L 125.892792 208.594408 
L 125.23189 209.448347 
L 124.90887 211.020545 
L 124.635907 210.898772 
L 124.507778 212.008766 
L 124.497622 211.23449 
L 124.229464 211.090359 
L 124.175438 210.394034 
L 124.106152 211.39444 
L 123.923656 210.166549 
L 123.234354 214.308763 
L 123.161301 213.665612 
L 122.37787 216.256499 
L 122.215925 215.818618 
L 122.201219 215.023433 
L 122.00606 214.663207 
L 121.902341 214.057492 
L 121.674317 213.743347 
L 121.634667 212.941667 
L 121.495346 212.379483 
L 121.279863 211.990582 
L 121.116609 211.444286 
L 120.992756 207.670682 
L 120.823508 205.930855 
L 120.660303 207.506125 
L 120.554671 206.686931 
L 119.747407 207.794174 
L 119.154528 208.303641 
L 117.944435 210.438973 
L 117.913712 209.270016 
L 117.691311 208.582729 
L 117.61674 207.452944 
L 117.379421 206.743114 
L 117.331457 205.45743 
L 116.889163 205.242251 
L 116.589883 204.562828 
L 116.126095 207.380483 
L 116.115768 208.880918 
L 115.727848 206.960717 
L 115.453219 206.142636 
L 115.36286 204.751315 
L 114.857126 204.466266 
L 114.719029 201.206011 
L 114.311866 200.455056 
L 114.053451 197.016499 
L 113.551264 196.244526 
L 113.527319 193.917973 
L 113.387542 196.728435 
L 113.38221 194.346162 
L 112.989956 197.8844 
L 112.84528 193.368207 
L 111.968604 190.403773 
L 111.879904 187.563283 
L 111.132562 186.531595 
L 110.751323 184.085942 
L 110.229925 181.769929 
L 110.076279 177.862325 
L 109.9941 182.556168 
L 109.829674 178.70056 
L 109.765668 173.979663 
L 109.29679 169.994588 
L 108.670219 165.681098 
L 106.683152 178.838376 
L 106.593471 184.736556 
L 106.306555 180.114402 
L 105.491829 188.469669 
L 104.581858 185.948186 
L 104.097771 193.16319 
L 103.471324 189.708786 
L 100.097493 206.557454 
L 99.354561 196.946697 
L 97.253603 196.454857 
L 95.847303 191.96144 
L 93.291318 188.88957 
L 90.735618 181.060202 
L 90.038799 154.485561 
L 90.038799 154.485561 
" style="fill:none;stroke:#ff7f0e;stroke-dasharray:2500,2.5;stroke-dashoffset:0;stroke-width:2.5;"/>
   </g>
   <g id="line2d_55">
    <g clip-path="url(#p33c78abc27)">
     <use style="stroke:#000000;" x="209.407459" xlink:href="#m9422eaf0fc" y="231.121177"/>
    </g>
   </g>
   <g id="line2d_56">
    <g clip-path="url(#p33c78abc27)">
     <use style="fill:#0000ff;stroke:#0000ff;stroke-linejoin:miter;" x="239.505839" xlink:href="#m5ec464dbc8" y="231.712386"/>
    </g>
   </g>
   <g id="line2d_57">
    <g clip-path="url(#p33c78abc27)">
     <use style="fill:#ff0000;stroke:#ff0000;" x="292.886473" xlink:href="#mc32a89628a" y="208.002438"/>
    </g>
   </g>
   <g id="patch_3">
    <path d="M 54 252 
L 54 34.56 
" style="fill:none;stroke:#000000;stroke-linecap:square;stroke-linejoin:miter;stroke-width:0.8;"/>
   </g>
   <g id="patch_4">
    <path d="M 388.8 252 
L 388.8 34.56 
" style="fill:none;stroke:#000000;stroke-linecap:square;stroke-linejoin:miter;stroke-width:0.8;"/>
   </g>
   <g id="patch_5">
    <path d="M 54 252 
L 388.8 252 
" style="fill:none;stroke:#000000;stroke-linecap:square;stroke-linejoin:miter;stroke-width:0.8;"/>
   </g>
   <g id="patch_6">
    <path d="M 54 34.56 
L 388.8 34.56 
" style="fill:none;stroke:#000000;stroke-linecap:square;stroke-linejoin:miter;stroke-width:0.8;"/>
   </g>
   <g id="text_14">
    <!-- GCV function for $\ell_1$ trend filter ($\sigma = 0.0001$) -->
    <defs>
     <path id="DejaVuSans-32"/>
     <path d="M 37.109375 75.984375 
L 37.109375 68.5 
L 28.515625 68.5 
Q 23.6875 68.5 21.796875 66.546875 
Q 19.921875 64.59375 19.921875 59.515625 
L 19.921875 54.6875 
L 34.71875 54.6875 
L 34.71875 47.703125 
L 19.921875 47.703125 
L 19.921875 0 
L 10.890625 0 
L 10.890625 47.703125 
L 2.296875 47.703125 
L 2.296875 54.6875 
L 10.890625 54.6875 
L 10.890625 58.5 
Q 10.890625 67.625 15.140625 71.796875 
Q 19.390625 75.984375 28.609375 75.984375 
z
" id="DejaVuSans-102"/>
     <path d="M 8.5 21.578125 
L 8.5 54.6875 
L 17.484375 54.6875 
L 17.484375 21.921875 
Q 17.484375 14.15625 20.5 10.265625 
Q 23.53125 6.390625 29.59375 6.390625 
Q 36.859375 6.390625 41.078125 11.03125 
Q 45.3125 15.671875 45.3125 23.6875 
L 45.3125 54.6875 
L 54.296875 54.6875 
L 54.296875 0 
L 45.3125 0 
L 45.3125 8.40625 
Q 42.046875 3.421875 37.71875 1 
Q 33.40625 -1.421875 27.6875 -1.421875 
Q 18.265625 -1.421875 13.375 4.4375 
Q 8.5 10.296875 8.5 21.578125 
z
M 31.109375 56 
z
" id="DejaVuSans-117"/>
     <path d="M 54.890625 33.015625 
L 54.890625 0 
L 45.90625 0 
L 45.90625 32.71875 
Q 45.90625 40.484375 42.875 44.328125 
Q 39.84375 48.1875 33.796875 48.1875 
Q 26.515625 48.1875 22.3125 43.546875 
Q 18.109375 38.921875 18.109375 30.90625 
L 18.109375 0 
L 9.078125 0 
L 9.078125 54.6875 
L 18.109375 54.6875 
L 18.109375 46.1875 
Q 21.34375 51.125 25.703125 53.5625 
Q 30.078125 56 35.796875 56 
Q 45.21875 56 50.046875 50.171875 
Q 54.890625 44.34375 54.890625 33.015625 
z
" id="DejaVuSans-110"/>
     <path d="M 48.78125 52.59375 
L 48.78125 44.1875 
Q 44.96875 46.296875 41.140625 47.34375 
Q 37.3125 48.390625 33.40625 48.390625 
Q 24.65625 48.390625 19.8125 42.84375 
Q 14.984375 37.3125 14.984375 27.296875 
Q 14.984375 17.28125 19.8125 11.734375 
Q 24.65625 6.203125 33.40625 6.203125 
Q 37.3125 6.203125 41.140625 7.25 
Q 44.96875 8.296875 48.78125 10.40625 
L 48.78125 2.09375 
Q 45.015625 0.34375 40.984375 -0.53125 
Q 36.96875 -1.421875 32.421875 -1.421875 
Q 20.0625 -1.421875 12.78125 6.34375 
Q 5.515625 14.109375 5.515625 27.296875 
Q 5.515625 40.671875 12.859375 48.328125 
Q 20.21875 56 33.015625 56 
Q 37.15625 56 41.109375 55.140625 
Q 45.0625 54.296875 48.78125 52.59375 
z
" id="DejaVuSans-99"/>
     <path d="M 18.3125 70.21875 
L 18.3125 54.6875 
L 36.8125 54.6875 
L 36.8125 47.703125 
L 18.3125 47.703125 
L 18.3125 18.015625 
Q 18.3125 11.328125 20.140625 9.421875 
Q 21.96875 7.515625 27.59375 7.515625 
L 36.8125 7.515625 
L 36.8125 0 
L 27.59375 0 
Q 17.1875 0 13.234375 3.875 
Q 9.28125 7.765625 9.28125 18.015625 
L 9.28125 47.703125 
L 2.6875 47.703125 
L 2.6875 54.6875 
L 9.28125 54.6875 
L 9.28125 70.21875 
z
" id="DejaVuSans-116"/>
     <path d="M 9.421875 54.6875 
L 18.40625 54.6875 
L 18.40625 0 
L 9.421875 0 
z
M 9.421875 75.984375 
L 18.40625 75.984375 
L 18.40625 64.59375 
L 9.421875 64.59375 
z
" id="DejaVuSans-105"/>
     <path d="M 30.609375 48.390625 
Q 23.390625 48.390625 19.1875 42.75 
Q 14.984375 37.109375 14.984375 27.296875 
Q 14.984375 17.484375 19.15625 11.84375 
Q 23.34375 6.203125 30.609375 6.203125 
Q 37.796875 6.203125 41.984375 11.859375 
Q 46.1875 17.53125 46.1875 27.296875 
Q 46.1875 37.015625 41.984375 42.703125 
Q 37.796875 48.390625 30.609375 48.390625 
z
M 30.609375 56 
Q 42.328125 56 49.015625 48.375 
Q 55.71875 40.765625 55.71875 27.296875 
Q 55.71875 13.875 49.015625 6.21875 
Q 42.328125 -1.421875 30.609375 -1.421875 
Q 18.84375 -1.421875 12.171875 6.21875 
Q 5.515625 13.875 5.515625 27.296875 
Q 5.515625 40.765625 12.171875 48.375 
Q 18.84375 56 30.609375 56 
z
" id="DejaVuSans-111"/>
     <path d="M 41.109375 46.296875 
Q 39.59375 47.171875 37.8125 47.578125 
Q 36.03125 48 33.890625 48 
Q 26.265625 48 22.1875 43.046875 
Q 18.109375 38.09375 18.109375 28.8125 
L 18.109375 0 
L 9.078125 0 
L 9.078125 54.6875 
L 18.109375 54.6875 
L 18.109375 46.1875 
Q 20.953125 51.171875 25.484375 53.578125 
Q 30.03125 56 36.53125 56 
Q 37.453125 56 38.578125 55.875 
Q 39.703125 55.765625 41.0625 55.515625 
z
" id="DejaVuSans-114"/>
     <path d="M 14.84375 13.09375 
Q 16.84375 3.328125 21.09375 3.328125 
Q 23.921875 3.328125 27.59375 8.9375 
L 34.078125 8.9375 
Q 31.15625 3.953125 27.734375 1.375 
Q 24.03125 -1.421875 20.609375 -1.421875 
Q 12.984375 -1.421875 9.90625 5.375 
L 6.25 0 
L -1.375 0 
Q 3.90625 7.171875 7.8125 13.875 
Q 7.328125 17.671875 7.328125 21.828125 
Q 7.328125 29.25 8.84375 36.671875 
Q 14.546875 64.546875 19.625 70.265625 
Q 23.140625 74.21875 29.15625 74.21875 
Q 35.25 74.21875 35.25 65.765625 
Q 35.203125 61.96875 34.328125 57.421875 
Q 30.8125 38.8125 14.84375 13.09375 
z
M 14.796875 25.875 
Q 23.921875 42.875 26.703125 56.453125 
Q 28.171875 63.625 28.171875 65.484375 
Q 28.171875 68.84375 26.953125 68.84375 
Q 21.625 64.59375 16.890625 39.3125 
Q 15.578125 32.234375 14.796875 25.875 
z
" id="DejaVuSans-Oblique-8467"/>
     <path d="M 56.203125 29.59375 
L 56.203125 25.203125 
L 14.890625 25.203125 
Q 15.484375 15.921875 20.484375 11.0625 
Q 25.484375 6.203125 34.421875 6.203125 
Q 39.59375 6.203125 44.453125 7.46875 
Q 49.3125 8.734375 54.109375 11.28125 
L 54.109375 2.78125 
Q 49.265625 0.734375 44.1875 -0.34375 
Q 39.109375 -1.421875 33.890625 -1.421875 
Q 20.796875 -1.421875 13.15625 6.1875 
Q 5.515625 13.8125 5.515625 26.8125 
Q 5.515625 40.234375 12.765625 48.109375 
Q 20.015625 56 32.328125 56 
Q 43.359375 56 49.78125 48.890625 
Q 56.203125 41.796875 56.203125 29.59375 
z
M 47.21875 32.234375 
Q 47.125 39.59375 43.09375 43.984375 
Q 39.0625 48.390625 32.421875 48.390625 
Q 24.90625 48.390625 20.390625 44.140625 
Q 15.875 39.890625 15.1875 32.171875 
z
" id="DejaVuSans-101"/>
     <path d="M 45.40625 46.390625 
L 45.40625 75.984375 
L 54.390625 75.984375 
L 54.390625 0 
L 45.40625 0 
L 45.40625 8.203125 
Q 42.578125 3.328125 38.25 0.953125 
Q 33.9375 -1.421875 27.875 -1.421875 
Q 17.96875 -1.421875 11.734375 6.484375 
Q 5.515625 14.40625 5.515625 27.296875 
Q 5.515625 40.1875 11.734375 48.09375 
Q 17.96875 56 27.875 56 
Q 33.9375 56 38.25 53.625 
Q 42.578125 51.265625 45.40625 46.390625 
z
M 14.796875 27.296875 
Q 14.796875 17.390625 18.875 11.75 
Q 22.953125 6.109375 30.078125 6.109375 
Q 37.203125 6.109375 41.296875 11.75 
Q 45.40625 17.390625 45.40625 27.296875 
Q 45.40625 37.203125 41.296875 42.84375 
Q 37.203125 48.484375 30.078125 48.484375 
Q 22.953125 48.484375 18.875 42.84375 
Q 14.796875 37.203125 14.796875 27.296875 
z
" id="DejaVuSans-100"/>
     <path d="M 9.421875 75.984375 
L 18.40625 75.984375 
L 18.40625 0 
L 9.421875 0 
z
" id="DejaVuSans-108"/>
     <path d="M 34.671875 47.5625 
Q 27.25 47.5625 22.21875 42.1875 
Q 16.890625 36.578125 15.140625 27.296875 
Q 13.1875 17.484375 16.3125 11.8125 
Q 19.390625 6.203125 26.65625 6.203125 
Q 33.84375 6.203125 39.109375 11.859375 
Q 44.4375 17.53125 46.34375 27.296875 
Q 48.046875 36.234375 45.015625 42.1875 
Q 42.1875 47.5625 34.671875 47.5625 
z
M 36.078125 54.734375 
L 65.921875 54.6875 
L 64.15625 45.703125 
L 54.109375 45.703125 
Q 57.90625 38.09375 55.859375 27.296875 
Q 53.21875 13.875 45.0625 6.25 
Q 36.859375 -1.421875 25.140625 -1.421875 
Q 13.375 -1.421875 8.203125 6.25 
Q 3.03125 13.875 5.671875 27.296875 
Q 8.25 40.765625 16.40625 48.390625 
Q 23.1875 54.734375 36.078125 54.734375 
z
" id="DejaVuSans-Oblique-963"/>
     <path d="M 10.59375 45.40625 
L 73.1875 45.40625 
L 73.1875 37.203125 
L 10.59375 37.203125 
z
M 10.59375 25.484375 
L 73.1875 25.484375 
L 73.1875 17.1875 
L 10.59375 17.1875 
z
" id="DejaVuSans-61"/>
     <path d="M 10.6875 12.40625 
L 21 12.40625 
L 21 0 
L 10.6875 0 
z
" id="DejaVuSans-46"/>
    </defs>
    <g transform="translate(91.98 28.56)scale(0.12 -0.12)">
     <use transform="translate(0 0.015625)" xlink:href="#DejaVuSans-71"/>
     <use transform="translate(77.490234 0.015625)" xlink:href="#DejaVuSans-67"/>
     <use transform="translate(147.314453 0.015625)" xlink:href="#DejaVuSans-86"/>
     <use transform="translate(215.722656 0.015625)" xlink:href="#DejaVuSans-32"/>
     <use transform="translate(247.509766 0.015625)" xlink:href="#DejaVuSans-102"/>
     <use transform="translate(282.714844 0.015625)" xlink:href="#DejaVuSans-117"/>
     <use transform="translate(346.09375 0.015625)" xlink:href="#DejaVuSans-110"/>
     <use transform="translate(409.472656 0.015625)" xlink:href="#DejaVuSans-99"/>
     <use transform="translate(464.453125 0.015625)" xlink:href="#DejaVuSans-116"/>
     <use transform="translate(503.662109 0.015625)" xlink:href="#DejaVuSans-105"/>
     <use transform="translate(531.445312 0.015625)" xlink:href="#DejaVuSans-111"/>
     <use transform="translate(592.626953 0.015625)" xlink:href="#DejaVuSans-110"/>
     <use transform="translate(656.005859 0.015625)" xlink:href="#DejaVuSans-32"/>
     <use transform="translate(687.792969 0.015625)" xlink:href="#DejaVuSans-102"/>
     <use transform="translate(722.998047 0.015625)" xlink:href="#DejaVuSans-111"/>
     <use transform="translate(784.179688 0.015625)" xlink:href="#DejaVuSans-114"/>
     <use transform="translate(825.292969 0.015625)" xlink:href="#DejaVuSans-32"/>
     <use transform="translate(857.080078 0.015625)" xlink:href="#DejaVuSans-Oblique-8467"/>
     <use transform="translate(898.388672 -16.390625)scale(0.7)" xlink:href="#DejaVuSans-49"/>
     <use transform="translate(945.65918 0.015625)" xlink:href="#DejaVuSans-32"/>
     <use transform="translate(977.446289 0.015625)" xlink:href="#DejaVuSans-116"/>
     <use transform="translate(1016.655273 0.015625)" xlink:href="#DejaVuSans-114"/>
     <use transform="translate(1057.768555 0.015625)" xlink:href="#DejaVuSans-101"/>
     <use transform="translate(1119.291992 0.015625)" xlink:href="#DejaVuSans-110"/>
     <use transform="translate(1182.670898 0.015625)" xlink:href="#DejaVuSans-100"/>
     <use transform="translate(1246.147461 0.015625)" xlink:href="#DejaVuSans-32"/>
     <use transform="translate(1277.93457 0.015625)" xlink:href="#DejaVuSans-102"/>
     <use transform="translate(1313.139648 0.015625)" xlink:href="#DejaVuSans-105"/>
     <use transform="translate(1340.922852 0.015625)" xlink:href="#DejaVuSans-108"/>
     <use transform="translate(1368.706055 0.015625)" xlink:href="#DejaVuSans-116"/>
     <use transform="translate(1407.915039 0.015625)" xlink:href="#DejaVuSans-101"/>
     <use transform="translate(1469.438477 0.015625)" xlink:href="#DejaVuSans-114"/>
     <use transform="translate(1510.551758 0.015625)" xlink:href="#DejaVuSans-32"/>
     <use transform="translate(1542.338867 0.015625)" xlink:href="#DejaVuSans-40"/>
     <use transform="translate(1581.352539 0.015625)" xlink:href="#DejaVuSans-Oblique-963"/>
     <use transform="translate(1664.213867 0.015625)" xlink:href="#DejaVuSans-61"/>
     <use transform="translate(1767.485352 0.015625)" xlink:href="#DejaVuSans-48"/>
     <use transform="translate(1831.108398 0.015625)" xlink:href="#DejaVuSans-46"/>
     <use transform="translate(1862.895508 0.015625)" xlink:href="#DejaVuSans-48"/>
     <use transform="translate(1926.518555 0.015625)" xlink:href="#DejaVuSans-48"/>
     <use transform="translate(1990.141602 0.015625)" xlink:href="#DejaVuSans-48"/>
     <use transform="translate(2053.764648 0.015625)" xlink:href="#DejaVuSans-49"/>
     <use transform="translate(2117.387695 0.015625)" xlink:href="#DejaVuSans-41"/>
    </g>
   </g>
   <g id="legend_1">
    <g id="line2d_58">
     <path d="M 64.8 50.278125 
L 112.8 50.278125 
" style="fill:none;stroke:#1f77b4;stroke-dasharray:7.5,2.5;stroke-dashoffset:0;stroke-width:2.5;"/>
    </g>
    <g id="line2d_59"/>
    <g id="text_15">
     <!-- state $x_1$ -->
     <defs>
      <path d="M 44.28125 53.078125 
L 44.28125 44.578125 
Q 40.484375 46.53125 36.375 47.5 
Q 32.28125 48.484375 27.875 48.484375 
Q 21.1875 48.484375 17.84375 46.4375 
Q 14.5 44.390625 14.5 40.28125 
Q 14.5 37.15625 16.890625 35.375 
Q 19.28125 33.59375 26.515625 31.984375 
L 29.59375 31.296875 
Q 39.15625 29.25 43.1875 25.515625 
Q 47.21875 21.78125 47.21875 15.09375 
Q 47.21875 7.46875 41.1875 3.015625 
Q 35.15625 -1.421875 24.609375 -1.421875 
Q 20.21875 -1.421875 15.453125 -0.5625 
Q 10.6875 0.296875 5.421875 2 
L 5.421875 11.28125 
Q 10.40625 8.6875 15.234375 7.390625 
Q 20.0625 6.109375 24.8125 6.109375 
Q 31.15625 6.109375 34.5625 8.28125 
Q 37.984375 10.453125 37.984375 14.40625 
Q 37.984375 18.0625 35.515625 20.015625 
Q 33.0625 21.96875 24.703125 23.78125 
L 21.578125 24.515625 
Q 13.234375 26.265625 9.515625 29.90625 
Q 5.8125 33.546875 5.8125 39.890625 
Q 5.8125 47.609375 11.28125 51.796875 
Q 16.75 56 26.8125 56 
Q 31.78125 56 36.171875 55.265625 
Q 40.578125 54.546875 44.28125 53.078125 
z
" id="DejaVuSans-115"/>
      <path d="M 34.28125 27.484375 
Q 23.390625 27.484375 19.1875 25 
Q 14.984375 22.515625 14.984375 16.5 
Q 14.984375 11.71875 18.140625 8.90625 
Q 21.296875 6.109375 26.703125 6.109375 
Q 34.1875 6.109375 38.703125 11.40625 
Q 43.21875 16.703125 43.21875 25.484375 
L 43.21875 27.484375 
z
M 52.203125 31.203125 
L 52.203125 0 
L 43.21875 0 
L 43.21875 8.296875 
Q 40.140625 3.328125 35.546875 0.953125 
Q 30.953125 -1.421875 24.3125 -1.421875 
Q 15.921875 -1.421875 10.953125 3.296875 
Q 6 8.015625 6 15.921875 
Q 6 25.140625 12.171875 29.828125 
Q 18.359375 34.515625 30.609375 34.515625 
L 43.21875 34.515625 
L 43.21875 35.40625 
Q 43.21875 41.609375 39.140625 45 
Q 35.0625 48.390625 27.6875 48.390625 
Q 23 48.390625 18.546875 47.265625 
Q 14.109375 46.140625 10.015625 43.890625 
L 10.015625 52.203125 
Q 14.9375 54.109375 19.578125 55.046875 
Q 24.21875 56 28.609375 56 
Q 40.484375 56 46.34375 49.84375 
Q 52.203125 43.703125 52.203125 31.203125 
z
" id="DejaVuSans-97"/>
      <path d="M 60.015625 54.6875 
L 34.90625 27.875 
L 50.296875 0 
L 39.984375 0 
L 28.421875 21.6875 
L 8.296875 0 
L -2.59375 0 
L 24.3125 28.8125 
L 10.015625 54.6875 
L 20.3125 54.6875 
L 30.8125 34.90625 
L 49.125 54.6875 
z
" id="DejaVuSans-Oblique-120"/>
     </defs>
     <g transform="translate(122.4 54.478125)scale(0.12 -0.12)">
      <use transform="translate(0 0.78125)" xlink:href="#DejaVuSans-115"/>
      <use transform="translate(52.099609 0.78125)" xlink:href="#DejaVuSans-116"/>
      <use transform="translate(91.308594 0.78125)" xlink:href="#DejaVuSans-97"/>
      <use transform="translate(152.587891 0.78125)" xlink:href="#DejaVuSans-116"/>
      <use transform="translate(191.796875 0.78125)" xlink:href="#DejaVuSans-101"/>
      <use transform="translate(253.320312 0.78125)" xlink:href="#DejaVuSans-32"/>
      <use transform="translate(285.107422 0.78125)" xlink:href="#DejaVuSans-Oblique-120"/>
      <use transform="translate(344.287109 -15.625)scale(0.7)" xlink:href="#DejaVuSans-49"/>
     </g>
    </g>
    <g id="line2d_60">
     <path d="M 64.8 67.891875 
L 112.8 67.891875 
" style="fill:none;stroke:#ff7f0e;stroke-dasharray:2500,2.5;stroke-dashoffset:0;stroke-width:2.5;"/>
    </g>
    <g id="line2d_61"/>
    <g id="text_16">
     <!-- state $x_2$ -->
     <g transform="translate(122.4 72.091875)scale(0.12 -0.12)">
      <use transform="translate(0 0.78125)" xlink:href="#DejaVuSans-115"/>
      <use transform="translate(52.099609 0.78125)" xlink:href="#DejaVuSans-116"/>
      <use transform="translate(91.308594 0.78125)" xlink:href="#DejaVuSans-97"/>
      <use transform="translate(152.587891 0.78125)" xlink:href="#DejaVuSans-116"/>
      <use transform="translate(191.796875 0.78125)" xlink:href="#DejaVuSans-101"/>
      <use transform="translate(253.320312 0.78125)" xlink:href="#DejaVuSans-32"/>
      <use transform="translate(285.107422 0.78125)" xlink:href="#DejaVuSans-Oblique-120"/>
      <use transform="translate(344.287109 -15.625)scale(0.7)" xlink:href="#DejaVuSans-50"/>
     </g>
    </g>
   </g>
  </g>
 </g>
 <defs>
  <clipPath id="p33c78abc27">
   <rect height="217.44" width="334.8" x="54" y="34.56"/>
  </clipPath>
 </defs>
</svg>
