<?xml version="1.0" encoding="utf-8" standalone="no"?>
<!DOCTYPE svg PUBLIC "-//W3C//DTD SVG 1.1//EN"
  "http://www.w3.org/Graphics/SVG/1.1/DTD/svg11.dtd">
<!-- Created with matplotlib (https://matplotlib.org/) -->
<svg height="288pt" version="1.1" viewBox="0 0 432 288" width="432pt" xmlns="http://www.w3.org/2000/svg" xmlns:xlink="http://www.w3.org/1999/xlink">
 <defs>
  <style type="text/css">
*{stroke-linecap:butt;stroke-linejoin:round;}
  </style>
 </defs>
 <g id="figure_1">
  <g id="patch_1">
   <path d="M 0 288 
L 432 288 
L 432 0 
L 0 0 
z
" style="fill:#ffffff;"/>
  </g>
  <g id="axes_1">
   <g id="patch_2">
    <path d="M 54 252 
L 388.8 252 
L 388.8 34.56 
L 54 34.56 
z
" style="fill:#ffffff;"/>
   </g>
   <g id="matplotlib.axis_1">
    <g id="xtick_1">
     <g id="line2d_1">
      <defs>
       <path d="M 0 0 
L 0 3.5 
" id="m0916c73709" style="stroke:#000000;stroke-width:0.8;"/>
      </defs>
      <g>
       <use style="stroke:#000000;stroke-width:0.8;" x="94.793088" xlink:href="#m0916c73709" y="252"/>
      </g>
     </g>
     <g id="text_1">
      <!-- $\mathdefault{10^{-6}}$ -->
      <defs>
       <path d="M 12.40625 8.296875 
L 28.515625 8.296875 
L 28.515625 63.921875 
L 10.984375 60.40625 
L 10.984375 69.390625 
L 28.421875 72.90625 
L 38.28125 72.90625 
L 38.28125 8.296875 
L 54.390625 8.296875 
L 54.390625 0 
L 12.40625 0 
z
" id="DejaVuSans-49"/>
       <path d="M 31.78125 66.40625 
Q 24.171875 66.40625 20.328125 58.90625 
Q 16.5 51.421875 16.5 36.375 
Q 16.5 21.390625 20.328125 13.890625 
Q 24.171875 6.390625 31.78125 6.390625 
Q 39.453125 6.390625 43.28125 13.890625 
Q 47.125 21.390625 47.125 36.375 
Q 47.125 51.421875 43.28125 58.90625 
Q 39.453125 66.40625 31.78125 66.40625 
z
M 31.78125 74.21875 
Q 44.046875 74.21875 50.515625 64.515625 
Q 56.984375 54.828125 56.984375 36.375 
Q 56.984375 17.96875 50.515625 8.265625 
Q 44.046875 -1.421875 31.78125 -1.421875 
Q 19.53125 -1.421875 13.0625 8.265625 
Q 6.59375 17.96875 6.59375 36.375 
Q 6.59375 54.828125 13.0625 64.515625 
Q 19.53125 74.21875 31.78125 74.21875 
z
" id="DejaVuSans-48"/>
       <path d="M 10.59375 35.5 
L 73.1875 35.5 
L 73.1875 27.203125 
L 10.59375 27.203125 
z
" id="DejaVuSans-8722"/>
       <path d="M 33.015625 40.375 
Q 26.375 40.375 22.484375 35.828125 
Q 18.609375 31.296875 18.609375 23.390625 
Q 18.609375 15.53125 22.484375 10.953125 
Q 26.375 6.390625 33.015625 6.390625 
Q 39.65625 6.390625 43.53125 10.953125 
Q 47.40625 15.53125 47.40625 23.390625 
Q 47.40625 31.296875 43.53125 35.828125 
Q 39.65625 40.375 33.015625 40.375 
z
M 52.59375 71.296875 
L 52.59375 62.3125 
Q 48.875 64.0625 45.09375 64.984375 
Q 41.3125 65.921875 37.59375 65.921875 
Q 27.828125 65.921875 22.671875 59.328125 
Q 17.53125 52.734375 16.796875 39.40625 
Q 19.671875 43.65625 24.015625 45.921875 
Q 28.375 48.1875 33.59375 48.1875 
Q 44.578125 48.1875 50.953125 41.515625 
Q 57.328125 34.859375 57.328125 23.390625 
Q 57.328125 12.15625 50.6875 5.359375 
Q 44.046875 -1.421875 33.015625 -1.421875 
Q 20.359375 -1.421875 13.671875 8.265625 
Q 6.984375 17.96875 6.984375 36.375 
Q 6.984375 53.65625 15.1875 63.9375 
Q 23.390625 74.21875 37.203125 74.21875 
Q 40.921875 74.21875 44.703125 73.484375 
Q 48.484375 72.75 52.59375 71.296875 
z
" id="DejaVuSans-54"/>
      </defs>
      <g transform="translate(80.693088 268.118125)scale(0.12 -0.12)">
       <use transform="translate(0 0.765625)" xlink:href="#DejaVuSans-49"/>
       <use transform="translate(63.623047 0.765625)" xlink:href="#DejaVuSans-48"/>
       <use transform="translate(128.203125 39.046875)scale(0.7)" xlink:href="#DejaVuSans-8722"/>
       <use transform="translate(186.855469 39.046875)scale(0.7)" xlink:href="#DejaVuSans-54"/>
      </g>
     </g>
    </g>
    <g id="xtick_2">
     <g id="line2d_2">
      <g>
       <use style="stroke:#000000;stroke-width:0.8;" x="139.019848" xlink:href="#m0916c73709" y="252"/>
      </g>
     </g>
     <g id="text_2">
      <!-- $\mathdefault{10^{-4}}$ -->
      <defs>
       <path d="M 37.796875 64.3125 
L 12.890625 25.390625 
L 37.796875 25.390625 
z
M 35.203125 72.90625 
L 47.609375 72.90625 
L 47.609375 25.390625 
L 58.015625 25.390625 
L 58.015625 17.1875 
L 47.609375 17.1875 
L 47.609375 0 
L 37.796875 0 
L 37.796875 17.1875 
L 4.890625 17.1875 
L 4.890625 26.703125 
z
" id="DejaVuSans-52"/>
      </defs>
      <g transform="translate(124.919848 268.118125)scale(0.12 -0.12)">
       <use transform="translate(0 0.684375)" xlink:href="#DejaVuSans-49"/>
       <use transform="translate(63.623047 0.684375)" xlink:href="#DejaVuSans-48"/>
       <use transform="translate(128.203125 38.965625)scale(0.7)" xlink:href="#DejaVuSans-8722"/>
       <use transform="translate(186.855469 38.965625)scale(0.7)" xlink:href="#DejaVuSans-52"/>
      </g>
     </g>
    </g>
    <g id="xtick_3">
     <g id="line2d_3">
      <g>
       <use style="stroke:#000000;stroke-width:0.8;" x="183.246609" xlink:href="#m0916c73709" y="252"/>
      </g>
     </g>
     <g id="text_3">
      <!-- $\mathdefault{10^{-2}}$ -->
      <defs>
       <path d="M 19.1875 8.296875 
L 53.609375 8.296875 
L 53.609375 0 
L 7.328125 0 
L 7.328125 8.296875 
Q 12.9375 14.109375 22.625 23.890625 
Q 32.328125 33.6875 34.8125 36.53125 
Q 39.546875 41.84375 41.421875 45.53125 
Q 43.3125 49.21875 43.3125 52.78125 
Q 43.3125 58.59375 39.234375 62.25 
Q 35.15625 65.921875 28.609375 65.921875 
Q 23.96875 65.921875 18.8125 64.3125 
Q 13.671875 62.703125 7.8125 59.421875 
L 7.8125 69.390625 
Q 13.765625 71.78125 18.9375 73 
Q 24.125 74.21875 28.421875 74.21875 
Q 39.75 74.21875 46.484375 68.546875 
Q 53.21875 62.890625 53.21875 53.421875 
Q 53.21875 48.921875 51.53125 44.890625 
Q 49.859375 40.875 45.40625 35.40625 
Q 44.1875 33.984375 37.640625 27.21875 
Q 31.109375 20.453125 19.1875 8.296875 
z
" id="DejaVuSans-50"/>
      </defs>
      <g transform="translate(169.146609 268.118125)scale(0.12 -0.12)">
       <use transform="translate(0 0.765625)" xlink:href="#DejaVuSans-49"/>
       <use transform="translate(63.623047 0.765625)" xlink:href="#DejaVuSans-48"/>
       <use transform="translate(128.203125 39.046875)scale(0.7)" xlink:href="#DejaVuSans-8722"/>
       <use transform="translate(186.855469 39.046875)scale(0.7)" xlink:href="#DejaVuSans-50"/>
      </g>
     </g>
    </g>
    <g id="xtick_4">
     <g id="line2d_4">
      <g>
       <use style="stroke:#000000;stroke-width:0.8;" x="227.47337" xlink:href="#m0916c73709" y="252"/>
      </g>
     </g>
     <g id="text_4">
      <!-- $\mathdefault{10^{0}}$ -->
      <g transform="translate(216.91337 268.118125)scale(0.12 -0.12)">
       <use transform="translate(0 0.765625)" xlink:href="#DejaVuSans-49"/>
       <use transform="translate(63.623047 0.765625)" xlink:href="#DejaVuSans-48"/>
       <use transform="translate(128.203125 39.046875)scale(0.7)" xlink:href="#DejaVuSans-48"/>
      </g>
     </g>
    </g>
    <g id="xtick_5">
     <g id="line2d_5">
      <g>
       <use style="stroke:#000000;stroke-width:0.8;" x="271.700131" xlink:href="#m0916c73709" y="252"/>
      </g>
     </g>
     <g id="text_5">
      <!-- $\mathdefault{10^{2}}$ -->
      <g transform="translate(261.140131 268.118125)scale(0.12 -0.12)">
       <use transform="translate(0 0.765625)" xlink:href="#DejaVuSans-49"/>
       <use transform="translate(63.623047 0.765625)" xlink:href="#DejaVuSans-48"/>
       <use transform="translate(128.203125 39.046875)scale(0.7)" xlink:href="#DejaVuSans-50"/>
      </g>
     </g>
    </g>
    <g id="xtick_6">
     <g id="line2d_6">
      <g>
       <use style="stroke:#000000;stroke-width:0.8;" x="315.926891" xlink:href="#m0916c73709" y="252"/>
      </g>
     </g>
     <g id="text_6">
      <!-- $\mathdefault{10^{4}}$ -->
      <g transform="translate(305.366891 268.118125)scale(0.12 -0.12)">
       <use transform="translate(0 0.684375)" xlink:href="#DejaVuSans-49"/>
       <use transform="translate(63.623047 0.684375)" xlink:href="#DejaVuSans-48"/>
       <use transform="translate(128.203125 38.965625)scale(0.7)" xlink:href="#DejaVuSans-52"/>
      </g>
     </g>
    </g>
    <g id="xtick_7">
     <g id="line2d_7">
      <g>
       <use style="stroke:#000000;stroke-width:0.8;" x="360.153652" xlink:href="#m0916c73709" y="252"/>
      </g>
     </g>
     <g id="text_7">
      <!-- $\mathdefault{10^{6}}$ -->
      <g transform="translate(349.593652 268.118125)scale(0.12 -0.12)">
       <use transform="translate(0 0.765625)" xlink:href="#DejaVuSans-49"/>
       <use transform="translate(63.623047 0.765625)" xlink:href="#DejaVuSans-48"/>
       <use transform="translate(128.203125 39.046875)scale(0.7)" xlink:href="#DejaVuSans-54"/>
      </g>
     </g>
    </g>
    <g id="text_8">
     <!-- $\lambda$ -->
     <defs>
      <path d="M 36.71875 67.4375 
L 48.828125 0 
L 39.3125 0 
L 31.84375 40.4375 
L 5.125 0 
L -4.390625 0 
L 29.734375 52.4375 
L 28.03125 62.109375 
Q 26.953125 68.265625 21.734375 68.265625 
L 17.046875 68.265625 
L 18.5 75.984375 
L 24.21875 75.875 
Q 35.203125 75.734375 36.71875 67.4375 
z
" id="DejaVuSans-Oblique-955"/>
     </defs>
     <g transform="translate(217.8 283.731875)scale(0.12 -0.12)">
      <use transform="translate(0 0.015625)" xlink:href="#DejaVuSans-Oblique-955"/>
     </g>
    </g>
   </g>
   <g id="matplotlib.axis_2">
    <g id="ytick_1">
     <g id="line2d_8">
      <defs>
       <path d="M 0 0 
L -3.5 0 
" id="m9b40e97b52" style="stroke:#000000;stroke-width:0.8;"/>
      </defs>
      <g>
       <use style="stroke:#000000;stroke-width:0.8;" x="54" xlink:href="#m9b40e97b52" y="210.537648"/>
      </g>
     </g>
     <g id="text_9">
      <!-- $\mathdefault{10^{-6}}$ -->
      <g transform="translate(18.8 215.09671)scale(0.12 -0.12)">
       <use transform="translate(0 0.765625)" xlink:href="#DejaVuSans-49"/>
       <use transform="translate(63.623047 0.765625)" xlink:href="#DejaVuSans-48"/>
       <use transform="translate(128.203125 39.046875)scale(0.7)" xlink:href="#DejaVuSans-8722"/>
       <use transform="translate(186.855469 39.046875)scale(0.7)" xlink:href="#DejaVuSans-54"/>
      </g>
     </g>
    </g>
    <g id="ytick_2">
     <g id="line2d_9">
      <g>
       <use style="stroke:#000000;stroke-width:0.8;" x="54" xlink:href="#m9b40e97b52" y="168.304706"/>
      </g>
     </g>
     <g id="text_10">
      <!-- $\mathdefault{10^{-4}}$ -->
      <g transform="translate(18.8 172.863769)scale(0.12 -0.12)">
       <use transform="translate(0 0.684375)" xlink:href="#DejaVuSans-49"/>
       <use transform="translate(63.623047 0.684375)" xlink:href="#DejaVuSans-48"/>
       <use transform="translate(128.203125 38.965625)scale(0.7)" xlink:href="#DejaVuSans-8722"/>
       <use transform="translate(186.855469 38.965625)scale(0.7)" xlink:href="#DejaVuSans-52"/>
      </g>
     </g>
    </g>
    <g id="ytick_3">
     <g id="line2d_10">
      <g>
       <use style="stroke:#000000;stroke-width:0.8;" x="54" xlink:href="#m9b40e97b52" y="126.071765"/>
      </g>
     </g>
     <g id="text_11">
      <!-- $\mathdefault{10^{-2}}$ -->
      <g transform="translate(18.8 130.630828)scale(0.12 -0.12)">
       <use transform="translate(0 0.765625)" xlink:href="#DejaVuSans-49"/>
       <use transform="translate(63.623047 0.765625)" xlink:href="#DejaVuSans-48"/>
       <use transform="translate(128.203125 39.046875)scale(0.7)" xlink:href="#DejaVuSans-8722"/>
       <use transform="translate(186.855469 39.046875)scale(0.7)" xlink:href="#DejaVuSans-50"/>
      </g>
     </g>
    </g>
    <g id="ytick_4">
     <g id="line2d_11">
      <g>
       <use style="stroke:#000000;stroke-width:0.8;" x="54" xlink:href="#m9b40e97b52" y="83.838824"/>
      </g>
     </g>
     <g id="text_12">
      <!-- $\mathdefault{10^{0}}$ -->
      <g transform="translate(25.88 88.397887)scale(0.12 -0.12)">
       <use transform="translate(0 0.765625)" xlink:href="#DejaVuSans-49"/>
       <use transform="translate(63.623047 0.765625)" xlink:href="#DejaVuSans-48"/>
       <use transform="translate(128.203125 39.046875)scale(0.7)" xlink:href="#DejaVuSans-48"/>
      </g>
     </g>
    </g>
    <g id="ytick_5">
     <g id="line2d_12">
      <g>
       <use style="stroke:#000000;stroke-width:0.8;" x="54" xlink:href="#m9b40e97b52" y="41.605883"/>
      </g>
     </g>
     <g id="text_13">
      <!-- $\mathdefault{10^{2}}$ -->
      <g transform="translate(25.88 46.164946)scale(0.12 -0.12)">
       <use transform="translate(0 0.765625)" xlink:href="#DejaVuSans-49"/>
       <use transform="translate(63.623047 0.765625)" xlink:href="#DejaVuSans-48"/>
       <use transform="translate(128.203125 39.046875)scale(0.7)" xlink:href="#DejaVuSans-50"/>
      </g>
     </g>
    </g>
    <g id="text_14">
     <!-- GCV($\lambda$) -->
     <defs>
      <path d="M 59.515625 10.40625 
L 59.515625 29.984375 
L 43.40625 29.984375 
L 43.40625 38.09375 
L 69.28125 38.09375 
L 69.28125 6.78125 
Q 63.578125 2.734375 56.6875 0.65625 
Q 49.8125 -1.421875 42 -1.421875 
Q 24.90625 -1.421875 15.25 8.5625 
Q 5.609375 18.5625 5.609375 36.375 
Q 5.609375 54.25 15.25 64.234375 
Q 24.90625 74.21875 42 74.21875 
Q 49.125 74.21875 55.546875 72.453125 
Q 61.96875 70.703125 67.390625 67.28125 
L 67.390625 56.78125 
Q 61.921875 61.421875 55.765625 63.765625 
Q 49.609375 66.109375 42.828125 66.109375 
Q 29.4375 66.109375 22.71875 58.640625 
Q 16.015625 51.171875 16.015625 36.375 
Q 16.015625 21.625 22.71875 14.15625 
Q 29.4375 6.6875 42.828125 6.6875 
Q 48.046875 6.6875 52.140625 7.59375 
Q 56.25 8.5 59.515625 10.40625 
z
" id="DejaVuSans-71"/>
      <path d="M 64.40625 67.28125 
L 64.40625 56.890625 
Q 59.421875 61.53125 53.78125 63.8125 
Q 48.140625 66.109375 41.796875 66.109375 
Q 29.296875 66.109375 22.65625 58.46875 
Q 16.015625 50.828125 16.015625 36.375 
Q 16.015625 21.96875 22.65625 14.328125 
Q 29.296875 6.6875 41.796875 6.6875 
Q 48.140625 6.6875 53.78125 8.984375 
Q 59.421875 11.28125 64.40625 15.921875 
L 64.40625 5.609375 
Q 59.234375 2.09375 53.4375 0.328125 
Q 47.65625 -1.421875 41.21875 -1.421875 
Q 24.65625 -1.421875 15.125 8.703125 
Q 5.609375 18.84375 5.609375 36.375 
Q 5.609375 53.953125 15.125 64.078125 
Q 24.65625 74.21875 41.21875 74.21875 
Q 47.75 74.21875 53.53125 72.484375 
Q 59.328125 70.75 64.40625 67.28125 
z
" id="DejaVuSans-67"/>
      <path d="M 28.609375 0 
L 0.78125 72.90625 
L 11.078125 72.90625 
L 34.1875 11.53125 
L 57.328125 72.90625 
L 67.578125 72.90625 
L 39.796875 0 
z
" id="DejaVuSans-86"/>
      <path d="M 31 75.875 
Q 24.46875 64.65625 21.28125 53.65625 
Q 18.109375 42.671875 18.109375 31.390625 
Q 18.109375 20.125 21.3125 9.0625 
Q 24.515625 -2 31 -13.1875 
L 23.1875 -13.1875 
Q 15.875 -1.703125 12.234375 9.375 
Q 8.59375 20.453125 8.59375 31.390625 
Q 8.59375 42.28125 12.203125 53.3125 
Q 15.828125 64.359375 23.1875 75.875 
z
" id="DejaVuSans-40"/>
      <path d="M 8.015625 75.875 
L 15.828125 75.875 
Q 23.140625 64.359375 26.78125 53.3125 
Q 30.421875 42.28125 30.421875 31.390625 
Q 30.421875 20.453125 26.78125 9.375 
Q 23.140625 -1.703125 15.828125 -13.1875 
L 8.015625 -13.1875 
Q 14.5 -2 17.703125 9.0625 
Q 20.90625 20.125 20.90625 31.390625 
Q 20.90625 42.671875 17.703125 53.65625 
Q 14.5 64.65625 8.015625 75.875 
z
" id="DejaVuSans-41"/>
     </defs>
     <g transform="translate(12.304375 164.46)rotate(-90)scale(0.12 -0.12)">
      <use transform="translate(0 0.015625)" xlink:href="#DejaVuSans-71"/>
      <use transform="translate(77.490234 0.015625)" xlink:href="#DejaVuSans-67"/>
      <use transform="translate(147.314453 0.015625)" xlink:href="#DejaVuSans-86"/>
      <use transform="translate(215.722656 0.015625)" xlink:href="#DejaVuSans-40"/>
      <use transform="translate(254.736328 0.015625)" xlink:href="#DejaVuSans-Oblique-955"/>
      <use transform="translate(313.916016 0.015625)" xlink:href="#DejaVuSans-41"/>
     </g>
    </g>
   </g>
   <g id="line2d_13">
    <path clip-path="url(#p5bab30e86e)" d="M 362.422331 57.413329 
L 360.98756 57.547308 
L 359.311611 57.920508 
L 359.288863 57.850221 
L 357.517185 58.180453 
L 357.480166 58.115747 
L 356.107208 58.36163 
L 352.450271 60.629032 
L 352.380552 60.598216 
L 350.643723 61.477292 
L 350.486726 61.400218 
L 349.638567 61.882309 
L 349.520992 61.870331 
L 347.530905 62.570576 
L 347.37375 62.563718 
L 346.27596 62.83583 
L 346.252514 62.773098 
L 345.196833 63.118738 
L 342.92272 63.581004 
L 342.745848 63.496661 
L 342.540595 63.612624 
L 341.372434 63.781819 
L 337.724622 64.248663 
L 337.130554 64.269507 
L 335.377629 64.371072 
L 335.342502 64.308333 
L 333.752404 64.622045 
L 333.742579 64.546846 
L 333.526215 64.732978 
L 332.462294 64.956401 
L 332.440494 64.893555 
L 332.262099 65.054155 
L 331.060643 65.659857 
L 327.587399 70.57145 
L 323.599204 75.402181 
L 322.53906 76.495471 
L 320.963026 77.759102 
L 317.469355 80.261618 
L 313.894058 81.578443 
L 313.381172 81.813587 
L 313.332837 81.847952 
L 313.314175 81.776193 
L 313.148871 81.941623 
L 313.111394 81.885963 
L 312.635993 82.172432 
L 312.449085 82.23164 
L 312.243259 82.367767 
L 312.20077 82.291762 
L 312.180919 82.221248 
L 312.176988 82.312225 
L 311.878972 82.659521 
L 311.564213 82.536283 
L 311.25467 82.753637 
L 311.176691 82.889216 
L 309.338612 83.894309 
L 308.903497 84.133036 
L 308.832293 84.091946 
L 308.208202 84.361249 
L 307.876681 84.350304 
L 307.382113 84.681326 
L 307.067731 84.709777 
L 306.965602 84.894268 
L 306.073 85.341965 
L 304.829975 85.639909 
L 303.948954 86.488133 
L 302.977652 87.301302 
L 302.854383 87.28605 
L 301.513054 88.694932 
L 300.789933 89.33774 
L 300.09664 90.047712 
L 298.838672 91.333517 
L 297.674364 92.050452 
L 296.971501 92.833248 
L 295.819892 93.68411 
L 295.790737 93.607794 
L 295.552284 93.757843 
L 295.542 93.681814 
L 295.00923 94.305962 
L 294.217959 95.177389 
L 292.865996 96.666416 
L 289.972196 99.613538 
L 288.885619 101.011849 
L 288.529412 101.31438 
L 286.854811 102.525378 
L 286.786022 102.502646 
L 285.863869 103.261929 
L 284.579728 104.251506 
L 283.274548 104.883527 
L 280.027616 107.137569 
L 279.11188 107.728756 
L 277.283855 109.551296 
L 276.100736 111.119378 
L 274.717786 112.990394 
L 273.583652 114.154034 
L 273.301344 114.613671 
L 271.594597 116.859583 
L 270.950949 117.763826 
L 270.702515 118.002185 
L 268.207385 121.061842 
L 268.020163 121.287473 
L 267.130898 122.444334 
L 267.023303 122.710431 
L 264.141656 127.249668 
L 263.459711 128.109306 
L 262.492189 129.295641 
L 262.39621 129.301644 
L 262.176336 129.53402 
L 260.324845 132.429999 
L 251.424366 145.628402 
L 244.008004 154.219102 
L 243.516754 154.509981 
L 242.855778 155.176868 
L 241.16708 156.634205 
L 241.138195 156.562057 
L 241.036745 156.549511 
L 240.304465 157.310134 
L 240.277068 157.422552 
L 240.042154 157.383446 
L 239.852195 157.635582 
L 238.258935 158.838468 
L 237.609689 159.409034 
L 236.215487 161.092465 
L 236.032812 161.311056 
L 235.39812 162.125846 
L 234.717961 162.802899 
L 234.630044 162.988991 
L 234.569622 162.951422 
L 234.240237 163.440452 
L 234.234007 163.543163 
L 234.225753 163.355671 
L 234.02879 163.377852 
L 233.632507 163.834994 
L 231.647002 165.696195 
L 230.910856 166.447653 
L 230.890216 166.370355 
L 230.570982 166.910948 
L 230.022615 167.371411 
L 229.628605 167.867678 
L 228.949718 168.272251 
L 228.899178 168.225542 
L 228.240856 168.896242 
L 228.165719 168.870156 
L 228.009326 169.124709 
L 227.736855 169.295277 
L 226.458766 170.588981 
L 226.37784 170.45454 
L 226.135621 170.868214 
L 224.873837 171.785239 
L 224.85529 171.900476 
L 224.496449 172.242877 
L 223.335358 172.773237 
L 222.944292 172.907217 
L 222.722131 173.135991 
L 222.669532 173.065681 
L 222.501177 173.063391 
L 222.347818 173.354333 
L 221.750603 173.753701 
L 221.634991 173.610181 
L 219.662191 174.50093 
L 219.573622 174.632956 
L 219.46508 174.567771 
L 219.436087 174.679712 
L 219.174614 174.864686 
L 218.442431 174.892616 
L 218.34291 175.073437 
L 218.016486 175.268451 
L 217.738423 175.513046 
L 217.633787 175.542442 
L 217.625924 175.447725 
L 217.599799 175.377481 
L 217.408997 175.697964 
L 217.147138 175.777094 
L 217.049166 175.573935 
L 215.936255 176.586166 
L 213.489438 179.976059 
L 212.925679 180.530053 
L 212.897825 180.446325 
L 212.326116 180.813406 
L 212.266629 180.965854 
L 211.265439 181.871482 
L 211.259141 181.769578 
L 210.947519 182.073916 
L 210.867226 182.04264 
L 210.399917 182.615489 
L 210.148978 182.774234 
L 209.938668 183.102222 
L 209.880336 183.055449 
L 209.494555 183.260436 
L 209.066938 183.838403 
L 208.876589 183.932323 
L 208.63387 184.190772 
L 207.887189 185.208452 
L 207.528711 185.282276 
L 207.162178 185.263491 
L 206.952711 185.462357 
L 206.153877 186.180138 
L 205.788184 186.062327 
L 205.786296 185.949122 
L 205.340295 186.43643 
L 204.704905 186.807503 
L 204.398258 187.119859 
L 203.811335 187.078796 
L 203.591352 187.305301 
L 203.56885 187.205044 
L 202.596774 187.862547 
L 201.96765 188.50669 
L 201.072609 188.891551 
L 200.315642 189.772742 
L 200.17659 189.63346 
L 199.614705 190.107852 
L 199.548878 190.030456 
L 199.358687 190.259752 
L 199.303277 190.175424 
L 199.295541 190.062244 
L 198.715678 190.290717 
L 198.544831 190.505537 
L 198.418781 190.339912 
L 197.34177 190.632784 
L 197.237326 190.815347 
L 197.058553 190.795885 
L 196.701156 190.870466 
L 196.698254 190.994709 
L 196.62957 190.909074 
L 196.324562 190.947052 
L 196.182541 191.263644 
L 195.530598 191.442872 
L 195.178178 191.714071 
L 194.273448 191.704816 
L 193.525181 192.088766 
L 192.426595 192.05422 
L 192.361898 192.002783 
L 192.164407 192.232407 
L 191.071848 193.650075 
L 190.217688 193.88394 
L 190.083346 194.171207 
L 189.869059 194.287974 
L 189.759698 194.544116 
L 188.968062 195.0156 
L 188.610584 195.916973 
L 188.14166 196.371659 
L 187.942419 196.432801 
L 187.667991 196.80877 
L 187.417323 196.895439 
L 186.805748 197.269917 
L 186.381372 197.861833 
L 186.201809 197.864237 
L 185.703306 197.986093 
L 185.416976 197.976665 
L 184.574711 198.535647 
L 183.434793 200.126373 
L 183.400383 200.021351 
L 183.121003 199.990355 
L 182.128018 200.689883 
L 181.455039 201.464987 
L 181.33553 201.672926 
L 181.106255 201.537659 
L 180.215834 202.163064 
L 179.339495 202.317919 
L 179.045971 202.312373 
L 179.026352 202.459335 
L 178.654069 202.47883 
L 178.551315 202.931857 
L 178.515495 202.810194 
L 178.257343 202.646875 
L 177.735408 202.605346 
L 177.389228 202.943509 
L 177.286117 202.860832 
L 176.808629 203.247182 
L 176.413173 203.297732 
L 175.836581 203.687548 
L 175.798917 203.563203 
L 175.577649 203.516805 
L 175.491584 203.693441 
L 174.913462 204.056201 
L 174.757349 203.974593 
L 174.537253 204.195127 
L 174.093393 204.244409 
L 173.830226 204.488787 
L 173.440893 204.4966 
L 173.403119 204.227151 
L 173.23205 204.154372 
L 172.577499 204.277659 
L 171.913504 204.651131 
L 171.181337 204.730614 
L 171.060075 204.625095 
L 170.72025 205.017432 
L 170.088469 204.946723 
L 169.49384 205.284782 
L 169.325715 205.189593 
L 168.938368 205.157299 
L 168.787652 205.346339 
L 166.692689 206.220903 
L 166.550567 206.100582 
L 165.524995 206.161026 
L 165.44358 206.31805 
L 165.170179 206.500214 
L 164.893049 206.394609 
L 164.800465 206.550722 
L 164.567915 206.294391 
L 162.489113 206.266114 
L 162.300813 206.431939 
L 161.843927 206.182815 
L 161.764219 205.737957 
L 160.729209 206.025808 
L 160.566792 205.895112 
L 160.498665 206.05615 
L 160.448939 205.91039 
L 160.30928 205.775004 
L 159.555715 205.573878 
L 158.195762 206.050843 
L 158.110995 205.908793 
L 157.789296 205.800911 
L 157.760817 205.961053 
L 157.343554 205.86327 
L 157.269303 205.71618 
L 156.992465 206.066214 
L 155.799846 206.052525 
L 155.29502 206.258634 
L 155.132033 206.1197 
L 155.033568 206.285756 
L 154.975779 206.137974 
L 154.749741 206.021538 
L 154.599687 206.202147 
L 154.5589 206.051178 
L 154.332192 205.93 
L 153.869389 206.312125 
L 153.397781 206.05303 
L 153.344607 205.89943 
L 153.170316 206.07949 
L 153.085561 205.929044 
L 152.989904 206.099686 
L 152.167427 206.337736 
L 151.533268 206.246589 
L 151.444455 206.098552 
L 150.617538 205.883937 
L 150.473968 206.06609 
L 150.137769 205.945824 
L 150.092834 205.786881 
L 149.920261 205.655935 
L 149.394946 205.599506 
L 149.0475 205.997356 
L 148.365913 206.260318 
L 148.291276 206.106227 
L 147.524189 205.739654 
L 146.802452 205.704604 
L 146.643668 205.386558 
L 146.596588 205.568191 
L 146.323286 205.782397 
L 145.150022 205.468516 
L 144.73717 205.711922 
L 144.705344 205.544497 
L 144.492673 205.435517 
L 144.476502 205.617761 
L 144.462867 205.445472 
L 144.109395 205.213521 
L 144.105388 205.032753 
L 144.033735 205.24507 
L 143.973105 205.450196 
L 143.914242 205.293745 
L 143.764638 205.530783 
L 143.377222 205.316734 
L 143.330516 205.151193 
L 142.581613 204.891869 
L 142.395716 204.772561 
L 142.371255 204.588386 
L 142.264425 204.825121 
L 141.593573 204.882331 
L 141.486405 204.527702 
L 141.162717 204.460853 
L 140.943268 204.746367 
L 140.817474 204.205204 
L 140.781859 204.431289 
L 140.756357 204.034536 
L 140.736597 203.837389 
L 140.613985 204.123481 
L 140.412721 203.615939 
L 140.227618 203.942273 
L 140.115825 203.794515 
L 140.070963 204.035322 
L 139.859926 204.365483 
L 139.779857 203.778401 
L 139.716254 203.61097 
L 139.364316 203.67589 
L 139.346971 203.911639 
L 139.306644 203.72101 
L 139.11042 203.189983 
L 139.075997 203.448536 
L 138.962861 203.312669 
L 138.909322 203.8129 
L 138.84381 203.407538 
L 138.594249 204.059557 
L 138.105903 204.858769 
L 137.753924 204.205903 
L 137.514588 204.154108 
L 136.983391 204.769308 
L 136.680255 204.743981 
L 136.279303 205.230982 
L 135.941134 204.976586 
L 135.781882 204.84605 
L 135.742551 205.111576 
L 135.567315 204.750915 
L 135.430358 203.851316 
L 135.260252 203.727789 
L 135.164551 203.277846 
L 134.267289 203.238736 
L 134.216157 202.710307 
L 134.070112 202.548304 
L 133.929947 202.078851 
L 133.792602 202.513599 
L 133.692335 202.903122 
L 133.43803 202.835705 
L 133.313407 203.246975 
L 133.268096 202.689768 
L 133.002391 202.658945 
L 132.950088 202.082264 
L 132.69562 202.030017 
L 132.665122 202.386762 
L 131.886734 202.593017 
L 131.627354 202.544831 
L 131.546376 202.293756 
L 131.102907 202.452606 
L 130.992541 202.223686 
L 130.82136 200.936781 
L 130.697029 200.308555 
L 130.542941 200.107007 
L 130.53162 200.534333 
L 130.326439 200.396243 
L 130.145899 199.78745 
L 130.06398 199.460241 
L 129.856464 199.30497 
L 128.927638 200.157517 
L 128.924975 200.625562 
L 128.871427 199.762651 
L 128.341909 200.050771 
L 128.329131 199.567385 
L 128.210394 200.245475 
L 127.921125 199.658234 
L 127.675401 199.499981 
L 126.979405 200.014475 
L 126.763973 199.210957 
L 126.17111 199.576015 
L 126.035745 199.176223 
L 125.857042 197.47871 
L 125.783231 198.296369 
L 125.394163 198.270745 
L 125.349359 197.628081 
L 124.428574 198.445465 
L 123.530271 200.681796 
L 123.298863 201.77573 
L 123.057469 201.45445 
L 122.940759 200.899506 
L 122.250868 201.312871 
L 121.069159 204.815773 
L 120.917678 204.320723 
L 120.742512 203.021671 
L 120.633644 202.354071 
L 119.561929 203.268134 
L 119.479078 202.465773 
L 118.468396 202.108053 
L 118.431369 201.058021 
L 117.874137 203.088207 
L 117.706358 202.252558 
L 117.281346 201.772898 
L 116.830188 199.904104 
L 115.682677 200.358567 
L 115.661252 198.799469 
L 115.007155 198.174102 
L 114.798985 200.273319 
L 114.365945 199.280508 
L 114.151292 201.399348 
L 114.033467 197.936058 
L 112.575622 202.54393 
L 110.47109 208.082277 
L 109.792981 207.552383 
L 104.650814 212.908578 
L 103.759872 212.129902 
L 101.974689 212.643116 
L 100.917212 211.28189 
L 99.951177 208.99739 
L 99.548069 204.486135 
L 90.875621 213.488956 
L 69.218182 242.116364 
L 69.218182 242.116364 
" style="fill:none;stroke:#1f77b4;stroke-dasharray:7.5,2.5;stroke-dashoffset:0;stroke-width:2.5;"/>
   </g>
   <g id="line2d_14">
    <defs>
     <path d="M -6 6 
L 6 -6 
M -6 -6 
L 6 6 
" id="m7f68e1cf11" style="stroke:#000000;"/>
    </defs>
    <g clip-path="url(#p5bab30e86e)">
     <use style="stroke:#000000;" x="166.550567" xlink:href="#m7f68e1cf11" y="206.100582"/>
    </g>
   </g>
   <g id="line2d_15">
    <defs>
     <path d="M -3 3 
L 3 3 
L 3 -3 
L -3 -3 
z
" id="m1f75144b9b" style="stroke:#0000ff;stroke-linejoin:miter;"/>
    </defs>
    <g clip-path="url(#p5bab30e86e)">
     <use style="fill:#0000ff;stroke:#0000ff;stroke-linejoin:miter;" x="69.218182" xlink:href="#m1f75144b9b" y="242.116364"/>
    </g>
   </g>
   <g id="line2d_16">
    <defs>
     <path d="M 0 3 
C 0.795609 3 1.55874 2.683901 2.12132 2.12132 
C 2.683901 1.55874 3 0.795609 3 0 
C 3 -0.795609 2.683901 -1.55874 2.12132 -2.12132 
C 1.55874 -2.683901 0.795609 -3 0 -3 
C -0.795609 -3 -1.55874 -2.683901 -2.12132 -2.12132 
C -2.683901 -1.55874 -3 -0.795609 -3 0 
C -3 0.795609 -2.683901 1.55874 -2.12132 2.12132 
C -1.55874 2.683901 -0.795609 3 0 3 
z
" id="ma259ba0ea7" style="stroke:#ff0000;"/>
    </defs>
    <g clip-path="url(#p5bab30e86e)">
     <use style="fill:#ff0000;stroke:#ff0000;" x="0" xlink:href="#ma259ba0ea7" y="0"/>
    </g>
   </g>
   <g id="line2d_17">
    <path clip-path="url(#p5bab30e86e)" d="M 369.122199 50.329418 
L 369.048287 50.17895 
L 367.821647 50.55229 
L 367.800609 50.47393 
L 365.566694 50.952907 
L 365.5103 50.881313 
L 363.56718 51.205728 
L 363.480408 51.136865 
L 361.814548 51.373517 
L 361.702117 51.305667 
L 360.298578 51.491256 
L 360.165318 51.423759 
L 359.002446 51.578996 
L 358.853166 51.511687 
L 357.90178 51.648595 
L 357.741071 51.581525 
L 357.415467 51.678979 
L 357.250603 51.61208 
L 356.87386 51.632423 
L 356.797489 51.584856 
L 355.968355 52.020656 
L 355.824544 52.001813 
L 355.15427 52.343592 
L 355.007058 52.323577 
L 354.381859 52.6295 
L 354.231836 52.608945 
L 353.583961 52.905006 
L 353.429621 52.884598 
L 352.712093 53.182647 
L 352.550764 53.162847 
L 351.726548 53.466889 
L 351.590238 53.354706 
L 350.968001 53.603213 
L 350.966177 53.519349 
L 350.608969 53.709466 
L 350.605651 53.627258 
L 350.227455 53.819544 
L 350.222519 53.739106 
L 349.429015 54.007354 
L 349.421711 53.929368 
L 349.250165 53.996455 
L 348.725035 54.175149 
L 348.66787 54.137457 
L 348.500714 54.249001 
L 348.489139 54.175356 
L 347.501186 54.455765 
L 347.485924 54.38548 
L 347.432953 54.478595 
L 347.36576 54.443644 
L 346.35073 54.716394 
L 346.32939 54.651464 
L 345.702225 54.787336 
L 344.416491 55.073329 
L 344.385111 55.015771 
L 344.317328 55.108325 
L 344.223378 55.074827 
L 342.912619 55.348088 
L 342.871199 55.296921 
L 342.048192 55.438202 
L 340.409705 55.715985 
L 340.270282 55.618952 
L 340.223648 55.722049 
L 339.10709 55.86131 
L 339.094578 55.784185 
L 338.156463 55.970184 
L 337.924414 56.262957 
L 337.87689 56.219179 
L 336.490885 57.505289 
L 336.303582 57.686572 
L 335.097717 58.622083 
L 333.718502 59.6009 
L 333.650187 59.585214 
L 332.774497 60.340436 
L 330.685931 62.498315 
L 328.12877 64.790487 
L 326.058504 66.222758 
L 323.961453 67.302666 
L 323.907436 67.422688 
L 322.935634 67.924277 
L 321.626373 68.467362 
L 320.399574 68.707804 
L 320.241 68.85936 
L 318.29686 69.523841 
L 318.272392 69.457689 
L 317.928015 69.677088 
L 317.660028 69.798914 
L 317.621718 69.898014 
L 317.129657 70.065074 
L 317.088384 70.003066 
L 317.016528 70.133873 
L 315.812447 70.468093 
L 315.730497 70.463278 
L 315.63231 70.577539 
L 313.564207 71.340791 
L 313.470268 71.216288 
L 312.961107 71.577816 
L 311.008268 72.091295 
L 310.880867 72.298463 
L 309.926004 72.497935 
L 309.878083 72.42964 
L 309.467479 72.704358 
L 309.415752 72.633111 
L 308.45163 73.064044 
L 308.232697 73.165761 
L 307.515281 73.174145 
L 307.33308 73.320828 
L 307.047363 73.372324 
L 306.863218 73.597127 
L 305.68855 73.727016 
L 305.585872 73.829437 
L 305.516969 73.753542 
L 305.398751 73.715034 
L 305.135438 73.870613 
L 304.857554 73.917862 
L 304.035206 74.332475 
L 303.916054 74.270003 
L 303.905639 74.358783 
L 303.662729 74.431369 
L 303.643495 74.355848 
L 303.601826 74.297715 
L 303.49007 74.544962 
L 303.330204 74.540768 
L 303.112823 74.666334 
L 303.07916 74.621663 
L 302.861647 74.992135 
L 301.214592 76.362572 
L 300.598418 77.213104 
L 299.54927 78.084706 
L 299.52614 78.187493 
L 298.188649 79.262428 
L 297.759571 79.845046 
L 296.482529 81.050195 
L 296.013169 81.685979 
L 293.300349 85.514057 
L 292.895785 86.039392 
L 292.756904 86.146629 
L 290.6943 88.887511 
L 290.666071 88.838438 
L 290.458501 89.116891 
L 288.705166 91.252612 
L 287.220765 93.726178 
L 287.117145 93.759604 
L 286.8554 94.125665 
L 285.796044 95.043346 
L 285.18001 96.052495 
L 285.000024 96.500221 
L 283.731585 97.98086 
L 283.721586 97.904184 
L 283.625328 97.968164 
L 283.357141 98.536974 
L 280.444325 101.391013 
L 277.936866 104.883584 
L 276.150614 107.456652 
L 275.479155 107.792281 
L 272.357206 111.840092 
L 272.308082 111.718653 
L 272.22266 111.92091 
L 271.35676 112.906445 
L 271.081429 113.091878 
L 269.75357 114.917561 
L 269.724196 114.859017 
L 269.702779 114.968786 
L 269.331799 115.177795 
L 265.911712 118.652808 
L 265.753156 118.7202 
L 265.381628 119.162948 
L 263.361982 121.129685 
L 263.336005 121.240084 
L 261.865785 122.155744 
L 259.469046 124.037016 
L 259.145332 124.204059 
L 258.688203 124.803115 
L 258.687057 124.710584 
L 258.563248 124.705459 
L 258.1112 124.96119 
L 257.736843 125.209468 
L 256.797422 125.892006 
L 255.231604 126.493827 
L 255.027864 126.725636 
L 254.038703 127.276665 
L 252.812001 127.92044 
L 252.087974 128.044243 
L 250.894503 128.652453 
L 250.840437 128.48249 
L 250.378121 128.829596 
L 249.492729 128.949331 
L 249.390022 128.894529 
L 249.141302 128.896329 
L 248.503168 129.220929 
L 247.699936 130.403317 
L 247.313097 130.955021 
L 247.126246 131.087719 
L 245.339619 134.268466 
L 240.644849 141.964771 
L 240.540451 142.261951 
L 240.209102 142.499471 
L 240.16998 142.441381 
L 240.126971 142.302245 
L 239.882779 142.84585 
L 239.869497 142.766007 
L 239.456504 143.23989 
L 238.53714 144.572579 
L 238.442598 144.605185 
L 238.299776 144.795247 
L 238.261717 144.74814 
L 237.354942 146.234358 
L 237.30249 146.106088 
L 236.911322 146.422825 
L 235.874595 147.648247 
L 234.586227 149.008962 
L 234.574001 149.122352 
L 233.494991 150.098935 
L 233.075545 150.957194 
L 229.378311 154.870282 
L 228.965923 155.204065 
L 228.7547 155.521509 
L 228.386872 155.786965 
L 227.58286 156.676297 
L 226.081508 157.668315 
L 225.386315 158.327891 
L 225.181707 158.426134 
L 224.726569 158.95721 
L 222.2531 160.745325 
L 221.683758 161.006815 
L 221.000227 161.612686 
L 220.247536 161.915119 
L 219.874796 162.240147 
L 219.862483 162.144737 
L 219.823369 162.276881 
L 219.231316 162.679903 
L 219.009353 163.015342 
L 218.6832 163.028625 
L 218.637083 162.97258 
L 218.116067 163.321567 
L 218.083518 163.146988 
L 217.3932 163.934497 
L 217.283056 164.19323 
L 216.68117 164.695857 
L 216.395764 165.223536 
L 216.337026 165.18359 
L 216.245451 165.18136 
L 215.653934 165.984878 
L 215.615465 165.927669 
L 215.579033 165.757256 
L 214.882722 166.673128 
L 214.870614 166.577904 
L 214.575159 166.954952 
L 214.511433 166.924439 
L 214.383658 167.192409 
L 213.942601 167.321427 
L 213.768494 167.613362 
L 213.718663 167.570036 
L 213.596549 167.627291 
L 213.505056 167.864274 
L 213.444811 167.831647 
L 212.727441 169.300565 
L 212.705973 169.104582 
L 212.537464 169.088076 
L 212.246645 169.445354 
L 212.20343 169.384443 
L 211.13579 170.953673 
L 210.674528 171.273368 
L 210.288917 171.726792 
L 209.841251 171.885847 
L 209.316512 172.531595 
L 209.298256 172.438116 
L 209.200874 172.316894 
L 208.657365 173.042007 
L 208.621063 172.970317 
L 208.421576 173.087191 
L 208.38284 173.01775 
L 208.360221 172.928924 
L 208.130778 173.199558 
L 207.590758 173.918314 
L 207.324311 174.090088 
L 206.302754 175.151197 
L 206.291271 175.27813 
L 206.009583 175.549688 
L 205.941619 175.724869 
L 205.933362 175.617224 
L 205.889547 175.54218 
L 205.880819 175.665972 
L 205.380391 175.88839 
L 204.166507 176.309071 
L 203.685935 176.792865 
L 202.950662 177.312153 
L 202.855708 177.633171 
L 202.786102 177.575639 
L 202.589999 177.506823 
L 202.486603 177.476607 
L 202.431112 177.646465 
L 201.973181 177.790072 
L 201.749963 177.849173 
L 201.187892 178.528419 
L 201.178354 178.412852 
L 201.16291 178.300889 
L 200.912576 178.366124 
L 200.828733 178.55144 
L 200.653302 178.650006 
L 200.340854 179.16055 
L 200.014767 179.430785 
L 199.576089 180.071183 
L 199.521605 180.010389 
L 199.077672 180.275978 
L 199.075957 180.151332 
L 198.848451 180.325289 
L 198.120607 181.835694 
L 198.029584 181.690656 
L 197.281306 182.660849 
L 196.461245 183.25242 
L 196.105899 183.937485 
L 194.701077 185.194598 
L 194.665269 185.363686 
L 193.846731 186.052763 
L 193.827845 185.944302 
L 193.804272 186.099759 
L 193.413456 186.648675 
L 193.397584 186.536744 
L 193.017635 186.565193 
L 192.564046 186.94669 
L 192.458369 187.193809 
L 191.339846 188.103627 
L 190.777409 188.313209 
L 190.362642 188.530861 
L 190.179445 188.326206 
L 189.35988 189.530548 
L 189.310233 189.722516 
L 188.98892 189.920312 
L 188.493409 190.944072 
L 188.0596 191.593443 
L 186.329969 192.794038 
L 186.251173 192.713394 
L 186.228975 192.864015 
L 186.08195 192.863827 
L 185.639175 193.521482 
L 185.612231 193.412315 
L 184.268293 194.493172 
L 184.239101 194.38554 
L 182.324004 195.980834 
L 181.814929 196.561164 
L 180.779943 196.965998 
L 180.590607 196.965115 
L 180.401303 197.390741 
L 178.732905 197.650731 
L 178.122373 198.276846 
L 177.827299 198.346456 
L 177.356421 198.8252 
L 176.425625 199.56523 
L 176.242916 199.529763 
L 175.729925 199.684259 
L 175.353934 200.042453 
L 174.816785 200.037361 
L 174.073989 200.31377 
L 174.025344 200.19751 
L 173.658042 200.624731 
L 173.41542 200.645506 
L 173.023749 201.068173 
L 172.862553 201.023079 
L 172.618956 201.327693 
L 171.966751 201.406588 
L 171.507264 201.812737 
L 171.377042 201.570085 
L 170.930348 201.949788 
L 170.359836 202.158834 
L 170.184287 202.421489 
L 169.996125 202.377725 
L 168.354535 203.636232 
L 167.912045 203.721845 
L 167.76973 203.485677 
L 167.409649 203.51682 
L 167.192382 202.979394 
L 166.858394 202.985914 
L 166.797969 202.849982 
L 165.372504 203.44963 
L 165.088393 203.752913 
L 164.989426 203.630905 
L 164.536325 203.496922 
L 163.797442 203.652104 
L 163.542711 203.230695 
L 163.101916 203.252246 
L 162.954608 203.497109 
L 162.34022 203.388633 
L 162.338015 203.571999 
L 161.257873 204.314079 
L 159.295107 205.020577 
L 159.056382 204.926251 
L 158.990227 205.121365 
L 158.464903 205.415933 
L 158.442476 205.245605 
L 157.935086 205.009476 
L 157.520937 204.582623 
L 157.515347 204.768679 
L 157.207239 204.679255 
L 157.009758 204.908123 
L 156.306443 204.929028 
L 156.176624 204.778321 
L 155.710244 205.254953 
L 155.693037 205.073997 
L 155.221073 205.52822 
L 154.567648 205.814566 
L 154.50698 206.001635 
L 153.287702 205.476557 
L 152.294625 205.322769 
L 152.174898 205.723028 
L 151.997718 205.577446 
L 151.975346 205.39439 
L 151.812141 205.245295 
L 151.511347 205.507409 
L 150.686053 205.308551 
L 150.60359 205.133058 
L 150.18761 205.416335 
L 150.174569 205.225131 
L 149.742774 205.158234 
L 149.648086 204.989785 
L 149.178829 204.938935 
L 148.8928 204.624073 
L 148.887707 204.41855 
L 148.702671 204.290825 
L 148.407519 204.622701 
L 148.162044 204.511085 
L 148.090895 204.328966 
L 147.515582 204.383439 
L 147.439931 204.630335 
L 147.403264 204.433126 
L 147.398269 204.218428 
L 147.228253 204.512664 
L 147.084368 204.359939 
L 147.062139 204.586756 
L 147.007736 204.393468 
L 146.891969 204.227318 
L 146.546437 204.163166 
L 145.858126 204.229372 
L 145.568374 204.567241 
L 145.268405 204.492941 
L 144.615042 205.260444 
L 144.19534 205.264025 
L 143.787807 205.691435 
L 143.72043 205.504302 
L 143.646048 205.763328 
L 143.601344 205.56386 
L 143.280614 205.500601 
L 143.117743 205.135237 
L 142.668601 205.157029 
L 142.467109 205.031327 
L 142.383719 204.841184 
L 141.486286 204.879141 
L 141.371005 205.430471 
L 141.293896 204.98697 
L 141.113187 205.579062 
L 141.094273 205.346799 
L 141.025556 205.143199 
L 140.381065 205.051085 
L 140.133558 205.454985 
L 139.738938 205.442644 
L 139.732216 205.699288 
L 139.602801 205.528957 
L 139.518588 205.834627 
L 138.892425 206.679551 
L 138.588774 206.599831 
L 138.43622 206.436866 
L 138.121775 206.857054 
L 138.067908 206.638161 
L 137.337679 206.3293 
L 137.326997 206.595887 
L 137.259322 206.377968 
L 137.219501 206.139988 
L 136.81001 206.136953 
L 136.616782 205.98813 
L 136.260812 205.953844 
L 135.825586 205.699673 
L 135.439418 206.24191 
L 135.338366 205.46279 
L 135.139648 205.350098 
L 135.013397 205.763476 
L 134.859679 205.62321 
L 134.759834 204.808895 
L 134.688114 204.570182 
L 134.620188 204.963019 
L 134.61723 204.647267 
L 134.489852 204.473358 
L 134.103351 204.60377 
L 133.828242 203.928369 
L 133.763982 204.362375 
L 133.283258 204.649018 
L 133.042053 205.30691 
L 133.029612 204.974011 
L 132.892717 205.502963 
L 132.308489 205.90193 
L 132.055449 205.863318 
L 131.502203 206.20059 
L 131.408826 206.678858 
L 131.111339 206.683023 
L 130.686962 206.469367 
L 130.638913 205.752351 
L 130.113199 206.064246 
L 129.780737 206.093485 
L 129.684532 205.800465 
L 129.22226 205.976478 
L 129.096373 206.568366 
L 129.082406 206.154593 
L 128.775241 206.962349 
L 128.613346 206.726782 
L 128.282083 206.681674 
L 128.079075 206.478324 
L 127.682082 206.496952 
L 127.043233 206.77788 
L 126.910189 205.950321 
L 126.575117 205.871553 
L 126.479653 206.511232 
L 126.131756 206.439718 
L 125.603022 204.305907 
L 125.48543 205.650124 
L 125.456974 205.107519 
L 125.43094 204.542701 
L 124.540465 205.157465 
L 124.253767 204.903222 
L 123.633748 205.069604 
L 123.353731 206.101458 
L 123.154717 205.695994 
L 123.028672 205.181591 
L 122.485662 205.252783 
L 121.612719 204.987155 
L 121.278721 203.841818 
L 121.063773 205.034092 
L 121.034485 204.227532 
L 120.750225 203.783427 
L 120.57702 203.119519 
L 120.121715 202.87264 
L 119.6634 204.602138 
L 119.634435 203.659669 
L 119.465414 202.899071 
L 119.367542 204.112315 
L 119.35049 203.093044 
L 118.494954 203.433374 
L 118.493325 202.252413 
L 118.321053 203.725607 
L 117.493544 203.954982 
L 117.417461 205.266271 
L 117.28098 204.311718 
L 116.63071 204.143511 
L 115.285931 207.600293 
L 114.791772 207.138466 
L 112.986389 208.746928 
L 111.750267 207.730553 
L 111.003941 207.208488 
L 110.799442 205.619414 
L 109.686815 205.390498 
L 107.860697 203.422435 
L 106.632489 202.340935 
L 106.628255 205.692748 
L 106.039426 203.447829 
L 104.849171 201.618153 
L 103.283468 208.651065 
L 100.215471 210.294352 
L 98.320599 208.623873 
L 91.280133 214.590947 
L 83.609086 216.477743 
L 83.609086 216.477743 
" style="fill:none;stroke:#ff7f0e;stroke-dasharray:2500,2.5;stroke-dashoffset:0;stroke-width:2.5;"/>
   </g>
   <g id="line2d_18">
    <g clip-path="url(#p5bab30e86e)">
     <use style="stroke:#000000;" x="151.511347" xlink:href="#m7f68e1cf11" y="205.507409"/>
    </g>
   </g>
   <g id="line2d_19">
    <g clip-path="url(#p5bab30e86e)">
     <use style="fill:#0000ff;stroke:#0000ff;stroke-linejoin:miter;" x="83.609086" xlink:href="#m1f75144b9b" y="216.477743"/>
    </g>
   </g>
   <g id="line2d_20">
    <g clip-path="url(#p5bab30e86e)">
     <use style="fill:#ff0000;stroke:#ff0000;" x="0" xlink:href="#ma259ba0ea7" y="0"/>
    </g>
   </g>
   <g id="line2d_21">
    <path clip-path="url(#p5bab30e86e)" d="M 373.581818 44.443636 
L 372.019694 44.834576 
L 370.06934 45.462158 
L 370.030696 45.399186 
L 368.05323 45.8967 
L 367.991169 45.840299 
L 365.962507 46.238542 
L 365.874097 46.185708 
L 363.767265 46.507858 
L 363.647862 46.45622 
L 361.429464 46.719766 
L 361.271911 46.667438 
L 359.189707 46.991367 
L 359.180531 46.911781 
L 358.987514 47.082671 
L 358.814642 47.085494 
L 356.799885 47.918957 
L 356.561167 47.926232 
L 356.253366 48.029978 
L 354.799462 48.491777 
L 354.782941 48.411399 
L 354.755348 48.359242 
L 354.619083 48.488806 
L 351.941569 49.113179 
L 351.797836 49.071654 
L 351.303747 49.225512 
L 350.951406 49.216535 
L 350.339531 49.315492 
L 349.053715 49.566266 
L 348.775143 49.540301 
L 347.476149 50.760635 
L 344.738015 52.997196 
L 342.144485 54.70606 
L 339.112373 57.720035 
L 335.968861 59.986578 
L 335.017184 60.528631 
L 332.758758 61.726361 
L 332.242329 62.007322 
L 331.841481 62.234164 
L 330.153405 62.612984 
L 330.138376 62.540066 
L 329.273669 63.050286 
L 328.636015 63.379142 
L 327.970376 63.525397 
L 327.886852 63.629472 
L 327.578424 63.624032 
L 325.954205 64.151819 
L 325.94962 64.068574 
L 325.87619 64.171653 
L 325.385403 64.418529 
L 325.372765 64.34277 
L 323.281692 65.305701 
L 323.097543 65.2516 
L 322.626971 65.513084 
L 322.623991 65.426457 
L 322.585496 65.373866 
L 320.650582 65.979016 
L 320.645051 65.896991 
L 320.403446 66.233295 
L 319.277668 66.575199 
L 317.966053 66.935284 
L 317.892407 66.907365 
L 317.425338 67.276705 
L 316.731424 67.419249 
L 316.730238 67.332599 
L 316.647469 67.312966 
L 315.796957 67.61903 
L 315.526254 67.898843 
L 313.615588 69.546165 
L 313.598999 69.475172 
L 312.050966 70.984405 
L 311.569062 71.40729 
L 310.645571 72.364069 
L 310.576384 72.377718 
L 309.804631 73.418641 
L 308.951438 74.009878 
L 308.804419 74.304269 
L 308.688382 74.461658 
L 307.616796 75.155685 
L 306.52771 76.261399 
L 306.425127 76.288156 
L 305.257229 77.406937 
L 305.037352 77.597502 
L 303.789169 78.449491 
L 302.907049 79.32306 
L 301.869607 80.328887 
L 300.50048 81.983948 
L 300.413742 82.006462 
L 299.474796 83.044006 
L 299.314021 83.15575 
L 297.011868 85.605042 
L 294.054277 87.961619 
L 293.161338 88.923875 
L 291.359436 90.253997 
L 290.53533 90.676637 
L 290.222391 90.725658 
L 289.357267 91.407682 
L 288.683442 91.984367 
L 288.017169 92.718523 
L 288.01644 92.629697 
L 287.552958 92.883505 
L 286.447993 93.379879 
L 286.434677 93.29977 
L 285.979239 93.608699 
L 285.829254 93.657035 
L 285.475768 93.87239 
L 285.417832 93.829712 
L 285.365407 93.962007 
L 284.65436 94.443575 
L 284.345361 94.695111 
L 283.210492 95.330118 
L 282.70818 95.426274 
L 282.444166 95.250317 
L 281.740431 95.730285 
L 280.996849 95.856309 
L 280.3406 96.511434 
L 279.870307 96.538789 
L 279.218933 97.081207 
L 278.999244 97.105601 
L 278.795802 97.274953 
L 278.497837 97.322838 
L 277.011172 99.074744 
L 275.304858 101.270021 
L 273.761685 103.849174 
L 272.878485 105.52013 
L 272.817513 105.480779 
L 272.617567 105.499329 
L 271.963976 106.144721 
L 270.143746 108.330808 
L 270.080488 108.232091 
L 267.963369 111.55244 
L 266.260722 114.507344 
L 266.223352 114.385015 
L 266.213089 114.40308 
L 265.932535 115.076535 
L 262.713138 119.986929 
L 262.154413 120.80077 
L 261.953787 121.153323 
L 260.467628 123.013056 
L 259.884591 124.205641 
L 258.62016 125.768743 
L 258.26762 126.341684 
L 258.01615 126.652997 
L 253.317618 133.96522 
L 253.000075 134.396714 
L 250.952879 137.759397 
L 250.905433 137.736323 
L 250.895911 137.847221 
L 250.739788 138.168623 
L 250.08232 138.9121 
L 250.070604 138.831705 
L 247.902264 141.780754 
L 245.546537 144.664443 
L 245.448725 145.068872 
L 244.241847 146.223927 
L 244.206223 146.356524 
L 244.014523 146.478603 
L 240.921274 149.505852 
L 237.595071 152.45355 
L 237.413418 152.396777 
L 237.386703 152.515987 
L 237.275209 152.501632 
L 237.20775 152.650862 
L 237.067107 152.556651 
L 236.780106 152.967336 
L 236.732721 152.80347 
L 236.725842 152.708636 
L 236.330314 152.948326 
L 236.330273 152.847305 
L 236.091006 152.956792 
L 235.770871 153.528829 
L 235.653373 153.522721 
L 235.299908 153.898633 
L 235.026022 154.012051 
L 234.934894 154.181777 
L 234.767373 154.206477 
L 234.564772 154.554636 
L 234.562487 154.456332 
L 234.47467 154.420788 
L 234.402481 154.573669 
L 234.149605 154.552463 
L 234.137658 154.459225 
L 234.072086 154.606574 
L 233.68215 155.070508 
L 233.629439 155.004854 
L 233.513821 154.979571 
L 233.266867 155.421778 
L 232.805836 155.546233 
L 232.759754 155.667272 
L 232.731401 155.581018 
L 232.571516 155.458045 
L 232.253283 155.708156 
L 232.127158 155.664166 
L 232.086362 155.783394 
L 232.036269 155.704525 
L 231.77046 155.952463 
L 231.668172 155.813905 
L 231.656449 155.921348 
L 231.581677 155.856652 
L 231.465515 156.014493 
L 231.431786 155.93641 
L 231.363358 155.884075 
L 231.36275 155.986682 
L 231.26001 156.159692 
L 231.065631 156.226882 
L 230.865019 156.484961 
L 230.715622 156.496424 
L 230.675579 156.627951 
L 230.01025 156.796825 
L 229.995211 156.703778 
L 229.714079 156.859498 
L 228.591567 158.099513 
L 228.432752 158.120297 
L 228.106659 158.367292 
L 227.760291 158.413826 
L 227.745696 158.326515 
L 227.667387 158.522905 
L 227.630816 158.772633 
L 227.459943 158.763822 
L 227.297872 159.15583 
L 227.266925 159.087447 
L 226.086232 160.271314 
L 225.656812 160.967108 
L 225.307671 160.945309 
L 225.288311 161.064987 
L 224.932383 161.439634 
L 224.817719 161.329141 
L 224.335021 161.935901 
L 223.662545 162.159961 
L 223.629393 161.976987 
L 223.498373 161.983939 
L 223.085014 162.434629 
L 222.672806 162.569317 
L 222.605416 162.517427 
L 221.988993 163.113328 
L 221.432679 163.415532 
L 220.654879 164.219358 
L 220.601922 164.146229 
L 220.372253 164.392629 
L 220.14333 164.315468 
L 220.090821 164.238902 
L 219.606147 164.371358 
L 217.601406 165.759226 
L 217.56616 165.894676 
L 217.472456 165.85212 
L 217.470688 165.742564 
L 217.35156 165.937733 
L 217.045187 166.037896 
L 216.822108 166.392809 
L 216.748916 166.324955 
L 216.721263 166.450968 
L 216.356164 166.863884 
L 216.300661 167.00052 
L 216.232143 166.927098 
L 216.214967 166.826915 
L 215.776777 166.851243 
L 215.597529 166.922903 
L 215.451532 167.396901 
L 215.401653 167.335835 
L 215.327464 167.297958 
L 215.13548 167.594801 
L 215.108016 167.621126 
L 215.051073 167.461654 
L 214.946392 167.464861 
L 214.49533 168.071631 
L 214.087714 168.326102 
L 213.507409 168.566101 
L 213.500205 168.682919 
L 213.452461 168.606594 
L 213.357445 168.454024 
L 213.356789 168.34107 
L 213.327144 168.482457 
L 213.322309 168.374272 
L 213.238442 168.354874 
L 212.367212 169.193269 
L 212.358746 169.31711 
L 211.981014 169.361351 
L 211.315126 169.900655 
L 210.040599 171.606119 
L 210.028882 171.733327 
L 209.460845 172.050113 
L 209.24781 172.251871 
L 209.201742 172.178989 
L 209.186058 172.311227 
L 208.995403 172.607728 
L 208.942089 172.540984 
L 208.44213 172.713537 
L 208.316205 173.089435 
L 208.288087 173.001852 
L 207.822911 173.263782 
L 207.797931 173.170503 
L 207.747713 173.103614 
L 207.592427 173.508354 
L 207.270928 173.716137 
L 206.650385 174.894631 
L 206.478407 174.92698 
L 206.344611 175.158475 
L 206.303321 175.076612 
L 206.168968 175.073013 
L 206.075157 175.269746 
L 205.726588 175.34007 
L 205.53668 175.619326 
L 205.49624 175.534369 
L 205.299561 175.590418 
L 205.205627 175.792183 
L 205.14322 175.7274 
L 205.105033 175.640691 
L 204.746409 176.306279 
L 204.714947 176.21391 
L 203.982491 176.5622 
L 203.926566 176.48934 
L 202.865762 176.61408 
L 202.68368 176.87911 
L 202.016435 177.609556 
L 201.989904 177.503927 
L 201.921428 177.427085 
L 201.446017 177.992211 
L 200.673285 178.232388 
L 200.432892 178.262022 
L 200.378087 178.422826 
L 200.051893 178.50042 
L 199.987085 178.665644 
L 199.315441 178.295111 
L 197.97883 179.926536 
L 197.800303 180.038432 
L 196.526391 181.948263 
L 196.494334 181.857343 
L 195.97389 182.386395 
L 195.812538 182.715682 
L 195.770978 182.635282 
L 194.5842 183.536807 
L 194.457172 183.821612 
L 194.446039 183.699336 
L 193.40051 184.991998 
L 193.391935 184.865733 
L 191.922515 185.780086 
L 191.899731 185.519751 
L 191.427909 186.44517 
L 191.376685 186.636657 
L 191.083014 186.672115 
L 190.570358 187.790518 
L 190.256101 188.000395 
L 188.971072 189.19112 
L 188.607499 189.665796 
L 188.05194 189.891511 
L 188.040076 189.766075 
L 187.910673 189.778099 
L 187.906509 189.923531 
L 187.874289 189.821734 
L 187.715316 189.882187 
L 187.588545 190.183122 
L 187.395483 190.283294 
L 186.954515 190.96324 
L 186.715107 190.966194 
L 186.438624 191.44153 
L 186.260308 191.510298 
L 186.01829 191.935236 
L 185.959145 191.861318 
L 185.672928 191.932772 
L 183.4765 194.531442 
L 183.36349 194.372155 
L 182.606804 194.874323 
L 181.97091 195.508678 
L 181.8458 195.965001 
L 180.222652 198.320685 
L 179.096802 198.938897 
L 178.91163 199.252105 
L 178.783989 199.21161 
L 178.717995 199.418447 
L 178.590395 199.380456 
L 177.560328 200.086154 
L 177.434565 200.33602 
L 177.252875 200.323818 
L 176.746633 201.146514 
L 175.645309 201.419984 
L 175.500219 201.356345 
L 174.792569 201.637125 
L 173.878206 202.284347 
L 173.456356 202.190149 
L 172.763946 202.855658 
L 171.325643 203.069165 
L 171.24614 203.264416 
L 169.884546 203.777436 
L 169.749433 204.013054 
L 168.525151 204.323982 
L 168.357692 204.561438 
L 167.956398 204.89695 
L 167.862969 204.787183 
L 167.49389 205.117921 
L 166.187758 205.17851 
L 165.970329 205.097138 
L 165.965081 205.262091 
L 164.427119 205.622388 
L 164.22686 206.00414 
L 163.773008 206.283863 
L 163.751665 206.129084 
L 163.726101 206.295664 
L 163.718655 206.13773 
L 163.403487 206.068983 
L 163.36376 205.918299 
L 163.008159 206.180798 
L 163.007787 206.342499 
L 162.545707 206.324575 
L 162.027811 206.633803 
L 160.103281 206.766469 
L 160.077114 206.445114 
L 159.570258 206.467452 
L 158.322607 207.019501 
L 157.748985 207.004133 
L 157.670586 207.190662 
L 156.523598 207.277916 
L 156.36668 207.14198 
L 155.424707 206.806466 
L 155.27986 206.656691 
L 155.197556 206.846525 
L 155.07445 206.692643 
L 154.394795 206.978803 
L 154.134256 206.847037 
L 154.093202 206.676547 
L 149.756767 206.548689 
L 149.401732 206.22318 
L 149.081504 206.637653 
L 148.336105 206.539812 
L 148.005164 206.758707 
L 147.847946 206.400905 
L 146.819609 206.685172 
L 146.739708 206.508984 
L 146.693236 206.702436 
L 146.475225 206.539136 
L 146.463302 206.350495 
L 146.358893 206.550253 
L 145.317681 206.074307 
L 145.314976 206.268725 
L 144.878846 206.132436 
L 144.714718 205.95719 
L 144.569507 206.365374 
L 144.19504 205.832472 
L 143.927046 206.09311 
L 143.616024 205.774092 
L 143.43668 205.417707 
L 143.103963 205.911799 
L 143.031174 205.728696 
L 142.711871 205.624148 
L 142.497729 205.890507 
L 141.732412 205.932823 
L 141.686928 205.740462 
L 141.484066 205.596102 
L 141.063351 205.520199 
L 140.395451 204.876523 
L 140.299375 204.456332 
L 139.898947 204.415885 
L 139.768863 204.008428 
L 139.668591 203.082823 
L 139.429749 203.468742 
L 139.318725 203.03356 
L 139.091566 203.91745 
L 139.074669 203.681356 
L 139.002685 203.969829 
L 138.885747 204.279495 
L 138.700951 204.151094 
L 138.169441 204.025456 
L 137.955917 204.417073 
L 137.682356 204.346406 
L 137.59373 203.905576 
L 137.491843 204.241592 
L 137.480819 203.993655 
L 137.410679 203.78799 
L 137.296043 204.131681 
L 136.815541 203.975819 
L 136.186297 204.689572 
L 135.985688 204.041051 
L 135.652518 204.045812 
L 135.63919 204.332625 
L 135.235643 204.399001 
L 135.111149 203.945224 
L 135.083002 203.681596 
L 134.429395 204.524875 
L 134.357142 204.014803 
L 134.107918 203.976987 
L 133.980998 203.8075 
L 133.906318 203.266695 
L 133.772635 202.771175 
L 133.663968 203.533488 
L 133.485707 203.408417 
L 133.311858 203.912522 
L 133.234928 203.681262 
L 133.198546 204.041441 
L 132.913737 204.052868 
L 132.815432 203.840703 
L 132.696981 204.298061 
L 132.296451 204.437009 
L 132.203507 204.212561 
L 132.075265 204.687403 
L 132.046866 204.390277 
L 131.864762 204.271895 
L 131.745198 203.735027 
L 131.127386 204.18285 
L 130.938461 203.70353 
L 130.284105 204.187672 
L 129.994155 204.207026 
L 129.989879 203.818566 
L 129.822255 203.651095 
L 129.516964 203.665078 
L 129.351132 203.47438 
L 129.328017 203.075525 
L 129.224808 203.652159 
L 129.186761 203.274386 
L 128.741131 203.458027 
L 128.476082 203.39035 
L 128.117631 203.440998 
L 127.970922 203.175995 
L 127.656162 203.150478 
L 127.630626 202.685372 
L 127.491099 202.376505 
L 127.101376 202.418908 
L 126.68136 201.942942 
L 125.644576 202.917524 
L 125.409324 202.661055 
L 124.714958 203.072108 
L 124.160671 202.592306 
L 124.11036 201.977006 
L 124.025913 202.796224 
L 123.5656 202.800235 
L 123.076288 204.209174 
L 123.074783 203.519251 
L 122.762662 203.301043 
L 122.301271 204.74508 
L 121.841719 204.748344 
L 121.802149 204.061398 
L 121.738546 204.907813 
L 121.348981 203.997654 
L 121.04897 203.658263 
L 120.647493 203.468563 
L 119.751876 201.07299 
L 119.717073 200.020451 
L 119.632171 201.275671 
L 118.726716 201.717538 
L 118.33102 201.205154 
L 117.777866 199.519701 
L 116.760569 202.576848 
L 116.456266 201.731911 
L 116.416476 200.332421 
L 115.965086 199.548585 
L 115.793445 198.108812 
L 115.069209 201.137668 
L 112.11278 204.687561 
L 111.935833 203.079004 
L 110.325452 207.931604 
L 109.238367 207.939417 
L 108.820937 206.528556 
L 108.191263 205.208244 
L 107.310242 204.014337 
L 106.712752 201.796087 
L 105.515036 199.965479 
L 105.022219 195.620625 
L 96.765418 203.881201 
L 77.650282 227.649241 
L 77.650282 227.649241 
" style="fill:none;stroke:#2ca02c;stroke-dasharray:5,2.5,25,2.5;stroke-dashoffset:0;stroke-width:2.5;"/>
   </g>
   <g id="line2d_22">
    <g clip-path="url(#p5bab30e86e)">
     <use style="stroke:#000000;" x="154.093202" xlink:href="#m7f68e1cf11" y="206.676547"/>
    </g>
   </g>
   <g id="line2d_23">
    <g clip-path="url(#p5bab30e86e)">
     <use style="fill:#0000ff;stroke:#0000ff;stroke-linejoin:miter;" x="77.650282" xlink:href="#m1f75144b9b" y="227.649241"/>
    </g>
   </g>
   <g id="line2d_24">
    <g clip-path="url(#p5bab30e86e)">
     <use style="fill:#ff0000;stroke:#ff0000;" x="0" xlink:href="#ma259ba0ea7" y="0"/>
    </g>
   </g>
   <g id="patch_3">
    <path d="M 54 252 
L 54 34.56 
" style="fill:none;stroke:#000000;stroke-linecap:square;stroke-linejoin:miter;stroke-width:0.8;"/>
   </g>
   <g id="patch_4">
    <path d="M 388.8 252 
L 388.8 34.56 
" style="fill:none;stroke:#000000;stroke-linecap:square;stroke-linejoin:miter;stroke-width:0.8;"/>
   </g>
   <g id="patch_5">
    <path d="M 54 252 
L 388.8 252 
" style="fill:none;stroke:#000000;stroke-linecap:square;stroke-linejoin:miter;stroke-width:0.8;"/>
   </g>
   <g id="patch_6">
    <path d="M 54 34.56 
L 388.8 34.56 
" style="fill:none;stroke:#000000;stroke-linecap:square;stroke-linejoin:miter;stroke-width:0.8;"/>
   </g>
   <g id="text_15">
    <!-- GCV function for $\ell_1$ trend filter ($\sigma = 0.001$) -->
    <defs>
     <path id="DejaVuSans-32"/>
     <path d="M 37.109375 75.984375 
L 37.109375 68.5 
L 28.515625 68.5 
Q 23.6875 68.5 21.796875 66.546875 
Q 19.921875 64.59375 19.921875 59.515625 
L 19.921875 54.6875 
L 34.71875 54.6875 
L 34.71875 47.703125 
L 19.921875 47.703125 
L 19.921875 0 
L 10.890625 0 
L 10.890625 47.703125 
L 2.296875 47.703125 
L 2.296875 54.6875 
L 10.890625 54.6875 
L 10.890625 58.5 
Q 10.890625 67.625 15.140625 71.796875 
Q 19.390625 75.984375 28.609375 75.984375 
z
" id="DejaVuSans-102"/>
     <path d="M 8.5 21.578125 
L 8.5 54.6875 
L 17.484375 54.6875 
L 17.484375 21.921875 
Q 17.484375 14.15625 20.5 10.265625 
Q 23.53125 6.390625 29.59375 6.390625 
Q 36.859375 6.390625 41.078125 11.03125 
Q 45.3125 15.671875 45.3125 23.6875 
L 45.3125 54.6875 
L 54.296875 54.6875 
L 54.296875 0 
L 45.3125 0 
L 45.3125 8.40625 
Q 42.046875 3.421875 37.71875 1 
Q 33.40625 -1.421875 27.6875 -1.421875 
Q 18.265625 -1.421875 13.375 4.4375 
Q 8.5 10.296875 8.5 21.578125 
z
M 31.109375 56 
z
" id="DejaVuSans-117"/>
     <path d="M 54.890625 33.015625 
L 54.890625 0 
L 45.90625 0 
L 45.90625 32.71875 
Q 45.90625 40.484375 42.875 44.328125 
Q 39.84375 48.1875 33.796875 48.1875 
Q 26.515625 48.1875 22.3125 43.546875 
Q 18.109375 38.921875 18.109375 30.90625 
L 18.109375 0 
L 9.078125 0 
L 9.078125 54.6875 
L 18.109375 54.6875 
L 18.109375 46.1875 
Q 21.34375 51.125 25.703125 53.5625 
Q 30.078125 56 35.796875 56 
Q 45.21875 56 50.046875 50.171875 
Q 54.890625 44.34375 54.890625 33.015625 
z
" id="DejaVuSans-110"/>
     <path d="M 48.78125 52.59375 
L 48.78125 44.1875 
Q 44.96875 46.296875 41.140625 47.34375 
Q 37.3125 48.390625 33.40625 48.390625 
Q 24.65625 48.390625 19.8125 42.84375 
Q 14.984375 37.3125 14.984375 27.296875 
Q 14.984375 17.28125 19.8125 11.734375 
Q 24.65625 6.203125 33.40625 6.203125 
Q 37.3125 6.203125 41.140625 7.25 
Q 44.96875 8.296875 48.78125 10.40625 
L 48.78125 2.09375 
Q 45.015625 0.34375 40.984375 -0.53125 
Q 36.96875 -1.421875 32.421875 -1.421875 
Q 20.0625 -1.421875 12.78125 6.34375 
Q 5.515625 14.109375 5.515625 27.296875 
Q 5.515625 40.671875 12.859375 48.328125 
Q 20.21875 56 33.015625 56 
Q 37.15625 56 41.109375 55.140625 
Q 45.0625 54.296875 48.78125 52.59375 
z
" id="DejaVuSans-99"/>
     <path d="M 18.3125 70.21875 
L 18.3125 54.6875 
L 36.8125 54.6875 
L 36.8125 47.703125 
L 18.3125 47.703125 
L 18.3125 18.015625 
Q 18.3125 11.328125 20.140625 9.421875 
Q 21.96875 7.515625 27.59375 7.515625 
L 36.8125 7.515625 
L 36.8125 0 
L 27.59375 0 
Q 17.1875 0 13.234375 3.875 
Q 9.28125 7.765625 9.28125 18.015625 
L 9.28125 47.703125 
L 2.6875 47.703125 
L 2.6875 54.6875 
L 9.28125 54.6875 
L 9.28125 70.21875 
z
" id="DejaVuSans-116"/>
     <path d="M 9.421875 54.6875 
L 18.40625 54.6875 
L 18.40625 0 
L 9.421875 0 
z
M 9.421875 75.984375 
L 18.40625 75.984375 
L 18.40625 64.59375 
L 9.421875 64.59375 
z
" id="DejaVuSans-105"/>
     <path d="M 30.609375 48.390625 
Q 23.390625 48.390625 19.1875 42.75 
Q 14.984375 37.109375 14.984375 27.296875 
Q 14.984375 17.484375 19.15625 11.84375 
Q 23.34375 6.203125 30.609375 6.203125 
Q 37.796875 6.203125 41.984375 11.859375 
Q 46.1875 17.53125 46.1875 27.296875 
Q 46.1875 37.015625 41.984375 42.703125 
Q 37.796875 48.390625 30.609375 48.390625 
z
M 30.609375 56 
Q 42.328125 56 49.015625 48.375 
Q 55.71875 40.765625 55.71875 27.296875 
Q 55.71875 13.875 49.015625 6.21875 
Q 42.328125 -1.421875 30.609375 -1.421875 
Q 18.84375 -1.421875 12.171875 6.21875 
Q 5.515625 13.875 5.515625 27.296875 
Q 5.515625 40.765625 12.171875 48.375 
Q 18.84375 56 30.609375 56 
z
" id="DejaVuSans-111"/>
     <path d="M 41.109375 46.296875 
Q 39.59375 47.171875 37.8125 47.578125 
Q 36.03125 48 33.890625 48 
Q 26.265625 48 22.1875 43.046875 
Q 18.109375 38.09375 18.109375 28.8125 
L 18.109375 0 
L 9.078125 0 
L 9.078125 54.6875 
L 18.109375 54.6875 
L 18.109375 46.1875 
Q 20.953125 51.171875 25.484375 53.578125 
Q 30.03125 56 36.53125 56 
Q 37.453125 56 38.578125 55.875 
Q 39.703125 55.765625 41.0625 55.515625 
z
" id="DejaVuSans-114"/>
     <path d="M 14.84375 13.09375 
Q 16.84375 3.328125 21.09375 3.328125 
Q 23.921875 3.328125 27.59375 8.9375 
L 34.078125 8.9375 
Q 31.15625 3.953125 27.734375 1.375 
Q 24.03125 -1.421875 20.609375 -1.421875 
Q 12.984375 -1.421875 9.90625 5.375 
L 6.25 0 
L -1.375 0 
Q 3.90625 7.171875 7.8125 13.875 
Q 7.328125 17.671875 7.328125 21.828125 
Q 7.328125 29.25 8.84375 36.671875 
Q 14.546875 64.546875 19.625 70.265625 
Q 23.140625 74.21875 29.15625 74.21875 
Q 35.25 74.21875 35.25 65.765625 
Q 35.203125 61.96875 34.328125 57.421875 
Q 30.8125 38.8125 14.84375 13.09375 
z
M 14.796875 25.875 
Q 23.921875 42.875 26.703125 56.453125 
Q 28.171875 63.625 28.171875 65.484375 
Q 28.171875 68.84375 26.953125 68.84375 
Q 21.625 64.59375 16.890625 39.3125 
Q 15.578125 32.234375 14.796875 25.875 
z
" id="DejaVuSans-Oblique-8467"/>
     <path d="M 56.203125 29.59375 
L 56.203125 25.203125 
L 14.890625 25.203125 
Q 15.484375 15.921875 20.484375 11.0625 
Q 25.484375 6.203125 34.421875 6.203125 
Q 39.59375 6.203125 44.453125 7.46875 
Q 49.3125 8.734375 54.109375 11.28125 
L 54.109375 2.78125 
Q 49.265625 0.734375 44.1875 -0.34375 
Q 39.109375 -1.421875 33.890625 -1.421875 
Q 20.796875 -1.421875 13.15625 6.1875 
Q 5.515625 13.8125 5.515625 26.8125 
Q 5.515625 40.234375 12.765625 48.109375 
Q 20.015625 56 32.328125 56 
Q 43.359375 56 49.78125 48.890625 
Q 56.203125 41.796875 56.203125 29.59375 
z
M 47.21875 32.234375 
Q 47.125 39.59375 43.09375 43.984375 
Q 39.0625 48.390625 32.421875 48.390625 
Q 24.90625 48.390625 20.390625 44.140625 
Q 15.875 39.890625 15.1875 32.171875 
z
" id="DejaVuSans-101"/>
     <path d="M 45.40625 46.390625 
L 45.40625 75.984375 
L 54.390625 75.984375 
L 54.390625 0 
L 45.40625 0 
L 45.40625 8.203125 
Q 42.578125 3.328125 38.25 0.953125 
Q 33.9375 -1.421875 27.875 -1.421875 
Q 17.96875 -1.421875 11.734375 6.484375 
Q 5.515625 14.40625 5.515625 27.296875 
Q 5.515625 40.1875 11.734375 48.09375 
Q 17.96875 56 27.875 56 
Q 33.9375 56 38.25 53.625 
Q 42.578125 51.265625 45.40625 46.390625 
z
M 14.796875 27.296875 
Q 14.796875 17.390625 18.875 11.75 
Q 22.953125 6.109375 30.078125 6.109375 
Q 37.203125 6.109375 41.296875 11.75 
Q 45.40625 17.390625 45.40625 27.296875 
Q 45.40625 37.203125 41.296875 42.84375 
Q 37.203125 48.484375 30.078125 48.484375 
Q 22.953125 48.484375 18.875 42.84375 
Q 14.796875 37.203125 14.796875 27.296875 
z
" id="DejaVuSans-100"/>
     <path d="M 9.421875 75.984375 
L 18.40625 75.984375 
L 18.40625 0 
L 9.421875 0 
z
" id="DejaVuSans-108"/>
     <path d="M 34.671875 47.5625 
Q 27.25 47.5625 22.21875 42.1875 
Q 16.890625 36.578125 15.140625 27.296875 
Q 13.1875 17.484375 16.3125 11.8125 
Q 19.390625 6.203125 26.65625 6.203125 
Q 33.84375 6.203125 39.109375 11.859375 
Q 44.4375 17.53125 46.34375 27.296875 
Q 48.046875 36.234375 45.015625 42.1875 
Q 42.1875 47.5625 34.671875 47.5625 
z
M 36.078125 54.734375 
L 65.921875 54.6875 
L 64.15625 45.703125 
L 54.109375 45.703125 
Q 57.90625 38.09375 55.859375 27.296875 
Q 53.21875 13.875 45.0625 6.25 
Q 36.859375 -1.421875 25.140625 -1.421875 
Q 13.375 -1.421875 8.203125 6.25 
Q 3.03125 13.875 5.671875 27.296875 
Q 8.25 40.765625 16.40625 48.390625 
Q 23.1875 54.734375 36.078125 54.734375 
z
" id="DejaVuSans-Oblique-963"/>
     <path d="M 10.59375 45.40625 
L 73.1875 45.40625 
L 73.1875 37.203125 
L 10.59375 37.203125 
z
M 10.59375 25.484375 
L 73.1875 25.484375 
L 73.1875 17.1875 
L 10.59375 17.1875 
z
" id="DejaVuSans-61"/>
     <path d="M 10.6875 12.40625 
L 21 12.40625 
L 21 0 
L 10.6875 0 
z
" id="DejaVuSans-46"/>
    </defs>
    <g transform="translate(95.82 28.56)scale(0.12 -0.12)">
     <use transform="translate(0 0.015625)" xlink:href="#DejaVuSans-71"/>
     <use transform="translate(77.490234 0.015625)" xlink:href="#DejaVuSans-67"/>
     <use transform="translate(147.314453 0.015625)" xlink:href="#DejaVuSans-86"/>
     <use transform="translate(215.722656 0.015625)" xlink:href="#DejaVuSans-32"/>
     <use transform="translate(247.509766 0.015625)" xlink:href="#DejaVuSans-102"/>
     <use transform="translate(282.714844 0.015625)" xlink:href="#DejaVuSans-117"/>
     <use transform="translate(346.09375 0.015625)" xlink:href="#DejaVuSans-110"/>
     <use transform="translate(409.472656 0.015625)" xlink:href="#DejaVuSans-99"/>
     <use transform="translate(464.453125 0.015625)" xlink:href="#DejaVuSans-116"/>
     <use transform="translate(503.662109 0.015625)" xlink:href="#DejaVuSans-105"/>
     <use transform="translate(531.445312 0.015625)" xlink:href="#DejaVuSans-111"/>
     <use transform="translate(592.626953 0.015625)" xlink:href="#DejaVuSans-110"/>
     <use transform="translate(656.005859 0.015625)" xlink:href="#DejaVuSans-32"/>
     <use transform="translate(687.792969 0.015625)" xlink:href="#DejaVuSans-102"/>
     <use transform="translate(722.998047 0.015625)" xlink:href="#DejaVuSans-111"/>
     <use transform="translate(784.179688 0.015625)" xlink:href="#DejaVuSans-114"/>
     <use transform="translate(825.292969 0.015625)" xlink:href="#DejaVuSans-32"/>
     <use transform="translate(857.080078 0.015625)" xlink:href="#DejaVuSans-Oblique-8467"/>
     <use transform="translate(898.388672 -16.390625)scale(0.7)" xlink:href="#DejaVuSans-49"/>
     <use transform="translate(945.65918 0.015625)" xlink:href="#DejaVuSans-32"/>
     <use transform="translate(977.446289 0.015625)" xlink:href="#DejaVuSans-116"/>
     <use transform="translate(1016.655273 0.015625)" xlink:href="#DejaVuSans-114"/>
     <use transform="translate(1057.768555 0.015625)" xlink:href="#DejaVuSans-101"/>
     <use transform="translate(1119.291992 0.015625)" xlink:href="#DejaVuSans-110"/>
     <use transform="translate(1182.670898 0.015625)" xlink:href="#DejaVuSans-100"/>
     <use transform="translate(1246.147461 0.015625)" xlink:href="#DejaVuSans-32"/>
     <use transform="translate(1277.93457 0.015625)" xlink:href="#DejaVuSans-102"/>
     <use transform="translate(1313.139648 0.015625)" xlink:href="#DejaVuSans-105"/>
     <use transform="translate(1340.922852 0.015625)" xlink:href="#DejaVuSans-108"/>
     <use transform="translate(1368.706055 0.015625)" xlink:href="#DejaVuSans-116"/>
     <use transform="translate(1407.915039 0.015625)" xlink:href="#DejaVuSans-101"/>
     <use transform="translate(1469.438477 0.015625)" xlink:href="#DejaVuSans-114"/>
     <use transform="translate(1510.551758 0.015625)" xlink:href="#DejaVuSans-32"/>
     <use transform="translate(1542.338867 0.015625)" xlink:href="#DejaVuSans-40"/>
     <use transform="translate(1581.352539 0.015625)" xlink:href="#DejaVuSans-Oblique-963"/>
     <use transform="translate(1664.213867 0.015625)" xlink:href="#DejaVuSans-61"/>
     <use transform="translate(1767.485352 0.015625)" xlink:href="#DejaVuSans-48"/>
     <use transform="translate(1831.108398 0.015625)" xlink:href="#DejaVuSans-46"/>
     <use transform="translate(1862.895508 0.015625)" xlink:href="#DejaVuSans-48"/>
     <use transform="translate(1926.518555 0.015625)" xlink:href="#DejaVuSans-48"/>
     <use transform="translate(1990.141602 0.015625)" xlink:href="#DejaVuSans-49"/>
     <use transform="translate(2053.764648 0.015625)" xlink:href="#DejaVuSans-41"/>
    </g>
   </g>
   <g id="legend_1">
    <g id="line2d_25">
     <path d="M 64.8 50.278125 
L 112.8 50.278125 
" style="fill:none;stroke:#1f77b4;stroke-dasharray:7.5,2.5;stroke-dashoffset:0;stroke-width:2.5;"/>
    </g>
    <g id="line2d_26"/>
    <g id="text_16">
     <!-- state $x_1$ -->
     <defs>
      <path d="M 44.28125 53.078125 
L 44.28125 44.578125 
Q 40.484375 46.53125 36.375 47.5 
Q 32.28125 48.484375 27.875 48.484375 
Q 21.1875 48.484375 17.84375 46.4375 
Q 14.5 44.390625 14.5 40.28125 
Q 14.5 37.15625 16.890625 35.375 
Q 19.28125 33.59375 26.515625 31.984375 
L 29.59375 31.296875 
Q 39.15625 29.25 43.1875 25.515625 
Q 47.21875 21.78125 47.21875 15.09375 
Q 47.21875 7.46875 41.1875 3.015625 
Q 35.15625 -1.421875 24.609375 -1.421875 
Q 20.21875 -1.421875 15.453125 -0.5625 
Q 10.6875 0.296875 5.421875 2 
L 5.421875 11.28125 
Q 10.40625 8.6875 15.234375 7.390625 
Q 20.0625 6.109375 24.8125 6.109375 
Q 31.15625 6.109375 34.5625 8.28125 
Q 37.984375 10.453125 37.984375 14.40625 
Q 37.984375 18.0625 35.515625 20.015625 
Q 33.0625 21.96875 24.703125 23.78125 
L 21.578125 24.515625 
Q 13.234375 26.265625 9.515625 29.90625 
Q 5.8125 33.546875 5.8125 39.890625 
Q 5.8125 47.609375 11.28125 51.796875 
Q 16.75 56 26.8125 56 
Q 31.78125 56 36.171875 55.265625 
Q 40.578125 54.546875 44.28125 53.078125 
z
" id="DejaVuSans-115"/>
      <path d="M 34.28125 27.484375 
Q 23.390625 27.484375 19.1875 25 
Q 14.984375 22.515625 14.984375 16.5 
Q 14.984375 11.71875 18.140625 8.90625 
Q 21.296875 6.109375 26.703125 6.109375 
Q 34.1875 6.109375 38.703125 11.40625 
Q 43.21875 16.703125 43.21875 25.484375 
L 43.21875 27.484375 
z
M 52.203125 31.203125 
L 52.203125 0 
L 43.21875 0 
L 43.21875 8.296875 
Q 40.140625 3.328125 35.546875 0.953125 
Q 30.953125 -1.421875 24.3125 -1.421875 
Q 15.921875 -1.421875 10.953125 3.296875 
Q 6 8.015625 6 15.921875 
Q 6 25.140625 12.171875 29.828125 
Q 18.359375 34.515625 30.609375 34.515625 
L 43.21875 34.515625 
L 43.21875 35.40625 
Q 43.21875 41.609375 39.140625 45 
Q 35.0625 48.390625 27.6875 48.390625 
Q 23 48.390625 18.546875 47.265625 
Q 14.109375 46.140625 10.015625 43.890625 
L 10.015625 52.203125 
Q 14.9375 54.109375 19.578125 55.046875 
Q 24.21875 56 28.609375 56 
Q 40.484375 56 46.34375 49.84375 
Q 52.203125 43.703125 52.203125 31.203125 
z
" id="DejaVuSans-97"/>
      <path d="M 60.015625 54.6875 
L 34.90625 27.875 
L 50.296875 0 
L 39.984375 0 
L 28.421875 21.6875 
L 8.296875 0 
L -2.59375 0 
L 24.3125 28.8125 
L 10.015625 54.6875 
L 20.3125 54.6875 
L 30.8125 34.90625 
L 49.125 54.6875 
z
" id="DejaVuSans-Oblique-120"/>
     </defs>
     <g transform="translate(122.4 54.478125)scale(0.12 -0.12)">
      <use transform="translate(0 0.78125)" xlink:href="#DejaVuSans-115"/>
      <use transform="translate(52.099609 0.78125)" xlink:href="#DejaVuSans-116"/>
      <use transform="translate(91.308594 0.78125)" xlink:href="#DejaVuSans-97"/>
      <use transform="translate(152.587891 0.78125)" xlink:href="#DejaVuSans-116"/>
      <use transform="translate(191.796875 0.78125)" xlink:href="#DejaVuSans-101"/>
      <use transform="translate(253.320312 0.78125)" xlink:href="#DejaVuSans-32"/>
      <use transform="translate(285.107422 0.78125)" xlink:href="#DejaVuSans-Oblique-120"/>
      <use transform="translate(344.287109 -15.625)scale(0.7)" xlink:href="#DejaVuSans-49"/>
     </g>
    </g>
    <g id="line2d_27">
     <path d="M 64.8 67.891875 
L 112.8 67.891875 
" style="fill:none;stroke:#ff7f0e;stroke-dasharray:2500,2.5;stroke-dashoffset:0;stroke-width:2.5;"/>
    </g>
    <g id="line2d_28"/>
    <g id="text_17">
     <!-- state $x_2$ -->
     <g transform="translate(122.4 72.091875)scale(0.12 -0.12)">
      <use transform="translate(0 0.78125)" xlink:href="#DejaVuSans-115"/>
      <use transform="translate(52.099609 0.78125)" xlink:href="#DejaVuSans-116"/>
      <use transform="translate(91.308594 0.78125)" xlink:href="#DejaVuSans-97"/>
      <use transform="translate(152.587891 0.78125)" xlink:href="#DejaVuSans-116"/>
      <use transform="translate(191.796875 0.78125)" xlink:href="#DejaVuSans-101"/>
      <use transform="translate(253.320312 0.78125)" xlink:href="#DejaVuSans-32"/>
      <use transform="translate(285.107422 0.78125)" xlink:href="#DejaVuSans-Oblique-120"/>
      <use transform="translate(344.287109 -15.625)scale(0.7)" xlink:href="#DejaVuSans-50"/>
     </g>
    </g>
    <g id="line2d_29">
     <path d="M 64.8 85.505625 
L 112.8 85.505625 
" style="fill:none;stroke:#2ca02c;stroke-dasharray:5,2.5,25,2.5;stroke-dashoffset:0;stroke-width:2.5;"/>
    </g>
    <g id="line2d_30"/>
    <g id="text_18">
     <!-- state $x_3$ -->
     <defs>
      <path d="M 40.578125 39.3125 
Q 47.65625 37.796875 51.625 33 
Q 55.609375 28.21875 55.609375 21.1875 
Q 55.609375 10.40625 48.1875 4.484375 
Q 40.765625 -1.421875 27.09375 -1.421875 
Q 22.515625 -1.421875 17.65625 -0.515625 
Q 12.796875 0.390625 7.625 2.203125 
L 7.625 11.71875 
Q 11.71875 9.328125 16.59375 8.109375 
Q 21.484375 6.890625 26.8125 6.890625 
Q 36.078125 6.890625 40.9375 10.546875 
Q 45.796875 14.203125 45.796875 21.1875 
Q 45.796875 27.640625 41.28125 31.265625 
Q 36.765625 34.90625 28.71875 34.90625 
L 20.21875 34.90625 
L 20.21875 43.015625 
L 29.109375 43.015625 
Q 36.375 43.015625 40.234375 45.921875 
Q 44.09375 48.828125 44.09375 54.296875 
Q 44.09375 59.90625 40.109375 62.90625 
Q 36.140625 65.921875 28.71875 65.921875 
Q 24.65625 65.921875 20.015625 65.03125 
Q 15.375 64.15625 9.8125 62.3125 
L 9.8125 71.09375 
Q 15.4375 72.65625 20.34375 73.4375 
Q 25.25 74.21875 29.59375 74.21875 
Q 40.828125 74.21875 47.359375 69.109375 
Q 53.90625 64.015625 53.90625 55.328125 
Q 53.90625 49.265625 50.4375 45.09375 
Q 46.96875 40.921875 40.578125 39.3125 
z
" id="DejaVuSans-51"/>
     </defs>
     <g transform="translate(122.4 89.705625)scale(0.12 -0.12)">
      <use transform="translate(0 0.78125)" xlink:href="#DejaVuSans-115"/>
      <use transform="translate(52.099609 0.78125)" xlink:href="#DejaVuSans-116"/>
      <use transform="translate(91.308594 0.78125)" xlink:href="#DejaVuSans-97"/>
      <use transform="translate(152.587891 0.78125)" xlink:href="#DejaVuSans-116"/>
      <use transform="translate(191.796875 0.78125)" xlink:href="#DejaVuSans-101"/>
      <use transform="translate(253.320312 0.78125)" xlink:href="#DejaVuSans-32"/>
      <use transform="translate(285.107422 0.78125)" xlink:href="#DejaVuSans-Oblique-120"/>
      <use transform="translate(344.287109 -15.625)scale(0.7)" xlink:href="#DejaVuSans-51"/>
     </g>
    </g>
   </g>
  </g>
 </g>
 <defs>
  <clipPath id="p5bab30e86e">
   <rect height="217.44" width="334.8" x="54" y="34.56"/>
  </clipPath>
 </defs>
</svg>
