<?xml version="1.0" encoding="utf-8" standalone="no"?>
<!DOCTYPE svg PUBLIC "-//W3C//DTD SVG 1.1//EN"
  "http://www.w3.org/Graphics/SVG/1.1/DTD/svg11.dtd">
<!-- Created with matplotlib (https://matplotlib.org/) -->
<svg height="288pt" version="1.1" viewBox="0 0 432 288" width="432pt" xmlns="http://www.w3.org/2000/svg" xmlns:xlink="http://www.w3.org/1999/xlink">
 <defs>
  <style type="text/css">
*{stroke-linecap:butt;stroke-linejoin:round;}
  </style>
 </defs>
 <g id="figure_1">
  <g id="patch_1">
   <path d="M 0 288 
L 432 288 
L 432 0 
L 0 0 
z
" style="fill:#ffffff;"/>
  </g>
  <g id="axes_1">
   <g id="patch_2">
    <path d="M 54 252 
L 388.8 252 
L 388.8 34.56 
L 54 34.56 
z
" style="fill:#ffffff;"/>
   </g>
   <g id="matplotlib.axis_1">
    <g id="xtick_1">
     <g id="line2d_1">
      <defs>
       <path d="M 0 0 
L 0 3.5 
" id="me8ba0908f9" style="stroke:#000000;stroke-width:0.8;"/>
      </defs>
      <g>
       <use style="stroke:#000000;stroke-width:0.8;" x="96.535705" xlink:href="#me8ba0908f9" y="252"/>
      </g>
     </g>
     <g id="text_1">
      <!-- $\mathdefault{10^{-4}}$ -->
      <defs>
       <path d="M 12.40625 8.296875 
L 28.515625 8.296875 
L 28.515625 63.921875 
L 10.984375 60.40625 
L 10.984375 69.390625 
L 28.421875 72.90625 
L 38.28125 72.90625 
L 38.28125 8.296875 
L 54.390625 8.296875 
L 54.390625 0 
L 12.40625 0 
z
" id="DejaVuSans-49"/>
       <path d="M 31.78125 66.40625 
Q 24.171875 66.40625 20.328125 58.90625 
Q 16.5 51.421875 16.5 36.375 
Q 16.5 21.390625 20.328125 13.890625 
Q 24.171875 6.390625 31.78125 6.390625 
Q 39.453125 6.390625 43.28125 13.890625 
Q 47.125 21.390625 47.125 36.375 
Q 47.125 51.421875 43.28125 58.90625 
Q 39.453125 66.40625 31.78125 66.40625 
z
M 31.78125 74.21875 
Q 44.046875 74.21875 50.515625 64.515625 
Q 56.984375 54.828125 56.984375 36.375 
Q 56.984375 17.96875 50.515625 8.265625 
Q 44.046875 -1.421875 31.78125 -1.421875 
Q 19.53125 -1.421875 13.0625 8.265625 
Q 6.59375 17.96875 6.59375 36.375 
Q 6.59375 54.828125 13.0625 64.515625 
Q 19.53125 74.21875 31.78125 74.21875 
z
" id="DejaVuSans-48"/>
       <path d="M 10.59375 35.5 
L 73.1875 35.5 
L 73.1875 27.203125 
L 10.59375 27.203125 
z
" id="DejaVuSans-8722"/>
       <path d="M 37.796875 64.3125 
L 12.890625 25.390625 
L 37.796875 25.390625 
z
M 35.203125 72.90625 
L 47.609375 72.90625 
L 47.609375 25.390625 
L 58.015625 25.390625 
L 58.015625 17.1875 
L 47.609375 17.1875 
L 47.609375 0 
L 37.796875 0 
L 37.796875 17.1875 
L 4.890625 17.1875 
L 4.890625 26.703125 
z
" id="DejaVuSans-52"/>
      </defs>
      <g transform="translate(82.435705 268.118125)scale(0.12 -0.12)">
       <use transform="translate(0 0.684375)" xlink:href="#DejaVuSans-49"/>
       <use transform="translate(63.623047 0.684375)" xlink:href="#DejaVuSans-48"/>
       <use transform="translate(128.203125 38.965625)scale(0.7)" xlink:href="#DejaVuSans-8722"/>
       <use transform="translate(186.855469 38.965625)scale(0.7)" xlink:href="#DejaVuSans-52"/>
      </g>
     </g>
    </g>
    <g id="xtick_2">
     <g id="line2d_2">
      <g>
       <use style="stroke:#000000;stroke-width:0.8;" x="148.770952" xlink:href="#me8ba0908f9" y="252"/>
      </g>
     </g>
     <g id="text_2">
      <!-- $\mathdefault{10^{-2}}$ -->
      <defs>
       <path d="M 19.1875 8.296875 
L 53.609375 8.296875 
L 53.609375 0 
L 7.328125 0 
L 7.328125 8.296875 
Q 12.9375 14.109375 22.625 23.890625 
Q 32.328125 33.6875 34.8125 36.53125 
Q 39.546875 41.84375 41.421875 45.53125 
Q 43.3125 49.21875 43.3125 52.78125 
Q 43.3125 58.59375 39.234375 62.25 
Q 35.15625 65.921875 28.609375 65.921875 
Q 23.96875 65.921875 18.8125 64.3125 
Q 13.671875 62.703125 7.8125 59.421875 
L 7.8125 69.390625 
Q 13.765625 71.78125 18.9375 73 
Q 24.125 74.21875 28.421875 74.21875 
Q 39.75 74.21875 46.484375 68.546875 
Q 53.21875 62.890625 53.21875 53.421875 
Q 53.21875 48.921875 51.53125 44.890625 
Q 49.859375 40.875 45.40625 35.40625 
Q 44.1875 33.984375 37.640625 27.21875 
Q 31.109375 20.453125 19.1875 8.296875 
z
" id="DejaVuSans-50"/>
      </defs>
      <g transform="translate(134.670952 268.118125)scale(0.12 -0.12)">
       <use transform="translate(0 0.765625)" xlink:href="#DejaVuSans-49"/>
       <use transform="translate(63.623047 0.765625)" xlink:href="#DejaVuSans-48"/>
       <use transform="translate(128.203125 39.046875)scale(0.7)" xlink:href="#DejaVuSans-8722"/>
       <use transform="translate(186.855469 39.046875)scale(0.7)" xlink:href="#DejaVuSans-50"/>
      </g>
     </g>
    </g>
    <g id="xtick_3">
     <g id="line2d_3">
      <g>
       <use style="stroke:#000000;stroke-width:0.8;" x="201.006199" xlink:href="#me8ba0908f9" y="252"/>
      </g>
     </g>
     <g id="text_3">
      <!-- $\mathdefault{10^{0}}$ -->
      <g transform="translate(190.446199 268.118125)scale(0.12 -0.12)">
       <use transform="translate(0 0.765625)" xlink:href="#DejaVuSans-49"/>
       <use transform="translate(63.623047 0.765625)" xlink:href="#DejaVuSans-48"/>
       <use transform="translate(128.203125 39.046875)scale(0.7)" xlink:href="#DejaVuSans-48"/>
      </g>
     </g>
    </g>
    <g id="xtick_4">
     <g id="line2d_4">
      <g>
       <use style="stroke:#000000;stroke-width:0.8;" x="253.241446" xlink:href="#me8ba0908f9" y="252"/>
      </g>
     </g>
     <g id="text_4">
      <!-- $\mathdefault{10^{2}}$ -->
      <g transform="translate(242.681446 268.118125)scale(0.12 -0.12)">
       <use transform="translate(0 0.765625)" xlink:href="#DejaVuSans-49"/>
       <use transform="translate(63.623047 0.765625)" xlink:href="#DejaVuSans-48"/>
       <use transform="translate(128.203125 39.046875)scale(0.7)" xlink:href="#DejaVuSans-50"/>
      </g>
     </g>
    </g>
    <g id="xtick_5">
     <g id="line2d_5">
      <g>
       <use style="stroke:#000000;stroke-width:0.8;" x="305.476693" xlink:href="#me8ba0908f9" y="252"/>
      </g>
     </g>
     <g id="text_5">
      <!-- $\mathdefault{10^{4}}$ -->
      <g transform="translate(294.916693 268.118125)scale(0.12 -0.12)">
       <use transform="translate(0 0.684375)" xlink:href="#DejaVuSans-49"/>
       <use transform="translate(63.623047 0.684375)" xlink:href="#DejaVuSans-48"/>
       <use transform="translate(128.203125 38.965625)scale(0.7)" xlink:href="#DejaVuSans-52"/>
      </g>
     </g>
    </g>
    <g id="xtick_6">
     <g id="line2d_6">
      <g>
       <use style="stroke:#000000;stroke-width:0.8;" x="357.711939" xlink:href="#me8ba0908f9" y="252"/>
      </g>
     </g>
     <g id="text_6">
      <!-- $\mathdefault{10^{6}}$ -->
      <defs>
       <path d="M 33.015625 40.375 
Q 26.375 40.375 22.484375 35.828125 
Q 18.609375 31.296875 18.609375 23.390625 
Q 18.609375 15.53125 22.484375 10.953125 
Q 26.375 6.390625 33.015625 6.390625 
Q 39.65625 6.390625 43.53125 10.953125 
Q 47.40625 15.53125 47.40625 23.390625 
Q 47.40625 31.296875 43.53125 35.828125 
Q 39.65625 40.375 33.015625 40.375 
z
M 52.59375 71.296875 
L 52.59375 62.3125 
Q 48.875 64.0625 45.09375 64.984375 
Q 41.3125 65.921875 37.59375 65.921875 
Q 27.828125 65.921875 22.671875 59.328125 
Q 17.53125 52.734375 16.796875 39.40625 
Q 19.671875 43.65625 24.015625 45.921875 
Q 28.375 48.1875 33.59375 48.1875 
Q 44.578125 48.1875 50.953125 41.515625 
Q 57.328125 34.859375 57.328125 23.390625 
Q 57.328125 12.15625 50.6875 5.359375 
Q 44.046875 -1.421875 33.015625 -1.421875 
Q 20.359375 -1.421875 13.671875 8.265625 
Q 6.984375 17.96875 6.984375 36.375 
Q 6.984375 53.65625 15.1875 63.9375 
Q 23.390625 74.21875 37.203125 74.21875 
Q 40.921875 74.21875 44.703125 73.484375 
Q 48.484375 72.75 52.59375 71.296875 
z
" id="DejaVuSans-54"/>
      </defs>
      <g transform="translate(347.151939 268.118125)scale(0.12 -0.12)">
       <use transform="translate(0 0.765625)" xlink:href="#DejaVuSans-49"/>
       <use transform="translate(63.623047 0.765625)" xlink:href="#DejaVuSans-48"/>
       <use transform="translate(128.203125 39.046875)scale(0.7)" xlink:href="#DejaVuSans-54"/>
      </g>
     </g>
    </g>
    <g id="text_7">
     <!-- $\lambda$ -->
     <defs>
      <path d="M 36.71875 67.4375 
L 48.828125 0 
L 39.3125 0 
L 31.84375 40.4375 
L 5.125 0 
L -4.390625 0 
L 29.734375 52.4375 
L 28.03125 62.109375 
Q 26.953125 68.265625 21.734375 68.265625 
L 17.046875 68.265625 
L 18.5 75.984375 
L 24.21875 75.875 
Q 35.203125 75.734375 36.71875 67.4375 
z
" id="DejaVuSans-Oblique-955"/>
     </defs>
     <g transform="translate(217.8 283.731875)scale(0.12 -0.12)">
      <use transform="translate(0 0.015625)" xlink:href="#DejaVuSans-Oblique-955"/>
     </g>
    </g>
   </g>
   <g id="matplotlib.axis_2">
    <g id="ytick_1">
     <g id="line2d_7">
      <defs>
       <path d="M 0 0 
L -3.5 0 
" id="m2a5706c6f3" style="stroke:#000000;stroke-width:0.8;"/>
      </defs>
      <g>
       <use style="stroke:#000000;stroke-width:0.8;" x="54" xlink:href="#m2a5706c6f3" y="228.241908"/>
      </g>
     </g>
     <g id="text_8">
      <!-- $\mathdefault{10^{-3}}$ -->
      <defs>
       <path d="M 40.578125 39.3125 
Q 47.65625 37.796875 51.625 33 
Q 55.609375 28.21875 55.609375 21.1875 
Q 55.609375 10.40625 48.1875 4.484375 
Q 40.765625 -1.421875 27.09375 -1.421875 
Q 22.515625 -1.421875 17.65625 -0.515625 
Q 12.796875 0.390625 7.625 2.203125 
L 7.625 11.71875 
Q 11.71875 9.328125 16.59375 8.109375 
Q 21.484375 6.890625 26.8125 6.890625 
Q 36.078125 6.890625 40.9375 10.546875 
Q 45.796875 14.203125 45.796875 21.1875 
Q 45.796875 27.640625 41.28125 31.265625 
Q 36.765625 34.90625 28.71875 34.90625 
L 20.21875 34.90625 
L 20.21875 43.015625 
L 29.109375 43.015625 
Q 36.375 43.015625 40.234375 45.921875 
Q 44.09375 48.828125 44.09375 54.296875 
Q 44.09375 59.90625 40.109375 62.90625 
Q 36.140625 65.921875 28.71875 65.921875 
Q 24.65625 65.921875 20.015625 65.03125 
Q 15.375 64.15625 9.8125 62.3125 
L 9.8125 71.09375 
Q 15.4375 72.65625 20.34375 73.4375 
Q 25.25 74.21875 29.59375 74.21875 
Q 40.828125 74.21875 47.359375 69.109375 
Q 53.90625 64.015625 53.90625 55.328125 
Q 53.90625 49.265625 50.4375 45.09375 
Q 46.96875 40.921875 40.578125 39.3125 
z
" id="DejaVuSans-51"/>
      </defs>
      <g transform="translate(18.8 232.80097)scale(0.12 -0.12)">
       <use transform="translate(0 0.765625)" xlink:href="#DejaVuSans-49"/>
       <use transform="translate(63.623047 0.765625)" xlink:href="#DejaVuSans-48"/>
       <use transform="translate(128.203125 39.046875)scale(0.7)" xlink:href="#DejaVuSans-8722"/>
       <use transform="translate(186.855469 39.046875)scale(0.7)" xlink:href="#DejaVuSans-51"/>
      </g>
     </g>
    </g>
    <g id="ytick_2">
     <g id="line2d_8">
      <g>
       <use style="stroke:#000000;stroke-width:0.8;" x="54" xlink:href="#m2a5706c6f3" y="190.463928"/>
      </g>
     </g>
     <g id="text_9">
      <!-- $\mathdefault{10^{-2}}$ -->
      <g transform="translate(18.8 195.02299)scale(0.12 -0.12)">
       <use transform="translate(0 0.765625)" xlink:href="#DejaVuSans-49"/>
       <use transform="translate(63.623047 0.765625)" xlink:href="#DejaVuSans-48"/>
       <use transform="translate(128.203125 39.046875)scale(0.7)" xlink:href="#DejaVuSans-8722"/>
       <use transform="translate(186.855469 39.046875)scale(0.7)" xlink:href="#DejaVuSans-50"/>
      </g>
     </g>
    </g>
    <g id="ytick_3">
     <g id="line2d_9">
      <g>
       <use style="stroke:#000000;stroke-width:0.8;" x="54" xlink:href="#m2a5706c6f3" y="152.685948"/>
      </g>
     </g>
     <g id="text_10">
      <!-- $\mathdefault{10^{-1}}$ -->
      <g transform="translate(18.8 157.24501)scale(0.12 -0.12)">
       <use transform="translate(0 0.684375)" xlink:href="#DejaVuSans-49"/>
       <use transform="translate(63.623047 0.684375)" xlink:href="#DejaVuSans-48"/>
       <use transform="translate(128.203125 38.965625)scale(0.7)" xlink:href="#DejaVuSans-8722"/>
       <use transform="translate(186.855469 38.965625)scale(0.7)" xlink:href="#DejaVuSans-49"/>
      </g>
     </g>
    </g>
    <g id="ytick_4">
     <g id="line2d_10">
      <g>
       <use style="stroke:#000000;stroke-width:0.8;" x="54" xlink:href="#m2a5706c6f3" y="114.907968"/>
      </g>
     </g>
     <g id="text_11">
      <!-- $\mathdefault{10^{0}}$ -->
      <g transform="translate(25.88 119.46703)scale(0.12 -0.12)">
       <use transform="translate(0 0.765625)" xlink:href="#DejaVuSans-49"/>
       <use transform="translate(63.623047 0.765625)" xlink:href="#DejaVuSans-48"/>
       <use transform="translate(128.203125 39.046875)scale(0.7)" xlink:href="#DejaVuSans-48"/>
      </g>
     </g>
    </g>
    <g id="ytick_5">
     <g id="line2d_11">
      <g>
       <use style="stroke:#000000;stroke-width:0.8;" x="54" xlink:href="#m2a5706c6f3" y="77.129988"/>
      </g>
     </g>
     <g id="text_12">
      <!-- $\mathdefault{10^{1}}$ -->
      <g transform="translate(25.88 81.68905)scale(0.12 -0.12)">
       <use transform="translate(0 0.684375)" xlink:href="#DejaVuSans-49"/>
       <use transform="translate(63.623047 0.684375)" xlink:href="#DejaVuSans-48"/>
       <use transform="translate(128.203125 38.965625)scale(0.7)" xlink:href="#DejaVuSans-49"/>
      </g>
     </g>
    </g>
    <g id="ytick_6">
     <g id="line2d_12">
      <g>
       <use style="stroke:#000000;stroke-width:0.8;" x="54" xlink:href="#m2a5706c6f3" y="39.352008"/>
      </g>
     </g>
     <g id="text_13">
      <!-- $\mathdefault{10^{2}}$ -->
      <g transform="translate(25.88 43.91107)scale(0.12 -0.12)">
       <use transform="translate(0 0.765625)" xlink:href="#DejaVuSans-49"/>
       <use transform="translate(63.623047 0.765625)" xlink:href="#DejaVuSans-48"/>
       <use transform="translate(128.203125 39.046875)scale(0.7)" xlink:href="#DejaVuSans-50"/>
      </g>
     </g>
    </g>
    <g id="ytick_7">
     <g id="line2d_13">
      <defs>
       <path d="M 0 0 
L -2 0 
" id="mfd81220257" style="stroke:#000000;stroke-width:0.6;"/>
      </defs>
      <g>
       <use style="stroke:#000000;stroke-width:0.6;" x="54" xlink:href="#mfd81220257" y="247.99521"/>
      </g>
     </g>
    </g>
    <g id="ytick_8">
     <g id="line2d_14">
      <g>
       <use style="stroke:#000000;stroke-width:0.6;" x="54" xlink:href="#mfd81220257" y="243.275277"/>
      </g>
     </g>
    </g>
    <g id="ytick_9">
     <g id="line2d_15">
      <g>
       <use style="stroke:#000000;stroke-width:0.6;" x="54" xlink:href="#mfd81220257" y="239.614213"/>
      </g>
     </g>
    </g>
    <g id="ytick_10">
     <g id="line2d_16">
      <g>
       <use style="stroke:#000000;stroke-width:0.6;" x="54" xlink:href="#mfd81220257" y="236.622905"/>
      </g>
     </g>
    </g>
    <g id="ytick_11">
     <g id="line2d_17">
      <g>
       <use style="stroke:#000000;stroke-width:0.6;" x="54" xlink:href="#mfd81220257" y="234.093791"/>
      </g>
     </g>
    </g>
    <g id="ytick_12">
     <g id="line2d_18">
      <g>
       <use style="stroke:#000000;stroke-width:0.6;" x="54" xlink:href="#mfd81220257" y="231.902972"/>
      </g>
     </g>
    </g>
    <g id="ytick_13">
     <g id="line2d_19">
      <g>
       <use style="stroke:#000000;stroke-width:0.6;" x="54" xlink:href="#mfd81220257" y="229.970533"/>
      </g>
     </g>
    </g>
    <g id="ytick_14">
     <g id="line2d_20">
      <g>
       <use style="stroke:#000000;stroke-width:0.6;" x="54" xlink:href="#mfd81220257" y="216.869603"/>
      </g>
     </g>
    </g>
    <g id="ytick_15">
     <g id="line2d_21">
      <g>
       <use style="stroke:#000000;stroke-width:0.6;" x="54" xlink:href="#mfd81220257" y="210.21723"/>
      </g>
     </g>
    </g>
    <g id="ytick_16">
     <g id="line2d_22">
      <g>
       <use style="stroke:#000000;stroke-width:0.6;" x="54" xlink:href="#mfd81220257" y="205.497297"/>
      </g>
     </g>
    </g>
    <g id="ytick_17">
     <g id="line2d_23">
      <g>
       <use style="stroke:#000000;stroke-width:0.6;" x="54" xlink:href="#mfd81220257" y="201.836233"/>
      </g>
     </g>
    </g>
    <g id="ytick_18">
     <g id="line2d_24">
      <g>
       <use style="stroke:#000000;stroke-width:0.6;" x="54" xlink:href="#mfd81220257" y="198.844925"/>
      </g>
     </g>
    </g>
    <g id="ytick_19">
     <g id="line2d_25">
      <g>
       <use style="stroke:#000000;stroke-width:0.6;" x="54" xlink:href="#mfd81220257" y="196.315811"/>
      </g>
     </g>
    </g>
    <g id="ytick_20">
     <g id="line2d_26">
      <g>
       <use style="stroke:#000000;stroke-width:0.6;" x="54" xlink:href="#mfd81220257" y="194.124992"/>
      </g>
     </g>
    </g>
    <g id="ytick_21">
     <g id="line2d_27">
      <g>
       <use style="stroke:#000000;stroke-width:0.6;" x="54" xlink:href="#mfd81220257" y="192.192553"/>
      </g>
     </g>
    </g>
    <g id="ytick_22">
     <g id="line2d_28">
      <g>
       <use style="stroke:#000000;stroke-width:0.6;" x="54" xlink:href="#mfd81220257" y="179.091622"/>
      </g>
     </g>
    </g>
    <g id="ytick_23">
     <g id="line2d_29">
      <g>
       <use style="stroke:#000000;stroke-width:0.6;" x="54" xlink:href="#mfd81220257" y="172.43925"/>
      </g>
     </g>
    </g>
    <g id="ytick_24">
     <g id="line2d_30">
      <g>
       <use style="stroke:#000000;stroke-width:0.6;" x="54" xlink:href="#mfd81220257" y="167.719317"/>
      </g>
     </g>
    </g>
    <g id="ytick_25">
     <g id="line2d_31">
      <g>
       <use style="stroke:#000000;stroke-width:0.6;" x="54" xlink:href="#mfd81220257" y="164.058253"/>
      </g>
     </g>
    </g>
    <g id="ytick_26">
     <g id="line2d_32">
      <g>
       <use style="stroke:#000000;stroke-width:0.6;" x="54" xlink:href="#mfd81220257" y="161.066945"/>
      </g>
     </g>
    </g>
    <g id="ytick_27">
     <g id="line2d_33">
      <g>
       <use style="stroke:#000000;stroke-width:0.6;" x="54" xlink:href="#mfd81220257" y="158.537831"/>
      </g>
     </g>
    </g>
    <g id="ytick_28">
     <g id="line2d_34">
      <g>
       <use style="stroke:#000000;stroke-width:0.6;" x="54" xlink:href="#mfd81220257" y="156.347012"/>
      </g>
     </g>
    </g>
    <g id="ytick_29">
     <g id="line2d_35">
      <g>
       <use style="stroke:#000000;stroke-width:0.6;" x="54" xlink:href="#mfd81220257" y="154.414573"/>
      </g>
     </g>
    </g>
    <g id="ytick_30">
     <g id="line2d_36">
      <g>
       <use style="stroke:#000000;stroke-width:0.6;" x="54" xlink:href="#mfd81220257" y="141.313642"/>
      </g>
     </g>
    </g>
    <g id="ytick_31">
     <g id="line2d_37">
      <g>
       <use style="stroke:#000000;stroke-width:0.6;" x="54" xlink:href="#mfd81220257" y="134.66127"/>
      </g>
     </g>
    </g>
    <g id="ytick_32">
     <g id="line2d_38">
      <g>
       <use style="stroke:#000000;stroke-width:0.6;" x="54" xlink:href="#mfd81220257" y="129.941337"/>
      </g>
     </g>
    </g>
    <g id="ytick_33">
     <g id="line2d_39">
      <g>
       <use style="stroke:#000000;stroke-width:0.6;" x="54" xlink:href="#mfd81220257" y="126.280273"/>
      </g>
     </g>
    </g>
    <g id="ytick_34">
     <g id="line2d_40">
      <g>
       <use style="stroke:#000000;stroke-width:0.6;" x="54" xlink:href="#mfd81220257" y="123.288965"/>
      </g>
     </g>
    </g>
    <g id="ytick_35">
     <g id="line2d_41">
      <g>
       <use style="stroke:#000000;stroke-width:0.6;" x="54" xlink:href="#mfd81220257" y="120.759851"/>
      </g>
     </g>
    </g>
    <g id="ytick_36">
     <g id="line2d_42">
      <g>
       <use style="stroke:#000000;stroke-width:0.6;" x="54" xlink:href="#mfd81220257" y="118.569032"/>
      </g>
     </g>
    </g>
    <g id="ytick_37">
     <g id="line2d_43">
      <g>
       <use style="stroke:#000000;stroke-width:0.6;" x="54" xlink:href="#mfd81220257" y="116.636593"/>
      </g>
     </g>
    </g>
    <g id="ytick_38">
     <g id="line2d_44">
      <g>
       <use style="stroke:#000000;stroke-width:0.6;" x="54" xlink:href="#mfd81220257" y="103.535662"/>
      </g>
     </g>
    </g>
    <g id="ytick_39">
     <g id="line2d_45">
      <g>
       <use style="stroke:#000000;stroke-width:0.6;" x="54" xlink:href="#mfd81220257" y="96.88329"/>
      </g>
     </g>
    </g>
    <g id="ytick_40">
     <g id="line2d_46">
      <g>
       <use style="stroke:#000000;stroke-width:0.6;" x="54" xlink:href="#mfd81220257" y="92.163357"/>
      </g>
     </g>
    </g>
    <g id="ytick_41">
     <g id="line2d_47">
      <g>
       <use style="stroke:#000000;stroke-width:0.6;" x="54" xlink:href="#mfd81220257" y="88.502293"/>
      </g>
     </g>
    </g>
    <g id="ytick_42">
     <g id="line2d_48">
      <g>
       <use style="stroke:#000000;stroke-width:0.6;" x="54" xlink:href="#mfd81220257" y="85.510985"/>
      </g>
     </g>
    </g>
    <g id="ytick_43">
     <g id="line2d_49">
      <g>
       <use style="stroke:#000000;stroke-width:0.6;" x="54" xlink:href="#mfd81220257" y="82.981871"/>
      </g>
     </g>
    </g>
    <g id="ytick_44">
     <g id="line2d_50">
      <g>
       <use style="stroke:#000000;stroke-width:0.6;" x="54" xlink:href="#mfd81220257" y="80.791052"/>
      </g>
     </g>
    </g>
    <g id="ytick_45">
     <g id="line2d_51">
      <g>
       <use style="stroke:#000000;stroke-width:0.6;" x="54" xlink:href="#mfd81220257" y="78.858613"/>
      </g>
     </g>
    </g>
    <g id="ytick_46">
     <g id="line2d_52">
      <g>
       <use style="stroke:#000000;stroke-width:0.6;" x="54" xlink:href="#mfd81220257" y="65.757682"/>
      </g>
     </g>
    </g>
    <g id="ytick_47">
     <g id="line2d_53">
      <g>
       <use style="stroke:#000000;stroke-width:0.6;" x="54" xlink:href="#mfd81220257" y="59.10531"/>
      </g>
     </g>
    </g>
    <g id="ytick_48">
     <g id="line2d_54">
      <g>
       <use style="stroke:#000000;stroke-width:0.6;" x="54" xlink:href="#mfd81220257" y="54.385377"/>
      </g>
     </g>
    </g>
    <g id="ytick_49">
     <g id="line2d_55">
      <g>
       <use style="stroke:#000000;stroke-width:0.6;" x="54" xlink:href="#mfd81220257" y="50.724313"/>
      </g>
     </g>
    </g>
    <g id="ytick_50">
     <g id="line2d_56">
      <g>
       <use style="stroke:#000000;stroke-width:0.6;" x="54" xlink:href="#mfd81220257" y="47.733005"/>
      </g>
     </g>
    </g>
    <g id="ytick_51">
     <g id="line2d_57">
      <g>
       <use style="stroke:#000000;stroke-width:0.6;" x="54" xlink:href="#mfd81220257" y="45.203891"/>
      </g>
     </g>
    </g>
    <g id="ytick_52">
     <g id="line2d_58">
      <g>
       <use style="stroke:#000000;stroke-width:0.6;" x="54" xlink:href="#mfd81220257" y="43.013072"/>
      </g>
     </g>
    </g>
    <g id="ytick_53">
     <g id="line2d_59">
      <g>
       <use style="stroke:#000000;stroke-width:0.6;" x="54" xlink:href="#mfd81220257" y="41.080633"/>
      </g>
     </g>
    </g>
    <g id="text_14">
     <!-- GCV($\lambda$) -->
     <defs>
      <path d="M 59.515625 10.40625 
L 59.515625 29.984375 
L 43.40625 29.984375 
L 43.40625 38.09375 
L 69.28125 38.09375 
L 69.28125 6.78125 
Q 63.578125 2.734375 56.6875 0.65625 
Q 49.8125 -1.421875 42 -1.421875 
Q 24.90625 -1.421875 15.25 8.5625 
Q 5.609375 18.5625 5.609375 36.375 
Q 5.609375 54.25 15.25 64.234375 
Q 24.90625 74.21875 42 74.21875 
Q 49.125 74.21875 55.546875 72.453125 
Q 61.96875 70.703125 67.390625 67.28125 
L 67.390625 56.78125 
Q 61.921875 61.421875 55.765625 63.765625 
Q 49.609375 66.109375 42.828125 66.109375 
Q 29.4375 66.109375 22.71875 58.640625 
Q 16.015625 51.171875 16.015625 36.375 
Q 16.015625 21.625 22.71875 14.15625 
Q 29.4375 6.6875 42.828125 6.6875 
Q 48.046875 6.6875 52.140625 7.59375 
Q 56.25 8.5 59.515625 10.40625 
z
" id="DejaVuSans-71"/>
      <path d="M 64.40625 67.28125 
L 64.40625 56.890625 
Q 59.421875 61.53125 53.78125 63.8125 
Q 48.140625 66.109375 41.796875 66.109375 
Q 29.296875 66.109375 22.65625 58.46875 
Q 16.015625 50.828125 16.015625 36.375 
Q 16.015625 21.96875 22.65625 14.328125 
Q 29.296875 6.6875 41.796875 6.6875 
Q 48.140625 6.6875 53.78125 8.984375 
Q 59.421875 11.28125 64.40625 15.921875 
L 64.40625 5.609375 
Q 59.234375 2.09375 53.4375 0.328125 
Q 47.65625 -1.421875 41.21875 -1.421875 
Q 24.65625 -1.421875 15.125 8.703125 
Q 5.609375 18.84375 5.609375 36.375 
Q 5.609375 53.953125 15.125 64.078125 
Q 24.65625 74.21875 41.21875 74.21875 
Q 47.75 74.21875 53.53125 72.484375 
Q 59.328125 70.75 64.40625 67.28125 
z
" id="DejaVuSans-67"/>
      <path d="M 28.609375 0 
L 0.78125 72.90625 
L 11.078125 72.90625 
L 34.1875 11.53125 
L 57.328125 72.90625 
L 67.578125 72.90625 
L 39.796875 0 
z
" id="DejaVuSans-86"/>
      <path d="M 31 75.875 
Q 24.46875 64.65625 21.28125 53.65625 
Q 18.109375 42.671875 18.109375 31.390625 
Q 18.109375 20.125 21.3125 9.0625 
Q 24.515625 -2 31 -13.1875 
L 23.1875 -13.1875 
Q 15.875 -1.703125 12.234375 9.375 
Q 8.59375 20.453125 8.59375 31.390625 
Q 8.59375 42.28125 12.203125 53.3125 
Q 15.828125 64.359375 23.1875 75.875 
z
" id="DejaVuSans-40"/>
      <path d="M 8.015625 75.875 
L 15.828125 75.875 
Q 23.140625 64.359375 26.78125 53.3125 
Q 30.421875 42.28125 30.421875 31.390625 
Q 30.421875 20.453125 26.78125 9.375 
Q 23.140625 -1.703125 15.828125 -13.1875 
L 8.015625 -13.1875 
Q 14.5 -2 17.703125 9.0625 
Q 20.90625 20.125 20.90625 31.390625 
Q 20.90625 42.671875 17.703125 53.65625 
Q 14.5 64.65625 8.015625 75.875 
z
" id="DejaVuSans-41"/>
     </defs>
     <g transform="translate(12.304375 164.46)rotate(-90)scale(0.12 -0.12)">
      <use transform="translate(0 0.015625)" xlink:href="#DejaVuSans-71"/>
      <use transform="translate(77.490234 0.015625)" xlink:href="#DejaVuSans-67"/>
      <use transform="translate(147.314453 0.015625)" xlink:href="#DejaVuSans-86"/>
      <use transform="translate(215.722656 0.015625)" xlink:href="#DejaVuSans-40"/>
      <use transform="translate(254.736328 0.015625)" xlink:href="#DejaVuSans-Oblique-955"/>
      <use transform="translate(313.916016 0.015625)" xlink:href="#DejaVuSans-41"/>
     </g>
    </g>
   </g>
   <g id="line2d_60">
    <path clip-path="url(#pfc43b8071e)" d="M 360.430299 67.59873 
L 359.67024 67.697489 
L 359.664842 67.551785 
L 358.71417 67.988687 
L 358.701875 67.850432 
L 357.732106 68.261977 
L 357.712586 68.130464 
L 356.721213 68.518373 
L 356.694054 68.392899 
L 355.678307 68.758763 
L 355.643006 68.638623 
L 354.600014 68.983886 
L 354.555951 68.868377 
L 353.482504 69.194389 
L 353.42893 69.082801 
L 352.940317 69.307366 
L 349.68551 72.478 
L 349.622133 72.405953 
L 348.496051 73.339421 
L 347.35193 74.186111 
L 346.561039 74.835703 
L 346.274795 74.758278 
L 345.957949 75.098042 
L 345.124408 75.600553 
L 343.88743 76.246148 
L 342.590358 76.834034 
L 341.434771 77.378134 
L 341.27991 77.203717 
L 340.022647 77.821626 
L 338.513591 78.261741 
L 337.392574 78.635352 
L 337.142138 78.493418 
L 336.938977 78.692177 
L 335.841836 79.020826 
L 335.509309 79.002343 
L 334.073727 79.338169 
L 333.948015 79.167341 
L 333.632981 79.371991 
L 332.546993 79.63505 
L 332.127669 79.605243 
L 331.237646 79.832192 
L 330.616565 79.689191 
L 330.504158 79.871613 
L 328.798531 80.132081 
L 328.400818 79.940677 
L 327.78522 80.154761 
L 327.702069 80.0639 
L 326.577594 80.581001 
L 326.565509 80.291531 
L 326.217719 80.688001 
L 325.100055 81.149751 
L 325.031319 80.908548 
L 324.718104 81.259641 
L 323.67119 81.864616 
L 323.36761 82.296761 
L 319.140512 91.29596 
L 315.561169 98.043735 
L 312.995971 101.975675 
L 311.321835 103.924217 
L 309.702816 105.638489 
L 309.33548 106.137226 
L 308.578772 106.617656 
L 307.176848 108.010705 
L 307.098754 107.918178 
L 306.939415 108.190162 
L 305.281946 109.397762 
L 304.931812 109.457286 
L 304.913635 109.311734 
L 303.783827 110.025597 
L 303.673756 110.241887 
L 302.458731 110.937369 
L 302.452524 110.788383 
L 302.421157 110.957478 
L 302.37939 110.851565 
L 302.248724 111.084507 
L 302.182614 111.007407 
L 302.136473 111.182096 
L 302.084841 111.08998 
L 301.804034 111.582313 
L 301.692703 111.530823 
L 301.539401 111.742257 
L 301.3836 111.736083 
L 301.299589 111.921885 
L 301.153815 111.896585 
L 300.978763 112.111895 
L 300.967433 111.960459 
L 300.819973 111.991547 
L 300.707014 112.193037 
L 300.577141 112.17699 
L 300.552649 112.048384 
L 300.497343 112.250666 
L 300.172048 112.338084 
L 299.878934 112.838888 
L 299.683776 112.852099 
L 298.97336 113.390708 
L 298.741568 113.419667 
L 298.497993 113.655044 
L 298.492038 113.504306 
L 298.231687 113.74084 
L 297.80955 114.557585 
L 297.523299 114.60408 
L 297.293997 114.823496 
L 297.061646 114.890586 
L 296.938133 115.078998 
L 296.453892 115.042667 
L 296.027095 115.495018 
L 295.77107 115.524851 
L 295.604416 115.73274 
L 295.558226 115.64464 
L 295.544773 115.509811 
L 295.170888 116.130582 
L 294.940199 116.296475 
L 294.803697 116.543849 
L 292.600495 117.681865 
L 292.564691 117.571494 
L 291.800867 118.869285 
L 291.741859 118.762489 
L 290.786968 119.846449 
L 290.41329 120.514084 
L 289.940842 120.772551 
L 288.653276 122.814082 
L 288.433093 122.895871 
L 287.754636 123.746155 
L 287.109926 125.067624 
L 286.658358 125.575114 
L 286.641741 125.450255 
L 286.055536 126.787088 
L 283.995661 128.872597 
L 283.441188 130.043219 
L 282.897263 130.436472 
L 281.695384 131.557996 
L 281.598292 131.389001 
L 280.938415 132.520023 
L 280.513827 132.879338 
L 279.7842 134.070381 
L 279.472751 134.534387 
L 279.41842 134.482601 
L 278.658662 135.780951 
L 276.793493 138.572395 
L 276.536079 139.09902 
L 276.176032 139.558872 
L 275.931659 140.123579 
L 274.912468 141.459439 
L 274.742237 142.073984 
L 273.739898 143.556569 
L 273.596854 143.621425 
L 272.508018 144.898486 
L 271.987323 145.510493 
L 271.577455 145.627781 
L 267.821404 149.29892 
L 267.656755 149.320106 
L 266.109767 150.80996 
L 265.146993 152.065716 
L 263.212423 153.902438 
L 261.85629 154.332763 
L 260.217734 156.257183 
L 260.148575 156.205492 
L 259.982506 156.598662 
L 259.515308 157.365479 
L 258.972087 158.573332 
L 258.923714 158.502399 
L 256.428089 162.322885 
L 256.210433 162.476316 
L 255.570831 163.417272 
L 255.482494 163.406762 
L 254.777098 164.49538 
L 254.321256 165.048263 
L 254.019244 165.640983 
L 252.771472 167.208431 
L 252.00313 168.455645 
L 251.042554 169.173372 
L 251.001913 169.378834 
L 250.912959 169.313803 
L 250.677581 169.707244 
L 250.507398 169.740525 
L 250.087103 170.497538 
L 249.976334 170.306242 
L 249.854299 170.641411 
L 249.05547 171.648485 
L 248.849785 172.093326 
L 248.78796 172.020408 
L 247.456186 173.882804 
L 246.829114 174.718278 
L 246.347433 175.122103 
L 246.250161 175.382687 
L 245.942725 175.733597 
L 245.691954 175.603091 
L 245.112521 176.201359 
L 244.802947 176.273742 
L 243.996735 176.937752 
L 243.953041 176.802019 
L 242.834214 177.765 
L 242.532133 178.190964 
L 240.042548 179.953402 
L 239.884942 179.905697 
L 239.5009 180.351245 
L 239.490149 180.190989 
L 239.204378 180.22833 
L 237.985506 181.356485 
L 237.940585 181.215058 
L 237.111977 181.839881 
L 235.85974 182.298551 
L 234.57222 182.971371 
L 234.456931 182.845329 
L 233.725413 183.41656 
L 233.046351 183.445095 
L 232.942725 183.638706 
L 232.107417 183.976547 
L 231.572418 183.764072 
L 231.017724 184.021029 
L 230.83858 183.884038 
L 230.104382 183.838092 
L 230.047055 183.679205 
L 227.992078 183.92355 
L 225.899957 184.556758 
L 224.964255 184.506057 
L 224.840921 184.686748 
L 224.557316 184.54584 
L 224.353751 184.899952 
L 224.308562 184.735875 
L 224.100902 184.920422 
L 222.270859 185.211311 
L 221.219069 185.100303 
L 218.511829 184.935644 
L 218.377235 184.774092 
L 216.880804 184.696315 
L 216.827681 184.528012 
L 216.558315 184.373254 
L 216.557387 184.200159 
L 216.011809 184.739149 
L 215.843981 184.575508 
L 214.950538 184.448639 
L 214.768052 184.6293 
L 213.85097 184.835324 
L 213.782664 184.666423 
L 213.132862 184.518592 
L 212.844147 184.871446 
L 212.780791 185.04348 
L 212.283233 184.885816 
L 212.23409 184.716011 
L 211.67648 184.901028 
L 211.074879 184.746499 
L 210.669059 184.926009 
L 210.584353 184.757345 
L 210.350251 184.933144 
L 210.250642 184.765787 
L 209.424759 184.627408 
L 209.096449 184.807348 
L 208.974893 184.638073 
L 208.831789 184.813474 
L 207.549983 184.495813 
L 207.429373 184.324586 
L 207.222834 184.502984 
L 206.07039 184.695661 
L 205.587759 184.186361 
L 205.252816 184.367127 
L 205.206931 184.193375 
L 204.969587 184.374046 
L 204.324431 184.213433 
L 204.134118 184.392155 
L 204.042876 184.044186 
L 203.679972 183.883096 
L 203.658637 183.707277 
L 203.611791 183.889539 
L 203.464373 184.251131 
L 202.652618 184.114577 
L 202.484999 183.410835 
L 202.05974 183.292134 
L 202.0315 183.476795 
L 201.535003 183.687673 
L 201.386966 183.522551 
L 201.240991 183.36138 
L 200.999494 183.57306 
L 200.911955 183.403366 
L 200.9058 183.5849 
L 200.778405 183.420313 
L 200.734076 183.605765 
L 200.731858 183.425233 
L 200.692888 183.248387 
L 200.683717 183.431314 
L 200.479429 183.635103 
L 200.332384 182.930811 
L 200.31313 183.117933 
L 199.677185 183.568982 
L 199.651706 183.752507 
L 199.625219 183.574634 
L 199.385607 183.958974 
L 199.328349 183.784804 
L 199.266292 183.430946 
L 199.003199 183.291581 
L 198.994647 183.475674 
L 198.82869 183.318827 
L 198.221357 183.57335 
L 198.151127 183.398625 
L 198.090402 183.588269 
L 197.834684 183.448462 
L 197.768215 183.275732 
L 197.580184 183.490069 
L 197.538925 183.314659 
L 197.286441 183.897548 
L 196.898791 183.582762 
L 196.509521 183.44769 
L 195.76087 184.074492 
L 195.599406 183.908759 
L 195.299191 184.296496 
L 195.002937 183.958438 
L 194.880255 184.149241 
L 194.555308 184.350763 
L 194.120007 184.196888 
L 194.116763 183.832491 
L 193.708361 184.221345 
L 193.300407 184.069114 
L 193.066133 183.537048 
L 192.99293 183.72791 
L 192.669724 183.572768 
L 192.635167 183.390066 
L 192.384182 183.781946 
L 192.362614 183.967295 
L 191.915162 183.816517 
L 191.853581 183.452075 
L 191.547641 183.301365 
L 191.427692 182.939369 
L 191.419076 183.129536 
L 191.115831 183.348143 
L 191.104839 183.161333 
L 191.10483 183.349378 
L 190.841321 183.193947 
L 190.805153 183.386021 
L 190.532933 183.234978 
L 189.872247 183.677277 
L 189.833427 183.866187 
L 189.767712 183.687584 
L 189.717138 183.878565 
L 189.029992 183.589377 
L 188.970192 183.782888 
L 188.910934 183.60434 
L 188.01865 184.067401 
L 187.895821 183.705823 
L 187.830277 183.898159 
L 187.679656 184.095782 
L 187.559262 183.919732 
L 187.363026 184.120024 
L 187.32531 183.750248 
L 187.14417 183.578993 
L 187.127938 183.768444 
L 186.834138 183.419553 
L 186.533518 183.261844 
L 186.106933 183.489919 
L 185.939873 183.316993 
L 185.823067 182.950208 
L 185.605152 183.356957 
L 185.465654 183.747873 
L 185.111215 183.396204 
L 185.002805 183.214411 
L 184.884485 183.414522 
L 184.796779 183.231188 
L 184.651972 183.432894 
L 184.415732 183.265399 
L 184.245458 183.662288 
L 184.239633 183.472614 
L 183.898532 183.327145 
L 183.359474 183.571496 
L 183.316322 183.385428 
L 183.259492 183.581842 
L 183.112377 183.784902 
L 182.641905 183.446476 
L 182.549645 183.646266 
L 182.528136 183.457387 
L 182.284613 183.674791 
L 182.18144 183.494797 
L 181.99233 183.703666 
L 181.872828 183.524518 
L 181.859244 183.717204 
L 181.675007 183.545107 
L 181.646758 183.356237 
L 181.476413 183.186585 
L 181.431636 183.386193 
L 181.195473 183.224509 
L 180.923205 183.640329 
L 180.74115 183.847147 
L 180.533315 183.674519 
L 180.455993 183.871868 
L 180.236019 183.70559 
L 180.132718 184.095132 
L 180.094821 183.716531 
L 179.800713 183.360332 
L 179.755946 183.172836 
L 179.411973 183.401961 
L 179.130919 183.235239 
L 178.816689 183.457386 
L 178.40091 183.30395 
L 178.395157 183.499148 
L 178.372025 182.913462 
L 178.043014 182.747532 
L 178.041339 182.94594 
L 177.338926 182.224701 
L 177.196405 182.44188 
L 176.851251 182.672898 
L 176.812885 182.8754 
L 176.804752 182.676916 
L 176.749837 182.483552 
L 176.434735 182.721271 
L 176.324441 182.331496 
L 175.999828 181.985382 
L 175.941914 182.401251 
L 175.455458 182.076216 
L 175.04117 181.954866 
L 174.931199 181.566577 
L 174.91435 181.778785 
L 174.782252 182.215688 
L 174.775762 182.011231 
L 174.727014 182.225369 
L 174.148151 182.114515 
L 173.958809 181.938354 
L 173.450662 181.814569 
L 173.292613 182.046916 
L 173.152276 181.85994 
L 173.048547 182.289428 
L 173.02329 182.086153 
L 172.990428 181.883074 
L 172.748831 182.126417 
L 172.249338 181.777133 
L 172.023468 182.222705 
L 171.901705 182.649452 
L 171.721864 182.467032 
L 171.542967 182.692679 
L 171.440214 182.293596 
L 171.31534 182.517235 
L 171.278571 182.315602 
L 171.248361 182.526999 
L 171.055053 182.141729 
L 171.014794 181.729365 
L 170.969477 181.949351 
L 170.902441 182.171738 
L 170.682344 182.414628 
L 170.657133 182.210734 
L 170.176272 181.885242 
L 170.091108 182.318942 
L 169.325736 181.822684 
L 169.135384 182.070497 
L 168.855744 181.913658 
L 168.74314 181.509359 
L 168.453575 181.991419 
L 168.413588 181.785419 
L 168.032468 180.788909 
L 167.870286 181.050733 
L 167.85662 181.054262 
L 167.820168 180.621129 
L 167.615191 180.461799 
L 167.352939 180.980147 
L 167.208957 180.568798 
L 167.037665 180.828632 
L 166.764448 180.661544 
L 166.692108 181.122395 
L 166.332361 180.969386 
L 166.281684 181.421759 
L 165.898572 181.704114 
L 165.711461 180.855704 
L 165.370601 181.149731 
L 165.194678 181.624292 
L 165.075585 181.208408 
L 164.968936 181.67122 
L 164.658225 181.502626 
L 164.601679 181.731888 
L 164.45778 181.533584 
L 164.344009 180.885593 
L 164.245617 180.680943 
L 164.138382 180.931173 
L 163.833161 180.545263 
L 163.624355 181.045917 
L 163.606264 180.822965 
L 163.533397 181.064786 
L 163.31399 180.881374 
L 163.116112 180.024402 
L 163.0948 180.262906 
L 162.887723 179.843918 
L 162.741138 179.649987 
L 162.183948 179.347259 
L 162.167685 179.59205 
L 162.139836 179.359322 
L 161.603087 179.259195 
L 161.066022 179.630916 
L 160.956109 179.415743 
L 160.83321 179.685723 
L 160.559451 179.032233 
L 160.167081 178.90537 
L 159.931281 179.222062 
L 159.535019 178.857668 
L 159.44744 179.132631 
L 159.30777 178.923063 
L 159.153925 179.215504 
L 159.124578 178.7235 
L 158.80887 178.329021 
L 158.716968 177.590396 
L 158.653441 177.354731 
L 158.197707 177.035814 
L 158.097757 176.816509 
L 157.938738 177.165477 
L 157.921832 176.903679 
L 157.662748 176.783191 
L 157.178807 177.584589 
L 156.895493 177.451199 
L 156.731905 176.713624 
L 156.651394 177.307827 
L 156.638981 177.039983 
L 156.137312 176.207589 
L 155.920006 176.899398 
L 155.916075 176.620061 
L 155.652984 176.493955 
L 155.231105 177.573873 
L 155.220904 177.300975 
L 155.00426 177.710579 
L 154.729963 177.604373 
L 154.622459 177.949605 
L 154.354249 177.832752 
L 154.268436 178.161546 
L 154.261178 177.886605 
L 154.118622 178.249254 
L 154.049008 178.011381 
L 154.039459 178.296274 
L 153.942666 178.629034 
L 153.879467 178.388242 
L 153.662163 178.233457 
L 153.656042 178.51612 
L 153.373774 178.127531 
L 152.85986 178.714922 
L 152.77497 179.040364 
L 152.730728 178.786447 
L 152.721438 178.510134 
L 152.425086 178.394932 
L 152.394139 178.12605 
L 152.021419 178.619284 
L 152.013452 178.337108 
L 151.719087 177.917198 
L 151.672256 178.233138 
L 151.359191 178.103555 
L 151.297098 178.425515 
L 151.270434 178.147362 
L 151.108763 177.640487 
L 151.1041 177.343319 
L 150.838446 177.779637 
L 150.513925 177.050601 
L 150.426666 177.405075 
L 150.387074 177.123275 
L 150.201111 175.672665 
L 150.161452 176.021213 
L 149.884089 175.89581 
L 149.723943 175.049511 
L 149.626037 175.459291 
L 149.458232 175.281113 
L 149.379765 175.680707 
L 149.298129 175.423017 
L 148.955643 175.391481 
L 148.919241 175.423109 
L 148.828602 174.827105 
L 148.73412 175.249781 
L 148.217206 174.742451 
L 148.105876 175.19975 
L 147.946039 174.677995 
L 147.806224 173.781614 
L 147.68821 173.572097 
L 147.654799 173.247006 
L 147.550057 173.758853 
L 147.48453 173.478196 
L 147.467176 173.872452 
L 147.245127 173.061177 
L 147.186652 172.761549 
L 146.96177 172.706762 
L 146.932655 173.137053 
L 146.81344 172.923397 
L 146.732512 172.25192 
L 146.533398 172.142054 
L 146.511881 171.768714 
L 146.346461 172.433459 
L 146.014596 172.533917 
L 145.817664 172.428951 
L 145.473842 172.541385 
L 145.370564 173.114116 
L 145.156132 172.606184 
L 144.629119 172.97884 
L 144.61547 172.564683 
L 144.530443 173.125249 
L 144.458892 172.357924 
L 144.197423 172.324801 
L 144.027073 171.686124 
L 143.992638 172.199695 
L 143.981051 171.760029 
L 143.759971 171.194932 
L 143.415636 171.329584 
L 143.197257 171.225756 
L 143.183414 171.735623 
L 143.177767 171.259265 
L 143.072073 170.94931 
L 142.97981 171.599101 
L 142.875642 170.784665 
L 142.619882 170.725504 
L 142.578916 169.222812 
L 142.392743 168.486635 
L 142.368098 166.823911 
L 142.231969 166.511528 
L 141.993062 166.397982 
L 141.984407 167.017662 
L 141.905288 166.576799 
L 141.850167 166.076272 
L 141.34109 166.483794 
L 141.118161 165.65556 
L 140.798642 165.665777 
L 140.749667 165.097453 
L 139.996791 165.360597 
L 139.364292 167.421361 
L 138.863565 167.777993 
L 138.852024 168.507778 
L 138.579621 168.381583 
L 138.381189 167.349003 
L 138.166762 167.057491 
L 138.051278 166.53853 
L 137.662787 166.592089 
L 137.380217 162.055695 
L 137.203415 161.532717 
L 137.142188 162.631355 
L 136.964104 162.109235 
L 136.551298 162.122538 
L 136.468705 161.312127 
L 136.195012 160.929108 
L 136.142951 159.978471 
L 135.067911 164.608836 
L 134.900552 163.957958 
L 134.895638 162.893962 
L 134.872317 164.02656 
L 133.999927 167.145781 
L 133.874237 166.40294 
L 133.17093 167.051197 
L 133.043427 168.434325 
L 132.965544 167.552197 
L 132.423106 169.954286 
L 131.875014 170.2235 
L 131.572085 169.875943 
L 130.658623 171.05979 
L 130.596143 170.024884 
L 130.377922 169.344568 
L 130.053994 167.564436 
L 129.371724 167.954106 
L 128.803728 167.983815 
L 128.771953 169.524668 
L 128.717807 168.206439 
L 128.497703 167.252009 
L 128.063661 169.891839 
L 127.367326 170.165803 
L 127.341504 168.631296 
L 127.092515 167.58908 
L 126.985178 166.098068 
L 126.07826 170.238108 
L 126.069495 168.486712 
L 124.390647 168.978394 
L 123.996578 167.889525 
L 123.358907 167.330439 
L 123.301065 165.052949 
L 122.968321 163.313552 
L 121.633348 164.07869 
L 119.82496 165.813124 
L 119.40286 163.509137 
L 118.041911 163.449858 
L 117.073551 161.786051 
L 114.665675 163.510517 
L 114.493163 150.696319 
L 114.356844 141.645414 
L 112.881422 132.583311 
L 107.203425 126.178272 
M 94.499212 162.582413 
" style="fill:none;stroke:#1f77b4;stroke-dasharray:7.5,2.5;stroke-dashoffset:0;stroke-width:2.5;"/>
   </g>
   <g id="line2d_61">
    <defs>
     <path d="M -6 6 
L 6 -6 
M -6 -6 
L 6 6 
" id="mb9e9a7e85d" style="stroke:#000000;"/>
    </defs>
    <g clip-path="url(#pfc43b8071e)">
     <use style="stroke:#000000;" x="216.557387" xlink:href="#mb9e9a7e85d" y="184.200159"/>
    </g>
   </g>
   <g id="line2d_62">
    <defs>
     <path d="M -3 3 
L 3 3 
L 3 -3 
L -3 -3 
z
" id="m00373f3f47" style="stroke:#0000ff;stroke-linejoin:miter;"/>
    </defs>
    <g clip-path="url(#pfc43b8071e)">
     <use style="fill:#0000ff;stroke:#0000ff;stroke-linejoin:miter;" x="222.270859" xlink:href="#m00373f3f47" y="185.211311"/>
    </g>
   </g>
   <g id="line2d_63">
    <defs>
     <path d="M 0 3 
C 0.795609 3 1.55874 2.683901 2.12132 2.12132 
C 2.683901 1.55874 3 0.795609 3 0 
C 3 -0.795609 2.683901 -1.55874 2.12132 -2.12132 
C 1.55874 -2.683901 0.795609 -3 0 -3 
C -0.795609 -3 -1.55874 -2.683901 -2.12132 -2.12132 
C -2.683901 -1.55874 -3 -0.795609 -3 0 
C -3 0.795609 -2.683901 1.55874 -2.12132 2.12132 
C -1.55874 2.683901 -0.795609 3 0 3 
z
" id="m9e2e03e98f" style="stroke:#ff0000;"/>
    </defs>
    <g clip-path="url(#pfc43b8071e)">
     <use style="fill:#ff0000;stroke:#ff0000;" x="211.189408" xlink:href="#m9e2e03e98f" y="98.994412"/>
    </g>
   </g>
   <g id="line2d_64">
    <path clip-path="url(#pfc43b8071e)" d="M 368.332587 54.968226 
L 368.197387 54.870023 
L 368.195174 54.719016 
L 366.747754 55.38542 
L 366.722066 55.245615 
L 365.378215 55.785977 
L 365.330838 55.653471 
L 364.085951 56.100684 
L 364.018456 55.972879 
L 362.869212 56.350817 
L 362.78307 56.225987 
L 361.726675 56.552095 
L 361.62328 56.429112 
L 360.657252 56.71617 
L 360.538004 56.594305 
L 359.659687 56.851754 
L 359.525997 56.730547 
L 358.732285 56.965408 
L 358.5856 56.844581 
L 357.872687 57.062117 
L 357.714439 56.941522 
L 357.078061 57.145678 
L 356.909674 57.025251 
L 356.345047 57.219009 
L 356.167932 57.098742 
L 355.669683 57.284385 
L 355.485212 57.164301 
L 355.0477 57.343576 
L 354.857144 57.223733 
L 354.474393 57.397994 
L 354.278956 57.278457 
L 353.944928 57.448761 
L 353.693041 57.251904 
L 353.25583 57.683795 
L 353.087772 57.651813 
L 352.723399 58.021899 
L 352.551762 57.988739 
L 352.233381 58.320285 
L 352.059633 58.285854 
L 351.768179 58.59349 
L 351.592944 58.558004 
L 351.314507 58.851196 
L 351.137887 58.814985 
L 350.861666 59.100148 
L 350.683421 59.063559 
L 350.400921 59.345005 
L 350.220578 59.308363 
L 349.92475 59.589021 
L 349.741648 59.552608 
L 349.426375 59.834427 
L 349.23971 59.798458 
L 348.899785 60.082523 
L 348.708613 60.047142 
L 348.339427 60.333884 
L 348.142684 60.299152 
L 347.740007 60.588483 
L 347.600043 60.381325 
L 347.260824 60.644038 
L 347.260084 60.491608 
L 347.186893 60.668203 
L 347.139927 60.587685 
L 346.863407 60.826793 
L 346.861036 60.67713 
L 346.44035 61.016854 
L 346.436218 60.87015 
L 345.990565 61.213851 
L 345.984523 61.070312 
L 345.551109 61.342406 
L 345.544473 61.199729 
L 345.542756 61.353882 
L 345.484465 61.282735 
L 345.048274 61.550443 
L 345.039435 61.411291 
L 344.908367 61.598213 
L 344.84585 61.528986 
L 344.515883 61.764254 
L 344.504638 61.628864 
L 343.952629 61.983375 
L 343.938749 61.851991 
L 343.58789 62.085276 
L 343.48214 61.81529 
L 343.424861 62.038837 
L 343.357248 62.207289 
L 343.340476 62.080158 
L 342.945622 62.318665 
L 342.681632 62.11123 
L 342.62565 62.330115 
L 342.167093 62.57539 
L 342.099301 62.296885 
L 342.090124 62.465281 
L 342.053649 62.626105 
L 341.85146 62.37797 
L 341.789979 62.598315 
L 341.41443 62.821364 
L 341.389016 62.70558 
L 341.048303 62.920466 
L 340.987513 62.627918 
L 340.901102 62.86811 
L 340.678249 63.059843 
L 340.64867 62.949201 
L 339.901037 63.300883 
L 339.866839 63.195594 
L 338.266576 63.707612 
L 338.223701 63.610691 
L 337.985736 63.796823 
L 337.86528 63.735789 
L 336.872372 64.070893 
L 336.74051 64.008204 
L 336.332766 64.117158 
L 335.303269 64.370697 
L 333.195553 64.868832 
L 333.115007 64.798193 
L 333.055546 64.957133 
L 332.876907 64.889819 
L 331.977291 65.115336 
L 331.892258 64.895741 
L 331.315865 65.793011 
L 331.238217 65.742539 
L 330.484421 66.811676 
L 328.296502 69.654224 
L 326.815177 71.241544 
L 326.427342 71.617189 
L 326.324174 71.623305 
L 325.33204 72.933375 
L 322.722547 77.009303 
L 322.082589 77.806707 
L 320.514861 80.064965 
L 319.898424 80.634874 
L 319.785102 80.931447 
L 318.397596 82.605536 
L 315.187451 85.240433 
L 315.184529 85.086393 
L 314.949058 85.490379 
L 314.887066 85.694024 
L 313.111924 86.930537 
L 311.158872 87.71913 
L 310.97047 87.654571 
L 309.573402 88.776966 
L 309.474598 88.655479 
L 309.306819 88.666564 
L 309.001512 88.9341 
L 308.808795 88.964449 
L 308.643976 89.171537 
L 308.604425 89.052667 
L 308.425074 89.263094 
L 308.225798 89.292548 
L 308.212964 89.152358 
L 308.091723 89.363966 
L 308.04793 89.273813 
L 307.09499 90.187905 
L 306.82921 90.121245 
L 306.745643 90.351774 
L 305.336525 91.091382 
L 305.241217 90.919122 
L 305.093146 91.13616 
L 304.562835 91.552224 
L 304.521717 91.457076 
L 304.410627 91.704986 
L 303.464594 92.237639 
L 303.257754 92.236248 
L 302.867762 92.461231 
L 302.626497 92.35475 
L 302.616108 92.210079 
L 302.143788 92.78629 
L 302.071648 92.959276 
L 301.934491 92.929927 
L 300.898324 93.308247 
L 300.65515 93.097299 
L 300.454798 93.492489 
L 300.394354 93.407108 
L 299.646293 93.856724 
L 299.646102 94.014931 
L 299.48983 94.193065 
L 299.235239 94.284732 
L 299.225924 94.447126 
L 298.960037 94.636682 
L 298.432034 94.541335 
L 298.401095 94.403285 
L 297.817572 94.915619 
L 297.723923 94.803159 
L 296.805841 95.326984 
L 296.695244 95.54313 
L 296.194499 95.747996 
L 295.566735 95.691495 
L 295.547435 95.858205 
L 295.517914 95.723643 
L 295.404727 95.936095 
L 295.02689 96.041288 
L 294.99483 95.919924 
L 294.940078 96.115862 
L 294.870069 96.306582 
L 294.549201 96.509053 
L 294.12536 96.447263 
L 294.064073 96.31255 
L 293.798948 96.528031 
L 293.402396 96.677326 
L 293.401691 96.834856 
L 293.153988 96.743293 
L 292.705519 96.798654 
L 292.539533 97.155454 
L 292.532944 96.999514 
L 292.449977 96.869098 
L 292.192221 97.240118 
L 292.017266 97.310351 
L 291.881123 97.563384 
L 291.46414 97.770153 
L 291.36091 97.504187 
L 291.25279 97.684014 
L 291.013131 97.77645 
L 290.739754 98.324949 
L 290.524888 98.205587 
L 290.131019 98.817993 
L 290.09019 98.744789 
L 290.040338 99.000613 
L 287.781075 101.995528 
L 287.505189 102.664699 
L 287.503146 102.826661 
L 285.86027 104.870565 
L 285.781571 105.087926 
L 285.612467 105.196559 
L 284.889876 105.88475 
L 284.419645 106.901691 
L 284.414949 106.75194 
L 283.963315 107.984002 
L 283.465242 108.181406 
L 282.398246 110.202337 
L 282.381971 110.381637 
L 281.536579 111.615679 
L 281.091426 112.719923 
L 278.953979 117.109487 
L 278.897327 117.393877 
L 278.541305 118.174753 
L 277.735495 119.865111 
L 274.689353 125.556723 
L 274.522233 125.728746 
L 274.486727 125.637597 
L 274.215438 126.320665 
L 272.341669 129.76201 
L 271.947694 131.164639 
L 271.920413 131.373837 
L 271.864286 131.308965 
L 271.688437 131.485386 
L 271.656555 131.707061 
L 271.060868 132.853663 
L 269.429882 135.596909 
L 267.720191 139.001965 
L 267.69754 138.885333 
L 266.37671 141.20728 
L 266.31036 141.471988 
L 264.144463 144.173511 
L 263.765989 144.512357 
L 261.334825 149.041409 
L 259.252732 153.668595 
L 258.663927 154.3661 
L 258.402067 154.300193 
L 257.573473 155.599708 
L 257.539943 155.49084 
L 257.145759 156.412099 
L 255.291658 159.341584 
L 254.387919 160.7762 
L 254.343505 160.669849 
L 252.936021 162.35695 
L 251.997059 163.517556 
L 251.983756 163.370874 
L 251.94112 163.272546 
L 250.594737 165.683076 
L 250.558328 165.560172 
L 249.723231 166.714971 
L 249.01189 166.98064 
L 248.311396 167.886744 
L 247.650207 168.219277 
L 247.549746 168.480425 
L 247.29386 168.602012 
L 243.62194 172.102026 
L 242.903433 172.177851 
L 242.521793 172.719387 
L 241.726583 173.106124 
L 241.612082 173.01564 
L 241.413047 173.308595 
L 241.273137 173.084836 
L 240.759878 173.323266 
L 240.611045 173.762011 
L 239.62325 174.273205 
L 238.411492 175.069568 
L 238.332864 174.94561 
L 237.251207 175.403054 
L 236.69231 176.012094 
L 234.920465 176.34492 
L 234.642767 176.284252 
L 234.603553 176.132172 
L 234.451798 176.052864 
L 233.985896 176.631295 
L 233.471682 176.706249 
L 233.320868 176.936757 
L 233.271361 176.787323 
L 233.103648 176.712564 
L 233.069166 176.902082 
L 233.030849 176.753743 
L 232.861999 177.015289 
L 232.800715 176.881489 
L 232.4029 177.262462 
L 232.389406 177.438541 
L 232.128252 177.405942 
L 232.009727 177.632706 
L 231.932307 177.508643 
L 231.381611 177.664626 
L 231.28259 177.888408 
L 231.181758 177.777434 
L 231.007583 178.041189 
L 230.553397 178.130651 
L 230.448504 178.517671 
L 229.907608 178.541805 
L 229.604687 178.307952 
L 229.577089 178.486435 
L 229.308585 178.387386 
L 229.115944 178.592123 
L 228.469586 178.727071 
L 228.463867 178.901001 
L 227.972183 178.958937 
L 227.743844 179.229608 
L 227.676919 179.088958 
L 226.941596 179.575818 
L 226.63731 179.527414 
L 226.549691 179.729912 
L 226.134632 180.030767 
L 225.994232 179.910267 
L 225.852505 180.106843 
L 225.763481 179.954491 
L 225.506486 180.153052 
L 224.254336 180.044986 
L 224.187866 179.886649 
L 223.626711 180.139891 
L 223.61984 180.317968 
L 223.089511 180.51979 
L 223.019116 180.73973 
L 222.979663 180.592741 
L 222.963811 180.429416 
L 222.362057 180.987078 
L 219.370006 182.251568 
L 218.878686 182.796843 
L 218.571525 182.744189 
L 218.070248 183.268875 
L 217.018635 183.258267 
L 216.752981 183.169411 
L 216.692033 183.013545 
L 216.63924 183.205202 
L 215.670678 183.304039 
L 215.618397 183.493116 
L 215.420902 183.715212 
L 214.149143 183.657836 
L 213.783146 183.906502 
L 212.975833 184.205327 
L 212.560463 184.090282 
L 212.46138 184.278548 
L 211.818389 184.010563 
L 211.409441 184.23523 
L 211.391012 184.061625 
L 210.278171 184.360285 
L 209.538663 184.257614 
L 209.392709 184.446952 
L 209.231762 184.285833 
L 208.940931 184.661036 
L 208.648071 184.529363 
L 207.769902 184.472052 
L 207.421181 184.162125 
L 206.836677 184.586267 
L 206.339715 184.812383 
L 206.170521 184.303062 
L 205.782505 184.71159 
L 205.683305 184.548452 
L 205.522387 184.921878 
L 204.449104 184.522259 
L 203.818852 184.747855 
L 203.785106 184.927093 
L 203.563306 184.765495 
L 203.532326 184.58983 
L 203.447935 184.771767 
L 203.192979 184.251599 
L 202.556419 184.480364 
L 202.200095 184.335485 
L 202.135817 184.520999 
L 202.094482 184.344884 
L 201.864963 184.544216 
L 200.905184 184.277391 
L 200.733943 183.930623 
L 200.654476 184.12152 
L 200.535739 183.952332 
L 200.307225 184.160121 
L 200.043563 183.84494 
L 199.900431 184.054613 
L 199.845986 183.880674 
L 199.68739 184.090326 
L 199.569194 183.741507 
L 199.557711 183.928952 
L 198.420784 184.810738 
L 198.002571 184.679892 
L 197.647935 184.899108 
L 197.291906 184.397719 
L 196.923674 184.266348 
L 196.659945 183.932905 
L 196.368585 184.155263 
L 196.289005 183.979689 
L 196.232248 184.172881 
L 196.172956 183.995592 
L 195.917396 184.216027 
L 195.858035 184.591972 
L 195.767386 184.420623 
L 195.571766 184.62866 
L 195.541773 184.448831 
L 194.88076 184.706529 
L 194.792967 184.53668 
L 194.430767 184.755447 
L 194.307055 184.583969 
L 193.936731 184.440512 
L 193.849744 184.633586 
L 193.615734 184.470858 
L 193.460803 184.669671 
L 192.589947 184.567619 
L 192.500012 184.759363 
L 192.426844 184.395161 
L 192.409524 184.582673 
L 191.878519 184.808114 
L 191.869839 184.623892 
L 191.708177 184.819325 
L 191.185748 184.669519 
L 190.803363 184.144704 
L 190.802092 183.955732 
L 190.359748 184.189328 
L 190.329705 184.003649 
L 189.772043 184.617931 
L 189.404308 184.276041 
L 189.221023 184.665011 
L 188.939907 184.315277 
L 188.920426 184.128561 
L 188.137575 183.845984 
L 188.072753 184.044328 
L 187.66031 183.899391 
L 187.511073 184.10504 
L 187.37569 183.935178 
L 186.836023 184.373668 
L 186.324311 184.241399 
L 186.248944 184.439335 
L 185.943512 184.089747 
L 185.748272 183.918492 
L 185.714905 183.729013 
L 185.273291 183.40575 
L 185.201416 183.806713 
L 185.143805 183.620008 
L 184.949445 183.255463 
L 184.898544 183.066474 
L 184.718544 182.905467 
L 184.43806 183.353237 
L 184.230135 183.001462 
L 183.937096 183.260729 
L 183.719637 182.90937 
L 183.703186 182.711365 
L 183.619391 182.929922 
L 183.598426 182.732325 
L 183.104447 182.634929 
L 183.072823 182.844319 
L 183.007789 182.657396 
L 182.939337 181.85195 
L 182.836098 182.092203 
L 182.498965 182.403341 
L 182.229587 182.276432 
L 181.694915 183.039161 
L 181.622032 183.260561 
L 181.62127 183.057629 
L 181.170924 182.816055 
L 180.749358 183.124235 
L 180.701036 182.931571 
L 180.636945 183.15443 
L 180.188939 183.470346 
L 180.052594 183.705695 
L 179.76504 183.581383 
L 178.861112 184.005996 
L 178.764321 183.826585 
L 178.256458 184.142551 
L 178.166737 183.96267 
L 177.897657 184.230354 
L 177.771721 184.071715 
L 177.723532 184.284158 
L 177.458549 183.932527 
L 177.237723 184.184869 
L 176.864043 184.075429 
L 176.802778 184.294262 
L 176.72002 184.110033 
L 176.556547 184.347664 
L 176.213352 184.212113 
L 175.211695 184.777549 
L 174.87108 184.232914 
L 174.374637 184.154039 
L 174.299868 183.964371 
L 174.247119 184.184337 
L 173.918444 183.6335 
L 173.881973 183.430892 
L 173.847809 183.651864 
L 173.640807 183.897382 
L 173.511712 183.707478 
L 172.917969 183.588308 
L 172.756984 182.975617 
L 171.921075 183.86568 
L 171.465166 183.559621 
L 171.458608 183.776427 
L 171.439097 183.566869 
L 171.279961 183.395865 
L 170.849453 183.29935 
L 170.770884 183.102041 
L 170.565613 183.597056 
L 170.388137 183.432655 
L 170.386516 183.651148 
L 169.909611 183.580767 
L 169.669728 183.231415 
L 169.661346 183.012105 
L 169.335365 182.908249 
L 169.202534 183.178836 
L 168.909451 183.060469 
L 168.901727 183.287127 
L 168.779023 183.549002 
L 168.549605 183.178368 
L 168.176975 183.515358 
L 168.093873 183.762139 
L 167.952702 183.133773 
L 167.885957 183.380719 
L 167.636337 183.672998 
L 167.182842 184.012342 
L 167.122874 183.805583 
L 166.643248 183.283175 
L 166.637247 183.056448 
L 166.452759 183.343542 
L 166.411948 183.127918 
L 166.383127 183.365581 
L 165.445213 183.414771 
L 165.022952 183.754695 
L 164.674846 183.613582 
L 164.64351 183.848992 
L 164.582783 183.634642 
L 164.21642 183.492831 
L 163.966772 182.854548 
L 163.797091 183.134742 
L 163.73898 182.679366 
L 163.416231 183.012291 
L 163.321889 183.273226 
L 163.152592 182.850388 
L 162.747658 182.5149 
L 162.50557 182.834648 
L 162.466077 182.606948 
L 162.399676 182.866322 
L 162.295484 183.130821 
L 162.005014 182.728515 
L 161.857566 182.52495 
L 161.851034 182.282724 
L 161.789452 182.781984 
L 161.688358 182.317165 
L 161.406707 182.137917 
L 160.985249 182.468823 
L 160.78911 182.28336 
L 160.78655 182.529799 
L 160.541986 182.36607 
L 160.468297 182.635322 
L 160.244638 182.459478 
L 160.066798 182.022411 
L 159.660435 181.154745 
L 159.372063 181.764698 
L 159.360785 181.513414 
L 159.232574 181.303412 
L 159.100019 181.854224 
L 158.644061 181.724933 
L 158.643333 181.467789 
L 158.184054 181.373062 
L 157.795746 181.76012 
L 157.457299 181.641848 
L 157.34167 181.427867 
L 157.243775 181.725661 
L 157.185125 181.487629 
L 156.83917 181.3829 
L 156.786006 181.6697 
L 156.216807 181.526818 
L 156.045699 181.90492 
L 155.799324 181.813622 
L 155.544192 181.464932 
L 155.052593 181.578475 
L 154.637875 182.409197 
L 154.488869 182.244622 
L 154.392551 182.57905 
L 154.154863 182.201524 
L 154.021269 181.466241 
L 153.920586 181.260841 
L 153.883768 181.570058 
L 153.857069 181.308545 
L 153.811185 181.061017 
L 153.766944 181.378883 
L 153.666723 181.17866 
L 153.519567 181.858649 
L 153.356528 181.435402 
L 153.219732 181.831161 
L 153.217227 181.549174 
L 153.189045 181.287998 
L 153.126249 181.627635 
L 152.884833 181.55108 
L 152.793978 180.469002 
L 152.685327 179.980267 
L 152.628791 179.737604 
L 152.588145 180.087599 
L 152.535348 179.840858 
L 152.528669 179.540919 
L 152.517279 179.862893 
L 152.177167 179.975882 
L 152.057448 179.809892 
L 151.787903 179.844712 
L 151.660047 179.692812 
L 151.578589 180.108372 
L 151.109557 180.342738 
L 151.075646 179.740206 
L 150.692749 179.559769 
L 150.584472 179.025742 
L 150.421141 179.888364 
L 150.1911 179.821031 
L 150.174027 180.173551 
L 150.102553 179.924554 
L 149.935992 179.792584 
L 149.679276 180.767304 
L 149.459809 181.671778 
L 149.447961 181.358495 
L 149.189703 181.316979 
L 149.161866 181.676209 
L 149.146265 181.363118 
L 148.995597 181.850698 
L 148.986228 181.531051 
L 148.898078 181.29844 
L 148.563244 181.337088 
L 148.537737 181.701177 
L 148.468819 181.439849 
L 148.256326 181.335211 
L 148.118273 180.801334 
L 148.008076 181.614164 
L 147.95578 181.328454 
L 147.532798 181.116057 
L 147.454721 181.55479 
L 147.44925 181.21008 
L 147.162995 181.211226 
L 147.1339 181.600705 
L 147.131619 181.248684 
L 146.939504 181.136507 
L 146.633513 180.421518 
L 146.137014 180.661387 
L 146.042122 180.403088 
L 145.77065 180.366872 
L 145.58477 181.360727 
L 145.581084 180.986099 
L 145.507303 180.697634 
L 145.494755 181.097544 
L 145.473769 180.741 
L 145.248246 179.85236 
L 145.219045 179.080482 
L 145.21698 179.490709 
L 145.060854 179.285224 
L 145.039751 179.719933 
L 144.68099 179.375724 
L 144.635473 179.018256 
L 144.229987 178.721172 
L 144.17443 177.927069 
L 144.038621 178.570196 
L 143.739254 177.683143 
L 143.297921 177.423396 
L 143.282058 177.912031 
L 143.272237 177.461224 
L 142.987511 177.423085 
L 142.855331 176.67373 
L 142.833082 176.709751 
L 142.817184 176.242075 
L 142.441977 176.363495 
L 142.40866 176.917916 
L 141.850507 177.318294 
L 141.803619 177.892894 
L 141.757091 177.466723 
L 141.66995 178.106859 
L 141.129995 176.40858 
L 141.022668 177.130368 
L 141.013099 176.613702 
L 140.910229 176.260093 
L 140.437147 176.571873 
L 140.262581 176.341437 
L 140.183674 177.049248 
L 140.113549 176.621026 
L 139.863884 176.526183 
L 139.831882 176.007492 
L 139.732386 176.77856 
L 139.305033 175.222864 
L 139.044462 176.335742 
L 138.579695 177.797038 
L 138.559123 177.232713 
L 138.35163 178.206745 
L 138.324915 177.652239 
L 138.322785 178.258068 
L 138.228617 177.822508 
L 137.867588 177.847367 
L 137.417861 178.041358 
L 137.137672 177.924082 
L 137.074278 176.730931 
L 136.528212 176.486543 
L 136.374396 175.385543 
L 135.625516 177.670787 
L 135.538991 177.129199 
L 135.340624 176.806303 
L 135.267706 177.693811 
L 135.142575 177.228204 
L 135.117096 176.52935 
L 134.71323 176.634191 
L 134.36467 175.785753 
L 133.785453 176.199124 
L 133.483427 176.002204 
L 133.246098 178.188229 
L 133.16254 176.681913 
L 133.06436 176.889527 
L 132.844965 176.477164 
L 132.510585 178.041214 
L 132.481577 177.225785 
L 132.089999 177.126702 
L 131.830602 175.795042 
L 130.92892 176.754455 
L 130.887884 175.831281 
L 130.411464 175.785471 
L 130.364977 176.923184 
L 130.057233 175.481126 
L 129.847105 172.517077 
L 129.472048 172.20753 
L 129.23784 171.51869 
L 127.533903 174.618227 
L 127.32326 173.763494 
L 126.830657 173.570576 
L 125.182456 176.352257 
L 125.080128 175.022587 
L 123.684905 177.038772 
L 123.606119 175.471665 
L 123.476074 177.58474 
L 123.453538 175.871105 
L 123.054894 175.089203 
L 122.845834 173.674412 
L 122.063853 173.749304 
L 121.744175 172.382257 
L 118.210898 179.770039 
L 117.352938 179.494658 
L 115.900877 177.476276 
L 115.718515 174.527593 
L 114.705632 173.482822 
L 114.407948 169.934145 
L 111.41034 173.476572 
L 109.391957 173.274731 
L 107.186274 172.294138 
L 98.330974 188.272814 
L 97.688023 176.811614 
L 93.89111 165.04131 
L 93.89111 165.04131 
" style="fill:none;stroke:#ff7f0e;stroke-dasharray:2500,2.5;stroke-dashoffset:0;stroke-width:2.5;"/>
   </g>
   <g id="line2d_65">
    <g clip-path="url(#pfc43b8071e)">
     <use style="stroke:#000000;" x="199.575791" xlink:href="#mb9e9a7e85d" y="183.924866"/>
    </g>
   </g>
   <g id="line2d_66">
    <g clip-path="url(#pfc43b8071e)">
     <use style="fill:#0000ff;stroke:#0000ff;stroke-linejoin:miter;" x="98.330974" xlink:href="#m00373f3f47" y="188.272814"/>
    </g>
   </g>
   <g id="line2d_67">
    <g clip-path="url(#pfc43b8071e)">
     <use style="fill:#ff0000;stroke:#ff0000;" x="209.703473" xlink:href="#m9e2e03e98f" y="96.931985"/>
    </g>
   </g>
   <g id="line2d_68">
    <path clip-path="url(#pfc43b8071e)" d="M 373.581818 44.443636 
L 372.834751 44.718627 
L 372.826566 44.575722 
L 371.683202 45.311214 
L 371.662419 45.180661 
L 370.524192 45.834629 
L 370.490633 45.714242 
L 369.354051 46.297504 
L 369.307379 46.185359 
L 368.169151 46.707266 
L 368.108871 46.601656 
L 366.965738 47.070342 
L 366.891187 46.969747 
L 365.739895 47.392273 
L 365.650175 47.295371 
L 364.487401 47.677853 
L 364.381413 47.583451 
L 363.203583 47.931236 
L 363.079927 47.838285 
L 361.883124 48.15602 
L 361.740072 48.063584 
L 360.520024 48.355305 
L 360.355434 48.262549 
L 359.107186 48.531786 
L 358.918385 48.437963 
L 357.63599 48.687803 
L 357.419606 48.592248 
L 356.587196 48.950118 
L 356.578033 48.8061 
L 356.371331 49.097832 
L 356.170944 49.100499 
L 354.872989 50.028124 
L 354.830684 49.911163 
L 353.787271 50.59796 
L 353.509232 50.609293 
L 353.193532 50.904647 
L 353.120398 50.806064 
L 351.424261 51.625205 
L 351.358198 51.393991 
L 351.211872 51.618874 
L 349.702577 52.238645 
L 349.564846 52.158673 
L 349.364206 52.365953 
L 348.997552 52.359453 
L 348.026636 52.743134 
L 347.858991 52.667879 
L 347.290882 52.940086 
L 346.878547 52.923205 
L 346.334299 53.176064 
L 346.136523 53.103478 
L 345.272122 53.397541 
L 344.816643 53.370683 
L 344.615497 53.552264 
L 344.308179 53.489041 
L 343.71012 54.390211 
L 341.147346 57.780106 
L 340.718687 58.134724 
L 340.48647 58.568078 
L 338.377175 60.92336 
L 336.475714 62.747755 
L 333.272019 67.639383 
L 332.967451 67.910733 
L 332.900661 68.153893 
L 329.745583 71.665785 
L 329.695983 71.574924 
L 328.462529 72.979824 
L 327.882393 73.353718 
L 326.174385 74.774694 
L 326.006445 74.799589 
L 324.156916 76.356415 
L 323.547937 76.606312 
L 323.24773 76.90034 
L 322.788674 76.956411 
L 322.690513 76.700564 
L 322.285637 77.104638 
L 322.238538 76.996676 
L 322.201415 76.894565 
L 321.720029 77.420778 
L 321.698877 77.295779 
L 321.12775 77.799195 
L 320.365801 78.233766 
L 319.728553 78.440385 
L 319.635155 78.626419 
L 319.586367 78.502733 
L 318.789783 79.040239 
L 318.189981 79.411532 
L 318.174409 79.271033 
L 317.823626 79.735963 
L 317.817608 79.586495 
L 317.597867 79.958655 
L 317.554223 79.8176 
L 317.304509 79.741118 
L 317.297916 79.593869 
L 317.197064 79.782787 
L 316.628884 80.220212 
L 316.612715 80.08643 
L 315.902538 80.730203 
L 315.879533 80.605801 
L 315.875255 80.76675 
L 315.209643 81.078626 
L 315.171632 80.958933 
L 315.137484 81.122511 
L 314.247869 81.75758 
L 314.194241 81.646983 
L 314.167383 81.807394 
L 313.913124 81.720552 
L 313.350209 82.189472 
L 313.301985 82.0977 
L 313.14807 82.293176 
L 312.594809 82.166987 
L 312.558417 82.06947 
L 312.294769 82.602165 
L 311.398723 83.086258 
L 311.18869 82.923056 
L 311.021764 83.164697 
L 310.971304 83.087727 
L 310.884654 83.070019 
L 310.721714 83.478996 
L 309.992175 83.848109 
L 309.321636 84.020345 
L 309.044785 84.379243 
L 308.881696 84.571694 
L 308.711603 84.382969 
L 307.510274 84.826492 
L 307.194477 85.34874 
L 306.376119 85.603138 
L 306.241431 85.422145 
L 305.299732 85.920501 
L 305.000208 86.247042 
L 304.892334 86.535628 
L 302.796784 89.309657 
L 302.648829 89.254197 
L 302.636459 89.126414 
L 302.431136 89.841778 
L 302.387371 89.75423 
L 300.895223 91.964708 
L 300.609729 92.247865 
L 300.609176 92.090877 
L 300.600488 92.262089 
L 299.454103 94.358732 
L 299.432736 94.244077 
L 298.66283 95.376837 
L 298.26239 96.15641 
L 298.222435 96.050804 
L 297.135445 97.723222 
L 297.125374 97.587839 
L 296.971795 98.320968 
L 295.612864 99.597847 
L 295.522701 99.480336 
L 294.55692 101.105326 
L 294.187403 101.539125 
L 293.547956 102.252691 
L 293.472355 102.176943 
L 292.952704 103.326507 
L 292.909963 103.517379 
L 292.722334 103.551318 
L 292.545569 103.699378 
L 292.467295 103.938706 
L 291.350043 104.916588 
L 291.348878 104.759385 
L 290.473152 106.561422 
L 290.148554 106.892739 
L 290.006493 106.719689 
L 288.65133 109.067146 
L 288.537406 109.159273 
L 286.9571 112.049151 
L 286.873342 112.049169 
L 286.347131 113.075896 
L 284.172718 116.115169 
L 284.170727 115.959607 
L 282.634847 118.578444 
L 281.966791 119.4235 
L 281.362997 119.849249 
L 279.615523 121.86081 
L 279.405253 122.387711 
L 278.756702 123.641564 
L 277.573169 124.926052 
L 275.503396 127.073553 
L 274.939707 127.338747 
L 274.669406 127.671667 
L 274.458541 127.51372 
L 274.065072 127.996502 
L 273.740823 128.213056 
L 272.3503 130.391773 
L 272.024837 130.87999 
L 271.995835 130.575873 
L 271.617068 130.920525 
L 271.611788 130.765153 
L 271.562872 130.948398 
L 270.701309 131.435463 
L 269.094006 132.607119 
L 269.073645 132.462181 
L 268.953929 132.434732 
L 268.763789 132.801926 
L 268.330839 133.131492 
L 267.793982 133.90596 
L 266.776096 134.646828 
L 266.725447 134.824502 
L 266.54477 134.75954 
L 266.31886 134.996634 
L 266.078311 134.963283 
L 265.971054 134.723642 
L 265.74707 135.12077 
L 265.365127 134.981506 
L 264.699491 135.179655 
L 263.542352 136.226842 
L 263.425586 136.147633 
L 263.128424 136.290025 
L 262.702488 137.135584 
L 262.381249 137.169336 
L 262.186093 137.438612 
L 262.17216 137.285367 
L 261.879423 137.590887 
L 261.673066 137.560119 
L 261.622093 137.429779 
L 261.34234 137.856015 
L 260.384884 139.14042 
L 260.163942 139.734583 
L 260.117753 139.663244 
L 259.998471 139.739565 
L 259.391635 140.853394 
L 259.227284 141.010488 
L 259.095628 141.425893 
L 258.655934 142.340192 
L 257.551946 144.159029 
L 257.517721 144.408032 
L 256.834374 145.738196 
L 254.996472 150.442164 
L 254.86532 150.438964 
L 254.584479 150.62988 
L 254.447433 150.924052 
L 253.3535 151.993762 
L 253.305028 152.248868 
L 252.873437 153.003516 
L 252.491985 153.533849 
L 252.204056 154.033202 
L 251.506875 155.059511 
L 251.429333 155.078183 
L 250.925015 156.13329 
L 250.589482 157.092927 
L 249.363962 159.94508 
L 249.306486 160.240883 
L 249.057518 160.637917 
L 248.269379 162.391825 
L 247.873449 163.064573 
L 246.532371 165.94892 
L 245.74291 167.153849 
L 245.53927 167.632261 
L 245.046644 168.094179 
L 244.626223 168.946848 
L 244.189551 169.471609 
L 244.126725 169.729658 
L 244.050577 169.672973 
L 243.863539 170.106166 
L 243.659289 170.240011 
L 243.602999 170.479601 
L 243.268343 171.229597 
L 243.208144 171.141604 
L 243.056927 171.169995 
L 242.688758 171.319315 
L 242.612639 171.082077 
L 242.553744 171.329811 
L 242.005103 172.486952 
L 241.952047 172.702845 
L 241.776364 172.710855 
L 241.751372 172.899627 
L 241.679375 172.822267 
L 241.077271 173.381595 
L 241.042687 173.254755 
L 240.704304 173.814615 
L 240.357829 174.038377 
L 239.964543 174.629617 
L 239.440585 175.186216 
L 239.42763 175.035177 
L 239.140861 175.251692 
L 238.230366 176.181894 
L 237.583402 177.191845 
L 237.151427 177.55332 
L 236.892057 178.033051 
L 235.711011 179.667396 
L 234.96615 180.23055 
L 234.842212 180.175954 
L 233.244543 181.859591 
L 231.846163 182.658951 
L 230.73658 183.460744 
L 230.604052 183.361091 
L 230.48437 183.591792 
L 229.611381 183.867337 
L 229.277027 183.853557 
L 228.809221 184.228557 
L 228.789686 184.066391 
L 228.329611 184.423812 
L 228.136795 184.33024 
L 227.929246 184.580101 
L 227.682459 184.160392 
L 226.869939 184.629611 
L 225.159005 185.474817 
L 224.719297 185.414079 
L 224.472881 185.642506 
L 222.363015 185.733592 
L 222.257438 185.58303 
L 222.195733 185.767591 
L 221.57578 185.547277 
L 221.361535 185.759799 
L 220.837684 186.020678 
L 220.120888 185.969738 
L 219.34598 186.423195 
L 218.288975 186.029049 
L 218.283475 185.855692 
L 217.59622 185.766482 
L 217.215221 185.980746 
L 217.071198 186.340473 
L 216.916724 185.832804 
L 214.686863 186.515786 
L 214.197411 186.373381 
L 214.19132 186.199733 
L 213.740842 186.577096 
L 213.563982 186.415728 
L 213.182172 186.612005 
L 212.772385 186.465682 
L 212.725753 186.299636 
L 212.590893 186.494902 
L 212.040051 186.40269 
L 211.903766 186.248201 
L 210.431796 186.579713 
L 210.111179 186.261497 
L 209.974875 186.098681 
L 209.255742 186.339715 
L 208.921602 186.190068 
L 208.647191 186.563707 
L 207.696777 186.45344 
L 207.480935 186.642498 
L 206.424206 186.550763 
L 206.088071 186.743491 
L 205.57684 186.592187 
L 205.104251 186.785456 
L 205.099339 186.60976 
L 204.829465 186.454778 
L 204.553586 186.64942 
L 204.331507 186.486625 
L 203.306486 186.201953 
L 203.232045 186.56086 
L 203.100192 186.392731 
L 202.553038 186.270924 
L 202.214699 186.655239 
L 202.194202 186.833416 
L 202.131758 186.660509 
L 201.69081 186.509907 
L 201.592013 186.157705 
L 201.004947 186.022493 
L 200.490143 186.415193 
L 198.944392 186.641138 
L 198.583305 186.473256 
L 197.639992 186.322328 
L 197.456517 186.506401 
L 197.04117 186.159826 
L 196.819222 186.527601 
L 196.567852 186.366647 
L 196.074419 186.220742 
L 195.827917 185.884664 
L 195.395213 186.28976 
L 195.203891 185.955092 
L 194.753514 186.214443 
L 194.609324 185.690221 
L 194.246902 185.580437 
L 194.196931 185.776067 
L 194.002869 185.989099 
L 193.775704 185.836242 
L 193.362026 186.234714 
L 192.753012 186.075905 
L 192.636685 185.898331 
L 192.604643 186.085072 
L 191.653061 186.319076 
L 191.578249 186.505288 
L 190.700348 187.076358 
L 190.40304 186.725564 
L 190.317543 186.547428 
L 190.093202 186.384396 
L 190.080946 186.568206 
L 190.013602 186.391053 
L 189.704053 186.766855 
L 189.523263 186.591443 
L 189.28977 186.780454 
L 188.751286 185.710424 
L 188.728618 185.52504 
L 188.727172 185.713247 
L 187.826414 186.173838 
L 187.146217 186.061038 
L 186.998373 186.260398 
L 186.790075 185.907159 
L 186.748367 186.097122 
L 186.739001 185.911554 
L 186.702518 185.72928 
L 186.582224 185.929638 
L 186.170312 185.597127 
L 185.578492 186.031447 
L 184.958012 185.71858 
L 184.730111 185.938946 
L 184.729159 186.12711 
L 184.220437 186.0041 
L 184.053084 185.646378 
L 183.894179 185.855877 
L 183.829215 185.48399 
L 183.828561 185.67542 
L 183.692824 185.313892 
L 183.473814 185.541143 
L 183.289361 185.188971 
L 182.412109 185.932522 
L 182.094207 185.783909 
L 181.555074 186.039779 
L 181.406144 186.245761 
L 181.377984 186.058753 
L 180.918555 185.744324 
L 180.918072 185.550811 
L 180.78704 185.377599 
L 180.698089 185.777989 
L 180.639998 185.592484 
L 180.574576 185.211313 
L 180.085231 185.475821 
L 179.967406 185.686147 
L 179.70248 185.330473 
L 179.602608 185.146223 
L 179.417976 185.365403 
L 178.964036 185.039704 
L 178.822238 185.458009 
L 178.661851 185.673288 
L 178.54318 185.508796 
L 178.40352 185.937616 
L 178.034282 185.829591 
L 177.993781 185.643436 
L 177.636767 186.299344 
L 177.490271 185.942038 
L 177.388131 186.15686 
L 177.376351 185.964456 
L 177.23469 185.797004 
L 177.173929 185.419859 
L 177.040822 185.069319 
L 177.039383 185.270545 
L 176.93328 185.900455 
L 176.262242 186.239067 
L 175.932191 186.115073 
L 175.789673 186.531386 
L 175.194613 185.911804 
L 175.150825 185.72907 
L 175.050862 185.961633 
L 174.705116 185.477858 
L 174.310734 185.41553 
L 174.223746 185.241392 
L 174.148368 185.469028 
L 174.061074 185.291111 
L 173.922113 185.536751 
L 173.863702 185.351112 
L 173.581541 185.031385 
L 173.565468 184.829277 
L 173.446955 185.083059 
L 172.798032 185.509074 
L 172.643608 185.15034 
L 172.409565 185.437373 
L 172.200651 185.095735 
L 172.195803 185.307148 
L 172.164088 185.10915 
L 172.056177 184.726932 
L 171.933972 184.348587 
L 171.71633 184.23097 
L 171.510033 184.53637 
L 171.38085 184.159443 
L 171.352395 183.955059 
L 171.330078 184.184523 
L 171.023435 185.167853 
L 171.016059 184.956737 
L 170.943533 184.552844 
L 170.590693 184.892419 
L 170.203458 184.806698 
L 169.997795 185.089624 
L 169.702046 184.754966 
L 169.406192 185.28416 
L 169.393891 185.071489 
L 169.289091 184.888434 
L 169.210737 185.131384 
L 168.890399 185.443428 
L 168.885246 185.22862 
L 167.972152 185.322884 
L 167.95061 185.110653 
L 167.800111 184.941189 
L 167.587097 185.449919 
L 167.433363 185.061355 
L 167.268215 185.557085 
L 167.233032 185.352303 
L 167.130989 185.610508 
L 166.062322 185.332558 
L 165.253633 185.160754 
L 165.112182 184.986779 
L 164.372673 184.573806 
L 164.265107 184.144992 
L 163.78654 184.121657 
L 163.647492 184.650112 
L 163.641714 184.417351 
L 163.507536 183.761486 
L 163.226696 184.115346 
L 162.89523 183.762677 
L 162.254542 183.762483 
L 162.13674 183.560561 
L 161.603161 184.473367 
L 161.382488 183.815725 
L 161.161082 184.133597 
L 161.157795 183.888876 
L 160.745851 184.498347 
L 160.448946 184.342572 
L 160.334285 184.131415 
L 159.759681 183.81079 
L 159.072518 184.253482 
L 159.061318 184.503897 
L 158.922023 184.291872 
L 158.645848 184.114532 
L 158.584827 183.883937 
L 158.571852 184.139693 
L 158.335158 183.967825 
L 158.096204 184.539848 
L 158.082523 184.294124 
L 157.925499 184.090401 
L 157.525959 183.958943 
L 157.4224 183.736324 
L 157.187496 184.310861 
L 157.148039 184.068023 
L 157.006697 183.344883 
L 156.382897 182.558381 
L 156.035122 182.472242 
L 155.954872 182.243781 
L 155.8376 182.577585 
L 155.631858 182.942456 
L 155.589446 182.696341 
L 155.12071 182.425411 
L 155.106407 182.157079 
L 154.354701 182.348051 
L 154.289066 182.665645 
L 154.080866 182.50704 
L 154.016506 181.984205 
L 153.826906 181.250178 
L 153.60334 181.12075 
L 153.378031 181.575076 
L 153.310752 181.331521 
L 153.262132 181.661933 
L 153.241179 181.383558 
L 153.168799 180.842683 
L 152.982632 181.284322 
L 152.682159 181.210807 
L 152.276665 180.293587 
L 151.521546 181.755781 
L 151.370852 182.455643 
L 151.121841 182.315607 
L 150.833435 181.889457 
L 150.8243 182.200204 
L 150.670306 181.684307 
L 150.362507 182.490182 
L 150.259406 181.949993 
L 150.222588 181.351738 
L 150.020294 181.805335 
L 149.990887 181.512773 
L 149.964461 182.155584 
L 149.648234 181.764727 
L 149.490671 181.563172 
L 149.214488 182.382392 
L 149.178758 182.095295 
L 149.100044 182.467017 
L 149.084504 182.164534 
L 148.525728 182.262997 
L 148.25791 181.821575 
L 148.255641 181.496837 
L 148.052233 181.331677 
L 148.045559 181.003892 
L 147.732516 180.965582 
L 147.424984 180.579176 
L 147.172859 181.168213 
L 147.146441 180.851495 
L 146.801143 180.513725 
L 146.454707 180.532237 
L 146.38761 180.603261 
L 146.226675 179.701244 
L 145.963174 179.272506 
L 145.938657 178.925237 
L 145.669638 179.650387 
L 145.581624 179.38529 
L 145.574823 179.773232 
L 145.504299 179.484349 
L 145.099633 179.614531 
L 144.967532 179.018237 
L 144.886512 178.334169 
L 144.741262 178.946434 
L 144.501339 178.906605 
L 144.471649 178.54435 
L 144.22953 178.502361 
L 144.069011 178.326422 
L 143.971823 179.298904 
L 143.803278 178.717899 
L 143.708061 178.013294 
L 143.447872 177.999256 
L 143.269684 177.842327 
L 142.35517 178.338976 
L 142.286867 177.983137 
L 141.955955 178.030762 
L 141.75328 177.881622 
L 141.653568 177.559622 
L 141.211552 177.759703 
L 141.140994 178.353075 
L 140.820197 177.388282 
L 140.504868 177.436693 
L 140.488686 178.474149 
L 140.430231 178.073756 
L 140.238501 176.862704 
L 140.029372 176.701768 
L 139.935108 176.335671 
L 139.842419 177.047758 
L 139.642978 175.774759 
L 139.382201 175.71661 
L 139.188956 174.342298 
L 139.061099 173.994142 
L 138.66927 174.201513 
L 138.635491 174.897268 
L 138.604606 174.33936 
L 138.181827 175.873138 
L 137.964123 173.783983 
L 137.668653 175.11619 
L 137.43532 174.981631 
L 137.424775 174.328946 
L 136.297524 176.149659 
L 135.875843 176.357957 
L 135.622899 176.177854 
L 135.498083 174.188134 
L 135.420306 173.570509 
L 134.854285 174.063039 
L 134.27475 171.029881 
L 133.777461 170.313108 
L 133.65901 169.594032 
L 133.654743 168.563017 
L 133.443948 168.042328 
L 133.385219 169.271634 
L 133.374272 168.224345 
L 132.238263 172.238806 
L 132.228562 171.188016 
L 132.008267 170.647468 
L 131.999301 169.519321 
L 131.460383 169.726348 
L 131.3888 168.675831 
L 130.843218 168.81716 
L 130.336522 167.479141 
L 130.199001 169.259531 
L 129.913793 171.386835 
L 129.800979 168.963377 
L 128.8202 173.048669 
L 126.357907 178.487316 
L 125.885907 178.331451 
L 125.112728 178.929287 
L 123.632982 181.368666 
L 123.225804 180.789703 
L 120.861391 185.319795 
L 120.751129 183.742948 
L 120.07257 183.588828 
L 119.879017 182.008439 
L 119.234962 181.543071 
L 118.196094 182.051121 
L 116.725995 183.612567 
L 116.426877 181.61535 
L 115.747098 180.439217 
L 112.126225 187.375312 
L 106.706097 199.013535 
L 103.831459 202.801833 
L 100.799224 206.373265 
L 100.613827 200.921162 
L 99.998886 195.37532 
L 98.268876 207.66044 
L 97.097356 216.978157 
L 94.631834 217.998952 
L 90.171529 236.334719 
L 88.728057 234.366738 
L 88.204427 228.494105 
L 85.544759 226.563648 
L 75.556007 242.116364 
L 69.218182 237.680502 
L 69.218182 237.680502 
" style="fill:none;stroke:#2ca02c;stroke-dasharray:5,2.5,25,2.5;stroke-dashoffset:0;stroke-width:2.5;"/>
   </g>
   <g id="line2d_69">
    <g clip-path="url(#pfc43b8071e)">
     <use style="stroke:#000000;" x="206.424206" xlink:href="#mb9e9a7e85d" y="186.550763"/>
    </g>
   </g>
   <g id="line2d_70">
    <g clip-path="url(#pfc43b8071e)">
     <use style="fill:#0000ff;stroke:#0000ff;stroke-linejoin:miter;" x="75.556007" xlink:href="#m00373f3f47" y="242.116364"/>
    </g>
   </g>
   <g id="line2d_71">
    <g clip-path="url(#pfc43b8071e)">
     <use style="fill:#ff0000;stroke:#ff0000;" x="215.341186" xlink:href="#m9e2e03e98f" y="89.858128"/>
    </g>
   </g>
   <g id="patch_3">
    <path d="M 54 252 
L 54 34.56 
" style="fill:none;stroke:#000000;stroke-linecap:square;stroke-linejoin:miter;stroke-width:0.8;"/>
   </g>
   <g id="patch_4">
    <path d="M 388.8 252 
L 388.8 34.56 
" style="fill:none;stroke:#000000;stroke-linecap:square;stroke-linejoin:miter;stroke-width:0.8;"/>
   </g>
   <g id="patch_5">
    <path d="M 54 252 
L 388.8 252 
" style="fill:none;stroke:#000000;stroke-linecap:square;stroke-linejoin:miter;stroke-width:0.8;"/>
   </g>
   <g id="patch_6">
    <path d="M 54 34.56 
L 388.8 34.56 
" style="fill:none;stroke:#000000;stroke-linecap:square;stroke-linejoin:miter;stroke-width:0.8;"/>
   </g>
   <g id="text_15">
    <!-- GCV function for $\ell_1$ trend filter ($\sigma = 0.1$) -->
    <defs>
     <path id="DejaVuSans-32"/>
     <path d="M 37.109375 75.984375 
L 37.109375 68.5 
L 28.515625 68.5 
Q 23.6875 68.5 21.796875 66.546875 
Q 19.921875 64.59375 19.921875 59.515625 
L 19.921875 54.6875 
L 34.71875 54.6875 
L 34.71875 47.703125 
L 19.921875 47.703125 
L 19.921875 0 
L 10.890625 0 
L 10.890625 47.703125 
L 2.296875 47.703125 
L 2.296875 54.6875 
L 10.890625 54.6875 
L 10.890625 58.5 
Q 10.890625 67.625 15.140625 71.796875 
Q 19.390625 75.984375 28.609375 75.984375 
z
" id="DejaVuSans-102"/>
     <path d="M 8.5 21.578125 
L 8.5 54.6875 
L 17.484375 54.6875 
L 17.484375 21.921875 
Q 17.484375 14.15625 20.5 10.265625 
Q 23.53125 6.390625 29.59375 6.390625 
Q 36.859375 6.390625 41.078125 11.03125 
Q 45.3125 15.671875 45.3125 23.6875 
L 45.3125 54.6875 
L 54.296875 54.6875 
L 54.296875 0 
L 45.3125 0 
L 45.3125 8.40625 
Q 42.046875 3.421875 37.71875 1 
Q 33.40625 -1.421875 27.6875 -1.421875 
Q 18.265625 -1.421875 13.375 4.4375 
Q 8.5 10.296875 8.5 21.578125 
z
M 31.109375 56 
z
" id="DejaVuSans-117"/>
     <path d="M 54.890625 33.015625 
L 54.890625 0 
L 45.90625 0 
L 45.90625 32.71875 
Q 45.90625 40.484375 42.875 44.328125 
Q 39.84375 48.1875 33.796875 48.1875 
Q 26.515625 48.1875 22.3125 43.546875 
Q 18.109375 38.921875 18.109375 30.90625 
L 18.109375 0 
L 9.078125 0 
L 9.078125 54.6875 
L 18.109375 54.6875 
L 18.109375 46.1875 
Q 21.34375 51.125 25.703125 53.5625 
Q 30.078125 56 35.796875 56 
Q 45.21875 56 50.046875 50.171875 
Q 54.890625 44.34375 54.890625 33.015625 
z
" id="DejaVuSans-110"/>
     <path d="M 48.78125 52.59375 
L 48.78125 44.1875 
Q 44.96875 46.296875 41.140625 47.34375 
Q 37.3125 48.390625 33.40625 48.390625 
Q 24.65625 48.390625 19.8125 42.84375 
Q 14.984375 37.3125 14.984375 27.296875 
Q 14.984375 17.28125 19.8125 11.734375 
Q 24.65625 6.203125 33.40625 6.203125 
Q 37.3125 6.203125 41.140625 7.25 
Q 44.96875 8.296875 48.78125 10.40625 
L 48.78125 2.09375 
Q 45.015625 0.34375 40.984375 -0.53125 
Q 36.96875 -1.421875 32.421875 -1.421875 
Q 20.0625 -1.421875 12.78125 6.34375 
Q 5.515625 14.109375 5.515625 27.296875 
Q 5.515625 40.671875 12.859375 48.328125 
Q 20.21875 56 33.015625 56 
Q 37.15625 56 41.109375 55.140625 
Q 45.0625 54.296875 48.78125 52.59375 
z
" id="DejaVuSans-99"/>
     <path d="M 18.3125 70.21875 
L 18.3125 54.6875 
L 36.8125 54.6875 
L 36.8125 47.703125 
L 18.3125 47.703125 
L 18.3125 18.015625 
Q 18.3125 11.328125 20.140625 9.421875 
Q 21.96875 7.515625 27.59375 7.515625 
L 36.8125 7.515625 
L 36.8125 0 
L 27.59375 0 
Q 17.1875 0 13.234375 3.875 
Q 9.28125 7.765625 9.28125 18.015625 
L 9.28125 47.703125 
L 2.6875 47.703125 
L 2.6875 54.6875 
L 9.28125 54.6875 
L 9.28125 70.21875 
z
" id="DejaVuSans-116"/>
     <path d="M 9.421875 54.6875 
L 18.40625 54.6875 
L 18.40625 0 
L 9.421875 0 
z
M 9.421875 75.984375 
L 18.40625 75.984375 
L 18.40625 64.59375 
L 9.421875 64.59375 
z
" id="DejaVuSans-105"/>
     <path d="M 30.609375 48.390625 
Q 23.390625 48.390625 19.1875 42.75 
Q 14.984375 37.109375 14.984375 27.296875 
Q 14.984375 17.484375 19.15625 11.84375 
Q 23.34375 6.203125 30.609375 6.203125 
Q 37.796875 6.203125 41.984375 11.859375 
Q 46.1875 17.53125 46.1875 27.296875 
Q 46.1875 37.015625 41.984375 42.703125 
Q 37.796875 48.390625 30.609375 48.390625 
z
M 30.609375 56 
Q 42.328125 56 49.015625 48.375 
Q 55.71875 40.765625 55.71875 27.296875 
Q 55.71875 13.875 49.015625 6.21875 
Q 42.328125 -1.421875 30.609375 -1.421875 
Q 18.84375 -1.421875 12.171875 6.21875 
Q 5.515625 13.875 5.515625 27.296875 
Q 5.515625 40.765625 12.171875 48.375 
Q 18.84375 56 30.609375 56 
z
" id="DejaVuSans-111"/>
     <path d="M 41.109375 46.296875 
Q 39.59375 47.171875 37.8125 47.578125 
Q 36.03125 48 33.890625 48 
Q 26.265625 48 22.1875 43.046875 
Q 18.109375 38.09375 18.109375 28.8125 
L 18.109375 0 
L 9.078125 0 
L 9.078125 54.6875 
L 18.109375 54.6875 
L 18.109375 46.1875 
Q 20.953125 51.171875 25.484375 53.578125 
Q 30.03125 56 36.53125 56 
Q 37.453125 56 38.578125 55.875 
Q 39.703125 55.765625 41.0625 55.515625 
z
" id="DejaVuSans-114"/>
     <path d="M 14.84375 13.09375 
Q 16.84375 3.328125 21.09375 3.328125 
Q 23.921875 3.328125 27.59375 8.9375 
L 34.078125 8.9375 
Q 31.15625 3.953125 27.734375 1.375 
Q 24.03125 -1.421875 20.609375 -1.421875 
Q 12.984375 -1.421875 9.90625 5.375 
L 6.25 0 
L -1.375 0 
Q 3.90625 7.171875 7.8125 13.875 
Q 7.328125 17.671875 7.328125 21.828125 
Q 7.328125 29.25 8.84375 36.671875 
Q 14.546875 64.546875 19.625 70.265625 
Q 23.140625 74.21875 29.15625 74.21875 
Q 35.25 74.21875 35.25 65.765625 
Q 35.203125 61.96875 34.328125 57.421875 
Q 30.8125 38.8125 14.84375 13.09375 
z
M 14.796875 25.875 
Q 23.921875 42.875 26.703125 56.453125 
Q 28.171875 63.625 28.171875 65.484375 
Q 28.171875 68.84375 26.953125 68.84375 
Q 21.625 64.59375 16.890625 39.3125 
Q 15.578125 32.234375 14.796875 25.875 
z
" id="DejaVuSans-Oblique-8467"/>
     <path d="M 56.203125 29.59375 
L 56.203125 25.203125 
L 14.890625 25.203125 
Q 15.484375 15.921875 20.484375 11.0625 
Q 25.484375 6.203125 34.421875 6.203125 
Q 39.59375 6.203125 44.453125 7.46875 
Q 49.3125 8.734375 54.109375 11.28125 
L 54.109375 2.78125 
Q 49.265625 0.734375 44.1875 -0.34375 
Q 39.109375 -1.421875 33.890625 -1.421875 
Q 20.796875 -1.421875 13.15625 6.1875 
Q 5.515625 13.8125 5.515625 26.8125 
Q 5.515625 40.234375 12.765625 48.109375 
Q 20.015625 56 32.328125 56 
Q 43.359375 56 49.78125 48.890625 
Q 56.203125 41.796875 56.203125 29.59375 
z
M 47.21875 32.234375 
Q 47.125 39.59375 43.09375 43.984375 
Q 39.0625 48.390625 32.421875 48.390625 
Q 24.90625 48.390625 20.390625 44.140625 
Q 15.875 39.890625 15.1875 32.171875 
z
" id="DejaVuSans-101"/>
     <path d="M 45.40625 46.390625 
L 45.40625 75.984375 
L 54.390625 75.984375 
L 54.390625 0 
L 45.40625 0 
L 45.40625 8.203125 
Q 42.578125 3.328125 38.25 0.953125 
Q 33.9375 -1.421875 27.875 -1.421875 
Q 17.96875 -1.421875 11.734375 6.484375 
Q 5.515625 14.40625 5.515625 27.296875 
Q 5.515625 40.1875 11.734375 48.09375 
Q 17.96875 56 27.875 56 
Q 33.9375 56 38.25 53.625 
Q 42.578125 51.265625 45.40625 46.390625 
z
M 14.796875 27.296875 
Q 14.796875 17.390625 18.875 11.75 
Q 22.953125 6.109375 30.078125 6.109375 
Q 37.203125 6.109375 41.296875 11.75 
Q 45.40625 17.390625 45.40625 27.296875 
Q 45.40625 37.203125 41.296875 42.84375 
Q 37.203125 48.484375 30.078125 48.484375 
Q 22.953125 48.484375 18.875 42.84375 
Q 14.796875 37.203125 14.796875 27.296875 
z
" id="DejaVuSans-100"/>
     <path d="M 9.421875 75.984375 
L 18.40625 75.984375 
L 18.40625 0 
L 9.421875 0 
z
" id="DejaVuSans-108"/>
     <path d="M 34.671875 47.5625 
Q 27.25 47.5625 22.21875 42.1875 
Q 16.890625 36.578125 15.140625 27.296875 
Q 13.1875 17.484375 16.3125 11.8125 
Q 19.390625 6.203125 26.65625 6.203125 
Q 33.84375 6.203125 39.109375 11.859375 
Q 44.4375 17.53125 46.34375 27.296875 
Q 48.046875 36.234375 45.015625 42.1875 
Q 42.1875 47.5625 34.671875 47.5625 
z
M 36.078125 54.734375 
L 65.921875 54.6875 
L 64.15625 45.703125 
L 54.109375 45.703125 
Q 57.90625 38.09375 55.859375 27.296875 
Q 53.21875 13.875 45.0625 6.25 
Q 36.859375 -1.421875 25.140625 -1.421875 
Q 13.375 -1.421875 8.203125 6.25 
Q 3.03125 13.875 5.671875 27.296875 
Q 8.25 40.765625 16.40625 48.390625 
Q 23.1875 54.734375 36.078125 54.734375 
z
" id="DejaVuSans-Oblique-963"/>
     <path d="M 10.59375 45.40625 
L 73.1875 45.40625 
L 73.1875 37.203125 
L 10.59375 37.203125 
z
M 10.59375 25.484375 
L 73.1875 25.484375 
L 73.1875 17.1875 
L 10.59375 17.1875 
z
" id="DejaVuSans-61"/>
     <path d="M 10.6875 12.40625 
L 21 12.40625 
L 21 0 
L 10.6875 0 
z
" id="DejaVuSans-46"/>
    </defs>
    <g transform="translate(103.44 28.56)scale(0.12 -0.12)">
     <use transform="translate(0 0.015625)" xlink:href="#DejaVuSans-71"/>
     <use transform="translate(77.490234 0.015625)" xlink:href="#DejaVuSans-67"/>
     <use transform="translate(147.314453 0.015625)" xlink:href="#DejaVuSans-86"/>
     <use transform="translate(215.722656 0.015625)" xlink:href="#DejaVuSans-32"/>
     <use transform="translate(247.509766 0.015625)" xlink:href="#DejaVuSans-102"/>
     <use transform="translate(282.714844 0.015625)" xlink:href="#DejaVuSans-117"/>
     <use transform="translate(346.09375 0.015625)" xlink:href="#DejaVuSans-110"/>
     <use transform="translate(409.472656 0.015625)" xlink:href="#DejaVuSans-99"/>
     <use transform="translate(464.453125 0.015625)" xlink:href="#DejaVuSans-116"/>
     <use transform="translate(503.662109 0.015625)" xlink:href="#DejaVuSans-105"/>
     <use transform="translate(531.445312 0.015625)" xlink:href="#DejaVuSans-111"/>
     <use transform="translate(592.626953 0.015625)" xlink:href="#DejaVuSans-110"/>
     <use transform="translate(656.005859 0.015625)" xlink:href="#DejaVuSans-32"/>
     <use transform="translate(687.792969 0.015625)" xlink:href="#DejaVuSans-102"/>
     <use transform="translate(722.998047 0.015625)" xlink:href="#DejaVuSans-111"/>
     <use transform="translate(784.179688 0.015625)" xlink:href="#DejaVuSans-114"/>
     <use transform="translate(825.292969 0.015625)" xlink:href="#DejaVuSans-32"/>
     <use transform="translate(857.080078 0.015625)" xlink:href="#DejaVuSans-Oblique-8467"/>
     <use transform="translate(898.388672 -16.390625)scale(0.7)" xlink:href="#DejaVuSans-49"/>
     <use transform="translate(945.65918 0.015625)" xlink:href="#DejaVuSans-32"/>
     <use transform="translate(977.446289 0.015625)" xlink:href="#DejaVuSans-116"/>
     <use transform="translate(1016.655273 0.015625)" xlink:href="#DejaVuSans-114"/>
     <use transform="translate(1057.768555 0.015625)" xlink:href="#DejaVuSans-101"/>
     <use transform="translate(1119.291992 0.015625)" xlink:href="#DejaVuSans-110"/>
     <use transform="translate(1182.670898 0.015625)" xlink:href="#DejaVuSans-100"/>
     <use transform="translate(1246.147461 0.015625)" xlink:href="#DejaVuSans-32"/>
     <use transform="translate(1277.93457 0.015625)" xlink:href="#DejaVuSans-102"/>
     <use transform="translate(1313.139648 0.015625)" xlink:href="#DejaVuSans-105"/>
     <use transform="translate(1340.922852 0.015625)" xlink:href="#DejaVuSans-108"/>
     <use transform="translate(1368.706055 0.015625)" xlink:href="#DejaVuSans-116"/>
     <use transform="translate(1407.915039 0.015625)" xlink:href="#DejaVuSans-101"/>
     <use transform="translate(1469.438477 0.015625)" xlink:href="#DejaVuSans-114"/>
     <use transform="translate(1510.551758 0.015625)" xlink:href="#DejaVuSans-32"/>
     <use transform="translate(1542.338867 0.015625)" xlink:href="#DejaVuSans-40"/>
     <use transform="translate(1581.352539 0.015625)" xlink:href="#DejaVuSans-Oblique-963"/>
     <use transform="translate(1664.213867 0.015625)" xlink:href="#DejaVuSans-61"/>
     <use transform="translate(1767.485352 0.015625)" xlink:href="#DejaVuSans-48"/>
     <use transform="translate(1831.108398 0.015625)" xlink:href="#DejaVuSans-46"/>
     <use transform="translate(1862.895508 0.015625)" xlink:href="#DejaVuSans-49"/>
     <use transform="translate(1926.518555 0.015625)" xlink:href="#DejaVuSans-41"/>
    </g>
   </g>
   <g id="legend_1">
    <g id="line2d_72">
     <path d="M 64.8 50.278125 
L 112.8 50.278125 
" style="fill:none;stroke:#1f77b4;stroke-dasharray:7.5,2.5;stroke-dashoffset:0;stroke-width:2.5;"/>
    </g>
    <g id="line2d_73"/>
    <g id="text_16">
     <!-- state $x_1$ -->
     <defs>
      <path d="M 44.28125 53.078125 
L 44.28125 44.578125 
Q 40.484375 46.53125 36.375 47.5 
Q 32.28125 48.484375 27.875 48.484375 
Q 21.1875 48.484375 17.84375 46.4375 
Q 14.5 44.390625 14.5 40.28125 
Q 14.5 37.15625 16.890625 35.375 
Q 19.28125 33.59375 26.515625 31.984375 
L 29.59375 31.296875 
Q 39.15625 29.25 43.1875 25.515625 
Q 47.21875 21.78125 47.21875 15.09375 
Q 47.21875 7.46875 41.1875 3.015625 
Q 35.15625 -1.421875 24.609375 -1.421875 
Q 20.21875 -1.421875 15.453125 -0.5625 
Q 10.6875 0.296875 5.421875 2 
L 5.421875 11.28125 
Q 10.40625 8.6875 15.234375 7.390625 
Q 20.0625 6.109375 24.8125 6.109375 
Q 31.15625 6.109375 34.5625 8.28125 
Q 37.984375 10.453125 37.984375 14.40625 
Q 37.984375 18.0625 35.515625 20.015625 
Q 33.0625 21.96875 24.703125 23.78125 
L 21.578125 24.515625 
Q 13.234375 26.265625 9.515625 29.90625 
Q 5.8125 33.546875 5.8125 39.890625 
Q 5.8125 47.609375 11.28125 51.796875 
Q 16.75 56 26.8125 56 
Q 31.78125 56 36.171875 55.265625 
Q 40.578125 54.546875 44.28125 53.078125 
z
" id="DejaVuSans-115"/>
      <path d="M 34.28125 27.484375 
Q 23.390625 27.484375 19.1875 25 
Q 14.984375 22.515625 14.984375 16.5 
Q 14.984375 11.71875 18.140625 8.90625 
Q 21.296875 6.109375 26.703125 6.109375 
Q 34.1875 6.109375 38.703125 11.40625 
Q 43.21875 16.703125 43.21875 25.484375 
L 43.21875 27.484375 
z
M 52.203125 31.203125 
L 52.203125 0 
L 43.21875 0 
L 43.21875 8.296875 
Q 40.140625 3.328125 35.546875 0.953125 
Q 30.953125 -1.421875 24.3125 -1.421875 
Q 15.921875 -1.421875 10.953125 3.296875 
Q 6 8.015625 6 15.921875 
Q 6 25.140625 12.171875 29.828125 
Q 18.359375 34.515625 30.609375 34.515625 
L 43.21875 34.515625 
L 43.21875 35.40625 
Q 43.21875 41.609375 39.140625 45 
Q 35.0625 48.390625 27.6875 48.390625 
Q 23 48.390625 18.546875 47.265625 
Q 14.109375 46.140625 10.015625 43.890625 
L 10.015625 52.203125 
Q 14.9375 54.109375 19.578125 55.046875 
Q 24.21875 56 28.609375 56 
Q 40.484375 56 46.34375 49.84375 
Q 52.203125 43.703125 52.203125 31.203125 
z
" id="DejaVuSans-97"/>
      <path d="M 60.015625 54.6875 
L 34.90625 27.875 
L 50.296875 0 
L 39.984375 0 
L 28.421875 21.6875 
L 8.296875 0 
L -2.59375 0 
L 24.3125 28.8125 
L 10.015625 54.6875 
L 20.3125 54.6875 
L 30.8125 34.90625 
L 49.125 54.6875 
z
" id="DejaVuSans-Oblique-120"/>
     </defs>
     <g transform="translate(122.4 54.478125)scale(0.12 -0.12)">
      <use transform="translate(0 0.78125)" xlink:href="#DejaVuSans-115"/>
      <use transform="translate(52.099609 0.78125)" xlink:href="#DejaVuSans-116"/>
      <use transform="translate(91.308594 0.78125)" xlink:href="#DejaVuSans-97"/>
      <use transform="translate(152.587891 0.78125)" xlink:href="#DejaVuSans-116"/>
      <use transform="translate(191.796875 0.78125)" xlink:href="#DejaVuSans-101"/>
      <use transform="translate(253.320312 0.78125)" xlink:href="#DejaVuSans-32"/>
      <use transform="translate(285.107422 0.78125)" xlink:href="#DejaVuSans-Oblique-120"/>
      <use transform="translate(344.287109 -15.625)scale(0.7)" xlink:href="#DejaVuSans-49"/>
     </g>
    </g>
    <g id="line2d_74">
     <path d="M 64.8 67.891875 
L 112.8 67.891875 
" style="fill:none;stroke:#ff7f0e;stroke-dasharray:2500,2.5;stroke-dashoffset:0;stroke-width:2.5;"/>
    </g>
    <g id="line2d_75"/>
    <g id="text_17">
     <!-- state $x_2$ -->
     <g transform="translate(122.4 72.091875)scale(0.12 -0.12)">
      <use transform="translate(0 0.78125)" xlink:href="#DejaVuSans-115"/>
      <use transform="translate(52.099609 0.78125)" xlink:href="#DejaVuSans-116"/>
      <use transform="translate(91.308594 0.78125)" xlink:href="#DejaVuSans-97"/>
      <use transform="translate(152.587891 0.78125)" xlink:href="#DejaVuSans-116"/>
      <use transform="translate(191.796875 0.78125)" xlink:href="#DejaVuSans-101"/>
      <use transform="translate(253.320312 0.78125)" xlink:href="#DejaVuSans-32"/>
      <use transform="translate(285.107422 0.78125)" xlink:href="#DejaVuSans-Oblique-120"/>
      <use transform="translate(344.287109 -15.625)scale(0.7)" xlink:href="#DejaVuSans-50"/>
     </g>
    </g>
    <g id="line2d_76">
     <path d="M 64.8 85.505625 
L 112.8 85.505625 
" style="fill:none;stroke:#2ca02c;stroke-dasharray:5,2.5,25,2.5;stroke-dashoffset:0;stroke-width:2.5;"/>
    </g>
    <g id="line2d_77"/>
    <g id="text_18">
     <!-- state $x_3$ -->
     <g transform="translate(122.4 89.705625)scale(0.12 -0.12)">
      <use transform="translate(0 0.78125)" xlink:href="#DejaVuSans-115"/>
      <use transform="translate(52.099609 0.78125)" xlink:href="#DejaVuSans-116"/>
      <use transform="translate(91.308594 0.78125)" xlink:href="#DejaVuSans-97"/>
      <use transform="translate(152.587891 0.78125)" xlink:href="#DejaVuSans-116"/>
      <use transform="translate(191.796875 0.78125)" xlink:href="#DejaVuSans-101"/>
      <use transform="translate(253.320312 0.78125)" xlink:href="#DejaVuSans-32"/>
      <use transform="translate(285.107422 0.78125)" xlink:href="#DejaVuSans-Oblique-120"/>
      <use transform="translate(344.287109 -15.625)scale(0.7)" xlink:href="#DejaVuSans-51"/>
     </g>
    </g>
   </g>
  </g>
 </g>
 <defs>
  <clipPath id="pfc43b8071e">
   <rect height="217.44" width="334.8" x="54" y="34.56"/>
  </clipPath>
 </defs>
</svg>
