<?xml version="1.0" encoding="utf-8" standalone="no"?>
<!DOCTYPE svg PUBLIC "-//W3C//DTD SVG 1.1//EN"
  "http://www.w3.org/Graphics/SVG/1.1/DTD/svg11.dtd">
<!-- Created with matplotlib (https://matplotlib.org/) -->
<svg height="288pt" version="1.1" viewBox="0 0 432 288" width="432pt" xmlns="http://www.w3.org/2000/svg" xmlns:xlink="http://www.w3.org/1999/xlink">
 <defs>
  <style type="text/css">
*{stroke-linecap:butt;stroke-linejoin:round;}
  </style>
 </defs>
 <g id="figure_1">
  <g id="patch_1">
   <path d="M 0 288 
L 432 288 
L 432 0 
L 0 0 
z
" style="fill:#ffffff;"/>
  </g>
  <g id="axes_1">
   <g id="patch_2">
    <path d="M 54 252 
L 388.8 252 
L 388.8 34.56 
L 54 34.56 
z
" style="fill:#ffffff;"/>
   </g>
   <g id="matplotlib.axis_1">
    <g id="xtick_1">
     <g id="line2d_1">
      <defs>
       <path d="M 0 0 
L 0 3.5 
" id="ma5566aaabd" style="stroke:#000000;stroke-width:0.8;"/>
      </defs>
      <g>
       <use style="stroke:#000000;stroke-width:0.8;" x="104.479975" xlink:href="#ma5566aaabd" y="252"/>
      </g>
     </g>
     <g id="text_1">
      <!-- $\mathdefault{10^{-4}}$ -->
      <defs>
       <path d="M 12.40625 8.296875 
L 28.515625 8.296875 
L 28.515625 63.921875 
L 10.984375 60.40625 
L 10.984375 69.390625 
L 28.421875 72.90625 
L 38.28125 72.90625 
L 38.28125 8.296875 
L 54.390625 8.296875 
L 54.390625 0 
L 12.40625 0 
z
" id="DejaVuSans-49"/>
       <path d="M 31.78125 66.40625 
Q 24.171875 66.40625 20.328125 58.90625 
Q 16.5 51.421875 16.5 36.375 
Q 16.5 21.390625 20.328125 13.890625 
Q 24.171875 6.390625 31.78125 6.390625 
Q 39.453125 6.390625 43.28125 13.890625 
Q 47.125 21.390625 47.125 36.375 
Q 47.125 51.421875 43.28125 58.90625 
Q 39.453125 66.40625 31.78125 66.40625 
z
M 31.78125 74.21875 
Q 44.046875 74.21875 50.515625 64.515625 
Q 56.984375 54.828125 56.984375 36.375 
Q 56.984375 17.96875 50.515625 8.265625 
Q 44.046875 -1.421875 31.78125 -1.421875 
Q 19.53125 -1.421875 13.0625 8.265625 
Q 6.59375 17.96875 6.59375 36.375 
Q 6.59375 54.828125 13.0625 64.515625 
Q 19.53125 74.21875 31.78125 74.21875 
z
" id="DejaVuSans-48"/>
       <path d="M 10.59375 35.5 
L 73.1875 35.5 
L 73.1875 27.203125 
L 10.59375 27.203125 
z
" id="DejaVuSans-8722"/>
       <path d="M 37.796875 64.3125 
L 12.890625 25.390625 
L 37.796875 25.390625 
z
M 35.203125 72.90625 
L 47.609375 72.90625 
L 47.609375 25.390625 
L 58.015625 25.390625 
L 58.015625 17.1875 
L 47.609375 17.1875 
L 47.609375 0 
L 37.796875 0 
L 37.796875 17.1875 
L 4.890625 17.1875 
L 4.890625 26.703125 
z
" id="DejaVuSans-52"/>
      </defs>
      <g transform="translate(90.379975 268.118125)scale(0.12 -0.12)">
       <use transform="translate(0 0.684375)" xlink:href="#DejaVuSans-49"/>
       <use transform="translate(63.623047 0.684375)" xlink:href="#DejaVuSans-48"/>
       <use transform="translate(128.203125 38.965625)scale(0.7)" xlink:href="#DejaVuSans-8722"/>
       <use transform="translate(186.855469 38.965625)scale(0.7)" xlink:href="#DejaVuSans-52"/>
      </g>
     </g>
    </g>
    <g id="xtick_2">
     <g id="line2d_2">
      <g>
       <use style="stroke:#000000;stroke-width:0.8;" x="155.219458" xlink:href="#ma5566aaabd" y="252"/>
      </g>
     </g>
     <g id="text_2">
      <!-- $\mathdefault{10^{-2}}$ -->
      <defs>
       <path d="M 19.1875 8.296875 
L 53.609375 8.296875 
L 53.609375 0 
L 7.328125 0 
L 7.328125 8.296875 
Q 12.9375 14.109375 22.625 23.890625 
Q 32.328125 33.6875 34.8125 36.53125 
Q 39.546875 41.84375 41.421875 45.53125 
Q 43.3125 49.21875 43.3125 52.78125 
Q 43.3125 58.59375 39.234375 62.25 
Q 35.15625 65.921875 28.609375 65.921875 
Q 23.96875 65.921875 18.8125 64.3125 
Q 13.671875 62.703125 7.8125 59.421875 
L 7.8125 69.390625 
Q 13.765625 71.78125 18.9375 73 
Q 24.125 74.21875 28.421875 74.21875 
Q 39.75 74.21875 46.484375 68.546875 
Q 53.21875 62.890625 53.21875 53.421875 
Q 53.21875 48.921875 51.53125 44.890625 
Q 49.859375 40.875 45.40625 35.40625 
Q 44.1875 33.984375 37.640625 27.21875 
Q 31.109375 20.453125 19.1875 8.296875 
z
" id="DejaVuSans-50"/>
      </defs>
      <g transform="translate(141.119458 268.118125)scale(0.12 -0.12)">
       <use transform="translate(0 0.765625)" xlink:href="#DejaVuSans-49"/>
       <use transform="translate(63.623047 0.765625)" xlink:href="#DejaVuSans-48"/>
       <use transform="translate(128.203125 39.046875)scale(0.7)" xlink:href="#DejaVuSans-8722"/>
       <use transform="translate(186.855469 39.046875)scale(0.7)" xlink:href="#DejaVuSans-50"/>
      </g>
     </g>
    </g>
    <g id="xtick_3">
     <g id="line2d_3">
      <g>
       <use style="stroke:#000000;stroke-width:0.8;" x="205.958942" xlink:href="#ma5566aaabd" y="252"/>
      </g>
     </g>
     <g id="text_3">
      <!-- $\mathdefault{10^{0}}$ -->
      <g transform="translate(195.398942 268.118125)scale(0.12 -0.12)">
       <use transform="translate(0 0.765625)" xlink:href="#DejaVuSans-49"/>
       <use transform="translate(63.623047 0.765625)" xlink:href="#DejaVuSans-48"/>
       <use transform="translate(128.203125 39.046875)scale(0.7)" xlink:href="#DejaVuSans-48"/>
      </g>
     </g>
    </g>
    <g id="xtick_4">
     <g id="line2d_4">
      <g>
       <use style="stroke:#000000;stroke-width:0.8;" x="256.698426" xlink:href="#ma5566aaabd" y="252"/>
      </g>
     </g>
     <g id="text_4">
      <!-- $\mathdefault{10^{2}}$ -->
      <g transform="translate(246.138426 268.118125)scale(0.12 -0.12)">
       <use transform="translate(0 0.765625)" xlink:href="#DejaVuSans-49"/>
       <use transform="translate(63.623047 0.765625)" xlink:href="#DejaVuSans-48"/>
       <use transform="translate(128.203125 39.046875)scale(0.7)" xlink:href="#DejaVuSans-50"/>
      </g>
     </g>
    </g>
    <g id="xtick_5">
     <g id="line2d_5">
      <g>
       <use style="stroke:#000000;stroke-width:0.8;" x="307.437909" xlink:href="#ma5566aaabd" y="252"/>
      </g>
     </g>
     <g id="text_5">
      <!-- $\mathdefault{10^{4}}$ -->
      <g transform="translate(296.877909 268.118125)scale(0.12 -0.12)">
       <use transform="translate(0 0.684375)" xlink:href="#DejaVuSans-49"/>
       <use transform="translate(63.623047 0.684375)" xlink:href="#DejaVuSans-48"/>
       <use transform="translate(128.203125 38.965625)scale(0.7)" xlink:href="#DejaVuSans-52"/>
      </g>
     </g>
    </g>
    <g id="xtick_6">
     <g id="line2d_6">
      <g>
       <use style="stroke:#000000;stroke-width:0.8;" x="358.177393" xlink:href="#ma5566aaabd" y="252"/>
      </g>
     </g>
     <g id="text_6">
      <!-- $\mathdefault{10^{6}}$ -->
      <defs>
       <path d="M 33.015625 40.375 
Q 26.375 40.375 22.484375 35.828125 
Q 18.609375 31.296875 18.609375 23.390625 
Q 18.609375 15.53125 22.484375 10.953125 
Q 26.375 6.390625 33.015625 6.390625 
Q 39.65625 6.390625 43.53125 10.953125 
Q 47.40625 15.53125 47.40625 23.390625 
Q 47.40625 31.296875 43.53125 35.828125 
Q 39.65625 40.375 33.015625 40.375 
z
M 52.59375 71.296875 
L 52.59375 62.3125 
Q 48.875 64.0625 45.09375 64.984375 
Q 41.3125 65.921875 37.59375 65.921875 
Q 27.828125 65.921875 22.671875 59.328125 
Q 17.53125 52.734375 16.796875 39.40625 
Q 19.671875 43.65625 24.015625 45.921875 
Q 28.375 48.1875 33.59375 48.1875 
Q 44.578125 48.1875 50.953125 41.515625 
Q 57.328125 34.859375 57.328125 23.390625 
Q 57.328125 12.15625 50.6875 5.359375 
Q 44.046875 -1.421875 33.015625 -1.421875 
Q 20.359375 -1.421875 13.671875 8.265625 
Q 6.984375 17.96875 6.984375 36.375 
Q 6.984375 53.65625 15.1875 63.9375 
Q 23.390625 74.21875 37.203125 74.21875 
Q 40.921875 74.21875 44.703125 73.484375 
Q 48.484375 72.75 52.59375 71.296875 
z
" id="DejaVuSans-54"/>
      </defs>
      <g transform="translate(347.617393 268.118125)scale(0.12 -0.12)">
       <use transform="translate(0 0.765625)" xlink:href="#DejaVuSans-49"/>
       <use transform="translate(63.623047 0.765625)" xlink:href="#DejaVuSans-48"/>
       <use transform="translate(128.203125 39.046875)scale(0.7)" xlink:href="#DejaVuSans-54"/>
      </g>
     </g>
    </g>
    <g id="text_7">
     <!-- $\lambda$ -->
     <defs>
      <path d="M 36.71875 67.4375 
L 48.828125 0 
L 39.3125 0 
L 31.84375 40.4375 
L 5.125 0 
L -4.390625 0 
L 29.734375 52.4375 
L 28.03125 62.109375 
Q 26.953125 68.265625 21.734375 68.265625 
L 17.046875 68.265625 
L 18.5 75.984375 
L 24.21875 75.875 
Q 35.203125 75.734375 36.71875 67.4375 
z
" id="DejaVuSans-Oblique-955"/>
     </defs>
     <g transform="translate(217.8 283.731875)scale(0.12 -0.12)">
      <use transform="translate(0 0.015625)" xlink:href="#DejaVuSans-Oblique-955"/>
     </g>
    </g>
   </g>
   <g id="matplotlib.axis_2">
    <g id="ytick_1">
     <g id="line2d_7">
      <defs>
       <path d="M 0 0 
L -3.5 0 
" id="m70a4a01658" style="stroke:#000000;stroke-width:0.8;"/>
      </defs>
      <g>
       <use style="stroke:#000000;stroke-width:0.8;" x="54" xlink:href="#m70a4a01658" y="235.969348"/>
      </g>
     </g>
     <g id="text_8">
      <!-- $\mathdefault{10^{-4}}$ -->
      <g transform="translate(18.8 240.528411)scale(0.12 -0.12)">
       <use transform="translate(0 0.684375)" xlink:href="#DejaVuSans-49"/>
       <use transform="translate(63.623047 0.684375)" xlink:href="#DejaVuSans-48"/>
       <use transform="translate(128.203125 38.965625)scale(0.7)" xlink:href="#DejaVuSans-8722"/>
       <use transform="translate(186.855469 38.965625)scale(0.7)" xlink:href="#DejaVuSans-52"/>
      </g>
     </g>
    </g>
    <g id="ytick_2">
     <g id="line2d_8">
      <g>
       <use style="stroke:#000000;stroke-width:0.8;" x="54" xlink:href="#m70a4a01658" y="203.317188"/>
      </g>
     </g>
     <g id="text_9">
      <!-- $\mathdefault{10^{-3}}$ -->
      <defs>
       <path d="M 40.578125 39.3125 
Q 47.65625 37.796875 51.625 33 
Q 55.609375 28.21875 55.609375 21.1875 
Q 55.609375 10.40625 48.1875 4.484375 
Q 40.765625 -1.421875 27.09375 -1.421875 
Q 22.515625 -1.421875 17.65625 -0.515625 
Q 12.796875 0.390625 7.625 2.203125 
L 7.625 11.71875 
Q 11.71875 9.328125 16.59375 8.109375 
Q 21.484375 6.890625 26.8125 6.890625 
Q 36.078125 6.890625 40.9375 10.546875 
Q 45.796875 14.203125 45.796875 21.1875 
Q 45.796875 27.640625 41.28125 31.265625 
Q 36.765625 34.90625 28.71875 34.90625 
L 20.21875 34.90625 
L 20.21875 43.015625 
L 29.109375 43.015625 
Q 36.375 43.015625 40.234375 45.921875 
Q 44.09375 48.828125 44.09375 54.296875 
Q 44.09375 59.90625 40.109375 62.90625 
Q 36.140625 65.921875 28.71875 65.921875 
Q 24.65625 65.921875 20.015625 65.03125 
Q 15.375 64.15625 9.8125 62.3125 
L 9.8125 71.09375 
Q 15.4375 72.65625 20.34375 73.4375 
Q 25.25 74.21875 29.59375 74.21875 
Q 40.828125 74.21875 47.359375 69.109375 
Q 53.90625 64.015625 53.90625 55.328125 
Q 53.90625 49.265625 50.4375 45.09375 
Q 46.96875 40.921875 40.578125 39.3125 
z
" id="DejaVuSans-51"/>
      </defs>
      <g transform="translate(18.8 207.876251)scale(0.12 -0.12)">
       <use transform="translate(0 0.765625)" xlink:href="#DejaVuSans-49"/>
       <use transform="translate(63.623047 0.765625)" xlink:href="#DejaVuSans-48"/>
       <use transform="translate(128.203125 39.046875)scale(0.7)" xlink:href="#DejaVuSans-8722"/>
       <use transform="translate(186.855469 39.046875)scale(0.7)" xlink:href="#DejaVuSans-51"/>
      </g>
     </g>
    </g>
    <g id="ytick_3">
     <g id="line2d_9">
      <g>
       <use style="stroke:#000000;stroke-width:0.8;" x="54" xlink:href="#m70a4a01658" y="170.665028"/>
      </g>
     </g>
     <g id="text_10">
      <!-- $\mathdefault{10^{-2}}$ -->
      <g transform="translate(18.8 175.224091)scale(0.12 -0.12)">
       <use transform="translate(0 0.765625)" xlink:href="#DejaVuSans-49"/>
       <use transform="translate(63.623047 0.765625)" xlink:href="#DejaVuSans-48"/>
       <use transform="translate(128.203125 39.046875)scale(0.7)" xlink:href="#DejaVuSans-8722"/>
       <use transform="translate(186.855469 39.046875)scale(0.7)" xlink:href="#DejaVuSans-50"/>
      </g>
     </g>
    </g>
    <g id="ytick_4">
     <g id="line2d_10">
      <g>
       <use style="stroke:#000000;stroke-width:0.8;" x="54" xlink:href="#m70a4a01658" y="138.012869"/>
      </g>
     </g>
     <g id="text_11">
      <!-- $\mathdefault{10^{-1}}$ -->
      <g transform="translate(18.8 142.571931)scale(0.12 -0.12)">
       <use transform="translate(0 0.684375)" xlink:href="#DejaVuSans-49"/>
       <use transform="translate(63.623047 0.684375)" xlink:href="#DejaVuSans-48"/>
       <use transform="translate(128.203125 38.965625)scale(0.7)" xlink:href="#DejaVuSans-8722"/>
       <use transform="translate(186.855469 38.965625)scale(0.7)" xlink:href="#DejaVuSans-49"/>
      </g>
     </g>
    </g>
    <g id="ytick_5">
     <g id="line2d_11">
      <g>
       <use style="stroke:#000000;stroke-width:0.8;" x="54" xlink:href="#m70a4a01658" y="105.360709"/>
      </g>
     </g>
     <g id="text_12">
      <!-- $\mathdefault{10^{0}}$ -->
      <g transform="translate(25.88 109.919771)scale(0.12 -0.12)">
       <use transform="translate(0 0.765625)" xlink:href="#DejaVuSans-49"/>
       <use transform="translate(63.623047 0.765625)" xlink:href="#DejaVuSans-48"/>
       <use transform="translate(128.203125 39.046875)scale(0.7)" xlink:href="#DejaVuSans-48"/>
      </g>
     </g>
    </g>
    <g id="ytick_6">
     <g id="line2d_12">
      <g>
       <use style="stroke:#000000;stroke-width:0.8;" x="54" xlink:href="#m70a4a01658" y="72.708549"/>
      </g>
     </g>
     <g id="text_13">
      <!-- $\mathdefault{10^{1}}$ -->
      <g transform="translate(25.88 77.267611)scale(0.12 -0.12)">
       <use transform="translate(0 0.684375)" xlink:href="#DejaVuSans-49"/>
       <use transform="translate(63.623047 0.684375)" xlink:href="#DejaVuSans-48"/>
       <use transform="translate(128.203125 38.965625)scale(0.7)" xlink:href="#DejaVuSans-49"/>
      </g>
     </g>
    </g>
    <g id="ytick_7">
     <g id="line2d_13">
      <g>
       <use style="stroke:#000000;stroke-width:0.8;" x="54" xlink:href="#m70a4a01658" y="40.056389"/>
      </g>
     </g>
     <g id="text_14">
      <!-- $\mathdefault{10^{2}}$ -->
      <g transform="translate(25.88 44.615452)scale(0.12 -0.12)">
       <use transform="translate(0 0.765625)" xlink:href="#DejaVuSans-49"/>
       <use transform="translate(63.623047 0.765625)" xlink:href="#DejaVuSans-48"/>
       <use transform="translate(128.203125 39.046875)scale(0.7)" xlink:href="#DejaVuSans-50"/>
      </g>
     </g>
    </g>
    <g id="ytick_8">
     <g id="line2d_14">
      <defs>
       <path d="M 0 0 
L -2 0 
" id="m9dd9693f0b" style="stroke:#000000;stroke-width:0.6;"/>
      </defs>
      <g>
       <use style="stroke:#000000;stroke-width:0.6;" x="54" xlink:href="#m9dd9693f0b" y="248.962949"/>
      </g>
     </g>
    </g>
    <g id="ytick_9">
     <g id="line2d_15">
      <g>
       <use style="stroke:#000000;stroke-width:0.6;" x="54" xlink:href="#m9dd9693f0b" y="245.798628"/>
      </g>
     </g>
    </g>
    <g id="ytick_10">
     <g id="line2d_16">
      <g>
       <use style="stroke:#000000;stroke-width:0.6;" x="54" xlink:href="#m9dd9693f0b" y="243.213189"/>
      </g>
     </g>
    </g>
    <g id="ytick_11">
     <g id="line2d_17">
      <g>
       <use style="stroke:#000000;stroke-width:0.6;" x="54" xlink:href="#m9dd9693f0b" y="241.027232"/>
      </g>
     </g>
    </g>
    <g id="ytick_12">
     <g id="line2d_18">
      <g>
       <use style="stroke:#000000;stroke-width:0.6;" x="54" xlink:href="#m9dd9693f0b" y="239.133669"/>
      </g>
     </g>
    </g>
    <g id="ytick_13">
     <g id="line2d_19">
      <g>
       <use style="stroke:#000000;stroke-width:0.6;" x="54" xlink:href="#m9dd9693f0b" y="237.463429"/>
      </g>
     </g>
    </g>
    <g id="ytick_14">
     <g id="line2d_20">
      <g>
       <use style="stroke:#000000;stroke-width:0.6;" x="54" xlink:href="#m9dd9693f0b" y="226.140069"/>
      </g>
     </g>
    </g>
    <g id="ytick_15">
     <g id="line2d_21">
      <g>
       <use style="stroke:#000000;stroke-width:0.6;" x="54" xlink:href="#m9dd9693f0b" y="220.390309"/>
      </g>
     </g>
    </g>
    <g id="ytick_16">
     <g id="line2d_22">
      <g>
       <use style="stroke:#000000;stroke-width:0.6;" x="54" xlink:href="#m9dd9693f0b" y="216.310789"/>
      </g>
     </g>
    </g>
    <g id="ytick_17">
     <g id="line2d_23">
      <g>
       <use style="stroke:#000000;stroke-width:0.6;" x="54" xlink:href="#m9dd9693f0b" y="213.146468"/>
      </g>
     </g>
    </g>
    <g id="ytick_18">
     <g id="line2d_24">
      <g>
       <use style="stroke:#000000;stroke-width:0.6;" x="54" xlink:href="#m9dd9693f0b" y="210.561029"/>
      </g>
     </g>
    </g>
    <g id="ytick_19">
     <g id="line2d_25">
      <g>
       <use style="stroke:#000000;stroke-width:0.6;" x="54" xlink:href="#m9dd9693f0b" y="208.375072"/>
      </g>
     </g>
    </g>
    <g id="ytick_20">
     <g id="line2d_26">
      <g>
       <use style="stroke:#000000;stroke-width:0.6;" x="54" xlink:href="#m9dd9693f0b" y="206.48151"/>
      </g>
     </g>
    </g>
    <g id="ytick_21">
     <g id="line2d_27">
      <g>
       <use style="stroke:#000000;stroke-width:0.6;" x="54" xlink:href="#m9dd9693f0b" y="204.811269"/>
      </g>
     </g>
    </g>
    <g id="ytick_22">
     <g id="line2d_28">
      <g>
       <use style="stroke:#000000;stroke-width:0.6;" x="54" xlink:href="#m9dd9693f0b" y="193.487909"/>
      </g>
     </g>
    </g>
    <g id="ytick_23">
     <g id="line2d_29">
      <g>
       <use style="stroke:#000000;stroke-width:0.6;" x="54" xlink:href="#m9dd9693f0b" y="187.738149"/>
      </g>
     </g>
    </g>
    <g id="ytick_24">
     <g id="line2d_30">
      <g>
       <use style="stroke:#000000;stroke-width:0.6;" x="54" xlink:href="#m9dd9693f0b" y="183.658629"/>
      </g>
     </g>
    </g>
    <g id="ytick_25">
     <g id="line2d_31">
      <g>
       <use style="stroke:#000000;stroke-width:0.6;" x="54" xlink:href="#m9dd9693f0b" y="180.494308"/>
      </g>
     </g>
    </g>
    <g id="ytick_26">
     <g id="line2d_32">
      <g>
       <use style="stroke:#000000;stroke-width:0.6;" x="54" xlink:href="#m9dd9693f0b" y="177.908869"/>
      </g>
     </g>
    </g>
    <g id="ytick_27">
     <g id="line2d_33">
      <g>
       <use style="stroke:#000000;stroke-width:0.6;" x="54" xlink:href="#m9dd9693f0b" y="175.722912"/>
      </g>
     </g>
    </g>
    <g id="ytick_28">
     <g id="line2d_34">
      <g>
       <use style="stroke:#000000;stroke-width:0.6;" x="54" xlink:href="#m9dd9693f0b" y="173.82935"/>
      </g>
     </g>
    </g>
    <g id="ytick_29">
     <g id="line2d_35">
      <g>
       <use style="stroke:#000000;stroke-width:0.6;" x="54" xlink:href="#m9dd9693f0b" y="172.159109"/>
      </g>
     </g>
    </g>
    <g id="ytick_30">
     <g id="line2d_36">
      <g>
       <use style="stroke:#000000;stroke-width:0.6;" x="54" xlink:href="#m9dd9693f0b" y="160.835749"/>
      </g>
     </g>
    </g>
    <g id="ytick_31">
     <g id="line2d_37">
      <g>
       <use style="stroke:#000000;stroke-width:0.6;" x="54" xlink:href="#m9dd9693f0b" y="155.085989"/>
      </g>
     </g>
    </g>
    <g id="ytick_32">
     <g id="line2d_38">
      <g>
       <use style="stroke:#000000;stroke-width:0.6;" x="54" xlink:href="#m9dd9693f0b" y="151.006469"/>
      </g>
     </g>
    </g>
    <g id="ytick_33">
     <g id="line2d_39">
      <g>
       <use style="stroke:#000000;stroke-width:0.6;" x="54" xlink:href="#m9dd9693f0b" y="147.842148"/>
      </g>
     </g>
    </g>
    <g id="ytick_34">
     <g id="line2d_40">
      <g>
       <use style="stroke:#000000;stroke-width:0.6;" x="54" xlink:href="#m9dd9693f0b" y="145.256709"/>
      </g>
     </g>
    </g>
    <g id="ytick_35">
     <g id="line2d_41">
      <g>
       <use style="stroke:#000000;stroke-width:0.6;" x="54" xlink:href="#m9dd9693f0b" y="143.070752"/>
      </g>
     </g>
    </g>
    <g id="ytick_36">
     <g id="line2d_42">
      <g>
       <use style="stroke:#000000;stroke-width:0.6;" x="54" xlink:href="#m9dd9693f0b" y="141.17719"/>
      </g>
     </g>
    </g>
    <g id="ytick_37">
     <g id="line2d_43">
      <g>
       <use style="stroke:#000000;stroke-width:0.6;" x="54" xlink:href="#m9dd9693f0b" y="139.50695"/>
      </g>
     </g>
    </g>
    <g id="ytick_38">
     <g id="line2d_44">
      <g>
       <use style="stroke:#000000;stroke-width:0.6;" x="54" xlink:href="#m9dd9693f0b" y="128.183589"/>
      </g>
     </g>
    </g>
    <g id="ytick_39">
     <g id="line2d_45">
      <g>
       <use style="stroke:#000000;stroke-width:0.6;" x="54" xlink:href="#m9dd9693f0b" y="122.433829"/>
      </g>
     </g>
    </g>
    <g id="ytick_40">
     <g id="line2d_46">
      <g>
       <use style="stroke:#000000;stroke-width:0.6;" x="54" xlink:href="#m9dd9693f0b" y="118.35431"/>
      </g>
     </g>
    </g>
    <g id="ytick_41">
     <g id="line2d_47">
      <g>
       <use style="stroke:#000000;stroke-width:0.6;" x="54" xlink:href="#m9dd9693f0b" y="115.189988"/>
      </g>
     </g>
    </g>
    <g id="ytick_42">
     <g id="line2d_48">
      <g>
       <use style="stroke:#000000;stroke-width:0.6;" x="54" xlink:href="#m9dd9693f0b" y="112.60455"/>
      </g>
     </g>
    </g>
    <g id="ytick_43">
     <g id="line2d_49">
      <g>
       <use style="stroke:#000000;stroke-width:0.6;" x="54" xlink:href="#m9dd9693f0b" y="110.418592"/>
      </g>
     </g>
    </g>
    <g id="ytick_44">
     <g id="line2d_50">
      <g>
       <use style="stroke:#000000;stroke-width:0.6;" x="54" xlink:href="#m9dd9693f0b" y="108.52503"/>
      </g>
     </g>
    </g>
    <g id="ytick_45">
     <g id="line2d_51">
      <g>
       <use style="stroke:#000000;stroke-width:0.6;" x="54" xlink:href="#m9dd9693f0b" y="106.85479"/>
      </g>
     </g>
    </g>
    <g id="ytick_46">
     <g id="line2d_52">
      <g>
       <use style="stroke:#000000;stroke-width:0.6;" x="54" xlink:href="#m9dd9693f0b" y="95.531429"/>
      </g>
     </g>
    </g>
    <g id="ytick_47">
     <g id="line2d_53">
      <g>
       <use style="stroke:#000000;stroke-width:0.6;" x="54" xlink:href="#m9dd9693f0b" y="89.781669"/>
      </g>
     </g>
    </g>
    <g id="ytick_48">
     <g id="line2d_54">
      <g>
       <use style="stroke:#000000;stroke-width:0.6;" x="54" xlink:href="#m9dd9693f0b" y="85.70215"/>
      </g>
     </g>
    </g>
    <g id="ytick_49">
     <g id="line2d_55">
      <g>
       <use style="stroke:#000000;stroke-width:0.6;" x="54" xlink:href="#m9dd9693f0b" y="82.537828"/>
      </g>
     </g>
    </g>
    <g id="ytick_50">
     <g id="line2d_56">
      <g>
       <use style="stroke:#000000;stroke-width:0.6;" x="54" xlink:href="#m9dd9693f0b" y="79.95239"/>
      </g>
     </g>
    </g>
    <g id="ytick_51">
     <g id="line2d_57">
      <g>
       <use style="stroke:#000000;stroke-width:0.6;" x="54" xlink:href="#m9dd9693f0b" y="77.766432"/>
      </g>
     </g>
    </g>
    <g id="ytick_52">
     <g id="line2d_58">
      <g>
       <use style="stroke:#000000;stroke-width:0.6;" x="54" xlink:href="#m9dd9693f0b" y="75.87287"/>
      </g>
     </g>
    </g>
    <g id="ytick_53">
     <g id="line2d_59">
      <g>
       <use style="stroke:#000000;stroke-width:0.6;" x="54" xlink:href="#m9dd9693f0b" y="74.20263"/>
      </g>
     </g>
    </g>
    <g id="ytick_54">
     <g id="line2d_60">
      <g>
       <use style="stroke:#000000;stroke-width:0.6;" x="54" xlink:href="#m9dd9693f0b" y="62.879269"/>
      </g>
     </g>
    </g>
    <g id="ytick_55">
     <g id="line2d_61">
      <g>
       <use style="stroke:#000000;stroke-width:0.6;" x="54" xlink:href="#m9dd9693f0b" y="57.129509"/>
      </g>
     </g>
    </g>
    <g id="ytick_56">
     <g id="line2d_62">
      <g>
       <use style="stroke:#000000;stroke-width:0.6;" x="54" xlink:href="#m9dd9693f0b" y="53.04999"/>
      </g>
     </g>
    </g>
    <g id="ytick_57">
     <g id="line2d_63">
      <g>
       <use style="stroke:#000000;stroke-width:0.6;" x="54" xlink:href="#m9dd9693f0b" y="49.885669"/>
      </g>
     </g>
    </g>
    <g id="ytick_58">
     <g id="line2d_64">
      <g>
       <use style="stroke:#000000;stroke-width:0.6;" x="54" xlink:href="#m9dd9693f0b" y="47.30023"/>
      </g>
     </g>
    </g>
    <g id="ytick_59">
     <g id="line2d_65">
      <g>
       <use style="stroke:#000000;stroke-width:0.6;" x="54" xlink:href="#m9dd9693f0b" y="45.114273"/>
      </g>
     </g>
    </g>
    <g id="ytick_60">
     <g id="line2d_66">
      <g>
       <use style="stroke:#000000;stroke-width:0.6;" x="54" xlink:href="#m9dd9693f0b" y="43.22071"/>
      </g>
     </g>
    </g>
    <g id="ytick_61">
     <g id="line2d_67">
      <g>
       <use style="stroke:#000000;stroke-width:0.6;" x="54" xlink:href="#m9dd9693f0b" y="41.55047"/>
      </g>
     </g>
    </g>
    <g id="text_15">
     <!-- GCV($\lambda$) -->
     <defs>
      <path d="M 59.515625 10.40625 
L 59.515625 29.984375 
L 43.40625 29.984375 
L 43.40625 38.09375 
L 69.28125 38.09375 
L 69.28125 6.78125 
Q 63.578125 2.734375 56.6875 0.65625 
Q 49.8125 -1.421875 42 -1.421875 
Q 24.90625 -1.421875 15.25 8.5625 
Q 5.609375 18.5625 5.609375 36.375 
Q 5.609375 54.25 15.25 64.234375 
Q 24.90625 74.21875 42 74.21875 
Q 49.125 74.21875 55.546875 72.453125 
Q 61.96875 70.703125 67.390625 67.28125 
L 67.390625 56.78125 
Q 61.921875 61.421875 55.765625 63.765625 
Q 49.609375 66.109375 42.828125 66.109375 
Q 29.4375 66.109375 22.71875 58.640625 
Q 16.015625 51.171875 16.015625 36.375 
Q 16.015625 21.625 22.71875 14.15625 
Q 29.4375 6.6875 42.828125 6.6875 
Q 48.046875 6.6875 52.140625 7.59375 
Q 56.25 8.5 59.515625 10.40625 
z
" id="DejaVuSans-71"/>
      <path d="M 64.40625 67.28125 
L 64.40625 56.890625 
Q 59.421875 61.53125 53.78125 63.8125 
Q 48.140625 66.109375 41.796875 66.109375 
Q 29.296875 66.109375 22.65625 58.46875 
Q 16.015625 50.828125 16.015625 36.375 
Q 16.015625 21.96875 22.65625 14.328125 
Q 29.296875 6.6875 41.796875 6.6875 
Q 48.140625 6.6875 53.78125 8.984375 
Q 59.421875 11.28125 64.40625 15.921875 
L 64.40625 5.609375 
Q 59.234375 2.09375 53.4375 0.328125 
Q 47.65625 -1.421875 41.21875 -1.421875 
Q 24.65625 -1.421875 15.125 8.703125 
Q 5.609375 18.84375 5.609375 36.375 
Q 5.609375 53.953125 15.125 64.078125 
Q 24.65625 74.21875 41.21875 74.21875 
Q 47.75 74.21875 53.53125 72.484375 
Q 59.328125 70.75 64.40625 67.28125 
z
" id="DejaVuSans-67"/>
      <path d="M 28.609375 0 
L 0.78125 72.90625 
L 11.078125 72.90625 
L 34.1875 11.53125 
L 57.328125 72.90625 
L 67.578125 72.90625 
L 39.796875 0 
z
" id="DejaVuSans-86"/>
      <path d="M 31 75.875 
Q 24.46875 64.65625 21.28125 53.65625 
Q 18.109375 42.671875 18.109375 31.390625 
Q 18.109375 20.125 21.3125 9.0625 
Q 24.515625 -2 31 -13.1875 
L 23.1875 -13.1875 
Q 15.875 -1.703125 12.234375 9.375 
Q 8.59375 20.453125 8.59375 31.390625 
Q 8.59375 42.28125 12.203125 53.3125 
Q 15.828125 64.359375 23.1875 75.875 
z
" id="DejaVuSans-40"/>
      <path d="M 8.015625 75.875 
L 15.828125 75.875 
Q 23.140625 64.359375 26.78125 53.3125 
Q 30.421875 42.28125 30.421875 31.390625 
Q 30.421875 20.453125 26.78125 9.375 
Q 23.140625 -1.703125 15.828125 -13.1875 
L 8.015625 -13.1875 
Q 14.5 -2 17.703125 9.0625 
Q 20.90625 20.125 20.90625 31.390625 
Q 20.90625 42.671875 17.703125 53.65625 
Q 14.5 64.65625 8.015625 75.875 
z
" id="DejaVuSans-41"/>
     </defs>
     <g transform="translate(12.304375 164.46)rotate(-90)scale(0.12 -0.12)">
      <use transform="translate(0 0.015625)" xlink:href="#DejaVuSans-71"/>
      <use transform="translate(77.490234 0.015625)" xlink:href="#DejaVuSans-67"/>
      <use transform="translate(147.314453 0.015625)" xlink:href="#DejaVuSans-86"/>
      <use transform="translate(215.722656 0.015625)" xlink:href="#DejaVuSans-40"/>
      <use transform="translate(254.736328 0.015625)" xlink:href="#DejaVuSans-Oblique-955"/>
      <use transform="translate(313.916016 0.015625)" xlink:href="#DejaVuSans-41"/>
     </g>
    </g>
   </g>
   <g id="line2d_68">
    <path clip-path="url(#pc8829d208a)" d="M 360.783343 64.504911 
L 360.070819 64.582334 
L 360.065763 64.456196 
L 359.14256 64.833829 
L 359.130817 64.714134 
L 358.189099 65.069858 
L 358.17035 64.955995 
L 357.207662 65.291303 
L 357.181507 65.182666 
L 356.161177 65.3949 
L 355.105925 65.593349 
L 353.533355 65.973215 
L 349.335413 69.4818 
L 349.255371 69.434206 
L 348.1424 70.170805 
L 347.303406 70.772141 
L 347.086833 70.672595 
L 346.109538 71.419845 
L 345.974584 71.401371 
L 344.771828 71.962621 
L 343.510826 72.473619 
L 342.259399 72.889566 
L 342.229428 72.796693 
L 341.013175 73.331944 
L 339.546108 73.714323 
L 338.430033 74.042564 
L 338.206673 73.916283 
L 337.991297 74.091734 
L 336.624855 74.357409 
L 335.213222 74.65015 
L 335.102781 74.501105 
L 334.78669 74.679573 
L 333.743446 74.906183 
L 333.336926 74.880666 
L 332.464701 75.077628 
L 331.865 74.954339 
L 331.757359 75.111751 
L 330.098225 75.33736 
L 329.713549 75.1722 
L 327.886936 75.658331 
L 327.875648 75.542088 
L 327.634084 75.82592 
L 326.406971 76.175441 
L 326.381946 76.078306 
L 326.183756 76.32313 
L 325.037552 76.937463 
L 324.792636 77.270155 
L 320.762829 84.947546 
L 316.213784 92.358563 
L 315.009568 94.031762 
L 313.151696 96.036139 
L 309.170047 99.865456 
L 305.191548 101.842998 
L 304.487767 102.252569 
L 304.443688 102.166009 
L 304.433929 102.304953 
L 304.412496 102.193934 
L 304.223075 102.449388 
L 304.179996 102.363244 
L 303.912237 102.660895 
L 303.848117 102.598986 
L 303.419155 102.896872 
L 303.145114 103.118836 
L 303.140221 102.98524 
L 303.137942 102.85191 
L 303.09896 103.028028 
L 302.82857 103.38274 
L 302.792556 103.283302 
L 302.646922 103.469463 
L 302.214058 103.518453 
L 302.167025 103.702329 
L 302.085202 103.673696 
L 301.967223 103.9065 
L 300.659372 104.670342 
L 300.461899 104.723002 
L 300.441224 104.864812 
L 299.984324 105.097915 
L 299.795249 105.622984 
L 299.593142 105.802848 
L 299.282235 105.764585 
L 298.982481 105.969855 
L 298.662694 106.024109 
L 298.525322 106.18926 
L 298.377362 106.087487 
L 297.88994 106.298509 
L 297.612109 106.685242 
L 297.412047 106.633456 
L 297.247483 106.742883 
L 297.144054 107.010509 
L 296.763724 107.415945 
L 296.282048 107.529986 
L 296.10986 107.696084 
L 295.588251 107.765157 
L 294.831895 108.139723 
L 294.685617 108.176409 
L 294.296011 108.931849 
L 293.362136 109.852204 
L 293.337815 110.003195 
L 292.110075 111.215898 
L 291.40642 112.496918 
L 290.854719 112.92708 
L 290.176039 113.781364 
L 290.109127 113.954711 
L 290.087643 113.842997 
L 289.676045 114.551056 
L 289.266313 114.982933 
L 287.814257 116.967718 
L 286.500122 118.073188 
L 285.682181 119.292669 
L 285.500295 119.459453 
L 284.970428 120.231566 
L 284.431546 120.570078 
L 284.334281 120.486746 
L 284.061163 120.718548 
L 284.047888 120.603484 
L 283.430193 121.574148 
L 282.51485 122.924847 
L 280.808474 125.452942 
L 279.046683 127.88968 
L 275.117745 133.333534 
L 274.956725 133.423954 
L 273.084751 135.362476 
L 272.86041 135.480731 
L 271.578346 136.830962 
L 270.944798 137.242618 
L 270.642954 137.583059 
L 270.285783 137.815128 
L 270.237577 137.727242 
L 270.110095 137.731102 
L 267.818299 139.989655 
L 264.796414 142.751241 
L 263.12622 145.068768 
L 261.654868 147.757521 
L 260.929447 149.334098 
L 260.657372 149.861743 
L 259.447488 151.336755 
L 259.443057 151.202086 
L 259.43539 151.073415 
L 257.162518 155.336283 
L 257.144601 155.23111 
L 256.844691 155.707151 
L 255.933847 157.629587 
L 255.740984 157.835505 
L 252.799926 162.741513 
L 252.58353 162.95379 
L 252.561245 162.848883 
L 252.539069 162.745481 
L 250.093998 168.212289 
L 249.400479 169.784703 
L 249.365355 169.720944 
L 249.323404 169.673007 
L 248.297893 171.901685 
L 248.219344 171.883248 
L 247.465086 173.165499 
L 246.652651 174.659579 
L 246.105886 175.262906 
L 244.984268 177.40395 
L 243.811439 179.916834 
L 243.376113 180.933613 
L 242.868807 181.709357 
L 241.502939 184.562777 
L 238.805206 189.875744 
L 238.785134 189.769755 
L 238.770824 189.651845 
L 238.718308 189.89952 
L 238.499865 190.457725 
L 236.03416 194.849655 
L 234.828523 197.339977 
L 231.848678 202.163298 
L 228.732982 206.596605 
L 228.531057 207.027456 
L 228.489771 206.944995 
L 227.651054 208.336385 
L 226.267448 209.967759 
L 225.800322 210.385389 
L 225.091635 211.273336 
L 223.587713 212.733613 
L 223.41028 213.055634 
L 222.445058 213.898709 
L 221.298922 215.071787 
L 220.495975 215.586038 
L 220.264956 215.898982 
L 219.970176 215.958602 
L 219.256262 216.525192 
L 219.201157 216.4195 
L 217.710258 217.159089 
L 217.002641 218.049999 
L 216.777511 218.135794 
L 216.705233 218.35668 
L 216.184299 218.450276 
L 215.973658 218.827685 
L 215.319052 219.43547 
L 215.138424 219.765474 
L 214.991638 219.764307 
L 214.696565 220.493221 
L 214.497417 220.381606 
L 214.367367 220.354573 
L 214.004122 221.116953 
L 213.883008 221.062607 
L 213.75103 221.314914 
L 213.458761 221.405518 
L 213.368705 221.761867 
L 212.60227 222.203498 
L 212.591896 222.355079 
L 212.547003 222.08531 
L 212.451395 222.008402 
L 211.946896 222.239417 
L 211.911531 222.117669 
L 211.589347 222.274274 
L 210.215236 223.358789 
L 210.058182 223.635359 
L 209.01977 224.150155 
L 209.019247 224.305084 
L 208.576573 224.46003 
L 208.547254 224.634224 
L 207.632304 225.063759 
L 207.446918 225.022231 
L 207.420721 225.192889 
L 206.901659 225.790695 
L 206.773281 225.706506 
L 206.406647 225.748307 
L 206.349609 225.623205 
L 206.011923 226.098963 
L 205.199974 226.035 
L 205.190224 225.882763 
L 205.126888 226.067184 
L 204.538098 226.457277 
L 204.482688 226.63252 
L 204.189207 226.434247 
L 203.517051 227.123777 
L 203.218126 227.060996 
L 202.58787 227.393962 
L 201.756076 227.164031 
L 201.2938 227.442553 
L 201.154373 227.334817 
L 201.147318 227.49336 
L 200.057553 227.370122 
L 199.401341 227.876316 
L 198.828724 227.883265 
L 198.738265 228.063567 
L 198.56375 227.969523 
L 198.538105 228.134584 
L 197.593165 228.544601 
L 197.464442 228.72882 
L 197.288886 228.615796 
L 196.455912 228.517605 
L 195.813977 228.535801 
L 195.74154 228.396155 
L 195.711307 228.56171 
L 195.506597 228.289592 
L 195.190119 227.726033 
L 195.074555 228.244146 
L 194.97686 228.110786 
L 194.899599 227.970457 
L 194.762236 228.170185 
L 194.725605 228.02328 
L 194.554068 228.256825 
L 194.435162 227.979613 
L 194.28272 228.527324 
L 194.017449 228.467353 
L 194.006967 228.632332 
L 193.437287 229.124481 
L 193.392988 228.981152 
L 193.00531 228.828815 
L 192.567994 228.876062 
L 192.385052 229.434769 
L 192.330312 229.29491 
L 192.073231 229.53822 
L 191.889506 229.27524 
L 191.696015 229.496114 
L 191.529929 229.390066 
L 191.513623 229.234969 
L 191.217913 229.499632 
L 189.588751 229.842541 
L 188.805731 230.488011 
L 188.578199 230.374069 
L 187.950456 230.35264 
L 187.945842 230.191114 
L 187.842648 230.375528 
L 187.50911 230.303473 
L 187.421849 229.669243 
L 187.36674 229.851657 
L 186.632286 230.513745 
L 186.498637 230.376121 
L 186.183892 230.595169 
L 186.151432 230.43836 
L 185.633622 230.375429 
L 185.528483 230.231857 
L 185.254448 230.447173 
L 185.189471 230.295726 
L 184.993801 230.494821 
L 184.795532 230.368682 
L 184.514239 230.584561 
L 183.767001 230.565273 
L 183.57609 230.270743 
L 183.524014 230.448093 
L 183.470784 230.623832 
L 183.428531 230.466456 
L 183.406213 230.303892 
L 183.220098 230.508739 
L 182.854229 229.914444 
L 182.536019 229.821292 
L 182.158573 230.247254 
L 181.465451 230.719827 
L 181.459891 230.552649 
L 181.429514 230.725893 
L 180.618309 231.010777 
L 180.574769 230.850027 
L 180.376778 231.045547 
L 179.57865 231.472737 
L 178.926447 231.397509 
L 178.669776 231.593847 
L 178.502055 231.453812 
L 178.071178 231.351656 
L 177.349221 231.76053 
L 176.923346 231.637669 
L 176.911887 231.472506 
L 176.718103 231.658146 
L 176.171448 231.863662 
L 175.845249 231.724735 
L 175.068477 231.619382 
L 174.995235 231.457728 
L 174.190635 231.679517 
L 173.919768 231.530059 
L 173.144162 231.73913 
L 172.727625 231.087546 
L 172.624892 231.263663 
L 172.14999 231.457036 
L 171.678452 231.309785 
L 171.55393 231.483927 
L 171.485521 231.318921 
L 170.983436 231.510958 
L 170.861673 231.347731 
L 170.577405 231.192174 
L 169.707754 231.082257 
L 169.270567 231.280712 
L 169.025649 230.951937 
L 168.93177 230.792022 
L 168.706028 230.997098 
L 168.677796 231.17327 
L 168.337264 231.047781 
L 167.195658 231.040373 
L 166.989707 231.239363 
L 166.49587 231.139049 
L 165.455767 231.592678 
L 165.142891 231.284769 
L 164.681228 230.992848 
L 164.628111 230.822946 
L 164.206303 230.707137 
L 164.159355 230.357752 
L 163.630331 230.991957 
L 163.502561 231.184955 
L 163.075655 231.410804 
L 163.06203 231.586785 
L 162.812647 231.785934 
L 162.673466 231.631034 
L 162.116311 231.534713 
L 162.054318 231.36746 
L 161.798403 231.234311 
L 161.576537 231.619604 
L 161.051941 231.529639 
L 160.878487 231.386931 
L 160.370004 231.638108 
L 160.165244 231.312136 
L 159.227972 231.612321 
L 157.926777 231.068208 
L 157.829218 231.261443 
L 156.957489 230.636925 
L 156.617791 230.318795 
L 156.40711 230.165483 
L 155.944386 230.049646 
L 155.93647 230.240347 
L 155.359512 229.932352 
L 155.091644 230.15322 
L 154.586462 230.04955 
L 154.563367 229.861476 
L 154.330308 230.081824 
L 154.117506 229.726705 
L 154.001408 229.938245 
L 153.971548 229.751114 
L 153.906379 229.958153 
L 153.540266 229.648803 
L 153.521514 229.847483 
L 153.320822 229.693559 
L 153.286054 229.895366 
L 153.025752 229.752263 
L 152.730211 230.001737 
L 152.530486 229.650646 
L 151.836046 229.970263 
L 151.74228 229.791538 
L 151.653706 230.002117 
L 151.355853 229.85423 
L 150.997566 230.104089 
L 150.959548 230.304486 
L 150.678 230.532804 
L 150.544737 230.356303 
L 150.504291 230.553934 
L 150.093043 229.849408 
L 149.980451 230.268555 
L 149.874388 230.095127 
L 149.366288 229.810243 
L 149.260956 230.033795 
L 149.236052 229.840816 
L 148.807413 230.129019 
L 148.784323 230.331062 
L 148.093026 230.263319 
L 148.064792 230.465741 
L 147.75273 230.697684 
L 147.688445 230.512861 
L 147.491721 230.353967 
L 146.891118 230.2786 
L 146.60657 229.743416 
L 146.478862 229.977894 
L 146.337299 229.809808 
L 146.331341 230.014571 
L 146.23401 229.835868 
L 146.024912 229.686269 
L 145.963647 229.499186 
L 145.888531 229.725318 
L 145.641856 229.592739 
L 145.614548 229.806838 
L 145.57339 229.407855 
L 145.471568 229.653988 
L 144.852354 229.680524 
L 144.751535 228.656696 
L 144.53967 228.320608 
L 144.11061 228.931639 
L 143.644871 229.526594 
L 143.315129 229.423352 
L 143.01663 229.939605 
L 142.487515 229.656947 
L 142.434754 229.671741 
L 142.361399 229.262287 
L 142.300073 229.069239 
L 142.202657 229.544017 
L 141.975455 229.413933 
L 141.893485 228.788531 
L 141.743048 229.292439 
L 141.314162 229.664844 
L 141.300677 229.886561 
L 140.929196 230.211031 
L 140.855677 230.44531 
L 140.389779 229.544282 
L 140.025267 229.485011 
L 139.953729 229.294309 
L 139.645774 229.211495 
L 139.60926 229.002797 
L 139.438098 228.861376 
L 139.227699 228.299721 
L 138.961134 228.927301 
L 138.956546 228.696922 
L 138.329653 229.31086 
L 138.276984 229.110925 
L 138.093966 228.992335 
L 138.089331 229.230614 
L 138.010016 229.048486 
L 137.976841 228.834275 
L 137.658036 228.582508 
L 137.616674 228.852538 
L 137.438691 228.734181 
L 137.436314 228.492433 
L 137.260397 228.378607 
L 137.049734 229.253707 
L 137.029047 229.027 
L 136.831662 228.922482 
L 136.461936 228.941183 
L 136.274326 229.309581 
L 136.187789 229.132859 
L 135.343926 230.161961 
L 135.190206 230.729016 
L 135.152652 230.986723 
L 134.802554 231.636901 
L 134.390369 232.067372 
L 134.315625 231.876385 
L 134.287078 232.122941 
L 134.043071 232.031018 
L 133.781419 232.405355 
L 133.780203 232.174521 
L 133.545134 232.072459 
L 133.544513 231.83744 
L 133.067925 231.415258 
L 132.882642 230.551168 
L 132.554441 230.544685 
L 132.378701 230.423131 
L 132.285072 229.462951 
L 131.950636 230.525222 
L 131.789411 230.140884 
L 131.623514 230.017158 
L 131.458551 230.673217 
L 131.293084 230.539261 
L 131.253278 230.830325 
L 131.244838 230.311916 
L 131.131565 230.142003 
L 130.931551 230.052962 
L 130.919619 230.331951 
L 130.669423 231.070823 
L 130.517224 230.935044 
L 129.899088 231.173887 
L 129.524078 230.395134 
L 129.473892 230.713526 
L 129.304219 230.58522 
L 129.282188 230.043852 
L 129.128748 229.903604 
L 129.046194 230.264101 
L 128.931738 230.0839 
L 128.922206 229.513886 
L 128.823456 229.893678 
L 128.347441 230.867794 
L 128.290531 231.474404 
L 128.241348 230.952465 
L 127.958393 231.459412 
L 127.827458 231.284308 
L 127.800069 231.022826 
L 127.295017 230.903368 
L 127.087491 231.374828 
L 126.892894 230.96707 
L 126.761227 231.37777 
L 126.657997 229.971173 
L 126.285433 230.017193 
L 126.265314 229.723388 
L 125.946893 229.716821 
L 125.916697 229.425854 
L 125.675083 229.977671 
L 125.445995 228.905506 
L 125.164623 228.875415 
L 125.135673 228.568352 
L 124.832735 228.576753 
L 124.75549 227.968026 
L 124.54776 227.86807 
L 124.46329 226.880783 
L 124.409152 227.688146 
L 123.977494 227.873504 
L 123.87224 228.367064 
L 123.870112 228.003688 
L 123.395159 227.140697 
L 122.899896 227.431249 
L 122.725991 227.279944 
L 122.706201 226.905714 
L 122.504177 226.787832 
L 122.396805 227.346403 
L 122.22897 227.175456 
L 122.185748 226.82257 
L 121.88298 226.831484 
L 121.83896 226.470812 
L 121.575514 226.43476 
L 121.455253 227.043791 
L 121.416905 226.671306 
L 121.165219 226.627472 
L 121.120195 225.800076 
L 120.752434 225.961372 
L 120.730157 225.529889 
L 120.376224 225.159953 
L 120.233976 224.401697 
L 119.97221 224.325412 
L 119.800708 223.573477 
L 119.704255 224.272434 
L 119.694344 223.759662 
L 119.623131 223.345175 
L 119.197947 222.978461 
L 119.09818 222.579696 
L 118.872842 222.399068 
L 118.858917 223.00864 
L 118.364467 224.448954 
L 118.176275 224.205319 
L 118.050944 223.245047 
L 117.917347 224.076145 
L 117.876102 223.552337 
L 117.704804 223.254893 
L 117.666024 222.702605 
L 117.458559 222.443234 
L 117.311999 220.722851 
L 117.127351 219.683861 
L 116.595452 220.053132 
L 116.532383 219.428478 
L 116.4284 220.400515 
L 116.032269 220.464373 
L 115.933548 219.093792 
L 115.489819 219.214124 
L 115.331691 218.701298 
L 115.054555 218.438027 
L 114.878634 217.010908 
L 114.461226 218.886246 
L 113.701329 219.663818 
L 112.929646 222.27918 
L 112.845368 221.531445 
L 111.630934 223.147331 
L 111.489038 222.450678 
L 110.75964 222.988429 
L 110.686704 222.074932 
L 110.157699 222.103691 
L 109.957704 221.390675 
L 109.664126 220.845939 
L 109.23679 219.245406 
L 108.429196 219.728917 
L 107.909469 219.46432 
L 107.487484 218.910221 
L 106.945071 218.540276 
L 106.861637 217.012788 
L 106.531679 215.946781 
L 106.5025 214.057938 
L 106.340531 212.336668 
L 106.32891 210.094115 
L 105.970426 213.206119 
L 105.045349 213.166231 
L 104.913064 211.016691 
L 104.495242 209.350158 
L 104.365535 206.68862 
L 103.540194 211.749135 
L 97.502045 223.840765 
L 96.415319 223.241695 
L 95.856402 220.871184 
L 94.436009 220.103287 
L 92.836261 218.984041 
L 92.820126 212.696256 
L 91.728986 207.302388 
L 91.407077 196.623159 
L 88.004722 185.624736 
M 78.38435 210.207251 
L 76.162561 235.423274 
L 69.66269 232.212589 
L 69.66269 232.212589 
" style="fill:none;stroke:#1f77b4;stroke-dasharray:7.5,2.5;stroke-dashoffset:0;stroke-width:2.5;"/>
   </g>
   <g id="line2d_69">
    <defs>
     <path d="M -6 6 
L 6 -6 
M -6 -6 
L 6 6 
" id="mbf121dba3f" style="stroke:#000000;"/>
    </defs>
    <g clip-path="url(#pc8829d208a)">
     <use style="stroke:#000000;" x="165.455767" xlink:href="#mbf121dba3f" y="231.592678"/>
    </g>
   </g>
   <g id="line2d_70">
    <defs>
     <path d="M -3 3 
L 3 3 
L 3 -3 
L -3 -3 
z
" id="m76bd684383" style="stroke:#0000ff;stroke-linejoin:miter;"/>
    </defs>
    <g clip-path="url(#pc8829d208a)">
     <use style="fill:#0000ff;stroke:#0000ff;stroke-linejoin:miter;" x="76.162561" xlink:href="#m76bd684383" y="235.423274"/>
    </g>
   </g>
   <g id="line2d_71">
    <defs>
     <path d="M 0 3 
C 0.795609 3 1.55874 2.683901 2.12132 2.12132 
C 2.683901 1.55874 3 0.795609 3 0 
C 3 -0.795609 2.683901 -1.55874 2.12132 -2.12132 
C 1.55874 -2.683901 0.795609 -3 0 -3 
C -0.795609 -3 -1.55874 -2.683901 -2.12132 -2.12132 
C -2.683901 -1.55874 -3 -0.795609 -3 0 
C -3 0.795609 -2.683901 1.55874 -2.12132 2.12132 
C -1.55874 2.683901 -0.795609 3 0 3 
z
" id="meb188740e5" style="stroke:#ff0000;"/>
    </defs>
    <g clip-path="url(#pc8829d208a)">
     <use style="fill:#ff0000;stroke:#ff0000;" x="0" xlink:href="#meb188740e5" y="0"/>
    </g>
   </g>
   <g id="line2d_72">
    <path clip-path="url(#pc8829d208a)" d="M 368.462878 53.546347 
L 368.382084 53.312259 
L 366.974804 53.889555 
L 366.950737 53.768358 
L 365.64394 54.236438 
L 365.598836 54.121604 
L 364.387969 54.508973 
L 364.323349 54.398245 
L 363.205145 54.725584 
L 363.122431 54.61746 
L 362.094257 54.899868 
L 361.994797 54.793366 
L 361.054237 55.04192 
L 360.939383 54.936403 
L 360.083849 55.159287 
L 359.954964 55.054354 
L 359.181471 55.257653 
L 359.039952 55.153059 
L 358.344978 55.341322 
L 358.192209 55.236937 
L 357.57168 55.413586 
L 357.409043 55.309352 
L 356.858317 55.476976 
L 356.68718 55.372884 
L 356.201123 55.533461 
L 356.022819 55.42953 
L 355.595899 55.584582 
L 355.411661 55.48086 
L 355.038138 55.631557 
L 354.849138 55.528101 
L 354.523116 55.675364 
L 354.326981 55.486917 
L 353.896491 55.865086 
L 353.735278 55.836793 
L 353.376142 56.160587 
L 353.211196 56.131431 
L 352.897171 56.421272 
L 352.729958 56.391131 
L 352.442506 56.659811 
L 352.273667 56.628844 
L 351.999111 56.88471 
L 351.828767 56.853182 
L 351.556636 57.101825 
L 351.384577 57.070024 
L 351.106535 57.315241 
L 350.932317 57.283438 
L 350.641515 57.527785 
L 350.464508 57.496214 
L 350.155133 57.741346 
L 349.974571 57.710188 
L 349.641527 57.957073 
L 349.456509 57.926447 
L 349.095246 58.175495 
L 348.904746 58.145448 
L 348.511099 58.396607 
L 348.354985 58.223076 
L 347.641129 58.607403 
L 347.639036 58.477729 
L 347.22919 58.771749 
L 347.225384 58.644634 
L 346.791429 58.942015 
L 346.785766 58.817638 
L 345.875169 59.232557 
L 345.86679 59.111972 
L 345.731501 59.275282 
L 345.670507 59.215604 
L 345.068055 59.491967 
L 345.002499 59.433684 
L 344.809863 59.606356 
L 344.796584 59.492484 
L 344.231118 59.799612 
L 344.21503 59.689416 
L 343.020532 60.126244 
L 342.999707 60.021604 
L 342.694389 60.138842 
L 342.342469 60.329356 
L 342.317985 60.228961 
L 341.626743 60.535079 
L 341.598211 60.439126 
L 340.122588 60.881458 
L 340.086583 60.792463 
L 340.011371 60.935242 
L 339.903621 60.883454 
L 338.396719 61.306406 
L 338.349192 61.227291 
L 337.459058 61.519851 
L 337.404698 61.445788 
L 336.404646 61.664187 
L 335.43931 61.784786 
L 335.361995 61.728084 
L 335.314898 61.884394 
L 334.03063 62.101165 
L 334.017601 61.980596 
L 332.9397 62.27146 
L 332.665294 62.733871 
L 332.609206 62.668008 
L 331.814359 63.670922 
L 329.701835 66.131246 
L 328.274041 67.506035 
L 327.854216 67.879884 
L 327.773599 67.85884 
L 326.76341 69.031066 
L 324.492747 72.193076 
L 321.418012 75.928122 
L 319.248418 78.101746 
L 319.071761 78.114402 
L 317.985292 78.842131 
L 315.425379 80.782591 
L 313.938531 81.610601 
L 312.566614 81.96909 
L 312.395905 82.197441 
L 311.579948 82.604031 
L 311.55591 82.490428 
L 311.335486 82.694477 
L 311.172537 82.70466 
L 310.877133 82.93855 
L 310.694146 82.961938 
L 310.321542 83.223186 
L 309.949347 83.241171 
L 309.035291 84.026737 
L 308.685408 84.172548 
L 307.342198 84.809897 
L 307.209962 84.680523 
L 307.096129 84.857615 
L 306.55182 85.227128 
L 306.532798 85.116846 
L 306.388034 85.358209 
L 305.471016 85.817735 
L 305.26459 85.820349 
L 304.726211 86.038621 
L 304.62478 85.837744 
L 304.280122 86.270077 
L 304.169862 86.427608 
L 304.032478 86.406792 
L 303.015306 86.617432 
L 302.86463 86.617243 
L 302.851177 86.494583 
L 302.53225 86.907444 
L 302.43877 86.870597 
L 301.738045 87.373496 
L 301.646148 87.520421 
L 300.561305 87.827678 
L 300.49651 87.727541 
L 300.028534 88.147773 
L 299.961059 88.041056 
L 299.036358 88.489873 
L 298.873055 88.703377 
L 298.586305 88.863745 
L 297.932741 88.804285 
L 297.596931 89.094937 
L 297.267094 89.163156 
L 297.260301 89.033445 
L 297.233328 89.197376 
L 296.986227 89.536684 
L 296.221733 89.554459 
L 296.147715 89.442188 
L 296.091891 89.588997 
L 295.699789 89.724736 
L 295.596771 89.880357 
L 295.497796 89.767759 
L 295.241858 89.775503 
L 295.192543 89.938435 
L 295.05654 89.952248 
L 294.813637 90.135182 
L 294.696701 90.032834 
L 294.202808 90.48811 
L 293.773361 90.669443 
L 293.638061 90.441687 
L 293.317382 90.863155 
L 293.292926 90.748405 
L 293.234732 90.668449 
L 293.226253 90.814012 
L 293.218224 90.956406 
L 293.049729 90.940231 
L 292.728136 91.188446 
L 292.724478 91.05757 
L 292.431362 91.705411 
L 291.350821 93.015108 
L 291.060868 93.36797 
L 291.016201 93.27515 
L 290.764087 93.391794 
L 289.925649 95.167904 
L 289.859376 95.120563 
L 288.709989 96.351604 
L 288.627982 96.631744 
L 287.050018 98.350558 
L 286.826885 98.827015 
L 286.816966 98.705725 
L 286.591105 99.199038 
L 285.098988 101.110797 
L 284.811759 101.777601 
L 284.299787 102.466233 
L 284.297051 102.332856 
L 283.75349 103.502474 
L 281.999204 106.673465 
L 281.535975 107.832362 
L 281.187235 108.567408 
L 281.148502 108.501137 
L 280.871589 108.893788 
L 278.814251 112.555685 
L 278.268241 113.400816 
L 277.669909 114.523708 
L 275.521806 118.304446 
L 274.577334 120.496147 
L 274.382272 120.670656 
L 274.253949 120.993512 
L 272.968427 122.620333 
L 272.920796 122.565184 
L 272.133832 124.299931 
L 272.128218 124.452382 
L 271.982789 124.853918 
L 270.905419 126.583904 
L 270.281643 127.405035 
L 270.055873 128.053577 
L 268.279138 130.32952 
L 268.276239 130.193105 
L 268.153289 130.507193 
L 266.77561 132.389544 
L 263.931775 137.68962 
L 262.346269 141.114416 
L 261.815596 141.737524 
L 261.372145 141.910339 
L 261.309343 141.862024 
L 261.302942 142.010706 
L 261.119298 142.047406 
L 259.066941 146.005718 
L 259.052474 146.169755 
L 258.768642 146.663062 
L 258.256956 147.317284 
L 257.502938 148.532122 
L 256.454202 149.913159 
L 256.403433 150.271547 
L 255.563712 151.451539 
L 255.15478 152.350151 
L 255.028985 152.409565 
L 254.869479 152.778947 
L 253.63327 154.211324 
L 248.366568 161.41579 
L 245.909781 164.165348 
L 245.300259 164.676677 
L 241.580996 168.795192 
L 241.568409 168.662215 
L 241.467905 168.482424 
L 240.935868 169.297248 
L 240.775972 169.30503 
L 240.471655 169.806956 
L 240.441201 169.68416 
L 240.156758 169.745024 
L 240.156147 169.599697 
L 239.600203 169.907747 
L 239.448567 170.172605 
L 238.622296 170.907015 
L 238.263758 170.860353 
L 237.643922 171.308127 
L 237.303159 171.904921 
L 236.029674 172.909053 
L 235.596013 173.056741 
L 235.298837 173.390943 
L 235.161217 173.330853 
L 233.923411 174.137959 
L 233.858806 174.025445 
L 233.137283 174.495902 
L 233.083577 174.375796 
L 232.641524 174.454176 
L 231.58656 175.194977 
L 231.289741 175.172038 
L 230.595906 175.19877 
L 229.995169 175.190361 
L 228.64425 177.836727 
L 228.500043 178.022712 
L 226.927772 182.05159 
L 226.340052 183.05935 
L 225.981191 184.000846 
L 224.1528 187.699605 
L 224.097705 187.969159 
L 223.876936 188.295281 
L 222.56461 191.329734 
L 222.276726 191.751753 
L 221.958087 192.37579 
L 221.909927 192.318415 
L 221.639232 192.848275 
L 221.480793 193.006936 
L 221.354839 193.555151 
L 221.336942 193.437996 
L 221.208404 193.5415 
L 220.815095 194.54527 
L 220.758329 194.480033 
L 220.337907 195.098001 
L 220.276964 195.03527 
L 220.076271 195.44968 
L 219.992179 195.448521 
L 219.932318 195.70504 
L 218.941424 196.826854 
L 218.85618 197.130441 
L 218.053353 198.902165 
L 218.031204 198.784387 
L 217.279759 199.540627 
L 217.279669 199.696177 
L 217.21782 199.640019 
L 216.368813 201.105094 
L 216.312766 201.03376 
L 216.131119 201.151372 
L 215.069 203.189375 
L 214.797294 203.365822 
L 214.770146 203.244301 
L 213.953336 204.144023 
L 213.544698 204.810133 
L 213.504135 204.704652 
L 213.39646 204.681124 
L 213.125936 204.963512 
L 212.977352 205.660392 
L 212.624167 206.024655 
L 212.451502 206.2748 
L 212.352 206.572607 
L 212.324213 206.457139 
L 212.187449 206.497911 
L 211.89674 207.062072 
L 211.05601 207.89228 
L 211.006914 207.807124 
L 210.917962 208.094301 
L 210.750608 208.178779 
L 210.50236 208.687675 
L 210.449569 208.605154 
L 209.95855 209.149341 
L 209.465798 210.127974 
L 209.394943 210.062822 
L 209.0458 210.204756 
L 209.036225 210.375769 
L 208.128393 211.538791 
L 207.596987 211.927965 
L 206.663859 212.965833 
L 205.585513 213.587096 
L 204.85029 214.006424 
L 204.76017 214.271969 
L 203.456807 215.977552 
L 203.039804 216.269689 
L 202.073034 217.43236 
L 200.740822 218.278749 
L 200.181296 218.768495 
L 199.130459 219.011959 
L 198.61246 219.419904 
L 198.407563 218.899379 
L 197.179941 220.111425 
L 197.098909 219.861112 
L 196.647964 220.103468 
L 196.593889 219.99365 
L 196.575846 220.175714 
L 196.449396 220.169583 
L 196.23018 220.914984 
L 195.722732 221.304288 
L 195.678768 221.187819 
L 195.668939 221.361575 
L 195.506375 221.370412 
L 194.852839 221.888832 
L 194.74655 221.501711 
L 194.073943 221.906415 
L 193.875442 222.453306 
L 193.789629 222.85811 
L 193.7698 222.708285 
L 193.567624 222.708962 
L 193.111398 223.160693 
L 193.043428 223.04108 
L 192.395366 223.626728 
L 192.293032 223.358414 
L 191.474084 224.187913 
L 191.472018 224.021591 
L 191.019574 224.288341 
L 190.47761 225.258457 
L 189.235762 226.36336 
L 189.152352 226.255879 
L 188.964827 226.232626 
L 188.848158 226.47783 
L 188.085578 226.834337 
L 187.764421 226.731951 
L 187.149112 226.847759 
L 187.064647 226.73749 
L 186.831126 227.050511 
L 186.615711 227.006278 
L 185.895936 227.348829 
L 185.792283 227.246115 
L 185.139783 227.847125 
L 185.135919 228.02297 
L 185.106125 227.868438 
L 183.862067 229.247832 
L 183.690507 229.161624 
L 182.733703 229.278284 
L 182.692785 229.12494 
L 182.340121 229.127067 
L 181.947506 229.644635 
L 181.444777 229.671482 
L 181.421912 229.853593 
L 180.443272 230.034614 
L 180.173463 229.95165 
L 179.456852 230.004582 
L 179.366351 229.855609 
L 178.807375 230.364222 
L 178.794396 230.19219 
L 178.737028 230.557801 
L 178.558407 230.433432 
L 178.206674 230.3534 
L 177.946631 230.07882 
L 176.909255 230.02922 
L 176.429017 230.332021 
L 176.357372 230.169809 
L 176.054481 230.066866 
L 175.976403 230.265533 
L 175.71865 230.147065 
L 175.549504 230.365774 
L 175.548523 230.184769 
L 175.448047 230.566247 
L 175.395009 230.396575 
L 175.361369 230.582998 
L 174.971863 230.476414 
L 174.963481 230.657964 
L 174.879994 230.504268 
L 174.376213 230.835203 
L 173.841591 230.097087 
L 173.607451 230.357826 
L 173.548412 230.193091 
L 172.807777 230.259283 
L 172.731731 229.908245 
L 171.963942 230.346309 
L 171.941022 230.540429 
L 170.973548 230.987698 
L 170.950479 230.807758 
L 170.847115 231.020209 
L 170.842196 230.835536 
L 170.752046 230.672671 
L 170.548264 231.095645 
L 169.916341 231.581164 
L 168.842922 231.560896 
L 168.698799 231.39895 
L 168.281298 231.644904 
L 168.201475 231.839251 
L 167.852111 232.065519 
L 167.777573 232.255334 
L 167.611585 232.095137 
L 167.604411 231.913947 
L 167.185447 232.163837 
L 165.886805 232.518603 
L 165.436276 232.029037 
L 165.001795 231.905204 
L 164.998706 231.719685 
L 164.589752 231.96136 
L 164.327978 231.809497 
L 163.500126 231.731653 
L 163.25938 231.945862 
L 162.515838 231.654982 
L 162.385455 231.859488 
L 162.297536 231.68494 
L 162.098329 231.902621 
L 161.978943 231.73392 
L 161.944748 231.927309 
L 161.550309 231.812137 
L 161.45589 231.639863 
L 160.815929 231.378624 
L 160.476361 231.626499 
L 160.156437 231.299645 
L 159.884427 231.160097 
L 159.796142 230.981322 
L 159.481807 231.237 
L 158.854811 231.540556 
L 158.805595 231.355719 
L 158.324951 231.260129 
L 158.141121 230.900445 
L 158.076486 231.110318 
L 157.971281 230.929391 
L 157.91099 231.138426 
L 157.693674 231.370929 
L 157.52304 231.010754 
L 157.483195 231.218517 
L 157.237747 231.072883 
L 156.980968 231.313567 
L 156.955438 231.515193 
L 156.51949 231.191451 
L 156.510717 230.992591 
L 155.989321 230.884331 
L 155.814988 230.712499 
L 155.459029 230.975243 
L 155.101012 230.635554 
L 154.984668 230.860574 
L 154.924715 230.668416 
L 154.878289 230.881312 
L 154.650958 231.123025 
L 154.416026 230.96163 
L 154.214317 231.197646 
L 153.414176 230.941585 
L 153.22765 230.773484 
L 153.186896 230.574155 
L 152.536607 230.50267 
L 152.289847 230.348641 
L 152.037222 230.819267 
L 151.614385 230.281509 
L 151.316274 230.140646 
L 151.013701 230.420721 
L 150.745254 230.267632 
L 150.721688 230.057765 
L 150.69213 230.28044 
L 150.543656 230.740264 
L 150.413623 230.558746 
L 150.065711 231.26258 
L 149.528119 231.554381 
L 149.27203 231.18629 
L 149.141702 231.420811 
L 148.823405 231.272367 
L 148.719276 231.083952 
L 148.289855 230.969519 
L 148.261309 231.187635 
L 147.92744 230.849732 
L 147.641822 230.712054 
L 147.338751 230.995178 
L 147.279073 230.794655 
L 147.178058 231.03527 
L 146.926603 230.882776 
L 146.833124 231.119419 
L 146.701992 230.935355 
L 146.701056 231.151245 
L 146.393011 231.011948 
L 146.292541 230.819312 
L 146.106207 231.079496 
L 145.809326 230.928461 
L 145.776297 230.717246 
L 145.190797 231.692292 
L 145.12026 231.491833 
L 145.066276 231.715524 
L 144.37221 231.621949 
L 144.065532 231.879111 
L 144.049736 231.667423 
L 143.676885 231.085732 
L 142.700386 230.895116 
L 142.698067 230.671602 
L 142.355924 230.548864 
L 141.813886 230.475337 
L 141.777992 230.712834 
L 141.732431 230.497961 
L 141.696628 229.813892 
L 141.297475 229.700511 
L 141.128113 229.280434 
L 141.048299 228.828187 
L 140.968115 229.101301 
L 140.52188 228.789755 
L 140.269006 228.442824 
L 140.226261 228.721415 
L 140.152441 228.523851 
L 140.023999 228.863209 
L 139.88905 228.710061 
L 139.738124 229.065505 
L 139.666981 228.864696 
L 139.076871 229.048735 
L 138.900806 229.424059 
L 138.858829 229.20146 
L 138.726914 229.544992 
L 138.382975 229.526854 
L 138.372075 229.279823 
L 138.123244 229.950341 
L 138.023709 229.762649 
L 137.84761 228.85548 
L 137.753389 229.185363 
L 137.553555 228.804626 
L 137.53592 229.080585 
L 137.311836 228.97372 
L 136.675649 230.170499 
L 136.591181 229.447742 
L 136.505847 229.244873 
L 136.29872 229.659418 
L 136.228511 229.442715 
L 136.026844 229.848592 
L 135.682361 229.814277 
L 134.659773 231.21235 
L 134.331711 231.118012 
L 134.302181 230.871188 
L 134.043898 230.760956 
L 134.028586 230.501917 
L 133.579376 229.975151 
L 132.86944 230.21163 
L 132.851093 230.503633 
L 132.620908 230.390951 
L 132.518188 229.906249 
L 132.482837 229.936015 
L 132.462075 230.238419 
L 131.471344 231.555573 
L 131.415985 231.315912 
L 131.261674 231.978612 
L 131.015558 231.873798 
L 130.718357 232.340901 
L 130.213113 232.384234 
L 130.203054 232.111324 
L 130.052399 231.928885 
L 129.980318 231.406089 
L 129.837644 231.220881 
L 129.806173 230.952791 
L 129.772823 231.273665 
L 129.437602 231.249309 
L 129.411194 230.97315 
L 128.974263 231.011376 
L 128.835237 231.711496 
L 128.529429 231.642945 
L 128.446208 231.40407 
L 128.208411 231.873614 
L 128.15964 231.307186 
L 127.742745 231.363612 
L 127.200174 230.259502 
L 127.129378 229.994958 
L 126.882888 229.886649 
L 126.781594 228.969106 
L 126.571736 228.484768 
L 126.482023 228.929344 
L 126.476499 228.582883 
L 126.292521 227.332706 
L 126.157657 226.350065 
L 125.938653 226.231561 
L 125.851402 226.72631 
L 125.770092 226.434414 
L 125.524709 226.343736 
L 125.321638 225.792052 
L 125.225955 226.320574 
L 125.168254 225.987389 
L 124.920258 225.915436 
L 124.899034 226.357926 
L 124.84187 226.021236 
L 124.774487 225.267481 
L 124.555523 225.134431 
L 124.463265 224.378145 
L 124.32003 224.141727 
L 124.313664 224.604947 
L 124.257258 224.239526 
L 124.151111 223.945534 
L 123.873078 223.919741 
L 123.825548 224.462979 
L 123.775802 224.073548 
L 123.679806 223.752487 
L 123.670329 223.28369 
L 123.059513 226.624895 
L 122.874414 227.793907 
L 122.772104 227.512762 
L 122.651869 228.564778 
L 122.455244 228.422452 
L 121.787895 230.221613 
L 121.542929 230.135605 
L 121.535478 229.713267 
L 121.363464 229.518689 
L 121.261901 228.766799 
L 121.217675 229.284522 
L 121.193098 228.869429 
L 120.552537 228.960284 
L 120.439184 228.665551 
L 120.407242 229.193195 
L 120.342898 228.825076 
L 120.185998 229.558653 
L 119.64033 229.97 
L 118.869419 230.696495 
L 118.438201 229.901487 
L 118.253481 229.700847 
L 117.235697 230.938988 
L 117.186446 229.37648 
L 117.069874 230.150995 
L 117.051496 229.623144 
L 116.827657 229.462635 
L 116.802886 228.923585 
L 116.590123 228.723463 
L 116.550517 227.564214 
L 116.414621 228.436898 
L 116.249555 228.132732 
L 115.6621 227.970619 
L 115.45428 229.012901 
L 115.279613 228.704582 
L 115.265007 228.067399 
L 115.124833 227.678087 
L 115.123657 228.36397 
L 114.806549 229.680413 
L 114.406587 229.820754 
L 113.435703 229.695196 
L 113.315253 228.4585 
L 112.968661 228.430574 
L 112.892175 227.801507 
L 112.504547 229.447706 
L 112.375908 228.936749 
L 112.093726 228.770431 
L 111.781107 226.877648 
L 111.606553 226.354119 
L 111.573867 225.469438 
L 111.359011 224.980082 
L 110.545823 227.860627 
L 109.334495 229.663012 
L 108.914412 228.516877 
L 107.710324 230.121111 
L 107.019579 230.489848 
L 106.803964 229.760508 
L 106.215599 229.830291 
L 106.058735 227.484439 
L 106.02295 228.948921 
L 105.77136 226.701832 
L 104.669836 227.740365 
L 104.330693 226.911572 
L 104.146425 225.631257 
L 103.969056 227.768879 
L 101.735834 231.449661 
L 101.660195 233.348883 
L 101.365938 230.52245 
L 97.23187 238.577904 
L 96.581615 238.063618 
L 96.334182 240.762361 
L 95.31956 241.11615 
L 94.001254 242.116364 
L 93.813957 240.112345 
L 93.794226 237.45823 
L 91.691941 239.719741 
L 90.044846 240.44997 
L 89.48504 238.049869 
L 87.90655 237.570053 
L 87.859955 232.514528 
L 84.263326 235.357457 
L 84.071936 227.685897 
L 82.915813 219.152276 
L 69.218182 234.722213 
L 69.218182 234.722213 
" style="fill:none;stroke:#ff7f0e;stroke-dasharray:2500,2.5;stroke-dashoffset:0;stroke-width:2.5;"/>
   </g>
   <g id="line2d_73">
    <g clip-path="url(#pc8829d208a)">
     <use style="stroke:#000000;" x="161.944748" xlink:href="#mbf121dba3f" y="231.927309"/>
    </g>
   </g>
   <g id="line2d_74">
    <g clip-path="url(#pc8829d208a)">
     <use style="fill:#0000ff;stroke:#0000ff;stroke-linejoin:miter;" x="94.001254" xlink:href="#m76bd684383" y="242.116364"/>
    </g>
   </g>
   <g id="line2d_75">
    <g clip-path="url(#pc8829d208a)">
     <use style="fill:#ff0000;stroke:#ff0000;" x="0" xlink:href="#meb188740e5" y="0"/>
    </g>
   </g>
   <g id="line2d_76">
    <path clip-path="url(#pc8829d208a)" d="M 373.581818 44.443636 
L 372.926384 44.646316 
L 372.919226 44.522048 
L 371.810243 45.160879 
L 371.790911 45.047388 
L 370.687089 45.615524 
L 370.655423 45.510917 
L 369.553424 46.017708 
L 369.509105 45.920319 
L 368.348317 46.282213 
L 367.169332 46.602318 
L 365.968174 46.885607 
L 364.740607 47.136351 
L 363.481883 47.358275 
L 362.186665 47.554589 
L 361.006361 47.808149 
L 360.848788 47.728079 
L 359.641709 47.962081 
L 359.460993 47.881156 
L 358.221579 48.098271 
L 358.014543 48.015911 
L 357.074251 48.380212 
L 357.063783 48.257099 
L 356.837077 48.524468 
L 356.638655 48.528829 
L 355.40945 49.312392 
L 355.366745 49.212522 
L 354.327268 49.817012 
L 354.053299 49.828235 
L 353.778356 50.070542 
L 353.705658 49.986438 
L 352.032214 50.70234 
L 351.985324 50.495813 
L 351.825379 50.697697 
L 350.034903 51.340961 
L 349.675033 51.336169 
L 348.75923 51.661632 
L 348.594426 51.597409 
L 348.021795 51.836384 
L 347.617462 51.822462 
L 347.11561 52.036481 
L 346.921461 51.974499 
L 346.061623 52.231398 
L 345.615277 52.208743 
L 345.446267 52.362312 
L 345.12448 52.323754 
L 343.810896 54.010185 
L 340.492146 57.67014 
L 337.515473 60.313395 
L 334.554514 64.339605 
L 334.27645 64.555675 
L 334.025788 64.986218 
L 331.021887 68.088023 
L 330.098505 68.697639 
L 329.876977 69.00549 
L 329.328964 69.321976 
L 327.550338 70.645458 
L 327.440235 70.616648 
L 325.688817 71.954651 
L 325.109219 72.168462 
L 324.660481 72.488243 
L 324.579577 72.388815 
L 324.311034 72.365193 
L 323.760556 72.534783 
L 323.740035 72.426327 
L 323.003645 73.210171 
L 322.744629 73.214297 
L 322.014337 73.722134 
L 321.25245 73.947504 
L 321.164394 74.106258 
L 320.803822 74.100247 
L 319.2803 74.954077 
L 318.940895 74.916038 
L 318.935552 74.787419 
L 318.854627 74.945861 
L 318.288105 75.328404 
L 318.273523 75.211355 
L 316.912156 76.065207 
L 316.877037 75.96022 
L 316.854889 76.099397 
L 315.990254 76.651364 
L 315.940113 76.554405 
L 315.874355 76.699953 
L 315.667641 76.615205 
L 315.16311 77.011507 
L 315.075227 76.805534 
L 314.575198 77.055121 
L 314.399267 77.008908 
L 314.385246 77.147 
L 313.601066 77.60635 
L 313.240002 77.797015 
L 312.847167 77.623418 
L 312.577587 78.132932 
L 311.884604 78.448181 
L 311.061273 78.774997 
L 311.025256 78.948019 
L 310.952261 78.772669 
L 310.646976 78.908256 
L 309.468899 79.29197 
L 309.161028 79.746177 
L 308.36164 79.966954 
L 308.263194 79.803285 
L 307.284286 80.285046 
L 306.996569 80.690587 
L 304.784399 83.257566 
L 304.768346 83.143775 
L 302.992981 85.476244 
L 302.725755 85.839718 
L 302.698827 85.754009 
L 300.415914 89.239 
L 299.434913 90.155142 
L 299.266754 90.609243 
L 299.1341 90.852178 
L 297.95958 91.729284 
L 297.904923 91.924707 
L 296.656245 93.633906 
L 296.538563 93.675196 
L 296.149192 94.118372 
L 295.791417 94.33722 
L 294.946708 95.69833 
L 293.605687 96.824673 
L 293.107205 97.631725 
L 292.879665 98.049866 
L 292.08844 98.846632 
L 292.067078 98.745885 
L 288.381014 104.284754 
L 287.349526 105.735982 
L 287.035021 105.996692 
L 285.723222 108.082827 
L 284.688699 109.197774 
L 284.291873 109.410197 
L 282.403961 111.621908 
L 281.313523 113.201394 
L 279.342436 115.179976 
L 278.506903 115.898691 
L 277.966091 115.958714 
L 276.924474 117.061038 
L 276.291068 117.639666 
L 275.887994 118.3895 
L 275.313519 119.227252 
L 275.111167 119.185959 
L 275.108552 119.050046 
L 274.895519 119.287927 
L 273.640207 120.044719 
L 273.603222 119.941824 
L 273.327167 120.323254 
L 272.905417 120.497002 
L 272.52834 120.942444 
L 272.514374 120.814766 
L 272.389032 120.813653 
L 272.388762 120.953997 
L 272.387309 120.815634 
L 271.974077 121.147555 
L 271.356893 122.130076 
L 271.191726 122.098884 
L 269.930383 123.057625 
L 269.433607 123.313877 
L 269.362885 123.203945 
L 269.081771 123.050192 
L 269.055939 122.927614 
L 268.263145 123.662732 
L 267.527408 123.840585 
L 267.406528 123.830668 
L 267.273 124.112873 
L 266.869264 124.390622 
L 266.312398 124.989648 
L 266.111029 124.891249 
L 265.364154 125.730661 
L 265.116147 125.765518 
L 264.884226 126.026657 
L 264.543497 126.100114 
L 263.367129 127.916701 
L 263.352587 128.079787 
L 263.311152 127.999576 
L 262.848949 128.786757 
L 260.869596 132.216705 
L 259.662001 134.995647 
L 258.145021 138.718297 
L 257.868026 138.766846 
L 257.825506 138.684189 
L 254.207139 144.155242 
L 252.733682 147.689088 
L 252.722376 147.857861 
L 252.687306 147.796069 
L 252.542149 147.992291 
L 252.265772 148.772329 
L 248.908522 156.085264 
L 248.703537 156.513576 
L 248.638048 156.515477 
L 248.372244 157.363309 
L 248.360121 157.243651 
L 247.607433 158.664235 
L 247.590769 158.843181 
L 247.025797 160.199525 
L 246.818974 160.448458 
L 246.211658 161.626565 
L 246.094834 161.974716 
L 246.079899 161.856774 
L 245.527721 162.541363 
L 245.445413 162.571211 
L 244.616591 164.721337 
L 243.382399 167.052612 
L 242.861071 168.020804 
L 242.02247 169.468583 
L 241.978441 169.400398 
L 241.516388 170.556864 
L 241.209914 170.689289 
L 238.575179 176.168617 
L 236.24559 181.066742 
L 235.828587 181.838828 
L 234.831726 184.290318 
L 233.233207 187.501873 
L 232.166912 189.459127 
L 228.230109 195.710401 
L 227.908315 196.5594 
L 227.521043 197.059905 
L 226.933266 197.930686 
L 225.397498 199.904513 
L 224.309459 201.709171 
L 223.866735 201.845437 
L 222.714672 203.649482 
L 222.265552 203.967376 
L 222.094424 204.289445 
L 221.946113 204.310469 
L 221.367214 204.690531 
L 221.236304 204.545009 
L 220.701732 205.335101 
L 220.248658 205.704189 
L 219.875699 206.570165 
L 218.586809 207.698548 
L 218.574371 207.860718 
L 218.355691 207.884959 
L 217.881513 208.201181 
L 217.045753 209.131329 
L 216.955303 208.917232 
L 216.954987 209.071283 
L 216.674696 209.507305 
L 216.63802 209.391747 
L 215.966322 210.176737 
L 214.993897 210.899959 
L 214.638648 211.486871 
L 214.619948 211.34928 
L 214.412892 211.35482 
L 214.373608 211.231227 
L 214.207627 211.510155 
L 213.580418 211.661024 
L 213.527494 211.851549 
L 212.951629 212.079803 
L 212.45092 212.653455 
L 212.384718 212.837388 
L 212.351351 212.709274 
L 212.274644 212.460565 
L 211.988922 212.535453 
L 211.887845 212.90902 
L 211.753803 212.839735 
L 211.560805 212.804503 
L 211.503332 212.994823 
L 210.922128 213.485194 
L 209.641088 213.938389 
L 209.591951 213.824449 
L 208.888208 214.832062 
L 208.857886 214.702129 
L 208.754356 214.632928 
L 208.436141 214.76357 
L 207.50847 215.401971 
L 207.38027 215.348304 
L 207.065812 216.025204 
L 206.700719 215.974098 
L 206.078658 216.118488 
L 204.567846 217.788833 
L 204.077517 217.919092 
L 203.730787 218.548051 
L 202.285567 220.026283 
L 201.931043 220.119555 
L 201.597658 220.494647 
L 201.336404 220.503413 
L 200.722534 221.026117 
L 200.481541 221.005117 
L 200.271359 221.27616 
L 199.42383 221.425498 
L 199.1001 221.733821 
L 198.58371 221.645277 
L 198.523356 221.525983 
L 198.292391 221.83486 
L 198.009817 221.855473 
L 197.992971 221.705972 
L 197.781494 221.684866 
L 197.036487 222.283312 
L 196.997711 222.46322 
L 195.629313 222.835659 
L 195.625022 222.675205 
L 195.489788 222.900283 
L 195.151478 223.210117 
L 194.562805 222.981819 
L 194.457125 223.352242 
L 193.973774 223.337564 
L 193.811121 223.142679 
L 193.3829 223.604555 
L 193.235285 223.539311 
L 192.663877 224.06993 
L 192.224257 224.088759 
L 192.046763 224.397036 
L 191.894266 224.352434 
L 191.726236 224.649123 
L 191.723222 224.48518 
L 191.348131 224.621916 
L 190.198444 225.655819 
L 190.144215 225.523304 
L 189.872711 225.846363 
L 189.483788 225.911745 
L 189.467975 226.085845 
L 188.624194 226.270133 
L 186.627514 227.10062 
L 186.236606 227.127203 
L 186.116074 226.671787 
L 185.575696 227.604904 
L 185.439752 227.495361 
L 185.322243 227.713113 
L 185.067631 227.480255 
L 184.753416 227.748891 
L 184.725752 227.587915 
L 184.666288 227.778079 
L 184.374493 227.703235 
L 184.164925 227.936811 
L 183.781058 227.935501 
L 183.646414 227.821764 
L 183.233291 228.161116 
L 182.984576 228.086426 
L 182.076971 228.539146 
L 182.010886 228.386806 
L 181.499318 228.861397 
L 181.071086 228.795847 
L 180.707836 229.046664 
L 180.224096 228.982017 
L 179.899871 228.716416 
L 179.255776 228.702419 
L 178.227421 229.261446 
L 177.191705 228.94903 
L 177.190927 229.123716 
L 176.996182 228.989294 
L 176.838636 229.195251 
L 176.641091 229.059249 
L 176.364386 229.284246 
L 176.321765 229.117302 
L 175.798146 229.041902 
L 175.731438 228.877554 
L 175.727215 229.055019 
L 175.448111 228.826821 
L 175.34748 229.048798 
L 175.175391 228.946804 
L 174.560444 229.548335 
L 174.485331 229.047139 
L 173.859837 228.951013 
L 173.708538 229.36929 
L 173.672704 229.202734 
L 173.273583 229.528278 
L 173.152874 229.390454 
L 173.01187 229.618009 
L 172.772622 229.516505 
L 171.525291 230.234936 
L 170.718576 230.274363 
L 170.345027 230.540305 
L 170.315186 230.724766 
L 169.74527 230.492848 
L 169.489858 230.723819 
L 168.256374 230.488995 
L 168.0702 230.362039 
L 167.740886 230.62774 
L 167.245051 230.205049 
L 166.981685 230.635523 
L 166.908204 230.47006 
L 166.820231 230.674933 
L 166.686103 230.523414 
L 166.39781 230.762845 
L 166.147151 230.627127 
L 165.751565 231.242786 
L 165.282358 231.493074 
L 165.09408 231.3486 
L 164.74954 231.582546 
L 163.661797 231.895508 
L 163.551183 231.729815 
L 162.960907 231.627 
L 161.644838 232.139003 
L 160.941341 232.372869 
L 160.000044 231.908769 
L 159.970681 231.730139 
L 159.044825 231.457336 
L 158.566599 231.323085 
L 158.093688 231.552874 
L 157.769315 231.946571 
L 157.553185 231.782007 
L 157.519475 231.601803 
L 157.347333 231.434204 
L 157.095999 231.64163 
L 156.994118 231.466569 
L 156.604257 231.685556 
L 156.216286 231.357718 
L 156.071134 230.998543 
L 155.9357 230.637449 
L 155.888323 230.83422 
L 155.87684 230.452823 
L 155.633991 230.300714 
L 155.606809 230.498809 
L 155.557215 230.313672 
L 155.537749 230.12264 
L 155.464245 230.332034 
L 155.139505 230.578206 
L 155.132488 230.385765 
L 154.304708 230.352488 
L 154.026246 230.59221 
L 153.991553 230.791066 
L 153.979556 230.599367 
L 153.858568 230.427611 
L 153.553688 230.669251 
L 153.551437 230.474672 
L 153.178159 230.337492 
L 153.174967 230.14041 
L 152.912646 229.788242 
L 152.660247 230.029404 
L 152.505048 229.456916 
L 152.260392 229.705184 
L 151.553889 229.441196 
L 151.323775 229.080112 
L 150.990771 228.945759 
L 150.726664 229.411156 
L 150.303928 228.88049 
L 150.023028 229.368806 
L 149.74235 229.223123 
L 149.583873 229.674063 
L 149.488099 229.486178 
L 149.175959 229.343506 
L 149.118338 229.564666 
L 148.986379 229.392579 
L 148.96812 229.606594 
L 148.863385 229.426306 
L 148.756725 229.869228 
L 148.529447 229.713044 
L 148.020183 229.61542 
L 147.823189 229.865121 
L 147.796346 229.661317 
L 147.238053 229.180566 
L 146.797767 229.099477 
L 146.602275 229.366829 
L 146.45077 228.755908 
L 146.166509 229.05864 
L 146.052152 229.523533 
L 145.946786 229.762597 
L 145.675587 229.407817 
L 145.488294 229.249231 
L 145.003049 229.607417 
L 144.908629 230.062277 
L 144.831567 229.870175 
L 144.773712 230.099627 
L 144.750848 229.891639 
L 144.699849 229.69108 
L 144.169237 230.043557 
L 144.099861 230.273345 
L 143.937078 229.880026 
L 143.915524 229.667597 
L 143.86966 229.895236 
L 143.660305 229.724307 
L 143.533724 228.877002 
L 142.793739 228.885463 
L 142.777861 228.662641 
L 142.689018 228.917542 
L 142.672127 229.148217 
L 142.270108 228.814043 
L 142.264281 228.586483 
L 141.987549 228.458912 
L 141.827069 228.974409 
L 141.76747 228.764572 
L 141.760936 228.996274 
L 140.993042 229.449799 
L 140.928599 229.692718 
L 140.7134 229.533891 
L 140.465974 228.943346 
L 140.341863 228.762414 
L 140.083426 228.635417 
L 139.84304 227.783873 
L 139.501683 228.180583 
L 138.768649 228.318698 
L 138.573384 228.652134 
L 138.395984 228.245618 
L 138.1802 227.600923 
L 138.141373 227.871554 
L 138.12528 227.627294 
L 137.675831 228.08974 
L 137.543227 228.398865 
L 137.247751 228.278816 
L 137.18213 228.056382 
L 136.94989 228.660615 
L 136.851054 228.453023 
L 136.180008 228.96076 
L 136.162008 228.718566 
L 135.365644 229.52666 
L 135.32406 229.050665 
L 135.192662 228.869298 
L 135.097371 229.170649 
L 134.635876 229.168336 
L 134.556741 228.447922 
L 134.318732 228.094596 
L 134.252431 227.608544 
L 134.131432 227.42824 
L 134.10576 227.173762 
L 133.838517 227.118952 
L 133.8066 227.41996 
L 133.55187 227.352929 
L 133.447785 227.979693 
L 133.145015 227.921585 
L 132.993656 228.299619 
L 132.922119 228.08152 
L 132.817993 228.433409 
L 132.491519 228.403551 
L 132.413232 228.733952 
L 132.099557 228.693044 
L 132.047927 229.003329 
L 131.68785 227.876248 
L 131.645386 227.62431 
L 131.630068 227.924598 
L 131.623945 227.641904 
L 131.573547 228.255423 
L 131.231529 228.242015 
L 131.034643 227.849572 
L 131.010682 227.578597 
L 130.671226 227.610012 
L 130.605228 227.372463 
L 130.270126 227.398716 
L 129.863076 227.188889 
L 129.776503 226.652133 
L 129.642678 226.487303 
L 129.633233 226.818553 
L 129.472213 226.681636 
L 129.198788 226.666612 
L 129.19434 226.343724 
L 129.142115 226.729084 
L 129.10434 226.443468 
L 129.010666 225.883664 
L 128.966314 226.269634 
L 128.555745 226.395123 
L 128.421764 226.203865 
L 128.400084 225.887223 
L 127.83846 226.889823 
L 127.719192 227.364306 
L 127.546316 227.224675 
L 127.413938 226.335776 
L 127.229436 225.846051 
L 127.169669 225.557344 
L 126.987421 225.426052 
L 126.957393 225.091426 
L 126.800249 225.673586 
L 126.674104 225.479877 
L 126.19034 225.790537 
L 125.899064 225.808475 
L 125.656546 226.519299 
L 125.351092 226.158488 
L 125.348942 225.764833 
L 124.780246 225.755783 
L 123.791409 226.697361 
L 123.395836 227.618314 
L 123.382366 227.221487 
L 123.140159 227.114229 
L 122.995891 227.717863 
L 122.854581 227.054327 
L 122.741914 227.625742 
L 122.688067 227.272606 
L 122.313188 227.388719 
L 122.29087 226.984257 
L 122.260639 227.471208 
L 122.001768 228.298214 
L 121.962174 227.92534 
L 121.829546 228.55568 
L 121.825798 228.128269 
L 121.784935 227.304451 
L 121.717734 227.854143 
L 121.650551 228.395579 
L 121.644647 227.964901 
L 121.347929 228.848823 
L 121.161518 228.25581 
L 121.01696 228.925982 
L 120.908008 228.64668 
L 120.546758 229.631873 
L 120.373303 228.988309 
L 119.878539 228.807637 
L 119.784027 227.988945 
L 119.301546 227.234373 
L 119.22403 227.862916 
L 119.050246 227.621833 
L 119.028655 227.134952 
L 118.856919 226.88091 
L 118.566689 224.557057 
L 117.978353 225.036774 
L 117.811043 224.730536 
L 117.707283 223.662564 
L 117.097346 224.210867 
L 117.022528 223.690834 
L 116.798672 223.449652 
L 116.325891 223.687025 
L 116.313995 222.993178 
L 115.951909 222.99334 
L 115.421635 223.302917 
L 114.342051 224.65504 
L 113.975602 224.574863 
L 113.695703 224.310948 
L 113.114101 224.603463 
L 112.987989 223.976864 
L 112.770848 220.626766 
L 112.620144 221.934051 
L 112.595272 220.990935 
L 112.542791 222.095205 
L 112.317486 221.57145 
L 111.603543 224.035326 
L 111.291036 222.671944 
L 111.258714 223.771259 
L 111.157435 222.960713 
L 110.882018 224.5842 
L 110.662784 224.021466 
L 110.260231 223.833474 
L 110.23324 222.780551 
L 109.994673 222.150042 
L 109.761438 220.197111 
L 109.516185 221.991568 
L 109.432821 220.915668 
L 108.794115 223.567558 
L 108.627482 222.667458 
L 108.263981 222.13262 
L 108.091106 219.674333 
L 107.959895 221.414344 
L 107.85814 220.180782 
L 107.818258 217.117396 
L 107.080914 217.091132 
L 106.579126 216.428272 
L 106.558643 214.519533 
L 106.40754 212.772658 
L 106.261602 215.213795 
L 105.600286 214.640962 
L 104.298808 215.333964 
L 103.78951 214.01354 
L 103.477292 212.032257 
L 103.431357 209.152949 
L 102.593384 207.790492 
L 102.33057 211.745436 
L 101.514784 210.363274 
L 100.544917 208.949361 
L 98.430367 209.869438 
L 98.052223 205.640772 
L 97.685881 211.715264 
L 96.661405 209.144328 
L 96.287813 215.255581 
L 93.834549 216.237546 
L 93.494268 222.25065 
L 87.834539 231.158308 
L 87.404878 225.907342 
L 86.646692 219.658915 
L 84.89977 212.548945 
L 70.029352 231.124096 
L 70.029352 231.124096 
" style="fill:none;stroke:#2ca02c;stroke-dasharray:5,2.5,25,2.5;stroke-dashoffset:0;stroke-width:2.5;"/>
   </g>
   <g id="line2d_77">
    <g clip-path="url(#pc8829d208a)">
     <use style="stroke:#000000;" x="156.604257" xlink:href="#mbf121dba3f" y="231.685556"/>
    </g>
   </g>
   <g id="line2d_78">
    <g clip-path="url(#pc8829d208a)">
     <use style="fill:#0000ff;stroke:#0000ff;stroke-linejoin:miter;" x="160.941341" xlink:href="#m76bd684383" y="232.372869"/>
    </g>
   </g>
   <g id="line2d_79">
    <g clip-path="url(#pc8829d208a)">
     <use style="fill:#ff0000;stroke:#ff0000;" x="0" xlink:href="#meb188740e5" y="0"/>
    </g>
   </g>
   <g id="patch_3">
    <path d="M 54 252 
L 54 34.56 
" style="fill:none;stroke:#000000;stroke-linecap:square;stroke-linejoin:miter;stroke-width:0.8;"/>
   </g>
   <g id="patch_4">
    <path d="M 388.8 252 
L 388.8 34.56 
" style="fill:none;stroke:#000000;stroke-linecap:square;stroke-linejoin:miter;stroke-width:0.8;"/>
   </g>
   <g id="patch_5">
    <path d="M 54 252 
L 388.8 252 
" style="fill:none;stroke:#000000;stroke-linecap:square;stroke-linejoin:miter;stroke-width:0.8;"/>
   </g>
   <g id="patch_6">
    <path d="M 54 34.56 
L 388.8 34.56 
" style="fill:none;stroke:#000000;stroke-linecap:square;stroke-linejoin:miter;stroke-width:0.8;"/>
   </g>
   <g id="text_16">
    <!-- GCV function for $\ell_1$ trend filter ($\sigma = 0.01$) -->
    <defs>
     <path id="DejaVuSans-32"/>
     <path d="M 37.109375 75.984375 
L 37.109375 68.5 
L 28.515625 68.5 
Q 23.6875 68.5 21.796875 66.546875 
Q 19.921875 64.59375 19.921875 59.515625 
L 19.921875 54.6875 
L 34.71875 54.6875 
L 34.71875 47.703125 
L 19.921875 47.703125 
L 19.921875 0 
L 10.890625 0 
L 10.890625 47.703125 
L 2.296875 47.703125 
L 2.296875 54.6875 
L 10.890625 54.6875 
L 10.890625 58.5 
Q 10.890625 67.625 15.140625 71.796875 
Q 19.390625 75.984375 28.609375 75.984375 
z
" id="DejaVuSans-102"/>
     <path d="M 8.5 21.578125 
L 8.5 54.6875 
L 17.484375 54.6875 
L 17.484375 21.921875 
Q 17.484375 14.15625 20.5 10.265625 
Q 23.53125 6.390625 29.59375 6.390625 
Q 36.859375 6.390625 41.078125 11.03125 
Q 45.3125 15.671875 45.3125 23.6875 
L 45.3125 54.6875 
L 54.296875 54.6875 
L 54.296875 0 
L 45.3125 0 
L 45.3125 8.40625 
Q 42.046875 3.421875 37.71875 1 
Q 33.40625 -1.421875 27.6875 -1.421875 
Q 18.265625 -1.421875 13.375 4.4375 
Q 8.5 10.296875 8.5 21.578125 
z
M 31.109375 56 
z
" id="DejaVuSans-117"/>
     <path d="M 54.890625 33.015625 
L 54.890625 0 
L 45.90625 0 
L 45.90625 32.71875 
Q 45.90625 40.484375 42.875 44.328125 
Q 39.84375 48.1875 33.796875 48.1875 
Q 26.515625 48.1875 22.3125 43.546875 
Q 18.109375 38.921875 18.109375 30.90625 
L 18.109375 0 
L 9.078125 0 
L 9.078125 54.6875 
L 18.109375 54.6875 
L 18.109375 46.1875 
Q 21.34375 51.125 25.703125 53.5625 
Q 30.078125 56 35.796875 56 
Q 45.21875 56 50.046875 50.171875 
Q 54.890625 44.34375 54.890625 33.015625 
z
" id="DejaVuSans-110"/>
     <path d="M 48.78125 52.59375 
L 48.78125 44.1875 
Q 44.96875 46.296875 41.140625 47.34375 
Q 37.3125 48.390625 33.40625 48.390625 
Q 24.65625 48.390625 19.8125 42.84375 
Q 14.984375 37.3125 14.984375 27.296875 
Q 14.984375 17.28125 19.8125 11.734375 
Q 24.65625 6.203125 33.40625 6.203125 
Q 37.3125 6.203125 41.140625 7.25 
Q 44.96875 8.296875 48.78125 10.40625 
L 48.78125 2.09375 
Q 45.015625 0.34375 40.984375 -0.53125 
Q 36.96875 -1.421875 32.421875 -1.421875 
Q 20.0625 -1.421875 12.78125 6.34375 
Q 5.515625 14.109375 5.515625 27.296875 
Q 5.515625 40.671875 12.859375 48.328125 
Q 20.21875 56 33.015625 56 
Q 37.15625 56 41.109375 55.140625 
Q 45.0625 54.296875 48.78125 52.59375 
z
" id="DejaVuSans-99"/>
     <path d="M 18.3125 70.21875 
L 18.3125 54.6875 
L 36.8125 54.6875 
L 36.8125 47.703125 
L 18.3125 47.703125 
L 18.3125 18.015625 
Q 18.3125 11.328125 20.140625 9.421875 
Q 21.96875 7.515625 27.59375 7.515625 
L 36.8125 7.515625 
L 36.8125 0 
L 27.59375 0 
Q 17.1875 0 13.234375 3.875 
Q 9.28125 7.765625 9.28125 18.015625 
L 9.28125 47.703125 
L 2.6875 47.703125 
L 2.6875 54.6875 
L 9.28125 54.6875 
L 9.28125 70.21875 
z
" id="DejaVuSans-116"/>
     <path d="M 9.421875 54.6875 
L 18.40625 54.6875 
L 18.40625 0 
L 9.421875 0 
z
M 9.421875 75.984375 
L 18.40625 75.984375 
L 18.40625 64.59375 
L 9.421875 64.59375 
z
" id="DejaVuSans-105"/>
     <path d="M 30.609375 48.390625 
Q 23.390625 48.390625 19.1875 42.75 
Q 14.984375 37.109375 14.984375 27.296875 
Q 14.984375 17.484375 19.15625 11.84375 
Q 23.34375 6.203125 30.609375 6.203125 
Q 37.796875 6.203125 41.984375 11.859375 
Q 46.1875 17.53125 46.1875 27.296875 
Q 46.1875 37.015625 41.984375 42.703125 
Q 37.796875 48.390625 30.609375 48.390625 
z
M 30.609375 56 
Q 42.328125 56 49.015625 48.375 
Q 55.71875 40.765625 55.71875 27.296875 
Q 55.71875 13.875 49.015625 6.21875 
Q 42.328125 -1.421875 30.609375 -1.421875 
Q 18.84375 -1.421875 12.171875 6.21875 
Q 5.515625 13.875 5.515625 27.296875 
Q 5.515625 40.765625 12.171875 48.375 
Q 18.84375 56 30.609375 56 
z
" id="DejaVuSans-111"/>
     <path d="M 41.109375 46.296875 
Q 39.59375 47.171875 37.8125 47.578125 
Q 36.03125 48 33.890625 48 
Q 26.265625 48 22.1875 43.046875 
Q 18.109375 38.09375 18.109375 28.8125 
L 18.109375 0 
L 9.078125 0 
L 9.078125 54.6875 
L 18.109375 54.6875 
L 18.109375 46.1875 
Q 20.953125 51.171875 25.484375 53.578125 
Q 30.03125 56 36.53125 56 
Q 37.453125 56 38.578125 55.875 
Q 39.703125 55.765625 41.0625 55.515625 
z
" id="DejaVuSans-114"/>
     <path d="M 14.84375 13.09375 
Q 16.84375 3.328125 21.09375 3.328125 
Q 23.921875 3.328125 27.59375 8.9375 
L 34.078125 8.9375 
Q 31.15625 3.953125 27.734375 1.375 
Q 24.03125 -1.421875 20.609375 -1.421875 
Q 12.984375 -1.421875 9.90625 5.375 
L 6.25 0 
L -1.375 0 
Q 3.90625 7.171875 7.8125 13.875 
Q 7.328125 17.671875 7.328125 21.828125 
Q 7.328125 29.25 8.84375 36.671875 
Q 14.546875 64.546875 19.625 70.265625 
Q 23.140625 74.21875 29.15625 74.21875 
Q 35.25 74.21875 35.25 65.765625 
Q 35.203125 61.96875 34.328125 57.421875 
Q 30.8125 38.8125 14.84375 13.09375 
z
M 14.796875 25.875 
Q 23.921875 42.875 26.703125 56.453125 
Q 28.171875 63.625 28.171875 65.484375 
Q 28.171875 68.84375 26.953125 68.84375 
Q 21.625 64.59375 16.890625 39.3125 
Q 15.578125 32.234375 14.796875 25.875 
z
" id="DejaVuSans-Oblique-8467"/>
     <path d="M 56.203125 29.59375 
L 56.203125 25.203125 
L 14.890625 25.203125 
Q 15.484375 15.921875 20.484375 11.0625 
Q 25.484375 6.203125 34.421875 6.203125 
Q 39.59375 6.203125 44.453125 7.46875 
Q 49.3125 8.734375 54.109375 11.28125 
L 54.109375 2.78125 
Q 49.265625 0.734375 44.1875 -0.34375 
Q 39.109375 -1.421875 33.890625 -1.421875 
Q 20.796875 -1.421875 13.15625 6.1875 
Q 5.515625 13.8125 5.515625 26.8125 
Q 5.515625 40.234375 12.765625 48.109375 
Q 20.015625 56 32.328125 56 
Q 43.359375 56 49.78125 48.890625 
Q 56.203125 41.796875 56.203125 29.59375 
z
M 47.21875 32.234375 
Q 47.125 39.59375 43.09375 43.984375 
Q 39.0625 48.390625 32.421875 48.390625 
Q 24.90625 48.390625 20.390625 44.140625 
Q 15.875 39.890625 15.1875 32.171875 
z
" id="DejaVuSans-101"/>
     <path d="M 45.40625 46.390625 
L 45.40625 75.984375 
L 54.390625 75.984375 
L 54.390625 0 
L 45.40625 0 
L 45.40625 8.203125 
Q 42.578125 3.328125 38.25 0.953125 
Q 33.9375 -1.421875 27.875 -1.421875 
Q 17.96875 -1.421875 11.734375 6.484375 
Q 5.515625 14.40625 5.515625 27.296875 
Q 5.515625 40.1875 11.734375 48.09375 
Q 17.96875 56 27.875 56 
Q 33.9375 56 38.25 53.625 
Q 42.578125 51.265625 45.40625 46.390625 
z
M 14.796875 27.296875 
Q 14.796875 17.390625 18.875 11.75 
Q 22.953125 6.109375 30.078125 6.109375 
Q 37.203125 6.109375 41.296875 11.75 
Q 45.40625 17.390625 45.40625 27.296875 
Q 45.40625 37.203125 41.296875 42.84375 
Q 37.203125 48.484375 30.078125 48.484375 
Q 22.953125 48.484375 18.875 42.84375 
Q 14.796875 37.203125 14.796875 27.296875 
z
" id="DejaVuSans-100"/>
     <path d="M 9.421875 75.984375 
L 18.40625 75.984375 
L 18.40625 0 
L 9.421875 0 
z
" id="DejaVuSans-108"/>
     <path d="M 34.671875 47.5625 
Q 27.25 47.5625 22.21875 42.1875 
Q 16.890625 36.578125 15.140625 27.296875 
Q 13.1875 17.484375 16.3125 11.8125 
Q 19.390625 6.203125 26.65625 6.203125 
Q 33.84375 6.203125 39.109375 11.859375 
Q 44.4375 17.53125 46.34375 27.296875 
Q 48.046875 36.234375 45.015625 42.1875 
Q 42.1875 47.5625 34.671875 47.5625 
z
M 36.078125 54.734375 
L 65.921875 54.6875 
L 64.15625 45.703125 
L 54.109375 45.703125 
Q 57.90625 38.09375 55.859375 27.296875 
Q 53.21875 13.875 45.0625 6.25 
Q 36.859375 -1.421875 25.140625 -1.421875 
Q 13.375 -1.421875 8.203125 6.25 
Q 3.03125 13.875 5.671875 27.296875 
Q 8.25 40.765625 16.40625 48.390625 
Q 23.1875 54.734375 36.078125 54.734375 
z
" id="DejaVuSans-Oblique-963"/>
     <path d="M 10.59375 45.40625 
L 73.1875 45.40625 
L 73.1875 37.203125 
L 10.59375 37.203125 
z
M 10.59375 25.484375 
L 73.1875 25.484375 
L 73.1875 17.1875 
L 10.59375 17.1875 
z
" id="DejaVuSans-61"/>
     <path d="M 10.6875 12.40625 
L 21 12.40625 
L 21 0 
L 10.6875 0 
z
" id="DejaVuSans-46"/>
    </defs>
    <g transform="translate(99.6 28.56)scale(0.12 -0.12)">
     <use transform="translate(0 0.015625)" xlink:href="#DejaVuSans-71"/>
     <use transform="translate(77.490234 0.015625)" xlink:href="#DejaVuSans-67"/>
     <use transform="translate(147.314453 0.015625)" xlink:href="#DejaVuSans-86"/>
     <use transform="translate(215.722656 0.015625)" xlink:href="#DejaVuSans-32"/>
     <use transform="translate(247.509766 0.015625)" xlink:href="#DejaVuSans-102"/>
     <use transform="translate(282.714844 0.015625)" xlink:href="#DejaVuSans-117"/>
     <use transform="translate(346.09375 0.015625)" xlink:href="#DejaVuSans-110"/>
     <use transform="translate(409.472656 0.015625)" xlink:href="#DejaVuSans-99"/>
     <use transform="translate(464.453125 0.015625)" xlink:href="#DejaVuSans-116"/>
     <use transform="translate(503.662109 0.015625)" xlink:href="#DejaVuSans-105"/>
     <use transform="translate(531.445312 0.015625)" xlink:href="#DejaVuSans-111"/>
     <use transform="translate(592.626953 0.015625)" xlink:href="#DejaVuSans-110"/>
     <use transform="translate(656.005859 0.015625)" xlink:href="#DejaVuSans-32"/>
     <use transform="translate(687.792969 0.015625)" xlink:href="#DejaVuSans-102"/>
     <use transform="translate(722.998047 0.015625)" xlink:href="#DejaVuSans-111"/>
     <use transform="translate(784.179688 0.015625)" xlink:href="#DejaVuSans-114"/>
     <use transform="translate(825.292969 0.015625)" xlink:href="#DejaVuSans-32"/>
     <use transform="translate(857.080078 0.015625)" xlink:href="#DejaVuSans-Oblique-8467"/>
     <use transform="translate(898.388672 -16.390625)scale(0.7)" xlink:href="#DejaVuSans-49"/>
     <use transform="translate(945.65918 0.015625)" xlink:href="#DejaVuSans-32"/>
     <use transform="translate(977.446289 0.015625)" xlink:href="#DejaVuSans-116"/>
     <use transform="translate(1016.655273 0.015625)" xlink:href="#DejaVuSans-114"/>
     <use transform="translate(1057.768555 0.015625)" xlink:href="#DejaVuSans-101"/>
     <use transform="translate(1119.291992 0.015625)" xlink:href="#DejaVuSans-110"/>
     <use transform="translate(1182.670898 0.015625)" xlink:href="#DejaVuSans-100"/>
     <use transform="translate(1246.147461 0.015625)" xlink:href="#DejaVuSans-32"/>
     <use transform="translate(1277.93457 0.015625)" xlink:href="#DejaVuSans-102"/>
     <use transform="translate(1313.139648 0.015625)" xlink:href="#DejaVuSans-105"/>
     <use transform="translate(1340.922852 0.015625)" xlink:href="#DejaVuSans-108"/>
     <use transform="translate(1368.706055 0.015625)" xlink:href="#DejaVuSans-116"/>
     <use transform="translate(1407.915039 0.015625)" xlink:href="#DejaVuSans-101"/>
     <use transform="translate(1469.438477 0.015625)" xlink:href="#DejaVuSans-114"/>
     <use transform="translate(1510.551758 0.015625)" xlink:href="#DejaVuSans-32"/>
     <use transform="translate(1542.338867 0.015625)" xlink:href="#DejaVuSans-40"/>
     <use transform="translate(1581.352539 0.015625)" xlink:href="#DejaVuSans-Oblique-963"/>
     <use transform="translate(1664.213867 0.015625)" xlink:href="#DejaVuSans-61"/>
     <use transform="translate(1767.485352 0.015625)" xlink:href="#DejaVuSans-48"/>
     <use transform="translate(1831.108398 0.015625)" xlink:href="#DejaVuSans-46"/>
     <use transform="translate(1862.895508 0.015625)" xlink:href="#DejaVuSans-48"/>
     <use transform="translate(1926.518555 0.015625)" xlink:href="#DejaVuSans-49"/>
     <use transform="translate(1990.141602 0.015625)" xlink:href="#DejaVuSans-41"/>
    </g>
   </g>
   <g id="legend_1">
    <g id="line2d_80">
     <path d="M 64.8 50.278125 
L 112.8 50.278125 
" style="fill:none;stroke:#1f77b4;stroke-dasharray:7.5,2.5;stroke-dashoffset:0;stroke-width:2.5;"/>
    </g>
    <g id="line2d_81"/>
    <g id="text_17">
     <!-- state $x_1$ -->
     <defs>
      <path d="M 44.28125 53.078125 
L 44.28125 44.578125 
Q 40.484375 46.53125 36.375 47.5 
Q 32.28125 48.484375 27.875 48.484375 
Q 21.1875 48.484375 17.84375 46.4375 
Q 14.5 44.390625 14.5 40.28125 
Q 14.5 37.15625 16.890625 35.375 
Q 19.28125 33.59375 26.515625 31.984375 
L 29.59375 31.296875 
Q 39.15625 29.25 43.1875 25.515625 
Q 47.21875 21.78125 47.21875 15.09375 
Q 47.21875 7.46875 41.1875 3.015625 
Q 35.15625 -1.421875 24.609375 -1.421875 
Q 20.21875 -1.421875 15.453125 -0.5625 
Q 10.6875 0.296875 5.421875 2 
L 5.421875 11.28125 
Q 10.40625 8.6875 15.234375 7.390625 
Q 20.0625 6.109375 24.8125 6.109375 
Q 31.15625 6.109375 34.5625 8.28125 
Q 37.984375 10.453125 37.984375 14.40625 
Q 37.984375 18.0625 35.515625 20.015625 
Q 33.0625 21.96875 24.703125 23.78125 
L 21.578125 24.515625 
Q 13.234375 26.265625 9.515625 29.90625 
Q 5.8125 33.546875 5.8125 39.890625 
Q 5.8125 47.609375 11.28125 51.796875 
Q 16.75 56 26.8125 56 
Q 31.78125 56 36.171875 55.265625 
Q 40.578125 54.546875 44.28125 53.078125 
z
" id="DejaVuSans-115"/>
      <path d="M 34.28125 27.484375 
Q 23.390625 27.484375 19.1875 25 
Q 14.984375 22.515625 14.984375 16.5 
Q 14.984375 11.71875 18.140625 8.90625 
Q 21.296875 6.109375 26.703125 6.109375 
Q 34.1875 6.109375 38.703125 11.40625 
Q 43.21875 16.703125 43.21875 25.484375 
L 43.21875 27.484375 
z
M 52.203125 31.203125 
L 52.203125 0 
L 43.21875 0 
L 43.21875 8.296875 
Q 40.140625 3.328125 35.546875 0.953125 
Q 30.953125 -1.421875 24.3125 -1.421875 
Q 15.921875 -1.421875 10.953125 3.296875 
Q 6 8.015625 6 15.921875 
Q 6 25.140625 12.171875 29.828125 
Q 18.359375 34.515625 30.609375 34.515625 
L 43.21875 34.515625 
L 43.21875 35.40625 
Q 43.21875 41.609375 39.140625 45 
Q 35.0625 48.390625 27.6875 48.390625 
Q 23 48.390625 18.546875 47.265625 
Q 14.109375 46.140625 10.015625 43.890625 
L 10.015625 52.203125 
Q 14.9375 54.109375 19.578125 55.046875 
Q 24.21875 56 28.609375 56 
Q 40.484375 56 46.34375 49.84375 
Q 52.203125 43.703125 52.203125 31.203125 
z
" id="DejaVuSans-97"/>
      <path d="M 60.015625 54.6875 
L 34.90625 27.875 
L 50.296875 0 
L 39.984375 0 
L 28.421875 21.6875 
L 8.296875 0 
L -2.59375 0 
L 24.3125 28.8125 
L 10.015625 54.6875 
L 20.3125 54.6875 
L 30.8125 34.90625 
L 49.125 54.6875 
z
" id="DejaVuSans-Oblique-120"/>
     </defs>
     <g transform="translate(122.4 54.478125)scale(0.12 -0.12)">
      <use transform="translate(0 0.78125)" xlink:href="#DejaVuSans-115"/>
      <use transform="translate(52.099609 0.78125)" xlink:href="#DejaVuSans-116"/>
      <use transform="translate(91.308594 0.78125)" xlink:href="#DejaVuSans-97"/>
      <use transform="translate(152.587891 0.78125)" xlink:href="#DejaVuSans-116"/>
      <use transform="translate(191.796875 0.78125)" xlink:href="#DejaVuSans-101"/>
      <use transform="translate(253.320312 0.78125)" xlink:href="#DejaVuSans-32"/>
      <use transform="translate(285.107422 0.78125)" xlink:href="#DejaVuSans-Oblique-120"/>
      <use transform="translate(344.287109 -15.625)scale(0.7)" xlink:href="#DejaVuSans-49"/>
     </g>
    </g>
    <g id="line2d_82">
     <path d="M 64.8 67.891875 
L 112.8 67.891875 
" style="fill:none;stroke:#ff7f0e;stroke-dasharray:2500,2.5;stroke-dashoffset:0;stroke-width:2.5;"/>
    </g>
    <g id="line2d_83"/>
    <g id="text_18">
     <!-- state $x_2$ -->
     <g transform="translate(122.4 72.091875)scale(0.12 -0.12)">
      <use transform="translate(0 0.78125)" xlink:href="#DejaVuSans-115"/>
      <use transform="translate(52.099609 0.78125)" xlink:href="#DejaVuSans-116"/>
      <use transform="translate(91.308594 0.78125)" xlink:href="#DejaVuSans-97"/>
      <use transform="translate(152.587891 0.78125)" xlink:href="#DejaVuSans-116"/>
      <use transform="translate(191.796875 0.78125)" xlink:href="#DejaVuSans-101"/>
      <use transform="translate(253.320312 0.78125)" xlink:href="#DejaVuSans-32"/>
      <use transform="translate(285.107422 0.78125)" xlink:href="#DejaVuSans-Oblique-120"/>
      <use transform="translate(344.287109 -15.625)scale(0.7)" xlink:href="#DejaVuSans-50"/>
     </g>
    </g>
    <g id="line2d_84">
     <path d="M 64.8 85.505625 
L 112.8 85.505625 
" style="fill:none;stroke:#2ca02c;stroke-dasharray:5,2.5,25,2.5;stroke-dashoffset:0;stroke-width:2.5;"/>
    </g>
    <g id="line2d_85"/>
    <g id="text_19">
     <!-- state $x_3$ -->
     <g transform="translate(122.4 89.705625)scale(0.12 -0.12)">
      <use transform="translate(0 0.78125)" xlink:href="#DejaVuSans-115"/>
      <use transform="translate(52.099609 0.78125)" xlink:href="#DejaVuSans-116"/>
      <use transform="translate(91.308594 0.78125)" xlink:href="#DejaVuSans-97"/>
      <use transform="translate(152.587891 0.78125)" xlink:href="#DejaVuSans-116"/>
      <use transform="translate(191.796875 0.78125)" xlink:href="#DejaVuSans-101"/>
      <use transform="translate(253.320312 0.78125)" xlink:href="#DejaVuSans-32"/>
      <use transform="translate(285.107422 0.78125)" xlink:href="#DejaVuSans-Oblique-120"/>
      <use transform="translate(344.287109 -15.625)scale(0.7)" xlink:href="#DejaVuSans-51"/>
     </g>
    </g>
   </g>
  </g>
 </g>
 <defs>
  <clipPath id="pc8829d208a">
   <rect height="217.44" width="334.8" x="54" y="34.56"/>
  </clipPath>
 </defs>
</svg>
